<svg width="307" height="103" viewBox="0 0 307 103" fill="none" xmlns="http://www.w3.org/2000/svg">
<rect width="307" height="103" rx="50" fill="#FFCD39"/>
<path d="M115.096 52.958C112.04 52.0798 109.814 51.0036 108.416 49.7295C107.031 48.443 106.338 46.8597 106.338 44.9795C106.338 42.8519 107.185 41.0954 108.88 39.71C110.587 38.3122 112.801 37.6133 115.522 37.6133C117.378 37.6133 119.029 37.972 120.477 38.6895C121.936 39.4069 123.062 40.3965 123.854 41.6582C124.658 42.9199 125.06 44.2992 125.06 45.7959H121.479C121.479 44.1631 120.959 42.8828 119.92 41.9551C118.881 41.015 117.415 40.5449 115.522 40.5449C113.766 40.5449 112.393 40.9346 111.403 41.7139C110.426 42.4808 109.938 43.5508 109.938 44.9238C109.938 46.0247 110.401 46.9587 111.329 47.7256C112.269 48.4801 113.859 49.1729 116.098 49.8037C118.349 50.4346 120.105 51.1335 121.367 51.9004C122.641 52.6549 123.581 53.5394 124.188 54.5537C124.806 55.568 125.115 56.7617 125.115 58.1348C125.115 60.3242 124.262 62.0807 122.555 63.4043C120.848 64.7155 118.565 65.3711 115.708 65.3711C113.853 65.3711 112.121 65.0186 110.513 64.3135C108.905 63.596 107.661 62.6188 106.783 61.3818C105.917 60.1449 105.484 58.7409 105.484 57.1699H109.065C109.065 58.8027 109.665 60.0954 110.865 61.0479C112.077 61.988 113.692 62.458 115.708 62.458C117.588 62.458 119.029 62.0745 120.031 61.3076C121.033 60.5407 121.534 59.4954 121.534 58.1719C121.534 56.8483 121.07 55.8278 120.143 55.1104C119.215 54.3805 117.533 53.6631 115.096 52.958ZM141.555 63.0146C140.219 64.5856 138.258 65.3711 135.673 65.3711C133.533 65.3711 131.9 64.7526 130.774 63.5156C129.661 62.2663 129.098 60.4232 129.086 57.9863V44.9238H132.519V57.8936C132.519 60.9365 133.756 62.458 136.229 62.458C138.852 62.458 140.596 61.4808 141.462 59.5264V44.9238H144.895V65H141.629L141.555 63.0146ZM153.355 44.9238L153.448 47.1504C154.92 45.4186 156.906 44.5527 159.404 44.5527C162.212 44.5527 164.123 45.6289 165.138 47.7812C165.806 46.8164 166.672 46.0371 167.735 45.4434C168.812 44.8496 170.079 44.5527 171.539 44.5527C175.943 44.5527 178.182 46.8844 178.256 51.5479V65H174.823V51.752C174.823 50.3171 174.495 49.2471 173.84 48.542C173.184 47.8245 172.083 47.4658 170.537 47.4658C169.263 47.4658 168.205 47.8493 167.364 48.6162C166.523 49.3708 166.035 50.3913 165.898 51.6777V65H162.447V51.8447C162.447 48.9255 161.019 47.4658 158.161 47.4658C155.91 47.4658 154.37 48.4245 153.541 50.3418V65H150.108V44.9238H153.355ZM186.68 44.9238L186.772 47.1504C188.244 45.4186 190.23 44.5527 192.729 44.5527C195.536 44.5527 197.448 45.6289 198.462 47.7812C199.13 46.8164 199.996 46.0371 201.06 45.4434C202.136 44.8496 203.404 44.5527 204.863 44.5527C209.267 44.5527 211.506 46.8844 211.58 51.5479V65H208.147V51.752C208.147 50.3171 207.82 49.2471 207.164 48.542C206.508 47.8245 205.408 47.4658 203.861 47.4658C202.587 47.4658 201.53 47.8493 200.688 48.6162C199.847 49.3708 199.359 50.3913 199.223 51.6777V65H195.771V51.8447C195.771 48.9255 194.343 47.4658 191.485 47.4658C189.234 47.4658 187.694 48.4245 186.865 50.3418V65H183.433V44.9238H186.68ZM229.17 65C228.972 64.6042 228.811 63.8991 228.688 62.8848C227.092 64.5423 225.187 65.3711 222.973 65.3711C220.993 65.3711 219.367 64.8145 218.093 63.7012C216.831 62.5755 216.2 61.153 216.2 59.4336C216.2 57.3431 216.992 55.7227 218.575 54.5723C220.171 53.4095 222.41 52.8281 225.292 52.8281H228.632V51.251C228.632 50.0511 228.273 49.0986 227.556 48.3936C226.838 47.6761 225.781 47.3174 224.383 47.3174C223.158 47.3174 222.132 47.6266 221.303 48.2451C220.474 48.8636 220.06 49.612 220.06 50.4902H216.608C216.608 49.4883 216.961 48.5234 217.666 47.5957C218.383 46.6556 219.348 45.9134 220.561 45.3691C221.785 44.8249 223.127 44.5527 224.587 44.5527C226.9 44.5527 228.712 45.1341 230.023 46.2969C231.335 47.4473 232.015 49.0368 232.064 51.0654V60.3057C232.064 62.1488 232.299 63.6146 232.77 64.7031V65H229.17ZM223.474 62.3838C224.55 62.3838 225.57 62.1055 226.535 61.5488C227.5 60.9922 228.199 60.2686 228.632 59.3779V55.2588H225.941C221.736 55.2588 219.633 56.4896 219.633 58.9512C219.633 60.0273 219.992 60.8685 220.709 61.4746C221.426 62.0807 222.348 62.3838 223.474 62.3838ZM247.149 48.0039C246.63 47.9173 246.067 47.874 245.461 47.874C243.21 47.874 241.682 48.8327 240.878 50.75V65H237.445V44.9238H240.785L240.841 47.2432C241.966 45.4495 243.562 44.5527 245.628 44.5527C246.296 44.5527 246.803 44.6393 247.149 44.8125V48.0039ZM257.225 59.9717L261.9 44.9238H265.574L257.503 68.0986C256.254 71.4385 254.268 73.1084 251.547 73.1084L250.897 73.0527L249.617 72.8115V70.0283L250.545 70.1025C251.708 70.1025 252.611 69.8675 253.254 69.3975C253.91 68.9274 254.448 68.0677 254.868 66.8184L255.629 64.7773L248.467 44.9238H252.215L257.225 59.9717Z" fill="#FFFEFE"/>
<path d="M62.1504 73.5L41 32C41 32 58.3008 41.593 62.1504 41.593C66 41.593 82 32 82 32L62.1504 73.5Z" fill="url(#paint0_linear)"/>
<defs>
<linearGradient id="paint0_linear" x1="61.5" y1="73.5" x2="61.5" y2="24.5" gradientUnits="userSpaceOnUse">
<stop stop-color="#606060"/>
<stop offset="1"/>
</linearGradient>
</defs>
</svg>
