<svg width="307" height="103" viewBox="0 0 307 103" fill="none" xmlns="http://www.w3.org/2000/svg">
<rect width="307" height="103" rx="50" fill="#00B5DD"/>
<path d="M117.512 51.5918C114.617 50.7598 112.508 49.7402 111.184 48.5332C109.871 47.3145 109.215 45.8145 109.215 44.0332C109.215 42.0176 110.018 40.3535 111.623 39.041C113.24 37.7168 115.338 37.0547 117.916 37.0547C119.674 37.0547 121.238 37.3945 122.609 38.0742C123.992 38.7539 125.059 39.6914 125.809 40.8867C126.57 42.082 126.951 43.3887 126.951 44.8066H123.559C123.559 43.2598 123.066 42.0469 122.082 41.168C121.098 40.2773 119.709 39.832 117.916 39.832C116.252 39.832 114.951 40.2012 114.014 40.9395C113.088 41.666 112.625 42.6797 112.625 43.9805C112.625 45.0234 113.064 45.9082 113.943 46.6348C114.834 47.3496 116.34 48.0059 118.461 48.6035C120.594 49.2012 122.258 49.8633 123.453 50.5898C124.66 51.3047 125.551 52.1426 126.125 53.1035C126.711 54.0645 127.004 55.1953 127.004 56.4961C127.004 58.5703 126.195 60.2344 124.578 61.4883C122.961 62.7305 120.799 63.3516 118.092 63.3516C116.334 63.3516 114.693 63.0176 113.17 62.3496C111.646 61.6699 110.469 60.7441 109.637 59.5723C108.816 58.4004 108.406 57.0703 108.406 55.582H111.799C111.799 57.1289 112.367 58.3535 113.504 59.2559C114.652 60.1465 116.182 60.5918 118.092 60.5918C119.873 60.5918 121.238 60.2285 122.188 59.502C123.137 58.7754 123.611 57.7852 123.611 56.5312C123.611 55.2773 123.172 54.3105 122.293 53.6309C121.414 52.9395 119.82 52.2598 117.512 51.5918ZM142.578 61.1191C141.312 62.6074 139.455 63.3516 137.006 63.3516C134.979 63.3516 133.432 62.7656 132.365 61.5938C131.311 60.4102 130.777 58.6641 130.766 56.3555V43.9805H134.018V56.2676C134.018 59.1504 135.189 60.5918 137.533 60.5918C140.018 60.5918 141.67 59.666 142.49 57.8145V43.9805H145.742V63H142.648L142.578 61.1191ZM153.758 43.9805L153.846 46.0898C155.24 44.4492 157.121 43.6289 159.488 43.6289C162.148 43.6289 163.959 44.6484 164.92 46.6875C165.553 45.7734 166.373 45.0352 167.381 44.4727C168.4 43.9102 169.602 43.6289 170.984 43.6289C175.156 43.6289 177.277 45.8379 177.348 50.2559V63H174.096V50.4492C174.096 49.0898 173.785 48.0762 173.164 47.4082C172.543 46.7285 171.5 46.3887 170.035 46.3887C168.828 46.3887 167.826 46.752 167.029 47.4785C166.232 48.1934 165.77 49.1602 165.641 50.3789V63H162.371V50.5371C162.371 47.7715 161.018 46.3887 158.311 46.3887C156.178 46.3887 154.719 47.2969 153.934 49.1133V63H150.682V43.9805H153.758ZM185.328 43.9805L185.416 46.0898C186.811 44.4492 188.691 43.6289 191.059 43.6289C193.719 43.6289 195.529 44.6484 196.49 46.6875C197.123 45.7734 197.943 45.0352 198.951 44.4727C199.971 43.9102 201.172 43.6289 202.555 43.6289C206.727 43.6289 208.848 45.8379 208.918 50.2559V63H205.666V50.4492C205.666 49.0898 205.355 48.0762 204.734 47.4082C204.113 46.7285 203.07 46.3887 201.605 46.3887C200.398 46.3887 199.396 46.752 198.6 47.4785C197.803 48.1934 197.34 49.1602 197.211 50.3789V63H193.941V50.5371C193.941 47.7715 192.588 46.3887 189.881 46.3887C187.748 46.3887 186.289 47.2969 185.504 49.1133V63H182.252V43.9805H185.328ZM225.582 63C225.395 62.625 225.242 61.957 225.125 60.9961C223.613 62.5664 221.809 63.3516 219.711 63.3516C217.836 63.3516 216.295 62.8242 215.088 61.7695C213.893 60.7031 213.295 59.3555 213.295 57.7266C213.295 55.7461 214.045 54.2109 215.545 53.1211C217.057 52.0195 219.178 51.4688 221.908 51.4688H225.072V49.9746C225.072 48.8379 224.732 47.9355 224.053 47.2676C223.373 46.5879 222.371 46.248 221.047 46.248C219.887 46.248 218.914 46.541 218.129 47.127C217.344 47.7129 216.951 48.4219 216.951 49.2539H213.682C213.682 48.3047 214.016 47.3906 214.684 46.5117C215.363 45.6211 216.277 44.918 217.426 44.4023C218.586 43.8867 219.857 43.6289 221.24 43.6289C223.432 43.6289 225.148 44.1797 226.391 45.2812C227.633 46.3711 228.277 47.877 228.324 49.7988V58.5527C228.324 60.2988 228.547 61.6875 228.992 62.7188V63H225.582ZM220.186 60.5215C221.205 60.5215 222.172 60.2578 223.086 59.7305C224 59.2031 224.662 58.5176 225.072 57.6738V53.7715H222.523C218.539 53.7715 216.547 54.9375 216.547 57.2695C216.547 58.2891 216.887 59.0859 217.566 59.6602C218.246 60.2344 219.119 60.5215 220.186 60.5215ZM242.615 46.8984C242.123 46.8164 241.59 46.7754 241.016 46.7754C238.883 46.7754 237.436 47.6836 236.674 49.5V63H233.422V43.9805H236.586L236.639 46.1777C237.705 44.4785 239.217 43.6289 241.174 43.6289C241.807 43.6289 242.287 43.7109 242.615 43.875V46.8984ZM252.16 58.2363L256.59 43.9805H260.07L252.424 65.9355C251.24 69.0996 249.359 70.6816 246.781 70.6816L246.166 70.6289L244.953 70.4004V67.7637L245.832 67.834C246.934 67.834 247.789 67.6113 248.398 67.166C249.02 66.7207 249.529 65.9062 249.928 64.7227L250.648 62.7891L243.863 43.9805H247.414L252.16 58.2363Z" fill="#FFFEFE"/>
<path d="M62.1504 73.5L41 32C41 32 58.3008 41.593 62.1504 41.593C66 41.593 82 32 82 32L62.1504 73.5Z" fill="url(#paint0_linear)"/>
<defs>
<linearGradient id="paint0_linear" x1="61.5" y1="73.5" x2="61.5" y2="24.5" gradientUnits="userSpaceOnUse">
<stop stop-color="#606060"/>
<stop offset="1"/>
</linearGradient>
</defs>
</svg>
