<svg width="507" height="30" viewBox="0 0 507 30" fill="none" xmlns="http://www.w3.org/2000/svg">
<path d="M48.6001 21.3787L47.5007 21.9432C38.988 26.3146 28.9188 26.4441 20.2965 22.2932L6.2183 15.5157C4.25089 14.5685 3 12.578 3 10.3945C3 6.25765 7.27839 3.50659 11.0422 5.22322L26.144 12.1109C31.1278 14.3838 36.8661 14.3125 41.7918 11.9162L49.4943 8.16905C58.6977 3.69167 69.4131 3.52716 78.7497 7.7199L80.9686 8.71633C90.8164 13.1386 102.125 12.9274 111.801 8.14048C120.821 3.67785 131.351 3.42214 140.577 7.44166L142.831 8.42337C153.456 13.0525 165.535 13.0191 176.135 8.3312L176.493 8.17285C186.679 3.6678 198.3 3.70078 208.46 8.26357C218.995 12.9944 231.031 13.0944 241.643 8.53913L244.074 7.49552C253.554 3.42592 264.324 3.61194 273.659 8.00655L275.202 8.73337C284.569 13.1431 295.422 13.109 304.76 8.64028L308.119 7.03297C315.821 3.34764 324.856 3.75873 332.191 8.12826C340.155 12.8726 349.973 13.2875 358.309 9.23205L361.568 7.64677C370.099 3.49654 380.025 3.31596 388.701 7.15316L391.758 8.50515C402.082 13.0711 413.88 12.9318 424.093 8.1234C433.593 3.65087 444.548 3.4328 454.218 7.52371L465.723 12.3905C470.692 14.4927 476.307 14.4628 481.253 12.3077L497.976 5.02248C501.763 3.37239 506 6.14804 506 10.2794C506 12.5189 504.696 14.5535 502.662 15.4891L486.959 22.71C478.401 26.6455 468.562 26.6999 459.961 22.8592L455.041 20.6625C444.869 16.1202 433.199 16.3609 423.223 21.3186C413.595 26.1032 402.312 26.2411 392.57 21.6933L389.552 20.2845C380.359 15.9928 369.698 16.1934 360.672 20.828L357.466 22.4747C349.769 26.4269 340.559 26.0263 333.235 21.4209C325.366 16.4731 315.48 16.01 307.183 20.2007L303.88 21.8692C295.142 26.2827 284.834 26.3163 276.068 21.9598L274.529 21.1953C264.715 16.318 253.227 16.1125 243.245 20.6356L240.846 21.7223C230.802 26.2735 219.263 26.1742 209.298 21.4507C198.661 16.4084 186.329 16.3721 175.662 21.3518L175.304 21.5186C165.278 26.1992 153.7 26.2324 143.647 21.6094L141.425 20.5877C131.678 16.1053 120.405 16.3885 110.895 21.3547C101.815 26.0961 91.0378 26.3043 81.782 21.917L79.6076 20.8863C69.758 16.2175 58.2964 16.3995 48.6001 21.3787Z" fill="#FF0331" stroke="#CA9100" stroke-width="2"/>
<path d="M7.41713 8.60218C7.79723 8.54439 8.18592 8.60016 8.53443 8.7625L17.5089 12.9427C26.4161 17.0915 36.6642 17.2722 45.7121 13.4399L50.3592 11.4716C59.6351 7.54267 70.1777 7.94187 79.13 12.561V12.561C87.6431 16.9535 97.6171 17.5398 106.586 14.175L110.548 12.6887C120.462 8.96959 131.431 9.23569 141.153 13.4312V13.4312C151.286 17.8043 162.755 17.9013 172.961 13.7002L173.599 13.4376C183.774 9.2491 195.202 9.30707 205.334 13.5986L206.217 13.9726C216.857 18.4791 228.944 18.0517 239.239 12.805L242.854 10.9624C252.31 6.14321 263.554 6.39563 272.784 11.6343L273.931 12.2853C282.684 17.253 293.378 17.3636 302.231 12.5779L302.827 12.2558C311.33 7.65931 321.604 7.77718 330 12.5676V12.5676C338.396 17.3581 348.67 17.4759 357.173 12.8794L358.33 12.2539C366.914 7.61426 377.204 7.38406 385.986 11.6352L389.657 13.4119C399.605 18.2275 411.262 17.9667 420.985 12.7111V12.7111C430.16 7.75113 441.092 7.22509 450.702 11.2811L465.016 17.3227C469.483 19.208 474.521 19.2165 478.994 17.3464L500.928 8.17636C502.388 7.56569 504 8.63867 504 10.2219V10.2219C504 11.1453 503.428 11.972 502.563 12.2971L483.158 19.594C474.478 22.8578 464.813 22.2165 456.64 17.8346L454.728 16.8092C444.509 11.3299 432.31 10.9661 421.783 15.8268L416.79 18.1318C407.884 22.2438 397.498 21.5434 389.225 16.2728V16.2728C380.174 10.5067 368.669 10.2473 359.367 15.5996L357.351 16.7598C348.756 21.7052 338.199 21.7847 329.531 16.9691V16.9691C321.376 12.4387 311.511 12.2243 303.167 16.3963L301.616 17.1716C292.228 21.866 281.072 21.3324 272.174 15.7633V15.7633C263.359 10.2459 252.32 9.66768 242.977 14.234L238.161 16.5876C227.626 21.736 215.326 21.8359 204.709 16.8592V16.8592C195.006 12.3109 183.852 11.9851 173.9 15.9595L170.903 17.1566C161.375 20.9615 150.678 20.735 141.309 16.5566V16.5566C131.582 12.219 120.44 12.1686 110.687 16.4467V16.4467C101.007 20.6924 89.9926 20.6924 80.3132 16.4467L79.662 16.1611C70.2601 12.0371 59.6205 11.7429 50.0051 15.3412L35.383 20.8131C33.5239 21.5088 31.4761 21.5088 29.617 20.8131L7.02647 12.3592C5.14232 11.6541 5.42822 8.90454 7.41713 8.60218V8.60218Z" fill="white"/>
</svg>
