<svg width="543" height="78" viewBox="0 0 543 78" fill="none" xmlns="http://www.w3.org/2000/svg">
<path d="M19.2677 1H522.764C531.849 1 538.133 10.082 534.929 18.5838L529.016 34.2775C527.711 37.7404 527.732 41.5634 529.075 45.0115L534.634 59.281C537.955 67.8041 531.668 77 522.521 77H19.4702C10.5846 77 4.31776 68.2845 7.14663 59.8612L12.3552 44.3523C13.3796 41.302 13.396 38.0031 12.4019 34.9427L6.90364 18.0162C4.17529 9.61691 10.4364 1 19.2677 1Z" fill="url(#paint0_linear)" stroke="#AD6B06" stroke-width="2"/>
<ellipse cx="46" cy="39" rx="1" ry="1.3" fill="#AD6B06"/>
<ellipse cx="53" cy="45.5" rx="1" ry="1.3" fill="#AD6B06"/>
<ellipse cx="36" cy="41.6" rx="1" ry="1.3" fill="#AD6B06"/>
<ellipse cx="44" cy="48.1" rx="1" ry="1.3" fill="#AD6B06"/>
<ellipse cx="61" cy="52" rx="1" ry="1.3" fill="#AD6B06"/>
<ellipse cx="62" cy="42.9" rx="1" ry="1.29999" fill="#AD6B06"/>
<ellipse cx="71" cy="45.5" rx="1" ry="1.3" fill="#AD6B06"/>
<ellipse cx="80" cy="48.1" rx="1" ry="1.3" fill="#AD6B06"/>
<ellipse cx="89" cy="50.7" rx="1" ry="1.3" fill="#AD6B06"/>
<ellipse cx="100" cy="53.3" rx="1" ry="1.3" fill="#AD6B06"/>
<ellipse cx="92" cy="39" rx="1" ry="1.3" fill="#AD6B06"/>
<ellipse cx="109" cy="45.5" rx="1" ry="1.3" fill="#AD6B06"/>
<ellipse cx="120" cy="44.2" rx="1" ry="1.30001" fill="#AD6B06"/>
<ellipse cx="91" cy="61.1" rx="1" ry="1.3" fill="#AD6B06"/>
<ellipse cx="127" cy="40.3" rx="1" ry="1.3" fill="#AD6B06"/>
<ellipse cx="140" cy="37.7" rx="1" ry="1.3" fill="#AD6B06"/>
<ellipse cx="136" cy="65" rx="1" ry="1.29999" fill="#AD6B06"/>
<ellipse cx="76" cy="61.1" rx="1" ry="1.3" fill="#AD6B06"/>
<ellipse cx="65" cy="65" rx="1" ry="1.29999" fill="#AD6B06"/>
<ellipse cx="56" cy="61.1" rx="1" ry="1.3" fill="#AD6B06"/>
<ellipse cx="47" cy="57.2" rx="1" ry="1.3" fill="#AD6B06"/>
<ellipse cx="42" cy="63.7" rx="1" ry="1.30001" fill="#AD6B06"/>
<ellipse cx="31" cy="67.6" rx="1" ry="1.3" fill="#AD6B06"/>
<ellipse cx="34" cy="53.3" rx="1" ry="1.3" fill="#AD6B06"/>
<ellipse cx="27" cy="45.5" rx="1" ry="1.3" fill="#AD6B06"/>
<ellipse cx="27" cy="55.9" rx="1" ry="1.3" fill="#AD6B06"/>
<ellipse cx="128" cy="52" rx="1" ry="1.3" fill="#AD6B06"/>
<ellipse cx="21" cy="35.1" rx="1" ry="1.29998" fill="#AD6B06"/>
<ellipse cx="121" cy="66.3" rx="1" ry="1.30001" fill="#AD6B06"/>
<ellipse cx="84" cy="68.9" rx="1" ry="1.29999" fill="#AD6B06"/>
<ellipse cx="102" cy="68.9" rx="1" ry="1.29999" fill="#AD6B06"/>
<ellipse cx="19" cy="61.1" rx="1" ry="1.3" fill="#AD6B06"/>
<ellipse cx="20" cy="45.5" rx="1" ry="1.3" fill="#AD6B06"/>
<ellipse cx="54" cy="68.9" rx="1" ry="1.29999" fill="#AD6B06"/>
<ellipse cx="195" cy="66.3" rx="1" ry="1.30001" fill="#AD6B06"/>
<ellipse cx="116" cy="58.5" rx="1" ry="1.3" fill="#AD6B06"/>
<ellipse cx="158" cy="41.6" rx="1" ry="1.3" fill="#AD6B06"/>
<ellipse cx="149" cy="62.4" rx="1" ry="1.29999" fill="#AD6B06"/>
<ellipse cx="143" cy="49.4" rx="1" ry="1.29999" fill="#AD6B06"/>
<ellipse cx="157" cy="68.9" rx="1" ry="1.29999" fill="#AD6B06"/>
<ellipse cx="157" cy="52" rx="1" ry="1.3" fill="#AD6B06"/>
<ellipse cx="170" cy="67.6" rx="1" ry="1.3" fill="#AD6B06"/>
<ellipse cx="173" cy="52" rx="1" ry="1.3" fill="#AD6B06"/>
<ellipse cx="187" cy="55.9" rx="1" ry="1.3" fill="#AD6B06"/>
<ellipse cx="174" cy="39" rx="1" ry="1.3" fill="#AD6B06"/>
<ellipse cx="191" cy="44.2" rx="1" ry="1.30001" fill="#AD6B06"/>
<ellipse cx="204" cy="37.7" rx="1" ry="1.3" fill="#AD6B06"/>
<ellipse cx="216" cy="62.4" rx="1" ry="1.29999" fill="#AD6B06"/>
<ellipse cx="209" cy="52" rx="1" ry="1.3" fill="#AD6B06"/>
<ellipse cx="223" cy="37.7" rx="1" ry="1.3" fill="#AD6B06"/>
<ellipse cx="229" cy="70.2" rx="1" ry="1.3" fill="#AD6B06"/>
<ellipse cx="233" cy="59.8" rx="1" ry="1.3" fill="#AD6B06"/>
<ellipse cx="240" cy="44.2" rx="1" ry="1.30001" fill="#AD6B06"/>
<ellipse cx="227" cy="48.1" rx="1" ry="1.3" fill="#AD6B06"/>
<ellipse cx="257" cy="42.9" rx="1" ry="1.29999" fill="#AD6B06"/>
<ellipse cx="243" cy="53.3" rx="1" ry="1.3" fill="#AD6B06"/>
<ellipse cx="259" cy="70.2" rx="1" ry="1.3" fill="#AD6B06"/>
<ellipse cx="245" cy="67.6" rx="1" ry="1.3" fill="#AD6B06"/>
<ellipse cx="257" cy="53.3" rx="1" ry="1.3" fill="#AD6B06"/>
<ellipse cx="271" cy="41.6" rx="1" ry="1.3" fill="#AD6B06"/>
<ellipse cx="270" cy="61.1" rx="1" ry="1.3" fill="#AD6B06"/>
<ellipse cx="276" cy="70.2" rx="1" ry="1.3" fill="#AD6B06"/>
<ellipse cx="284" cy="65" rx="1" ry="1.29999" fill="#AD6B06"/>
<ellipse cx="281" cy="53.3" rx="1" ry="1.3" fill="#AD6B06"/>
<ellipse cx="291" cy="45.5" rx="1" ry="1.3" fill="#AD6B06"/>
<ellipse cx="300" cy="40.3" rx="1" ry="1.3" fill="#AD6B06"/>
<ellipse cx="295" cy="55.9" rx="1" ry="1.3" fill="#AD6B06"/>
<ellipse cx="294" cy="68.9" rx="1" ry="1.29999" fill="#AD6B06"/>
<ellipse cx="302" cy="53.3" rx="1" ry="1.3" fill="#AD6B06"/>
<ellipse cx="305" cy="66.3" rx="1" ry="1.30001" fill="#AD6B06"/>
<ellipse cx="313" cy="48.1" rx="1" ry="1.3" fill="#AD6B06"/>
<ellipse cx="323" cy="57.2" rx="1" ry="1.3" fill="#AD6B06"/>
<ellipse cx="327" cy="71.5" rx="1" ry="1.3" fill="#AD6B06"/>
<ellipse cx="323" cy="40.3" rx="1" ry="1.3" fill="#AD6B06"/>
<ellipse cx="337" cy="39" rx="1" ry="1.3" fill="#AD6B06"/>
<ellipse cx="342" cy="49.4" rx="1" ry="1.29999" fill="#AD6B06"/>
<ellipse cx="356" cy="39" rx="1" ry="1.3" fill="#AD6B06"/>
<ellipse cx="366" cy="40.3" rx="1" ry="1.3" fill="#AD6B06"/>
<ellipse cx="367" cy="50.7" rx="1" ry="1.3" fill="#AD6B06"/>
<ellipse cx="377" cy="35.1" rx="1" ry="1.29998" fill="#AD6B06"/>
<ellipse cx="378" cy="48.1" rx="1" ry="1.3" fill="#AD6B06"/>
<ellipse cx="391" cy="32.5" rx="1" ry="1.3" fill="#AD6B06"/>
<ellipse cx="397" cy="50.7" rx="1" ry="1.3" fill="#AD6B06"/>
<ellipse cx="403" cy="36.4" rx="1" ry="1.3" fill="#AD6B06"/>
<ellipse cx="315" cy="68.9" rx="1" ry="1.29999" fill="#AD6B06"/>
<ellipse cx="312" cy="59.8" rx="1" ry="1.3" fill="#AD6B06"/>
<ellipse cx="337" cy="59.8" rx="1" ry="1.3" fill="#AD6B06"/>
<ellipse cx="328" cy="50.7" rx="1" ry="1.3" fill="#AD6B06"/>
<ellipse cx="340" cy="70.2" rx="1" ry="1.3" fill="#AD6B06"/>
<ellipse cx="348" cy="63.7" rx="1" ry="1.30001" fill="#AD6B06"/>
<ellipse cx="351" cy="50.7" rx="1" ry="1.3" fill="#AD6B06"/>
<ellipse cx="357" cy="68.9" rx="1" ry="1.29999" fill="#AD6B06"/>
<ellipse cx="361" cy="59.8" rx="1" ry="1.3" fill="#AD6B06"/>
<ellipse cx="371" cy="59.8" rx="1" ry="1.3" fill="#AD6B06"/>
<ellipse cx="372" cy="70.2" rx="1" ry="1.3" fill="#AD6B06"/>
<ellipse cx="381" cy="61.1" rx="1" ry="1.3" fill="#AD6B06"/>
<ellipse cx="383" cy="50.7" rx="1" ry="1.3" fill="#AD6B06"/>
<ellipse cx="385" cy="68.9" rx="1" ry="1.29999" fill="#AD6B06"/>
<ellipse cx="391" cy="62.4" rx="1" ry="1.29999" fill="#AD6B06"/>
<ellipse cx="394" cy="68.9" rx="1" ry="1.29999" fill="#AD6B06"/>
<ellipse cx="387" cy="42.9" rx="1" ry="1.29999" fill="#AD6B06"/>
<ellipse cx="405" cy="70.2" rx="1" ry="1.3" fill="#AD6B06"/>
<ellipse cx="418" cy="67.6" rx="1" ry="1.3" fill="#AD6B06"/>
<ellipse cx="408" cy="62.4" rx="1" ry="1.29999" fill="#AD6B06"/>
<ellipse cx="419" cy="54.6" rx="1" ry="1.3" fill="#AD6B06"/>
<ellipse cx="401" cy="55.9" rx="1" ry="1.3" fill="#AD6B06"/>
<ellipse cx="197" cy="52" rx="1" ry="1.3" fill="#AD6B06"/>
<ellipse cx="409" cy="48.1" rx="1" ry="1.3" fill="#AD6B06"/>
<ellipse cx="438" cy="59.8" rx="1" ry="1.3" fill="#AD6B06"/>
<ellipse cx="430" cy="54.6" rx="1" ry="1.3" fill="#AD6B06"/>
<ellipse cx="426" cy="63.7" rx="1" ry="1.30001" fill="#AD6B06"/>
<ellipse cx="425" cy="45.5" rx="1" ry="1.3" fill="#AD6B06"/>
<ellipse cx="467" cy="70.2" rx="1" ry="1.3" fill="#AD6B06"/>
<ellipse cx="440" cy="67.6" rx="1" ry="1.3" fill="#AD6B06"/>
<ellipse cx="435" cy="37.7" rx="1" ry="1.3" fill="#AD6B06"/>
<ellipse cx="446" cy="36.4" rx="1" ry="1.3" fill="#AD6B06"/>
<ellipse cx="437" cy="48.1" rx="1" ry="1.3" fill="#AD6B06"/>
<ellipse cx="446" cy="53.3" rx="1" ry="1.3" fill="#AD6B06"/>
<ellipse cx="454" cy="66.3" rx="1" ry="1.30001" fill="#AD6B06"/>
<ellipse cx="518" cy="46.8" rx="1" ry="1.3" fill="#AD6B06"/>
<ellipse cx="451" cy="45.5" rx="1" ry="1.3" fill="#AD6B06"/>
<ellipse cx="478" cy="67.6" rx="1" ry="1.3" fill="#AD6B06"/>
<ellipse cx="466" cy="45.5" rx="1" ry="1.3" fill="#AD6B06"/>
<ellipse cx="458" cy="58.5" rx="1" ry="1.3" fill="#AD6B06"/>
<ellipse cx="489" cy="36.4" rx="1" ry="1.3" fill="#AD6B06"/>
<ellipse cx="465" cy="58.5" rx="1" ry="1.3" fill="#AD6B06"/>
<ellipse cx="475" cy="39" rx="1" ry="1.3" fill="#AD6B06"/>
<ellipse cx="488" cy="50.7" rx="1" ry="1.3" fill="#AD6B06"/>
<ellipse cx="484" cy="62.4" rx="1" ry="1.29999" fill="#AD6B06"/>
<ellipse cx="477" cy="53.3" rx="1" ry="1.3" fill="#AD6B06"/>
<ellipse cx="498" cy="66.3" rx="1" ry="1.30001" fill="#AD6B06"/>
<ellipse cx="492" cy="55.9" rx="1" ry="1.3" fill="#AD6B06"/>
<ellipse cx="461" cy="37.7" rx="1" ry="1.3" fill="#AD6B06"/>
<ellipse cx="505" cy="37.7" rx="1" ry="1.3" fill="#AD6B06"/>
<ellipse cx="501" cy="48.1" rx="1" ry="1.3" fill="#AD6B06"/>
<ellipse cx="506" cy="54.6" rx="1" ry="1.3" fill="#AD6B06"/>
<ellipse cx="514" cy="55.9" rx="1" ry="1.3" fill="#AD6B06"/>
<ellipse cx="515" cy="36.4" rx="1" ry="1.3" fill="#AD6B06"/>
<ellipse cx="523" cy="39" rx="1" ry="1.3" fill="#AD6B06"/>
<ellipse cx="489" cy="68.9" rx="1" ry="1.29999" fill="#AD6B06"/>
<ellipse cx="523" cy="61.1" rx="1" ry="1.3" fill="#AD6B06"/>
<ellipse cx="517" cy="72.8" rx="1" ry="1.29999" fill="#AD6B06"/>
<ellipse cx="507" cy="68.9" rx="1" ry="1.29999" fill="#AD6B06"/>
<ellipse cx="525" cy="68.9" rx="1" ry="1.29999" fill="#AD6B06"/>
<ellipse cx="419" cy="36.4" rx="1" ry="1.3" fill="#AD6B06"/>
<ellipse cx="433" cy="70.2" rx="1" ry="1.3" fill="#AD6B06"/>
<ellipse cx="208" cy="70.2" rx="1" ry="1.3" fill="#AD6B06"/>
<ellipse cx="182" cy="66.3" rx="1" ry="1.30001" fill="#AD6B06"/>
<defs>
<linearGradient id="paint0_linear" x1="271.5" y1="0" x2="271.5" y2="78" gradientUnits="userSpaceOnUse">
<stop stop-color="#D17F1F"/>
<stop offset="1" stop-color="#E48900" stop-opacity="0.67"/>
</linearGradient>
</defs>
</svg>
