<svg width="525" height="128" viewBox="0 0 525 128" fill="none" xmlns="http://www.w3.org/2000/svg">
<path d="M44.4296 51.5864C63.8711 35.2407 95.4965 22.6909 133.404 14.1795C171.282 5.67459 215.318 1.22693 259.479 1.00846C303.639 0.789994 347.892 4.8009 386.205 13.1962C424.544 21.5973 456.824 34.3651 477.139 51.5838C497.605 68.9294 509.645 82.3232 516.224 92.6324C522.809 102.95 523.843 110.045 522.569 114.879C521.298 119.702 517.653 122.564 514.194 124.241C512.471 125.077 510.825 125.601 509.609 125.916C509.003 126.074 508.506 126.178 508.164 126.243C507.993 126.275 507.862 126.297 507.775 126.311C507.751 126.315 507.73 126.318 507.713 126.321C307.278 126.24 214.88 126.239 16.3951 126.321C16.3868 126.319 16.378 126.317 16.3686 126.315C16.2832 126.295 16.154 126.264 15.9864 126.22C15.651 126.132 15.163 125.993 14.5658 125.793C13.3694 125.392 11.7456 124.748 10.0371 123.779C6.60974 121.836 2.93682 118.643 1.56397 113.56C0.192545 108.483 1.04938 101.271 7.22587 91.1384C13.4038 81.0037 24.844 68.0533 44.4296 51.5864Z" fill="url(#paint0_linear)" stroke="#D17F1F" stroke-width="2"/>
<path d="M64.7649 83.821C60.2649 87.321 49.7354 91.321 44.7649 91.321C39.7943 91.321 43.2648 86.621 46.7649 83.821C49.2649 81.821 59.7943 73.321 64.7649 73.321C69.7354 73.321 71.7649 77.321 64.7649 83.821Z" fill="white"/>
<path d="M139.765 55.821C135.265 59.321 124.735 63.321 119.765 63.321C114.794 63.321 118.265 58.621 121.765 55.821C124.265 53.821 134.794 45.321 139.765 45.321C144.735 45.321 146.765 49.321 139.765 55.821Z" fill="white"/>
<path d="M248.765 91.821C244.265 95.321 233.735 99.321 228.765 99.321C223.794 99.321 227.265 94.621 230.765 91.821C233.265 89.821 243.794 81.321 248.765 81.321C253.735 81.321 255.765 85.321 248.765 91.821Z" fill="white"/>
<path d="M291.765 37.821C287.265 41.321 276.735 45.321 271.765 45.321C266.794 45.321 270.265 40.621 273.765 37.821C276.265 35.821 286.794 27.321 291.765 27.321C296.735 27.321 298.765 31.321 291.765 37.821Z" fill="white"/>
<path d="M386.479 48.25C381.979 52.3333 371.449 57 366.479 57C361.508 57 364.979 51.5166 368.479 48.25C370.979 45.9167 381.509 36 386.479 36C391.45 36 393.479 40.6667 386.479 48.25Z" fill="white"/>
<path d="M326.765 87.571C322.265 91.6544 311.736 96.321 306.765 96.321C301.794 96.321 305.265 90.8377 308.765 87.571C311.265 85.2377 321.795 75.321 326.765 75.321C331.736 75.321 333.765 79.9877 326.765 87.571Z" fill="url(#paint1_linear)"/>
<path d="M472.765 92.571C468.265 96.6544 457.736 101.321 452.765 101.321C447.794 101.321 451.265 95.8377 454.765 92.571C457.265 90.2377 467.795 80.321 472.765 80.321C477.736 80.321 479.765 84.9877 472.765 92.571Z" fill="url(#paint2_linear)"/>
<path d="M221.765 42.571C217.265 46.6544 206.736 51.321 201.765 51.321C196.794 51.321 200.265 45.8377 203.765 42.571C206.265 40.2377 216.795 30.321 221.765 30.321C226.736 30.321 228.765 34.9877 221.765 42.571Z" fill="url(#paint3_linear)"/>
<path d="M153.765 92.571C149.265 96.6544 138.736 101.321 133.765 101.321C128.794 101.321 132.265 95.8377 135.765 92.571C138.265 90.2377 148.795 80.321 153.765 80.321C158.736 80.321 160.765 84.9877 153.765 92.571Z" fill="url(#paint4_linear)"/>
<path d="M407.479 98.25C402.979 102.333 392.449 107 387.479 107C382.508 107 385.979 101.517 389.479 98.25C391.979 95.9167 402.509 86 407.479 86C412.45 86 414.479 90.6667 407.479 98.25Z" fill="white"/>
<defs>
<linearGradient id="paint0_linear" x1="261.619" y1="6.5" x2="261.619" y2="127.321" gradientUnits="userSpaceOnUse">
<stop offset="0.552083" stop-color="#F2A530"/>
<stop offset="1" stop-color="#BD7810"/>
</linearGradient>
<linearGradient id="paint1_linear" x1="317.786" y1="75.321" x2="317.786" y2="96.321" gradientUnits="userSpaceOnUse">
<stop stop-color="white"/>
<stop offset="1" stop-color="#CC8419"/>
</linearGradient>
<linearGradient id="paint2_linear" x1="463.786" y1="80.321" x2="463.786" y2="101.321" gradientUnits="userSpaceOnUse">
<stop offset="0.333333" stop-color="white"/>
<stop offset="1" stop-color="#CC8419"/>
</linearGradient>
<linearGradient id="paint3_linear" x1="212.786" y1="30.321" x2="212.786" y2="51.321" gradientUnits="userSpaceOnUse">
<stop offset="0.3125" stop-color="white"/>
<stop offset="1" stop-color="#CC8419"/>
</linearGradient>
<linearGradient id="paint4_linear" x1="144.786" y1="80.321" x2="144.786" y2="101.321" gradientUnits="userSpaceOnUse">
<stop offset="0.416667" stop-color="white"/>
<stop offset="1" stop-color="#CC8419"/>
</linearGradient>
</defs>
</svg>
