<svg width="514" height="31" viewBox="0 0 514 31" fill="none" xmlns="http://www.w3.org/2000/svg">
<path d="M1.01805 12.795C0.210261 5.98648 5.52848 0 12.3847 0H502.405C507.58 0 511.923 3.89758 512.481 9.0416L513.162 15.3162C513.86 21.7468 506.548 25.9111 501.373 22.03C498.326 19.7444 494.041 20.1478 491.473 22.9621L488.804 25.8878C486.119 28.8308 481.281 27.9527 479.802 24.2541C478.297 20.4932 473.341 19.6663 470.697 22.7351L467.023 27.0003C464.368 30.0814 459.951 30.9478 456.329 29.0976L445.531 23.5809C441.721 21.6348 437.231 21.5371 433.341 23.3156L429.381 25.1257C424.858 27.1936 419.554 26.5275 415.682 23.4052L414.062 22.0987C409.761 18.6302 403.537 18.9627 399.63 22.8696C395.826 26.6741 389.803 27.1021 385.499 23.8739L383.785 22.5887C381.959 21.2193 379.811 20.3436 377.549 20.0459L366.429 18.5827C363.548 18.2037 360.62 18.7305 358.052 20.0901L350.336 24.1752C346.93 25.9781 342.932 26.2977 339.283 25.0585L324.035 19.8798C320.493 18.6769 316.617 18.9414 313.272 20.6141L302.356 26.072C298.42 28.0401 293.636 26.8202 291.123 23.2076C288.957 20.0939 285.049 18.7048 281.403 19.7528L252.635 28.0236C249.328 28.9744 245.787 28.6739 242.687 27.1794L226.305 19.281C222.058 17.2332 217.065 17.461 213.022 19.8869L203.805 25.4169C199.584 27.9496 194.343 28.0792 190.001 25.7581L179.588 20.1907C174.941 17.7058 169.212 18.578 165.514 22.3333L163.888 23.9844C159.616 28.3237 152.477 27.8175 148.859 22.9187C145.928 18.9497 140.524 17.7423 136.182 20.0866L125.763 25.7131C121.61 27.9558 116.474 27.1806 113.167 23.812C108.974 19.5393 102.076 19.5873 97.9421 23.9178L96.5021 25.4264C95.5306 26.4442 94.2375 27.0953 92.8414 27.2698L91.6605 27.4174C88.2904 27.8387 85.4312 24.9621 85.8728 21.5947C86.3828 17.7064 82.5605 14.6798 78.8927 16.0676L57.0008 24.351C52.6266 26.0062 47.7148 25.3677 43.909 22.6493L39.5 19.5L37.3462 18.1C32.597 15.0131 26.4557 15.092 21.7874 18.2999L14.5 23.3077C8.97965 26.2802 2.19985 22.7559 1.46116 16.5298L1.01805 12.795Z" fill="#F9D100"/>
</svg>
