<svg width="512" height="7" viewBox="0 0 512 7" fill="none" xmlns="http://www.w3.org/2000/svg">
<path d="M0.503086 4.57485C-0.623995 2.5149 0.86673 0 3.21486 0H508.617C509.769 0 510.822 0.650584 511.338 1.68069C512.448 3.89978 510.578 6.44349 508.129 6.04515L496.746 4.19387C495.581 4.00448 494.391 4.04744 493.243 4.32027L485.534 6.15268C483.238 6.69831 480.822 6.37826 478.748 5.25377C476.635 4.10847 474.169 3.79839 471.839 4.38495L463.898 6.38365C462.278 6.79126 460.599 6.90584 458.939 6.72196L439.887 4.61139C438.916 4.50383 437.937 4.49819 436.965 4.59455L422.816 5.99711C421.551 6.12248 420.275 6.07505 419.023 5.85611L408.095 3.94501C406.312 3.63321 404.485 3.67012 402.716 4.05371L394.476 5.84057C392.762 6.21228 390.993 6.25856 389.262 5.977L379.87 4.44961L361.853 3.93554C361.186 3.91652 360.519 3.94515 359.857 4.02119L345.145 5.71008C344.274 5.81012 343.395 5.82804 342.52 5.76362L318.58 4.00055C317.735 3.9383 316.885 3.95294 316.043 4.04431L297.182 6.0892C295.273 6.29625 293.341 6.10811 291.507 5.53648L288.742 4.67465C287.114 4.16714 285.407 3.96137 283.705 4.06749L247.406 6.33044C246.63 6.3788 245.852 6.36249 245.079 6.28168L219.847 3.64364C218.762 3.53018 217.667 3.54398 216.585 3.68476L197.399 6.1809C196.265 6.32848 195.117 6.33649 193.981 6.20476L172.748 3.74316C171.205 3.56421 169.642 3.64346 168.125 3.97765L157.91 6.22731C155.608 6.73423 153.216 6.65184 150.954 5.9878L145.128 4.27692C143.321 3.74634 141.426 3.58575 139.555 3.80477L119.71 6.12863C118.158 6.31033 116.587 6.23101 115.061 5.89396L107.166 4.14956C105.149 3.70395 103.058 3.71016 101.044 4.16773L94.0909 5.74727C93.7595 5.82255 93.4215 5.8651 93.0819 5.87431L85.4523 6.08111C84.6447 6.103 84.1326 5.2229 84.5507 4.53159C84.982 3.81853 84.4238 2.91697 83.5933 2.98511L50.1998 5.72501C49.1031 5.815 47.9996 5.77537 46.9121 5.60693L38.0388 4.23256L30.0389 3.10499C28.706 2.91711 27.353 2.92246 26.0216 3.12085L13.0145 5.05903L3.57335 6.16141C2.32226 6.30749 1.10767 5.67985 0.503086 4.57485Z" fill="#E40303"/>
</svg>
