<svg width="512" height="7" viewBox="0 0 512 7" fill="none" xmlns="http://www.w3.org/2000/svg">
<path d="M379.95 3.9561L379.917 3.95076L379.884 3.94982L361.867 3.43574C361.177 3.41605 360.486 3.44569 359.8 3.52446L345.088 5.21334C344.248 5.30981 343.4 5.32709 342.557 5.26497L318.617 3.5019C317.741 3.43742 316.862 3.45259 315.989 3.54722L297.128 5.59212C295.287 5.79177 293.424 5.61035 291.656 5.05913L288.891 4.1973C287.205 3.67167 285.436 3.45855 283.674 3.56845L247.375 5.83141C246.627 5.87804 245.876 5.86231 245.131 5.78439L219.899 3.14635C218.775 3.02884 217.641 3.04313 216.52 3.18894L197.335 5.68508C196.241 5.82739 195.134 5.83511 194.038 5.70809L172.806 3.24648C171.207 3.06115 169.589 3.14323 168.017 3.48935L157.803 5.73902C155.583 6.22782 153.276 6.14838 151.095 5.50806L145.269 3.79718C143.398 3.24765 141.435 3.08133 139.497 3.30816L119.652 5.63202C118.155 5.80723 116.64 5.73075 115.169 5.40574L107.274 3.66133C105.185 3.19981 103.019 3.20624 100.933 3.68015L93.9801 5.2597C93.6807 5.32772 93.3753 5.36617 93.0683 5.37449L85.4388 5.5813C85.0265 5.59247 84.7651 5.14322 84.9786 4.79035C85.6209 3.7282 84.7895 2.38528 83.5524 2.48679L50.1589 5.22669C49.1014 5.31346 48.0373 5.27524 46.9886 5.11282L38.1153 3.73845L38.1153 3.7384L38.1086 3.73745L30.1087 2.60988C28.7282 2.4153 27.3268 2.42083 25.9479 2.62631L12.9487 4.56333L3.51536 5.66478C2.46664 5.78723 1.44852 5.26112 0.941722 4.33486C-0.00304937 2.60811 1.24655 0.5 3.21486 0.5H508.617C509.58 0.5 510.46 1.04366 510.891 1.90447C511.819 3.75885 510.256 5.88451 508.209 5.55164L496.826 3.70035C495.596 3.50037 494.339 3.54573 493.127 3.83382L485.418 5.66624C483.242 6.18341 480.952 5.88005 478.986 4.81421C476.763 3.60917 474.169 3.28292 471.717 3.90007L463.776 5.89878C462.214 6.29183 460.595 6.40231 458.994 6.225L439.942 4.11443C438.937 4.00303 437.922 3.99719 436.915 4.09699L422.766 5.49955C421.547 5.62044 420.316 5.5747 419.109 5.36359L408.181 3.45248C406.334 3.12955 404.442 3.16778 402.61 3.56507L394.37 5.35193C392.717 5.71036 391.011 5.75499 389.342 5.48348L379.95 3.9561Z" fill="#EDEECA" stroke="#FFD600"/>
</svg>
