<svg width="512" height="30" viewBox="0 0 512 30" fill="none" xmlns="http://www.w3.org/2000/svg">
<rect x="1" y="1" width="510" height="28" rx="14" fill="url(#paint0_linear)" stroke="#DE5000" stroke-width="2"/>
<ellipse cx="17" cy="20" rx="5" ry="4" fill="#E1B97D"/>
<ellipse cx="54" cy="12" rx="5" ry="4" fill="#E1B97D"/>
<ellipse cx="99" cy="13" rx="5" ry="4" fill="#E1B97D"/>
<ellipse cx="141" cy="20" rx="5" ry="4" fill="#E1B97D"/>
<ellipse cx="187" cy="10" rx="5" ry="4" fill="#E1B97D"/>
<ellipse cx="212" cy="20" rx="5" ry="4" fill="#E1B97D"/>
<ellipse cx="258" cy="21" rx="5" ry="4" fill="#E1B97D"/>
<ellipse cx="299" cy="11" rx="5" ry="4" fill="#E1B97D"/>
<ellipse cx="344" cy="20" rx="5" ry="4" fill="#E1B97D"/>
<ellipse cx="386" cy="17" rx="5" ry="4" fill="#E1B97D"/>
<ellipse cx="427" cy="12" rx="5" ry="4" fill="#E1B97D"/>
<ellipse cx="464" cy="21" rx="5" ry="4" fill="#E1B97D"/>
<ellipse cx="494" cy="12" rx="5" ry="4" fill="#E1B97D"/>
<defs>
<linearGradient id="paint0_linear" x1="256" y1="0" x2="256" y2="30" gradientUnits="userSpaceOnUse">
<stop stop-color="#C00000"/>
<stop offset="1" stop-color="#DE5000"/>
</linearGradient>
</defs>
</svg>
