<svg width="480" height="17" viewBox="0 0 480 17" fill="none" xmlns="http://www.w3.org/2000/svg">
<path d="M105.272 8.12777C93.7741 11.3274 82.4654 13.1123 56.2103 15.7397C51.1476 16.2463 46.0279 15.6373 41.0103 14.5633C34.6091 13.1931 27.9766 12.3626 22.0245 11.6173C19.1157 11.253 16.3694 10.9092 13.8921 10.5326C10.0944 9.95529 6.94332 9.30424 4.74971 8.40077C2.52923 7.48623 1.5 6.40673 1.5 5.07458C1.5 4.29628 1.80376 3.74037 2.40039 3.31729C3.02847 2.87191 4.00197 2.5619 5.34299 2.38904C8.02078 2.04387 11.9139 2.27232 16.7427 2.7443C18.8498 2.95026 21.1282 3.20186 23.5493 3.4692C32.1774 4.42194 42.6168 5.57469 53.5656 5.57469C62.7586 5.57469 73.6747 4.34714 83.8654 3.10211C85.0803 2.95368 86.2846 2.80505 87.4743 2.65823C96.2862 1.57071 104.298 0.581957 109.894 0.504823C111.822 0.478253 112.779 0.878052 113.157 1.33033C113.485 1.72143 113.506 2.33998 112.971 3.22192C111.903 4.97983 108.961 7.10137 105.272 8.12777Z" fill="#F8F5F5" stroke="#D4E4CF"/>
<path d="M297.638 5.07157C297.638 5.92303 297.075 6.74874 295.779 7.53948C294.49 8.32583 292.583 9.00678 290.153 9.5874C285.303 10.7467 278.522 11.4725 270.84 11.9222C257.836 12.6836 242.335 12.6502 229.424 12.6223C227.088 12.6173 224.837 12.6124 222.7 12.6125C211.587 12.6129 203.16 13.7813 197.077 14.6247C195.512 14.8417 194.102 15.0371 192.842 15.1857C191.299 15.3674 189.993 15.4776 188.898 15.4753C187.8 15.4729 186.951 15.3567 186.308 15.109C185.68 14.8673 185.248 14.5008 184.96 13.9688C184.664 13.4214 184.5 12.6581 184.5 11.592C184.5 10.6774 184.942 9.88998 185.867 9.19378C186.806 8.48633 188.216 7.89943 190.056 7.42716C193.731 6.48385 198.951 6.03922 205.084 5.87166C212.255 5.67576 220.591 5.85842 229.071 6.04422C235.112 6.17658 241.225 6.31054 247.042 6.31036C258.444 6.30999 269.079 4.70445 277.639 3.4122C279.573 3.12013 281.402 2.84407 283.109 2.60616C287.765 1.95742 291.472 1.60003 294.007 1.93663C295.272 2.1046 296.177 2.43792 296.761 2.93478C297.322 3.41194 297.638 4.08406 297.638 5.07157Z" fill="#F8F5F5" stroke="#D4E4CF"/>
<path d="M479.149 4.1843C478.273 5.88149 472.461 8.57197 458.768 12.7962C454.577 10.3754 450.07 9.26106 445.216 8.95788C440.219 8.64581 434.919 9.19678 429.444 10.0118C427.176 10.3495 424.891 10.7289 422.584 11.1119C413.742 12.58 404.574 14.1021 394.75 13.5412C384.372 12.9487 373.287 13.2892 364.75 13.5514C362.829 13.6104 361.037 13.6654 359.411 13.705C357.192 13.759 355.295 13.784 353.791 13.7534C352.282 13.7227 351.213 13.6367 350.603 13.4791C350.007 13.325 349.84 13.1003 350.165 12.7728C350.497 12.4378 351.357 11.982 352.919 11.3635C365.509 6.37729 393.3 0.145286 418.255 1.57009C424.64 1.93463 433.918 1.75249 443.264 1.55339C443.586 1.54652 443.909 1.53962 444.232 1.53273C453.294 1.33914 462.342 1.14587 468.994 1.41574C475.896 1.69573 480.036 2.46705 479.149 4.1843Z" fill="#F8F5F5" stroke="#D4E4CF"/>
<path d="M1.27711 5.18609L9.0482 6.3613L17.5482 6.97947L22.5482 8.06129" stroke="#E5E5E5"/>
<path d="M22.3222 8L27.8222 10.3182L34.8222 11.7091L42.3222 12.0182L47.4746 12.9528" stroke="#E5E5E5"/>
<line y1="-0.5" x2="22.1577" y2="-0.5" transform="matrix(0.992882 -0.119103 0.0699759 0.997549 47 13.639)" stroke="#E5E5E5"/>
<path d="M69 10.6545L81 10.1909L90.5 9.10909" stroke="#E2E2E2"/>
<path d="M90.3972 8.53953L95.6565 6.05567L110.473 3.00004" stroke="#E5E5E5"/>
<path d="M357.905 13.6663L391 9.71434" stroke="#E5E5E5"/>
<path d="M391 9.71434L404.5 9.41077L418.947 7.59105" stroke="#E5E5E5"/>
<path d="M419 7.5892L432 6.07136L443.962 5.76868" stroke="#E5E5E5"/>
<path d="M444 5.76789L454.5 3.94641L463.926 3.34265" stroke="#E5E5E5"/>
<path d="M463.5 3.33929L469.312 3.6429L464.312 7.89291" stroke="#E5E5E5"/>
<path d="M185 12.5C185 12.5 188.5 11.5 192 11.5C195.5 11.5 198.5 11.5 198.5 11.5C198.5 11.5 209.5 10 212.5 9.5C215.5 9 238 9 241.5 9.5C245 10 297.5 4.5 297.5 4.5" stroke="#E5E5E5" stroke-opacity="0.9" stroke-width="0.6"/>
</svg>
