<svg width="512" height="26" viewBox="0 0 512 26" fill="none" xmlns="http://www.w3.org/2000/svg">
<path d="M475.78 18.0017C455.221 13.1929 433.822 13.2668 413.296 18.2175L406.287 19.4446C387.278 22.7729 367.811 22.4733 348.913 18.5617C328.841 14.4072 308.145 14.2765 288.023 18.177L286.595 18.4539C266.066 22.4332 244.957 22.355 224.458 18.2234L222.113 17.7508C201.586 13.6135 180.427 13.7308 159.947 18.0954C140.177 22.3088 119.762 22.5127 99.911 18.6951L75.6785 14.0348C69.6154 12.8688 63.3882 12.8427 57.3155 13.9578L7.3672 23.1304C4.05396 23.7389 1 21.1947 1 17.826C1 15.2232 2.85898 12.9917 5.41899 12.5216L54.438 3.51966C62.4067 2.05627 70.5783 2.09051 78.5345 3.62063L99.621 7.67593C119.685 11.5346 140.308 11.4563 160.342 7.44555C180.578 3.39425 201.418 3.40779 221.649 7.48538L222.875 7.73252C244.405 12.0718 266.589 12.0207 288.099 7.58227C308.19 3.43637 328.889 3.16384 349.083 6.77931L352.918 7.466C369.203 10.3816 385.807 11.0806 402.279 9.54398L410.593 8.76845L410.5 7.77278L410.715 8.74939C432.939 3.85692 455.986 4.09185 478.106 9.43634L481.765 10.3206L481.797 10.3282L481.829 10.3338L505.141 14.3796C508.011 14.8777 509.731 17.8514 508.731 20.5871C507.939 22.7528 505.686 24.0173 503.425 23.5649L476.712 18.2196L475.78 18.0017Z" fill="#00B812" stroke="#42FF00" stroke-width="2"/>
</svg>
