<svg width="454" height="467" viewBox="0 0 454 467" fill="none" xmlns="http://www.w3.org/2000/svg">
<path d="M225.217 29.5114C225.217 29.5114 396.374 154.106 391.196 176.502C386.018 198.899 172.379 26.3204 158.35 49.9549C144.32 73.5894 407.561 244.91 400.124 268.725C392.688 292.541 100.465 81.7316 85.8367 106.875C71.2085 132.018 379.828 325.4 366.832 348.895C353.836 372.389 67.2909 151.25 52.5051 172.373C37.7194 193.496 325.642 383.623 314.02 400.77C302.399 417.917 68.7717 240.339 57.4362 257.986C46.1008 275.634 224.232 410.267 211.94 425.616C199.648 440.966 84.6688 347.06 84.6688 347.06" stroke="url(#paint0_linear)" stroke-width="9"/>
<defs>
<linearGradient id="paint0_linear" x1="389.281" y1="170.236" x2="28.0883" y2="289.64" gradientUnits="userSpaceOnUse">
<stop stop-color="#FFA53C"/>
<stop offset="1" stop-color="#E96B10"/>
</linearGradient>
</defs>
</svg>
