<svg width="422" height="395" viewBox="0 0 422 395" fill="none" xmlns="http://www.w3.org/2000/svg">
<path d="M49.4056 136.17C46.9626 139.782 42.1006 139.971 39.2519 136.565L30.1349 125.665C28.4771 123.683 28.0842 120.8 29.1514 118.448C30.438 115.613 33.463 114.352 36.1951 115.512L50.1062 121.421C53.6966 122.946 55.0437 127.835 52.7913 131.165L49.4056 136.17Z" fill="url(#paint0_linear)"/>
<path d="M200.59 166.338C196.635 164.504 195.671 159.735 198.578 156.378L207.882 145.637C209.573 143.684 212.357 142.835 214.849 143.513C217.854 144.33 219.581 147.115 218.872 149.997L215.262 164.674C214.33 168.462 209.72 170.573 206.072 168.881L200.59 166.338Z" fill="url(#paint1_linear)"/>
<path d="M67.0798 54.806C68.6495 50.7378 73.3449 49.4618 76.8855 52.1411L88.2171 60.7162C90.2776 62.2754 91.3077 64.9968 90.7958 67.5283C90.1787 70.5802 87.5139 72.4879 84.591 71.9705L69.7085 69.3356C65.8673 68.6555 63.4571 64.1946 64.9043 60.4439L67.0798 54.806Z" fill="url(#paint2_linear)"/>
<path d="M215.08 7.80595C216.649 3.73784 221.345 2.4618 224.886 5.14112L236.217 13.7162C238.278 15.2754 239.308 17.9968 238.796 20.5283C238.179 23.5802 235.514 25.4879 232.591 24.9705L217.708 22.3356C213.867 21.6555 211.457 17.1946 212.904 13.4439L215.08 7.80595Z" fill="url(#paint3_linear)"/>
<path d="M207.095 75.1178C211.141 73.493 215.275 76.0583 215.729 80.4752L217.18 94.6113C217.444 97.1818 216.155 99.7907 213.954 101.142C211.301 102.771 208.088 102.122 206.474 99.6307L198.256 86.9462C196.135 83.6723 197.756 78.8678 201.487 77.3697L207.095 75.1178Z" fill="url(#paint4_linear)"/>
<path d="M163.626 179.941C166.515 183.208 165.485 187.963 161.476 189.872L148.646 195.981C146.313 197.092 143.423 196.753 141.411 195.133C138.987 193.18 138.52 189.936 140.326 187.58L149.519 175.583C151.891 172.486 156.961 172.401 159.624 175.413L163.626 179.941Z" fill="url(#paint5_linear)"/>
<path d="M151.08 19.806C152.649 15.7378 157.345 14.4618 160.886 17.1411L172.217 25.7162C174.278 27.2754 175.308 29.9968 174.796 32.5283C174.179 35.5802 171.514 37.4879 168.591 36.9705L153.708 34.3356C149.867 33.6555 147.457 29.1946 148.904 25.4439L151.08 19.806Z" fill="url(#paint6_linear)"/>
<path d="M331.08 60.806C332.649 56.7378 337.345 55.4618 340.886 58.1411L352.217 66.7162C354.278 68.2754 355.308 70.9968 354.796 73.5283C354.179 76.5802 351.514 78.4879 348.591 77.9705L333.708 75.3356C329.867 74.6555 327.457 70.1946 328.904 66.4439L331.08 60.806Z" fill="url(#paint7_linear)"/>
<path d="M278.492 32.403C276.151 28.7244 277.912 24.1886 282.171 22.9307L295.799 18.9046C298.277 18.1725 301.078 18.9595 302.811 20.8745C304.9 23.1833 304.853 26.4601 302.701 28.5047L291.744 38.9152C288.916 41.6021 283.896 40.8927 281.737 37.5011L278.492 32.403Z" fill="url(#paint8_linear)"/>
<path d="M187.831 233.766C192.182 233.48 195.314 237.203 194.371 241.542L191.355 255.429C190.807 257.954 188.771 260.033 186.259 260.633C183.23 261.356 180.379 259.74 179.619 256.871L175.753 242.26C174.755 238.489 177.789 234.426 181.8 234.162L187.831 233.766Z" fill="url(#paint9_linear)"/>
<path d="M253.08 65.806C254.649 61.7378 259.345 60.4618 262.886 63.1411L274.217 71.7162C276.278 73.2754 277.308 75.9968 276.796 78.5283C276.179 81.5802 273.514 83.4879 270.591 82.9705L255.708 80.3356C251.867 79.6555 249.457 75.1946 250.904 71.4439L253.08 65.806Z" fill="url(#paint10_linear)"/>
<path d="M125.08 69.806C126.649 65.7378 131.345 64.4618 134.886 67.1411L146.217 75.7162C148.278 77.2754 149.308 79.9968 148.796 82.5283C148.179 85.5802 145.514 87.4879 142.591 86.9705L127.708 84.3356C123.867 83.6555 121.457 79.1946 122.904 75.4439L125.08 69.806Z" fill="url(#paint11_linear)"/>
<path d="M381.029 105.571C385.362 106.057 387.788 110.275 386.096 114.379L380.678 127.517C379.693 129.905 377.322 131.593 374.744 131.74C371.635 131.918 369.113 129.825 368.872 126.866L367.642 111.802C367.325 107.914 371.028 104.451 375.023 104.898L381.029 105.571Z" fill="url(#paint12_linear)"/>
<path d="M93.6461 197.421C98.001 197.202 101.076 200.973 100.067 205.297L96.839 219.136C96.252 221.652 94.1844 223.7 91.6634 224.261C88.6242 224.938 85.7979 223.279 85.0825 220.398L81.4398 205.73C80.4996 201.944 83.5955 197.928 87.6107 197.726L93.6461 197.421Z" fill="url(#paint13_linear)"/>
<path d="M122.248 288.14C117.95 287.409 115.767 283.06 117.691 279.058L123.848 266.25C124.967 263.921 127.43 262.372 130.013 262.371C133.127 262.371 135.525 264.604 135.598 267.572L135.968 282.681C136.063 286.581 132.169 289.828 128.206 289.154L122.248 288.14Z" fill="url(#paint14_linear)"/>
<path d="M290.08 351.806C291.649 347.738 296.345 346.462 299.886 349.141L311.217 357.716C313.278 359.275 314.308 361.997 313.796 364.528C313.179 367.58 310.514 369.488 307.591 368.97L292.708 366.336C288.867 365.656 286.457 361.195 287.904 357.444L290.08 351.806Z" fill="url(#paint15_linear)"/>
<path d="M256.823 232.369C261.179 232.177 264.23 235.967 263.194 240.285L259.88 254.103C259.278 256.616 257.198 258.651 254.673 259.196C251.63 259.854 248.814 258.178 248.116 255.292L244.565 240.602C243.648 236.81 246.769 232.814 250.785 232.636L256.823 232.369Z" fill="url(#paint16_linear)"/>
<path d="M342.08 248.806C343.649 244.738 348.345 243.462 351.886 246.141L363.217 254.716C365.278 256.275 366.308 258.997 365.796 261.528C365.179 264.58 362.514 266.488 359.591 265.97L344.708 263.336C340.867 262.656 338.457 258.195 339.904 254.444L342.08 248.806Z" fill="url(#paint17_linear)"/>
<path d="M110.089 141.09C105.873 139.976 104.09 135.449 106.365 131.636L113.645 119.432C114.969 117.213 117.561 115.89 120.133 116.122C123.234 116.4 125.423 118.84 125.229 121.802L124.243 136.883C123.988 140.776 119.819 143.661 115.932 142.634L110.089 141.09Z" fill="url(#paint18_linear)"/>
<path d="M50.4585 263.537C54.5222 265.118 55.7852 269.817 53.0961 273.35L44.4895 284.658C42.9246 286.714 40.2004 287.736 37.6703 287.217C34.6201 286.592 32.7198 283.922 33.2454 281L35.9216 266.125C36.6123 262.286 41.0799 259.888 44.8266 261.346L50.4585 263.537Z" fill="url(#paint19_linear)"/>
<path d="M5.07976 192.806C6.64947 188.738 11.3449 187.462 14.8855 190.141L26.2171 198.716C28.2776 200.275 29.3077 202.997 28.7958 205.528C28.1787 208.58 25.5139 210.488 22.591 209.97L7.70848 207.336C3.86729 206.656 1.45708 202.195 2.90433 198.444L5.07976 192.806Z" fill="url(#paint20_linear)"/>
<path d="M78.0798 316.806C79.6495 312.738 84.3449 311.462 87.8855 314.141L99.2171 322.716C101.278 324.275 102.308 326.997 101.796 329.528C101.179 332.58 98.5139 334.488 95.591 333.97L80.7085 331.336C76.8673 330.656 74.4571 326.195 75.9043 322.444L78.0798 316.806Z" fill="url(#paint21_linear)"/>
<path d="M207.642 383.628C204.702 380.408 205.655 375.636 209.632 373.663L222.363 367.348C224.677 366.2 227.572 366.492 229.61 368.08C232.065 369.994 232.584 373.23 230.816 375.615L221.818 387.758C219.495 390.892 214.428 391.059 211.717 388.09L207.642 383.628Z" fill="url(#paint22_linear)"/>
<path d="M147.232 376.969C143.18 378.578 139.055 375.997 138.618 371.578L137.22 357.437C136.966 354.865 138.265 352.262 140.471 350.919C143.131 349.3 146.341 349.961 147.945 352.458L156.115 365.174C158.224 368.456 156.585 373.254 152.848 374.738L147.232 376.969Z" fill="url(#paint23_linear)"/>
<path d="M270.08 113.806C271.649 109.738 276.345 108.462 279.886 111.141L291.217 119.716C293.278 121.275 294.308 123.997 293.796 126.528C293.179 129.58 290.514 131.488 287.591 130.97L272.708 128.336C268.867 127.656 266.457 123.195 267.904 119.444L270.08 113.806Z" fill="url(#paint24_linear)"/>
<path d="M197.08 289.806C198.649 285.738 203.345 284.462 206.886 287.141L218.217 295.716C220.278 297.275 221.308 299.997 220.796 302.528C220.179 305.58 217.514 307.488 214.591 306.97L199.708 304.336C195.867 303.656 193.457 299.195 194.904 295.444L197.08 289.806Z" fill="url(#paint25_linear)"/>
<path d="M271.562 308.026C268.142 305.321 268.316 300.458 271.924 297.871L283.473 289.591C285.573 288.085 288.477 287.908 290.743 289.148C293.475 290.642 294.507 293.752 293.146 296.39L286.218 309.823C284.43 313.29 279.455 314.269 276.302 311.775L271.562 308.026Z" fill="url(#paint26_linear)"/>
<path d="M273.645 196.221C269.442 195.06 267.711 190.512 270.029 186.725L277.447 174.605C278.796 172.401 281.403 171.108 283.973 171.369C287.07 171.683 289.231 174.147 289.004 177.106L287.846 192.176C287.547 196.066 283.345 198.903 279.47 197.832L273.645 196.221Z" fill="url(#paint27_linear)"/>
<path d="M333.846 230.7C332.333 234.79 327.656 236.131 324.078 233.502L312.628 225.085C310.546 223.555 309.478 220.848 309.955 218.31C310.529 215.249 313.167 213.305 316.097 213.781L331.015 216.209C334.865 216.835 337.337 221.262 335.943 225.033L333.846 230.7Z" fill="url(#paint28_linear)"/>
<path d="M327.08 157.806C328.649 153.738 333.345 152.462 336.886 155.141L348.217 163.716C350.278 165.275 351.308 167.997 350.796 170.528C350.179 173.58 347.514 175.488 344.591 174.97L329.708 172.336C325.867 171.656 323.457 167.195 324.904 163.444L327.08 157.806Z" fill="url(#paint29_linear)"/>
<path d="M400.266 191.128C395.958 190.453 393.719 186.133 395.591 182.106L401.58 169.22C402.669 166.876 405.111 165.295 407.694 165.261C410.807 165.22 413.235 167.422 413.346 170.388L413.913 185.491C414.059 189.389 410.208 192.687 406.236 192.064L400.266 191.128Z" fill="url(#paint30_linear)"/>
<path d="M391.08 230.806C392.649 226.738 397.345 225.462 400.886 228.141L412.217 236.716C414.278 238.275 415.308 240.997 414.796 243.528C414.179 246.58 411.514 248.488 408.591 247.97L393.708 245.336C389.867 244.656 387.457 240.195 388.904 236.444L391.08 230.806Z" fill="url(#paint31_linear)"/>
<path d="M384.734 294.691C388.582 296.743 389.278 301.558 386.189 304.748L376.302 314.955C374.505 316.811 371.678 317.503 369.228 316.688C366.273 315.705 364.703 312.828 365.571 309.99L369.993 295.537C371.134 291.807 375.855 289.956 379.402 291.847L384.734 294.691Z" fill="url(#paint32_linear)"/>
<path d="M35.4512 122.671C34.706 123.882 33.0823 124.042 32.056 123.007L30.4089 121.346C29.8682 120.801 29.6923 119.969 29.9681 119.263C30.3125 118.381 31.2516 117.956 32.1226 118.288L34.2465 119.098C35.641 119.63 36.2363 121.396 35.4512 122.671Z" fill="white" fill-opacity="0.49"/>
<path d="M211.687 150.407C210.373 149.865 209.955 148.288 210.813 147.109L212.189 145.218C212.641 144.597 213.434 144.29 214.175 144.45C215.101 144.649 215.67 145.508 215.482 146.421L215.021 148.647C214.719 150.109 213.071 150.978 211.687 150.407Z" fill="white" fill-opacity="0.49"/>
<path d="M83.7085 64.8274C84.1629 63.4806 85.7091 62.9596 86.9417 63.7379L88.9196 64.9868C89.569 65.3968 89.927 66.1673 89.8169 66.9175C89.6792 67.8545 88.8595 68.4794 87.9362 68.3512L85.6846 68.0385C84.2063 67.8332 83.2297 66.2463 83.7085 64.8274Z" fill="white" fill-opacity="0.49"/>
<path d="M231.708 17.8274C232.163 16.4806 233.709 15.9596 234.942 16.7379L236.92 17.9868C237.569 18.3968 237.927 19.1673 237.817 19.9175C237.679 20.8545 236.86 21.4794 235.936 21.3512L233.685 21.0385C232.206 20.8332 231.23 19.2463 231.708 17.8274Z" fill="white" fill-opacity="0.49"/>
<path d="M211.099 94.1155C212.394 93.5298 213.829 94.3059 214.1 95.7382L214.535 98.0367C214.677 98.7913 214.358 99.5785 213.734 100.009C212.954 100.547 211.938 100.374 211.403 99.6108L210.097 97.7503C209.239 96.5288 209.734 94.7325 211.099 94.1155Z" fill="white" fill-opacity="0.49"/>
<path d="M147.073 190.086C148.059 191.109 147.809 192.722 146.551 193.457L144.531 194.638C143.868 195.026 143.019 194.989 142.404 194.545C141.636 193.992 141.459 192.976 141.998 192.216L143.312 190.361C144.175 189.143 146.034 189.007 147.073 190.086Z" fill="white" fill-opacity="0.49"/>
<path d="M167.708 29.8274C168.163 28.4806 169.709 27.9596 170.942 28.7379L172.92 29.9868C173.569 30.3968 173.927 31.1673 173.817 31.9175C173.679 32.8545 172.86 33.4794 171.936 33.3512L169.685 33.0385C168.206 32.8332 167.23 31.2463 167.708 29.8274Z" fill="white" fill-opacity="0.49"/>
<path d="M347.708 70.8274C348.163 69.4806 349.709 68.9596 350.942 69.7379L352.92 70.9868C353.569 71.3968 353.927 72.1673 353.817 72.9175C353.679 73.8545 352.86 74.4794 351.936 74.3512L349.685 74.0385C348.206 73.8332 347.23 72.2463 347.708 70.8274Z" fill="white" fill-opacity="0.49"/>
<path d="M296.43 24.9734C295.616 23.8081 296.115 22.2546 297.473 21.725L299.652 20.875C300.368 20.596 301.2 20.7654 301.738 21.2995C302.411 21.9666 302.427 22.9972 301.775 23.664L300.187 25.2901C299.144 26.3577 297.287 26.2012 296.43 24.9734Z" fill="white" fill-opacity="0.49"/>
<path d="M185.73 253.067C187.143 252.913 188.265 254.097 188.077 255.542L187.776 257.862C187.677 258.624 187.128 259.272 186.401 259.488C185.493 259.757 184.582 259.276 184.31 258.384L183.647 256.21C183.212 254.782 184.241 253.229 185.73 253.067Z" fill="white" fill-opacity="0.49"/>
<path d="M269.708 75.8274C270.163 74.4806 271.709 73.9596 272.942 74.7379L274.92 75.9868C275.569 76.3968 275.927 77.1673 275.817 77.9175C275.679 78.8545 274.86 79.4794 273.936 79.3512L271.685 79.0385C270.206 78.8332 269.23 77.2463 269.708 75.8274Z" fill="white" fill-opacity="0.49"/>
<path d="M141.708 79.8274C142.163 78.4806 143.709 77.9596 144.942 78.7379L146.92 79.9868C147.569 80.3968 147.927 81.1673 147.817 81.9175C147.679 82.8545 146.86 83.4794 145.936 83.3512L143.685 83.0385C142.206 82.8332 141.23 81.2463 141.708 79.8274Z" fill="white" fill-opacity="0.49"/>
<path d="M375.557 124.199C376.975 124.297 377.872 125.66 377.432 127.05L376.726 129.28C376.494 130.013 375.84 130.554 375.086 130.638C374.145 130.743 373.332 130.109 373.222 129.183L372.953 126.926C372.776 125.444 374.063 124.097 375.557 124.199Z" fill="white" fill-opacity="0.49"/>
<path d="M91.2499 216.688C92.6651 216.556 93.7697 217.757 93.5597 219.199L93.2227 221.514C93.112 222.274 92.5537 222.914 91.8235 223.119C90.9114 223.374 90.0072 222.879 89.749 221.983L89.1194 219.799C88.706 218.365 89.7588 216.827 91.2499 216.688Z" fill="white" fill-opacity="0.49"/>
<path d="M128.772 269.854C127.362 269.675 126.544 268.263 127.063 266.901L127.894 264.715C128.167 263.997 128.851 263.493 129.609 263.452C130.554 263.401 131.329 264.081 131.387 265.011L131.527 267.28C131.619 268.769 130.258 270.041 128.772 269.854Z" fill="white" fill-opacity="0.49"/>
<path d="M306.708 361.827C307.163 360.481 308.709 359.96 309.942 360.738L311.92 361.987C312.569 362.397 312.927 363.167 312.817 363.917C312.679 364.855 311.86 365.479 310.936 365.351L308.685 365.039C307.206 364.833 306.23 363.246 306.708 361.827Z" fill="white" fill-opacity="0.49"/>
<path d="M254.307 251.621C255.723 251.497 256.82 252.705 256.601 254.146L256.249 256.459C256.134 257.218 255.572 257.855 254.84 258.055C253.927 258.304 253.026 257.804 252.773 256.906L252.157 254.718C251.752 253.282 252.815 251.751 254.307 251.621Z" fill="white" fill-opacity="0.49"/>
<path d="M358.708 258.827C359.163 257.481 360.709 256.96 361.942 257.738L363.92 258.987C364.569 259.397 364.927 260.167 364.817 260.917C364.679 261.855 363.86 262.479 362.936 262.351L360.685 262.039C359.206 261.833 358.23 260.246 358.708 258.827Z" fill="white" fill-opacity="0.49"/>
<path d="M118.226 123.462C116.838 123.159 116.15 121.679 116.788 120.368L117.813 118.265C118.149 117.575 118.876 117.134 119.633 117.162C120.58 117.196 121.291 117.942 121.265 118.874L121.201 121.146C121.159 122.638 119.689 123.783 118.226 123.462Z" fill="white" fill-opacity="0.49"/>
<path d="M40.3907 280.138C41.7362 280.596 42.2529 282.143 41.4712 283.374L40.2168 285.348C39.805 285.997 39.0336 286.352 38.2837 286.24C37.347 286.1 36.7244 285.279 36.8551 284.356L37.1741 282.105C37.3835 280.627 38.9731 279.655 40.3907 280.138Z" fill="white" fill-opacity="0.49"/>
<path d="M21.7085 202.827C22.1629 201.481 23.7091 200.96 24.9417 201.738L26.9196 202.987C27.569 203.397 27.927 204.167 27.8169 204.917C27.6792 205.855 26.8595 206.479 25.9362 206.351L23.6846 206.039C22.2063 205.833 21.2297 204.246 21.7085 202.827Z" fill="white" fill-opacity="0.49"/>
<path d="M94.7085 326.827C95.1629 325.481 96.7091 324.96 97.9417 325.738L99.9196 326.987C100.569 327.397 100.927 328.167 100.817 328.917C100.679 329.855 99.8595 330.479 98.9362 330.351L96.6846 330.039C95.2063 329.833 94.2297 328.246 94.7085 326.827Z" fill="white" fill-opacity="0.49"/>
<path d="M223.033 376.61C221.78 375.94 221.521 374.329 222.492 373.241L224.05 371.497C224.562 370.924 225.381 370.698 226.103 370.931C227.004 371.221 227.485 372.133 227.206 373.022L226.526 375.191C226.08 376.615 224.354 377.317 223.033 376.61Z" fill="white" fill-opacity="0.49"/>
<path d="M146.12 360.09C145.049 361.024 143.451 360.696 142.778 359.403L141.698 357.328C141.343 356.646 141.422 355.8 141.895 355.208C142.486 354.467 143.509 354.34 144.242 354.916L146.03 356.32C147.203 357.242 147.248 359.105 146.12 360.09Z" fill="white" fill-opacity="0.49"/>
<path d="M286.708 123.827C287.163 122.481 288.709 121.96 289.942 122.738L291.92 123.987C292.569 124.397 292.927 125.167 292.817 125.917C292.679 126.855 291.86 127.479 290.936 127.351L288.685 127.039C287.206 126.833 286.23 125.246 286.708 123.827Z" fill="white" fill-opacity="0.49"/>
<path d="M213.708 299.827C214.163 298.481 215.709 297.96 216.942 298.738L218.92 299.987C219.569 300.397 219.927 301.167 219.817 301.917C219.679 302.855 218.86 303.479 217.936 303.351L215.685 303.039C214.206 302.833 213.23 301.246 213.708 299.827Z" fill="white" fill-opacity="0.49"/>
<path d="M286.063 295.116C284.911 294.282 284.872 292.651 285.981 291.705L287.76 290.186C288.344 289.688 289.186 289.574 289.87 289.902C290.724 290.311 291.078 291.279 290.681 292.123L289.715 294.18C289.081 295.531 287.276 295.994 286.063 295.116Z" fill="white" fill-opacity="0.49"/>
<path d="M281.982 178.688C280.597 178.368 279.926 176.88 280.58 175.577L281.628 173.486C281.972 172.799 282.704 172.367 283.461 172.403C284.407 172.448 285.11 173.202 285.073 174.134L284.983 176.405C284.924 177.896 283.441 179.024 281.982 178.688Z" fill="white" fill-opacity="0.49"/>
<path d="M317.079 220.912C316.643 222.264 315.105 222.807 313.861 222.046L311.866 220.825C311.211 220.424 310.842 219.658 310.942 218.907C311.067 217.968 311.878 217.332 312.803 217.447L315.058 217.728C316.539 217.913 317.538 219.486 317.079 220.912Z" fill="white" fill-opacity="0.49"/>
<path d="M343.708 167.827C344.163 166.481 345.709 165.96 346.942 166.738L348.92 167.987C349.569 168.397 349.927 169.167 349.817 169.917C349.679 170.855 348.86 171.479 347.936 171.351L345.685 171.039C344.206 170.833 343.23 169.246 343.708 167.827Z" fill="white" fill-opacity="0.49"/>
<path d="M406.55 172.759C405.138 172.599 404.302 171.197 404.803 169.828L405.606 167.631C405.87 166.91 406.547 166.397 407.304 166.347C408.249 166.283 409.032 166.953 409.102 167.882L409.272 170.149C409.383 171.637 408.038 172.927 406.55 172.759Z" fill="white" fill-opacity="0.49"/>
<path d="M407.708 240.827C408.163 239.481 409.709 238.96 410.942 239.738L412.92 240.987C413.569 241.397 413.927 242.167 413.817 242.917C413.679 243.855 412.86 244.479 411.936 244.351L409.685 244.039C408.206 243.833 407.23 242.246 407.708 240.827Z" fill="white" fill-opacity="0.49"/>
<path d="M372.769 309.98C374.05 310.595 374.38 312.193 373.458 313.322L371.978 315.134C371.492 315.729 370.684 315.99 369.953 315.79C369.039 315.54 368.518 314.65 368.758 313.749L369.341 311.552C369.725 310.11 371.418 309.333 372.769 309.98Z" fill="white" fill-opacity="0.49"/>
<defs>
<linearGradient id="paint0_linear" x1="50.6153" y1="134.099" x2="28.0266" y2="120.126" gradientUnits="userSpaceOnUse">
<stop stop-color="#FFE600" stop-opacity="0.9"/>
<stop offset="1" stop-color="#F8EDB9" stop-opacity="0.9"/>
</linearGradient>
<linearGradient id="paint1_linear" x1="202.828" y1="167.202" x2="213.013" y2="142.671" gradientUnits="userSpaceOnUse">
<stop stop-color="#FFE600" stop-opacity="0.9"/>
<stop offset="1" stop-color="#F8EDB9" stop-opacity="0.9"/>
</linearGradient>
<linearGradient id="paint2_linear" x1="66.3659" y1="57.0956" x2="91.5152" y2="65.6404" gradientUnits="userSpaceOnUse">
<stop stop-color="#FFE600" stop-opacity="0.9"/>
<stop offset="1" stop-color="#F8EDB9" stop-opacity="0.9"/>
</linearGradient>
<linearGradient id="paint3_linear" x1="214.366" y1="10.0956" x2="239.515" y2="18.6404" gradientUnits="userSpaceOnUse">
<stop stop-color="#FFE600" stop-opacity="0.9"/>
<stop offset="1" stop-color="#F8EDB9" stop-opacity="0.9"/>
</linearGradient>
<linearGradient id="paint4_linear" x1="204.933" y1="76.1565" x2="215.826" y2="100.381" gradientUnits="userSpaceOnUse">
<stop stop-color="#FFE600" stop-opacity="0.9"/>
<stop offset="1" stop-color="#F8EDB9" stop-opacity="0.9"/>
</linearGradient>
<linearGradient id="paint5_linear" x1="161.923" y1="178.253" x2="142.756" y2="196.641" gradientUnits="userSpaceOnUse">
<stop stop-color="#FFE600" stop-opacity="0.9"/>
<stop offset="1" stop-color="#F8EDB9" stop-opacity="0.9"/>
</linearGradient>
<linearGradient id="paint6_linear" x1="150.366" y1="22.0956" x2="175.515" y2="30.6404" gradientUnits="userSpaceOnUse">
<stop stop-color="#FFE600" stop-opacity="0.9"/>
<stop offset="1" stop-color="#F8EDB9" stop-opacity="0.9"/>
</linearGradient>
<linearGradient id="paint7_linear" x1="330.366" y1="63.0956" x2="355.515" y2="71.6404" gradientUnits="userSpaceOnUse">
<stop stop-color="#FFE600" stop-opacity="0.9"/>
<stop offset="1" stop-color="#F8EDB9" stop-opacity="0.9"/>
</linearGradient>
<linearGradient id="paint8_linear" x1="279.911" y1="34.3369" x2="301.719" y2="19.1747" gradientUnits="userSpaceOnUse">
<stop stop-color="#FFE600" stop-opacity="0.9"/>
<stop offset="1" stop-color="#F8EDB9" stop-opacity="0.9"/>
</linearGradient>
<linearGradient id="paint9_linear" x1="185.453" y1="234.081" x2="188.274" y2="260.492" gradientUnits="userSpaceOnUse">
<stop stop-color="#FFE600" stop-opacity="0.9"/>
<stop offset="1" stop-color="#F8EDB9" stop-opacity="0.9"/>
</linearGradient>
<linearGradient id="paint10_linear" x1="252.366" y1="68.0956" x2="277.515" y2="76.6404" gradientUnits="userSpaceOnUse">
<stop stop-color="#FFE600" stop-opacity="0.9"/>
<stop offset="1" stop-color="#F8EDB9" stop-opacity="0.9"/>
</linearGradient>
<linearGradient id="paint11_linear" x1="124.366" y1="72.0956" x2="149.515" y2="80.6404" gradientUnits="userSpaceOnUse">
<stop stop-color="#FFE600" stop-opacity="0.9"/>
<stop offset="1" stop-color="#F8EDB9" stop-opacity="0.9"/>
</linearGradient>
<linearGradient id="paint12_linear" x1="378.633" y1="105.462" x2="376.752" y2="131.957" gradientUnits="userSpaceOnUse">
<stop stop-color="#FFE600" stop-opacity="0.9"/>
<stop offset="1" stop-color="#F8EDB9" stop-opacity="0.9"/>
</linearGradient>
<linearGradient id="paint13_linear" x1="91.264" y1="197.7" x2="93.6807" y2="224.151" gradientUnits="userSpaceOnUse">
<stop stop-color="#FFE600" stop-opacity="0.9"/>
<stop offset="1" stop-color="#F8EDB9" stop-opacity="0.9"/>
</linearGradient>
<linearGradient id="paint14_linear" x1="124.634" y1="288.385" x2="128.02" y2="262.041" gradientUnits="userSpaceOnUse">
<stop stop-color="#FFE600" stop-opacity="0.9"/>
<stop offset="1" stop-color="#F8EDB9" stop-opacity="0.9"/>
</linearGradient>
<linearGradient id="paint15_linear" x1="289.366" y1="354.096" x2="314.515" y2="362.64" gradientUnits="userSpaceOnUse">
<stop stop-color="#FFE600" stop-opacity="0.9"/>
<stop offset="1" stop-color="#F8EDB9" stop-opacity="0.9"/>
</linearGradient>
<linearGradient id="paint16_linear" x1="254.439" y1="232.633" x2="256.691" y2="259.099" gradientUnits="userSpaceOnUse">
<stop stop-color="#FFE600" stop-opacity="0.9"/>
<stop offset="1" stop-color="#F8EDB9" stop-opacity="0.9"/>
</linearGradient>
<linearGradient id="paint17_linear" x1="341.366" y1="251.096" x2="366.515" y2="259.64" gradientUnits="userSpaceOnUse">
<stop stop-color="#FFE600" stop-opacity="0.9"/>
<stop offset="1" stop-color="#F8EDB9" stop-opacity="0.9"/>
</linearGradient>
<linearGradient id="paint18_linear" x1="112.443" y1="141.549" x2="118.178" y2="115.614" gradientUnits="userSpaceOnUse">
<stop stop-color="#FFE600" stop-opacity="0.9"/>
<stop offset="1" stop-color="#F8EDB9" stop-opacity="0.9"/>
</linearGradient>
<linearGradient id="paint19_linear" x1="48.1708" y1="262.817" x2="39.5561" y2="287.942" gradientUnits="userSpaceOnUse">
<stop stop-color="#FFE600" stop-opacity="0.9"/>
<stop offset="1" stop-color="#F8EDB9" stop-opacity="0.9"/>
</linearGradient>
<linearGradient id="paint20_linear" x1="4.36594" y1="195.096" x2="29.5152" y2="203.64" gradientUnits="userSpaceOnUse">
<stop stop-color="#FFE600" stop-opacity="0.9"/>
<stop offset="1" stop-color="#F8EDB9" stop-opacity="0.9"/>
</linearGradient>
<linearGradient id="paint21_linear" x1="77.3659" y1="319.096" x2="102.515" y2="327.64" gradientUnits="userSpaceOnUse">
<stop stop-color="#FFE600" stop-opacity="0.9"/>
<stop offset="1" stop-color="#F8EDB9" stop-opacity="0.9"/>
</linearGradient>
<linearGradient id="paint22_linear" x1="209.372" y1="385.288" x2="228.241" y2="366.594" gradientUnits="userSpaceOnUse">
<stop stop-color="#FFE600" stop-opacity="0.9"/>
<stop offset="1" stop-color="#F8EDB9" stop-opacity="0.9"/>
</linearGradient>
<linearGradient id="paint23_linear" x1="149.398" y1="375.938" x2="138.597" y2="351.672" gradientUnits="userSpaceOnUse">
<stop stop-color="#FFE600" stop-opacity="0.9"/>
<stop offset="1" stop-color="#F8EDB9" stop-opacity="0.9"/>
</linearGradient>
<linearGradient id="paint24_linear" x1="269.366" y1="116.096" x2="294.515" y2="124.64" gradientUnits="userSpaceOnUse">
<stop stop-color="#FFE600" stop-opacity="0.9"/>
<stop offset="1" stop-color="#F8EDB9" stop-opacity="0.9"/>
</linearGradient>
<linearGradient id="paint25_linear" x1="196.366" y1="292.096" x2="221.515" y2="300.64" gradientUnits="userSpaceOnUse">
<stop stop-color="#FFE600" stop-opacity="0.9"/>
<stop offset="1" stop-color="#F8EDB9" stop-opacity="0.9"/>
</linearGradient>
<linearGradient id="paint26_linear" x1="273.537" y1="309.386" x2="289.154" y2="287.901" gradientUnits="userSpaceOnUse">
<stop stop-color="#FFE600" stop-opacity="0.9"/>
<stop offset="1" stop-color="#F8EDB9" stop-opacity="0.9"/>
</linearGradient>
<linearGradient id="paint27_linear" x1="275.994" y1="196.707" x2="282.023" y2="170.839" gradientUnits="userSpaceOnUse">
<stop stop-color="#FFE600" stop-opacity="0.9"/>
<stop offset="1" stop-color="#F8EDB9" stop-opacity="0.9"/>
</linearGradient>
<linearGradient id="paint28_linear" x1="334.528" y1="228.401" x2="309.262" y2="220.207" gradientUnits="userSpaceOnUse">
<stop stop-color="#FFE600" stop-opacity="0.9"/>
<stop offset="1" stop-color="#F8EDB9" stop-opacity="0.9"/>
</linearGradient>
<linearGradient id="paint29_linear" x1="326.366" y1="160.096" x2="351.515" y2="168.64" gradientUnits="userSpaceOnUse">
<stop stop-color="#FFE600" stop-opacity="0.9"/>
<stop offset="1" stop-color="#F8EDB9" stop-opacity="0.9"/>
</linearGradient>
<linearGradient id="paint30_linear" x1="402.655" y1="191.343" x2="405.697" y2="164.956" gradientUnits="userSpaceOnUse">
<stop stop-color="#FFE600" stop-opacity="0.9"/>
<stop offset="1" stop-color="#F8EDB9" stop-opacity="0.9"/>
</linearGradient>
<linearGradient id="paint31_linear" x1="390.366" y1="233.096" x2="415.515" y2="241.64" gradientUnits="userSpaceOnUse">
<stop stop-color="#FFE600" stop-opacity="0.9"/>
<stop offset="1" stop-color="#F8EDB9" stop-opacity="0.9"/>
</linearGradient>
<linearGradient id="paint32_linear" x1="382.548" y1="293.704" x2="371.014" y2="317.631" gradientUnits="userSpaceOnUse">
<stop stop-color="#FFE600" stop-opacity="0.9"/>
<stop offset="1" stop-color="#F8EDB9" stop-opacity="0.9"/>
</linearGradient>
</defs>
</svg>
