<svg width="430" height="419" viewBox="0 0 430 419" fill="none" xmlns="http://www.w3.org/2000/svg">
<rect x="69" y="53" width="56" height="90" rx="19" fill="#FF4AA1" fill-opacity="0.9"/>
<rect y="125" width="56" height="90" rx="19" fill="#FF4AA1" fill-opacity="0.9"/>
<rect x="256.119" y="144.322" width="56" height="90" rx="19" transform="rotate(114.5 256.119 144.322)" fill="#FF4AA1" fill-opacity="0.9"/>
<rect x="294" y="130" width="56" height="90" rx="19" transform="rotate(30 294 130)" fill="#FF4AA1" fill-opacity="0.9"/>
<rect x="97" y="200.422" width="56" height="90" rx="19" transform="rotate(-30.5 97 200.422)" fill="#FF4AA1" fill-opacity="0.9"/>
<rect x="156" y="28.4221" width="56" height="90" rx="19" transform="rotate(-30.5 156 28.4221)" fill="#FF4AA1" fill-opacity="0.9"/>
<rect x="268" y="51.4221" width="56" height="90" rx="19" transform="rotate(-30.5 268 51.4221)" fill="#FF4AA1" fill-opacity="0.9"/>
<rect x="209" y="252.524" width="56" height="90" rx="19" transform="rotate(-21.5 209 252.524)" fill="#FF4AA1" fill-opacity="0.9"/>
<rect x="331" y="241" width="56" height="90" rx="19" fill="#FF4AA1" fill-opacity="0.9"/>
<rect x="302.738" y="333" width="56" height="90" rx="19" transform="rotate(68.5 302.738 333)" fill="#FF4AA1" fill-opacity="0.9"/>
<rect x="94.783" y="226.694" width="56" height="90" rx="19" transform="rotate(61 94.783 226.694)" fill="#FF4AA1" fill-opacity="0.9"/>
<rect x="122" y="313" width="56" height="90" rx="19" fill="#FF4AA1" fill-opacity="0.9"/>
<rect x="375.561" y="118" width="56" height="90" rx="19" transform="rotate(16.5 375.561 118)" fill="#FF4AA1" fill-opacity="0.9"/>
<rect x="10" y="147" width="6" height="7" fill="#FF1BA5"/>
<rect x="192.988" y="130.362" width="6" height="7" transform="rotate(114.5 192.988 130.362)" fill="#FF1BA5"/>
<rect x="280.5" y="185" width="6" height="7" transform="rotate(30 280.5 185)" fill="#FF1BA5"/>
<rect x="79" y="78.0453" width="6" height="7" transform="rotate(-30.5 79 78.0453)" fill="#FF1BA5"/>
<rect x="128" y="201.045" width="6" height="7" transform="rotate(-30.5 128 201.045)" fill="#FF1BA5"/>
<path d="M190.55 31.9619L195.72 28.9167L199.272 34.9481L194.103 37.9933L190.55 31.9619Z" fill="#FF1BA5"/>
<rect x="295.604" y="54.9915" width="6" height="7" transform="rotate(-30.5 295.604 54.9915)" fill="#FF1BA5"/>
<rect x="238.47" y="261.474" width="6" height="7" transform="rotate(-21.5 238.47 261.474)" fill="#FF1BA5"/>
<rect x="341" y="263" width="6" height="7" fill="#FF1BA5"/>
<rect x="250.513" y="370" width="6" height="7" transform="rotate(68.5 250.513 370)" fill="#FF1BA5"/>
<rect x="50.1223" y="272" width="6" height="7" transform="rotate(61 50.1223 272)" fill="#FF1BA5"/>
<rect x="132" y="335" width="6" height="7" fill="#FF1BA5"/>
<rect x="372.745" y="145.391" width="6" height="7" transform="rotate(16.5 372.745 145.391)" fill="#FF1BA5"/>
<rect x="37" y="185" width="6" height="7" fill="#FF94E1"/>
<rect x="219.988" y="168.362" width="6" height="7" transform="rotate(114.5 219.988 168.362)" fill="#FF94E1"/>
<rect x="312.5" y="165" width="6" height="7" transform="rotate(30 312.5 165)" fill="#FF94E1"/>
<rect x="106" y="116.045" width="6" height="7" transform="rotate(-30.5 106 116.045)" fill="#FF94E1"/>
<rect x="155" y="239.045" width="6" height="7" transform="rotate(-30.5 155 239.045)" fill="#FF94E1"/>
<rect x="130" y="230.045" width="6" height="7" transform="rotate(-30.5 130 230.045)" fill="#FF8AC2" fill-opacity="0.9"/>
<rect x="214" y="142.045" width="6" height="7" transform="rotate(-30.5 214 142.045)" fill="#FF8AC2" fill-opacity="0.9"/>
<rect x="371" y="186.045" width="6" height="7" transform="rotate(-30.5 371 186.045)" fill="#FF8AC2" fill-opacity="0.9"/>
<rect x="344" y="302.045" width="6" height="7" transform="rotate(-30.5 344 302.045)" fill="#FF8AC2" fill-opacity="0.9"/>
<rect x="259" y="389.045" width="6" height="7" transform="rotate(-30.5 259 389.045)" fill="#FF8AC2" fill-opacity="0.9"/>
<rect x="210.604" y="69.9915" width="6" height="7" transform="rotate(-30.5 210.604 69.9915)" fill="#FF94E1"/>
<rect x="322.604" y="92.9915" width="6" height="7" transform="rotate(-30.5 322.604 92.9915)" fill="#FF94E1"/>
<rect x="265.47" y="299.474" width="6" height="7" transform="rotate(-21.5 265.47 299.474)" fill="#FF94E1"/>
<rect x="368" y="301" width="6" height="7" fill="#FF94E1"/>
<rect x="294.513" y="378" width="6" height="7" transform="rotate(68.5 294.513 378)" fill="#FF94E1"/>
<rect x="91.1223" y="267" width="6" height="7" transform="rotate(61 91.1223 267)" fill="#FF94E1"/>
<rect x="159" y="373" width="6" height="7" fill="#FF94E1"/>
<rect x="399.745" y="183.391" width="6" height="7" transform="rotate(16.5 399.745 183.391)" fill="#FF94E1"/>
</svg>
