<svg width="412" height="374" viewBox="0 0 412 374" fill="none" xmlns="http://www.w3.org/2000/svg">
<path d="M23 121.751C23 121.751 192.192 -5.49997 212.096 6.00003C232 17.5 4.49999 171.347 23 191.674C41.5 212 282.299 10.3513 302.899 24.4257C323.5 38.5 36.4644 256.32 56.2322 277.66C76 299 351.163 60.4051 369.832 79.7025C388.5 99 93.2457 308.369 109.123 328.685C125 349 391 129.247 404 145.373C417 161.5 178.875 333 192.437 349C206 365 386.831 234.015 397.915 250.258C409 266.5 285.581 349 285.581 349" stroke="url(#paint0_linear)" stroke-width="9"/>
<path d="M32 119.5C32 121.985 24.5643 127 21.5172 127C18.4702 127 16 124.485 16 122C16 118.5 24.2759 116.362 27.5862 115C32 115.862 32 117.015 32 119.5Z" fill="#D62121"/>
<path d="M292 348.5C292 350.985 285.029 356 282.172 356C279.316 356 277 354.485 277 352C277 348.5 284.397 344.362 287.5 343C291.638 343.862 292 346.015 292 348.5Z" fill="#A90606"/>
<defs>
<linearGradient id="paint0_linear" x1="205.543" y1="6" x2="214.127" y2="386.32" gradientUnits="userSpaceOnUse">
<stop stop-color="#EB1313"/>
<stop offset="1" stop-color="#A50000"/>
</linearGradient>
</defs>
</svg>
