<svg width="464" height="437" viewBox="0 0 464 437" fill="none" xmlns="http://www.w3.org/2000/svg">
<path d="M59.9895 119.917C59.9895 119.917 254.212 35.6788 270.882 51.5076C287.552 67.3364 30.4226 163.824 43.6663 187.907C56.9101 211.991 338.129 72.1272 354.875 90.6218C371.621 109.116 41.6673 253.911 55.9072 279.276C70.1471 304.641 393.407 136.874 407.054 159.996C420.702 183.119 84.7291 317.777 95.425 341.238C106.121 364.698 416.072 213.113 424.948 231.829C433.824 250.545 162.242 361.717 171.695 380.441C181.148 399.165 387.56 314.014 394.547 332.395C401.533 350.776 262.265 402.185 262.265 402.185" stroke="white" stroke-width="9"/>
</svg>
