<svg width="597" height="548" viewBox="0 0 597 548" fill="none" xmlns="http://www.w3.org/2000/svg">
<g filter="url(#filter0_d)">
<path d="M426.804 31.7835C426.804 31.7835 555.371 277.354 534.21 298.199C513.05 319.045 363.833 -5.91185 330.954 10.534C298.075 26.9799 509.214 382.726 484.336 403.64C459.457 424.555 238.687 7.35333 204.075 25.0415C169.463 42.7297 421.93 451.727 390.416 468.691C358.903 485.656 151.944 60.9716 119.791 74.2135C87.6387 87.4553 316.763 479.521 291.132 490.518C265.501 501.514 94.9657 158.199 69.3562 169.922C43.7467 181.645 174.277 442.583 149.006 451.203C123.736 459.822 44.1046 283.825 44.1046 283.825" stroke="url(#paint0_linear)" stroke-width="9"/>
</g>
<path d="M428.639 40.0387C426.154 40.0603 421.075 32.6687 421.048 29.6217C421.022 26.5748 423.515 24.0828 426 24.0611C429.5 24.0305 431.71 32.2874 433.101 35.5858C432.277 40.0069 431.124 40.017 428.639 40.0387Z" fill="#43DFA7"/>
<defs>
<filter id="filter0_d" x="0.633301" y="-44.3649" width="595.506" height="591.456" filterUnits="userSpaceOnUse" color-interpolation-filters="sRGB">
<feFlood flood-opacity="0" result="BackgroundImageFix"/>
<feColorMatrix in="SourceAlpha" type="matrix" values="0 0 0 0 0 0 0 0 0 0 0 0 0 0 0 0 0 0 127 0"/>
<feOffset dy="4"/>
<feGaussianBlur stdDeviation="2"/>
<feColorMatrix type="matrix" values="0 0 0 0 0 0 0 0 0 0 0 0 0 0 0 0 0 0 0.25 0"/>
<feBlend mode="normal" in2="BackgroundImageFix" result="effect1_dropShadow"/>
<feBlend mode="normal" in="SourceGraphic" in2="effect1_dropShadow" result="shape"/>
</filter>
<linearGradient id="paint0_linear" x1="535.987" y1="290.186" x2="11.7893" y2="187.811" gradientUnits="userSpaceOnUse">
<stop stop-color="#3CDCFF"/>
<stop offset="1" stop-color="#10E926"/>
</linearGradient>
</defs>
</svg>
