<svg width="445" height="424" viewBox="0 0 445 424" fill="none" xmlns="http://www.w3.org/2000/svg">
<path d="M381.928 169.068C380.04 170.569 377.373 170.624 375.435 169.189C337.751 141.29 321.427 120.663 304.335 79.8771C303.408 77.6641 304.076 75.1044 305.954 73.6107C308.712 71.4167 312.803 72.4245 314.292 75.6189C332.243 114.132 348.288 134.427 381.839 160.544C384.604 162.696 384.67 166.886 381.928 169.068Z" fill="url(#paint0_linear)" fill-opacity="0.9"/>
<path d="M150.29 63.1847C151.841 61.337 154.443 60.7519 156.629 61.7719C199.118 81.5978 219.226 98.5563 244.107 135.115C245.457 137.099 245.312 139.741 243.769 141.579C241.504 144.279 237.294 144.107 235.199 141.273C209.93 107.112 190.161 90.4231 152.076 71.5202C148.938 69.9622 148.038 65.8692 150.29 63.1847Z" fill="url(#paint1_linear)" fill-opacity="0.9"/>
<path d="M96.1392 95.8228C98.7105 96.0704 100.823 97.9749 101.311 100.512C110.187 146.654 107.598 172.802 90.4618 213.711C89.4698 216.079 87.0418 217.511 84.486 217.265C80.5875 216.89 78.132 212.885 79.4846 209.209C93.9837 169.81 96.5318 144.199 89.7408 102.738C89.1116 98.8964 92.2642 95.4497 96.1392 95.8228Z" fill="url(#paint2_linear)" fill-opacity="0.9"/>
<path d="M57.2614 95.0271C59.8327 95.2747 61.945 97.1793 62.4329 99.716C71.3091 145.858 68.7198 172.006 51.584 212.915C50.592 215.283 48.1641 216.715 45.6083 216.469C41.7097 216.094 39.2542 212.089 40.6069 208.414C55.1059 169.015 57.6541 143.403 50.8631 101.942C50.2338 98.1007 53.3865 94.654 57.2614 95.0271Z" fill="url(#paint3_linear)" fill-opacity="0.9"/>
<path d="M155.261 109.027C157.833 109.275 159.945 111.179 160.433 113.716C169.309 159.858 166.72 186.006 149.584 226.915C148.592 229.283 146.164 230.715 143.608 230.469C139.71 230.094 137.254 226.089 138.607 222.414C153.106 183.015 155.654 157.403 148.863 115.942C148.234 112.101 151.386 108.654 155.261 109.027Z" fill="url(#paint4_linear)" fill-opacity="0.9"/>
<path d="M192.721 60.3424C193.346 57.836 195.542 56.0284 198.123 55.9208C245.071 53.9624 270.548 60.3881 308.475 83.3824C310.671 84.7136 311.728 87.3265 311.107 89.8179C310.159 93.6181 305.836 95.4547 302.401 93.5737C265.577 73.4103 240.624 67.1045 198.615 67.6926C194.722 67.7471 191.779 64.1196 192.721 60.3424Z" fill="url(#paint5_linear)" fill-opacity="0.9"/>
<path d="M279.506 96.4358C282.077 96.6834 284.189 98.588 284.677 101.125C293.554 147.267 290.964 173.415 273.829 214.324C272.837 216.692 270.409 218.124 267.853 217.878C263.954 217.503 261.499 213.498 262.851 209.822C277.35 170.423 279.899 144.812 273.108 103.351C272.478 99.5094 275.631 96.0627 279.506 96.4358Z" fill="url(#paint6_linear)" fill-opacity="0.9"/>
<path d="M340.628 96.6401C343.199 96.8877 345.312 98.7923 345.8 101.329C354.676 147.471 352.086 173.619 334.951 214.528C333.959 216.896 331.531 218.328 328.975 218.082C325.076 217.707 322.621 213.702 323.973 210.027C338.472 170.628 341.021 145.016 334.23 103.555C333.6 99.7137 336.753 96.267 340.628 96.6401Z" fill="url(#paint7_linear)" fill-opacity="0.9"/>
<path d="M401.75 96.8445C404.322 97.0921 406.434 98.9967 406.922 101.533C415.798 147.676 413.209 173.823 396.073 214.732C395.081 217.101 392.653 218.533 390.097 218.287C386.199 217.911 383.743 213.907 385.096 210.231C399.595 170.832 402.143 145.22 395.352 103.76C394.723 99.9181 397.875 96.4714 401.75 96.8445Z" fill="url(#paint8_linear)" fill-opacity="0.9"/>
<path d="M73.2614 209.027C75.8327 209.275 77.945 211.179 78.4329 213.716C87.3091 259.858 84.7198 286.006 67.584 326.915C66.592 329.283 64.1641 330.715 61.6083 330.469C57.7097 330.094 55.2542 326.089 56.6069 322.414C71.1059 283.015 73.6541 257.403 66.8631 215.942C66.2338 212.101 69.3865 208.654 73.2614 209.027Z" fill="url(#paint9_linear)" fill-opacity="0.9"/>
<path d="M143.261 266.027C145.833 266.275 147.945 268.179 148.433 270.716C157.309 316.858 154.72 343.006 137.584 383.915C136.592 386.283 134.164 387.715 131.608 387.469C127.71 387.094 125.254 383.089 126.607 379.414C141.106 340.015 143.654 314.403 136.863 272.942C136.234 269.101 139.386 265.654 143.261 266.027Z" fill="url(#paint10_linear)" fill-opacity="0.9"/>
<path d="M222.261 301.027C224.833 301.275 226.945 303.179 227.433 305.716C236.309 351.858 233.72 378.006 216.584 418.915C215.592 421.283 213.164 422.715 210.608 422.469C206.71 422.094 204.254 418.089 205.607 414.414C220.106 375.015 222.654 349.403 215.863 307.942C215.234 304.101 218.386 300.654 222.261 301.027Z" fill="url(#paint11_linear)" fill-opacity="0.9"/>
<path d="M285.261 281.027C287.833 281.275 289.945 283.179 290.433 285.716C299.309 331.858 296.72 358.006 279.584 398.915C278.592 401.283 276.164 402.715 273.608 402.469C269.71 402.094 267.254 398.089 268.607 394.414C283.106 355.015 285.654 329.403 278.863 287.942C278.234 284.101 281.386 280.654 285.261 281.027Z" fill="url(#paint12_linear)" fill-opacity="0.9"/>
<path d="M357.261 239.027C359.833 239.275 361.945 241.179 362.433 243.716C371.309 289.858 368.72 316.006 351.584 356.915C350.592 359.283 348.164 360.715 345.608 360.469C341.71 360.094 339.254 356.089 340.607 352.414C355.106 313.015 357.654 287.403 350.863 245.942C350.234 242.101 353.386 238.654 357.261 239.027Z" fill="url(#paint13_linear)" fill-opacity="0.9"/>
<path d="M429.261 197.027C431.833 197.275 433.945 199.179 434.433 201.716C443.309 247.858 440.72 274.006 423.584 314.915C422.592 317.283 420.164 318.715 417.608 318.469C413.71 318.094 411.254 314.089 412.607 310.414C427.106 271.015 429.654 245.403 422.863 203.942C422.234 200.101 425.386 196.654 429.261 197.027Z" fill="url(#paint14_linear)" fill-opacity="0.9"/>
<path d="M242.261 160.027C244.833 160.275 246.945 162.179 247.433 164.716C256.309 210.858 253.72 237.006 236.584 277.915C235.592 280.283 233.164 281.715 230.608 281.469C226.71 281.094 224.254 277.089 225.607 273.414C240.106 234.015 242.654 208.403 235.863 166.942C235.234 163.101 238.386 159.654 242.261 160.027Z" fill="url(#paint15_linear)" fill-opacity="0.9"/>
<path d="M26.6344 181.175C24.4664 180.117 23.2692 177.734 23.7301 175.366C32.6879 129.343 44.2781 105.729 73.7321 72.743C75.3302 70.9532 77.9285 70.4549 80.0851 71.5068C83.2528 73.0517 84.1044 77.1779 81.8621 79.897C54.8289 112.679 43.4181 135.899 34.2901 177.425C33.5378 180.847 29.784 182.711 26.6344 181.175Z" fill="url(#paint16_linear)" fill-opacity="0.9"/>
<path d="M13.3509 197.117C11.0886 197.963 9.66629 200.223 9.89733 202.627C14.3828 249.301 23.6562 273.916 49.8302 309.563C51.2521 311.499 53.7939 312.245 56.0443 311.403C59.3518 310.166 60.5966 306.133 58.6204 303.206C34.8457 268 25.7136 243.796 20.6244 201.593C20.2041 198.107 16.6396 195.888 13.3509 197.117Z" fill="url(#paint17_linear)" fill-opacity="0.9"/>
<path d="M90.2902 269.185C91.8407 267.337 94.4428 266.752 96.6287 267.772C139.118 287.598 159.226 304.556 184.107 341.115C185.457 343.099 185.312 345.741 183.769 347.579C181.504 350.279 177.294 350.107 175.199 347.273C149.93 313.112 130.161 296.423 92.0764 277.52C88.9375 275.962 88.0377 271.869 90.2902 269.185Z" fill="url(#paint18_linear)" fill-opacity="0.9"/>
<path d="M175.866 365.269C175.655 362.866 177.082 360.613 179.348 359.788C223.412 343.763 249.622 341.536 293.067 349.794C295.424 350.242 297.189 352.212 297.398 354.603C297.705 358.114 294.607 360.969 291.122 360.447C249.099 354.159 223.319 356.337 183.023 369.9C179.701 371.018 176.171 368.76 175.866 365.269Z" fill="url(#paint19_linear)" fill-opacity="0.9"/>
<path d="M67.2902 312.185C68.8407 310.337 71.4428 309.752 73.6287 310.772C116.118 330.598 136.226 347.556 161.107 384.115C162.457 386.099 162.312 388.741 160.769 390.579C158.504 393.279 154.294 393.107 152.199 390.273C126.93 356.112 107.161 339.423 69.0764 320.52C65.9375 318.962 65.0377 314.869 67.2902 312.185Z" fill="url(#paint20_linear)" fill-opacity="0.9"/>
<path d="M328.007 58.6485C329.458 56.7221 332.026 56.0017 334.263 56.9059C377.731 74.4809 398.7 90.3638 425.459 125.571C426.911 127.481 426.905 130.127 425.461 132.043C423.34 134.858 419.127 134.906 416.886 132.186C389.864 99.3947 369.248 83.7629 330.227 66.8791C327.011 65.4875 325.898 61.4472 328.007 58.6485Z" fill="url(#paint21_linear)" fill-opacity="0.9"/>
<path d="M143.866 159.358C144.223 156.972 146.136 155.114 148.532 154.841C195.12 149.545 221.126 153.498 261.442 171.67C263.629 172.656 264.886 174.984 264.531 177.357C264.01 180.843 260.331 182.896 257.064 181.575C217.67 165.65 192.093 161.75 149.745 165.532C146.254 165.843 143.348 162.824 143.866 159.358Z" fill="url(#paint22_linear)" fill-opacity="0.9"/>
<path d="M248.507 350.842C247.039 348.929 247.031 346.262 248.499 344.348C277.052 307.157 297.961 291.196 339.038 274.818C341.267 273.929 343.815 274.643 345.275 276.546C347.421 279.343 346.342 283.415 343.122 284.848C304.302 302.124 283.729 317.812 257.031 350.903C254.831 353.63 250.64 353.622 248.507 350.842Z" fill="url(#paint23_linear)" fill-opacity="0.9"/>
<path d="M340.313 62.4774C342.452 63.5912 343.587 66.005 343.064 68.3598C332.905 114.133 320.7 137.435 290.393 169.639C288.748 171.386 286.138 171.816 284.01 170.708C280.884 169.081 280.14 164.934 282.453 162.275C310.335 130.212 322.35 107.298 332.562 66.0254C333.403 62.6236 337.205 60.8593 340.313 62.4774Z" fill="url(#paint24_linear)" fill-opacity="0.9"/>
<path d="M194.977 13.4555C195.762 11.1748 197.982 9.69611 200.388 9.86496C247.16 13.1472 272.01 21.7732 308.34 46.9876C310.311 48.3558 311.122 50.874 310.341 53.1427C309.194 56.475 305.202 57.8231 302.23 55.9289C266.398 33.0924 241.96 24.5964 199.631 20.5972C196.143 20.2676 193.836 16.7689 194.977 13.4555Z" fill="url(#paint25_linear)" fill-opacity="0.9"/>
<path d="M337.283 321.819C335.344 320.384 334.601 317.822 335.486 315.578C352.681 271.958 368.38 250.852 403.352 223.786C405.25 222.317 407.896 222.301 409.824 223.728C412.657 225.824 412.743 230.037 410.043 232.302C377.488 259.608 362.037 280.36 345.494 319.527C344.131 322.755 340.1 323.903 337.283 321.819Z" fill="url(#paint26_linear)" fill-opacity="0.9"/>
<path d="M278.489 386.895C279.388 389.237 281.732 390.708 284.23 390.479C330.97 386.196 355.488 376.711 390.588 349.703C392.565 348.182 393.293 345.537 392.399 343.209C391.059 339.716 386.758 338.459 383.7 340.614C349.199 364.93 325.142 374.25 283.195 379.199C279.502 379.634 277.156 383.423 278.489 386.895Z" fill="url(#paint27_linear)" fill-opacity="0.9"/>
<path d="M437.092 277.362C434.724 277.822 432.334 276.639 431.277 274.471C410.733 232.324 405.778 206.49 409.45 162.42C409.649 160.029 411.424 158.068 413.78 157.61C417.239 156.937 420.403 159.72 420.248 163.241C418.387 205.691 423.248 231.102 440.949 269.76C442.408 272.946 440.532 276.693 437.092 277.362Z" fill="url(#paint28_linear)" fill-opacity="0.9"/>
<path d="M104.082 77.5552C103.025 75.3872 103.549 72.7721 105.37 71.1901C140.763 40.438 164.435 28.9658 207.953 21.1062C210.314 20.6798 212.668 21.8868 213.72 24.0434C215.265 27.2111 213.396 30.9868 209.955 31.749C168.47 40.9382 145.182 52.2106 112.423 79.3138C109.723 81.5476 105.618 80.7049 104.082 77.5552Z" fill="url(#paint29_linear)" fill-opacity="0.9"/>
<path d="M263.658 287.066C263.343 289.457 261.462 291.349 259.071 291.663C212.583 297.772 186.512 294.273 145.885 276.808C143.681 275.86 142.384 273.554 142.697 271.175C143.157 267.681 146.8 265.564 150.09 266.828C189.755 282.062 215.396 285.516 257.672 280.995C261.157 280.623 264.115 283.591 263.658 287.066Z" fill="url(#paint30_linear)" fill-opacity="0.9"/>
<path d="M272.63 256.753C271.516 258.892 269.103 260.026 266.748 259.504C220.974 249.344 197.672 237.14 165.469 206.833C163.721 205.188 163.291 202.578 164.399 200.449C166.026 197.323 170.174 196.58 172.833 198.893C204.896 226.775 227.809 238.789 269.082 249.001C272.484 249.843 274.248 253.644 272.63 256.753Z" fill="url(#paint31_linear)" fill-opacity="0.9"/>
<path d="M341.396 261.894C339.362 263.19 336.704 262.965 334.926 261.335C300.365 229.65 286.287 207.43 273.552 165.081C272.861 162.783 273.794 160.308 275.817 159.018C278.79 157.125 282.753 158.555 283.9 161.887C297.726 202.065 311.562 223.927 342.199 253.407C344.725 255.837 344.352 260.011 341.396 261.894Z" fill="url(#paint32_linear)" fill-opacity="0.9"/>
<path d="M126.087 153.015C128.423 153.619 130.071 155.716 130.091 158.128C130.489 205.014 123.839 230.464 101.553 268.66C100.344 270.732 97.8968 271.739 95.5737 271.138C92.1617 270.255 90.5046 266.382 92.1597 263.27C112.115 225.757 118.667 200.728 119.333 158.216C119.388 154.712 122.695 152.138 126.087 153.015Z" fill="url(#paint33_linear)" fill-opacity="0.9"/>
<defs>
<linearGradient id="paint0_linear" x1="332.817" y1="130.188" x2="349.368" y2="117.022" gradientUnits="userSpaceOnUse">
<stop stop-color="#FFD600"/>
<stop offset="1" stop-color="#FAFF00"/>
</linearGradient>
<linearGradient id="paint1_linear" x1="206.166" y1="91.4934" x2="192.573" y2="107.694" gradientUnits="userSpaceOnUse">
<stop stop-color="#FFD600"/>
<stop offset="1" stop-color="#FAFF00"/>
</linearGradient>
<linearGradient id="paint2_linear" x1="105.741" y1="158.029" x2="82.5682" y2="155.798" gradientUnits="userSpaceOnUse">
<stop stop-color="#FFD600"/>
<stop offset="1" stop-color="#FAFF00"/>
</linearGradient>
<linearGradient id="paint3_linear" x1="66.8635" y1="157.234" x2="43.6904" y2="155.003" gradientUnits="userSpaceOnUse">
<stop stop-color="#FFD600"/>
<stop offset="1" stop-color="#FAFF00"/>
</linearGradient>
<linearGradient id="paint4_linear" x1="164.863" y1="171.234" x2="141.69" y2="169.003" gradientUnits="userSpaceOnUse">
<stop stop-color="#FFD600"/>
<stop offset="1" stop-color="#FAFF00"/>
</linearGradient>
<linearGradient id="paint5_linear" x1="255.664" y1="60.0406" x2="250.032" y2="82.6293" gradientUnits="userSpaceOnUse">
<stop stop-color="#FFD600"/>
<stop offset="1" stop-color="#FAFF00"/>
</linearGradient>
<linearGradient id="paint6_linear" x1="289.108" y1="158.643" x2="265.935" y2="156.411" gradientUnits="userSpaceOnUse">
<stop stop-color="#FFD600"/>
<stop offset="1" stop-color="#FAFF00"/>
</linearGradient>
<linearGradient id="paint7_linear" x1="350.23" y1="158.847" x2="327.057" y2="156.616" gradientUnits="userSpaceOnUse">
<stop stop-color="#FFD600"/>
<stop offset="1" stop-color="#FAFF00"/>
</linearGradient>
<linearGradient id="paint8_linear" x1="411.352" y1="159.051" x2="388.179" y2="156.82" gradientUnits="userSpaceOnUse">
<stop stop-color="#FFD600"/>
<stop offset="1" stop-color="#FAFF00"/>
</linearGradient>
<linearGradient id="paint9_linear" x1="82.8635" y1="271.234" x2="59.6904" y2="269.003" gradientUnits="userSpaceOnUse">
<stop stop-color="#FFD600"/>
<stop offset="1" stop-color="#FAFF00"/>
</linearGradient>
<linearGradient id="paint10_linear" x1="152.863" y1="328.234" x2="129.69" y2="326.003" gradientUnits="userSpaceOnUse">
<stop stop-color="#FFD600"/>
<stop offset="1" stop-color="#FAFF00"/>
</linearGradient>
<linearGradient id="paint11_linear" x1="231.863" y1="363.234" x2="208.69" y2="361.003" gradientUnits="userSpaceOnUse">
<stop stop-color="#FFD600"/>
<stop offset="1" stop-color="#FAFF00"/>
</linearGradient>
<linearGradient id="paint12_linear" x1="294.863" y1="343.234" x2="271.69" y2="341.003" gradientUnits="userSpaceOnUse">
<stop stop-color="#FFD600"/>
<stop offset="1" stop-color="#FAFF00"/>
</linearGradient>
<linearGradient id="paint13_linear" x1="366.863" y1="301.234" x2="343.69" y2="299.003" gradientUnits="userSpaceOnUse">
<stop stop-color="#FFD600"/>
<stop offset="1" stop-color="#FAFF00"/>
</linearGradient>
<linearGradient id="paint14_linear" x1="438.863" y1="259.234" x2="415.69" y2="257.003" gradientUnits="userSpaceOnUse">
<stop stop-color="#FFD600"/>
<stop offset="1" stop-color="#FAFF00"/>
</linearGradient>
<linearGradient id="paint15_linear" x1="251.863" y1="222.234" x2="228.69" y2="220.003" gradientUnits="userSpaceOnUse">
<stop stop-color="#FFD600"/>
<stop offset="1" stop-color="#FAFF00"/>
</linearGradient>
<linearGradient id="paint16_linear" x1="40.5844" y1="120.11" x2="59.5923" y2="129.38" gradientUnits="userSpaceOnUse">
<stop stop-color="#FFD600"/>
<stop offset="1" stop-color="#FAFF00"/>
</linearGradient>
<linearGradient id="paint17_linear" x1="21.3627" y1="259.246" x2="41.2065" y2="251.827" gradientUnits="userSpaceOnUse">
<stop stop-color="#FFD600"/>
<stop offset="1" stop-color="#FAFF00"/>
</linearGradient>
<linearGradient id="paint18_linear" x1="146.166" y1="297.493" x2="132.573" y2="313.694" gradientUnits="userSpaceOnUse">
<stop stop-color="#FFD600"/>
<stop offset="1" stop-color="#FAFF00"/>
</linearGradient>
<linearGradient id="paint19_linear" x1="235.393" y1="345.776" x2="237.236" y2="366.844" gradientUnits="userSpaceOnUse">
<stop stop-color="#FFD600"/>
<stop offset="1" stop-color="#FAFF00"/>
</linearGradient>
<linearGradient id="paint20_linear" x1="123.166" y1="340.493" x2="109.573" y2="356.694" gradientUnits="userSpaceOnUse">
<stop stop-color="#FFD600"/>
<stop offset="1" stop-color="#FAFF00"/>
</linearGradient>
<linearGradient id="paint21_linear" x1="385.288" y1="83.994" x2="372.561" y2="100.884" gradientUnits="userSpaceOnUse">
<stop stop-color="#FFD600"/>
<stop offset="1" stop-color="#FAFF00"/>
</linearGradient>
<linearGradient id="paint22_linear" x1="206.3" y1="154.3" x2="203.174" y2="175.216" gradientUnits="userSpaceOnUse">
<stop stop-color="#FFD600"/>
<stop offset="1" stop-color="#FAFF00"/>
</linearGradient>
<linearGradient id="paint23_linear" x1="288.238" y1="302.418" x2="301.113" y2="319.196" gradientUnits="userSpaceOnUse">
<stop stop-color="#FFD600"/>
<stop offset="1" stop-color="#FAFF00"/>
</linearGradient>
<linearGradient id="paint24_linear" x1="324.769" y1="123.156" x2="306.01" y2="113.391" gradientUnits="userSpaceOnUse">
<stop stop-color="#FFD600"/>
<stop offset="1" stop-color="#FAFF00"/>
</linearGradient>
<linearGradient id="paint25_linear" x1="257.286" y1="19.8597" x2="250.401" y2="39.8557" gradientUnits="userSpaceOnUse">
<stop stop-color="#FFD600"/>
<stop offset="1" stop-color="#FAFF00"/>
</linearGradient>
<linearGradient id="paint26_linear" x1="362.128" y1="264.319" x2="379.128" y2="276.898" gradientUnits="userSpaceOnUse">
<stop stop-color="#FFD600"/>
<stop offset="1" stop-color="#FAFF00"/>
</linearGradient>
<linearGradient id="paint27_linear" x1="340.794" y1="378.989" x2="332.792" y2="358.144" gradientUnits="userSpaceOnUse">
<stop stop-color="#FFD600"/>
<stop offset="1" stop-color="#FAFF00"/>
</linearGradient>
<linearGradient id="paint28_linear" x1="411.483" y1="220.198" x2="432.243" y2="216.163" gradientUnits="userSpaceOnUse">
<stop stop-color="#FFD600"/>
<stop offset="1" stop-color="#FAFF00"/>
</linearGradient>
<linearGradient id="paint29_linear" x1="152.67" y1="38.024" x2="161.941" y2="57.0319" gradientUnits="userSpaceOnUse">
<stop stop-color="#FFD600"/>
<stop offset="1" stop-color="#FAFF00"/>
</linearGradient>
<linearGradient id="paint30_linear" x1="201.322" y1="293.213" x2="204.082" y2="272.245" gradientUnits="userSpaceOnUse">
<stop stop-color="#FFD600"/>
<stop offset="1" stop-color="#FAFF00"/>
</linearGradient>
<linearGradient id="paint31_linear" x1="211.951" y1="241.209" x2="221.717" y2="222.45" gradientUnits="userSpaceOnUse">
<stop stop-color="#FFD600"/>
<stop offset="1" stop-color="#FAFF00"/>
</linearGradient>
<linearGradient id="paint32_linear" x1="296.619" y1="218.093" x2="314.455" y2="206.73" gradientUnits="userSpaceOnUse">
<stop stop-color="#FFD600"/>
<stop offset="1" stop-color="#FAFF00"/>
</linearGradient>
<linearGradient id="paint33_linear" x1="124.592" y1="215.635" x2="104.117" y2="210.34" gradientUnits="userSpaceOnUse">
<stop stop-color="#FFD600"/>
<stop offset="1" stop-color="#FAFF00"/>
</linearGradient>
</defs>
</svg>
