<svg width="456" height="424" viewBox="0 0 456 424" fill="none" xmlns="http://www.w3.org/2000/svg">
<path d="M392.928 169.068C391.04 170.569 388.373 170.624 386.435 169.189C348.751 141.29 332.427 120.663 315.335 79.8771C314.408 77.6641 315.076 75.1044 316.954 73.6107C319.712 71.4167 323.803 72.4245 325.292 75.6189C343.243 114.132 359.288 134.427 392.839 160.544C395.604 162.696 395.67 166.886 392.928 169.068Z" fill="url(#paint0_linear)" fill-opacity="0.9"/>
<path d="M161.29 63.1847C162.841 61.337 165.443 60.7519 167.629 61.7719C210.118 81.5978 230.226 98.5563 255.107 135.115C256.457 137.099 256.312 139.741 254.769 141.579C252.504 144.279 248.294 144.107 246.199 141.273C220.93 107.112 201.161 90.4231 163.076 71.5202C159.938 69.9622 159.038 65.8692 161.29 63.1847Z" fill="url(#paint1_linear)" fill-opacity="0.9"/>
<path d="M107.139 95.8228C109.71 96.0704 111.823 97.9749 112.311 100.512C121.187 146.654 118.598 172.802 101.462 213.711C100.47 216.079 98.0418 217.511 95.486 217.265C91.5875 216.89 89.132 212.885 90.4846 209.209C104.984 169.81 107.532 144.199 100.741 102.738C100.112 98.8964 103.264 95.4497 107.139 95.8228Z" fill="url(#paint2_linear)" fill-opacity="0.9"/>
<path d="M68.2614 95.0271C70.8327 95.2747 72.945 97.1793 73.4329 99.716C82.3091 145.858 79.7198 172.006 62.584 212.915C61.592 215.283 59.1641 216.715 56.6083 216.469C52.7097 216.094 50.2542 212.089 51.6069 208.414C66.1059 169.015 68.6541 143.403 61.8631 101.942C61.2338 98.1007 64.3865 94.654 68.2614 95.0271Z" fill="url(#paint3_linear)" fill-opacity="0.9"/>
<path d="M166.261 109.027C168.833 109.275 170.945 111.179 171.433 113.716C180.309 159.858 177.72 186.006 160.584 226.915C159.592 229.283 157.164 230.715 154.608 230.469C150.71 230.094 148.254 226.089 149.607 222.414C164.106 183.015 166.654 157.403 159.863 115.942C159.234 112.101 162.386 108.654 166.261 109.027Z" fill="url(#paint4_linear)" fill-opacity="0.9"/>
<path d="M203.721 60.3424C204.346 57.836 206.542 56.0284 209.123 55.9208C256.071 53.9624 281.548 60.3881 319.475 83.3824C321.671 84.7136 322.728 87.3265 322.107 89.8179C321.159 93.6181 316.836 95.4547 313.401 93.5737C276.577 73.4103 251.624 67.1045 209.615 67.6926C205.722 67.7471 202.779 64.1196 203.721 60.3424Z" fill="url(#paint5_linear)" fill-opacity="0.9"/>
<path d="M290.506 96.4358C293.077 96.6834 295.189 98.588 295.677 101.125C304.554 147.267 301.964 173.415 284.829 214.324C283.837 216.692 281.409 218.124 278.853 217.878C274.954 217.503 272.499 213.498 273.851 209.822C288.35 170.423 290.899 144.812 284.108 103.351C283.478 99.5094 286.631 96.0627 290.506 96.4358Z" fill="url(#paint6_linear)" fill-opacity="0.9"/>
<path d="M351.628 96.6401C354.199 96.8877 356.312 98.7923 356.8 101.329C365.676 147.471 363.086 173.619 345.951 214.528C344.959 216.896 342.531 218.328 339.975 218.082C336.076 217.707 333.621 213.702 334.973 210.027C349.472 170.628 352.021 145.016 345.23 103.555C344.6 99.7137 347.753 96.267 351.628 96.6401Z" fill="url(#paint7_linear)" fill-opacity="0.9"/>
<path d="M412.75 96.8445C415.322 97.0921 417.434 98.9967 417.922 101.533C426.798 147.676 424.209 173.823 407.073 214.732C406.081 217.101 403.653 218.533 401.097 218.287C397.199 217.911 394.743 213.907 396.096 210.231C410.595 170.832 413.143 145.22 406.352 103.76C405.723 99.9181 408.875 96.4714 412.75 96.8445Z" fill="url(#paint8_linear)" fill-opacity="0.9"/>
<path d="M84.2614 209.027C86.8327 209.275 88.945 211.179 89.4329 213.716C98.3091 259.858 95.7198 286.006 78.584 326.915C77.592 329.283 75.1641 330.715 72.6083 330.469C68.7097 330.094 66.2542 326.089 67.6069 322.414C82.1059 283.015 84.6541 257.403 77.8631 215.942C77.2338 212.101 80.3865 208.654 84.2614 209.027Z" fill="url(#paint9_linear)" fill-opacity="0.9"/>
<path d="M34.4135 314.978C31.848 314.676 29.7768 312.727 29.343 310.18C21.452 263.859 24.5977 237.772 42.6012 197.238C43.6434 194.891 46.1013 193.511 48.6513 193.812V193.812C52.5409 194.27 54.9106 198.326 53.4799 201.972C38.1448 241.053 35.0516 266.605 40.9577 308.201C41.5049 312.055 38.2796 315.434 34.4135 314.978V314.978Z" fill="url(#paint10_linear)" fill-opacity="0.9"/>
<path d="M154.261 266.027C156.833 266.275 158.945 268.179 159.433 270.716C168.309 316.858 165.72 343.006 148.584 383.915C147.592 386.283 145.164 387.715 142.608 387.469C138.71 387.094 136.254 383.089 137.607 379.414C152.106 340.015 154.654 314.403 147.863 272.942C147.234 269.101 150.386 265.654 154.261 266.027Z" fill="url(#paint11_linear)" fill-opacity="0.9"/>
<path d="M233.261 301.027C235.833 301.275 237.945 303.179 238.433 305.716C247.309 351.858 244.72 378.006 227.584 418.915C226.592 421.283 224.164 422.715 221.608 422.469C217.71 422.094 215.254 418.089 216.607 414.414C231.106 375.015 233.654 349.403 226.863 307.942C226.234 304.101 229.386 300.654 233.261 301.027Z" fill="url(#paint12_linear)" fill-opacity="0.9"/>
<path d="M296.261 281.027C298.833 281.275 300.945 283.179 301.433 285.716C310.309 331.858 307.72 358.006 290.584 398.915C289.592 401.283 287.164 402.715 284.608 402.469C280.71 402.094 278.254 398.089 279.607 394.414C294.106 355.015 296.654 329.403 289.863 287.942C289.234 284.101 292.386 280.654 296.261 281.027Z" fill="url(#paint13_linear)" fill-opacity="0.9"/>
<path d="M368.261 239.027C370.833 239.275 372.945 241.179 373.433 243.716C382.309 289.858 379.72 316.006 362.584 356.915C361.592 359.283 359.164 360.715 356.608 360.469C352.71 360.094 350.254 356.089 351.607 352.414C366.106 313.015 368.654 287.403 361.863 245.942C361.234 242.101 364.386 238.654 368.261 239.027Z" fill="url(#paint14_linear)" fill-opacity="0.9"/>
<path d="M440.261 197.027C442.833 197.275 444.945 199.179 445.433 201.716C454.309 247.858 451.72 274.006 434.584 314.915C433.592 317.283 431.164 318.715 428.608 318.469C424.71 318.094 422.254 314.089 423.607 310.414C438.106 271.015 440.654 245.403 433.863 203.942C433.234 200.101 436.386 196.654 440.261 197.027Z" fill="url(#paint15_linear)" fill-opacity="0.9"/>
<path d="M253.261 160.027C255.833 160.275 257.945 162.179 258.433 164.716C267.309 210.858 264.72 237.006 247.584 277.915C246.592 280.283 244.164 281.715 241.608 281.469C237.71 281.094 235.254 277.089 236.607 273.414C251.106 234.015 253.654 208.403 246.863 166.942C246.234 163.101 249.386 159.654 253.261 160.027Z" fill="url(#paint16_linear)" fill-opacity="0.9"/>
<path d="M37.6344 181.175C35.4664 180.117 34.2692 177.734 34.7301 175.366C43.6879 129.343 55.2781 105.729 84.7321 72.743C86.3302 70.9532 88.9285 70.4549 91.0851 71.5068C94.2528 73.0517 95.1044 77.1779 92.8621 79.897C65.8289 112.679 54.4181 135.899 45.2901 177.425C44.5378 180.847 40.784 182.711 37.6344 181.175Z" fill="url(#paint17_linear)" fill-opacity="0.9"/>
<path d="M12.7905 171.891C10.6226 170.834 9.42541 168.451 9.88624 166.083C18.8441 120.059 30.4343 96.4457 59.8883 63.4597C61.4864 61.6699 64.0847 61.1717 66.2413 62.2235V62.2235C69.409 63.7685 70.2606 67.8947 68.0183 70.6137C40.9851 103.396 29.5743 126.616 20.4463 168.142C19.6939 171.564 15.9402 173.427 12.7905 171.891V171.891Z" fill="url(#paint18_linear)" fill-opacity="0.9"/>
<path d="M24.3509 197.117C22.0886 197.963 20.6663 200.223 20.8973 202.627C25.3828 249.301 34.6562 273.916 60.8302 309.563C62.2521 311.499 64.7939 312.245 67.0443 311.403C70.3518 310.166 71.5966 306.133 69.6204 303.206C45.8457 268 36.7136 243.796 31.6244 201.593C31.2041 198.107 27.6396 195.888 24.3509 197.117Z" fill="url(#paint19_linear)" fill-opacity="0.9"/>
<path d="M101.29 269.185C102.841 267.337 105.443 266.752 107.629 267.772C150.118 287.598 170.226 304.556 195.107 341.115C196.457 343.099 196.312 345.741 194.769 347.579C192.504 350.279 188.294 350.107 186.199 347.273C160.93 313.112 141.161 296.423 103.076 277.52C99.9375 275.962 99.0377 271.869 101.29 269.185Z" fill="url(#paint20_linear)" fill-opacity="0.9"/>
<path d="M186.866 365.269C186.655 362.866 188.082 360.613 190.348 359.788C234.412 343.763 260.622 341.536 304.067 349.794C306.424 350.242 308.189 352.212 308.398 354.603C308.705 358.114 305.607 360.969 302.122 360.447C260.099 354.159 234.319 356.337 194.023 369.9C190.701 371.018 187.171 368.76 186.866 365.269Z" fill="url(#paint21_linear)" fill-opacity="0.9"/>
<path d="M78.2902 312.185C79.8407 310.337 82.4428 309.752 84.6287 310.772C127.118 330.598 147.226 347.556 172.107 384.115C173.457 386.099 173.312 388.741 171.769 390.579C169.504 393.279 165.294 393.107 163.199 390.273C137.93 356.112 118.161 339.423 80.0764 320.52C76.9375 318.962 76.0377 314.869 78.2902 312.185Z" fill="url(#paint22_linear)" fill-opacity="0.9"/>
<path d="M150.996 400.252C149.577 402.202 147.021 402.965 144.77 402.098C101.016 385.246 79.7872 369.713 52.4475 334.954C50.9641 333.068 50.9269 330.423 52.339 328.483V328.483C54.413 325.634 58.6245 325.515 60.9105 328.198C88.4718 360.537 109.344 375.825 148.64 392.059C151.879 393.397 153.058 397.419 150.996 400.252V400.252Z" fill="url(#paint23_linear)" fill-opacity="0.9"/>
<path d="M339.007 58.6485C340.458 56.7221 343.026 56.0017 345.263 56.9059C388.731 74.4809 409.7 90.3638 436.459 125.571C437.911 127.481 437.905 130.127 436.461 132.043C434.34 134.858 430.127 134.906 427.886 132.186C400.864 99.3947 380.248 83.7629 341.227 66.8791C338.011 65.4875 336.898 61.4472 339.007 58.6485Z" fill="url(#paint24_linear)" fill-opacity="0.9"/>
<path d="M154.866 159.358C155.223 156.972 157.136 155.114 159.532 154.841C206.12 149.545 232.126 153.498 272.442 171.67C274.629 172.656 275.886 174.984 275.531 177.357C275.01 180.843 271.331 182.896 268.064 181.575C228.67 165.65 203.093 161.75 160.745 165.532C157.254 165.843 154.348 162.824 154.866 159.358Z" fill="url(#paint25_linear)" fill-opacity="0.9"/>
<path d="M259.507 350.842C258.039 348.929 258.031 346.262 259.499 344.348C288.052 307.157 308.961 291.196 350.038 274.818C352.267 273.929 354.815 274.643 356.275 276.546C358.421 279.343 357.342 283.415 354.122 284.848C315.302 302.124 294.729 317.812 268.031 350.903C265.831 353.63 261.64 353.622 259.507 350.842Z" fill="url(#paint26_linear)" fill-opacity="0.9"/>
<path d="M351.313 62.4774C353.452 63.5912 354.587 66.005 354.064 68.3598C343.905 114.133 331.7 137.435 301.393 169.639C299.748 171.386 297.138 171.816 295.01 170.708C291.884 169.081 291.14 164.934 293.453 162.275C321.335 130.212 333.35 107.298 343.562 66.0254C344.403 62.6236 348.205 60.8593 351.313 62.4774Z" fill="url(#paint27_linear)" fill-opacity="0.9"/>
<path d="M205.977 13.4555C206.762 11.1748 208.982 9.69611 211.388 9.86496C258.16 13.1472 283.01 21.7732 319.34 46.9876C321.311 48.3558 322.122 50.874 321.341 53.1427C320.194 56.475 316.202 57.8231 313.23 55.9289C277.398 33.0924 252.96 24.5964 210.631 20.5972C207.143 20.2676 204.836 16.7689 205.977 13.4555Z" fill="url(#paint28_linear)" fill-opacity="0.9"/>
<path d="M356.546 41.8215C356.429 44.2307 354.711 46.2706 352.354 46.7807C306.527 56.6957 280.256 55.3554 238.329 41.2941C236.054 40.5311 234.572 38.3398 234.688 35.9432V35.9432C234.859 32.423 238.315 30.0134 241.698 31.0019C282.483 42.919 308.321 44.2497 350.082 36.2645C353.524 35.6063 356.716 38.3213 356.546 41.8215V41.8215Z" fill="url(#paint29_linear)" fill-opacity="0.9"/>
<path d="M348.283 321.819C346.344 320.384 345.601 317.822 346.486 315.578C363.681 271.958 379.38 250.852 414.352 223.786C416.25 222.317 418.896 222.301 420.824 223.728C423.657 225.824 423.743 230.037 421.043 232.302C388.488 259.608 373.037 280.36 356.494 319.527C355.131 322.755 351.1 323.903 348.283 321.819Z" fill="url(#paint30_linear)" fill-opacity="0.9"/>
<path d="M289.489 386.895C290.388 389.237 292.732 390.708 295.23 390.479C341.97 386.196 366.488 376.711 401.588 349.703C403.565 348.182 404.293 345.537 403.399 343.209C402.059 339.716 397.758 338.459 394.7 340.614C360.199 364.93 336.142 374.25 294.195 379.199C290.502 379.634 288.156 383.423 289.489 386.895Z" fill="url(#paint31_linear)" fill-opacity="0.9"/>
<path d="M448.092 277.362C445.724 277.822 443.334 276.639 442.277 274.471C421.733 232.324 416.778 206.49 420.45 162.42C420.649 160.029 422.424 158.068 424.78 157.61C428.239 156.937 431.403 159.72 431.248 163.241C429.387 205.691 434.248 231.102 451.949 269.76C453.408 272.946 451.532 276.693 448.092 277.362Z" fill="url(#paint32_linear)" fill-opacity="0.9"/>
<path d="M115.082 77.5552C114.025 75.3872 114.549 72.7721 116.37 71.1901C151.763 40.438 175.435 28.9658 218.953 21.1062C221.314 20.6798 223.668 21.8868 224.72 24.0434C226.265 27.2111 224.396 30.9868 220.955 31.749C179.47 40.9382 156.182 52.2106 123.423 79.3138C120.723 81.5476 116.618 80.7049 115.082 77.5552Z" fill="url(#paint33_linear)" fill-opacity="0.9"/>
<path d="M77.1165 60.1425C76.2492 57.8917 76.9959 55.3313 78.9459 53.9116C116.851 26.3138 141.42 16.9176 185.453 12.8257C187.842 12.6037 190.084 14.0085 190.946 16.2475V16.2475C192.213 19.5362 190.027 23.1374 186.533 23.6012C144.412 29.1924 120.242 38.4225 85.2759 62.6112C82.3939 64.6048 78.3764 63.4125 77.1165 60.1425V60.1425Z" fill="url(#paint34_linear)" fill-opacity="0.9"/>
<path d="M274.658 287.066C274.343 289.457 272.462 291.349 270.071 291.663C223.583 297.772 197.512 294.273 156.885 276.808C154.681 275.86 153.384 273.554 153.697 271.175C154.157 267.681 157.8 265.564 161.09 266.828C200.755 282.062 226.396 285.516 268.672 280.995C272.157 280.623 275.115 283.591 274.658 287.066Z" fill="url(#paint35_linear)" fill-opacity="0.9"/>
<path d="M283.63 256.753C282.516 258.892 280.103 260.026 277.748 259.504C231.974 249.344 208.672 237.14 176.469 206.833C174.721 205.188 174.291 202.578 175.399 200.449C177.026 197.323 181.174 196.58 183.833 198.893C215.896 226.775 238.809 238.789 280.082 249.001C283.484 249.843 285.248 253.644 283.63 256.753Z" fill="url(#paint36_linear)" fill-opacity="0.9"/>
<path d="M352.396 261.894C350.362 263.19 347.704 262.965 345.926 261.335C311.365 229.65 297.287 207.43 284.552 165.081C283.861 162.783 284.794 160.308 286.817 159.018C289.79 157.125 293.753 158.555 294.9 161.887C308.726 202.065 322.562 223.927 353.199 253.407C355.725 255.837 355.352 260.011 352.396 261.894Z" fill="url(#paint37_linear)" fill-opacity="0.9"/>
<path d="M137.087 153.015C139.423 153.619 141.071 155.716 141.091 158.128C141.489 205.014 134.839 230.464 112.553 268.66C111.344 270.732 108.897 271.739 106.574 271.138C103.162 270.255 101.505 266.382 103.16 263.27C123.115 225.757 129.667 200.728 130.333 158.216C130.388 154.712 133.695 152.138 137.087 153.015Z" fill="url(#paint38_linear)" fill-opacity="0.9"/>
<defs>
<linearGradient id="paint0_linear" x1="343.817" y1="130.188" x2="360.368" y2="117.022" gradientUnits="userSpaceOnUse">
<stop stop-color="#FFD600"/>
<stop offset="1" stop-color="#FAFF00"/>
</linearGradient>
<linearGradient id="paint1_linear" x1="217.166" y1="91.4934" x2="203.573" y2="107.694" gradientUnits="userSpaceOnUse">
<stop stop-color="#FFD600"/>
<stop offset="1" stop-color="#FAFF00"/>
</linearGradient>
<linearGradient id="paint2_linear" x1="116.741" y1="158.029" x2="93.5682" y2="155.798" gradientUnits="userSpaceOnUse">
<stop stop-color="#FFD600"/>
<stop offset="1" stop-color="#FAFF00"/>
</linearGradient>
<linearGradient id="paint3_linear" x1="77.8635" y1="157.234" x2="54.6904" y2="155.003" gradientUnits="userSpaceOnUse">
<stop stop-color="#FFD600"/>
<stop offset="1" stop-color="#FAFF00"/>
</linearGradient>
<linearGradient id="paint4_linear" x1="175.863" y1="171.234" x2="152.69" y2="169.003" gradientUnits="userSpaceOnUse">
<stop stop-color="#FFD600"/>
<stop offset="1" stop-color="#FAFF00"/>
</linearGradient>
<linearGradient id="paint5_linear" x1="266.664" y1="60.0406" x2="261.032" y2="82.6293" gradientUnits="userSpaceOnUse">
<stop stop-color="#FFD600"/>
<stop offset="1" stop-color="#FAFF00"/>
</linearGradient>
<linearGradient id="paint6_linear" x1="300.108" y1="158.643" x2="276.935" y2="156.411" gradientUnits="userSpaceOnUse">
<stop stop-color="#FFD600"/>
<stop offset="1" stop-color="#FAFF00"/>
</linearGradient>
<linearGradient id="paint7_linear" x1="361.23" y1="158.847" x2="338.057" y2="156.616" gradientUnits="userSpaceOnUse">
<stop stop-color="#FFD600"/>
<stop offset="1" stop-color="#FAFF00"/>
</linearGradient>
<linearGradient id="paint8_linear" x1="422.352" y1="159.051" x2="399.179" y2="156.82" gradientUnits="userSpaceOnUse">
<stop stop-color="#FFD600"/>
<stop offset="1" stop-color="#FAFF00"/>
</linearGradient>
<linearGradient id="paint9_linear" x1="93.8635" y1="271.234" x2="70.6904" y2="269.003" gradientUnits="userSpaceOnUse">
<stop stop-color="#FFD600"/>
<stop offset="1" stop-color="#FAFF00"/>
</linearGradient>
<linearGradient id="paint10_linear" x1="26.1389" y1="252.581" x2="49.2592" y2="255.305" gradientUnits="userSpaceOnUse">
<stop stop-color="#FFD600"/>
<stop offset="1" stop-color="#FAFF00"/>
</linearGradient>
<linearGradient id="paint11_linear" x1="163.863" y1="328.234" x2="140.69" y2="326.003" gradientUnits="userSpaceOnUse">
<stop stop-color="#FFD600"/>
<stop offset="1" stop-color="#FAFF00"/>
</linearGradient>
<linearGradient id="paint12_linear" x1="242.863" y1="363.234" x2="219.69" y2="361.003" gradientUnits="userSpaceOnUse">
<stop stop-color="#FFD600"/>
<stop offset="1" stop-color="#FAFF00"/>
</linearGradient>
<linearGradient id="paint13_linear" x1="305.863" y1="343.234" x2="282.69" y2="341.003" gradientUnits="userSpaceOnUse">
<stop stop-color="#FFD600"/>
<stop offset="1" stop-color="#FAFF00"/>
</linearGradient>
<linearGradient id="paint14_linear" x1="377.863" y1="301.234" x2="354.69" y2="299.003" gradientUnits="userSpaceOnUse">
<stop stop-color="#FFD600"/>
<stop offset="1" stop-color="#FAFF00"/>
</linearGradient>
<linearGradient id="paint15_linear" x1="449.863" y1="259.234" x2="426.69" y2="257.003" gradientUnits="userSpaceOnUse">
<stop stop-color="#FFD600"/>
<stop offset="1" stop-color="#FAFF00"/>
</linearGradient>
<linearGradient id="paint16_linear" x1="262.863" y1="222.234" x2="239.69" y2="220.003" gradientUnits="userSpaceOnUse">
<stop stop-color="#FFD600"/>
<stop offset="1" stop-color="#FAFF00"/>
</linearGradient>
<linearGradient id="paint17_linear" x1="51.5844" y1="120.11" x2="70.5923" y2="129.38" gradientUnits="userSpaceOnUse">
<stop stop-color="#FFD600"/>
<stop offset="1" stop-color="#FAFF00"/>
</linearGradient>
<linearGradient id="paint18_linear" x1="26.7406" y1="110.826" x2="45.7485" y2="120.097" gradientUnits="userSpaceOnUse">
<stop stop-color="#FFD600"/>
<stop offset="1" stop-color="#FAFF00"/>
</linearGradient>
<linearGradient id="paint19_linear" x1="32.3627" y1="259.246" x2="52.2065" y2="251.827" gradientUnits="userSpaceOnUse">
<stop stop-color="#FFD600"/>
<stop offset="1" stop-color="#FAFF00"/>
</linearGradient>
<linearGradient id="paint20_linear" x1="157.166" y1="297.493" x2="143.573" y2="313.694" gradientUnits="userSpaceOnUse">
<stop stop-color="#FFD600"/>
<stop offset="1" stop-color="#FAFF00"/>
</linearGradient>
<linearGradient id="paint21_linear" x1="246.393" y1="345.776" x2="248.236" y2="366.844" gradientUnits="userSpaceOnUse">
<stop stop-color="#FFD600"/>
<stop offset="1" stop-color="#FAFF00"/>
</linearGradient>
<linearGradient id="paint22_linear" x1="134.166" y1="340.493" x2="120.573" y2="356.694" gradientUnits="userSpaceOnUse">
<stop stop-color="#FFD600"/>
<stop offset="1" stop-color="#FAFF00"/>
</linearGradient>
<linearGradient id="paint23_linear" x1="93.3028" y1="375.859" x2="105.748" y2="358.761" gradientUnits="userSpaceOnUse">
<stop stop-color="#FFD600"/>
<stop offset="1" stop-color="#FAFF00"/>
</linearGradient>
<linearGradient id="paint24_linear" x1="396.288" y1="83.994" x2="383.561" y2="100.884" gradientUnits="userSpaceOnUse">
<stop stop-color="#FFD600"/>
<stop offset="1" stop-color="#FAFF00"/>
</linearGradient>
<linearGradient id="paint25_linear" x1="217.3" y1="154.3" x2="214.174" y2="175.216" gradientUnits="userSpaceOnUse">
<stop stop-color="#FFD600"/>
<stop offset="1" stop-color="#FAFF00"/>
</linearGradient>
<linearGradient id="paint26_linear" x1="299.238" y1="302.418" x2="312.113" y2="319.196" gradientUnits="userSpaceOnUse">
<stop stop-color="#FFD600"/>
<stop offset="1" stop-color="#FAFF00"/>
</linearGradient>
<linearGradient id="paint27_linear" x1="335.769" y1="123.156" x2="317.01" y2="113.391" gradientUnits="userSpaceOnUse">
<stop stop-color="#FFD600"/>
<stop offset="1" stop-color="#FAFF00"/>
</linearGradient>
<linearGradient id="paint28_linear" x1="268.286" y1="19.8597" x2="261.401" y2="39.8557" gradientUnits="userSpaceOnUse">
<stop stop-color="#FFD600"/>
<stop offset="1" stop-color="#FAFF00"/>
</linearGradient>
<linearGradient id="paint29_linear" x1="294.928" y1="53.0794" x2="295.953" y2="31.9561" gradientUnits="userSpaceOnUse">
<stop stop-color="#FFD600"/>
<stop offset="1" stop-color="#FAFF00"/>
</linearGradient>
<linearGradient id="paint30_linear" x1="373.128" y1="264.319" x2="390.128" y2="276.898" gradientUnits="userSpaceOnUse">
<stop stop-color="#FFD600"/>
<stop offset="1" stop-color="#FAFF00"/>
</linearGradient>
<linearGradient id="paint31_linear" x1="351.794" y1="378.989" x2="343.792" y2="358.144" gradientUnits="userSpaceOnUse">
<stop stop-color="#FFD600"/>
<stop offset="1" stop-color="#FAFF00"/>
</linearGradient>
<linearGradient id="paint32_linear" x1="422.483" y1="220.198" x2="443.243" y2="216.163" gradientUnits="userSpaceOnUse">
<stop stop-color="#FFD600"/>
<stop offset="1" stop-color="#FAFF00"/>
</linearGradient>
<linearGradient id="paint33_linear" x1="163.67" y1="38.024" x2="172.941" y2="57.0319" gradientUnits="userSpaceOnUse">
<stop stop-color="#FFD600"/>
<stop offset="1" stop-color="#FAFF00"/>
</linearGradient>
<linearGradient id="paint34_linear" x1="128.921" y1="24.9317" x2="136.525" y2="44.6657" gradientUnits="userSpaceOnUse">
<stop stop-color="#FFD600"/>
<stop offset="1" stop-color="#FAFF00"/>
</linearGradient>
<linearGradient id="paint35_linear" x1="212.322" y1="293.213" x2="215.082" y2="272.245" gradientUnits="userSpaceOnUse">
<stop stop-color="#FFD600"/>
<stop offset="1" stop-color="#FAFF00"/>
</linearGradient>
<linearGradient id="paint36_linear" x1="222.951" y1="241.209" x2="232.717" y2="222.45" gradientUnits="userSpaceOnUse">
<stop stop-color="#FFD600"/>
<stop offset="1" stop-color="#FAFF00"/>
</linearGradient>
<linearGradient id="paint37_linear" x1="307.619" y1="218.093" x2="325.455" y2="206.73" gradientUnits="userSpaceOnUse">
<stop stop-color="#FFD600"/>
<stop offset="1" stop-color="#FAFF00"/>
</linearGradient>
<linearGradient id="paint38_linear" x1="135.592" y1="215.635" x2="115.117" y2="210.34" gradientUnits="userSpaceOnUse">
<stop stop-color="#FFD600"/>
<stop offset="1" stop-color="#FAFF00"/>
</linearGradient>
</defs>
</svg>
