<svg width="410" height="422" viewBox="0 0 410 422" fill="none" xmlns="http://www.w3.org/2000/svg">
<mask id="path-2-inside-1" fill="white">
<path fill-rule="evenodd" clip-rule="evenodd" d="M91.3887 273.33C105.122 258.962 110.965 243.339 104.647 234.147C96.2435 221.919 69.5065 225.701 44.9283 242.593C20.3501 259.485 7.23788 283.091 15.6414 295.318C21.5618 303.933 36.5819 304.601 53.5359 298.337L76.8631 332.278L114.245 306.586L91.3887 273.33Z"/>
</mask>
<path fill-rule="evenodd" clip-rule="evenodd" d="M91.3887 273.33C105.122 258.962 110.965 243.339 104.647 234.147C96.2435 221.919 69.5065 225.701 44.9283 242.593C20.3501 259.485 7.23788 283.091 15.6414 295.318C21.5618 303.933 36.5819 304.601 53.5359 298.337L76.8631 332.278L114.245 306.586L91.3887 273.33Z" fill="#9E9E9E" fill-opacity="0.9"/>
<path d="M91.3887 273.33L90.6658 272.639L90.1042 273.226L90.5646 273.896L91.3887 273.33ZM53.5359 298.337L54.36 297.771L53.9192 297.129L53.1893 297.399L53.5359 298.337ZM76.8631 332.278L76.0389 332.845L76.6053 333.669L77.4295 333.103L76.8631 332.278ZM114.245 306.586L114.812 307.41L115.636 306.844L115.07 306.02L114.245 306.586ZM103.823 234.713C106.731 238.945 106.924 244.778 104.593 251.468C102.265 258.147 97.4654 265.525 90.6658 272.639L92.1116 274.021C99.0452 266.767 104.033 259.15 106.481 252.127C108.925 245.115 108.88 238.541 105.471 233.58L103.823 234.713ZM45.4947 243.417C57.6842 235.04 70.3695 229.943 80.9932 228.44C91.6847 226.928 99.9528 229.082 103.823 234.713L105.471 233.58C100.938 226.984 91.6356 224.915 80.7131 226.46C69.7229 228.014 56.7506 233.255 44.3619 241.769L45.4947 243.417ZM16.4655 294.752C12.5954 289.121 13.5476 280.63 18.7909 271.191C24.0009 261.811 33.3052 251.795 45.4947 243.417L44.3619 241.769C31.9731 250.284 22.4322 260.516 17.0425 270.22C11.686 279.863 10.2839 289.289 14.8173 295.885L16.4655 294.752ZM53.1893 297.399C44.8012 300.498 36.9532 301.858 30.5206 301.41C24.0821 300.961 19.1915 298.718 16.4655 294.752L14.8173 295.885C18.0118 300.533 23.5913 302.932 30.3815 303.405C37.1775 303.878 45.3165 302.44 53.8824 299.275L53.1893 297.399ZM77.6872 331.712L54.36 297.771L52.7117 298.904L76.0389 332.845L77.6872 331.712ZM113.679 305.762L76.2967 331.454L77.4295 333.103L114.812 307.41L113.679 305.762ZM90.5646 273.896L113.421 307.153L115.07 306.02L92.2128 272.763L90.5646 273.896Z" fill="black" fill-opacity="0.9" mask="url(#path-2-inside-1)"/>
<mask id="path-4-inside-2" fill="white">
<path fill-rule="evenodd" clip-rule="evenodd" d="M338.877 259.157C327.782 269.87 322.769 281.988 327.386 289.622C333.527 299.776 354.381 298.149 373.965 285.989C393.549 273.829 404.447 255.74 398.306 245.586C393.98 238.432 382.351 237.125 369.008 241.23L351.961 213.044L322.174 231.539L338.877 259.157Z"/>
</mask>
<path fill-rule="evenodd" clip-rule="evenodd" d="M338.877 259.157C327.782 269.87 322.769 281.988 327.386 289.622C333.527 299.776 354.381 298.149 373.965 285.989C393.549 273.829 404.447 255.74 398.306 245.586C393.98 238.432 382.351 237.125 369.008 241.23L351.961 213.044L322.174 231.539L338.877 259.157Z" fill="#9E9E9E" fill-opacity="0.9"/>
<path d="M338.877 259.157L339.562 259.882L340.144 259.32L339.727 258.629L338.877 259.157ZM369.008 241.23L368.158 241.758L368.557 242.418L369.293 242.192L369.008 241.23ZM351.961 213.044L352.811 212.516L352.293 211.661L351.444 212.188L351.961 213.044ZM322.174 231.539L321.657 230.684L320.807 231.211L321.325 232.067L322.174 231.539ZM328.235 289.094C326.148 285.643 326.167 281.063 328.166 275.906C330.161 270.757 334.088 265.168 339.562 259.882L338.192 258.432C332.572 263.859 328.444 269.685 326.314 275.182C324.186 280.671 324.007 285.967 326.536 290.149L328.235 289.094ZM373.448 285.133C363.762 291.147 353.804 294.528 345.563 295.171C337.264 295.818 331.012 293.686 328.235 289.094L326.536 290.149C329.9 295.712 337.146 297.843 345.705 297.176C354.323 296.504 364.584 292.991 374.483 286.845L373.448 285.133ZM397.457 246.113C400.233 250.704 399.27 257.317 394.934 264.516C390.627 271.664 383.133 279.12 373.448 285.133L374.483 286.845C384.381 280.698 392.128 273.029 396.632 265.554C401.105 258.13 402.52 250.621 399.156 245.058L397.457 246.113ZM369.293 242.192C375.87 240.168 381.964 239.499 386.898 240.182C391.835 240.865 395.5 242.878 397.457 246.113L399.156 245.058C396.786 241.14 392.473 238.923 387.178 238.19C381.881 237.457 375.488 238.187 368.722 240.269L369.293 242.192ZM351.111 213.571L368.158 241.758L369.857 240.703L352.811 212.516L351.111 213.571ZM322.692 232.395L352.479 213.9L351.444 212.188L321.657 230.684L322.692 232.395ZM339.727 258.629L323.024 231.012L321.325 232.067L338.028 259.684L339.727 258.629Z" fill="black" fill-opacity="0.9" mask="url(#path-4-inside-2)"/>
<mask id="path-6-inside-3" fill="white">
<path fill-rule="evenodd" clip-rule="evenodd" d="M60.7483 153.632C73.8572 155.092 84.9298 151.128 88.0293 142.838C92.1521 131.811 80.607 117.306 62.2425 110.44C43.878 103.573 25.6484 106.946 21.5256 117.973C18.621 125.742 23.4931 135.237 33.0476 142.571L21.6031 173.181L49.5347 183.624L60.7483 153.632Z"/>
</mask>
<path fill-rule="evenodd" clip-rule="evenodd" d="M60.7483 153.632C73.8572 155.092 84.9298 151.128 88.0293 142.838C92.1521 131.811 80.607 117.306 62.2425 110.44C43.878 103.573 25.6484 106.946 21.5256 117.973C18.621 125.742 23.4931 135.237 33.0476 142.571L21.6031 173.181L49.5347 183.624L60.7483 153.632Z" fill="#9E9E9E" fill-opacity="0.9"/>
<path d="M60.7483 153.632L60.8591 152.638L60.0846 152.552L59.8117 153.281L60.7483 153.632ZM33.0476 142.571L33.9843 142.921L34.2434 142.228L33.6565 141.778L33.0476 142.571ZM21.6031 173.181L20.6665 172.831L20.3163 173.767L21.2529 174.117L21.6031 173.181ZM49.5347 183.624L49.1845 184.561L50.1212 184.911L50.4714 183.974L49.5347 183.624ZM87.0926 142.488C85.67 146.293 82.3916 149.185 77.7832 150.958C73.1718 152.732 67.294 153.355 60.8591 152.638L60.6376 154.626C67.3115 155.369 73.5244 154.74 78.5014 152.825C83.4814 150.908 87.2891 147.673 88.966 143.188L87.0926 142.488ZM61.8923 111.376C70.9338 114.757 78.2506 120.003 82.7862 125.701C87.3362 131.418 88.9828 137.432 87.0926 142.488L88.966 143.188C91.1986 137.217 89.134 130.465 84.351 124.456C79.5537 118.428 71.9156 112.989 62.5927 109.503L61.8923 111.376ZM22.4623 118.324C24.3524 113.268 29.541 109.809 36.7253 108.48C43.887 107.155 52.8507 107.996 61.8923 111.376L62.5927 109.503C53.2697 106.017 43.9364 105.112 36.3615 106.513C28.8092 107.911 22.8215 111.652 20.5889 117.623L22.4623 118.324ZM33.6565 141.778C24.204 134.522 19.7982 125.449 22.4623 118.324L20.5889 117.623C17.4438 126.035 22.7822 135.952 32.4387 143.364L33.6565 141.778ZM22.5398 173.531L33.9843 142.921L32.1109 142.221L20.6665 172.831L22.5398 173.531ZM49.8849 182.687L21.9534 172.244L21.2529 174.117L49.1845 184.561L49.8849 182.687ZM59.8117 153.281L48.598 183.274L50.4714 183.974L61.685 153.982L59.8117 153.281Z" fill="black" fill-opacity="0.9" mask="url(#path-6-inside-3)"/>
<mask id="path-8-inside-4" fill="white">
<path fill-rule="evenodd" clip-rule="evenodd" d="M192.471 71.6603C209.754 73.7861 224.244 68.9906 228.151 58.5429C233.347 44.6459 217.849 26.0109 193.535 16.9204C169.222 7.82997 145.299 11.7264 140.104 25.6234C136.443 35.4141 143.054 47.5564 155.782 57.056L141.359 95.6324L178.338 109.459L192.471 71.6603Z"/>
</mask>
<path fill-rule="evenodd" clip-rule="evenodd" d="M192.471 71.6603C209.754 73.7861 224.244 68.9906 228.151 58.5429C233.347 44.6459 217.849 26.0109 193.535 16.9204C169.222 7.82997 145.299 11.7264 140.104 25.6234C136.443 35.4141 143.054 47.5564 155.782 57.056L141.359 95.6324L178.338 109.459L192.471 71.6603Z" fill="#9E9E9E" fill-opacity="0.9"/>
<path d="M192.471 71.6603L192.593 70.6678L191.81 70.5715L191.534 71.3101L192.471 71.6603ZM155.782 57.056L156.718 57.4062L156.981 56.7034L156.38 56.2546L155.782 57.056ZM141.359 95.6324L140.422 95.2822L140.072 96.2189L141.008 96.5691L141.359 95.6324ZM178.338 109.459L177.988 110.395L178.925 110.745L179.275 109.809L178.338 109.459ZM227.214 58.1927C225.395 63.0581 221.08 66.7009 214.991 68.8749C208.901 71.0491 201.122 71.7168 192.593 70.6678L192.349 72.6528C201.103 73.7296 209.21 73.0625 215.663 70.7585C222.117 68.4543 227 64.4755 229.087 58.8931L227.214 58.1927ZM193.185 17.8571C205.209 22.3527 215.006 29.1931 221.14 36.5687C227.295 43.9693 229.632 51.7253 227.214 58.1927L229.087 58.8931C231.865 51.4636 229.051 42.9536 222.678 35.2898C216.283 27.601 206.175 20.5787 193.885 15.9838L193.185 17.8571ZM141.04 25.9737C143.458 19.5062 150.311 15.1861 159.811 13.6386C169.279 12.0964 181.161 13.3615 193.185 17.8571L193.885 15.9838C181.596 11.3889 169.36 10.057 159.489 11.6646C149.651 13.2671 141.945 17.8437 139.167 25.2732L141.04 25.9737ZM156.38 56.2546C150.105 51.571 145.387 46.271 142.687 40.9935C139.989 35.7194 139.335 30.5342 141.04 25.9737L139.167 25.2732C137.211 30.5033 138.032 36.2846 140.907 41.9042C143.779 47.5205 148.731 53.0414 155.184 57.8574L156.38 56.2546ZM142.295 95.9826L156.718 57.4062L154.845 56.7058L140.422 95.2822L142.295 95.9826ZM178.689 108.522L141.709 94.6957L141.008 96.5691L177.988 110.395L178.689 108.522ZM191.534 71.3101L177.402 109.108L179.275 109.809L193.407 72.0105L191.534 71.3101Z" fill="black" fill-opacity="0.9" mask="url(#path-8-inside-4)"/>
<mask id="path-10-inside-5" fill="white">
<path fill-rule="evenodd" clip-rule="evenodd" d="M343.529 89.9003C349.944 79.8741 351.115 69.2564 345.575 63.3156C338.206 55.4134 321.754 58.7783 308.829 70.8313C295.903 82.8843 291.399 99.0613 298.768 106.963C303.96 112.531 313.659 112.506 323.458 107.79L343.913 129.726L363.572 111.393L343.529 89.9003Z"/>
</mask>
<path fill-rule="evenodd" clip-rule="evenodd" d="M343.529 89.9003C349.944 79.8741 351.115 69.2564 345.575 63.3156C338.206 55.4134 321.754 58.7783 308.829 70.8313C295.903 82.8843 291.399 99.0613 298.768 106.963C303.96 112.531 313.659 112.506 323.458 107.79L343.913 129.726L363.572 111.393L343.529 89.9003Z" fill="#9E9E9E" fill-opacity="0.9"/>
<path d="M343.529 89.9003L342.687 89.3614L342.269 90.0149L342.798 90.5823L343.529 89.9003ZM323.458 107.79L324.189 107.108L323.687 106.57L323.024 106.889L323.458 107.79ZM343.913 129.726L343.182 130.408L343.864 131.139L344.595 130.457L343.913 129.726ZM363.572 111.393L364.254 112.125L364.985 111.443L364.303 110.711L363.572 111.393ZM344.843 63.9976C347.37 66.7076 348.423 70.5395 348.039 74.9898C347.654 79.444 345.828 84.4516 342.687 89.3614L344.372 90.4392C347.645 85.3228 349.612 80.0084 350.031 75.1621C350.45 70.3118 349.319 65.8644 346.306 62.6336L344.843 63.9976ZM309.511 71.5627C315.861 65.6408 323.044 61.8874 329.486 60.5699C335.947 59.2484 341.486 60.3975 344.843 63.9976L346.306 62.6336C342.294 58.3314 335.923 57.2119 329.085 58.6105C322.227 60.0132 314.722 63.9688 308.147 70.1L309.511 71.5627ZM299.499 106.281C296.142 102.681 295.382 97.0754 297.151 90.7222C298.915 84.3883 303.16 77.4846 309.511 71.5627L308.147 70.1C301.572 76.2311 297.102 83.4424 295.225 90.1857C293.352 96.9097 294.025 103.343 298.037 107.645L299.499 106.281ZM323.024 106.889C313.352 111.544 304.23 111.354 299.499 106.281L298.037 107.645C303.689 113.707 313.967 113.467 323.891 108.691L323.024 106.889ZM344.644 129.044L324.189 107.108L322.726 108.472L343.182 130.408L344.644 129.044ZM362.89 110.662L343.231 128.994L344.595 130.457L364.254 112.125L362.89 110.662ZM342.798 90.5823L362.84 112.075L364.303 110.711L344.261 89.2183L342.798 90.5823Z" fill="black" fill-opacity="0.9" mask="url(#path-10-inside-5)"/>
<mask id="path-12-inside-6" fill="white">
<path fill-rule="evenodd" clip-rule="evenodd" d="M265.037 175.729C276.919 175.025 286.197 169.731 287.747 161.757C289.808 151.151 277.416 139.819 260.068 136.447C242.719 133.075 226.984 138.939 224.923 149.546C223.47 157.018 229.192 164.85 238.766 170.006L233.043 199.448L259.429 204.577L265.037 175.729Z"/>
</mask>
<path fill-rule="evenodd" clip-rule="evenodd" d="M265.037 175.729C276.919 175.025 286.197 169.731 287.747 161.757C289.808 151.151 277.416 139.819 260.068 136.447C242.719 133.075 226.984 138.939 224.923 149.546C223.47 157.018 229.192 164.85 238.766 170.006L233.043 199.448L259.429 204.577L265.037 175.729Z" fill="#9E9E9E" fill-opacity="0.9"/>
<path d="M265.037 175.729L264.978 174.73L264.203 174.776L264.055 175.538L265.037 175.729ZM238.766 170.006L239.748 170.197L239.888 169.474L239.24 169.125L238.766 170.006ZM233.043 199.448L232.062 199.257L231.871 200.239L232.852 200.43L233.043 199.448ZM259.429 204.577L259.239 205.558L260.22 205.749L260.411 204.768L259.429 204.577ZM286.765 161.567C286.058 165.204 283.577 168.308 279.75 170.613C275.92 172.919 270.796 174.386 264.978 174.73L265.096 176.727C271.159 176.368 276.615 174.836 280.782 172.326C284.953 169.814 287.885 166.285 288.728 161.948L286.765 161.567ZM259.877 137.429C268.4 139.085 275.659 142.69 280.511 147.127C285.378 151.578 287.704 156.735 286.765 161.567L288.728 161.948C289.851 156.174 287.012 150.361 281.861 145.651C276.695 140.928 269.083 137.181 260.258 135.465L259.877 137.429ZM225.904 149.736C226.843 144.904 230.932 140.995 237.112 138.691C243.273 136.395 251.353 135.772 259.877 137.429L260.258 135.465C251.434 133.75 242.972 134.373 236.413 136.817C229.873 139.255 225.063 143.58 223.941 149.355L225.904 149.736ZM239.24 169.125C229.789 164.036 224.581 156.545 225.904 149.736L223.941 149.355C222.359 157.491 228.594 165.664 238.292 170.886L239.24 169.125ZM234.025 199.639L239.748 170.197L237.785 169.815L232.062 199.257L234.025 199.639ZM259.62 203.595L233.234 198.466L232.852 200.43L259.239 205.558L259.62 203.595ZM264.055 175.538L258.448 204.386L260.411 204.768L266.019 175.919L264.055 175.538Z" fill="black" fill-opacity="0.9" mask="url(#path-12-inside-6)"/>
<mask id="path-14-inside-7" fill="white">
<path fill-rule="evenodd" clip-rule="evenodd" d="M234.941 378.794C249.884 385.503 263.639 385.728 269.055 378.274C276.259 368.358 265.981 348.61 246.098 334.164C226.215 319.718 204.257 316.045 197.053 325.961C191.978 332.947 195.579 344.813 205.104 356.267L185.106 383.791L215.347 405.763L234.941 378.794Z"/>
</mask>
<path fill-rule="evenodd" clip-rule="evenodd" d="M234.941 378.794C249.884 385.503 263.639 385.728 269.055 378.274C276.259 368.358 265.981 348.61 246.098 334.164C226.215 319.718 204.257 316.045 197.053 325.961C191.978 332.947 195.579 344.813 205.104 356.267L185.106 383.791L215.347 405.763L234.941 378.794Z" fill="#9E9E9E" fill-opacity="0.9"/>
<path d="M234.941 378.794L235.351 377.881L234.61 377.549L234.132 378.206L234.941 378.794ZM205.104 356.267L205.913 356.855L206.37 356.226L205.873 355.628L205.104 356.267ZM185.106 383.791L184.297 383.204L183.709 384.013L184.518 384.6L185.106 383.791ZM215.347 405.763L214.759 406.572L215.568 407.16L216.156 406.351L215.347 405.763ZM268.246 377.686C265.798 381.057 261.378 382.809 255.565 382.845C249.764 382.881 242.734 381.196 235.351 377.881L234.532 379.706C242.092 383.1 249.411 384.883 255.577 384.845C261.731 384.807 266.897 382.946 269.864 378.862L268.246 377.686ZM245.511 334.973C255.354 342.124 262.779 350.561 266.847 358.379C270.948 366.257 271.505 373.201 268.246 377.686L269.864 378.862C273.81 373.431 272.83 365.543 268.622 357.456C264.382 349.309 256.726 340.649 246.686 333.355L245.511 334.973ZM197.862 326.549C201.121 322.064 207.897 320.448 216.656 321.913C225.349 323.367 235.667 327.821 245.511 334.973L246.686 333.355C236.647 326.061 226.044 321.456 216.986 319.941C207.994 318.437 200.189 319.943 196.244 325.373L197.862 326.549ZM205.873 355.628C201.171 349.974 197.975 344.268 196.567 339.172C195.158 334.071 195.567 329.708 197.862 326.549L196.244 325.373C193.464 329.2 193.136 334.263 194.64 339.705C196.145 345.152 199.512 351.106 204.335 356.906L205.873 355.628ZM185.915 384.379L205.913 356.855L204.295 355.679L184.297 383.204L185.915 384.379ZM215.935 404.954L185.694 382.982L184.518 384.6L214.759 406.572L215.935 404.954ZM234.132 378.206L214.538 405.175L216.156 406.351L235.75 379.381L234.132 378.206Z" fill="black" fill-opacity="0.9" mask="url(#path-14-inside-7)"/>
<mask id="path-16-inside-8" fill="white">
<path fill-rule="evenodd" clip-rule="evenodd" d="M192.131 233.299C183.417 229.653 175.515 229.804 172.555 234.307C168.617 240.298 174.914 251.723 186.62 259.825C198.325 267.928 211.006 269.64 214.944 263.649C217.718 259.429 215.412 252.511 209.714 245.958L220.644 229.329L202.84 217.005L192.131 233.299Z"/>
</mask>
<path fill-rule="evenodd" clip-rule="evenodd" d="M192.131 233.299C183.417 229.653 175.515 229.804 172.555 234.307C168.617 240.298 174.914 251.723 186.62 259.825C198.325 267.928 211.006 269.64 214.944 263.649C217.718 259.429 215.412 252.511 209.714 245.958L220.644 229.329L202.84 217.005L192.131 233.299Z" fill="#9E9E9E" fill-opacity="0.9"/>
<path d="M192.131 233.299L191.763 234.235L192.508 234.546L192.953 233.868L192.131 233.299ZM209.714 245.958L208.892 245.389L208.465 246.037L208.977 246.626L209.714 245.958ZM220.644 229.329L221.466 229.898L222.015 229.063L221.193 228.493L220.644 229.329ZM202.84 217.005L203.389 216.17L202.567 215.601L202.018 216.436L202.84 217.005ZM173.377 234.877C174.617 232.99 176.97 231.895 180.235 231.757C183.488 231.62 187.497 232.449 191.763 234.235L192.498 232.364C188.051 230.503 183.752 229.585 180.135 229.737C176.53 229.889 173.452 231.121 171.732 233.738L173.377 234.877ZM187.169 258.99C181.417 255.008 177.036 250.237 174.582 245.784C172.096 241.274 171.726 237.388 173.377 234.877L171.732 233.738C169.446 237.217 170.256 242.039 172.861 246.765C175.497 251.548 180.117 256.54 186.071 260.661L187.169 258.99ZM214.122 263.08C212.471 265.591 208.822 266.696 203.816 266.02C198.873 265.353 192.921 262.971 187.169 258.99L186.071 260.661C192.024 264.782 198.265 267.308 203.574 268.025C208.819 268.733 213.479 267.698 215.766 264.218L214.122 263.08ZM208.977 246.626C211.763 249.83 213.675 253.073 214.562 255.973C215.452 258.876 215.284 261.311 214.122 263.08L215.766 264.218C217.377 261.767 217.444 258.633 216.449 255.384C215.453 252.131 213.363 248.64 210.45 245.29L208.977 246.626ZM219.821 228.76L208.892 245.389L210.536 246.527L221.466 229.898L219.821 228.76ZM202.291 217.841L220.094 230.165L221.193 228.493L203.389 216.17L202.291 217.841ZM192.953 233.868L203.662 217.575L202.018 216.436L191.309 232.73L192.953 233.868Z" fill="black" fill-opacity="0.9" mask="url(#path-16-inside-8)"/>
<path fill-rule="evenodd" clip-rule="evenodd" d="M83.9924 276.331C92.4391 267.095 95.7249 256.758 91.3278 250.36C85.4789 241.85 68.2514 243.532 52.8491 254.118C37.4467 264.704 29.7021 280.184 35.5509 288.694C39.6715 294.69 49.4398 295.626 60.2387 291.955L76.4744 315.578L99.9007 299.477L83.9924 276.331Z" fill="#595959" fill-opacity="0.9"/>
<path fill-rule="evenodd" clip-rule="evenodd" d="M344.706 257.153C337.87 264.059 335.003 272.108 338.216 277.421C342.49 284.488 355.904 284.039 368.177 276.419C380.449 268.799 386.933 256.892 382.659 249.825C379.648 244.846 372.101 243.597 363.612 245.959L351.747 226.341L333.081 237.931L344.706 257.153Z" fill="#595959" fill-opacity="0.9"/>
<path fill-rule="evenodd" clip-rule="evenodd" d="M56.4252 150.561C64.7184 151.267 71.8415 148.29 73.9987 142.52C76.8682 134.846 69.865 125.136 58.3566 120.833C46.8482 116.53 35.1926 119.264 32.3231 126.938C30.3015 132.345 33.1801 138.762 39.0821 143.587L31.1168 164.891L48.6205 171.436L56.4252 150.561Z" fill="#595959" fill-opacity="0.9"/>
<path fill-rule="evenodd" clip-rule="evenodd" d="M186.717 67.6764C197.646 68.7448 206.959 65.1184 209.678 57.8468C213.294 48.1745 203.874 35.7154 188.638 30.0188C173.401 24.3221 158.118 27.5449 154.502 37.2173C151.954 44.0315 155.877 52.229 163.745 58.4705L153.707 85.3197L176.881 93.9841L186.717 67.6764Z" fill="#595959" fill-opacity="0.9"/>
<path fill-rule="evenodd" clip-rule="evenodd" d="M339.298 92.1366C343.178 85.7035 343.583 78.6965 339.727 74.5616C334.598 69.0617 323.874 70.7262 315.774 78.2795C307.675 85.8327 305.266 96.4144 310.395 101.914C314.008 105.789 320.398 106.108 326.692 103.317L340.929 118.584L353.248 107.096L339.298 92.1366Z" fill="#595959" fill-opacity="0.9"/>
<path fill-rule="evenodd" clip-rule="evenodd" d="M260.741 173.621C268.226 172.978 274.133 169.187 275.211 163.637C276.646 156.255 268.996 148.557 258.125 146.444C247.253 144.331 237.277 148.602 235.842 155.984C234.831 161.185 238.329 166.542 244.286 169.993L240.303 190.485L256.838 193.699L260.741 173.621Z" fill="#595959" fill-opacity="0.9"/>
<path fill-rule="evenodd" clip-rule="evenodd" d="M230.578 373.871C240.079 377.887 249.021 377.585 252.79 372.397C257.804 365.496 251.768 352.562 239.308 343.51C226.848 334.457 212.683 332.713 207.669 339.614C204.136 344.476 206.088 352.332 211.908 359.716L197.989 378.873L216.94 392.642L230.578 373.871Z" fill="#595959" fill-opacity="0.9"/>
<path fill-rule="evenodd" clip-rule="evenodd" d="M194.735 236.11C189.2 233.939 184.072 234.301 182.011 237.436C179.271 241.605 182.996 249.101 190.331 254.179C197.667 259.257 205.835 259.993 208.575 255.823C210.506 252.886 209.228 248.297 205.739 244.066L213.346 232.492L202.189 224.77L194.735 236.11Z" fill="#595959" fill-opacity="0.9"/>
<path d="M86.4929 254.699C88.0175 256.917 70.0406 260.997 61.9032 266.589C53.7659 272.182 43.09 286.885 41.5655 284.667C40.0409 282.448 49.0971 265.389 57.2344 259.796C65.3718 254.203 84.9684 252.48 86.4929 254.699Z" fill="white" fill-opacity="0.9"/>
<path d="M343.275 271.986C342.161 270.144 355.909 268.028 362.207 264.117C368.506 260.206 376.918 249.268 378.032 251.11C379.147 252.952 371.918 265.847 365.619 269.758C359.32 273.669 344.389 273.828 343.275 271.986Z" fill="white" fill-opacity="0.9"/>
<path d="M71.3784 141.178C70.6533 143.118 62.0933 134.316 56.0988 132.075C50.1043 129.834 38.0718 130.32 38.7969 128.381C39.5219 126.441 52.3248 123.895 58.3193 126.136C64.3138 128.377 72.1035 139.239 71.3784 141.178Z" fill="white" fill-opacity="0.9"/>
<path d="M205.652 55.1634C204.782 57.4906 193.025 46.3738 184.975 43.3641C176.925 40.3545 161.001 40.3826 161.871 38.0554C162.741 35.7282 179.59 33.2275 187.64 36.2372C195.69 39.2469 206.522 52.8363 205.652 55.1634Z" fill="white" fill-opacity="0.9"/>
<path d="M338.92 78.0953C340.191 79.4581 329.549 82.9265 325.269 86.9171C320.99 90.9076 316.434 100.902 315.163 99.5397C313.892 98.1769 317.098 86.7341 321.378 82.7435C325.657 78.753 337.649 76.7326 338.92 78.0953Z" fill="white" fill-opacity="0.9"/>
<path d="M273.921 163.52C273.565 165.35 264.504 158.778 258.76 157.662C253.016 156.546 242.252 158.734 242.608 156.905C242.963 155.076 254.105 150.944 259.849 152.06C265.592 153.177 274.276 161.691 273.921 163.52Z" fill="white" fill-opacity="0.9"/>
<path d="M250.143 366.468C248.927 368.143 240.721 355.696 234.212 350.967C227.703 346.238 213.669 341.814 214.886 340.139C216.103 338.464 231.43 341.109 237.939 345.838C244.448 350.567 251.36 364.793 250.143 366.468Z" fill="white" fill-opacity="0.9"/>
<path d="M186.18 238.01C186.845 236.999 191.806 244.163 195.638 246.816C199.47 249.468 207.616 251.787 206.951 252.798C206.286 253.81 197.433 252.567 193.601 249.915C189.769 247.262 185.515 239.022 186.18 238.01Z" fill="white" fill-opacity="0.9"/>
</svg>
