<svg width="359" height="359" viewBox="0 0 359 359" fill="none" xmlns="http://www.w3.org/2000/svg">
<ellipse cx="115.989" cy="122.84" rx="24" ry="29.5" transform="rotate(53.5 115.989 122.84)" fill="#868719" fill-opacity="0.98"/>
<path d="M129.968 141.73C117.012 151.318 100.343 150.449 92.6776 140.09C85.012 129.73 89.0549 113.536 102.011 103.949C114.967 94.3621 131.636 95.2305 139.301 105.59C146.967 115.949 142.924 132.143 129.968 141.73Z" stroke="#74AB2D" stroke-opacity="0.9"/>
<ellipse cx="265" cy="212.5" rx="24" ry="29.5" fill="#868719" fill-opacity="0.98"/>
<path d="M288.5 212.5C288.5 228.618 277.887 241.5 265 241.5C252.113 241.5 241.5 228.618 241.5 212.5C241.5 196.382 252.113 183.5 265 183.5C277.887 183.5 288.5 196.382 288.5 212.5Z" stroke="#74AB2D" stroke-opacity="0.9"/>
<ellipse cx="231.243" cy="104.142" rx="24" ry="29.5" transform="rotate(68.5 231.243 104.142)" fill="#868719" fill-opacity="0.98"/>
<path d="M239.856 126.007C224.86 131.914 208.984 126.761 204.261 114.77C199.538 102.78 207.634 88.1841 222.631 82.277C237.627 76.3699 253.502 81.5228 258.225 93.5133C262.949 105.504 254.852 120.099 239.856 126.007Z" stroke="#74AB2D" stroke-opacity="0.9"/>
<ellipse cx="92" cy="214.5" rx="24" ry="29.5" fill="#868719" fill-opacity="0.98"/>
<path d="M115.5 214.5C115.5 230.618 104.887 243.5 92 243.5C79.1128 243.5 68.5 230.618 68.5 214.5C68.5 198.382 79.1128 185.5 92 185.5C104.887 185.5 115.5 198.382 115.5 214.5Z" stroke="#74AB2D" stroke-opacity="0.9"/>
<ellipse cx="194" cy="259.5" rx="24" ry="29.5" fill="#868719" fill-opacity="0.98"/>
<path d="M217.5 259.5C217.5 275.618 206.887 288.5 194 288.5C181.113 288.5 170.5 275.618 170.5 259.5C170.5 243.382 181.113 230.5 194 230.5C206.887 230.5 217.5 243.382 217.5 259.5Z" stroke="#74AB2D" stroke-opacity="0.9"/>
<path d="M117.511 127.258C105.746 135.964 101.081 147.084 95.3324 139.315C89.5834 131.546 102.772 131.944 114.537 123.239C126.301 114.533 132.188 100.02 137.937 107.789C143.686 115.559 129.276 118.552 117.511 127.258Z" fill="#C42929" fill-opacity="0.9"/>
<path d="M117.213 126.856C114.245 129.053 111.728 131.399 109.54 133.551C108.894 134.186 108.279 134.801 107.691 135.39C106.275 136.808 105.013 138.073 103.839 139.086C102.166 140.53 100.788 141.359 99.5386 141.434C98.3499 141.505 97.1232 140.895 95.7343 139.018C94.3392 137.132 94.2168 135.915 94.698 134.978C94.9548 134.478 95.4099 133.998 96.0746 133.514C96.7381 133.03 97.5827 132.563 98.5846 132.078C99.586 131.593 100.737 131.096 101.995 130.553C105.729 128.94 110.396 126.924 114.834 123.641C119.097 120.486 122.62 116.551 125.602 113.22C126.763 111.923 127.841 110.718 128.85 109.686C130.686 107.808 132.241 106.55 133.636 106.185C134.309 106.009 134.939 106.043 135.558 106.322C136.189 106.605 136.848 107.158 137.535 108.087C138.221 109.014 138.581 109.836 138.698 110.578C138.814 111.312 138.697 111.997 138.374 112.668C137.714 114.041 136.192 115.352 134.02 116.752C132.391 117.803 130.456 118.868 128.344 120.03C127.657 120.409 126.951 120.798 126.23 121.199C123.31 122.828 120.181 124.66 117.213 126.856Z" stroke="#74AB2D" stroke-opacity="0.9"/>
<path d="M269 215C269 229.636 275.165 240 265.5 240C255.835 240 264 229.636 264 215C264 200.364 255.835 187 265.5 187C275.165 187 269 200.364 269 215Z" fill="#C42929" fill-opacity="0.9"/>
<path d="M268.5 215C268.5 218.693 268.889 222.111 269.317 225.15C269.444 226.047 269.573 226.908 269.696 227.731C269.994 229.713 270.259 231.479 270.376 233.026C270.542 235.229 270.388 236.83 269.705 237.879C269.056 238.877 267.835 239.5 265.5 239.5C263.155 239.5 262.103 238.874 261.636 237.93C261.387 237.426 261.272 236.775 261.278 235.953C261.284 235.132 261.411 234.175 261.617 233.081C261.823 231.988 262.108 230.766 262.419 229.433C263.344 225.471 264.5 220.521 264.5 215C264.5 209.696 263.432 204.524 262.528 200.146C262.176 198.441 261.849 196.857 261.619 195.432C261.202 192.84 261.116 190.841 261.652 189.503C261.911 188.857 262.313 188.371 262.905 188.039C263.508 187.7 264.345 187.5 265.5 187.5C266.653 187.5 267.529 187.7 268.194 188.046C268.853 188.39 269.335 188.892 269.682 189.55C270.393 190.898 270.542 192.901 270.375 195.48C270.251 197.414 269.956 199.603 269.634 201.992C269.529 202.77 269.422 203.569 269.316 204.387C268.889 207.703 268.5 211.308 268.5 215Z" stroke="#74AB2D" stroke-opacity="0.9"/>
<path d="M231.857 108.615C218.24 113.979 210.856 123.514 207.314 114.521C203.771 105.529 216.407 109.327 230.024 103.963C243.641 98.5991 253.083 86.1042 256.626 95.0967C260.168 104.089 245.474 103.251 231.857 108.615Z" fill="#C42929" fill-opacity="0.9"/>
<path d="M231.674 108.15C228.237 109.503 225.199 111.118 222.529 112.63C221.741 113.077 220.988 113.512 220.267 113.929C218.532 114.932 216.986 115.827 215.589 116.502C213.6 117.464 212.054 117.907 210.828 117.657C209.661 117.418 208.635 116.511 207.779 114.338C206.919 112.156 207.116 110.948 207.823 110.168C208.201 109.751 208.765 109.405 209.532 109.11C210.298 108.815 211.235 108.582 212.328 108.373C213.421 108.164 214.662 107.981 216.017 107.782C220.041 107.191 225.071 106.452 230.207 104.428C235.142 102.484 239.563 99.5951 243.305 97.1493C244.762 96.1971 246.116 95.3121 247.358 94.5764C249.617 93.2377 251.445 92.4256 252.887 92.4341C253.583 92.4381 254.182 92.6342 254.708 93.0634C255.244 93.5003 255.737 94.2053 256.16 95.28C256.583 96.3526 256.718 97.2405 256.64 97.987C256.562 98.726 256.271 99.3581 255.786 99.9223C254.792 101.078 252.983 101.95 250.523 102.741C248.678 103.334 246.532 103.862 244.192 104.438C243.43 104.625 242.647 104.818 241.848 105.02C238.605 105.837 235.108 106.797 231.674 108.15Z" stroke="#74AB2D" stroke-opacity="0.9"/>
<path d="M96 217C96 231.636 102.165 242 92.5 242C82.835 242 90.9999 231.636 90.9999 217C90.9999 202.364 82.835 189 92.5 189C102.165 189 96 202.364 96 217Z" fill="#C42929" fill-opacity="0.9"/>
<path d="M95.5 217C95.5 220.693 95.8889 224.111 96.3171 227.15C96.4435 228.047 96.5727 228.908 96.6963 229.731C96.9939 231.713 97.2592 233.479 97.3758 235.026C97.5418 237.229 97.3879 238.83 96.7052 239.879C96.0557 240.877 94.8349 241.5 92.5 241.5C90.1545 241.5 89.1034 240.874 88.6364 239.93C88.3872 239.426 88.2719 238.775 88.278 237.953C88.2842 237.132 88.4108 236.175 88.6169 235.081C88.823 233.988 89.1081 232.766 89.4195 231.433C90.3442 227.471 91.4999 222.521 91.4999 217C91.4999 211.696 90.4319 206.524 89.5279 202.146C89.1759 200.441 88.8488 198.857 88.6192 197.432C88.2016 194.84 88.1161 192.841 88.6523 191.503C88.9111 190.857 89.3131 190.371 89.9054 190.039C90.5083 189.7 91.345 189.5 92.5 189.5C93.6528 189.5 94.5286 189.7 95.1943 190.046C95.8534 190.39 96.3349 190.892 96.682 191.55C97.3927 192.898 97.5415 194.901 97.3754 197.48C97.2508 199.414 96.9559 201.603 96.6342 203.992C96.5294 204.77 96.4218 205.569 96.3164 206.387C95.8887 209.703 95.5 213.308 95.5 217Z" stroke="#74AB2D" stroke-opacity="0.9"/>
<path d="M198 262C198 276.636 204.165 287 194.5 287C184.835 287 193 276.636 193 262C193 247.364 184.835 234 194.5 234C204.165 234 198 247.364 198 262Z" fill="#C42929" fill-opacity="0.9"/>
<path d="M197.5 262C197.5 265.693 197.889 269.111 198.317 272.15C198.444 273.047 198.573 273.908 198.696 274.731C198.994 276.713 199.259 278.479 199.376 280.026C199.542 282.229 199.388 283.83 198.705 284.879C198.056 285.877 196.835 286.5 194.5 286.5C192.155 286.5 191.103 285.874 190.636 284.93C190.387 284.426 190.272 283.775 190.278 282.953C190.284 282.132 190.411 281.175 190.617 280.081C190.823 278.988 191.108 277.766 191.419 276.433C192.344 272.471 193.5 267.521 193.5 262C193.5 256.696 192.432 251.524 191.528 247.146C191.176 245.441 190.849 243.857 190.619 242.432C190.202 239.84 190.116 237.841 190.652 236.503C190.911 235.857 191.313 235.371 191.905 235.039C192.508 234.7 193.345 234.5 194.5 234.5C195.653 234.5 196.529 234.7 197.194 235.046C197.853 235.39 198.335 235.892 198.682 236.55C199.393 237.898 199.542 239.901 199.375 242.48C199.251 244.414 198.956 246.603 198.634 248.992C198.529 249.77 198.422 250.569 198.316 251.387C197.889 254.703 197.5 258.308 197.5 262Z" stroke="#74AB2D" stroke-opacity="0.9"/>
</svg>
