<svg width="383" height="373" viewBox="0 0 383 373" fill="none" xmlns="http://www.w3.org/2000/svg">
<path d="M130.51 85.9467C133 85.5646 134.427 86.0758 135.135 86.9032C135.847 87.7358 135.986 89.0678 135.483 90.6815C134.478 93.9005 131.035 97.7682 126.253 99.3365C121.607 100.86 116.762 101.748 110.69 102.634C108.629 102.934 106.424 103.235 104.039 103.56C99.411 104.19 94.104 104.913 87.846 105.91C78.3906 107.415 68.6913 105.395 59.5066 102.389C55.2554 100.997 51.0383 99.9472 47.12 98.9761L46.9528 98.9346C43.0904 97.9774 39.5342 97.096 36.4936 96.0336C33.4056 94.9547 30.9041 93.7066 29.1772 92.0498C27.4702 90.4122 26.5 88.3568 26.5 85.5904C26.5 83.7869 26.8767 82.738 27.4569 82.1661C28.0232 81.608 28.9009 81.3925 30.1979 81.5499C31.4933 81.7071 33.1066 82.226 35.0187 83.0072C36.925 83.786 39.0922 84.81 41.4909 85.9568C41.7603 86.0857 42.0326 86.216 42.3077 86.3477C51.798 90.8908 64.6094 97.0236 78.2188 97.0236C87.0322 97.0236 96.9373 94.7308 106.205 92.2084C108.683 91.5341 111.113 90.8442 113.465 90.1763C119.945 88.3365 125.834 86.6644 130.51 85.9467Z" fill="#F8F5F5" fill-opacity="0.9" stroke="#D4E4CF"/>
<path d="M204.662 242.693C202.724 245.38 199.083 245.851 194.063 244.542C189.076 243.242 182.95 240.234 176.353 236.32C165.186 229.696 152.779 220.547 142.435 212.92C140.563 211.539 138.759 210.209 137.042 208.952C126.056 200.913 115.721 198.94 109.051 197.667C108.868 197.631 108.687 197.597 108.509 197.563C106.844 197.244 105.451 196.966 104.353 196.637C103.241 196.304 102.517 195.943 102.119 195.511C101.764 195.125 101.621 194.63 101.824 193.841C102.036 193.017 102.617 191.926 103.675 190.46C104.678 189.069 105.912 188.233 107.349 187.842C108.796 187.448 110.483 187.498 112.392 187.945C116.22 188.841 120.816 191.302 125.899 194.681C130.972 198.053 136.481 202.308 142.132 206.753C143.085 207.503 144.042 208.258 145.002 209.015C149.726 212.741 154.51 216.515 159.168 219.924C169.796 227.702 182.511 230.752 192.013 233.031C192.602 233.172 193.179 233.31 193.742 233.447C196.16 234.032 198.32 234.578 200.138 235.16C201.963 235.743 203.405 236.351 204.406 237.046C205.4 237.735 205.902 238.468 205.978 239.3C206.057 240.156 205.701 241.253 204.662 242.693Z" fill="#F8F5F5" fill-opacity="0.9" stroke="#D4E4CF"/>
<path d="M245.69 85.2755C247.629 87.9633 246.949 91.5969 244.161 96.0013C241.393 100.376 236.659 105.315 230.925 110.426C221.22 119.076 208.747 128.135 198.349 135.687C196.468 137.053 194.654 138.371 192.937 139.627C181.951 147.667 176.894 156.957 173.631 162.953C173.541 163.119 173.453 163.281 173.366 163.441C172.55 164.937 171.857 166.185 171.207 167.136C170.549 168.099 169.985 168.68 169.454 168.928C168.979 169.149 168.468 169.133 167.786 168.695C167.074 168.237 166.223 167.343 165.165 165.877C164.162 164.486 163.753 163.046 163.828 161.548C163.904 160.04 164.473 158.439 165.484 156.749C167.514 153.359 171.257 149.716 176.018 145.891C180.77 142.074 186.49 138.111 192.433 134.071C193.435 133.39 194.444 132.706 195.455 132.021C200.434 128.647 205.475 125.23 210.134 121.821C220.762 114.043 227.571 102.805 232.659 94.4076C232.974 93.887 233.283 93.3773 233.586 92.8801C234.885 90.7446 236.068 88.844 237.18 87.2818C238.294 85.7143 239.314 84.5209 240.279 83.7764C241.238 83.0368 242.084 82.7828 242.893 82.9664C243.726 83.1555 244.652 83.836 245.69 85.2755Z" fill="#F8F5F5" fill-opacity="0.9" stroke="#D4E4CF"/>
<path d="M372.351 150.128C369.052 156.402 364.224 164.507 357.56 174.834C353.354 165.827 348.883 161.508 344.085 160.21C339.089 158.858 333.824 160.798 328.441 163.881C325.76 165.416 323.025 167.247 320.262 169.11C320.123 169.204 319.984 169.297 319.845 169.391C317.206 171.17 314.538 172.969 311.818 174.597C306.1 178.019 300.233 180.635 294.14 180.635C287.715 180.635 281.053 182.996 274.913 186.115C268.78 189.231 263.128 193.124 258.704 196.223C258.407 196.431 258.117 196.634 257.833 196.834C255.981 198.132 254.384 199.253 253.073 200.09C252.318 200.572 251.683 200.943 251.167 201.195C250.639 201.453 250.311 201.548 250.123 201.555C249.984 201.561 249.864 201.523 249.802 201.324C249.733 201.102 249.751 200.711 249.922 200.079C250.263 198.822 251.156 196.792 252.722 193.768C265.105 169.845 293.783 154.991 318.671 154.991C321.928 154.991 325.864 153.936 330.1 152.306C334.341 150.674 338.931 148.447 343.524 146.062C346.447 144.543 349.392 142.951 352.253 141.403C353.88 140.523 355.48 139.658 357.034 138.829C361.341 136.531 365.307 134.507 368.628 133.157C371.975 131.798 374.525 131.182 376.121 131.548C377.669 131.902 378.479 133.227 377.999 136.187C377.519 139.148 375.76 143.644 372.351 150.128Z" fill="#F8F5F5" fill-opacity="0.9" stroke="#D4E4CF"/>
<path d="M26.7236 87.7189L34.4387 89.6545L42.8775 90.6727L47.8414 92.4545" stroke="#E5E5E5" stroke-opacity="0.9"/>
<path d="M47.8414 92.4546L53.3018 96.2728L60.2513 98.5637L67.6973 99.0727L72.8125 100.612" stroke="#E5E5E5" stroke-opacity="0.9"/>
<line y1="-0.5" x2="21.8474" y2="-0.5" transform="matrix(0.999729 -0.0232995 0.0883059 0.996093 72.6613 100.854)" stroke="#E5E5E5" stroke-opacity="0.9"/>
<path d="M94.0063 100.091L105.92 99.3273L115.351 97.5455" stroke="#E2E2E2"/>
<path d="M115.187 97.5597L120.409 93.4687L135.119 88.4359" stroke="#E5E5E5" stroke-opacity="0.9"/>
<path d="M257.493 188.077L290.35 171.571" stroke="#E5E5E5" stroke-opacity="0.9"/>
<path d="M290.35 171.571L303.752 170.304L318.095 162.703" stroke="#E5E5E5" stroke-opacity="0.9"/>
<path d="M318.148 162.696L331.054 156.357L342.929 155.093" stroke="#E5E5E5" stroke-opacity="0.9"/>
<path d="M342.968 155.09L353.392 147.482L362.75 144.961" stroke="#E5E5E5" stroke-opacity="0.9"/>
<path d="M362.327 144.946L368.098 146.214L363.134 163.964" stroke="#E5E5E5" stroke-opacity="0.9"/>
<path d="M209.5 44C209.5 58.0333 196.793 69.5 181 69.5C165.207 69.5 152.5 58.0333 152.5 44C152.5 29.9667 165.207 18.5 181 18.5C196.793 18.5 209.5 29.9667 209.5 44Z" fill="#F8F5F5" fill-opacity="0.9" stroke="#ACD39E"/>
<path d="M336.543 74.2023C339.379 80.6152 339.474 85.7005 337.978 89.6405C336.479 93.5869 333.352 96.4677 329.584 98.4035C325.815 100.34 321.435 101.313 317.505 101.455C313.553 101.597 310.154 100.896 308.287 99.5903C306.296 98.1981 303.527 96.7857 300.523 95.2541L300.321 95.1509C297.224 93.5715 293.871 91.8532 290.77 89.8656C284.543 85.8749 279.5 80.9039 279.5 74C279.5 59.9667 292.207 48.5 308 48.5C316.065 48.5 320.226 48.5235 323.869 51.6304C325.706 53.1968 327.435 55.5717 329.431 59.2093C331.426 62.8445 333.667 67.7012 336.543 74.2023Z" fill="#F8F5F5" fill-opacity="0.9" stroke="#ACD39E"/>
<path d="M366.5 249C366.5 263.033 353.793 274.5 338 274.5C322.207 274.5 309.5 263.033 309.5 249C309.5 241.883 311.109 233.722 314.68 227.36C318.244 221.01 323.726 216.5 331.5 216.5C339.333 216.5 348.092 221.072 354.914 227.48C361.742 233.893 366.5 242.02 366.5 249Z" fill="#F8F5F5" fill-opacity="0.9" stroke="#ACD39E"/>
<path d="M278.5 313C278.5 327.033 265.793 338.5 250 338.5C234.207 338.5 221.5 327.033 221.5 313C221.5 298.967 234.207 287.5 250 287.5C265.793 287.5 278.5 298.967 278.5 313Z" fill="#F8F5F5" fill-opacity="0.9" stroke="#ACD39E"/>
<path d="M77.5 164C77.5 178.033 64.7929 189.5 49 189.5C33.2071 189.5 20.5 178.033 20.5 164C20.5 149.967 33.2071 138.5 49 138.5C64.7929 138.5 77.5 149.967 77.5 164Z" fill="#F8F5F5" fill-opacity="0.9" stroke="#ACD39E"/>
<path d="M140.5 266.249C140.5 276.323 134.557 291.502 125.956 304.188C121.662 310.522 116.726 316.203 111.574 320.296C106.416 324.393 101.088 326.863 96 326.863C75.2767 326.863 58.5 310.509 58.5 290.363C58.5 270.217 75.2767 253.863 96 253.863C100.609 253.863 105.363 253.5 109.956 253.15C110.615 253.1 111.271 253.05 111.922 253.001C117.129 252.612 122.062 252.311 126.331 252.641C130.608 252.972 134.139 253.932 136.598 255.998C139.035 258.043 140.5 261.244 140.5 266.249Z" fill="#F8F5F5" fill-opacity="0.9" stroke="#ACD39E"/>
<path d="M200.5 43.5C200.5 52.2843 192.496 59.5 182.5 59.5C172.504 59.5 164.5 52.2843 164.5 43.5C164.5 34.7157 172.504 27.5 182.5 27.5C192.496 27.5 200.5 34.7157 200.5 43.5Z" fill="#F8F5F5" fill-opacity="0.9" stroke="#ACD39E"/>
<path d="M325 73.4048C325 74.4123 325.036 75.4351 325.072 76.4435C325.077 76.5862 325.082 76.7286 325.087 76.8706C325.127 78.0209 325.16 79.1491 325.133 80.2368C325.079 82.4205 324.785 84.3771 323.879 85.9473C322.113 89.0108 317.806 90.9077 307.069 89.4096C301.706 88.6613 297.901 87.8302 295.207 86.8714C292.511 85.9125 290.975 84.8428 290.089 83.6491C289.208 82.4617 288.92 81.0846 288.867 79.3897C288.84 78.5404 288.873 77.627 288.913 76.6271C288.916 76.5508 288.919 76.4739 288.922 76.3966C288.96 75.4665 289 74.4676 289 73.4048C289 64.6205 297.004 57.4048 307 57.4048C316.996 57.4048 325 64.6205 325 73.4048Z" fill="#F8F5F5" fill-opacity="0.9" stroke="#ACD39E"/>
<path d="M357.5 248.5C357.5 257.284 349.496 264.5 339.5 264.5C334.497 264.5 328.716 262.687 324.191 259.748C319.65 256.799 316.5 252.806 316.5 248.5C316.5 244.194 319.65 240.201 324.191 237.252C328.716 234.313 334.497 232.5 339.5 232.5C349.496 232.5 357.5 239.716 357.5 248.5Z" fill="#F8F5F5" fill-opacity="0.9" stroke="#ACD39E"/>
<path d="M269.5 312.5C269.5 321.284 261.496 328.5 251.5 328.5C241.504 328.5 233.5 321.284 233.5 312.5C233.5 303.716 241.504 296.5 251.5 296.5C261.496 296.5 269.5 303.716 269.5 312.5Z" fill="#F8F5F5" fill-opacity="0.9" stroke="#ACD39E"/>
<path d="M68.5 163.5C68.5 172.284 60.4964 179.5 50.5 179.5C40.5036 179.5 32.5 172.284 32.5 163.5C32.5 154.716 40.5036 147.5 50.5 147.5C60.4964 147.5 68.5 154.716 68.5 163.5Z" fill="#F8F5F5" fill-opacity="0.9" stroke="#ACD39E"/>
<path d="M118.595 289.456C115.333 293.973 113.028 297.705 111.201 300.758C110.875 301.301 110.566 301.822 110.27 302.32C108.893 304.635 107.797 306.48 106.696 307.949C105.37 309.717 104.067 310.897 102.316 311.649C100.552 312.407 98.2869 312.749 95 312.749C88.5557 312.749 82.3035 309.095 77.831 304.344C75.5994 301.974 73.8292 299.348 72.7109 296.806C71.5895 294.256 71.1407 291.829 71.4924 289.836C71.7439 288.411 71.8184 287.021 71.8884 285.715C71.9238 285.054 71.9581 284.415 72.0136 283.802C72.1818 281.943 72.5443 280.206 73.6703 278.457C75.9409 274.932 81.405 271.224 95.1555 266.724C101.989 264.488 107.67 263.723 112.139 264.091C116.607 264.459 119.829 265.954 121.812 268.205C125.755 272.676 125.059 280.505 118.595 289.456Z" fill="#F8F5F5" fill-opacity="0.9" stroke="#ACD39E"/>
<path d="M189.5 44C189.5 48.6693 185.496 52.5 180.5 52.5C175.504 52.5 171.5 48.6693 171.5 44C171.5 39.3307 175.504 35.5 180.5 35.5C185.496 35.5 189.5 39.3307 189.5 44Z" fill="#F8F5F5" fill-opacity="0.9" stroke="#ACD39E"/>
<path d="M319 73.9048C319 76.1974 317.762 78.3111 315.685 79.8687C313.608 81.4265 310.716 82.4048 307.5 82.4048C304.284 82.4048 301.392 81.4265 299.315 79.8687C297.238 78.3111 296 76.1974 296 73.9048C296 71.6122 297.238 69.4985 299.315 67.9408C301.392 66.3831 304.284 65.4048 307.5 65.4048C310.716 65.4048 313.608 66.3831 315.685 67.9408C317.762 69.4985 319 71.6122 319 73.9048Z" fill="#F8F5F5" fill-opacity="0.9" stroke="#ACD39E"/>
<path d="M346.5 249C346.5 253.669 342.496 257.5 337.5 257.5C332.504 257.5 328.5 253.669 328.5 249C328.5 244.331 332.504 240.5 337.5 240.5C342.496 240.5 346.5 244.331 346.5 249Z" fill="#F8F5F5" fill-opacity="0.9" stroke="#ACD39E"/>
<path d="M261 313C261 315.251 259.463 317.369 257.182 318.953C254.912 320.531 252.01 321.5 249.5 321.5C244.504 321.5 240.5 317.669 240.5 313C240.5 308.331 244.504 304.5 249.5 304.5C252.01 304.5 254.912 305.469 257.182 307.047C259.463 308.631 261 310.749 261 313Z" fill="#F8F5F5" fill-opacity="0.9" stroke="#ACD39E"/>
<path d="M60 164C60 166.251 58.4627 168.369 56.1822 169.953C53.9117 171.531 51.0097 172.5 48.5 172.5C43.5036 172.5 39.5 168.669 39.5 164C39.5 159.331 43.5036 155.5 48.5 155.5C51.0097 155.5 53.9117 156.469 56.1822 158.047C58.4627 159.631 60 161.749 60 164Z" fill="#F8F5F5" fill-opacity="0.9" stroke="#ACD39E"/>
<path d="M95.7111 303.172L95.7109 303.172L95.7096 303.172L95.7037 303.169L95.6786 303.157C95.6562 303.146 95.6223 303.13 95.5777 303.109C95.4886 303.066 95.357 303.001 95.1889 302.916C94.8525 302.745 94.3706 302.493 93.7916 302.168C92.6326 301.517 91.0902 300.578 89.5507 299.419C88.0087 298.258 86.4859 296.889 85.3525 295.385C84.2178 293.879 83.5 292.273 83.5 290.626C83.5 283.704 88.8909 278.126 95.5 278.126C96.8905 278.126 98.6238 277.855 100.385 277.58C100.872 277.504 101.36 277.428 101.844 277.357C104.131 277.021 106.328 276.8 107.982 277.16C108.798 277.338 109.442 277.65 109.9 278.124C110.351 278.593 110.663 279.265 110.738 280.247C110.891 282.251 110.048 285.442 107.553 290.401C105.061 295.356 103.045 298.623 101.431 300.739C99.8076 302.867 98.6241 303.785 97.811 304.117C97.4139 304.279 97.1172 304.296 96.9003 304.26C96.6829 304.224 96.5106 304.128 96.3719 304.01C96.2303 303.889 96.1267 303.746 96.0578 303.629C96.0239 303.571 96.0001 303.523 95.9855 303.491C95.9782 303.475 95.9733 303.463 95.9708 303.457L95.9689 303.452L95.9686 303.451L95.8991 303.26L95.7111 303.172L95.7111 303.172Z" fill="#F8F5F5" fill-opacity="0.9" stroke="#ACD39E"/>
</svg>
