<svg width="445" height="407" viewBox="0 0 445 407" fill="none" xmlns="http://www.w3.org/2000/svg">
<line x1="92.9534" y1="125.544" x2="63.6817" y2="152.156" stroke="#FAFF00" stroke-width="5"/>
<line x1="141.953" y1="111.544" x2="112.682" y2="138.156" stroke="#FAFF00" stroke-width="5"/>
<line x1="184.562" y1="211.606" x2="175.562" y2="247.606" stroke="#FAFF00" stroke-width="5"/>
<line x1="162.021" y1="223.662" x2="199.021" y2="237.662" stroke="#FAFF00" stroke-width="5"/>
<line x1="203.584" y1="160.49" x2="211.656" y2="199.218" stroke="#FAFF00" stroke-width="5"/>
<path d="M345.6 41L334.985 77.6618" stroke="#FAFF00" stroke-width="5"/>
<line x1="235.021" y1="191.662" x2="272.021" y2="205.662" stroke="#FAFF00" stroke-width="5"/>
<line x1="267.021" y1="153.662" x2="304.021" y2="167.662" stroke="#FAFF00" stroke-width="5"/>
<line x1="303.24" y1="215.012" x2="319.473" y2="178.936" stroke="#FAFF00" stroke-width="5"/>
<line x1="251.523" y1="152.823" x2="238.497" y2="190.177" stroke="#FAFF00" stroke-width="5"/>
<line x1="346.592" y1="223.636" x2="343.643" y2="184.186" stroke="#FAFF00" stroke-width="5"/>
<line x1="346.021" y1="238.662" x2="383.021" y2="252.662" stroke="#FAFF00" stroke-width="5"/>
<line x1="379.592" y1="219.636" x2="376.643" y2="180.186" stroke="#FAFF00" stroke-width="5"/>
<line x1="277.584" y1="112.49" x2="285.656" y2="151.218" stroke="#FAFF00" stroke-width="5"/>
<line x1="390.021" y1="137.662" x2="427.021" y2="151.662" stroke="#FAFF00" stroke-width="5"/>
<line x1="403.592" y1="203.636" x2="400.643" y2="164.186" stroke="#FAFF00" stroke-width="5"/>
<line x1="350.021" y1="146.662" x2="387.021" y2="160.662" stroke="#FAFF00" stroke-width="5"/>
<line x1="343.617" y1="169.911" x2="340.669" y2="130.461" stroke="#FAFF00" stroke-width="5"/>
<line x1="187.297" y1="118.541" x2="200.681" y2="155.768" stroke="#FAFF00" stroke-width="5"/>
<line x1="65.5917" y1="108.636" x2="62.6431" y2="69.1863" stroke="#FAFF00" stroke-width="5"/>
<line x1="298.021" y1="226.662" x2="335.021" y2="240.662" stroke="#FAFF00" stroke-width="5"/>
<line x1="247.021" y1="72.6618" x2="284.021" y2="86.6618" stroke="#FAFF00" stroke-width="5"/>
<line x1="227.021" y1="55.6618" x2="264.021" y2="69.6618" stroke="#FAFF00" stroke-width="5"/>
<line x1="350.021" y1="92.6618" x2="387.021" y2="106.662" stroke="#FAFF00" stroke-width="5"/>
<line x1="187.021" y1="21.6618" x2="224.021" y2="35.6618" stroke="#FAFF00" stroke-width="5"/>
<line x1="275.306" y1="44.7585" x2="294.951" y2="79.0962" stroke="#FAFF00" stroke-width="5"/>
<line x1="295.306" y1="42.7585" x2="314.951" y2="77.0962" stroke="#FAFF00" stroke-width="5"/>
<line x1="260.306" y1="87.7585" x2="279.951" y2="122.096" stroke="#FAFF00" stroke-width="5"/>
<line x1="179.021" y1="61.6618" x2="216.021" y2="75.6618" stroke="#FAFF00" stroke-width="5"/>
<line x1="107.388" y1="63.9129" x2="124.589" y2="99.5373" stroke="#FAFF00" stroke-width="5"/>
<line x1="156.306" y1="70.7585" x2="175.951" y2="105.096" stroke="#FAFF00" stroke-width="5"/>
<line x1="116.021" y1="40.6618" x2="153.021" y2="54.6618" stroke="#FAFF00" stroke-width="5"/>
<line x1="149.021" y1="34.6618" x2="186.021" y2="48.6618" stroke="#FAFF00" stroke-width="5"/>
<line x1="146.953" y1="222.544" x2="117.682" y2="249.156" stroke="#FAFF00" stroke-width="5"/>
<line x1="167.021" y1="121.662" x2="204.021" y2="135.662" stroke="#FAFF00" stroke-width="5"/>
<path d="M158.021 135.662L144.636 159.5" stroke="#FAFF00" stroke-width="5"/>
<line x1="150.508" y1="151.209" x2="164.508" y2="193.209" stroke="#FAFF00" stroke-width="5"/>
<path d="M244.136 134.238L279.751 116.576" stroke="#FAFF00" stroke-width="5"/>
<line x1="357.021" y1="59.6618" x2="394.021" y2="73.6618" stroke="#FAFF00" stroke-width="5"/>
<line x1="122.626" y1="191.992" x2="153.626" y2="214.992" stroke="#FAFF00" stroke-width="5"/>
<line x1="377.336" y1="269.812" x2="404.336" y2="319.812" stroke="#FAFF00" stroke-width="5"/>
<line x1="217.021" y1="214.662" x2="254.021" y2="228.662" stroke="#FAFF00" stroke-width="5"/>
<line x1="95.021" y1="233.662" x2="132.021" y2="247.662" stroke="#FAFF00" stroke-width="5"/>
<path d="M115.136 235.5L123.021 261.662" stroke="#FAFF00" stroke-width="5"/>
<line x1="77.021" y1="261.662" x2="114.021" y2="275.662" stroke="#FAFF00" stroke-width="5"/>
<line x1="285.081" y1="215.25" x2="265.301" y2="249.51" stroke="#FAFF00" stroke-width="5"/>
<line x1="73.021" y1="303.662" x2="110.021" y2="317.662" stroke="#FAFF00" stroke-width="5"/>
<line x1="29.0253" y1="262.502" x2="74.0253" y2="260.502" stroke="#FAFF00" stroke-width="5"/>
<line x1="112.953" y1="158.544" x2="83.6817" y2="185.156" stroke="#FAFF00" stroke-width="5"/>
<line x1="201.021" y1="106.662" x2="238.021" y2="120.662" stroke="#FAFF00" stroke-width="5"/>
<line x1="322.306" y1="285.759" x2="341.951" y2="320.096" stroke="#FAFF00" stroke-width="5"/>
<line x1="297.306" y1="112.759" x2="316.951" y2="147.096" stroke="#FAFF00" stroke-width="5"/>
<line x1="166.984" y1="162.59" x2="186.629" y2="196.927" stroke="#FAFF00" stroke-width="5"/>
<line x1="78.0897" y1="285.85" x2="48.8179" y2="312.461" stroke="#FAFF00" stroke-width="5"/>
<line x1="344.09" y1="300.85" x2="314.818" y2="327.461" stroke="#FAFF00" stroke-width="5"/>
<line x1="113.021" y1="165.662" x2="150.021" y2="179.662" stroke="#FAFF00" stroke-width="5"/>
<line x1="348.616" y1="103.379" x2="310.031" y2="112.109" stroke="#FAFF00" stroke-width="5"/>
<line x1="329.09" y1="255.85" x2="299.818" y2="282.461" stroke="#FAFF00" stroke-width="5"/>
<line x1="221.953" y1="277.544" x2="192.682" y2="304.156" stroke="#FAFF00" stroke-width="5"/>
<line x1="143.021" y1="241.662" x2="180.021" y2="255.662" stroke="#FAFF00" stroke-width="5"/>
<line x1="245.021" y1="217.662" x2="282.021" y2="231.662" stroke="#FAFF00" stroke-width="5"/>
<line x1="158.635" y1="258.066" x2="157.635" y2="296.066" stroke="#FAFF00" stroke-width="5"/>
<line x1="256.021" y1="256.662" x2="293.021" y2="270.662" stroke="#FAFF00" stroke-width="5"/>
<line x1="79.021" y1="332.662" x2="116.021" y2="346.662" stroke="#FAFF00" stroke-width="5"/>
<line x1="133.021" y1="291.662" x2="170.021" y2="305.662" stroke="#FAFF00" stroke-width="5"/>
<line x1="400.021" y1="249.662" x2="437.021" y2="263.662" stroke="#FAFF00" stroke-width="5"/>
<line x1="54.0897" y1="114.85" x2="24.8179" y2="141.461" stroke="#FAFF00" stroke-width="5"/>
<line x1="160.439" y1="318.843" x2="132.356" y2="346.706" stroke="#FAFF00" stroke-width="5"/>
<line x1="404.81" y1="271.857" x2="362.81" y2="309.72" stroke="#FAFF00" stroke-width="5"/>
<line x1="150.98" y1="362.775" x2="122.897" y2="390.638" stroke="#FAFF00" stroke-width="5"/>
<line x1="167.021" y1="4.66178" x2="204.021" y2="18.6618" stroke="#FAFF00" stroke-width="5"/>
<line x1="400.021" y1="211.662" x2="437.021" y2="225.662" stroke="#FAFF00" stroke-width="5"/>
<line x1="441.617" y1="220.911" x2="438.669" y2="181.461" stroke="#FAFF00" stroke-width="5"/>
<line x1="199.128" y1="239.489" x2="221.128" y2="268.489" stroke="#FAFF00" stroke-width="5"/>
<line x1="225.021" y1="278.662" x2="262.021" y2="292.662" stroke="#FAFF00" stroke-width="5"/>
<line x1="286.202" y1="281.162" x2="283.631" y2="320.639" stroke="#FAFF00" stroke-width="5"/>
<line x1="332.021" y1="267.662" x2="369.021" y2="281.662" stroke="#FAFF00" stroke-width="5"/>
<line x1="240.439" y1="317.843" x2="212.356" y2="345.706" stroke="#FAFF00" stroke-width="5"/>
<line x1="279.98" y1="367.775" x2="251.897" y2="395.638" stroke="#FAFF00" stroke-width="5"/>
<line x1="282.021" y1="339.662" x2="319.021" y2="353.662" stroke="#FAFF00" stroke-width="5"/>
<line x1="189.021" y1="362.662" x2="226.021" y2="376.662" stroke="#FAFF00" stroke-width="5"/>
<line x1="195.021" y1="303.662" x2="232.021" y2="317.662" stroke="#FAFF00" stroke-width="5"/>
<line x1="254.98" y1="343.775" x2="226.897" y2="371.638" stroke="#FAFF00" stroke-width="5"/>
<line x1="182.439" y1="332.843" x2="154.356" y2="360.706" stroke="#FAFF00" stroke-width="5"/>
<line x1="111.021" y1="294.662" x2="148.021" y2="308.662" stroke="#FAFF00" stroke-width="5"/>
<path d="M72.2065 187L88.2065 226.5" stroke="#FAFF00" stroke-width="5"/>
<line x1="68.9534" y1="210.544" x2="39.6817" y2="237.156" stroke="#FAFF00" stroke-width="5"/>
<line x1="30.9535" y1="169.544" x2="1.68172" y2="196.156" stroke="#FAFF00" stroke-width="5"/>
<line x1="177.021" y1="390.662" x2="214.021" y2="404.662" stroke="#FAFF00" stroke-width="5"/>
<line x1="268.021" y1="321.662" x2="305.021" y2="335.662" stroke="#FAFF00" stroke-width="5"/>
<line x1="201.021" y1="150.662" x2="238.021" y2="164.662" stroke="#FAFF00" stroke-width="5"/>
<line x1="218.515" y1="221.23" x2="229.515" y2="255.23" stroke="#FAFF00" stroke-width="5"/>
<line x1="254.021" y1="196.662" x2="291.021" y2="210.662" stroke="#FAFF00" stroke-width="5"/>
<line x1="73.021" y1="126.662" x2="110.021" y2="140.662" stroke="#FAFF00" stroke-width="5"/>
<line x1="206.021" y1="85.6618" x2="243.021" y2="99.6618" stroke="#FAFF00" stroke-width="5"/>
<line x1="248.021" y1="2.66178" x2="285.021" y2="16.6618" stroke="#FAFF00" stroke-width="5"/>
<line x1="366.09" y1="342.85" x2="336.818" y2="369.461" stroke="#FAFF00" stroke-width="5"/>
</svg>
