<svg width="445" height="449" viewBox="0 0 445 449" fill="none" xmlns="http://www.w3.org/2000/svg">
<line x1="92.9534" y1="134.544" x2="63.6817" y2="161.156" stroke="#FAFF00" stroke-width="5"/>
<line x1="141.953" y1="120.544" x2="112.682" y2="147.156" stroke="#FAFF00" stroke-width="5"/>
<line x1="184.562" y1="220.606" x2="175.562" y2="256.606" stroke="#FAFF00" stroke-width="5"/>
<line x1="162.021" y1="232.662" x2="199.021" y2="246.662" stroke="#FAFF00" stroke-width="5"/>
<line x1="203.584" y1="169.49" x2="211.656" y2="208.218" stroke="#FAFF00" stroke-width="5"/>
<path d="M345.6 50L334.985 86.6618" stroke="#FAFF00" stroke-width="5"/>
<line x1="235.021" y1="200.662" x2="272.021" y2="214.662" stroke="#FAFF00" stroke-width="5"/>
<line x1="267.021" y1="162.662" x2="304.021" y2="176.662" stroke="#FAFF00" stroke-width="5"/>
<line x1="303.24" y1="224.012" x2="319.473" y2="187.936" stroke="#FAFF00" stroke-width="5"/>
<line x1="251.523" y1="161.823" x2="238.497" y2="199.177" stroke="#FAFF00" stroke-width="5"/>
<line x1="346.592" y1="232.636" x2="343.643" y2="193.186" stroke="#FAFF00" stroke-width="5"/>
<line x1="346.021" y1="247.662" x2="383.021" y2="261.662" stroke="#FAFF00" stroke-width="5"/>
<line x1="379.592" y1="228.636" x2="376.643" y2="189.186" stroke="#FAFF00" stroke-width="5"/>
<line x1="277.584" y1="121.49" x2="285.656" y2="160.218" stroke="#FAFF00" stroke-width="5"/>
<line x1="390.021" y1="146.662" x2="427.021" y2="160.662" stroke="#FAFF00" stroke-width="5"/>
<line x1="403.592" y1="212.636" x2="400.643" y2="173.186" stroke="#FAFF00" stroke-width="5"/>
<line x1="350.021" y1="155.662" x2="387.021" y2="169.662" stroke="#FAFF00" stroke-width="5"/>
<line x1="343.617" y1="178.911" x2="340.669" y2="139.461" stroke="#FAFF00" stroke-width="5"/>
<line x1="187.297" y1="127.541" x2="200.681" y2="164.768" stroke="#FAFF00" stroke-width="5"/>
<line x1="65.5917" y1="117.636" x2="62.6431" y2="78.1863" stroke="#FAFF00" stroke-width="5"/>
<line x1="298.021" y1="235.662" x2="335.021" y2="249.662" stroke="#FAFF00" stroke-width="5"/>
<line x1="247.021" y1="81.6618" x2="284.021" y2="95.6618" stroke="#FAFF00" stroke-width="5"/>
<line x1="227.021" y1="64.6618" x2="264.021" y2="78.6618" stroke="#FAFF00" stroke-width="5"/>
<line x1="350.021" y1="101.662" x2="387.021" y2="115.662" stroke="#FAFF00" stroke-width="5"/>
<line x1="187.021" y1="30.6618" x2="224.021" y2="44.6618" stroke="#FAFF00" stroke-width="5"/>
<line x1="275.306" y1="53.7585" x2="294.951" y2="88.0962" stroke="#FAFF00" stroke-width="5"/>
<line x1="295.306" y1="51.7585" x2="314.951" y2="86.0962" stroke="#FAFF00" stroke-width="5"/>
<line x1="260.306" y1="96.7585" x2="279.951" y2="131.096" stroke="#FAFF00" stroke-width="5"/>
<line x1="179.021" y1="70.6618" x2="216.021" y2="84.6618" stroke="#FAFF00" stroke-width="5"/>
<line x1="107.388" y1="72.9129" x2="124.589" y2="108.537" stroke="#FAFF00" stroke-width="5"/>
<line x1="156.306" y1="79.7585" x2="175.951" y2="114.096" stroke="#FAFF00" stroke-width="5"/>
<line x1="116.021" y1="49.6618" x2="153.021" y2="63.6618" stroke="#FAFF00" stroke-width="5"/>
<line x1="149.021" y1="43.6618" x2="186.021" y2="57.6618" stroke="#FAFF00" stroke-width="5"/>
<line x1="146.953" y1="231.544" x2="117.682" y2="258.156" stroke="#FAFF00" stroke-width="5"/>
<line x1="167.021" y1="130.662" x2="204.021" y2="144.662" stroke="#FAFF00" stroke-width="5"/>
<path d="M158.021 144.662L144.636 168.5" stroke="#FAFF00" stroke-width="5"/>
<line x1="150.508" y1="160.209" x2="164.508" y2="202.209" stroke="#FAFF00" stroke-width="5"/>
<path d="M244.136 143.238L279.751 125.576" stroke="#FAFF00" stroke-width="5"/>
<line x1="357.021" y1="68.6618" x2="394.021" y2="82.6618" stroke="#FAFF00" stroke-width="5"/>
<line x1="122.626" y1="200.992" x2="153.626" y2="223.992" stroke="#FAFF00" stroke-width="5"/>
<line x1="377.336" y1="278.812" x2="404.336" y2="328.812" stroke="#FAFF00" stroke-width="5"/>
<line x1="217.021" y1="223.662" x2="254.021" y2="237.662" stroke="#FAFF00" stroke-width="5"/>
<line x1="95.021" y1="242.662" x2="132.021" y2="256.662" stroke="#FAFF00" stroke-width="5"/>
<path d="M115.136 244.5L123.021 270.662" stroke="#FAFF00" stroke-width="5"/>
<line x1="77.021" y1="270.662" x2="114.021" y2="284.662" stroke="#FAFF00" stroke-width="5"/>
<line x1="285.081" y1="224.25" x2="265.301" y2="258.51" stroke="#FAFF00" stroke-width="5"/>
<line x1="73.021" y1="312.662" x2="110.021" y2="326.662" stroke="#FAFF00" stroke-width="5"/>
<line x1="29.0253" y1="271.502" x2="74.0253" y2="269.502" stroke="#FAFF00" stroke-width="5"/>
<line x1="112.953" y1="167.544" x2="83.6817" y2="194.156" stroke="#FAFF00" stroke-width="5"/>
<line x1="201.021" y1="115.662" x2="238.021" y2="129.662" stroke="#FAFF00" stroke-width="5"/>
<line x1="322.306" y1="294.759" x2="341.951" y2="329.096" stroke="#FAFF00" stroke-width="5"/>
<line x1="297.306" y1="121.759" x2="316.951" y2="156.096" stroke="#FAFF00" stroke-width="5"/>
<line x1="166.984" y1="171.59" x2="186.629" y2="205.927" stroke="#FAFF00" stroke-width="5"/>
<line x1="78.0897" y1="294.85" x2="48.8179" y2="321.461" stroke="#FAFF00" stroke-width="5"/>
<line x1="344.09" y1="309.85" x2="314.818" y2="336.461" stroke="#FAFF00" stroke-width="5"/>
<line x1="113.021" y1="174.662" x2="150.021" y2="188.662" stroke="#FAFF00" stroke-width="5"/>
<line x1="348.616" y1="112.379" x2="310.031" y2="121.109" stroke="#FAFF00" stroke-width="5"/>
<line x1="329.09" y1="264.85" x2="299.818" y2="291.461" stroke="#FAFF00" stroke-width="5"/>
<line x1="221.953" y1="286.544" x2="192.682" y2="313.156" stroke="#FAFF00" stroke-width="5"/>
<line x1="143.021" y1="250.662" x2="180.021" y2="264.662" stroke="#FAFF00" stroke-width="5"/>
<line x1="245.021" y1="226.662" x2="282.021" y2="240.662" stroke="#FAFF00" stroke-width="5"/>
<line x1="158.635" y1="267.066" x2="157.635" y2="305.066" stroke="#FAFF00" stroke-width="5"/>
<line x1="256.021" y1="265.662" x2="293.021" y2="279.662" stroke="#FAFF00" stroke-width="5"/>
<line x1="79.021" y1="341.662" x2="116.021" y2="355.662" stroke="#FAFF00" stroke-width="5"/>
<line x1="133.021" y1="300.662" x2="170.021" y2="314.662" stroke="#FAFF00" stroke-width="5"/>
<line x1="400.021" y1="258.662" x2="437.021" y2="272.662" stroke="#FAFF00" stroke-width="5"/>
<line x1="54.0897" y1="123.85" x2="24.8179" y2="150.461" stroke="#FAFF00" stroke-width="5"/>
<line x1="160.439" y1="327.843" x2="132.356" y2="355.706" stroke="#FAFF00" stroke-width="5"/>
<line x1="404.81" y1="280.857" x2="362.81" y2="318.72" stroke="#FAFF00" stroke-width="5"/>
<line x1="150.98" y1="371.775" x2="122.897" y2="399.638" stroke="#FAFF00" stroke-width="5"/>
<line x1="167.021" y1="13.6618" x2="204.021" y2="27.6618" stroke="#FAFF00" stroke-width="5"/>
<line x1="400.021" y1="220.662" x2="437.021" y2="234.662" stroke="#FAFF00" stroke-width="5"/>
<line x1="441.617" y1="229.911" x2="438.669" y2="190.461" stroke="#FAFF00" stroke-width="5"/>
<line x1="199.128" y1="248.489" x2="221.128" y2="277.489" stroke="#FAFF00" stroke-width="5"/>
<line x1="225.021" y1="287.662" x2="262.021" y2="301.662" stroke="#FAFF00" stroke-width="5"/>
<line x1="286.202" y1="290.162" x2="283.631" y2="329.639" stroke="#FAFF00" stroke-width="5"/>
<line x1="332.021" y1="276.662" x2="369.021" y2="290.662" stroke="#FAFF00" stroke-width="5"/>
<line x1="240.439" y1="326.843" x2="212.356" y2="354.706" stroke="#FAFF00" stroke-width="5"/>
<line x1="279.98" y1="376.775" x2="251.897" y2="404.638" stroke="#FAFF00" stroke-width="5"/>
<line x1="282.021" y1="348.662" x2="319.021" y2="362.662" stroke="#FAFF00" stroke-width="5"/>
<line x1="189.021" y1="371.662" x2="226.021" y2="385.662" stroke="#FAFF00" stroke-width="5"/>
<line x1="195.021" y1="312.662" x2="232.021" y2="326.662" stroke="#FAFF00" stroke-width="5"/>
<line x1="254.98" y1="352.775" x2="226.897" y2="380.638" stroke="#FAFF00" stroke-width="5"/>
<line x1="182.439" y1="341.843" x2="154.356" y2="369.706" stroke="#FAFF00" stroke-width="5"/>
<line x1="111.021" y1="303.662" x2="148.021" y2="317.662" stroke="#FAFF00" stroke-width="5"/>
<path d="M72.2065 196L88.2065 235.5" stroke="#FAFF00" stroke-width="5"/>
<line x1="68.9534" y1="219.544" x2="39.6817" y2="246.156" stroke="#FAFF00" stroke-width="5"/>
<line x1="30.9535" y1="178.544" x2="1.68172" y2="205.156" stroke="#FAFF00" stroke-width="5"/>
<line x1="177.021" y1="399.662" x2="214.021" y2="413.662" stroke="#FAFF00" stroke-width="5"/>
<line x1="268.021" y1="330.662" x2="305.021" y2="344.662" stroke="#FAFF00" stroke-width="5"/>
<line x1="201.021" y1="159.662" x2="238.021" y2="173.662" stroke="#FAFF00" stroke-width="5"/>
<line x1="218.515" y1="230.23" x2="229.515" y2="264.23" stroke="#FAFF00" stroke-width="5"/>
<line x1="254.021" y1="205.662" x2="291.021" y2="219.662" stroke="#FAFF00" stroke-width="5"/>
<line x1="73.021" y1="135.662" x2="110.021" y2="149.662" stroke="#FAFF00" stroke-width="5"/>
<line x1="206.021" y1="94.6618" x2="243.021" y2="108.662" stroke="#FAFF00" stroke-width="5"/>
<line x1="248.021" y1="11.6618" x2="285.021" y2="25.6618" stroke="#FAFF00" stroke-width="5"/>
<line x1="366.09" y1="351.85" x2="336.818" y2="378.461" stroke="#FAFF00" stroke-width="5"/>
<line x1="306.43" y1="94.2328" x2="279.509" y2="65.2463" stroke="#FAFF00" stroke-width="5"/>
<line x1="320.952" y1="143.081" x2="294.03" y2="114.094" stroke="#FAFF00" stroke-width="5"/>
<line x1="221.349" y1="186.753" x2="185.256" y2="178.137" stroke="#FAFF00" stroke-width="5"/>
<line x1="209.054" y1="164.342" x2="195.45" y2="201.489" stroke="#FAFF00" stroke-width="5"/>
<line x1="272.666" y1="205.229" x2="234.026" y2="213.714" stroke="#FAFF00" stroke-width="5"/>
<path d="M393.662 345.964L356.889 335.741" stroke="#FAFF00" stroke-width="5"/>
<line x1="241.831" y1="236.997" x2="228.226" y2="274.144" stroke="#FAFF00" stroke-width="5"/>
<line x1="280.169" y1="268.59" x2="266.565" y2="305.737" stroke="#FAFF00" stroke-width="5"/>
<line x1="219.208" y1="305.461" x2="255.456" y2="321.308" stroke="#FAFF00" stroke-width="5"/>
<line x1="280.843" y1="253.084" x2="243.352" y2="240.457" stroke="#FAFF00" stroke-width="5"/>
<line x1="211.047" y1="348.902" x2="250.463" y2="345.533" stroke="#FAFF00" stroke-width="5"/>
<line x1="196.016" y1="348.491" x2="182.411" y2="385.639" stroke="#FAFF00" stroke-width="5"/>
<line x1="215.398" y1="381.858" x2="254.815" y2="378.489" stroke="#FAFF00" stroke-width="5"/>
<line x1="321.452" y1="278.713" x2="282.812" y2="287.198" stroke="#FAFF00" stroke-width="5"/>
<line x1="297.479" y1="391.413" x2="283.875" y2="428.56" stroke="#FAFF00" stroke-width="5"/>
<line x1="231.653" y1="405.686" x2="271.07" y2="402.317" stroke="#FAFF00" stroke-width="5"/>
<line x1="288.054" y1="351.511" x2="274.449" y2="388.658" stroke="#FAFF00" stroke-width="5"/>
<line x1="264.737" y1="345.355" x2="304.154" y2="341.986" stroke="#FAFF00" stroke-width="5"/>
<line x1="314.439" y1="188.496" x2="277.357" y2="202.276" stroke="#FAFF00" stroke-width="5"/>
<line x1="323.046" y1="66.6924" x2="362.462" y2="63.3236" stroke="#FAFF00" stroke-width="5"/>
<line x1="207.504" y1="300.366" x2="193.899" y2="337.513" stroke="#FAFF00" stroke-width="5"/>
<line x1="360.952" y1="247.728" x2="347.347" y2="284.875" stroke="#FAFF00" stroke-width="5"/>
<line x1="377.738" y1="227.548" x2="364.133" y2="264.695" stroke="#FAFF00" stroke-width="5"/>
<line x1="342.051" y1="350.935" x2="328.446" y2="388.082" stroke="#FAFF00" stroke-width="5"/>
<line x1="411.309" y1="187.188" x2="397.705" y2="224.335" stroke="#FAFF00" stroke-width="5"/>
<line x1="389.155" y1="275.714" x2="355.029" y2="295.724" stroke="#FAFF00" stroke-width="5"/>
<line x1="391.368" y1="295.692" x2="357.242" y2="315.702" stroke="#FAFF00" stroke-width="5"/>
<line x1="345.997" y1="261.173" x2="311.871" y2="281.183" stroke="#FAFF00" stroke-width="5"/>
<line x1="371.226" y1="179.615" x2="357.622" y2="216.762" stroke="#FAFF00" stroke-width="5"/>
<line x1="368.212" y1="108.009" x2="332.773" y2="125.59" stroke="#FAFF00" stroke-width="5"/>
<line x1="361.888" y1="156.998" x2="327.762" y2="177.008" stroke="#FAFF00" stroke-width="5"/>
<line x1="391.554" y1="116.394" x2="377.949" y2="153.542" stroke="#FAFF00" stroke-width="5"/>
<line x1="397.905" y1="149.329" x2="384.3" y2="186.476" stroke="#FAFF00" stroke-width="5"/>
<line x1="210.011" y1="149.263" x2="183.09" y2="120.277" stroke="#FAFF00" stroke-width="5"/>
<line x1="311.102" y1="168.255" x2="297.497" y2="205.402" stroke="#FAFF00" stroke-width="5"/>
<path d="M297.007 159.405L273.027 146.275" stroke="#FAFF00" stroke-width="5"/>
<line x1="281.38" y1="152.058" x2="239.532" y2="166.504" stroke="#FAFF00" stroke-width="5"/>
<path d="M299.348 245.5L317.388 280.925" stroke="#FAFF00" stroke-width="5"/>
<line x1="375.123" y1="357.583" x2="361.518" y2="394.73" stroke="#FAFF00" stroke-width="5"/>
<line x1="240.302" y1="124.612" x2="217.634" y2="155.855" stroke="#FAFF00" stroke-width="5"/>
<line x1="165.201" y1="380.137" x2="115.492" y2="407.668" stroke="#FAFF00" stroke-width="5"/>
<line x1="218.64" y1="219.243" x2="205.035" y2="256.39" stroke="#FAFF00" stroke-width="5"/>
<line x1="198.341" y1="97.4524" x2="184.736" y2="134.6" stroke="#FAFF00" stroke-width="5"/>
<path d="M196.717 117.586L170.641 125.749" stroke="#FAFF00" stroke-width="5"/>
<line x1="170.151" y1="79.7519" x2="156.546" y2="116.899" stroke="#FAFF00" stroke-width="5"/>
<line x1="218.777" y1="287.306" x2="184.308" y2="267.892" stroke="#FAFF00" stroke-width="5"/>
<line x1="128.111" y1="76.1997" x2="114.506" y2="113.347" stroke="#FAFF00" stroke-width="5"/>
<line x1="168.799" y1="31.7678" x2="171.278" y2="76.744" stroke="#FAFF00" stroke-width="5"/>
<line x1="273.645" y1="114.583" x2="246.724" y2="85.5969" stroke="#FAFF00" stroke-width="5"/>
<line x1="326.463" y1="202.093" x2="312.859" y2="239.24" stroke="#FAFF00" stroke-width="5"/>
<line x1="148.669" y1="325.28" x2="114.543" y2="345.29" stroke="#FAFF00" stroke-width="5"/>
<line x1="321.393" y1="298.438" x2="287.267" y2="318.448" stroke="#FAFF00" stroke-width="5"/>
<line x1="270.176" y1="168.654" x2="236.05" y2="188.664" stroke="#FAFF00" stroke-width="5"/>
<line x1="145.976" y1="81.0783" x2="119.054" y2="52.0918" stroke="#FAFF00" stroke-width="5"/>
<line x1="133.811" y1="347.223" x2="106.889" y2="318.237" stroke="#FAFF00" stroke-width="5"/>
<line x1="266.529" y1="114.727" x2="252.924" y2="151.874" stroke="#FAFF00" stroke-width="5"/>
<line x1="331.319" y1="349.645" x2="322.178" y2="311.155" stroke="#FAFF00" stroke-width="5"/>
<line x1="178.649" y1="331.744" x2="151.727" y2="302.758" stroke="#FAFF00" stroke-width="5"/>
<line x1="155.814" y1="224.845" x2="128.892" y2="195.859" stroke="#FAFF00" stroke-width="5"/>
<line x1="190.853" y1="145.535" x2="177.248" y2="182.682" stroke="#FAFF00" stroke-width="5"/>
<line x1="215.939" y1="247.273" x2="202.334" y2="284.421" stroke="#FAFF00" stroke-width="5"/>
<line x1="174.616" y1="161.323" x2="136.608" y2="160.728" stroke="#FAFF00" stroke-width="5"/>
<line x1="177.058" y1="258.688" x2="163.453" y2="295.836" stroke="#FAFF00" stroke-width="5"/>
<line x1="99.1761" y1="82.5084" x2="85.5712" y2="119.655" stroke="#FAFF00" stroke-width="5"/>
<line x1="140.749" y1="136.068" x2="127.144" y2="173.215" stroke="#FAFF00" stroke-width="5"/>
<line x1="185.592" y1="402.606" x2="171.987" y2="439.753" stroke="#FAFF00" stroke-width="5"/>
<line x1="316.71" y1="55.2573" x2="289.788" y2="26.2708" stroke="#FAFF00" stroke-width="5"/>
<line x1="113.861" y1="163.775" x2="85.7009" y2="135.99" stroke="#FAFF00" stroke-width="5"/>
<line x1="163.45" y1="407.631" x2="125.141" y2="366.037" stroke="#FAFF00" stroke-width="5"/>
<line x1="69.8318" y1="154.784" x2="41.6712" y2="127" stroke="#FAFF00" stroke-width="5"/>
<line x1="428.095" y1="167.008" x2="414.49" y2="204.155" stroke="#FAFF00" stroke-width="5"/>
<line x1="223.59" y1="402.201" x2="209.985" y2="439.348" stroke="#FAFF00" stroke-width="5"/>
<line x1="214.785" y1="443.893" x2="254.201" y2="440.524" stroke="#FAFF00" stroke-width="5"/>
<line x1="193.624" y1="201.616" x2="164.86" y2="223.923" stroke="#FAFF00" stroke-width="5"/>
<line x1="154.729" y1="227.925" x2="141.124" y2="265.072" stroke="#FAFF00" stroke-width="5"/>
<line x1="152.88" y1="289.128" x2="113.379" y2="286.979" stroke="#FAFF00" stroke-width="5"/>
<line x1="166.869" y1="334.801" x2="153.264" y2="371.948" stroke="#FAFF00" stroke-width="5"/>
<line x1="115.714" y1="243.759" x2="87.5534" y2="215.975" stroke="#FAFF00" stroke-width="5"/>
<line x1="66.2068" y1="283.83" x2="38.0463" y2="256.046" stroke="#FAFF00" stroke-width="5"/>
<line x1="94.3399" y1="285.571" x2="80.735" y2="322.719" stroke="#FAFF00" stroke-width="5"/>
<line x1="70.3501" y1="192.822" x2="56.7452" y2="229.969" stroke="#FAFF00" stroke-width="5"/>
<line x1="129.411" y1="198.193" x2="115.806" y2="235.34" stroke="#FAFF00" stroke-width="5"/>
<line x1="89.939" y1="258.576" x2="61.7785" y2="230.791" stroke="#FAFF00" stroke-width="5"/>
<line x1="100.097" y1="185.922" x2="71.9361" y2="158.138" stroke="#FAFF00" stroke-width="5"/>
<line x1="137.515" y1="114.102" x2="123.91" y2="151.249" stroke="#FAFF00" stroke-width="5"/>
<path d="M244.757 74.142L205.43 90.5621" stroke="#FAFF00" stroke-width="5"/>
<line x1="221.179" y1="71.14" x2="194.258" y2="42.1536" stroke="#FAFF00" stroke-width="5"/>
<line x1="261.772" y1="32.7052" x2="234.85" y2="3.71875" stroke="#FAFF00" stroke-width="5"/>
<line x1="42.2238" y1="181.121" x2="28.6189" y2="218.268" stroke="#FAFF00" stroke-width="5"/>
<line x1="112.19" y1="271.38" x2="98.5848" y2="308.528" stroke="#FAFF00" stroke-width="5"/>
<line x1="282.466" y1="202.562" x2="268.861" y2="239.709" stroke="#FAFF00" stroke-width="5"/>
<line x1="212.088" y1="220.807" x2="178.207" y2="232.169" stroke="#FAFF00" stroke-width="5"/>
<line x1="237.033" y1="256.049" x2="223.429" y2="293.196" stroke="#FAFF00" stroke-width="5"/>
<line x1="305.101" y1="74.3134" x2="291.496" y2="111.46" stroke="#FAFF00" stroke-width="5"/>
<line x1="347.516" y1="206.869" x2="333.911" y2="244.016" stroke="#FAFF00" stroke-width="5"/>
<line x1="430.958" y1="247.982" x2="417.354" y2="285.129" stroke="#FAFF00" stroke-width="5"/>
<line x1="92.048" y1="369.669" x2="65.1262" y2="340.683" stroke="#FAFF00" stroke-width="5"/>
</svg>
