<svg width="484" height="451" viewBox="0 0 484 451" fill="none" xmlns="http://www.w3.org/2000/svg">
<line y1="-2.5" x2="40.8746" y2="-2.5" transform="matrix(-0.759495 0.650513 -0.694385 -0.719604 109.798 132.585)" stroke="#FAFF00" stroke-width="5"/>
<line y1="-2.5" x2="40.8746" y2="-2.5" transform="matrix(-0.759495 0.650513 -0.694385 -0.719604 161.765 118.597)" stroke="#FAFF00" stroke-width="5"/>
<line y1="-2.5" x2="37.2152" y2="-2.5" transform="matrix(-0.256479 0.96655 -0.973365 -0.22926 206.164 219.819)" stroke="#FAFF00" stroke-width="5"/>
<line y1="-2.5" x2="41.659" y2="-2.5" transform="matrix(0.941939 0.335784 -0.372686 0.927958 183.893 234.806)" stroke="#FAFF00" stroke-width="5"/>
<line y1="-2.5" x2="39.6316" y2="-2.5" transform="matrix(0.216024 0.976388 -0.981257 0.192702 226.314 169.86)" stroke="#FAFF00" stroke-width="5"/>
<path d="M379.526 49.9588L368.268 86.5904" stroke="#FAFF00" stroke-width="5"/>
<line y1="-2.5" x2="41.659" y2="-2.5" transform="matrix(0.941939 0.335785 -0.372686 0.927958 261.312 202.833)" stroke="#FAFF00" stroke-width="5"/>
<line y1="-2.5" x2="41.659" y2="-2.5" transform="matrix(0.941939 0.335785 -0.372685 0.927958 295.25 164.864)" stroke="#FAFF00" stroke-width="5"/>
<line y1="-2.5" x2="39.9466" y2="-2.5" transform="matrix(0.430964 -0.902369 0.92069 0.390295 337.018 224.853)" stroke="#FAFF00" stroke-width="5"/>
<line y1="-2.5" x2="39.7979" y2="-2.5" transform="matrix(-0.347139 0.937814 -0.950036 -0.31214 277.249 160.867)" stroke="#FAFF00" stroke-width="5"/>
<line y1="-2.5" x2="39.5414" y2="-2.5" transform="matrix(-0.0790843 -0.996868 0.99753 -0.0702425 383.221 232.259)" stroke="#FAFF00" stroke-width="5"/>
<line y1="-2.5" x2="41.659" y2="-2.5" transform="matrix(0.941939 0.335785 -0.372685 0.927958 379.033 249.794)" stroke="#FAFF00" stroke-width="5"/>
<line y1="-2.5" x2="39.5414" y2="-2.5" transform="matrix(-0.0790843 -0.996868 0.99753 -0.0702425 418.219 228.262)" stroke="#FAFF00" stroke-width="5"/>
<line y1="-2.5" x2="39.6316" y2="-2.5" transform="matrix(0.216025 0.976388 -0.981257 0.192702 304.795 121.9)" stroke="#FAFF00" stroke-width="5"/>
<line y1="-2.5" x2="41.659" y2="-2.5" transform="matrix(0.941939 0.335785 -0.372685 0.927958 425.697 148.877)" stroke="#FAFF00" stroke-width="5"/>
<line y1="-2.5" x2="39.5414" y2="-2.5" transform="matrix(-0.0790844 -0.996868 0.99753 -0.0702425 443.672 212.275)" stroke="#FAFF00" stroke-width="5"/>
<line y1="-2.5" x2="41.659" y2="-2.5" transform="matrix(0.941939 0.335785 -0.372686 0.927958 383.275 157.87)" stroke="#FAFF00" stroke-width="5"/>
<line y1="-2.5" x2="39.5414" y2="-2.5" transform="matrix(-0.0790844 -0.996868 0.99753 -0.0702425 380.066 178.578)" stroke="#FAFF00" stroke-width="5"/>
<line y1="-2.5" x2="39.8129" y2="-2.5" transform="matrix(0.356524 0.934286 -0.947143 0.320811 209.142 128.281)" stroke="#FAFF00" stroke-width="5"/>
<line y1="-2.5" x2="39.5414" y2="-2.5" transform="matrix(-0.0790842 -0.996868 0.99753 -0.0702427 85.2071 117.353)" stroke="#FAFF00" stroke-width="5"/>
<line y1="-2.5" x2="41.659" y2="-2.5" transform="matrix(0.941939 0.335785 -0.372686 0.927958 328.127 237.804)" stroke="#FAFF00" stroke-width="5"/>
<line y1="-2.5" x2="41.659" y2="-2.5" transform="matrix(0.941939 0.335785 -0.372685 0.927958 274.039 83.9308)" stroke="#FAFF00" stroke-width="5"/>
<line y1="-2.5" x2="41.659" y2="-2.5" transform="matrix(0.941939 0.335785 -0.372685 0.927958 252.828 66.9448)" stroke="#FAFF00" stroke-width="5"/>
<line y1="-2.5" x2="41.659" y2="-2.5" transform="matrix(0.941939 0.335785 -0.372686 0.927958 383.275 103.914)" stroke="#FAFF00" stroke-width="5"/>
<line y1="-2.5" x2="41.659" y2="-2.5" transform="matrix(0.941939 0.335785 -0.372685 0.927958 210.406 32.9728)" stroke="#FAFF00" stroke-width="5"/>
<line y1="-2.5" x2="40.1399" y2="-2.5" transform="matrix(0.519047 0.854746 -0.880271 0.474472 302.674 54.9547)" stroke="#FAFF00" stroke-width="5"/>
<line y1="-2.5" x2="40.1398" y2="-2.5" transform="matrix(0.519047 0.854746 -0.880271 0.474472 323.885 52.9564)" stroke="#FAFF00" stroke-width="5"/>
<line y1="-2.5" x2="40.1399" y2="-2.5" transform="matrix(0.519048 0.854745 -0.880271 0.474471 286.766 97.9193)" stroke="#FAFF00" stroke-width="5"/>
<line y1="-2.5" x2="41.659" y2="-2.5" transform="matrix(0.941939 0.335785 -0.372685 0.927958 201.922 72.9399)" stroke="#FAFF00" stroke-width="5"/>
<line y1="-2.5" x2="39.9979" y2="-2.5" transform="matrix(0.45611 0.889923 -0.910236 0.41409 124.502 73.939)" stroke="#FAFF00" stroke-width="5"/>
<line y1="-2.5" x2="40.1398" y2="-2.5" transform="matrix(0.519047 0.854746 -0.880271 0.474472 176.469 80.9333)" stroke="#FAFF00" stroke-width="5"/>
<line y1="-2.5" x2="41.659" y2="-2.5" transform="matrix(0.941939 0.335785 -0.372685 0.927958 135.107 51.9572)" stroke="#FAFF00" stroke-width="5"/>
<line y1="-2.5" x2="41.659" y2="-2.5" transform="matrix(0.941939 0.335785 -0.372685 0.927958 170.105 45.9621)" stroke="#FAFF00" stroke-width="5"/>
<line y1="-2.5" x2="40.8746" y2="-2.5" transform="matrix(-0.759495 0.650513 -0.694385 -0.719604 167.068 229.505)" stroke="#FAFF00" stroke-width="5"/>
<line y1="-2.5" x2="41.659" y2="-2.5" transform="matrix(0.941939 0.335785 -0.372685 0.927958 189.195 132.89)" stroke="#FAFF00" stroke-width="5"/>
<path d="M180.589 144.543L166.394 168.361" stroke="#FAFF00" stroke-width="5"/>
<line y1="-2.5" x2="44.5146" y2="-2.5" transform="matrix(0.333546 0.942734 -0.954059 0.299617 170.105 160.867)" stroke="#FAFF00" stroke-width="5"/>
<path d="M271.918 143.12L309.69 125.473" stroke="#FAFF00" stroke-width="5"/>
<line y1="-2.5" x2="41.659" y2="-2.5" transform="matrix(0.941939 0.335785 -0.372685 0.927958 390.699 70.9415)" stroke="#FAFF00" stroke-width="5"/>
<line y1="-2.5" x2="40.1126" y2="-2.5" transform="matrix(0.819616 0.572913 -0.618692 0.785634 141.471 202.833)" stroke="#FAFF00" stroke-width="5"/>
<line y1="-2.5" x2="57.5833" y2="-2.5" transform="matrix(0.497276 0.867592 -0.891285 0.453443 410.85 279.769)" stroke="#FAFF00" stroke-width="5"/>
<line y1="-2.5" x2="41.659" y2="-2.5" transform="matrix(0.941939 0.335785 -0.372685 0.927958 242.223 225.814)" stroke="#FAFF00" stroke-width="5"/>
<line y1="-2.5" x2="41.659" y2="-2.5" transform="matrix(0.941939 0.335785 -0.372685 0.927958 112.836 244.798)" stroke="#FAFF00" stroke-width="5"/>
<path d="M135.107 244.299L143.47 270.439" stroke="#FAFF00" stroke-width="5"/>
<line y1="-2.5" x2="41.659" y2="-2.5" transform="matrix(0.941939 0.335785 -0.372685 0.927958 93.7461 272.775)" stroke="#FAFF00" stroke-width="5"/>
<line y1="-2.5" x2="40.1482" y2="-2.5" transform="matrix(-0.522505 0.852636 -0.878454 -0.477827 313.046 222.816)" stroke="#FAFF00" stroke-width="5"/>
<line y1="-2.5" x2="41.659" y2="-2.5" transform="matrix(0.941939 0.335785 -0.372685 0.927958 89.5039 314.741)" stroke="#FAFF00" stroke-width="5"/>
<line y1="-2.5" x2="47.7664" y2="-2.5" transform="matrix(0.999124 -0.0418359 0.0471219 0.998889 43.9004 273.774)" stroke="#FAFF00" stroke-width="5"/>
<line y1="-2.5" x2="40.8746" y2="-2.5" transform="matrix(-0.759495 0.650513 -0.694385 -0.719604 131.009 165.558)" stroke="#FAFF00" stroke-width="5"/>
<line y1="-2.5" x2="41.659" y2="-2.5" transform="matrix(0.941939 0.335785 -0.372685 0.927958 225.254 117.903)" stroke="#FAFF00" stroke-width="5"/>
<line y1="-2.5" x2="40.1398" y2="-2.5" transform="matrix(0.519047 0.854746 -0.880271 0.474472 352.52 295.756)" stroke="#FAFF00" stroke-width="5"/>
<line y1="-2.5" x2="40.1398" y2="-2.5" transform="matrix(0.519047 0.854746 -0.88027 0.474472 326.006 122.899)" stroke="#FAFF00" stroke-width="5"/>
<line y1="-2.5" x2="40.1398" y2="-2.5" transform="matrix(0.519047 0.854746 -0.880271 0.474471 187.793 172.689)" stroke="#FAFF00" stroke-width="5"/>
<line y1="-2.5" x2="40.8746" y2="-2.5" transform="matrix(-0.759495 0.650513 -0.694385 -0.719604 94.0342 292.759)" stroke="#FAFF00" stroke-width="5"/>
<line y1="-2.5" x2="40.8746" y2="-2.5" transform="matrix(-0.759495 0.650513 -0.694385 -0.719604 376.14 307.746)" stroke="#FAFF00" stroke-width="5"/>
<line y1="-2.5" x2="41.659" y2="-2.5" transform="matrix(0.941939 0.335785 -0.372685 0.927958 131.926 176.854)" stroke="#FAFF00" stroke-width="5"/>
<line y1="-2.5" x2="41.8404" y2="-2.5" transform="matrix(-0.978025 0.208489 -0.233524 -0.972351 382.139 109.85)" stroke="#FAFF00" stroke-width="5"/>
<line y1="-2.5" x2="40.8746" y2="-2.5" transform="matrix(-0.759495 0.650513 -0.694385 -0.719604 360.232 262.783)" stroke="#FAFF00" stroke-width="5"/>
<line y1="-2.5" x2="40.8746" y2="-2.5" transform="matrix(-0.759495 0.650513 -0.694385 -0.719604 246.608 284.46)" stroke="#FAFF00" stroke-width="5"/>
<line y1="-2.5" x2="41.659" y2="-2.5" transform="matrix(0.941939 0.335785 -0.372685 0.927958 163.742 252.792)" stroke="#FAFF00" stroke-width="5"/>
<line y1="-2.5" x2="41.659" y2="-2.5" transform="matrix(0.941939 0.335785 -0.372686 0.927958 271.918 228.811)" stroke="#FAFF00" stroke-width="5"/>
<line y1="-2.5" x2="37.9835" y2="-2.5" transform="matrix(-0.0279216 0.99961 -0.999693 -0.024785 178.59 266.78)" stroke="#FAFF00" stroke-width="5"/>
<line y1="-2.5" x2="41.659" y2="-2.5" transform="matrix(0.941939 0.335785 -0.372685 0.927958 283.584 267.779)" stroke="#FAFF00" stroke-width="5"/>
<line y1="-2.5" x2="41.659" y2="-2.5" transform="matrix(0.941939 0.335785 -0.372685 0.927958 95.8672 343.717)" stroke="#FAFF00" stroke-width="5"/>
<line y1="-2.5" x2="41.659" y2="-2.5" transform="matrix(0.941939 0.335785 -0.372685 0.927958 153.137 302.75)" stroke="#FAFF00" stroke-width="5"/>
<line y1="-2.5" x2="41.659" y2="-2.5" transform="matrix(0.941939 0.335785 -0.372685 0.927958 436.303 260.785)" stroke="#FAFF00" stroke-width="5"/>
<line y1="-2.5" x2="40.8746" y2="-2.5" transform="matrix(-0.759495 0.650513 -0.694385 -0.719604 68.5811 121.9)" stroke="#FAFF00" stroke-width="5"/>
<line y1="-2.5" x2="40.769" y2="-2.5" transform="matrix(-0.730541 0.682868 -0.725152 -0.688589 181.286 325.8)" stroke="#FAFF00" stroke-width="5"/>
<line y1="-2.5" x2="58.4406" y2="-2.5" transform="matrix(-0.762191 0.647352 -0.691353 -0.722517 440.545 278.77)" stroke="#FAFF00" stroke-width="5"/>
<line y1="-2.5" x2="40.7691" y2="-2.5" transform="matrix(-0.730541 0.682869 -0.725151 -0.68859 171.254 369.695)" stroke="#FAFF00" stroke-width="5"/>
<line y1="-2.5" x2="41.659" y2="-2.5" transform="matrix(0.941939 0.335785 -0.372685 0.927958 189.195 15.9868)" stroke="#FAFF00" stroke-width="5"/>
<line y1="-2.5" x2="41.659" y2="-2.5" transform="matrix(0.941939 0.335785 -0.372685 0.927958 436.303 222.816)" stroke="#FAFF00" stroke-width="5"/>
<line y1="-2.5" x2="39.5414" y2="-2.5" transform="matrix(-0.0790844 -0.996868 0.99753 -0.0702425 484 229.536)" stroke="#FAFF00" stroke-width="5"/>
<line y1="-2.5" x2="37.2021" y2="-2.5" transform="matrix(0.627169 0.778883 -0.813566 0.581473 222.072 249.794)" stroke="#FAFF00" stroke-width="5"/>
<line y1="-2.5" x2="41.6591" y2="-2.5" transform="matrix(0.941939 0.335784 -0.372686 0.927958 250.707 289.761)" stroke="#FAFF00" stroke-width="5"/>
<line y1="-2.5" x2="39.538" y2="-2.5" transform="matrix(-0.0689497 0.99762 -0.998124 -0.0612322 313.884 289.761)" stroke="#FAFF00" stroke-width="5"/>
<line y1="-2.5" x2="41.659" y2="-2.5" transform="matrix(0.941939 0.335785 -0.372685 0.927958 364.186 278.77)" stroke="#FAFF00" stroke-width="5"/>
<line y1="-2.5" x2="40.7691" y2="-2.5" transform="matrix(-0.730541 0.682869 -0.725152 -0.688589 266.13 324.801)" stroke="#FAFF00" stroke-width="5"/>
<line y1="-2.5" x2="40.7691" y2="-2.5" transform="matrix(-0.730541 0.682869 -0.725152 -0.688589 308.065 374.691)" stroke="#FAFF00" stroke-width="5"/>
<line y1="-2.5" x2="41.659" y2="-2.5" transform="matrix(0.941939 0.335785 -0.372685 0.927958 311.158 350.711)" stroke="#FAFF00" stroke-width="5"/>
<line y1="-2.5" x2="41.659" y2="-2.5" transform="matrix(0.941939 0.335785 -0.372685 0.927958 212.527 373.692)" stroke="#FAFF00" stroke-width="5"/>
<line y1="-2.5" x2="41.659" y2="-2.5" transform="matrix(0.941939 0.335785 -0.372685 0.927958 218.891 314.741)" stroke="#FAFF00" stroke-width="5"/>
<line y1="-2.5" x2="40.7691" y2="-2.5" transform="matrix(-0.730541 0.682869 -0.725151 -0.68859 281.551 350.711)" stroke="#FAFF00" stroke-width="5"/>
<line y1="-2.5" x2="40.769" y2="-2.5" transform="matrix(-0.730542 0.682868 -0.725152 -0.688589 204.618 339.789)" stroke="#FAFF00" stroke-width="5"/>
<line y1="-2.5" x2="41.659" y2="-2.5" transform="matrix(0.941939 0.335785 -0.372685 0.927958 129.805 305.748)" stroke="#FAFF00" stroke-width="5"/>
<path d="M89.5785 195.839L106.547 235.306" stroke="#FAFF00" stroke-width="5"/>
<line y1="-2.5" x2="40.8746" y2="-2.5" transform="matrix(-0.759495 0.650513 -0.694385 -0.719604 84.3448 217.515)" stroke="#FAFF00" stroke-width="5"/>
<line y1="-2.5" x2="40.8746" y2="-2.5" transform="matrix(-0.759495 0.650513 -0.694385 -0.719604 44.0441 176.549)" stroke="#FAFF00" stroke-width="5"/>
<line y1="-2.5" x2="41.659" y2="-2.5" transform="matrix(0.941939 0.335785 -0.372685 0.927958 199.801 401.669)" stroke="#FAFF00" stroke-width="5"/>
<line y1="-2.5" x2="41.659" y2="-2.5" transform="matrix(0.941939 0.335785 -0.372685 0.927958 296.311 332.726)" stroke="#FAFF00" stroke-width="5"/>
<line y1="-2.5" x2="41.659" y2="-2.5" transform="matrix(0.941939 0.335785 -0.372685 0.927958 225.254 161.867)" stroke="#FAFF00" stroke-width="5"/>
<line y1="-2.5" x2="35.9193" y2="-2.5" transform="matrix(0.324784 0.945788 -0.956551 0.291564 242.223 230.81)" stroke="#FAFF00" stroke-width="5"/>
<line y1="-2.5" x2="41.659" y2="-2.5" transform="matrix(0.941939 0.335785 -0.372686 0.927958 281.463 207.829)" stroke="#FAFF00" stroke-width="5"/>
<line y1="-2.5" x2="41.659" y2="-2.5" transform="matrix(0.941939 0.335785 -0.372685 0.927958 89.5039 137.886)" stroke="#FAFF00" stroke-width="5"/>
<line y1="-2.5" x2="41.659" y2="-2.5" transform="matrix(0.941939 0.335785 -0.372685 0.927958 230.557 96.9201)" stroke="#FAFF00" stroke-width="5"/>
<line y1="-2.5" x2="41.659" y2="-2.5" transform="matrix(0.941939 0.335785 -0.372685 0.927958 275.1 13.9885)" stroke="#FAFF00" stroke-width="5"/>
<line y1="-2.5" x2="40.8746" y2="-2.5" transform="matrix(-0.759496 0.650512 -0.694385 -0.719603 399.472 349.712)" stroke="#FAFF00" stroke-width="5"/>
<line y1="-2.5" x2="40.8746" y2="-2.5" transform="matrix(-0.759495 0.650513 -0.694385 -0.719604 31.3175 250.793)" stroke="#FAFF00" stroke-width="5"/>
<line y1="-2.5" x2="39.5996" y2="-2.5" transform="matrix(0.179886 -0.983688 0.987081 0.160221 179.182 445.343)" stroke="#FAFF00" stroke-width="5"/>
<line y1="-2.5" x2="40.8746" y2="-2.5" transform="matrix(-0.759495 0.650513 -0.694385 -0.719604 71.6183 291.759)" stroke="#FAFF00" stroke-width="5"/>
<line y1="-2.5" x2="39.5996" y2="-2.5" transform="matrix(0.179886 -0.983688 0.987081 0.160221 120.662 436.389)" stroke="#FAFF00" stroke-width="5"/>
<line y1="-2.5" x2="40.8746" y2="-2.5" transform="matrix(-0.759496 0.650513 -0.694385 -0.719604 81.3077 367.003)" stroke="#FAFF00" stroke-width="5"/>
<line y1="-2.5" x2="39.5996" y2="-2.5" transform="matrix(0.179886 -0.983688 0.987081 0.16022 63.9062 382.67)" stroke="#FAFF00" stroke-width="5"/>
<line y1="-2.5" x2="47.7664" y2="-2.5" transform="matrix(0.999125 -0.0418365 0.0471212 0.998889 31.1738 348.019)" stroke="#FAFF00" stroke-width="5"/>
<line y1="-2.5" x2="46.626" y2="-2.5" transform="matrix(-0.779149 0.626838 -0.671572 -0.74094 115.831 368.593)" stroke="#FAFF00" stroke-width="5"/>
<line y1="-2.5" x2="40.6441" y2="-2.5" transform="matrix(-0.702484 -0.712591 0.752094 -0.658102 339.927 92.4553)" stroke="#FAFF00" stroke-width="5"/>
<line y1="-2.5" x2="40.6441" y2="-2.5" transform="matrix(-0.702485 -0.712591 0.752094 -0.658102 355.327 141.263)" stroke="#FAFF00" stroke-width="5"/>
<line y1="-2.5" x2="39.2242" y2="-2.5" transform="matrix(-0.975909 -0.219475 0.24553 -0.969064 248.367 184.169)" stroke="#FAFF00" stroke-width="5"/>
<line y1="-2.5" x2="39.8399" y2="-2.5" transform="matrix(-0.362165 0.931642 -0.945688 -0.32631 232.222 163.348)" stroke="#FAFF00" stroke-width="5"/>
<line y1="-2.5" x2="41.8568" y2="-2.5" transform="matrix(-0.979027 0.202545 -0.227055 -0.974157 301.606 202.62)" stroke="#FAFF00" stroke-width="5"/>
<path d="M430.497 345.679L391.498 335.464" stroke="#FAFF00" stroke-width="5"/>
<line y1="-2.5" x2="39.8399" y2="-2.5" transform="matrix(-0.362166 0.931642 -0.945688 -0.32631 266.983 235.943)" stroke="#FAFF00" stroke-width="5"/>
<line y1="-2.5" x2="39.8399" y2="-2.5" transform="matrix(-0.362165 0.931642 -0.945688 -0.32631 307.643 267.51)" stroke="#FAFF00" stroke-width="5"/>
<line y1="-2.5" x2="41.5563" y2="-2.5" transform="matrix(0.925056 0.381031 -0.42073 0.906641 244.419 307.498)" stroke="#FAFF00" stroke-width="5"/>
<line y1="-2.5" x2="41.6987" y2="-2.5" transform="matrix(-0.953518 -0.302586 0.336509 -0.941241 311.693 250.509)" stroke="#FAFF00" stroke-width="5"/>
<line y1="-2.5" x2="41.942" y2="-2.5" transform="matrix(0.996685 -0.0802558 0.0903541 0.99601 237.051 351.104)" stroke="#FAFF00" stroke-width="5"/>
<line y1="-2.5" x2="39.8399" y2="-2.5" transform="matrix(-0.362165 0.931642 -0.945688 -0.32631 218.395 347.345)" stroke="#FAFF00" stroke-width="5"/>
<line y1="-2.5" x2="41.942" y2="-2.5" transform="matrix(0.996685 -0.0802558 0.0903541 0.99601 241.666 384.032)" stroke="#FAFF00" stroke-width="5"/>
<line y1="-2.5" x2="41.8568" y2="-2.5" transform="matrix(-0.979028 0.202545 -0.227055 -0.974157 353.346 276.044)" stroke="#FAFF00" stroke-width="5"/>
<line y1="-2.5" x2="39.8399" y2="-2.5" transform="matrix(-0.362166 0.931642 -0.945688 -0.32631 326.001 390.231)" stroke="#FAFF00" stroke-width="5"/>
<line y1="-2.5" x2="41.942" y2="-2.5" transform="matrix(0.996685 -0.080255 0.090355 0.99601 258.905 407.84)" stroke="#FAFF00" stroke-width="5"/>
<line y1="-2.5" x2="39.8399" y2="-2.5" transform="matrix(-0.362166 0.931642 -0.945688 -0.32631 316.005 350.362)" stroke="#FAFF00" stroke-width="5"/>
<line y1="-2.5" x2="41.942" y2="-2.5" transform="matrix(0.996685 -0.080255 0.090355 0.99601 293.992 347.56)" stroke="#FAFF00" stroke-width="5"/>
<line y1="-2.5" x2="41.6844" y2="-2.5" transform="matrix(-0.943465 0.330304 -0.36707 -0.930648 345.554 186)" stroke="#FAFF00" stroke-width="5"/>
<line y1="-2.5" x2="41.942" y2="-2.5" transform="matrix(0.996685 -0.080255 0.0903549 0.99601 355.831 69.1263)" stroke="#FAFF00" stroke-width="5"/>
<line y1="-2.5" x2="39.8399" y2="-2.5" transform="matrix(-0.362166 0.931642 -0.945688 -0.32631 230.578 299.26)" stroke="#FAFF00" stroke-width="5"/>
<line y1="-2.5" x2="39.8399" y2="-2.5" transform="matrix(-0.362166 0.931642 -0.945688 -0.32631 393.317 246.665)" stroke="#FAFF00" stroke-width="5"/>
<line y1="-2.5" x2="39.8399" y2="-2.5" transform="matrix(-0.362166 0.931642 -0.945688 -0.32631 411.119 226.502)" stroke="#FAFF00" stroke-width="5"/>
<line y1="-2.5" x2="39.8399" y2="-2.5" transform="matrix(-0.362166 0.931642 -0.945688 -0.32631 373.271 349.787)" stroke="#FAFF00" stroke-width="5"/>
<line y1="-2.5" x2="39.8399" y2="-2.5" transform="matrix(-0.362166 0.931642 -0.945688 -0.32631 446.723 186.175)" stroke="#FAFF00" stroke-width="5"/>
<line y1="-2.5" x2="41.3697" y2="-2.5" transform="matrix(-0.874856 0.483285 -0.528684 -0.849483 424.376 273.332)" stroke="#FAFF00" stroke-width="5"/>
<line y1="-2.5" x2="41.3697" y2="-2.5" transform="matrix(-0.874857 0.483284 -0.528684 -0.849483 426.723 293.293)" stroke="#FAFF00" stroke-width="5"/>
<line y1="-2.5" x2="41.3697" y2="-2.5" transform="matrix(-0.874857 0.483285 -0.528684 -0.849483 378.606 258.803)" stroke="#FAFF00" stroke-width="5"/>
<line y1="-2.5" x2="39.8399" y2="-2.5" transform="matrix(-0.362166 0.931642 -0.945688 -0.32631 404.214 178.608)" stroke="#FAFF00" stroke-width="5"/>
<line y1="-2.5" x2="41.507" y2="-2.5" transform="matrix(-0.905504 0.423208 -0.466148 -0.885289 402.328 105.683)" stroke="#FAFF00" stroke-width="5"/>
<line y1="-2.5" x2="41.3697" y2="-2.5" transform="matrix(-0.874856 0.483285 -0.528684 -0.849483 395.458 154.714)" stroke="#FAFF00" stroke-width="5"/>
<line y1="-2.5" x2="39.8399" y2="-2.5" transform="matrix(-0.362166 0.931642 -0.945688 -0.32631 425.772 115.44)" stroke="#FAFF00" stroke-width="5"/>
<line y1="-2.5" x2="39.8399" y2="-2.5" transform="matrix(-0.362166 0.931642 -0.945688 -0.32631 432.508 148.347)" stroke="#FAFF00" stroke-width="5"/>
<line y1="-2.5" x2="40.6441" y2="-2.5" transform="matrix(-0.702485 -0.71259 0.752095 -0.658102 237.67 147.441)" stroke="#FAFF00" stroke-width="5"/>
<line y1="-2.5" x2="39.8399" y2="-2.5" transform="matrix(-0.362166 0.931642 -0.945688 -0.32631 340.449 167.257)" stroke="#FAFF00" stroke-width="5"/>
<path d="M327.99 159.273L302.558 146.154" stroke="#FAFF00" stroke-width="5"/>
<line y1="-2.5" x2="46.6876" y2="-2.5" transform="matrix(-0.950621 0.30918 -0.344189 -0.939326 310.552 149.571)" stroke="#FAFF00" stroke-width="5"/>
<path d="M330.473 245.297L349.605 280.693" stroke="#FAFF00" stroke-width="5"/>
<line y1="-2.5" x2="39.8399" y2="-2.5" transform="matrix(-0.362166 0.931642 -0.945688 -0.32631 408.346 356.43)" stroke="#FAFF00" stroke-width="5"/>
<line y1="-2.5" x2="39.4262" y2="-2.5" transform="matrix(-0.609768 0.7918 -0.826052 -0.564652 265.706 123.042)" stroke="#FAFF00" stroke-width="5"/>
<line y1="-2.5" x2="59.4952" y2="-2.5" transform="matrix(-0.886109 0.462368 -0.507059 -0.862547 186.919 377.638)" stroke="#FAFF00" stroke-width="5"/>
<line y1="-2.5" x2="39.8399" y2="-2.5" transform="matrix(-0.362165 0.931642 -0.945688 -0.32631 242.388 218.203)" stroke="#FAFF00" stroke-width="5"/>
<line y1="-2.5" x2="39.8399" y2="-2.5" transform="matrix(-0.362165 0.931642 -0.945688 -0.32631 220.86 96.5131)" stroke="#FAFF00" stroke-width="5"/>
<path d="M221.628 117.489L193.973 125.646" stroke="#FAFF00" stroke-width="5"/>
<line y1="-2.5" x2="39.8399" y2="-2.5" transform="matrix(-0.362166 0.931642 -0.945688 -0.326309 190.963 78.8271)" stroke="#FAFF00" stroke-width="5"/>
<line y1="-2.5" x2="41.3616" y2="-2.5" transform="matrix(-0.883812 -0.468981 0.512829 -0.857831 246.325 284.893)" stroke="#FAFF00" stroke-width="5"/>
<line y1="-2.5" x2="39.8399" y2="-2.5" transform="matrix(-0.362166 0.931642 -0.945688 -0.32631 146.378 75.2779)" stroke="#FAFF00" stroke-width="5"/>
<line y1="-2.5" x2="45.0133" y2="-2.5" transform="matrix(0.0584181 0.998352 -0.998601 0.0518652 189.372 31.8792)" stroke="#FAFF00" stroke-width="5"/>
<line y1="-2.5" x2="40.6441" y2="-2.5" transform="matrix(-0.702485 -0.712591 0.752094 -0.658102 305.157 112.789)" stroke="#FAFF00" stroke-width="5"/>
<line y1="-2.5" x2="39.8399" y2="-2.5" transform="matrix(-0.362166 0.931642 -0.945688 -0.32631 356.74 201.067)" stroke="#FAFF00" stroke-width="5"/>
<line y1="-2.5" x2="41.3697" y2="-2.5" transform="matrix(-0.874856 0.483285 -0.528684 -0.849483 169.33 322.857)" stroke="#FAFF00" stroke-width="5"/>
<line y1="-2.5" x2="41.3697" y2="-2.5" transform="matrix(-0.874857 0.483284 -0.528684 -0.849483 352.512 296.037)" stroke="#FAFF00" stroke-width="5"/>
<line y1="-2.5" x2="41.3697" y2="-2.5" transform="matrix(-0.874857 0.483285 -0.528684 -0.849483 298.193 166.36)" stroke="#FAFF00" stroke-width="5"/>
<line y1="-2.5" x2="40.6441" y2="-2.5" transform="matrix(-0.702484 -0.712591 0.752094 -0.658102 169.757 79.3116)" stroke="#FAFF00" stroke-width="5"/>
<line y1="-2.5" x2="40.6441" y2="-2.5" transform="matrix(-0.702485 -0.712591 0.752094 -0.658102 156.856 345.237)" stroke="#FAFF00" stroke-width="5"/>
<line y1="-2.5" x2="39.8399" y2="-2.5" transform="matrix(-0.362166 0.931642 -0.945688 -0.32631 293.177 113.773)" stroke="#FAFF00" stroke-width="5"/>
<line y1="-2.5" x2="39.6495" y2="-2.5" transform="matrix(-0.244508 -0.969945 0.975616 -0.218298 366.959 348.78)" stroke="#FAFF00" stroke-width="5"/>
<line y1="-2.5" x2="40.6441" y2="-2.5" transform="matrix(-0.702485 -0.712591 0.752094 -0.658102 204.408 329.771)" stroke="#FAFF00" stroke-width="5"/>
<line y1="-2.5" x2="40.6441" y2="-2.5" transform="matrix(-0.702485 -0.712591 0.752094 -0.658102 180.191 222.96)" stroke="#FAFF00" stroke-width="5"/>
<line y1="-2.5" x2="39.8399" y2="-2.5" transform="matrix(-0.362165 0.931642 -0.945688 -0.32631 212.919 144.556)" stroke="#FAFF00" stroke-width="5"/>
<line y1="-2.5" x2="39.8399" y2="-2.5" transform="matrix(-0.362166 0.931642 -0.945688 -0.32631 239.523 246.211)" stroke="#FAFF00" stroke-width="5"/>
<line y1="-2.5" x2="40.3129" y2="-2.5" transform="matrix(-0.999923 -0.0147473 0.0166117 -0.999826 198.23 158.693)" stroke="#FAFF00" stroke-width="5"/>
<line y1="-2.5" x2="39.8399" y2="-2.5" transform="matrix(-0.362165 0.931642 -0.945688 -0.32631 198.289 257.616)" stroke="#FAFF00" stroke-width="5"/>
<line y1="-2.5" x2="39.8399" y2="-2.5" transform="matrix(-0.362166 0.931642 -0.945688 -0.326309 115.691 81.5814)" stroke="#FAFF00" stroke-width="5"/>
<line y1="-2.5" x2="39.8399" y2="-2.5" transform="matrix(-0.362166 0.931642 -0.945688 -0.326309 159.782 135.097)" stroke="#FAFF00" stroke-width="5"/>
<line y1="-2.5" x2="39.8398" y2="-2.5" transform="matrix(-0.362166 0.931642 -0.945688 -0.32631 207.34 401.415)" stroke="#FAFF00" stroke-width="5"/>
<line y1="-2.5" x2="40.6441" y2="-2.5" transform="matrix(-0.702485 -0.712591 0.752094 -0.658102 350.829 53.5118)" stroke="#FAFF00" stroke-width="5"/>
<line y1="-2.5" x2="40.7499" y2="-2.5" transform="matrix(-0.732899 -0.68127 0.722775 -0.690166 135.618 161.862)" stroke="#FAFF00" stroke-width="5"/>
<line y1="-2.5" x2="58.0822" y2="-2.5" transform="matrix(-0.699486 -0.715534 0.754826 -0.654969 188.296 405.603)" stroke="#FAFF00" stroke-width="5"/>
<line y1="-2.5" x2="40.7499" y2="-2.5" transform="matrix(-0.732899 -0.68127 0.722775 -0.690165 88.9221 152.879)" stroke="#FAFF00" stroke-width="5"/>
<line y1="-2.5" x2="39.8399" y2="-2.5" transform="matrix(-0.362166 0.931642 -0.945688 -0.32631 464.526 166.011)" stroke="#FAFF00" stroke-width="5"/>
<line y1="-2.5" x2="39.8398" y2="-2.5" transform="matrix(-0.362166 0.931642 -0.945688 -0.32631 247.638 401.01)" stroke="#FAFF00" stroke-width="5"/>
<line y1="-2.5" x2="41.942" y2="-2.5" transform="matrix(0.996685 -0.080255 0.090355 0.99601 241.015 446.016)" stroke="#FAFF00" stroke-width="5"/>
<line y1="-2.5" x2="37.8037" y2="-2.5" transform="matrix(-0.806944 0.589609 -0.635943 -0.77254 216.722 199.476)" stroke="#FAFF00" stroke-width="5"/>
<line y1="-2.5" x2="39.8399" y2="-2.5" transform="matrix(-0.362165 0.931642 -0.945688 -0.32631 174.608 226.878)" stroke="#FAFF00" stroke-width="5"/>
<line y1="-2.5" x2="41.9451" y2="-2.5" transform="matrix(-0.998766 -0.0512074 0.0576608 -0.998249 175.281 286.396)" stroke="#FAFF00" stroke-width="5"/>
<line y1="-2.5" x2="39.8399" y2="-2.5" transform="matrix(-0.362166 0.931642 -0.945688 -0.32631 187.482 333.667)" stroke="#FAFF00" stroke-width="5"/>
<line y1="-2.5" x2="40.75" y2="-2.5" transform="matrix(-0.732899 -0.68127 0.722775 -0.690165 137.582 241.78)" stroke="#FAFF00" stroke-width="5"/>
<line y1="-2.5" x2="40.7499" y2="-2.5" transform="matrix(-0.732899 -0.68127 0.722775 -0.690165 85.0776 281.818)" stroke="#FAFF00" stroke-width="5"/>
<line y1="-2.5" x2="39.8399" y2="-2.5" transform="matrix(-0.362166 0.931642 -0.945688 -0.32631 110.562 284.477)" stroke="#FAFF00" stroke-width="5"/>
<line y1="-2.5" x2="39.8399" y2="-2.5" transform="matrix(-0.362166 0.931642 -0.945688 -0.32631 85.12 191.804)" stroke="#FAFF00" stroke-width="5"/>
<line y1="-2.5" x2="39.8399" y2="-2.5" transform="matrix(-0.362166 0.931642 -0.945688 -0.32631 147.757 197.17)" stroke="#FAFF00" stroke-width="5"/>
<line y1="-2.5" x2="40.75" y2="-2.5" transform="matrix(-0.732899 -0.68127 0.722775 -0.690165 110.247 256.585)" stroke="#FAFF00" stroke-width="5"/>
<line y1="-2.5" x2="40.7499" y2="-2.5" transform="matrix(-0.732899 -0.68127 0.722775 -0.690166 121.019 183.991)" stroke="#FAFF00" stroke-width="5"/>
<line y1="-2.5" x2="39.8399" y2="-2.5" transform="matrix(-0.362166 0.931642 -0.945688 -0.32631 156.351 113.149)" stroke="#FAFF00" stroke-width="5"/>
<path d="M272.576 74.081L230.868 90.4875" stroke="#FAFF00" stroke-width="5"/>
<line y1="-2.5" x2="40.6441" y2="-2.5" transform="matrix(-0.702485 -0.712591 0.752094 -0.658102 249.514 69.3815)" stroke="#FAFF00" stroke-width="5"/>
<line y1="-2.5" x2="40.6441" y2="-2.5" transform="matrix(-0.702485 -0.712591 0.752094 -0.658102 292.564 30.9784)" stroke="#FAFF00" stroke-width="5"/>
<line y1="-2.5" x2="39.8399" y2="-2.5" transform="matrix(-0.362165 0.931642 -0.945688 -0.32631 55.2907 180.113)" stroke="#FAFF00" stroke-width="5"/>
<line y1="-2.5" x2="39.8399" y2="-2.5" transform="matrix(-0.362166 0.931642 -0.945688 -0.326309 129.493 270.298)" stroke="#FAFF00" stroke-width="5"/>
<line y1="-2.5" x2="39.8399" y2="-2.5" transform="matrix(-0.362165 0.931642 -0.945688 -0.32631 310.079 201.536)" stroke="#FAFF00" stroke-width="5"/>
<line y1="-2.5" x2="37.6963" y2="-2.5" transform="matrix(-0.953204 0.301153 -0.335463 -0.942468 237.086 218.257)" stroke="#FAFF00" stroke-width="5"/>
<line y1="-2.5" x2="39.8399" y2="-2.5" transform="matrix(-0.362166 0.931642 -0.945688 -0.32631 261.895 254.979)" stroke="#FAFF00" stroke-width="5"/>
<line y1="-2.5" x2="39.8399" y2="-2.5" transform="matrix(-0.362166 0.931642 -0.945688 -0.32631 334.084 73.3931)" stroke="#FAFF00" stroke-width="5"/>
<line y1="-2.5" x2="39.8399" y2="-2.5" transform="matrix(-0.362166 0.931642 -0.945688 -0.32631 379.067 205.839)" stroke="#FAFF00" stroke-width="5"/>
<line y1="-2.5" x2="39.8399" y2="-2.5" transform="matrix(-0.362165 0.931642 -0.945688 -0.32631 467.562 246.919)" stroke="#FAFF00" stroke-width="5"/>
<line y1="-2.5" x2="40.6441" y2="-2.5" transform="matrix(-0.702484 -0.712591 0.752094 -0.658102 112.564 367.665)" stroke="#FAFF00" stroke-width="5"/>
<line y1="-2.5" x2="39.8224" y2="-2.5" transform="matrix(-0.362325 0.932052 -0.945308 -0.326179 42.5641 254.357)" stroke="#FAFF00" stroke-width="5"/>
<line y1="-2.5" x2="39.7615" y2="-2.5" transform="matrix(-0.32318 -0.946338 0.956999 -0.290091 167.987 449.049)" stroke="#FAFF00" stroke-width="5"/>
<line y1="-2.5" x2="40.7758" y2="-2.5" transform="matrix(-0.732434 -0.680838 0.723234 -0.690603 72.3511 356.063)" stroke="#FAFF00" stroke-width="5"/>
<line y1="-2.5" x2="41.9236" y2="-2.5" transform="matrix(0.993995 0.109427 -0.123083 0.992396 78.1101 386.108)" stroke="#FAFF00" stroke-width="5"/>
<line y1="-2.5" x2="41.359" y2="-2.5" transform="matrix(0.877844 0.478948 -0.52366 0.851928 39.5137 90.1073)" stroke="#FAFF00" stroke-width="5"/>
<line y1="-2.5" x2="41.359" y2="-2.5" transform="matrix(0.877844 0.478948 -0.52366 0.851928 68.7298 41.5048)" stroke="#FAFF00" stroke-width="5"/>
<line y1="-2.5" x2="41.359" y2="-2.5" transform="matrix(0.877844 0.478948 -0.52366 0.851928 141.898 9.99176)" stroke="#FAFF00" stroke-width="5"/>
<line y1="-2.5" x2="45.3456" y2="-2.5" transform="matrix(-0.363685 -0.931522 0.944872 -0.327439 137.896 60.7572)" stroke="#FAFF00" stroke-width="5"/>
<line y1="-2.5" x2="41.951" y2="-2.5" transform="matrix(0.999179 0.0405212 -0.0456419 0.998958 39.7083 78.9297)" stroke="#FAFF00" stroke-width="5"/>
<line y1="-2.5" x2="40.0387" y2="-2.5" transform="matrix(-0.475149 0.879905 -0.901765 -0.432227 133.548 21.3499)" stroke="#FAFF00" stroke-width="5"/>
</svg>
