<svg width="387" height="377" viewBox="0 0 387 377" fill="none" xmlns="http://www.w3.org/2000/svg">
<ellipse cx="52" cy="113.5" rx="42" ry="41.5" fill="#E30000" fill-opacity="0.9"/>
<ellipse cx="186" cy="41.5" rx="42" ry="41.5" fill="#E30000" fill-opacity="0.9"/>
<ellipse cx="335" cy="102.5" rx="42" ry="41.5" fill="#E30000" fill-opacity="0.9"/>
<ellipse cx="186" cy="190.5" rx="42" ry="41.5" fill="#E30000" fill-opacity="0.9"/>
<ellipse cx="67" cy="258.5" rx="42" ry="41.5" fill="#E30000" fill-opacity="0.9"/>
<ellipse cx="200" cy="335.5" rx="42" ry="41.5" fill="#E30000" fill-opacity="0.9"/>
<ellipse cx="345" cy="257.5" rx="42" ry="41.5" fill="#E30000" fill-opacity="0.9"/>
<ellipse cx="24" cy="104.5" rx="5" ry="4.5" fill="white"/>
<ellipse cx="158" cy="32.5" rx="5" ry="4.5" fill="white"/>
<ellipse cx="307" cy="93.5" rx="5" ry="4.5" fill="white"/>
<ellipse cx="158" cy="181.5" rx="5" ry="4.5" fill="white"/>
<ellipse cx="39" cy="249.5" rx="5" ry="4.5" fill="white"/>
<ellipse cx="172" cy="326.5" rx="5" ry="4.5" fill="white"/>
<ellipse cx="317" cy="248.5" rx="5" ry="4.5" fill="white"/>
<ellipse cx="52" cy="109.5" rx="5" ry="4.5" fill="#EBE8E8"/>
<ellipse cx="52" cy="109.5" rx="5" ry="4.5" fill="#EBE8E8"/>
<ellipse cx="186" cy="37.5" rx="5" ry="4.5" fill="#EBE8E8"/>
<ellipse cx="186" cy="37.5" rx="5" ry="4.5" fill="#EBE8E8"/>
<ellipse cx="335" cy="98.5" rx="5" ry="4.5" fill="#EBE8E8"/>
<ellipse cx="335" cy="98.5" rx="5" ry="4.5" fill="#EBE8E8"/>
<ellipse cx="186" cy="186.5" rx="5" ry="4.5" fill="#EBE8E8"/>
<ellipse cx="186" cy="186.5" rx="5" ry="4.5" fill="#EBE8E8"/>
<ellipse cx="67" cy="254.5" rx="5" ry="4.5" fill="#EBE8E8"/>
<ellipse cx="67" cy="254.5" rx="5" ry="4.5" fill="#EBE8E8"/>
<ellipse cx="200" cy="331.5" rx="5" ry="4.5" fill="#EBE8E8"/>
<ellipse cx="200" cy="331.5" rx="5" ry="4.5" fill="#EBE8E8"/>
<ellipse cx="345" cy="253.5" rx="5" ry="4.5" fill="#EBE8E8"/>
<ellipse cx="345" cy="253.5" rx="5" ry="4.5" fill="#EBE8E8"/>
<ellipse cx="47" cy="138.5" rx="5" ry="4.5" fill="#EBE8E8"/>
<ellipse cx="47" cy="138.5" rx="5" ry="4.5" fill="#EBE8E8"/>
<ellipse cx="181" cy="66.5" rx="5" ry="4.5" fill="#EBE8E8"/>
<ellipse cx="181" cy="66.5" rx="5" ry="4.5" fill="#EBE8E8"/>
<ellipse cx="330" cy="127.5" rx="5" ry="4.5" fill="#EBE8E8"/>
<ellipse cx="330" cy="127.5" rx="5" ry="4.5" fill="#EBE8E8"/>
<ellipse cx="181" cy="215.5" rx="5" ry="4.5" fill="#EBE8E8"/>
<ellipse cx="181" cy="215.5" rx="5" ry="4.5" fill="#EBE8E8"/>
<ellipse cx="62" cy="283.5" rx="5" ry="4.5" fill="#EBE8E8"/>
<ellipse cx="62" cy="283.5" rx="5" ry="4.5" fill="#EBE8E8"/>
<ellipse cx="195" cy="360.5" rx="5" ry="4.5" fill="#EBE8E8"/>
<ellipse cx="195" cy="360.5" rx="5" ry="4.5" fill="#EBE8E8"/>
<ellipse cx="340" cy="282.5" rx="5" ry="4.5" fill="#EBE8E8"/>
<ellipse cx="340" cy="282.5" rx="5" ry="4.5" fill="#EBE8E8"/>
<ellipse cx="72" cy="124.5" rx="5" ry="4.5" fill="#EBE8E8"/>
<ellipse cx="72" cy="124.5" rx="5" ry="4.5" fill="#EBE8E8"/>
<ellipse cx="206" cy="52.5" rx="5" ry="4.5" fill="#EBE8E8"/>
<ellipse cx="206" cy="52.5" rx="5" ry="4.5" fill="#EBE8E8"/>
<ellipse cx="355" cy="113.5" rx="5" ry="4.5" fill="#EBE8E8"/>
<ellipse cx="355" cy="113.5" rx="5" ry="4.5" fill="#EBE8E8"/>
<ellipse cx="206" cy="201.5" rx="5" ry="4.5" fill="#EBE8E8"/>
<ellipse cx="206" cy="201.5" rx="5" ry="4.5" fill="#EBE8E8"/>
<ellipse cx="87" cy="269.5" rx="5" ry="4.5" fill="#EBE8E8"/>
<ellipse cx="87" cy="269.5" rx="5" ry="4.5" fill="#EBE8E8"/>
<ellipse cx="220" cy="346.5" rx="5" ry="4.5" fill="#EBE8E8"/>
<ellipse cx="220" cy="346.5" rx="5" ry="4.5" fill="#EBE8E8"/>
<ellipse cx="365" cy="268.5" rx="5" ry="4.5" fill="#EBE8E8"/>
<ellipse cx="365" cy="268.5" rx="5" ry="4.5" fill="#EBE8E8"/>
<ellipse cx="62" cy="87.5" rx="5" ry="4.5" fill="#EBE8E8"/>
<ellipse cx="62" cy="87.5" rx="5" ry="4.5" fill="#EBE8E8"/>
<ellipse cx="196" cy="15.5" rx="5" ry="4.5" fill="#EBE8E8"/>
<ellipse cx="196" cy="15.5" rx="5" ry="4.5" fill="#EBE8E8"/>
<ellipse cx="345" cy="76.5" rx="5" ry="4.5" fill="#EBE8E8"/>
<ellipse cx="345" cy="76.5" rx="5" ry="4.5" fill="#EBE8E8"/>
<ellipse cx="196" cy="164.5" rx="5" ry="4.5" fill="#EBE8E8"/>
<ellipse cx="196" cy="164.5" rx="5" ry="4.5" fill="#EBE8E8"/>
<ellipse cx="77" cy="232.5" rx="5" ry="4.5" fill="#EBE8E8"/>
<ellipse cx="77" cy="232.5" rx="5" ry="4.5" fill="#EBE8E8"/>
<ellipse cx="210" cy="309.5" rx="5" ry="4.5" fill="#EBE8E8"/>
<ellipse cx="210" cy="309.5" rx="5" ry="4.5" fill="#EBE8E8"/>
<ellipse cx="355" cy="231.5" rx="5" ry="4.5" fill="#EBE8E8"/>
<ellipse cx="355" cy="231.5" rx="5" ry="4.5" fill="#EBE8E8"/>
</svg>
