<svg width="387" height="377" viewBox="0 0 387 377" fill="none" xmlns="http://www.w3.org/2000/svg">
<ellipse cx="57" cy="116.5" rx="42" ry="41.5" fill="#E30000" fill-opacity="0.9"/>
<ellipse cx="186" cy="49.5" rx="42" ry="41.5" fill="#E30000" fill-opacity="0.9"/>
<ellipse cx="315" cy="105.5" rx="42" ry="41.5" fill="#E30000" fill-opacity="0.9"/>
<ellipse cx="186" cy="190.5" rx="42" ry="41.5" fill="#E30000" fill-opacity="0.9"/>
<ellipse cx="67" cy="258.5" rx="42" ry="41.5" fill="#E30000" fill-opacity="0.9"/>
<ellipse cx="200" cy="324.5" rx="42" ry="41.5" fill="#E30000" fill-opacity="0.9"/>
<ellipse cx="325" cy="249.5" rx="42" ry="41.5" fill="#E30000" fill-opacity="0.9"/>
<ellipse cx="29" cy="107.5" rx="5" ry="4.5" fill="white"/>
<ellipse cx="158" cy="40.5" rx="5" ry="4.5" fill="white"/>
<ellipse cx="287" cy="96.5" rx="5" ry="4.5" fill="white"/>
<ellipse cx="158" cy="181.5" rx="5" ry="4.5" fill="white"/>
<ellipse cx="39" cy="249.5" rx="5" ry="4.5" fill="white"/>
<ellipse cx="172" cy="315.5" rx="5" ry="4.5" fill="white"/>
<ellipse cx="297" cy="240.5" rx="5" ry="4.5" fill="white"/>
<ellipse cx="57" cy="112.5" rx="5" ry="4.5" fill="#EBE8E8"/>
<ellipse cx="57" cy="112.5" rx="5" ry="4.5" fill="#EBE8E8"/>
<ellipse cx="186" cy="45.5" rx="5" ry="4.5" fill="#EBE8E8"/>
<ellipse cx="186" cy="45.5" rx="5" ry="4.5" fill="#EBE8E8"/>
<ellipse cx="315" cy="101.5" rx="5" ry="4.5" fill="#EBE8E8"/>
<ellipse cx="315" cy="101.5" rx="5" ry="4.5" fill="#EBE8E8"/>
<ellipse cx="186" cy="186.5" rx="5" ry="4.5" fill="#EBE8E8"/>
<ellipse cx="186" cy="186.5" rx="5" ry="4.5" fill="#EBE8E8"/>
<ellipse cx="67" cy="254.5" rx="5" ry="4.5" fill="#EBE8E8"/>
<ellipse cx="67" cy="254.5" rx="5" ry="4.5" fill="#EBE8E8"/>
<ellipse cx="200" cy="320.5" rx="5" ry="4.5" fill="#EBE8E8"/>
<ellipse cx="200" cy="320.5" rx="5" ry="4.5" fill="#EBE8E8"/>
<ellipse cx="325" cy="245.5" rx="5" ry="4.5" fill="#EBE8E8"/>
<ellipse cx="325" cy="245.5" rx="5" ry="4.5" fill="#EBE8E8"/>
<ellipse cx="52" cy="141.5" rx="5" ry="4.5" fill="#EBE8E8"/>
<ellipse cx="52" cy="141.5" rx="5" ry="4.5" fill="#EBE8E8"/>
<ellipse cx="181" cy="74.5" rx="5" ry="4.5" fill="#EBE8E8"/>
<ellipse cx="181" cy="74.5" rx="5" ry="4.5" fill="#EBE8E8"/>
<ellipse cx="310" cy="130.5" rx="5" ry="4.5" fill="#EBE8E8"/>
<ellipse cx="310" cy="130.5" rx="5" ry="4.5" fill="#EBE8E8"/>
<ellipse cx="181" cy="215.5" rx="5" ry="4.5" fill="#EBE8E8"/>
<ellipse cx="181" cy="215.5" rx="5" ry="4.5" fill="#EBE8E8"/>
<ellipse cx="62" cy="283.5" rx="5" ry="4.5" fill="#EBE8E8"/>
<ellipse cx="62" cy="283.5" rx="5" ry="4.5" fill="#EBE8E8"/>
<ellipse cx="195" cy="349.5" rx="5" ry="4.5" fill="#EBE8E8"/>
<ellipse cx="195" cy="349.5" rx="5" ry="4.5" fill="#EBE8E8"/>
<ellipse cx="320" cy="274.5" rx="5" ry="4.5" fill="#EBE8E8"/>
<ellipse cx="320" cy="274.5" rx="5" ry="4.5" fill="#EBE8E8"/>
<ellipse cx="77" cy="127.5" rx="5" ry="4.5" fill="#EBE8E8"/>
<ellipse cx="77" cy="127.5" rx="5" ry="4.5" fill="#EBE8E8"/>
<ellipse cx="206" cy="60.5" rx="5" ry="4.5" fill="#EBE8E8"/>
<ellipse cx="206" cy="60.5" rx="5" ry="4.5" fill="#EBE8E8"/>
<ellipse cx="335" cy="116.5" rx="5" ry="4.5" fill="#EBE8E8"/>
<ellipse cx="335" cy="116.5" rx="5" ry="4.5" fill="#EBE8E8"/>
<ellipse cx="206" cy="201.5" rx="5" ry="4.5" fill="#EBE8E8"/>
<ellipse cx="206" cy="201.5" rx="5" ry="4.5" fill="#EBE8E8"/>
<ellipse cx="87" cy="269.5" rx="5" ry="4.5" fill="#EBE8E8"/>
<ellipse cx="87" cy="269.5" rx="5" ry="4.5" fill="#EBE8E8"/>
<ellipse cx="220" cy="335.5" rx="5" ry="4.5" fill="#EBE8E8"/>
<ellipse cx="220" cy="335.5" rx="5" ry="4.5" fill="#EBE8E8"/>
<ellipse cx="345" cy="260.5" rx="5" ry="4.5" fill="#EBE8E8"/>
<ellipse cx="345" cy="260.5" rx="5" ry="4.5" fill="#EBE8E8"/>
<ellipse cx="67" cy="90.5" rx="5" ry="4.5" fill="#EBE8E8"/>
<ellipse cx="67" cy="90.5" rx="5" ry="4.5" fill="#EBE8E8"/>
<ellipse cx="196" cy="23.5" rx="5" ry="4.5" fill="#EBE8E8"/>
<ellipse cx="196" cy="23.5" rx="5" ry="4.5" fill="#EBE8E8"/>
<ellipse cx="325" cy="79.5" rx="5" ry="4.5" fill="#EBE8E8"/>
<ellipse cx="325" cy="79.5" rx="5" ry="4.5" fill="#EBE8E8"/>
<ellipse cx="196" cy="164.5" rx="5" ry="4.5" fill="#EBE8E8"/>
<ellipse cx="196" cy="164.5" rx="5" ry="4.5" fill="#EBE8E8"/>
<ellipse cx="77" cy="232.5" rx="5" ry="4.5" fill="#EBE8E8"/>
<ellipse cx="77" cy="232.5" rx="5" ry="4.5" fill="#EBE8E8"/>
<ellipse cx="210" cy="298.5" rx="5" ry="4.5" fill="#EBE8E8"/>
<ellipse cx="210" cy="298.5" rx="5" ry="4.5" fill="#EBE8E8"/>
<ellipse cx="335" cy="223.5" rx="5" ry="4.5" fill="#EBE8E8"/>
<ellipse cx="335" cy="223.5" rx="5" ry="4.5" fill="#EBE8E8"/>
</svg>
