<svg width="310" height="307" viewBox="0 0 310 307" fill="none" xmlns="http://www.w3.org/2000/svg">
<path d="M153.5 70C153.5 92.3562 134.931 110.5 112 110.5C89.0688 110.5 70.5 92.3562 70.5 70C70.5 47.6438 89.0688 29.5 112 29.5C134.931 29.5 153.5 47.6438 153.5 70Z" fill="url(#paint0_radial)" fill-opacity="0.9" stroke="#920000"/>
<path d="M293.5 110C293.5 132.356 274.931 150.5 252 150.5C229.069 150.5 210.5 132.356 210.5 110C210.5 87.6438 229.069 69.5 252 69.5C274.931 69.5 293.5 87.6438 293.5 110Z" fill="url(#paint1_radial)" fill-opacity="0.9" stroke="#920000"/>
<path d="M248.5 224C248.5 246.356 229.931 264.5 207 264.5C184.069 264.5 165.5 246.356 165.5 224C165.5 201.644 184.069 183.5 207 183.5C229.931 183.5 248.5 201.644 248.5 224Z" fill="url(#paint2_radial)" fill-opacity="0.9" stroke="#920000"/>
<path d="M104.5 194C104.5 216.356 85.9312 234.5 63 234.5C40.0688 234.5 21.5 216.356 21.5 194C21.5 171.644 40.0688 153.5 63 153.5C85.9312 153.5 104.5 171.644 104.5 194Z" fill="url(#paint3_radial)" fill-opacity="0.9" stroke="#920000"/>
<path d="M125.406 71.0905C123.58 70.5012 123.056 68.1724 124.458 66.8787L136.505 55.7617C137.585 54.7649 139.28 54.922 140.103 56.1018C142.326 59.2906 143.677 62.0555 144.318 64.9121C144.959 67.7678 144.898 70.7529 144.243 74.3945C143.992 75.7888 142.534 76.6175 141.139 76.1674L125.406 71.0905Z" fill="url(#paint4_linear)" stroke="#C50000"/>
<path d="M265.406 111.09C263.58 110.501 263.056 108.172 264.458 106.879L276.505 95.7617C277.585 94.7649 279.28 94.922 280.103 96.1018C282.326 99.2906 283.677 102.055 284.318 104.912C284.959 107.768 284.898 110.753 284.243 114.395C283.992 115.789 282.534 116.618 281.139 116.167L265.406 111.09Z" fill="url(#paint5_linear)" stroke="#C50000"/>
<path d="M220.406 225.09C218.58 224.501 218.056 222.172 219.458 220.879L231.505 209.762C232.585 208.765 234.28 208.922 235.103 210.102C237.326 213.291 238.677 216.055 239.318 218.912C239.959 221.768 239.898 224.753 239.243 228.395C238.992 229.789 237.534 230.618 236.139 230.167L220.406 225.09Z" fill="url(#paint6_linear)" stroke="#C50000"/>
<path d="M76.4063 195.09C74.5804 194.501 74.0559 192.172 75.4578 190.879L87.5048 179.762C88.585 178.765 90.28 178.922 91.1026 180.102C93.3261 183.291 94.6773 186.055 95.3182 188.912C95.9589 191.768 95.8983 194.753 95.2426 198.395C94.9916 199.789 93.5336 200.618 92.1388 200.167L76.4063 195.09Z" fill="url(#paint7_linear)" stroke="#C50000"/>
<path d="M114.946 59.7888C113.594 61.1128 111.323 60.5347 110.793 58.7314L106.17 43.0184C105.757 41.6137 106.642 40.1681 108.056 39.9499C111.667 39.3929 114.648 39.391 117.527 40.11C120.408 40.8293 123.224 42.2796 126.492 44.6827C127.659 45.5412 127.742 47.2588 126.672 48.306L114.946 59.7888Z" fill="url(#paint8_linear)" stroke="#C50000"/>
<path d="M254.946 99.7888C253.594 101.113 251.323 100.535 250.793 98.7314L246.17 83.0184C245.757 81.6137 246.642 80.1681 248.056 79.9499C251.667 79.3929 254.648 79.391 257.527 80.11C260.408 80.8293 263.224 82.2796 266.492 84.6827C267.659 85.5412 267.742 87.2588 266.672 88.306L254.946 99.7888Z" fill="url(#paint9_linear)" stroke="#C50000"/>
<path d="M209.946 213.789C208.594 215.113 206.323 214.535 205.793 212.731L201.17 197.018C200.757 195.614 201.642 194.168 203.056 193.95C206.667 193.393 209.648 193.391 212.527 194.11C215.408 194.829 218.224 196.28 221.492 198.683C222.659 199.541 222.742 201.259 221.672 202.306L209.946 213.789Z" fill="url(#paint10_linear)" stroke="#C50000"/>
<path d="M65.9462 183.789C64.5942 185.113 62.3232 184.535 61.7927 182.731L57.1704 167.018C56.7571 165.614 57.6418 164.168 59.0565 163.95C62.6671 163.393 65.6477 163.391 68.5268 164.11C71.4076 164.829 74.2243 166.28 77.4916 168.683C78.6588 169.541 78.7418 171.259 77.6724 172.306L65.9462 183.789Z" fill="url(#paint11_linear)" stroke="#C50000"/>
<path d="M102.491 65.4872C103.236 67.2258 101.81 69.122 99.9037 68.9297L83.6743 67.2928C82.1307 67.1372 81.1205 65.6647 81.5876 64.2458C82.7736 60.6424 84.1219 57.9272 85.8647 55.6424C87.6072 53.3579 89.7616 51.4809 92.5899 49.5741C93.8335 48.7356 95.5459 49.262 96.1458 50.6633L102.491 65.4872Z" fill="url(#paint12_linear)" stroke="#C50000"/>
<path d="M242.491 105.487C243.236 107.226 241.81 109.122 239.904 108.93L223.674 107.293C222.131 107.137 221.121 105.665 221.588 104.246C222.774 100.642 224.122 97.9272 225.865 95.6424C227.607 93.3579 229.762 91.4809 232.59 89.5741C233.834 88.7356 235.546 89.262 236.146 90.6633L242.491 105.487Z" fill="url(#paint13_linear)" stroke="#C50000"/>
<path d="M197.491 219.487C198.236 221.226 196.81 223.122 194.904 222.93L178.674 221.293C177.131 221.137 176.121 219.665 176.588 218.246C177.774 214.642 179.122 211.927 180.865 209.642C182.607 207.358 184.762 205.481 187.59 203.574C188.834 202.736 190.546 203.262 191.146 204.663L197.491 219.487Z" fill="url(#paint14_linear)" stroke="#C50000"/>
<path d="M53.4914 189.487C54.2356 191.226 52.8103 193.122 50.9037 192.93L34.6743 191.293C33.1307 191.137 32.1205 189.665 32.5876 188.246C33.7736 184.642 35.1219 181.927 36.8647 179.642C38.6072 177.358 40.7616 175.481 43.5899 173.574C44.8335 172.736 46.5459 173.262 47.1458 174.663L53.4914 189.487Z" fill="url(#paint15_linear)" stroke="#C50000"/>
<path d="M102.096 75.675C103.98 75.3363 105.548 77.1115 104.945 78.9011L99.7879 94.207C99.3053 95.6394 97.6551 96.305 96.3357 95.5949C92.5778 93.5725 89.9067 91.653 87.9364 89.4514C85.9713 87.2556 84.6802 84.7534 83.7222 81.5314C83.3349 80.2288 84.2253 78.8879 85.6329 78.6348L102.096 75.675Z" fill="url(#paint16_linear)" stroke="#C50000"/>
<path d="M242.096 115.675C243.98 115.336 245.548 117.112 244.945 118.901L239.788 134.207C239.305 135.639 237.655 136.305 236.336 135.595C232.578 133.572 229.907 131.653 227.936 129.451C225.971 127.256 224.68 124.753 223.722 121.531C223.335 120.229 224.225 118.888 225.633 118.635L242.096 115.675Z" fill="url(#paint17_linear)" stroke="#C50000"/>
<path d="M197.096 229.675C198.98 229.336 200.548 231.112 199.945 232.901L194.788 248.207C194.305 249.639 192.655 250.305 191.336 249.595C187.578 247.572 184.907 245.653 182.936 243.451C180.971 241.256 179.68 238.753 178.722 235.531C178.335 234.229 179.225 232.888 180.633 232.635L197.096 229.675Z" fill="url(#paint18_linear)" stroke="#C50000"/>
<path d="M53.0963 199.675C54.9805 199.336 56.5481 201.112 55.9451 202.901L50.7879 218.207C50.3053 219.639 48.6551 220.305 47.3357 219.595C43.5778 217.572 40.9067 215.653 38.9364 213.451C36.9713 211.256 35.6802 208.753 34.7222 205.531C34.3349 204.229 35.2253 202.888 36.6329 202.635L53.0963 199.675Z" fill="url(#paint19_linear)" stroke="#C50000"/>
<path d="M115.664 80.8494C115.568 78.9705 117.542 77.6847 119.262 78.505L134.451 85.7492C135.704 86.347 136.226 87.8171 135.587 88.9851C133.557 92.6952 131.471 95.1363 128.907 96.7645C126.341 98.3945 123.247 99.2406 119.144 99.6755C117.776 99.8205 116.569 98.7633 116.499 97.3715L115.664 80.8494Z" fill="url(#paint20_linear)" stroke="#C50000"/>
<path d="M255.664 120.849C255.568 118.97 257.542 117.685 259.262 118.505L274.451 125.749C275.704 126.347 276.226 127.817 275.587 128.985C273.557 132.695 271.471 135.136 268.907 136.765C266.341 138.394 263.247 139.241 259.144 139.676C257.776 139.821 256.569 138.763 256.499 137.371L255.664 120.849Z" fill="url(#paint21_linear)" stroke="#C50000"/>
<path d="M210.664 234.849C210.568 232.97 212.542 231.685 214.262 232.505L229.451 239.749C230.704 240.347 231.226 241.817 230.587 242.985C228.557 246.695 226.471 249.136 223.907 250.765C221.341 252.394 218.247 253.241 214.144 253.676C212.776 253.821 211.569 252.763 211.499 251.371L210.664 234.849Z" fill="url(#paint22_linear)" stroke="#C50000"/>
<path d="M66.6635 204.849C66.5685 202.97 68.5419 201.685 70.2617 202.505L85.451 209.749C86.7043 210.347 87.226 211.817 86.587 212.985C84.5571 216.695 82.4713 219.136 79.9074 220.765C77.3409 222.394 74.2475 223.241 70.144 223.676C68.7762 223.821 67.5694 222.763 67.499 221.371L66.6635 204.849Z" fill="url(#paint23_linear)" stroke="#C50000"/>
<ellipse cx="87" cy="61.5" rx="2" ry="1.5" fill="#DFCB63" fill-opacity="0.7"/>
<ellipse cx="227" cy="101.5" rx="2" ry="1.5" fill="#DFCB63" fill-opacity="0.7"/>
<ellipse cx="182" cy="215.5" rx="2" ry="1.5" fill="#DFCB63" fill-opacity="0.7"/>
<ellipse cx="38" cy="185.5" rx="2" ry="1.5" fill="#DFCB63" fill-opacity="0.7"/>
<circle cx="92.5" cy="52.5" r="1.5" fill="#DFCB63" fill-opacity="0.7"/>
<circle cx="232.5" cy="92.5" r="1.5" fill="#DFCB63" fill-opacity="0.7"/>
<circle cx="187.5" cy="206.5" r="1.5" fill="#DFCB63" fill-opacity="0.7"/>
<circle cx="43.5" cy="176.5" r="1.5" fill="#DFCB63" fill-opacity="0.7"/>
<ellipse cx="111" cy="46.5" rx="2" ry="1.5" fill="#DFCB63" fill-opacity="0.7"/>
<ellipse cx="251" cy="86.5" rx="2" ry="1.5" fill="#DFCB63" fill-opacity="0.7"/>
<ellipse cx="206" cy="200.5" rx="2" ry="1.5" fill="#DFCB63" fill-opacity="0.7"/>
<ellipse cx="62" cy="170.5" rx="2" ry="1.5" fill="#DFCB63" fill-opacity="0.7"/>
<ellipse cx="120" cy="43.5" rx="2" ry="1.5" fill="#DFCB63" fill-opacity="0.7"/>
<ellipse cx="260" cy="83.5" rx="2" ry="1.5" fill="#DFCB63" fill-opacity="0.7"/>
<ellipse cx="215" cy="197.5" rx="2" ry="1.5" fill="#DFCB63" fill-opacity="0.7"/>
<ellipse cx="71" cy="167.5" rx="2" ry="1.5" fill="#DFCB63" fill-opacity="0.7"/>
<ellipse cx="90" cy="81.5" rx="2" ry="1.5" fill="#DFCB63" fill-opacity="0.7"/>
<ellipse cx="230" cy="121.5" rx="2" ry="1.5" fill="#DFCB63" fill-opacity="0.7"/>
<ellipse cx="185" cy="235.5" rx="2" ry="1.5" fill="#DFCB63" fill-opacity="0.7"/>
<ellipse cx="41" cy="205.5" rx="2" ry="1.5" fill="#DFCB63" fill-opacity="0.7"/>
<circle cx="95.5" cy="88.5" r="1.5" fill="#DFCB63" fill-opacity="0.7"/>
<circle cx="235.5" cy="128.5" r="1.5" fill="#DFCB63" fill-opacity="0.7"/>
<circle cx="190.5" cy="242.5" r="1.5" fill="#DFCB63" fill-opacity="0.7"/>
<circle cx="46.5" cy="212.5" r="1.5" fill="#DFCB63" fill-opacity="0.7"/>
<ellipse cx="120.5" cy="94" rx="1.5" ry="1" fill="#DFCB63" fill-opacity="0.7"/>
<ellipse cx="260.5" cy="134" rx="1.5" ry="1" fill="#DFCB63" fill-opacity="0.7"/>
<ellipse cx="215.5" cy="248" rx="1.5" ry="1" fill="#DFCB63" fill-opacity="0.7"/>
<ellipse cx="38.5" cy="253" rx="1.5" ry="1" fill="#DFCB63" fill-opacity="0.7"/>
<ellipse cx="124" cy="88" rx="2" ry="1" fill="#DFCB63" fill-opacity="0.7"/>
<ellipse cx="264" cy="128" rx="2" ry="1" fill="#DFCB63" fill-opacity="0.7"/>
<ellipse cx="219" cy="242" rx="2" ry="1" fill="#DFCB63" fill-opacity="0.7"/>
<ellipse cx="75" cy="212" rx="2" ry="1" fill="#DFCB63" fill-opacity="0.7"/>
<circle cx="136.5" cy="61.5" r="1.5" fill="#DFCB63" fill-opacity="0.7"/>
<circle cx="276.5" cy="101.5" r="1.5" fill="#DFCB63" fill-opacity="0.7"/>
<circle cx="231.5" cy="215.5" r="1.5" fill="#DFCB63" fill-opacity="0.7"/>
<circle cx="87.5" cy="185.5" r="1.5" fill="#DFCB63" fill-opacity="0.7"/>
<ellipse cx="93" cy="58.5" rx="2" ry="1.5" fill="#DFCB63" fill-opacity="0.7"/>
<ellipse cx="233" cy="98.5" rx="2" ry="1.5" fill="#DFCB63" fill-opacity="0.7"/>
<ellipse cx="188" cy="212.5" rx="2" ry="1.5" fill="#DFCB63" fill-opacity="0.7"/>
<ellipse cx="44" cy="182.5" rx="2" ry="1.5" fill="#DFCB63" fill-opacity="0.7"/>
<circle cx="141.5" cy="69.5" r="1.5" fill="#DFCB63" fill-opacity="0.7"/>
<circle cx="281.5" cy="109.5" r="1.5" fill="#DFCB63" fill-opacity="0.7"/>
<circle cx="236.5" cy="223.5" r="1.5" fill="#DFCB63" fill-opacity="0.7"/>
<circle cx="92.5" cy="193.5" r="1.5" fill="#DFCB63" fill-opacity="0.7"/>
<ellipse cx="131" cy="89.5" rx="2" ry="1.5" fill="#DFCB63" fill-opacity="0.7"/>
<ellipse cx="271" cy="129.5" rx="2" ry="1.5" fill="#DFCB63" fill-opacity="0.7"/>
<ellipse cx="226" cy="243.5" rx="2" ry="1.5" fill="#DFCB63" fill-opacity="0.7"/>
<ellipse cx="49" cy="248.5" rx="2" ry="1.5" fill="#DFCB63" fill-opacity="0.7"/>
<defs>
<radialGradient id="paint0_radial" cx="0" cy="0" r="1" gradientUnits="userSpaceOnUse" gradientTransform="translate(112 70) rotate(90) scale(41 42)">
<stop offset="0.208333" stop-color="#FF8058"/>
<stop offset="0.723958" stop-color="#F2273B"/>
</radialGradient>
<radialGradient id="paint1_radial" cx="0" cy="0" r="1" gradientUnits="userSpaceOnUse" gradientTransform="translate(252 110) rotate(90) scale(41 42)">
<stop offset="0.208333" stop-color="#FF8058"/>
<stop offset="0.723958" stop-color="#F2273B"/>
</radialGradient>
<radialGradient id="paint2_radial" cx="0" cy="0" r="1" gradientUnits="userSpaceOnUse" gradientTransform="translate(207 224) rotate(90) scale(41 42)">
<stop offset="0.208333" stop-color="#FF8058"/>
<stop offset="0.723958" stop-color="#F2273B"/>
</radialGradient>
<radialGradient id="paint3_radial" cx="0" cy="0" r="1" gradientUnits="userSpaceOnUse" gradientTransform="translate(63 194) rotate(90) scale(41 42)">
<stop offset="0.208333" stop-color="#FF8058"/>
<stop offset="0.723958" stop-color="#F2273B"/>
</radialGradient>
<linearGradient id="paint4_linear" x1="120.353" y1="69.9838" x2="148.257" y2="63.6996" gradientUnits="userSpaceOnUse">
<stop stop-color="#DED370"/>
<stop offset="0.541667" stop-color="#DE7D70" stop-opacity="0.61"/>
</linearGradient>
<linearGradient id="paint5_linear" x1="260.353" y1="109.984" x2="288.257" y2="103.7" gradientUnits="userSpaceOnUse">
<stop stop-color="#DED370"/>
<stop offset="0.541667" stop-color="#DE7D70" stop-opacity="0.61"/>
</linearGradient>
<linearGradient id="paint6_linear" x1="215.353" y1="223.984" x2="243.257" y2="217.7" gradientUnits="userSpaceOnUse">
<stop stop-color="#DED370"/>
<stop offset="0.541667" stop-color="#DE7D70" stop-opacity="0.61"/>
</linearGradient>
<linearGradient id="paint7_linear" x1="71.3534" y1="193.984" x2="99.2571" y2="187.7" gradientUnits="userSpaceOnUse">
<stop stop-color="#DED370"/>
<stop offset="0.541667" stop-color="#DE7D70" stop-opacity="0.61"/>
</linearGradient>
<linearGradient id="paint8_linear" x1="111.716" y1="63.649" x2="118.675" y2="36.3162" gradientUnits="userSpaceOnUse">
<stop stop-color="#DED370"/>
<stop offset="0.541667" stop-color="#DE7D70" stop-opacity="0.61"/>
</linearGradient>
<linearGradient id="paint9_linear" x1="251.716" y1="103.649" x2="258.675" y2="76.3162" gradientUnits="userSpaceOnUse">
<stop stop-color="#DED370"/>
<stop offset="0.541667" stop-color="#DE7D70" stop-opacity="0.61"/>
</linearGradient>
<linearGradient id="paint10_linear" x1="206.716" y1="217.649" x2="213.675" y2="190.316" gradientUnits="userSpaceOnUse">
<stop stop-color="#DED370"/>
<stop offset="0.541667" stop-color="#DE7D70" stop-opacity="0.61"/>
</linearGradient>
<linearGradient id="paint11_linear" x1="62.7164" y1="187.649" x2="69.6749" y2="160.316" gradientUnits="userSpaceOnUse">
<stop stop-color="#DED370"/>
<stop offset="0.541667" stop-color="#DE7D70" stop-opacity="0.61"/>
</linearGradient>
<linearGradient id="paint12_linear" x1="104.944" y1="69.9372" x2="82.1915" y2="52.8345" gradientUnits="userSpaceOnUse">
<stop stop-color="#DED370"/>
<stop offset="0.541667" stop-color="#DE7D70" stop-opacity="0.61"/>
</linearGradient>
<linearGradient id="paint13_linear" x1="244.944" y1="109.937" x2="222.191" y2="92.8345" gradientUnits="userSpaceOnUse">
<stop stop-color="#DED370"/>
<stop offset="0.541667" stop-color="#DE7D70" stop-opacity="0.61"/>
</linearGradient>
<linearGradient id="paint14_linear" x1="199.944" y1="223.937" x2="177.191" y2="206.834" gradientUnits="userSpaceOnUse">
<stop stop-color="#DED370"/>
<stop offset="0.541667" stop-color="#DE7D70" stop-opacity="0.61"/>
</linearGradient>
<linearGradient id="paint15_linear" x1="55.9437" y1="193.937" x2="33.1915" y2="176.834" gradientUnits="userSpaceOnUse">
<stop stop-color="#DED370"/>
<stop offset="0.541667" stop-color="#DE7D70" stop-opacity="0.61"/>
</linearGradient>
<linearGradient id="paint16_linear" x1="107.032" y1="74.2831" x2="85.7227" y2="93.101" gradientUnits="userSpaceOnUse">
<stop stop-color="#DED370"/>
<stop offset="0.541667" stop-color="#DE7D70" stop-opacity="0.61"/>
</linearGradient>
<linearGradient id="paint17_linear" x1="247.032" y1="114.283" x2="225.723" y2="133.101" gradientUnits="userSpaceOnUse">
<stop stop-color="#DED370"/>
<stop offset="0.541667" stop-color="#DE7D70" stop-opacity="0.61"/>
</linearGradient>
<linearGradient id="paint18_linear" x1="202.032" y1="228.283" x2="180.723" y2="247.101" gradientUnits="userSpaceOnUse">
<stop stop-color="#DED370"/>
<stop offset="0.541667" stop-color="#DE7D70" stop-opacity="0.61"/>
</linearGradient>
<linearGradient id="paint19_linear" x1="58.0323" y1="198.283" x2="36.7227" y2="217.101" gradientUnits="userSpaceOnUse">
<stop stop-color="#DED370"/>
<stop offset="0.541667" stop-color="#DE7D70" stop-opacity="0.61"/>
</linearGradient>
<linearGradient id="paint20_linear" x1="114.908" y1="75.8783" x2="130.363" y2="99.5987" gradientUnits="userSpaceOnUse">
<stop stop-color="#DED370"/>
<stop offset="0.541667" stop-color="#DE7D70" stop-opacity="0.61"/>
</linearGradient>
<linearGradient id="paint21_linear" x1="254.908" y1="115.878" x2="270.363" y2="139.599" gradientUnits="userSpaceOnUse">
<stop stop-color="#DED370"/>
<stop offset="0.541667" stop-color="#DE7D70" stop-opacity="0.61"/>
</linearGradient>
<linearGradient id="paint22_linear" x1="209.908" y1="229.878" x2="225.363" y2="253.599" gradientUnits="userSpaceOnUse">
<stop stop-color="#DED370"/>
<stop offset="0.541667" stop-color="#DE7D70" stop-opacity="0.61"/>
</linearGradient>
<linearGradient id="paint23_linear" x1="65.9083" y1="199.878" x2="81.3634" y2="223.599" gradientUnits="userSpaceOnUse">
<stop stop-color="#DED370"/>
<stop offset="0.541667" stop-color="#DE7D70" stop-opacity="0.61"/>
</linearGradient>
</defs>
</svg>
