<svg width="482" height="437" viewBox="0 0 482 437" fill="none" xmlns="http://www.w3.org/2000/svg">
<path d="M480 218.5C480 337.89 373.185 435 241 435C108.815 435 2 337.89 2 218.5C2 99.1103 108.815 2 241 2C373.185 2 480 99.1103 480 218.5Z" fill="#FF0000" fill-opacity="0.65" stroke="#B61111" stroke-width="4"/>
<line x1="60.7226" y1="136.416" x2="51.7226" y2="130.416" stroke="#71B306"/>
<line x1="114.546" y1="159.79" x2="120.546" y2="146.79" stroke="#71B306"/>
<line x1="108.546" y1="95.7905" x2="114.546" y2="82.7905" stroke="#71B306"/>
<line x1="104.761" y1="245.439" x2="93.7606" y2="239.439" stroke="#71B306"/>
<line x1="68.924" y1="297.506" x2="81.924" y2="295.506" stroke="#71B306"/>
<line x1="183.924" y1="285.506" x2="196.924" y2="283.506" stroke="#71B306"/>
<line x1="141.5" y1="353" x2="141.5" y2="341" stroke="#71B306"/>
<line x1="183.851" y1="369.879" x2="197.851" y2="365.523" stroke="#71B306"/>
<line x1="252.913" y1="330.864" x2="271.913" y2="327.508" stroke="#71B306"/>
<path d="M279.803 295.879L279.803 286" stroke="#71B306"/>
<path d="M223 229.102L236.149 236.223" stroke="#71B306"/>
<line x1="327.33" y1="212.624" x2="338.33" y2="222.268" stroke="#71B306"/>
<line x1="367.33" y1="166.624" x2="378.33" y2="176.268" stroke="#71B306"/>
<line x1="427.851" y1="270.879" x2="441.851" y2="266.523" stroke="#71B306"/>
<path d="M408 201.022L423.149 204.143" stroke="#71B306"/>
<line x1="326.517" y1="144.484" x2="323.517" y2="133.128" stroke="#71B306"/>
<line x1="351.517" y1="85.4841" x2="348.517" y2="74.1277" stroke="#71B306"/>
<line x1="363.99" y1="251.856" x2="380.99" y2="251.5" stroke="#71B306"/>
<line x1="253.418" y1="136.083" x2="258.418" y2="143.726" stroke="#71B306"/>
<line x1="236.418" y1="78.7263" x2="241.418" y2="86.3699" stroke="#71B306"/>
<line x1="285.514" y1="185.24" x2="287.514" y2="176.884" stroke="#71B306"/>
<line x1="179.34" y1="127.99" x2="184.34" y2="132.634" stroke="#71B306"/>
<line x1="280.403" y1="66.7044" x2="290.403" y2="80.348" stroke="#71B306"/>
<line x1="166.544" y1="89.1522" x2="176.544" y2="66.7958" stroke="#71B306"/>
<line x1="189.842" y1="32.5257" x2="204.842" y2="27.5257" stroke="#71B306"/>
<line x1="279.842" y1="34.5257" x2="294.842" y2="29.5257" stroke="#71B306"/>
<line x1="190.574" y1="409.738" x2="198.574" y2="396.738" stroke="#71B306"/>
<line x1="393.851" y1="110.879" x2="407.851" y2="106.523" stroke="#71B306"/>
<path d="M278.5 375.5L289.757 369.563" stroke="#71B306"/>
<line x1="198.967" y1="204.501" x2="213.967" y2="203.501" stroke="#71B306"/>
<line x1="151.688" y1="236.61" x2="161.688" y2="228.61" stroke="#71B306"/>
<line x1="331.171" y1="330.53" x2="342.171" y2="334.53" stroke="#71B306"/>
<line x1="337.171" y1="385.53" x2="348.171" y2="389.53" stroke="#71B306"/>
<line x1="393.936" y1="323.365" x2="408.438" y2="321.504" stroke="#71B306"/>
<line x1="25" y1="207.5" x2="41" y2="207.5" stroke="#71B306"/>
</svg>
