<svg width="448" height="386" viewBox="0 0 448 386" fill="none" xmlns="http://www.w3.org/2000/svg">
<path d="M34.6025 222.186C37.9454 217.935 43.6888 208.161 42.2052 219.696C40.7215 231.231 56.9721 267.999 59.3232 271.964C61.6742 275.93 49.6311 280.926 51.7205 274.454C53.8099 267.982 31.2596 226.437 34.6025 222.186Z" fill="#E9C3AD"/>
<path d="M255.572 139.969C260.936 140.658 272.271 140.573 261.609 145.218C250.947 149.862 227.724 182.674 225.526 186.727C223.328 190.779 212.861 183.005 219.488 181.478C226.116 179.951 250.208 139.281 255.572 139.969Z" fill="#E9C3AD"/>
<path d="M180.572 166.969C185.936 167.658 197.271 167.573 186.609 172.218C175.947 176.862 152.724 209.674 150.526 213.727C148.328 217.779 137.861 210.005 144.488 208.478C151.116 206.951 175.208 166.281 180.572 166.969Z" fill="#E9C3AD"/>
<path d="M401.237 118.153C406.488 119.444 417.761 120.643 406.642 124.051C395.522 127.458 368.734 157.43 366.091 161.208C363.449 164.986 353.929 156.077 360.687 155.31C367.444 154.543 395.985 116.861 401.237 118.153Z" fill="#E9C3AD"/>
<path d="M414.251 192.296C419.613 191.595 430.553 188.625 421.427 195.832C412.3 203.04 398.204 240.687 397.112 245.166C396.019 249.645 383.916 244.795 389.936 241.629C395.956 238.464 408.888 192.997 414.251 192.296Z" fill="#E9C3AD"/>
<path d="M124.228 344.278C123.272 349.6 122.787 360.926 118.684 350.044C114.58 339.163 82.9743 314.322 79.0371 311.924C75.0998 309.526 83.3892 299.462 84.5818 306.157C85.7745 312.853 125.185 338.955 124.228 344.278Z" fill="#E9C3AD"/>
<path d="M153.376 244.093C156.973 248.132 165.583 255.505 154.49 252.015C143.396 248.525 104.342 258.053 100.025 259.67C95.7074 261.287 92.9079 248.552 98.9115 251.748C104.915 254.943 149.78 240.055 153.376 244.093Z" fill="#E9C3AD"/>
<path d="M158.49 375.183C155.452 370.71 147.877 362.275 158.42 367.184C168.964 372.092 208.927 367.743 213.418 366.704C217.91 365.664 219.023 378.655 213.488 374.703C207.953 370.751 161.529 379.657 158.49 375.183Z" fill="#E9C3AD"/>
<path d="M204.354 275.407C208.854 272.408 217.354 264.907 212.354 275.407C207.354 285.907 211.354 325.907 212.354 330.407C213.354 334.908 200.354 335.908 204.354 330.407C208.354 324.907 199.854 278.407 204.354 275.407Z" fill="#E9C3AD"/>
<path d="M268.62 366.917C264.068 369.837 255.439 377.189 260.621 366.777C265.803 356.366 262.502 316.303 261.581 311.786C260.66 307.268 273.675 306.496 269.58 311.925C265.484 317.355 273.171 363.997 268.62 366.917Z" fill="#E9C3AD"/>
<path d="M294.218 317.97C297.266 313.504 302.338 303.365 301.635 314.974C300.933 326.582 319.625 362.17 322.238 365.969C324.852 369.767 313.173 375.564 314.821 368.966C316.469 362.367 291.169 322.437 294.218 317.97Z" fill="#E9C3AD"/>
<path d="M401.854 269.637C407.728 272.461 420.284 276.693 408.049 277.858C395.813 279.022 367.049 307.142 364.238 310.871C361.427 314.6 350.564 301.842 358.043 302.651C365.522 303.459 395.98 266.813 401.854 269.637Z" fill="#E9C3AD"/>
<path d="M303.951 71.7207C309.896 74.3897 322.559 78.2918 310.358 79.7764C298.158 81.261 270.139 110.124 267.427 113.926C264.715 117.727 253.522 105.257 261.019 105.87C268.517 106.483 298.005 69.0517 303.951 71.7207Z" fill="#E9C3AD"/>
<path d="M105.042 138.417C111.501 139.287 124.751 139.432 113.474 144.321C102.198 149.21 83.5304 184.842 82.0097 189.257C80.489 193.672 66.2152 184.895 73.5779 183.353C80.9406 181.811 98.5836 137.547 105.042 138.417Z" fill="#E9C3AD"/>
<path d="M288.711 12.9761C294.867 15.1167 307.822 17.9004 295.797 20.4427C283.771 22.985 258.375 54.1804 256.005 58.2037C253.634 62.2269 241.397 50.7802 248.919 50.7371C256.442 50.6939 282.555 10.8355 288.711 12.9761Z" fill="#E9C3AD"/>
<path d="M24.7421 113.393C30.5321 110.402 41.4689 102.921 35.0355 113.393C28.6021 123.866 33.7488 163.761 35.0355 168.25C36.3222 172.739 19.5954 173.736 24.7421 168.25C29.8888 162.764 18.9521 116.385 24.7421 113.393Z" fill="#E9C3AD"/>
<path d="M125.013 92.7243C122.036 98.5222 117.477 110.964 116.633 98.7017C115.789 86.4399 88.4311 56.9491 84.7769 54.0419C81.1228 51.1347 94.1611 40.6094 93.157 48.0645C92.1528 55.5196 127.989 86.9265 125.013 92.7243Z" fill="#E9C3AD"/>
<path d="M206.013 123.724C203.036 129.522 198.477 141.964 197.633 129.702C196.789 117.44 169.431 87.9491 165.777 85.0419C162.123 82.1347 175.161 71.6094 174.157 79.0645C173.153 86.5196 208.989 117.926 206.013 123.724Z" fill="#E9C3AD"/>
<path d="M282.835 212.361C280.128 205.73 276.285 191.887 274.328 204.403C272.371 216.919 240.409 241.672 236.228 243.91C232.047 246.148 245.178 259.799 244.735 251.869C244.292 243.938 285.542 218.993 282.835 212.361Z" fill="#E9C3AD"/>
<path d="M374.386 71.928C380.504 74.1757 393.408 77.185 381.341 79.5171C369.273 81.8491 343.336 112.597 340.896 116.578C338.456 120.559 326.42 108.901 333.942 108.989C341.464 109.077 368.269 69.6803 374.386 71.928Z" fill="#E9C3AD"/>
<path d="M325.551 244.095C319.158 242.832 305.941 241.879 317.496 237.688C329.05 233.496 349.857 199.07 351.645 194.756C353.432 190.442 367.144 200.074 359.701 201.164C352.257 202.254 331.945 245.358 325.551 244.095Z" fill="#E9C3AD"/>
<path d="M175.93 10.2209C179.823 4.99382 186.373 -6.52443 185.182 5.70856C183.99 17.9415 206.105 51.5431 209.229 55.0136C212.354 58.4841 197.757 66.7131 199.978 59.5259C202.198 52.3388 172.037 15.448 175.93 10.2209Z" fill="#E9C3AD"/>
<path d="M41.599 214.633L40.3737 222.137L39.1484 229.641C40.9149 234.499 44.5739 244.279 45.0785 244.535C45.7093 244.854 51.0003 261.01 51.3116 261.96C51.5606 262.721 54.85 270.623 56.4636 274.479L56.9304 275.904" stroke="#913F3F"/>
<path d="M265.875 141.129L258.805 143.927L251.736 146.725C248.472 150.734 241.954 158.892 241.993 159.457C242.043 160.162 230.89 172.992 230.234 173.747C229.709 174.351 224.614 181.228 222.132 184.591L221.147 185.723" stroke="#913F3F"/>
<path d="M190.875 168.129L183.805 170.927L176.736 173.725C173.472 177.734 166.954 185.892 166.993 186.457C167.043 187.162 155.89 199.992 155.234 200.747C154.709 201.351 149.614 208.228 147.132 211.591L146.147 212.723" stroke="#913F3F"/>
<path d="M411.332 120.31L403.991 122.29L396.65 124.269C392.953 127.883 385.554 135.251 385.529 135.816C385.498 136.523 372.964 148.008 372.227 148.683C371.637 149.224 365.796 155.48 362.949 158.541L361.844 159.554" stroke="#913F3F"/>
<path d="M424.391 190.56L418.267 195.067L412.144 199.574C410.009 204.282 405.785 213.832 405.967 214.368C406.195 215.037 398.679 230.286 398.237 231.183C397.884 231.9 394.709 239.849 393.166 243.734L392.503 245.08" stroke="#913F3F"/>
<path d="M123.218 351.892L120.778 344.691L118.338 337.489C114.498 334.028 106.677 327.109 106.111 327.121C105.404 327.134 93.15 315.352 92.4291 314.659C91.8525 314.104 85.2392 308.67 82.0046 306.023L80.9234 304.983" stroke="#913F3F"/>
<path d="M160.622 250.758L153.451 248.232L146.279 245.705C141.186 246.589 130.915 248.47 130.574 248.922C130.149 249.487 113.314 251.853 112.324 251.992C111.532 252.103 103.174 253.951 99.0944 254.861L97.609 255.07" stroke="#913F3F"/>
<path d="M155.014 367.463L161.795 370.904L168.575 374.345C173.74 374.133 184.169 373.609 184.565 373.205C185.061 372.701 202.06 372.553 203.06 372.544C203.86 372.537 212.388 371.796 216.551 371.426L218.051 371.413" stroke="#913F3F"/>
<path d="M213.354 270.407L209.854 277.157L206.354 283.907C206.521 289.073 206.954 299.507 207.354 299.907C207.854 300.407 207.854 317.407 207.854 318.407C207.854 319.207 208.521 327.74 208.854 331.907V333.407" stroke="#913F3F"/>
<path d="M262.364 371.431L265.981 364.743L269.598 358.055C269.522 352.886 269.271 342.447 268.878 342.04C268.386 341.532 268.683 324.534 268.701 323.534C268.715 322.734 268.197 314.191 267.936 310.019L267.963 308.519" stroke="#913F3F"/>
<path d="M300.858 310.479L300.141 318.049L299.425 325.619C301.515 330.347 305.825 339.858 306.346 340.079C306.997 340.355 313.365 356.117 313.74 357.044C314.039 357.786 317.854 365.448 319.724 369.187L320.286 370.578" stroke="#913F3F"/>
<path d="M410.49 276.383L402.391 276.852L394.292 277.32C390.295 280.601 382.298 287.324 382.288 287.976C382.276 288.79 368.699 299.021 367.9 299.623C367.261 300.104 360.962 305.924 357.892 308.774L356.694 309.677" stroke="#913F3F"/>
<path d="M315.354 75.811L307.27 76.4913L299.186 77.1715C295.276 80.5555 287.458 87.4865 287.465 88.138C287.474 88.9523 274.17 99.5351 273.387 100.158C272.761 100.656 266.616 106.639 263.622 109.568L262.448 110.502" stroke="#913F3F"/>
<path d="M117.342 139.505L109.785 142.454L102.227 145.402C99.4389 149.757 93.9109 158.623 94.1028 159.246C94.3426 160.024 84.5918 173.95 84.0182 174.769C83.5594 175.424 79.367 182.906 77.3281 186.565L76.4678 187.793" stroke="#913F3F"/>
<path d="M300.477 16.1855L292.483 17.5677L284.49 18.9499C280.889 22.6618 273.705 30.2478 273.769 30.8962C273.848 31.7067 261.517 43.4087 260.792 44.0971C260.211 44.6477 254.612 51.1435 251.884 54.3225L250.796 55.355" stroke="#913F3F"/>
<path d="M36 108L31.5 114.75L27 121.5C27.2143 126.667 27.7714 137.1 28.2857 137.5C28.9286 138 28.9286 155 28.9286 156C28.9286 156.8 29.7857 165.333 30.2143 169.5V171" stroke="#913F3F"/>
<path d="M121.41 101.875L121.154 93.7664L120.898 85.658C117.723 81.5762 111.211 73.4058 110.56 73.3788C109.746 73.345 99.8741 59.505 99.2934 58.6909C98.8288 58.0396 93.1756 51.5903 90.4071 48.447L89.5361 47.2258" stroke="#913F3F"/>
<path d="M202.41 132.875L202.154 124.766L201.898 116.658C198.723 112.576 192.211 104.406 191.56 104.379C190.746 104.345 180.874 90.505 180.293 89.6909C179.829 89.0396 174.176 82.5903 171.407 79.447L170.536 78.2258" stroke="#913F3F"/>
<path d="M279.669 201.859L278.7 210.2L277.731 218.54C273.965 222.095 266.259 229.179 265.556 229.069C264.677 228.932 252.87 241.175 252.176 241.895C251.62 242.472 244.985 247.954 241.737 250.624L240.695 251.704" stroke="#913F3F"/>
<path d="M386.086 75.3166L378.069 76.5591L370.053 77.8016C366.388 81.4501 359.072 88.9096 359.125 89.559C359.19 90.3707 346.657 101.856 345.919 102.531C345.33 103.072 339.617 109.469 336.835 112.6L335.729 113.613" stroke="#913F3F"/>
<path d="M316.369 241.351L324.093 238.87L331.816 236.388C334.865 232.211 340.924 223.699 340.77 223.066C340.578 222.275 351.161 208.97 351.784 208.188C352.282 207.562 356.923 200.35 359.181 196.822L360.115 195.648" stroke="#913F3F"/>
<path d="M184.055 1.04563L182.969 9.08516L181.884 17.1247C184.341 21.6745 189.416 30.8077 190.053 30.9418C190.85 31.1094 198.303 46.3888 198.741 47.2876C199.092 48.0067 203.603 55.3006 205.814 58.8577L206.472 60.2059" stroke="#913F3F"/>
<path d="M42.8487 222.798C42.8487 222.798 52.738 206.406 50.4513 220.308C48.1646 234.21 74.6799 273.404 67.5693 272.576C60.4588 271.749 59.9667 275.066 59.9667 275.066L42.8487 222.798Z" fill="#E9C3AD"/>
<path d="M262.191 142.097C262.191 142.097 281.335 142.176 268.229 147.345C255.122 152.515 235.084 195.382 232.145 188.854C229.207 182.327 226.108 183.606 226.108 183.606L262.191 142.097Z" fill="#E9C3AD"/>
<path d="M187.191 169.097C187.191 169.097 206.335 169.176 193.229 174.345C180.122 179.515 160.084 222.382 157.145 215.854C154.207 209.327 151.108 210.606 151.108 210.606L187.191 169.097Z" fill="#E9C3AD"/>
<path d="M407.771 120.062C407.771 120.062 426.783 122.307 413.175 125.96C399.568 129.612 374.805 169.936 372.625 163.117C370.445 156.299 367.22 157.219 367.22 157.219L407.771 120.062Z" fill="#E9C3AD"/>
<path d="M420.879 191.125C420.879 191.125 439.411 186.323 428.054 194.662C416.698 203.001 408.244 249.559 403.74 243.995C399.235 238.432 396.564 240.459 396.564 240.459L420.879 191.125Z" fill="#E9C3AD"/>
<path d="M129.88 336.648C129.88 336.648 128.841 355.764 124.335 342.415C119.83 329.066 78.0217 306.901 84.6887 304.295C91.3557 301.688 90.2335 298.528 90.2335 298.528L129.88 336.648Z" fill="#E9C3AD"/>
<path d="M159.89 244.777C159.89 244.777 174.286 257.396 161.003 252.699C147.721 248.002 104.474 267.208 106.539 260.354C108.604 253.5 105.425 252.432 105.425 252.432L159.89 244.777Z" fill="#E9C3AD"/>
<path d="M168.879 377.283C168.879 377.283 156.253 362.893 168.81 369.283C181.366 375.674 226.75 362.277 223.808 368.803C220.865 375.329 223.877 376.803 223.877 376.803L168.879 377.283Z" fill="#E9C3AD"/>
<path d="M212 278.556C212 278.556 226.5 266.056 220 278.556C213.5 291.056 226.5 336.555 220 333.556C213.5 330.557 212 333.556 212 333.556V278.556Z" fill="#E9C3AD"/>
<path d="M278.002 366.314C278.002 366.314 263.286 378.559 270.003 366.174C276.72 353.79 264.516 308.071 270.963 311.183C277.41 314.295 278.962 311.322 278.962 311.322L278.002 366.314Z" fill="#E9C3AD"/>
<path d="M298.081 271.059C298.081 271.059 306.843 254.038 305.499 268.062C304.155 282.087 333.252 319.403 326.102 319.058C318.952 318.712 318.685 322.054 318.685 322.054L298.081 271.059Z" fill="#E9C3AD"/>
<path d="M407.414 273.959C407.414 273.959 428.049 280.469 413.263 281.722C398.478 282.975 371.465 323.108 369.119 314.987C366.773 306.866 363.269 307.224 363.269 307.224L407.414 273.959Z" fill="#E9C3AD"/>
<path d="M312.166 73.6922C312.166 73.6922 332.965 79.6598 318.217 81.2993C303.469 82.9388 277.516 123.765 274.959 115.708C272.401 107.651 268.908 108.101 268.908 108.101L312.166 73.6922Z" fill="#E9C3AD"/>
<path d="M113.465 140.876C113.465 140.876 135.102 140.69 121.428 146.451C107.753 152.212 94.4641 198.728 89.7235 191.729C84.9829 184.73 81.7612 186.154 81.7612 186.154L113.465 140.876Z" fill="#E9C3AD"/>
<path d="M296.974 15.1011C296.974 15.1011 318.214 19.2332 303.665 22.1518C289.117 25.0705 266.821 68.0037 263.571 60.2002C260.321 52.3968 256.88 53.1495 256.88 53.1495L296.974 15.1011Z" fill="#E9C3AD"/>
<path d="M34 116.583C34 116.583 51.6178 104.021 43.7202 116.583C35.8225 129.146 51.6178 174.872 43.7202 171.858C35.8225 168.844 34 171.858 34 171.858V116.583Z" fill="#E9C3AD"/>
<path d="M134.635 92.4171C134.635 92.4171 127.587 112.875 126.722 98.0616C125.857 83.2482 86.4442 55.1943 94.624 53.0618C102.804 50.9294 102.537 47.4173 102.537 47.4173L134.635 92.4171Z" fill="#E9C3AD"/>
<path d="M215.635 123.417C215.635 123.417 208.587 143.875 207.722 129.062C206.857 114.248 167.444 86.1943 175.624 84.0618C183.804 81.9294 183.537 78.4173 183.537 78.4173L215.635 123.417Z" fill="#E9C3AD"/>
<path d="M292.275 212.454C292.275 212.454 286.44 189.786 284.241 204.939C282.043 220.093 237.231 240.812 245.851 244.747C254.472 248.683 253.884 252.262 253.884 252.262L292.275 212.454Z" fill="#E9C3AD"/>
<path d="M382.639 74.0226C382.639 74.0226 403.803 78.5248 389.206 81.189C374.608 83.8533 351.567 126.391 348.453 118.532C345.34 110.673 341.886 111.365 341.886 111.365L382.639 74.0226Z" fill="#E9C3AD"/>
<path d="M337.185 244.735C337.185 244.735 315.577 243.599 329.578 238.684C343.579 233.769 359.682 188.151 363.987 195.426C368.291 202.701 371.594 201.477 371.594 201.477L337.185 244.735Z" fill="#E9C3AD"/>
<path d="M186.004 13.5659C186.004 13.5659 196.331 -5.44816 194.74 9.30491C193.149 24.058 227.39 58.2321 218.971 58.9852C210.551 59.7384 210.234 63.2463 210.234 63.2463L186.004 13.5659Z" fill="#E9C3AD"/>
<path d="M47.1539 214.841C40.9934 213.701 54.7566 212.351 54.7566 212.351C54.7566 212.351 73.6359 260.358 71.8746 264.619C70.1133 268.88 62.3134 278.8 64.2719 267.109C66.2304 255.418 53.3145 215.98 47.1539 214.841Z" fill="#E9C3AD"/>
<path d="M271.658 137.748C269.476 131.875 277.696 142.996 277.696 142.996C277.696 142.996 246.174 183.831 241.613 184.505C237.052 185.179 224.535 183.574 235.575 179.257C246.615 174.94 273.841 143.62 271.658 137.748Z" fill="#E9C3AD"/>
<path d="M196.658 164.748C194.476 158.875 202.696 169.996 202.696 169.996C202.696 169.996 171.174 210.831 166.613 211.505C162.052 212.179 149.535 210.574 160.575 206.257C171.615 201.94 198.841 170.62 196.658 164.748Z" fill="#E9C3AD"/>
<path d="M417.545 116.179C416.041 110.098 422.95 122.078 422.95 122.078C422.95 122.078 387.008 159.082 382.4 159.235C377.792 159.388 365.537 156.376 376.995 153.337C388.453 150.297 419.049 122.261 417.545 116.179Z" fill="#E9C3AD"/>
<path d="M428.338 183.648C424.731 178.526 435.514 187.185 435.514 187.185C435.514 187.185 415.438 234.704 411.199 236.518C406.96 238.333 394.447 239.969 404.023 232.982C413.599 225.994 431.945 188.771 428.338 183.648Z" fill="#E9C3AD"/>
<path d="M135.072 335.612C141.046 333.726 129.527 341.379 129.527 341.379C129.527 341.379 90.3247 307.847 89.8803 303.258C89.4359 298.669 91.6675 286.249 95.4251 297.491C99.1827 308.734 129.097 337.497 135.072 335.612Z" fill="#E9C3AD"/>
<path d="M170.316 243.744C172.521 237.88 171.429 251.666 171.429 251.666C171.429 251.666 120.849 261.804 116.965 259.32C113.08 256.837 104.687 247.413 115.851 251.398C127.016 255.383 168.111 249.608 170.316 243.744Z" fill="#E9C3AD"/>
<path d="M169.568 374.861C166.616 380.387 169.499 366.862 169.499 366.862C169.499 366.862 220.969 363.412 224.496 366.382C228.024 369.351 235.115 379.79 224.566 374.381C214.018 368.973 172.52 369.335 169.568 374.861Z" fill="#E9C3AD"/>
<path d="M218.568 272.333C213.068 269.333 226.568 272.333 226.568 272.333C226.568 272.333 229.568 323.832 226.568 327.333C223.568 330.834 213.068 337.834 218.568 327.333C224.068 316.832 224.068 275.333 218.568 272.333Z" fill="#E9C3AD"/>
<path d="M282.376 369.7C287.822 372.795 274.377 369.56 274.377 369.56C274.377 369.56 272.276 318.017 275.337 314.568C278.397 311.12 289.018 304.305 283.335 314.708C277.653 325.112 276.929 366.604 282.376 369.7Z" fill="#E9C3AD"/>
<path d="M302.769 264.792C296.546 264.071 310.187 261.795 310.187 261.795C310.187 261.795 332.26 308.421 330.79 312.791C329.32 317.16 322.207 327.584 323.373 315.787C324.538 303.991 308.993 265.513 302.769 264.792Z" fill="#E9C3AD"/>
<path d="M418.815 270.412C416.965 262.962 424.998 278.617 424.998 278.617C424.998 278.617 386.108 312.747 380.988 311.782C375.868 310.816 362.151 304.267 374.805 303.576C387.459 302.885 420.666 277.862 418.815 270.412Z" fill="#E9C3AD"/>
<path d="M323.512 70.0302C321.468 62.6312 329.908 78.0706 329.908 78.0706C329.908 78.0706 291.925 113.207 286.781 112.375C281.637 111.544 267.754 105.357 280.385 104.335C293.016 103.313 325.557 77.4292 323.512 70.0302Z" fill="#E9C3AD"/>
<path d="M124.018 136.069C119.957 129.555 132.434 141.962 132.434 141.962C132.434 141.962 105.994 186.439 100.826 187.103C95.6584 187.766 80.5897 185.777 92.4105 181.21C104.231 176.642 128.08 142.582 124.018 136.069Z" fill="#E9C3AD"/>
<path d="M308.116 11.0685C305.434 3.87585 315.188 18.5209 315.188 18.5209C315.188 18.5209 280.411 56.834 275.215 56.454C270.018 56.074 255.649 51.1206 268.143 49.0016C280.637 46.8826 310.798 18.2611 308.116 11.0685Z" fill="#E9C3AD"/>
<path d="M42.0138 110.336C34.9505 107.33 52.2877 110.336 52.2877 110.336C52.2877 110.336 56.1404 161.935 52.2877 165.443C48.435 168.951 34.9505 175.964 42.0138 165.443C49.0771 154.921 49.0771 113.342 42.0138 110.336Z" fill="#E9C3AD"/>
<path d="M143.567 95.3711C151.062 93.7165 135.202 101.337 135.202 101.337C135.202 101.337 102.102 61.5668 103.202 56.4738C104.301 51.3807 111.206 37.8403 111.566 50.5077C111.925 63.1751 136.071 97.0257 143.567 95.3711Z" fill="#E9C3AD"/>
<path d="M224.567 126.371C232.062 124.717 216.202 132.337 216.202 132.337C216.202 132.337 183.102 92.5668 184.202 87.4738C185.301 82.3807 192.206 68.8403 192.566 81.5077C192.925 94.1751 217.071 128.026 224.567 126.371Z" fill="#E9C3AD"/>
<path d="M301.734 209.95C309.659 213.246 293.243 202.006 293.243 202.006C293.243 202.006 254.222 236.189 254.97 241.694C255.717 247.199 261.99 262.675 263.46 249.637C264.931 236.598 293.809 206.653 301.734 209.95Z" fill="#E9C3AD"/>
<path d="M416.392 103.387C413.836 96.1489 423.333 110.962 423.333 110.962C423.333 110.962 387.893 148.662 382.704 148.192C377.514 147.721 363.233 142.518 375.763 140.617C388.292 138.716 418.947 110.626 416.392 103.387Z" fill="#E9C3AD"/>
<path d="M340.436 246.319C344.093 253.069 332.396 239.923 332.396 239.923C332.396 239.923 361.502 197.143 366.701 196.796C371.899 196.449 386.819 199.355 374.741 203.192C362.663 207.029 336.78 239.57 340.436 246.319Z" fill="#E9C3AD"/>
<path d="M191.834 7.35418C184.168 7.7489 201.068 2.85041 201.068 2.85041C201.068 2.85041 227.15 47.5384 225.225 52.3802C223.3 57.2219 214.255 69.4369 215.991 56.884C217.727 44.331 199.5 6.95946 191.834 7.35418Z" fill="#E9C3AD"/>
<path d="M49.8451 215.244L46.1008 224.572L50.2218 238.885L56.7092 253.504L64.0927 265.668L61.2445 272.542" stroke="#9C0000"/>
<path d="M271.881 143.664L261.954 145.235L251.782 156.116L242.562 169.184L235.909 181.763L228.547 182.845" stroke="#9C0000"/>
<path d="M196.881 170.664L186.954 172.235L176.782 183.116L167.562 196.184L160.909 208.763L153.547 209.845" stroke="#9C0000"/>
<path d="M417.135 122.647L407.094 123.084L395.756 132.743L385.116 144.684L377.081 156.429L369.644 156.67" stroke="#9C0000"/>
<path d="M430.477 190.125L421.277 194.174L414.214 207.288L408.629 222.274L405.4 236.133L398.557 239.055" stroke="#9C0000"/>
<path d="M126.815 344.707L125.744 334.713L115.387 324.008L102.798 314.144L90.569 306.868L89.858 299.461" stroke="#9C0000"/>
<path d="M165.793 251.754L157.269 246.427L142.454 247.965L126.922 251.779L113.648 256.907L107.383 252.894" stroke="#9C0000"/>
<path d="M165.161 368.089L172.916 374.483L187.805 374.892L203.702 373.137L217.531 369.786L223.22 374.582" stroke="#9C0000"/>
<path d="M221 273.555L214.538 281.254L214 296.139L215.615 312.05L218.846 325.909L214 331.555" stroke="#9C0000"/>
<path d="M270.053 369.579L276.648 361.994L277.447 347.121L276.109 331.183L273.121 317.271L278.065 311.71" stroke="#9C0000"/>
<path d="M304.891 263.204L301.784 272.763L306.861 286.766L314.319 300.913L322.506 312.552L320.128 319.603" stroke="#9C0000"/>
<path d="M417.693 278.988L407.1 277.724L394.842 286.191L383.246 297.241L374.4 308.53L366.558 307.505" stroke="#9C0000"/>
<path d="M322.586 78.4763L311.964 77.4899L299.932 86.2744L288.629 97.6243L280.081 109.141L272.215 108.321" stroke="#9C0000"/>
<path d="M124.999 142.767L114.533 144.838L105.492 156.678L97.8776 170.771L92.9533 184.241L85.178 185.689" stroke="#9C0000"/>
<path d="M307.82 19.0441L297.152 18.9872L285.931 28.7869L275.66 41.0788L268.149 53.2967L260.241 53.1657" stroke="#9C0000"/>
<path d="M45 112L37.6154 119.699L37 134.584L38.8462 150.496L42.5385 164.354L37 170" stroke="#9C0000"/>
<path d="M129.865 101.048L131.406 90.4921L123.264 78.0167L112.521 66.1349L101.467 56.9967L102.697 49.184" stroke="#9C0000"/>
<path d="M210.865 132.048L212.406 121.492L204.264 109.017L193.521 97.1349L182.467 87.9967L183.697 80.184" stroke="#9C0000"/>
<path d="M287.846 202.347L288.602 213.602L278.772 224.797L266.195 234.829L253.519 241.955L254.175 250.304" stroke="#9C0000"/>
<path d="M393.405 78.1366L382.74 77.8935L371.35 87.496L360.866 99.6067L353.143 111.692L345.238 111.423" stroke="#9C0000"/>
<path d="M327.817 241.205L338.389 239.777L348.137 228.511L356.597 214.909L362.334 201.765L370.184 200.794" stroke="#9C0000"/>
<path d="M194.202 5.0122L190.94 15.1693L196.912 28.8176L205.546 42.3095L214.94 53.1467L212.437 60.6492" stroke="#9C0000"/>
<path d="M47.9576 214.576C48.8934 214.27 53.7717 219.148 56.094 221.625C56.9984 224.387 58.8712 230.105 59.1265 230.885C59.3819 231.664 62.7086 240.504 64.34 244.826L67.5322 254.573L68.2255 264.599L64.8774 272.171" stroke="#8D6969"/>
<path d="M272.338 138.978C273.081 139.623 271.397 146.313 270.462 149.578C268.556 151.771 264.608 156.312 264.07 156.931C263.532 157.55 257.651 164.941 254.778 168.559L248.049 176.299L239.799 182.038L231.581 183.049" stroke="#8D6969"/>
<path d="M197.338 165.978C198.081 166.623 196.397 173.313 195.462 176.578C193.556 178.771 189.608 183.312 189.07 183.931C188.532 184.55 182.651 191.941 179.778 195.559L173.049 203.299L164.799 209.038L156.581 210.049" stroke="#8D6969"/>
<path d="M418.121 117.58C418.786 118.306 416.355 124.763 415.057 127.9C412.914 129.863 408.478 133.928 407.873 134.483C407.268 135.037 400.588 141.714 397.324 144.984L389.762 151.913L380.916 156.681L372.637 156.755" stroke="#8D6969"/>
<path d="M429.432 184.791C430.315 185.226 430.391 192.125 430.319 195.519C429.034 198.126 426.374 203.523 426.011 204.259C425.648 204.995 421.845 213.64 419.989 217.871L415.454 227.071L408.939 234.722L401.251 237.793" stroke="#8D6969"/>
<path d="M133.892 338.06C133.21 338.769 126.613 336.752 123.4 335.654C121.305 333.64 116.967 329.47 116.376 328.901C115.784 328.332 108.698 322.088 105.229 319.037L97.8359 311.928L92.5183 303.401L91.921 295.143" stroke="#8D6969"/>
<path d="M170.354 247.341C170.44 248.322 164.581 251.964 161.641 253.663C158.746 253.916 152.752 254.441 151.935 254.512C151.117 254.584 141.753 255.815 137.173 256.421L126.956 257.315L117.035 255.712L110.422 250.731" stroke="#8D6969"/>
<path d="M168.277 373.529C168.269 372.544 174.395 369.373 177.46 367.91C180.365 367.885 186.382 367.832 187.203 367.825C188.023 367.818 197.455 367.325 202.069 367.08L212.325 366.99L222.089 369.367L228.291 374.851" stroke="#8D6969"/>
<path d="M219.414 272.332C220.399 272.332 223.517 278.486 224.953 281.563C224.953 284.469 224.953 290.486 224.953 291.307C224.953 292.127 225.363 301.563 225.568 306.178V316.435L223.106 326.178L217.568 332.332" stroke="#8D6969"/>
<path d="M279.757 370.455C278.773 370.438 275.762 364.231 274.381 361.129C274.431 358.224 274.536 352.207 274.551 351.387C274.565 350.567 274.319 341.125 274.195 336.507L274.374 326.252L277.005 316.553L282.65 310.497" stroke="#8D6969"/>
<path d="M303.342 264.172C304.255 263.803 309.451 268.341 311.935 270.656C313.024 273.35 315.278 278.929 315.585 279.69C315.893 280.451 319.808 289.046 321.727 293.249L325.569 302.758L326.937 312.714L324.107 320.495" stroke="#8D6969"/>
<path d="M419.464 272.042C420.204 273.025 417.635 279.841 416.258 283.126C413.937 284.875 409.132 288.496 408.477 288.99C407.821 289.484 400.594 295.572 397.062 298.554L388.871 304.727L379.238 308.133L370.157 306.308" stroke="#8D6969"/>
<path d="M324.203 71.6164C324.969 72.5796 322.58 79.4607 321.289 82.7808C319.015 84.5898 314.306 88.3355 313.663 88.8463C313.021 89.3571 305.956 95.6324 302.503 98.7062L294.477 105.091L284.936 108.748L275.81 107.161" stroke="#8D6969"/>
<path d="M125.09 137.109C126.098 137.815 125.761 145.091 125.467 148.641C123.8 151.022 120.348 155.951 119.878 156.623C119.407 157.295 114.415 165.319 111.978 169.246L106.095 177.648L97.9859 183.865L88.7851 184.935" stroke="#8D6969"/>
<path d="M308.938 12.5011C309.785 13.3939 308.004 20.457 307.008 23.877C304.9 25.8773 300.535 30.0192 299.94 30.584C299.345 31.1488 292.853 38.016 289.682 41.379L282.242 48.4391L273.057 52.9142L263.827 52.1284" stroke="#8D6969"/>
<path d="M43.3077 110C44.5385 110 48.4359 116.154 50.2308 119.231C50.2308 122.137 50.2308 128.154 50.2308 128.974C50.2308 129.795 50.7436 139.231 51 143.846V154.103L47.9231 163.846L41 170" stroke="#8D6969"/>
<path d="M140.894 96.977C139.892 97.6917 133.146 94.9451 129.898 93.4824C128.21 91.1166 124.716 86.218 124.24 85.55C123.763 84.882 117.866 77.4979 114.977 73.8893L109.021 65.5394L105.868 55.8202L107.931 46.79" stroke="#8D6969"/>
<path d="M221.894 127.977C220.892 128.692 214.146 125.945 210.898 124.482C209.21 122.117 205.716 117.218 205.24 116.55C204.763 115.882 198.866 108.498 195.977 104.889L190.021 96.5394L186.868 86.8202L188.931 77.79" stroke="#8D6969"/>
<path d="M299.071 207.934C298.054 206.982 290.559 208.401 286.939 209.229C284.92 211.322 280.741 215.656 280.171 216.247C279.602 216.837 272.624 223.237 269.207 226.362L262.083 233.749L257.859 243.145L259.306 252.93" stroke="#8D6969"/>
<path d="M417.189 104.851C418.02 105.759 416.116 112.79 415.06 116.192C412.918 118.155 408.482 122.22 407.877 122.774C407.272 123.329 400.661 130.082 397.432 133.389L389.87 140.318L380.607 144.632L371.393 143.685" stroke="#8D6969"/>
<path d="M337.432 245.154C336.468 244.388 337.249 237.145 337.76 233.62C339.569 231.346 343.315 226.637 343.825 225.995C344.336 225.352 349.809 217.649 352.481 213.877L358.866 205.85L367.34 200.14L376.588 199.634" stroke="#8D6969"/>
<path d="M192.749 6.04672C193.855 5.50719 200.056 9.32971 203.018 11.3084C204.292 13.9203 206.929 19.3284 207.289 20.0659C207.649 20.8034 212.246 29.0595 214.5 33.0954L218.996 42.3138L220.502 52.4201L216.977 60.986" stroke="#8D6969"/>
</svg>
