<svg width="564" height="254" viewBox="0 0 564 254" fill="none" xmlns="http://www.w3.org/2000/svg">
<g clip-path="url(#clip0)">
<g filter="url(#filter0_i)">
<path d="M475.438 94.0947C475.366 93.1565 476.511 92.6465 477.16 93.3282L488.131 104.859C488.423 105.165 488.876 105.255 489.262 105.083L504.838 98.1487C505.743 97.7459 506.62 98.7623 506.089 99.5983L497.316 113.413C497.07 113.801 497.119 114.306 497.436 114.638L508.223 125.978C508.886 126.674 508.28 127.813 507.332 127.653L490.772 124.858C490.375 124.791 489.977 124.969 489.762 125.308L480.757 139.485C480.242 140.296 478.99 139.984 478.916 139.026L477.708 123.422C477.672 122.964 477.33 122.589 476.877 122.513L460.741 119.789C459.764 119.624 459.596 118.292 460.5 117.889L476.076 110.954C476.462 110.782 476.699 110.385 476.666 109.963L475.438 94.0947Z" fill="#FFED48" style="mix-blend-mode:hue"/>
</g>
<path d="M477.522 92.9836C476.549 91.961 474.831 92.726 474.94 94.1333L476.168 110.002C476.184 110.213 476.066 110.411 475.872 110.497L460.297 117.432C458.94 118.037 459.193 120.034 460.657 120.282L476.794 123.006C477.02 123.044 477.192 123.232 477.209 123.46L478.418 139.064C478.529 140.502 480.406 140.97 481.179 139.753L490.184 125.576C490.291 125.406 490.49 125.318 490.689 125.351L507.249 128.146C508.671 128.386 509.579 126.677 508.585 125.633L497.798 114.294C497.64 114.127 497.615 113.875 497.738 113.681L506.511 99.8664C507.307 98.6123 505.992 97.0878 504.635 97.6919L489.059 104.626C488.866 104.712 488.639 104.667 488.493 104.514L477.522 92.9836Z" stroke="#FFED48" stroke-opacity="0.5"/>
<g filter="url(#filter1_d)">
<path fill-rule="evenodd" clip-rule="evenodd" d="M-67.0642 123.752C-60.2856 127.266 -54.5173 131.454 -51.1925 135.391L-56.4115 138.923C-59.0203 135.833 -63.9875 132.114 -70.3425 128.82C-76.6538 125.549 -84.0736 122.832 -91.4082 121.587C-98.7664 120.338 -105.768 120.613 -111.491 123.009C-117.001 125.317 -121.723 129.754 -124.458 137.601C-124.455 144.899 -122.539 161.289 -117.469 177.088C-114.889 185.129 -111.533 192.884 -107.293 199.16C-103.032 205.467 -98.0662 210.008 -92.3965 212.078C-80.9466 216.26 -69.1804 212.102 -55.2065 202.737C-48.2932 198.105 -41.0956 192.372 -33.394 186.138C-32.521 185.431 -31.6417 184.718 -30.7562 184C-23.8655 178.413 -16.5929 172.516 -8.90357 166.843C8.44453 154.043 28.2124 142.147 51.4321 137.064C74.7692 131.956 101.281 133.795 131.923 147.954C191.665 175.562 267.255 199.278 316.777 211.129C329.149 214.09 339.845 216.298 348.226 217.641C352.418 218.312 355.992 218.761 358.885 218.983C360.712 219.123 362.19 219.166 363.34 219.134C360.238 216.814 353.835 213.353 343.236 208.626C337.614 206.119 333.392 203.946 330.482 202.049C329.029 201.102 327.807 200.161 326.888 199.217C326 198.304 325.17 197.159 324.94 195.804C324.679 194.267 325.257 192.889 326.325 191.858C327.275 190.94 328.533 190.36 329.713 189.962C332.087 189.161 335.361 188.707 339.089 188.431C346.639 187.874 357.274 187.978 369.324 188.253C373.169 188.34 377.164 188.445 381.267 188.553C390.105 188.785 399.443 189.03 408.855 189.142C422.622 189.306 436.425 189.182 448.808 188.318C461.243 187.45 472.006 185.85 479.81 183.163C487.713 180.442 491.634 176.965 492.335 172.825C493.076 168.445 490.532 161.913 481.342 152.481L486.272 148.632C495.707 158.315 500.003 166.612 498.803 173.702C497.562 181.033 490.759 185.668 482.159 188.629C473.459 191.624 461.94 193.275 449.317 194.156C436.641 195.041 422.609 195.163 408.768 194.998C399.304 194.885 389.872 194.638 381.007 194.405C376.919 194.297 372.952 194.193 369.158 194.107C357.055 193.832 346.768 193.74 339.628 194.268C336.011 194.535 333.498 194.944 332.019 195.442C331.986 195.453 331.955 195.464 331.925 195.475C332.41 195.951 333.181 196.564 334.333 197.315C336.806 198.927 340.649 200.93 346.153 203.384C357.264 208.339 364.502 212.21 368.137 215.104C369.065 215.843 369.887 216.617 370.484 217.427C371.052 218.199 371.653 219.326 371.51 220.658C371.349 222.158 370.339 223.192 369.284 223.793C368.318 224.343 367.196 224.616 366.185 224.77C364.133 225.082 361.429 225.056 358.327 224.818C355.169 224.576 351.384 224.096 347.074 223.405C338.45 222.024 327.563 219.772 315.088 216.787C265.22 204.853 189.171 181 128.922 153.158C99.5674 139.593 74.6673 138.007 52.9861 142.753C31.1875 147.525 12.3308 158.765 -4.74265 171.362C-12.306 176.942 -19.4609 182.744 -26.363 188.34C-27.2481 189.057 -28.129 189.772 -29.0062 190.482C-36.6876 196.7 -44.0963 202.607 -51.286 207.426C-65.5182 216.963 -79.9457 222.95 -94.8677 217.501C-102.367 214.762 -108.266 209.037 -112.891 202.191C-117.537 195.314 -121.087 187.026 -123.757 178.705C-129.09 162.087 -131.077 144.802 -130.998 137.13L-130.993 136.714L-130.86 136.316C-127.685 126.842 -121.771 120.849 -114.263 117.705C-106.876 114.611 -98.3571 114.447 -90.1894 115.833C-81.9981 117.223 -73.8863 120.216 -67.0642 123.752ZM365.089 220.753C365.088 220.752 365.084 220.745 365.077 220.731C365.087 220.747 365.09 220.754 365.089 220.753Z" fill="#FF0000"/>
<path fill-rule="evenodd" clip-rule="evenodd" d="M-67.0642 123.752C-60.2856 127.266 -54.5173 131.454 -51.1925 135.391L-56.4115 138.923C-59.0203 135.833 -63.9875 132.114 -70.3425 128.82C-76.6538 125.549 -84.0736 122.832 -91.4082 121.587C-98.7664 120.338 -105.768 120.613 -111.491 123.009C-117.001 125.317 -121.723 129.754 -124.458 137.601C-124.455 144.899 -122.539 161.289 -117.469 177.088C-114.889 185.129 -111.533 192.884 -107.293 199.16C-103.032 205.467 -98.0662 210.008 -92.3965 212.078C-80.9466 216.26 -69.1804 212.102 -55.2065 202.737C-48.2932 198.105 -41.0956 192.372 -33.394 186.138C-32.521 185.431 -31.6417 184.718 -30.7562 184C-23.8655 178.413 -16.5929 172.516 -8.90357 166.843C8.44453 154.043 28.2124 142.147 51.4321 137.064C74.7692 131.956 101.281 133.795 131.923 147.954C191.665 175.562 267.255 199.278 316.777 211.129C329.149 214.09 339.845 216.298 348.226 217.641C352.418 218.312 355.992 218.761 358.885 218.983C360.712 219.123 362.19 219.166 363.34 219.134C360.238 216.814 353.835 213.353 343.236 208.626C337.614 206.119 333.392 203.946 330.482 202.049C329.029 201.102 327.807 200.161 326.888 199.217C326 198.304 325.17 197.159 324.94 195.804C324.679 194.267 325.257 192.889 326.325 191.858C327.275 190.94 328.533 190.36 329.713 189.962C332.087 189.161 335.361 188.707 339.089 188.431C346.639 187.874 357.274 187.978 369.324 188.253C373.169 188.34 377.164 188.445 381.267 188.553C390.105 188.785 399.443 189.03 408.855 189.142C422.622 189.306 436.425 189.182 448.808 188.318C461.243 187.45 472.006 185.85 479.81 183.163C487.713 180.442 491.634 176.965 492.335 172.825C493.076 168.445 490.532 161.913 481.342 152.481L486.272 148.632C495.707 158.315 500.003 166.612 498.803 173.702C497.562 181.033 490.759 185.668 482.159 188.629C473.459 191.624 461.94 193.275 449.317 194.156C436.641 195.041 422.609 195.163 408.768 194.998C399.304 194.885 389.872 194.638 381.007 194.405C376.919 194.297 372.952 194.193 369.158 194.107C357.055 193.832 346.768 193.74 339.628 194.268C336.011 194.535 333.498 194.944 332.019 195.442C331.986 195.453 331.955 195.464 331.925 195.475C332.41 195.951 333.181 196.564 334.333 197.315C336.806 198.927 340.649 200.93 346.153 203.384C357.264 208.339 364.502 212.21 368.137 215.104C369.065 215.843 369.887 216.617 370.484 217.427C371.052 218.199 371.653 219.326 371.51 220.658C371.349 222.158 370.339 223.192 369.284 223.793C368.318 224.343 367.196 224.616 366.185 224.77C364.133 225.082 361.429 225.056 358.327 224.818C355.169 224.576 351.384 224.096 347.074 223.405C338.45 222.024 327.563 219.772 315.088 216.787C265.22 204.853 189.171 181 128.922 153.158C99.5674 139.593 74.6673 138.007 52.9861 142.753C31.1875 147.525 12.3308 158.765 -4.74265 171.362C-12.306 176.942 -19.4609 182.744 -26.363 188.34C-27.2481 189.057 -28.129 189.772 -29.0062 190.482C-36.6876 196.7 -44.0963 202.607 -51.286 207.426C-65.5182 216.963 -79.9457 222.95 -94.8677 217.501C-102.367 214.762 -108.266 209.037 -112.891 202.191C-117.537 195.314 -121.087 187.026 -123.757 178.705C-129.09 162.087 -131.077 144.802 -130.998 137.13L-130.993 136.714L-130.86 136.316C-127.685 126.842 -121.771 120.849 -114.263 117.705C-106.876 114.611 -98.3571 114.447 -90.1894 115.833C-81.9981 117.223 -73.8863 120.216 -67.0642 123.752ZM365.089 220.753C365.088 220.752 365.084 220.745 365.077 220.731C365.087 220.747 365.09 220.754 365.089 220.753Z" stroke="#FFA800" stroke-linejoin="round"/>
</g>
<g filter="url(#filter2_i)">
<path d="M70.224 75.072C62.928 77.472 57.264 81.456 53.232 87.024C49.296 92.496 47.328 99.312 47.328 107.472C47.328 111.12 47.664 113.616 48.336 114.96C49.008 116.304 49.344 117.12 49.344 117.408C39.072 117.408 33.936 113.04 33.936 104.304C33.936 98.352 36.192 92.4 40.704 86.448C45.312 80.4 51.168 75.504 58.272 71.76C65.472 67.92 72.624 66 79.728 66C83.28 66 86.928 66.672 90.672 68.016L87.36 143.904L119.04 68.016H139.776L124.656 174H103.92L113.136 109.344L86.064 174H66.336L69.216 109.056L45.168 174H33.648L70.224 75.072ZM156.784 174.864C149.776 174.864 144.304 173.04 140.368 169.392C136.432 165.648 134.464 159.84 134.464 151.968C134.464 145.344 135.76 138.048 138.352 130.08C141.04 122.112 145.264 115.248 151.024 109.488C156.88 103.632 164.272 100.704 173.2 100.704C179.056 100.704 183.184 101.952 185.584 104.448C187.984 106.944 189.184 110.16 189.184 114.096C189.184 117.552 188.416 120.144 186.88 121.872C185.44 123.6 183.664 124.464 181.552 124.464C179.728 124.464 178.048 123.888 176.512 122.736C177.664 119.664 178.24 116.832 178.24 114.24C178.24 110.304 176.944 108.336 174.352 108.336C171.472 108.336 168.592 110.736 165.712 115.536C162.832 120.24 160.432 125.904 158.512 132.528C156.688 139.056 155.776 144.72 155.776 149.52C155.776 157.488 158.656 161.472 164.416 161.472C167.008 161.472 169.888 160.704 173.056 159.168C176.32 157.536 179.2 155.664 181.696 153.552C179.104 167.76 170.8 174.864 156.784 174.864Z" fill="#FF0000"/>
<path d="M239.414 175.872C233.654 175.872 227.798 173.328 221.846 168.24L220.694 174H199.958L219.542 82.416L240.854 79.536L223.574 160.32C226.262 162.24 228.998 163.2 231.782 163.2C237.254 163.2 242.054 160.032 246.182 153.696C250.406 147.36 253.67 139.296 255.974 129.504C258.278 119.712 259.43 109.824 259.43 99.84C259.43 90.432 257.558 83.568 253.814 79.248C250.166 74.832 245.03 72.624 238.406 72.624C231.206 72.624 224.726 74.064 218.966 76.944C213.302 79.728 208.838 83.76 205.574 89.04C202.31 94.32 200.678 100.512 200.678 107.616C200.678 111.168 201.014 113.664 201.686 115.104C202.358 116.448 202.694 117.216 202.694 117.408C197.702 117.408 193.862 116.352 191.174 114.24C188.582 112.128 187.286 108.72 187.286 104.016C187.286 97.488 189.734 91.296 194.63 85.44C199.526 79.584 206.054 74.88 214.214 71.328C222.47 67.776 231.35 66 240.854 66C254.006 66 263.702 69.888 269.942 77.664C276.182 85.44 279.302 95.376 279.302 107.472C279.302 118.416 277.43 129.216 273.686 139.872C270.038 150.432 265.142 159.072 258.998 165.792C252.854 172.512 246.326 175.872 239.414 175.872ZM302.498 174.864C295.394 174.864 289.874 173.04 285.938 169.392C282.002 165.648 280.034 159.84 280.034 151.968C280.034 145.344 281.33 138.048 283.922 130.08C286.514 122.112 290.738 115.248 296.594 109.488C302.45 103.632 309.89 100.704 318.914 100.704C329.474 100.704 334.754 105.312 334.754 114.528C334.754 119.904 333.218 124.848 330.146 129.36C327.074 133.872 322.994 137.52 317.906 140.304C312.818 142.992 307.394 144.528 301.634 144.912C301.442 147.792 301.346 149.712 301.346 150.672C301.346 155.376 302.162 158.592 303.794 160.32C305.426 161.952 308.066 162.768 311.714 162.768C316.898 162.768 321.314 161.568 324.962 159.168C328.706 156.768 332.786 153.12 337.202 148.224H342.098C331.442 165.984 318.242 174.864 302.498 174.864ZM302.786 138C306.338 137.808 309.698 136.56 312.866 134.256C316.13 131.952 318.722 129.024 320.642 125.472C322.658 121.92 323.666 118.176 323.666 114.24C323.666 110.304 322.466 108.336 320.066 108.336C316.61 108.336 313.202 111.36 309.842 117.408C306.578 123.456 304.226 130.32 302.786 138ZM356.612 174.864C349.604 174.864 344.132 173.04 340.196 169.392C336.26 165.648 334.292 159.84 334.292 151.968C334.292 145.344 335.588 138.048 338.18 130.08C340.772 122.112 344.996 115.248 350.852 109.488C356.708 103.632 364.148 100.704 373.172 100.704C383.732 100.704 389.012 105.312 389.012 114.528C389.012 119.904 387.476 124.848 384.404 129.36C381.332 133.872 377.252 137.52 372.164 140.304C367.076 142.992 361.652 144.528 355.892 144.912C355.7 147.024 355.604 148.464 355.604 149.232C355.604 157.2 358.58 161.184 364.532 161.184C367.22 161.184 370.1 160.464 373.172 159.024C376.244 157.584 379.028 155.76 381.524 153.552C378.932 167.76 370.628 174.864 356.612 174.864ZM425.732 109.776H417.668C414.98 109.776 412.964 109.92 411.62 110.208C410.372 110.496 409.748 111.12 409.748 112.08C409.748 112.272 409.988 112.512 410.468 112.8C411.044 112.992 411.332 113.808 411.332 115.248C411.332 117.744 410.564 119.664 409.028 121.008C407.492 122.256 405.668 122.88 403.556 122.88C401.732 122.88 400.148 122.352 398.804 121.296C397.556 120.144 396.932 118.56 396.932 116.544C396.932 114.528 397.604 112.368 398.948 110.064C400.388 107.76 402.356 105.84 404.852 104.304C407.444 102.768 410.372 102 413.636 102H450.644L415.364 162.912C415.94 162.912 416.996 163.008 418.532 163.2C421.796 163.584 424.388 163.776 426.308 163.776C430.436 163.776 432.692 162.816 433.076 160.896C432.212 160.8 431.54 160.512 431.06 160.032C430.58 159.456 430.34 158.736 430.34 157.872C430.34 156.336 431.06 154.944 432.5 153.696C433.94 152.352 435.908 151.68 438.404 151.68C440.516 151.68 442.1 152.304 443.156 153.552C444.212 154.8 444.74 156.48 444.74 158.592C444.74 160.896 444.02 163.248 442.58 165.648C441.14 168.048 439.076 170.064 436.388 171.696C433.7 173.232 430.628 174 427.172 174H389.012L425.732 109.776ZM356.9 138C360.548 137.904 363.956 136.704 367.124 134.4C370.388 132.096 372.98 129.168 374.9 125.616C376.916 121.968 377.924 118.176 377.924 114.24C377.924 110.304 376.724 108.336 374.324 108.336C370.964 108.336 367.604 111.408 364.244 117.552C360.98 123.6 358.532 130.416 356.9 138Z" fill="#29BCFF"/>
</g>
</g>
<defs>
<filter id="filter0_i" x="451.623" y="81.5053" width="66.8997" height="67.8229" filterUnits="userSpaceOnUse" color-interpolation-filters="sRGB">
<feFlood flood-opacity="0" result="BackgroundImageFix"/>
<feBlend mode="normal" in="SourceGraphic" in2="BackgroundImageFix" result="shape"/>
<feColorMatrix in="SourceAlpha" type="matrix" values="0 0 0 0 0 0 0 0 0 0 0 0 0 0 0 0 0 0 127 0" result="hardAlpha"/>
<feOffset dy="4"/>
<feGaussianBlur stdDeviation="2"/>
<feComposite in2="hardAlpha" operator="arithmetic" k2="-1" k3="1"/>
<feColorMatrix type="matrix" values="0 0 0 0 0 0 0 0 0 0 0 0 0 0 0 0 0 0 0.48 0"/>
<feBlend mode="normal" in2="shape" result="effect1_innerShadow"/>
</filter>
<filter id="filter1_d" x="-131.5" y="114.5" width="635" height="132" filterUnits="userSpaceOnUse" color-interpolation-filters="sRGB">
<feFlood flood-opacity="0" result="BackgroundImageFix"/>
<feColorMatrix in="SourceAlpha" type="matrix" values="0 0 0 0 0 0 0 0 0 0 0 0 0 0 0 0 0 0 127 0"/>
<feOffset dx="4" dy="21"/>
<feColorMatrix type="matrix" values="0 0 0 0 0.161771 0 0 0 0 0.738994 0 0 0 0 1 0 0 0 1 0"/>
<feBlend mode="normal" in2="BackgroundImageFix" result="effect1_dropShadow"/>
<feBlend mode="normal" in="SourceGraphic" in2="effect1_dropShadow" result="shape"/>
</filter>
<filter id="filter2_i" x="33.648" y="66" width="416.996" height="109.872" filterUnits="userSpaceOnUse" color-interpolation-filters="sRGB">
<feFlood flood-opacity="0" result="BackgroundImageFix"/>
<feBlend mode="normal" in="SourceGraphic" in2="BackgroundImageFix" result="shape"/>
<feColorMatrix in="SourceAlpha" type="matrix" values="0 0 0 0 0 0 0 0 0 0 0 0 0 0 0 0 0 0 127 0" result="hardAlpha"/>
<feOffset dx="4" dy="4"/>
<feComposite in2="hardAlpha" operator="arithmetic" k2="-1" k3="1"/>
<feColorMatrix type="matrix" values="0 0 0 0 0 0 0 0 0 0 0 0 0 0 0 0 0 0 0.36 0"/>
<feBlend mode="normal" in2="shape" result="effect1_innerShadow"/>
</filter>
<clipPath id="clip0">
<rect width="564" height="254" fill="white"/>
</clipPath>
</defs>
</svg>
