<svg width="403" height="415" viewBox="0 0 403 415" fill="none" xmlns="http://www.w3.org/2000/svg">
<path d="M81.6158 104.286C100.027 63.9767 131.123 41.1341 143.017 44.2972C144.878 61.2132 134.787 79.8533 116.376 120.163C97.9648 160.472 86.0693 194.533 78.8262 191.225C60.0324 174.877 63.2046 144.596 81.6158 104.286Z" fill="#FFF6A3"/>
<path fill-rule="evenodd" clip-rule="evenodd" d="M138.692 41.9034C115.834 31.4633 82.2379 55.9869 63.6522 96.6784C45.0665 137.37 48.5295 178.82 71.3871 189.26C74.2458 190.566 77.2724 191.325 80.4166 191.574C64.9436 181.913 66.4817 143.988 84.3459 104.876C100.826 68.7934 125.642 43.8741 143.075 44.4463C141.704 43.4626 140.242 42.6116 138.692 41.9034ZM142.94 141.603C144.152 139.291 145.316 136.917 146.427 134.485C146.5 134.324 146.574 134.163 146.647 134.001C145.452 136.595 144.214 139.131 142.94 141.603Z" fill="#FF5C5C"/>
<ellipse rx="1.13817" ry="4.56071" transform="matrix(-0.626583 -0.779355 0.77788 -0.628413 106.121 132.38)" fill="#845959"/>
<ellipse cx="109.81" cy="116.088" rx="1.14085" ry="4.55" transform="rotate(-65.4516 109.81 116.088)" fill="#845959"/>
<ellipse rx="1.13939" ry="4.55582" transform="matrix(0.911402 -0.411517 0.408861 0.912597 118.038 102.637)" fill="#845959"/>
<path d="M241.895 63.9368C277.316 37.3059 315.544 32.0783 324.486 40.5358C318.046 56.2883 300.28 67.8501 264.86 94.4811C229.44 121.112 202.727 145.363 197.942 138.998C189.232 115.662 206.475 90.5678 241.895 63.9368Z" fill="#FFF6A3"/>
<path fill-rule="evenodd" clip-rule="evenodd" d="M321.828 36.3675C306.726 16.2822 265.498 21.7932 229.742 48.6766C193.986 75.5601 177.242 113.636 192.343 133.721C194.232 136.233 196.529 138.345 199.173 140.064C190.188 124.189 209.644 91.5983 244.013 65.7584C275.719 41.92 309.42 31.8696 324.465 40.6945C323.73 39.1754 322.852 37.7301 321.828 36.3675ZM277.967 126.001C280.136 124.548 282.292 123.018 284.428 121.412C284.57 121.305 284.712 121.198 284.853 121.091C282.565 122.801 280.267 124.438 277.967 126.001Z" fill="#FF5C5C"/>
<ellipse rx="1.13817" ry="4.56071" transform="matrix(-0.178538 -0.983933 0.98351 -0.18085 250.016 100.321)" fill="#845959"/>
<ellipse cx="261.035" cy="87.7668" rx="1.14085" ry="4.55" transform="rotate(-36.9378 261.035 87.7668)" fill="#845959"/>
<ellipse rx="1.13939" ry="4.55582" transform="matrix(0.997297 0.0734769 -0.0763806 0.997079 274.687 79.874)" fill="#845959"/>
<path d="M100.228 281.742C119.863 321.47 117.944 360.007 107.982 367.233C93.6887 357.996 85.6048 338.402 65.9696 298.675C46.3344 258.947 27.4309 228.217 34.5695 224.689C59.1131 220.436 80.5928 242.015 100.228 281.742Z" fill="#FFF6A3"/>
<path fill-rule="evenodd" clip-rule="evenodd" d="M112.569 365.39C135.097 354.256 137.291 312.719 117.469 272.615C97.6481 232.511 63.3175 209.026 40.7899 220.16C37.9725 221.553 35.4731 223.421 33.2951 225.702C50.5557 219.802 78.9952 244.94 98.047 283.487C115.623 319.049 119.28 354.026 107.83 367.184C109.458 366.742 111.041 366.146 112.569 365.39ZM32.5719 305.738C33.5995 308.138 34.7053 310.539 35.8897 312.935C35.9683 313.095 36.0472 313.253 36.1262 313.412C34.8689 310.848 33.6839 308.287 32.5719 305.738Z" fill="#FF5C5C"/>
<ellipse rx="1.13817" ry="4.56071" transform="matrix(0.999981 0.00615117 -0.00380043 0.999993 62.9699 283.008)" fill="#845959"/>
<ellipse cx="73.2747" cy="296.155" rx="1.14085" ry="4.55" transform="rotate(63.6993 73.2747 296.155)" fill="#845959"/>
<ellipse rx="1.13939" ry="4.55582" transform="matrix(-0.256302 0.966597 -0.965846 -0.259116 78.5119 311.029)" fill="#845959"/>
<path d="M342.704 193.814C364.72 234.687 362.484 275.988 351.259 284.492C335.193 275.756 326.136 255.471 304.119 214.598C282.103 173.726 260.892 142.404 268.932 138.073C296.559 131.595 320.688 152.942 342.704 193.814Z" fill="#FFF6A3"/>
<path fill-rule="evenodd" clip-rule="evenodd" d="M356.425 282.161C381.797 268.494 384.349 223.967 362.124 182.707C339.899 141.448 301.313 119.079 275.941 132.746C272.768 134.456 269.951 136.648 267.496 139.255C286.931 131.593 318.884 156.191 340.246 195.849C359.954 232.436 363.999 269.497 351.088 284.451C352.921 283.85 354.704 283.088 356.425 282.161ZM266.524 224.779C267.675 227.259 268.914 229.736 270.242 232.2C270.33 232.363 270.418 232.526 270.506 232.688C269.097 230.051 267.77 227.411 266.524 224.779Z" fill="#FF5C5C"/>
<ellipse rx="1.28339" ry="4.87143" transform="matrix(0.99794 -0.0641606 -0.00586882 0.999983 300.775 198.106)" fill="#845959"/>
<ellipse cx="312.345" cy="211.332" rx="1.19516" ry="5.21819" transform="rotate(61.6904 312.345 211.332)" fill="#845959"/>
<ellipse rx="1.24387" ry="5.03277" transform="matrix(-0.265954 0.963986 -0.983396 -0.181471 318.208 226.801)" fill="#845959"/>
<path d="M250.16 305.239C254.821 351.429 236.918 388.716 223.29 392.265C211.802 378.036 211.216 355.828 206.555 309.638C201.895 263.448 194.317 226.386 203.403 225.47C231.402 230.081 245.5 259.048 250.16 305.239Z" fill="#FFF6A3"/>
<path fill-rule="evenodd" clip-rule="evenodd" d="M228.954 392.094C257.628 389.201 277.059 349.056 272.355 302.428C267.65 255.8 240.592 220.345 211.918 223.238C208.332 223.6 204.891 224.544 201.623 226.011C222.511 226.387 242.588 261.358 247.11 306.176C251.281 347.523 240.806 383.302 223.148 392.161C225.071 392.31 227.009 392.29 228.954 392.094ZM167.93 304.624C168.042 307.356 168.237 310.119 168.518 312.904C168.537 313.088 168.555 313.272 168.575 313.455C168.285 310.479 168.071 307.533 167.93 304.624Z" fill="#FF5C5C"/>
<ellipse rx="1.28339" ry="4.87143" transform="matrix(0.946256 0.323419 -0.388878 0.921289 209.791 293.124)" fill="#845959"/>
<ellipse cx="215.404" cy="309.775" rx="1.19516" ry="5.21819" transform="rotate(84.2389 215.404 309.775)" fill="#845959"/>
<ellipse rx="1.24387" ry="5.03277" transform="matrix(-0.615278 0.78831 -0.838634 -0.544696 214.888 326.31)" fill="#845959"/>
</svg>
