<svg width="389" height="370" viewBox="0 0 389 370" fill="none" xmlns="http://www.w3.org/2000/svg">
<circle cx="71.7253" cy="129.725" r="38.5" transform="rotate(-54.9054 71.7253 129.725)" fill="#FFE27A" stroke="#F0CF7B" stroke-width="3"/>
<path d="M72.6464 127.719L82.6752 134.766M72.6464 127.719L71.0692 116.396L74.2353 107.045M72.6464 127.719L58.8971 133.719L51.813 138.955M72.6464 127.719L59.8824 118.75M82.6752 134.766L84.425 151.657M82.6752 134.766L100.761 128.408" stroke="#D3A326" stroke-width="3"/>
<rect x="55.7253" y="125.725" width="4" height="4" fill="#AD6B06"/>
<rect x="55.7253" y="125.725" width="4" height="4" fill="#AD6B06"/>
<rect x="55.7253" y="125.725" width="4" height="4" fill="#AD6B06"/>
<rect x="80.7253" y="117.725" width="4" height="4" fill="#AD6B06"/>
<rect x="80.7253" y="117.725" width="4" height="4" fill="#AD6B06"/>
<rect x="80.7253" y="117.725" width="4" height="4" fill="#AD6B06"/>
<rect x="65.7253" y="143.725" width="4" height="4" fill="#AD6B06"/>
<rect x="65.7253" y="143.725" width="4" height="4" fill="#AD6B06"/>
<rect x="65.7253" y="143.725" width="4" height="4" fill="#AD6B06"/>
<rect x="92.7253" y="139.725" width="4" height="4" fill="#AD6B06"/>
<rect x="92.7253" y="139.725" width="4" height="4" fill="#AD6B06"/>
<rect x="92.7253" y="139.725" width="4" height="4" fill="#AD6B06"/>
<circle cx="188" cy="66.0001" r="38.5" transform="rotate(47.6431 188 66.0001)" fill="#FFE27A" stroke="#F0CF7B" stroke-width="3"/>
<path d="M189.759 67.3351L180.701 75.5933M189.759 67.3351L201.153 68.2555L209.593 73.3776M189.759 67.3351L186.889 52.6106L183.317 44.5581M189.759 67.3351L201.286 56.8246M180.701 75.5933L163.833 73.6315M180.701 75.5933L182.977 94.6286" stroke="#D3A326" stroke-width="3"/>
<rect x="195.381" y="51.2515" width="4" height="4" transform="rotate(102.548 195.381 51.2515)" fill="#AD6B06"/>
<rect x="195.381" y="51.2515" width="4" height="4" transform="rotate(102.548 195.381 51.2515)" fill="#AD6B06"/>
<rect x="195.381" y="51.2515" width="4" height="4" transform="rotate(102.548 195.381 51.2515)" fill="#AD6B06"/>
<rect x="197.758" y="77.3923" width="4" height="4" transform="rotate(102.548 197.758 77.3923)" fill="#AD6B06"/>
<rect x="197.758" y="77.3923" width="4" height="4" transform="rotate(102.548 197.758 77.3923)" fill="#AD6B06"/>
<rect x="197.758" y="77.3923" width="4" height="4" transform="rotate(102.548 197.758 77.3923)" fill="#AD6B06"/>
<rect x="175.638" y="57.1018" width="4" height="4" transform="rotate(102.548 175.638 57.1018)" fill="#AD6B06"/>
<rect x="175.638" y="57.1018" width="4" height="4" transform="rotate(102.548 175.638 57.1018)" fill="#AD6B06"/>
<rect x="175.638" y="57.1018" width="4" height="4" transform="rotate(102.548 175.638 57.1018)" fill="#AD6B06"/>
<rect x="173.676" y="84.3259" width="4" height="4" transform="rotate(102.548 173.676 84.3259)" fill="#AD6B06"/>
<rect x="173.676" y="84.3259" width="4" height="4" transform="rotate(102.548 173.676 84.3259)" fill="#AD6B06"/>
<rect x="173.676" y="84.3259" width="4" height="4" transform="rotate(102.548 173.676 84.3259)" fill="#AD6B06"/>
<circle cx="309" cy="114" r="38.5" fill="#FFE27A" stroke="#F0CF7B" stroke-width="3"/>
<path d="M311.171 113.6L311.171 125.857M311.171 113.6L319.529 105.8L329 103.014M311.171 113.6L298.357 105.8L290 103.014M311.171 113.6L311.171 98M311.171 125.857L298.357 137M311.171 125.857L326.771 137" stroke="#D3A326" stroke-width="3"/>
<rect x="303.074" y="98.6091" width="4" height="4" transform="rotate(54.9054 303.074 98.6091)" fill="#AD6B06"/>
<rect x="303.074" y="98.6091" width="4" height="4" transform="rotate(54.9054 303.074 98.6091)" fill="#AD6B06"/>
<rect x="303.074" y="98.6091" width="4" height="4" transform="rotate(54.9054 303.074 98.6091)" fill="#AD6B06"/>
<rect x="323.993" y="114.465" width="4" height="4" transform="rotate(54.9054 323.993 114.465)" fill="#AD6B06"/>
<rect x="323.993" y="114.465" width="4" height="4" transform="rotate(54.9054 323.993 114.465)" fill="#AD6B06"/>
<rect x="323.993" y="114.465" width="4" height="4" transform="rotate(54.9054 323.993 114.465)" fill="#AD6B06"/>
<rect x="294.096" y="117.14" width="4" height="4" transform="rotate(54.9054 294.096 117.14)" fill="#AD6B06"/>
<rect x="294.096" y="117.14" width="4" height="4" transform="rotate(54.9054 294.096 117.14)" fill="#AD6B06"/>
<rect x="294.096" y="117.14" width="4" height="4" transform="rotate(54.9054 294.096 117.14)" fill="#AD6B06"/>
<rect x="312.891" y="136.932" width="4" height="4" transform="rotate(54.9054 312.891 136.932)" fill="#AD6B06"/>
<rect x="312.891" y="136.932" width="4" height="4" transform="rotate(54.9054 312.891 136.932)" fill="#AD6B06"/>
<rect x="312.891" y="136.932" width="4" height="4" transform="rotate(54.9054 312.891 136.932)" fill="#AD6B06"/>
<circle cx="318.408" cy="223.408" r="38.5" transform="rotate(-49.3136 318.408 223.408)" fill="#FFE27A" stroke="#F0CF7B" stroke-width="3"/>
<path d="M319.52 221.501L328.815 229.492M319.52 221.501L319.054 210.079L323.116 201.081M319.52 221.501L305.252 226.133L297.691 230.654M319.52 221.501L307.691 211.331M328.815 229.492L328.911 246.473M328.815 229.492L347.434 224.926" stroke="#D3A326" stroke-width="3"/>
<rect x="302.874" y="217.868" width="4" height="4" transform="rotate(5.59177 302.874 217.868)" fill="#AD6B06"/>
<rect x="302.874" y="217.868" width="4" height="4" transform="rotate(5.59177 302.874 217.868)" fill="#AD6B06"/>
<rect x="302.874" y="217.868" width="4" height="4" transform="rotate(5.59177 302.874 217.868)" fill="#AD6B06"/>
<rect x="328.535" y="212.342" width="4" height="4" transform="rotate(5.59177 328.535 212.342)" fill="#AD6B06"/>
<rect x="328.535" y="212.342" width="4" height="4" transform="rotate(5.59177 328.535 212.342)" fill="#AD6B06"/>
<rect x="328.535" y="212.342" width="4" height="4" transform="rotate(5.59177 328.535 212.342)" fill="#AD6B06"/>
<rect x="311.073" y="236.757" width="4" height="4" transform="rotate(5.59177 311.073 236.757)" fill="#AD6B06"/>
<rect x="311.073" y="236.757" width="4" height="4" transform="rotate(5.59177 311.073 236.757)" fill="#AD6B06"/>
<rect x="311.073" y="236.757" width="4" height="4" transform="rotate(5.59177 311.073 236.757)" fill="#AD6B06"/>
<rect x="338.334" y="235.407" width="4" height="4" transform="rotate(5.59177 338.334 235.407)" fill="#AD6B06"/>
<rect x="338.334" y="235.407" width="4" height="4" transform="rotate(5.59177 338.334 235.407)" fill="#AD6B06"/>
<rect x="338.334" y="235.407" width="4" height="4" transform="rotate(5.59177 338.334 235.407)" fill="#AD6B06"/>
<circle cx="187" cy="191" r="38.5" fill="#FFE27A" stroke="#F0CF7B" stroke-width="3"/>
<path d="M189.171 190.6L189.171 202.857M189.171 190.6L197.529 182.8L207 180.014M189.171 190.6L176.357 182.8L168 180.014M189.171 190.6L189.171 175M189.171 202.857L176.357 214M189.171 202.857L204.771 214" stroke="#D3A326" stroke-width="3"/>
<rect x="181.074" y="175.609" width="4" height="4" transform="rotate(54.9054 181.074 175.609)" fill="#AD6B06"/>
<rect x="181.074" y="175.609" width="4" height="4" transform="rotate(54.9054 181.074 175.609)" fill="#AD6B06"/>
<rect x="181.074" y="175.609" width="4" height="4" transform="rotate(54.9054 181.074 175.609)" fill="#AD6B06"/>
<rect x="201.993" y="191.465" width="4" height="4" transform="rotate(54.9054 201.993 191.465)" fill="#AD6B06"/>
<rect x="201.993" y="191.465" width="4" height="4" transform="rotate(54.9054 201.993 191.465)" fill="#AD6B06"/>
<rect x="201.993" y="191.465" width="4" height="4" transform="rotate(54.9054 201.993 191.465)" fill="#AD6B06"/>
<rect x="172.096" y="194.14" width="4" height="4" transform="rotate(54.9054 172.096 194.14)" fill="#AD6B06"/>
<rect x="172.096" y="194.14" width="4" height="4" transform="rotate(54.9054 172.096 194.14)" fill="#AD6B06"/>
<rect x="172.096" y="194.14" width="4" height="4" transform="rotate(54.9054 172.096 194.14)" fill="#AD6B06"/>
<rect x="190.891" y="213.932" width="4" height="4" transform="rotate(54.9054 190.891 213.932)" fill="#AD6B06"/>
<rect x="190.891" y="213.932" width="4" height="4" transform="rotate(54.9054 190.891 213.932)" fill="#AD6B06"/>
<rect x="190.891" y="213.932" width="4" height="4" transform="rotate(54.9054 190.891 213.932)" fill="#AD6B06"/>
<circle cx="216" cy="306" r="38.5" fill="#FFE27A" stroke="#F0CF7B" stroke-width="3"/>
<path d="M218.171 305.6L218.171 317.857M218.171 305.6L226.529 297.8L236 295.014M218.171 305.6L205.357 297.8L197 295.014M218.171 305.6L218.171 290M218.171 317.857L205.357 329M218.171 317.857L233.771 329" stroke="#D3A326" stroke-width="3"/>
<rect x="210.074" y="290.609" width="4" height="4" transform="rotate(54.9054 210.074 290.609)" fill="#AD6B06"/>
<rect x="210.074" y="290.609" width="4" height="4" transform="rotate(54.9054 210.074 290.609)" fill="#AD6B06"/>
<rect x="210.074" y="290.609" width="4" height="4" transform="rotate(54.9054 210.074 290.609)" fill="#AD6B06"/>
<rect x="230.993" y="306.465" width="4" height="4" transform="rotate(54.9054 230.993 306.465)" fill="#AD6B06"/>
<rect x="230.993" y="306.465" width="4" height="4" transform="rotate(54.9054 230.993 306.465)" fill="#AD6B06"/>
<rect x="230.993" y="306.465" width="4" height="4" transform="rotate(54.9054 230.993 306.465)" fill="#AD6B06"/>
<rect x="201.096" y="309.14" width="4" height="4" transform="rotate(54.9054 201.096 309.14)" fill="#AD6B06"/>
<rect x="201.096" y="309.14" width="4" height="4" transform="rotate(54.9054 201.096 309.14)" fill="#AD6B06"/>
<rect x="201.096" y="309.14" width="4" height="4" transform="rotate(54.9054 201.096 309.14)" fill="#AD6B06"/>
<rect x="219.891" y="328.932" width="4" height="4" transform="rotate(54.9054 219.891 328.932)" fill="#AD6B06"/>
<rect x="219.891" y="328.932" width="4" height="4" transform="rotate(54.9054 219.891 328.932)" fill="#AD6B06"/>
<rect x="219.891" y="328.932" width="4" height="4" transform="rotate(54.9054 219.891 328.932)" fill="#AD6B06"/>
<circle cx="69.0741" cy="263.074" r="38.5" transform="rotate(24.7556 69.0741 263.074)" fill="#FFE27A" stroke="#F0CF7B" stroke-width="3"/>
<path d="M71.2134 263.62L66.0807 274.751M71.2134 263.62L82.0688 260.036L91.8363 261.473M71.2134 263.62L62.843 251.171L56.4203 245.142M71.2134 263.62L77.7459 249.454M66.0807 274.751L49.778 279.504M66.0807 274.751L75.5811 291.402" stroke="#D3A326" stroke-width="3"/>
<rect x="70.1377" y="246.616" width="4" height="4" transform="rotate(79.661 70.1377 246.616)" fill="#AD6B06"/>
<rect x="70.1377" y="246.616" width="4" height="4" transform="rotate(79.661 70.1377 246.616)" fill="#AD6B06"/>
<rect x="70.1377" y="246.616" width="4" height="4" transform="rotate(79.661 70.1377 246.616)" fill="#AD6B06"/>
<rect x="82.4946" y="269.774" width="4" height="4" transform="rotate(79.661 82.4946 269.774)" fill="#AD6B06"/>
<rect x="82.4946" y="269.774" width="4" height="4" transform="rotate(79.661 82.4946 269.774)" fill="#AD6B06"/>
<rect x="82.4946" y="269.774" width="4" height="4" transform="rotate(79.661 82.4946 269.774)" fill="#AD6B06"/>
<rect x="54.2246" y="259.684" width="4" height="4" transform="rotate(79.661 54.2246 259.684)" fill="#AD6B06"/>
<rect x="54.2246" y="259.684" width="4" height="4" transform="rotate(79.661 54.2246 259.684)" fill="#AD6B06"/>
<rect x="54.2246" y="259.684" width="4" height="4" transform="rotate(79.661 54.2246 259.684)" fill="#AD6B06"/>
<rect x="63.0054" y="285.528" width="4" height="4" transform="rotate(79.661 63.0054 285.528)" fill="#AD6B06"/>
<rect x="63.0054" y="285.528" width="4" height="4" transform="rotate(79.661 63.0054 285.528)" fill="#AD6B06"/>
<rect x="63.0054" y="285.528" width="4" height="4" transform="rotate(79.661 63.0054 285.528)" fill="#AD6B06"/>
</svg>
