<svg width="561" height="550" viewBox="0 0 561 550" fill="none" xmlns="http://www.w3.org/2000/svg">
<circle cx="428" cy="271" r="23" fill="url(#paint0_radial)"/>
<ellipse cx="428" cy="253.367" rx="5.36667" ry="5.36667" fill="#213361"/>
<circle cx="370.597" cy="471.597" r="23" transform="rotate(-166.958 370.597 471.597)" fill="url(#paint1_radial)"/>
<ellipse cx="366.618" cy="488.776" rx="5.36667" ry="5.36667" transform="rotate(-166.958 366.618 488.776)" fill="#213361"/>
<circle cx="299.908" cy="438.908" r="23" transform="rotate(-56.1986 299.908 438.908)" fill="url(#paint2_radial)"/>
<ellipse cx="285.255" cy="429.098" rx="5.36667" ry="5.36667" transform="rotate(-56.1986 285.255 429.098)" fill="#213361"/>
<circle cx="285.51" cy="495.51" r="23" transform="rotate(136.844 285.51 495.51)" fill="url(#paint3_radial)"/>
<ellipse cx="297.571" cy="508.374" rx="5.36667" ry="5.36667" transform="rotate(136.844 297.571 508.374)" fill="#213361"/>
<circle cx="84.5228" cy="408.523" r="23" transform="rotate(44.0952 84.5228 408.523)" fill="url(#paint4_radial)"/>
<ellipse cx="96.7929" cy="395.859" rx="5.36667" ry="5.36667" transform="rotate(44.0952 96.7929 395.859)" fill="#213361"/>
<circle cx="155.8" cy="375.8" r="23" transform="rotate(-122.863 155.8 375.8)" fill="url(#paint5_radial)"/>
<ellipse cx="140.988" cy="385.368" rx="5.36667" ry="5.36667" transform="rotate(-122.863 140.988 385.368)" fill="#213361"/>
<circle cx="498.523" cy="170.523" r="23" transform="rotate(44.0952 498.523 170.523)" fill="url(#paint6_radial)"/>
<ellipse cx="510.793" cy="157.859" rx="5.36667" ry="5.36667" transform="rotate(44.0952 510.793 157.859)" fill="#213361"/>
<circle cx="360.8" cy="310.8" r="23" transform="rotate(-122.863 360.8 310.8)" fill="url(#paint7_radial)"/>
<ellipse cx="345.988" cy="320.368" rx="5.36667" ry="5.36667" transform="rotate(-122.863 345.988 320.368)" fill="#213361"/>
<circle cx="262.523" cy="57.5229" r="23" transform="rotate(44.0952 262.523 57.5229)" fill="url(#paint8_radial)"/>
<ellipse cx="274.793" cy="44.8589" rx="5.36667" ry="5.36667" transform="rotate(44.0952 274.793 44.8589)" fill="#213361"/>
<circle cx="68.6102" cy="316.61" r="23" transform="rotate(73.4076 68.6102 316.61)" fill="url(#paint9_radial)"/>
<ellipse cx="85.5093" cy="311.575" rx="5.36667" ry="5.36667" transform="rotate(73.4076 85.5093 311.575)" fill="#213361"/>
<circle cx="407.61" cy="182.61" r="23" transform="rotate(73.4076 407.61 182.61)" fill="url(#paint10_radial)"/>
<ellipse cx="424.509" cy="177.575" rx="5.36667" ry="5.36667" transform="rotate(73.4076 424.509 177.575)" fill="#213361"/>
<circle cx="299.61" cy="340.61" r="23" transform="rotate(73.4076 299.61 340.61)" fill="url(#paint11_radial)"/>
<ellipse cx="316.509" cy="335.575" rx="5.36667" ry="5.36667" transform="rotate(73.4076 316.509 335.575)" fill="#213361"/>
<circle cx="233.422" cy="393.422" r="23" transform="rotate(109.763 233.422 393.422)" fill="url(#paint12_radial)"/>
<ellipse cx="250.017" cy="399.385" rx="5.36667" ry="5.36667" transform="rotate(109.763 250.017 399.385)" fill="#213361"/>
<circle cx="477.659" cy="360.659" r="23" transform="rotate(10.0433 477.659 360.659)" fill="url(#paint13_radial)"/>
<ellipse cx="480.734" cy="343.296" rx="5.36667" ry="5.36667" transform="rotate(10.0433 480.734 343.296)" fill="#213361"/>
<circle cx="309.659" cy="143.659" r="23" transform="rotate(10.0433 309.659 143.659)" fill="url(#paint14_radial)"/>
<ellipse cx="312.734" cy="126.296" rx="5.36667" ry="5.36667" transform="rotate(10.0433 312.734 126.296)" fill="#213361"/>
<circle cx="112.523" cy="122.523" r="23" transform="rotate(44.0952 112.523 122.523)" fill="url(#paint15_radial)"/>
<ellipse cx="124.793" cy="109.859" rx="5.36667" ry="5.36667" transform="rotate(44.0952 124.793 109.859)" fill="#213361"/>
<circle cx="207.8" cy="489.8" r="23" transform="rotate(-122.863 207.8 489.8)" fill="url(#paint16_radial)"/>
<ellipse cx="192.988" cy="499.368" rx="5.36667" ry="5.36667" transform="rotate(-122.863 192.988 499.368)" fill="#213361"/>
<circle cx="444.223" cy="443.223" r="23" transform="rotate(-156.695 444.223 443.223)" fill="url(#paint17_radial)"/>
<ellipse cx="437.247" cy="459.418" rx="5.36667" ry="5.36667" transform="rotate(-156.695 437.247 459.418)" fill="#213361"/>
<circle cx="498.527" cy="273.527" r="23" transform="rotate(-45 498.527 273.527)" fill="url(#paint18_radial)"/>
<ellipse cx="486.058" cy="261.058" rx="5.36667" ry="5.36667" transform="rotate(-45 486.058 261.058)" fill="#213361"/>
<circle cx="389.688" cy="382.688" r="23" transform="rotate(148.042 389.688 382.688)" fill="url(#paint19_radial)"/>
<ellipse cx="399.021" cy="397.649" rx="5.36667" ry="5.36667" transform="rotate(148.042 399.021 397.649)" fill="#213361"/>
<circle cx="187.527" cy="71.5269" r="23" transform="rotate(-45 187.527 71.5269)" fill="url(#paint20_radial)"/>
<ellipse cx="175.058" cy="59.0581" rx="5.36667" ry="5.36667" transform="rotate(-45 175.058 59.0581)" fill="#213361"/>
<circle cx="235.527" cy="190.527" r="23" transform="rotate(-45 235.527 190.527)" fill="url(#paint21_radial)"/>
<ellipse cx="223.058" cy="178.058" rx="5.36667" ry="5.36667" transform="rotate(-45 223.058 178.058)" fill="#213361"/>
<circle cx="185.612" cy="153.612" r="23" transform="rotate(-80.1001 185.612 153.612)" fill="url(#paint22_radial)"/>
<ellipse cx="168.241" cy="150.58" rx="5.36667" ry="5.36667" transform="rotate(-80.1001 168.241 150.58)" fill="#213361"/>
<circle cx="257.527" cy="277.527" r="23" transform="rotate(-45 257.527 277.527)" fill="url(#paint23_radial)"/>
<ellipse cx="245.058" cy="265.058" rx="5.36667" ry="5.36667" transform="rotate(-45 245.058 265.058)" fill="#213361"/>
<circle cx="345.527" cy="84.5269" r="23" transform="rotate(-45 345.527 84.5269)" fill="url(#paint24_radial)"/>
<ellipse cx="333.058" cy="72.0581" rx="5.36667" ry="5.36667" transform="rotate(-45 333.058 72.0581)" fill="#213361"/>
<circle cx="135.527" cy="243.527" r="23" transform="rotate(-45 135.527 243.527)" fill="url(#paint25_radial)"/>
<ellipse cx="123.058" cy="231.058" rx="5.36667" ry="5.36667" transform="rotate(-45 123.058 231.058)" fill="#213361"/>
<circle cx="187.527" cy="305.527" r="23" transform="rotate(-45 187.527 305.527)" fill="url(#paint26_radial)"/>
<ellipse cx="175.058" cy="293.058" rx="5.36667" ry="5.36667" transform="rotate(-45 175.058 293.058)" fill="#213361"/>
<circle cx="424.527" cy="104.527" r="23" transform="rotate(-45 424.527 104.527)" fill="url(#paint27_radial)"/>
<ellipse cx="412.058" cy="92.0581" rx="5.36667" ry="5.36667" transform="rotate(-45 412.058 92.0581)" fill="#213361"/>
<circle cx="132.527" cy="454.527" r="23" transform="rotate(-45 132.527 454.527)" fill="url(#paint28_radial)"/>
<ellipse cx="120.058" cy="442.058" rx="5.36667" ry="5.36667" transform="rotate(-45 120.058 442.058)" fill="#213361"/>
<circle cx="68.5269" cy="206.527" r="23" transform="rotate(-45 68.5269 206.527)" fill="url(#paint29_radial)"/>
<ellipse cx="56.0582" cy="194.058" rx="5.36667" ry="5.36667" transform="rotate(-45 56.0582 194.058)" fill="#213361"/>
<circle cx="330.527" cy="226.527" r="23" transform="rotate(-45 330.527 226.527)" fill="url(#paint30_radial)"/>
<ellipse cx="318.058" cy="214.058" rx="5.36667" ry="5.36667" transform="rotate(-45 318.058 214.058)" fill="#213361"/>
<defs>
<radialGradient id="paint0_radial" cx="0" cy="0" r="1" gradientUnits="userSpaceOnUse" gradientTransform="translate(428 271) rotate(90) scale(23)">
<stop stop-color="#939EC1"/>
<stop offset="1" stop-color="#4D5C94"/>
</radialGradient>
<radialGradient id="paint1_radial" cx="0" cy="0" r="1" gradientUnits="userSpaceOnUse" gradientTransform="translate(370.597 471.597) rotate(90) scale(23)">
<stop stop-color="#939EC1"/>
<stop offset="1" stop-color="#4D5C94"/>
</radialGradient>
<radialGradient id="paint2_radial" cx="0" cy="0" r="1" gradientUnits="userSpaceOnUse" gradientTransform="translate(299.908 438.908) rotate(90) scale(23)">
<stop stop-color="#939EC1"/>
<stop offset="1" stop-color="#4D5C94"/>
</radialGradient>
<radialGradient id="paint3_radial" cx="0" cy="0" r="1" gradientUnits="userSpaceOnUse" gradientTransform="translate(285.51 495.51) rotate(90) scale(23)">
<stop stop-color="#939EC1"/>
<stop offset="1" stop-color="#4D5C94"/>
</radialGradient>
<radialGradient id="paint4_radial" cx="0" cy="0" r="1" gradientUnits="userSpaceOnUse" gradientTransform="translate(84.5228 408.523) rotate(90) scale(23)">
<stop stop-color="#939EC1"/>
<stop offset="1" stop-color="#4D5C94"/>
</radialGradient>
<radialGradient id="paint5_radial" cx="0" cy="0" r="1" gradientUnits="userSpaceOnUse" gradientTransform="translate(155.8 375.8) rotate(90) scale(23)">
<stop stop-color="#939EC1"/>
<stop offset="1" stop-color="#4D5C94"/>
</radialGradient>
<radialGradient id="paint6_radial" cx="0" cy="0" r="1" gradientUnits="userSpaceOnUse" gradientTransform="translate(498.523 170.523) rotate(90) scale(23)">
<stop stop-color="#939EC1"/>
<stop offset="1" stop-color="#4D5C94"/>
</radialGradient>
<radialGradient id="paint7_radial" cx="0" cy="0" r="1" gradientUnits="userSpaceOnUse" gradientTransform="translate(360.8 310.8) rotate(90) scale(23)">
<stop stop-color="#939EC1"/>
<stop offset="1" stop-color="#4D5C94"/>
</radialGradient>
<radialGradient id="paint8_radial" cx="0" cy="0" r="1" gradientUnits="userSpaceOnUse" gradientTransform="translate(262.523 57.5229) rotate(90) scale(23)">
<stop stop-color="#939EC1"/>
<stop offset="1" stop-color="#4D5C94"/>
</radialGradient>
<radialGradient id="paint9_radial" cx="0" cy="0" r="1" gradientUnits="userSpaceOnUse" gradientTransform="translate(68.6102 316.61) rotate(90) scale(23)">
<stop stop-color="#939EC1"/>
<stop offset="1" stop-color="#4D5C94"/>
</radialGradient>
<radialGradient id="paint10_radial" cx="0" cy="0" r="1" gradientUnits="userSpaceOnUse" gradientTransform="translate(407.61 182.61) rotate(90) scale(23)">
<stop stop-color="#939EC1"/>
<stop offset="1" stop-color="#4D5C94"/>
</radialGradient>
<radialGradient id="paint11_radial" cx="0" cy="0" r="1" gradientUnits="userSpaceOnUse" gradientTransform="translate(299.61 340.61) rotate(90) scale(23)">
<stop stop-color="#939EC1"/>
<stop offset="1" stop-color="#4D5C94"/>
</radialGradient>
<radialGradient id="paint12_radial" cx="0" cy="0" r="1" gradientUnits="userSpaceOnUse" gradientTransform="translate(233.422 393.422) rotate(90) scale(23)">
<stop stop-color="#939EC1"/>
<stop offset="1" stop-color="#4D5C94"/>
</radialGradient>
<radialGradient id="paint13_radial" cx="0" cy="0" r="1" gradientUnits="userSpaceOnUse" gradientTransform="translate(477.659 360.659) rotate(90) scale(23)">
<stop stop-color="#939EC1"/>
<stop offset="1" stop-color="#4D5C94"/>
</radialGradient>
<radialGradient id="paint14_radial" cx="0" cy="0" r="1" gradientUnits="userSpaceOnUse" gradientTransform="translate(309.659 143.659) rotate(90) scale(23)">
<stop stop-color="#939EC1"/>
<stop offset="1" stop-color="#4D5C94"/>
</radialGradient>
<radialGradient id="paint15_radial" cx="0" cy="0" r="1" gradientUnits="userSpaceOnUse" gradientTransform="translate(112.523 122.523) rotate(90) scale(23)">
<stop stop-color="#939EC1"/>
<stop offset="1" stop-color="#4D5C94"/>
</radialGradient>
<radialGradient id="paint16_radial" cx="0" cy="0" r="1" gradientUnits="userSpaceOnUse" gradientTransform="translate(207.8 489.8) rotate(90) scale(23)">
<stop stop-color="#939EC1"/>
<stop offset="1" stop-color="#4D5C94"/>
</radialGradient>
<radialGradient id="paint17_radial" cx="0" cy="0" r="1" gradientUnits="userSpaceOnUse" gradientTransform="translate(444.223 443.223) rotate(90) scale(23)">
<stop stop-color="#939EC1"/>
<stop offset="1" stop-color="#4D5C94"/>
</radialGradient>
<radialGradient id="paint18_radial" cx="0" cy="0" r="1" gradientUnits="userSpaceOnUse" gradientTransform="translate(498.527 273.527) rotate(90) scale(23)">
<stop stop-color="#939EC1"/>
<stop offset="1" stop-color="#4D5C94"/>
</radialGradient>
<radialGradient id="paint19_radial" cx="0" cy="0" r="1" gradientUnits="userSpaceOnUse" gradientTransform="translate(389.688 382.688) rotate(90) scale(23)">
<stop stop-color="#939EC1"/>
<stop offset="1" stop-color="#4D5C94"/>
</radialGradient>
<radialGradient id="paint20_radial" cx="0" cy="0" r="1" gradientUnits="userSpaceOnUse" gradientTransform="translate(187.527 71.5269) rotate(90) scale(23)">
<stop stop-color="#939EC1"/>
<stop offset="1" stop-color="#4D5C94"/>
</radialGradient>
<radialGradient id="paint21_radial" cx="0" cy="0" r="1" gradientUnits="userSpaceOnUse" gradientTransform="translate(235.527 190.527) rotate(90) scale(23)">
<stop stop-color="#939EC1"/>
<stop offset="1" stop-color="#4D5C94"/>
</radialGradient>
<radialGradient id="paint22_radial" cx="0" cy="0" r="1" gradientUnits="userSpaceOnUse" gradientTransform="translate(185.612 153.612) rotate(90) scale(23)">
<stop stop-color="#939EC1"/>
<stop offset="1" stop-color="#4D5C94"/>
</radialGradient>
<radialGradient id="paint23_radial" cx="0" cy="0" r="1" gradientUnits="userSpaceOnUse" gradientTransform="translate(257.527 277.527) rotate(90) scale(23)">
<stop stop-color="#939EC1"/>
<stop offset="1" stop-color="#4D5C94"/>
</radialGradient>
<radialGradient id="paint24_radial" cx="0" cy="0" r="1" gradientUnits="userSpaceOnUse" gradientTransform="translate(345.527 84.5269) rotate(90) scale(23)">
<stop stop-color="#939EC1"/>
<stop offset="1" stop-color="#4D5C94"/>
</radialGradient>
<radialGradient id="paint25_radial" cx="0" cy="0" r="1" gradientUnits="userSpaceOnUse" gradientTransform="translate(135.527 243.527) rotate(90) scale(23)">
<stop stop-color="#939EC1"/>
<stop offset="1" stop-color="#4D5C94"/>
</radialGradient>
<radialGradient id="paint26_radial" cx="0" cy="0" r="1" gradientUnits="userSpaceOnUse" gradientTransform="translate(187.527 305.527) rotate(90) scale(23)">
<stop stop-color="#939EC1"/>
<stop offset="1" stop-color="#4D5C94"/>
</radialGradient>
<radialGradient id="paint27_radial" cx="0" cy="0" r="1" gradientUnits="userSpaceOnUse" gradientTransform="translate(424.527 104.527) rotate(90) scale(23)">
<stop stop-color="#939EC1"/>
<stop offset="1" stop-color="#4D5C94"/>
</radialGradient>
<radialGradient id="paint28_radial" cx="0" cy="0" r="1" gradientUnits="userSpaceOnUse" gradientTransform="translate(132.527 454.527) rotate(90) scale(23)">
<stop stop-color="#939EC1"/>
<stop offset="1" stop-color="#4D5C94"/>
</radialGradient>
<radialGradient id="paint29_radial" cx="0" cy="0" r="1" gradientUnits="userSpaceOnUse" gradientTransform="translate(68.5269 206.527) rotate(90) scale(23)">
<stop stop-color="#939EC1"/>
<stop offset="1" stop-color="#4D5C94"/>
</radialGradient>
<radialGradient id="paint30_radial" cx="0" cy="0" r="1" gradientUnits="userSpaceOnUse" gradientTransform="translate(330.527 226.527) rotate(90) scale(23)">
<stop stop-color="#939EC1"/>
<stop offset="1" stop-color="#4D5C94"/>
</radialGradient>
</defs>
</svg>
