<svg width="529" height="485" viewBox="0 0 529 485" fill="none" xmlns="http://www.w3.org/2000/svg">
<path d="M37.0784 227.844L45.8497 289.654C46.3666 293.297 52.9171 293.058 53.3282 289.401C56.6283 260.049 63.5357 226.497 76.6721 173.776C77.5463 170.268 82.8732 171.033 82.7659 174.647C80.6566 245.728 85.4666 294.442 101.171 359.922C102.026 363.486 107.352 362.561 107.143 358.902C100.256 238.516 118.336 164.807 161.804 53.9254C163.08 50.6699 167.964 51.9045 167.601 55.3823C151.245 212.059 160.034 307.081 189.424 454.136C190.137 457.703 195.405 457.114 195.383 453.477C194.398 294.81 205.936 193.14 249.071 35.3609C250.044 31.8049 255.337 32.8652 254.96 36.5323C239.834 183.452 244.444 278.252 272.814 424.795C273.5 428.342 278.701 427.867 278.737 424.254C280.109 286.632 290.988 198.34 330.923 60.3649C331.923 56.9087 337.086 57.8519 336.847 61.4421C329.065 178.23 337.11 253.591 374.021 370.526C375.083 373.889 379.693 372.958 379.346 369.449C370.676 281.609 354.096 237.052 421.752 116.185C423.345 113.339 427.701 114.793 427.377 118.038C419.29 198.98 430.783 249.867 457.624 328.135C458.741 331.393 462.949 330.525 462.538 327.105C456.353 275.672 439.807 236.307 498 173" stroke="#003483" stroke-width="15"/>
<path d="M504.485 177.35C503.362 182.192 498.993 185.315 494.726 184.326C490.459 183.337 487.91 178.61 489.033 173.767C490.155 168.925 493.5 165.564 498.791 166.791C503.059 167.78 505.608 172.508 504.485 177.35Z" fill="#003483"/>
<path d="M504.485 177.35C503.362 182.192 498.993 185.315 494.726 184.326C490.459 183.337 487.91 178.61 489.033 173.767C490.155 168.925 493.5 165.564 498.791 166.791C503.059 167.78 505.608 172.508 504.485 177.35Z" fill="#003483"/>
<ellipse cx="36.8372" cy="227.559" rx="7.93112" ry="9" transform="rotate(-13.7019 36.8372 227.559)" fill="#003483"/>
<ellipse cx="36.8372" cy="227.559" rx="7.93112" ry="9" transform="rotate(-13.7019 36.8372 227.559)" fill="#003483"/>
<ellipse rx="2.86285" ry="2.09813" transform="matrix(0.902141 -0.431441 0.559598 0.828764 484.757 187.974)" fill="#7A58FF"/>
<ellipse rx="2.86285" ry="2.09813" transform="matrix(0.902141 -0.431441 0.559598 0.828764 452.757 294.974)" fill="#7A58FF"/>
<ellipse rx="2.86285" ry="2.09813" transform="matrix(0.902141 -0.431441 0.559598 0.828764 380.757 214.974)" fill="#7A58FF"/>
<ellipse rx="2.86285" ry="2.09813" transform="matrix(0.902141 -0.431441 0.559598 0.828764 456.835 245.974)" fill="#7A58FF"/>
<path d="M427 166.5C427.648 167.46 427.018 168.792 425.591 169.474C424.165 170.156 422.483 169.931 421.835 168.97C421.186 168.01 421.817 166.678 423.243 165.996C424.67 165.314 426.352 165.54 427 166.5Z" fill="#7A58FF"/>
<ellipse rx="2.86285" ry="2.09813" transform="matrix(0.902141 -0.431441 0.559598 0.828764 421.757 123.974)" fill="#7A58FF"/>
<ellipse rx="2.86285" ry="2.09813" transform="matrix(0.902141 -0.431441 0.559598 0.828764 425.757 208.974)" fill="#7A58FF"/>
<ellipse rx="2.86285" ry="2.09813" transform="matrix(0.902141 -0.431441 0.559598 0.828764 364.757 330.974)" fill="#7A58FF"/>
<ellipse rx="2.86285" ry="2.09813" transform="matrix(0.902141 -0.431441 0.559598 0.828764 376.757 356.974)" fill="#7A58FF"/>
<ellipse rx="2.86285" ry="2.09813" transform="matrix(0.902141 -0.431441 0.559598 0.828764 370.835 303.974)" fill="#7A58FF"/>
<path d="M344.5 236.739C345.148 237.699 344.518 239.031 343.091 239.713C341.665 240.395 339.983 240.169 339.335 239.209C338.686 238.249 339.317 236.917 340.743 236.235C342.17 235.553 343.852 235.778 344.5 236.739Z" fill="#7A58FF"/>
<ellipse rx="2.86285" ry="2.09813" transform="matrix(0.902141 -0.431441 0.559598 0.828764 335.757 168.974)" fill="#7A58FF"/>
<ellipse rx="2.86285" ry="2.09813" transform="matrix(0.902141 -0.431441 0.559598 0.828764 346.835 100.974)" fill="#7A58FF"/>
<ellipse rx="2.86285" ry="2.09813" transform="matrix(0.902141 -0.431441 0.559598 0.828764 335.835 58.9739)" fill="#7A58FF"/>
<ellipse rx="2.86285" ry="2.09813" transform="matrix(0.902141 -0.431441 0.559598 0.828764 315.757 120.974)" fill="#7A58FF"/>
<ellipse rx="2.86285" ry="2.09813" transform="matrix(0.902141 -0.431441 0.559598 0.828764 299.757 190.974)" fill="#7A58FF"/>
<ellipse rx="2.86285" ry="2.09813" transform="matrix(0.902141 -0.431441 0.559598 0.828764 288.757 255.974)" fill="#7A58FF"/>
<ellipse rx="2.86285" ry="2.09813" transform="matrix(0.902141 -0.431441 0.559598 0.828764 284.757 311.974)" fill="#7A58FF"/>
<ellipse rx="2.86285" ry="2.09813" transform="matrix(0.902141 -0.431441 0.559598 0.828764 264.757 387.974)" fill="#7A58FF"/>
<ellipse rx="2.86285" ry="2.09813" transform="matrix(0.902141 -0.431441 0.559598 0.828764 280.835 416.974)" fill="#7A58FF"/>
<path d="M258 312C258.648 312.96 258.018 314.292 256.591 314.974C255.165 315.656 253.483 315.431 252.835 314.47C252.186 313.51 252.817 312.178 254.243 311.496C255.67 310.814 257.352 311.04 258 312Z" fill="#7A58FF"/>
<ellipse rx="2.86285" ry="2.09813" transform="matrix(0.902141 -0.431441 0.559598 0.828764 249.757 252.974)" fill="#7A58FF"/>
<ellipse rx="2.86285" ry="2.09813" transform="matrix(0.902141 -0.431441 0.559598 0.828764 248.757 192.974)" fill="#7A58FF"/>
<ellipse rx="2.86285" ry="2.09813" transform="matrix(0.902141 -0.431441 0.559598 0.828764 251.757 119.974)" fill="#7A58FF"/>
<ellipse rx="2.86285" ry="2.09813" transform="matrix(0.902141 -0.431441 0.559598 0.828764 252.835 62.9739)" fill="#7A58FF"/>
<path d="M226.165 133.268C226.814 134.229 226.183 135.56 224.757 136.242C223.33 136.925 221.648 136.699 221 135.739C220.352 134.778 220.982 133.447 222.409 132.765C223.835 132.083 225.517 132.308 226.165 133.268Z" fill="#7A58FF"/>
<path d="M215.165 207.242C215.814 208.203 215.183 209.534 213.757 210.216C212.33 210.899 210.648 210.673 210 209.713C209.352 208.752 209.982 207.421 211.409 206.739C212.835 206.057 214.517 206.282 215.165 207.242Z" fill="#7A58FF"/>
<ellipse rx="2.86285" ry="2.09813" transform="matrix(0.902141 -0.431441 0.559598 0.828764 203.757 268.974)" fill="#7A58FF"/>
<path d="M200.165 345.268C200.814 346.229 200.183 347.56 198.757 348.242C197.33 348.924 195.648 348.699 195 347.739C194.352 346.778 194.982 345.447 196.409 344.765C197.835 344.082 199.517 344.308 200.165 345.268Z" fill="#7A58FF"/>
<ellipse rx="2.86285" ry="2.09813" transform="matrix(0.902141 -0.431441 0.559598 0.828764 197.835 419.974)" fill="#7A58FF"/>
<path d="M177.257 364.713C177.905 365.673 177.275 367.005 175.848 367.687C174.422 368.369 172.74 368.144 172.091 367.183C171.443 366.223 172.074 364.891 173.5 364.209C174.926 363.527 176.608 363.753 177.257 364.713Z" fill="#7A58FF"/>
<ellipse rx="2.86285" ry="2.09813" transform="matrix(0.902141 -0.431441 0.559598 0.828764 162.757 287.974)" fill="#7A58FF"/>
<ellipse rx="2.86285" ry="2.09813" transform="matrix(0.902141 -0.431441 0.559598 0.828764 159.757 201.974)" fill="#7A58FF"/>
<path d="M166.757 124.713C167.405 125.673 166.775 127.005 165.348 127.687C163.922 128.369 162.24 128.144 161.591 127.183C160.943 126.223 161.574 124.891 163 124.209C164.426 123.527 166.108 123.753 166.757 124.713Z" fill="#7A58FF"/>
<ellipse rx="2.86285" ry="2.09813" transform="matrix(0.902141 -0.431441 0.559598 0.828764 166.835 57.9739)" fill="#7A58FF"/>
<path d="M145 108C145.648 108.96 145.018 110.292 143.591 110.974C142.165 111.656 140.483 111.431 139.835 110.47C139.186 109.51 139.817 108.178 141.243 107.496C142.67 106.814 144.352 107.04 145 108Z" fill="#7A58FF"/>
<path d="M122.409 182.235C123.057 183.195 122.426 184.527 121 185.209C119.574 185.891 117.892 185.666 117.243 184.705C116.595 183.745 117.225 182.414 118.652 181.731C120.078 181.049 121.76 181.275 122.409 182.235Z" fill="#7A58FF"/>
<path d="M111.409 246.739C112.057 247.699 111.426 249.031 110 249.713C108.574 250.395 106.892 250.169 106.243 249.209C105.595 248.249 106.225 246.917 107.652 246.235C109.078 245.553 110.76 245.778 111.409 246.739Z" fill="#7A58FF"/>
<ellipse rx="2.86285" ry="2.09813" transform="matrix(0.902141 -0.431441 0.559598 0.828764 106.757 314.974)" fill="#7A58FF"/>
<ellipse rx="2.86285" ry="2.09813" transform="matrix(0.902141 -0.431441 0.559598 0.828764 108.835 360.974)" fill="#7A58FF"/>
<path d="M87.4086 268.026C88.057 268.986 87.4264 270.318 86 271C84.5736 271.682 82.8916 271.457 82.2432 270.496C81.5948 269.536 82.2254 268.204 83.6518 267.522C85.0782 266.84 86.7601 267.066 87.4086 268.026Z" fill="#7A58FF"/>
<path d="M86.7568 218.243C87.4052 219.203 86.7746 220.535 85.3482 221.217C83.9218 221.899 82.2399 221.673 81.5914 220.713C80.943 219.753 81.5736 218.421 83 217.739C84.4264 217.057 86.1083 217.282 86.7568 218.243Z" fill="#7A58FF"/>
<path d="M83.4179 176.5C84.0663 177.46 83.4357 178.792 82.0093 179.474C80.5829 180.156 78.9009 179.931 78.2525 178.97C77.604 178.01 78.2347 176.678 79.6611 175.996C81.0874 175.314 82.7694 175.54 83.4179 176.5Z" fill="#7A58FF"/>
<ellipse rx="2.86285" ry="2.09813" transform="matrix(0.902141 -0.431441 0.559598 0.828764 70.7568 205.974)" fill="#7A58FF"/>
<ellipse rx="2.86285" ry="2.09813" transform="matrix(0.902141 -0.431441 0.559598 0.828764 61.7568 241.974)" fill="#7A58FF"/>
<ellipse rx="2.86285" ry="2.09813" transform="matrix(0.902141 -0.431441 0.559598 0.828764 50.8352 290.974)" fill="#7A58FF"/>
<ellipse rx="2.86285" ry="2.09813" transform="matrix(0.902141 -0.431441 0.559598 0.828764 39.8352 243.974)" fill="#7A58FF"/>
</svg>
