<svg width="621" height="581" viewBox="0 0 621 581" fill="none" xmlns="http://www.w3.org/2000/svg">
<path d="M109.588 187.425L110.016 187.49L110.144 187.091C112.117 180.941 115.29 176.741 119.075 174.141C122.861 171.541 127.295 170.518 131.838 170.778C140.942 171.301 150.452 176.982 155.852 185.388C166.642 202.183 160.182 224.934 141.29 236.175C122.398 247.416 98.3633 242.81 87.574 226.016C82.1755 217.612 81.2488 206.954 84.8847 198.915C86.6994 194.903 89.6468 191.549 93.7376 189.439C97.8277 187.328 103.097 186.442 109.588 187.425Z" fill="#FF0000" stroke="#750000"/>
<path d="M304.779 324.183L305.049 323.844L304.768 323.535C300.427 318.751 298.375 313.904 298.016 309.326C297.656 304.748 298.986 300.395 301.483 296.591C306.486 288.967 316.16 283.57 326.14 283.095C346.079 282.145 362.555 299.111 362.848 321.093C363.141 343.075 347.138 361.589 327.199 362.539C317.222 363.014 307.528 358.489 302.383 351.322C299.815 347.745 298.383 343.516 298.6 338.918C298.817 334.32 300.683 329.313 304.779 324.183Z" fill="#FF0000" stroke="#750000"/>
<path d="M379.499 92.0095L379.561 92.4378L379.979 92.4446C386.438 92.5508 391.377 94.3695 394.962 97.2391C398.548 100.109 400.812 104.056 401.88 108.479C404.019 117.344 401.338 128.092 394.858 135.697C381.912 150.892 358.265 151.304 342.031 136.481C325.796 121.658 323.238 97.3206 336.184 82.1264C342.661 74.524 352.593 70.5477 361.341 71.6975C365.707 72.2713 369.771 74.12 372.977 77.4233C376.182 80.7262 378.558 85.5123 379.499 92.0095Z" fill="#FF0000" stroke="#750000"/>
<path d="M469.8 350.132L470.224 350.217L470.37 349.825C472.627 343.773 475.991 339.724 479.893 337.303C483.796 334.882 488.272 334.066 492.798 334.537C501.868 335.481 511.104 341.598 516.109 350.246C526.107 367.523 518.598 389.949 499.205 400.302C479.811 410.654 456.016 404.937 446.018 387.66C441.015 379.015 440.584 368.325 444.59 360.464C446.589 356.54 449.688 353.327 453.873 351.408C458.057 349.49 463.361 348.849 469.8 350.132Z" fill="#FF0000" stroke="#750000"/>
<path d="M76.5144 406.037L76.9382 406.124L77.0869 405.733C79.3822 399.695 82.7716 395.669 86.689 393.272C90.6066 390.876 95.0885 390.088 99.6115 390.588C108.675 391.589 117.872 397.764 122.822 406.444C132.71 423.784 125.06 446.162 105.601 456.392C86.1423 466.621 62.3842 460.753 52.4957 443.413C47.5479 434.737 47.1846 424.045 51.2395 416.209C53.2633 412.298 56.3834 409.104 60.5798 407.212C64.7756 405.32 70.0842 404.713 76.5144 406.037Z" fill="#FF0000" stroke="#750000"/>
<path d="M286.501 493.997L286.812 494.298L287.147 494.047C292.318 490.175 297.336 488.588 301.928 488.661C306.52 488.734 310.727 490.467 314.28 493.31C321.4 499.007 325.864 509.147 325.399 519.127C324.47 539.067 306.03 553.875 284.118 552.1C262.206 550.325 245.278 532.652 246.207 512.712C246.672 502.735 252.088 493.509 259.707 489.06C263.51 486.84 267.855 485.813 272.412 486.461C276.969 487.109 281.778 489.437 286.501 493.997Z" fill="#FF0000" stroke="#750000"/>
<path d="M170.08 115.623L170.446 115.42L170.3 115.013C168.043 108.719 167.894 103.328 169.19 98.8995C170.487 94.4704 173.242 90.9625 176.865 88.4563C184.126 83.4342 194.851 82.4559 204.108 86.2042C222.604 93.6928 231.592 116.468 224.062 137.131C216.531 157.794 195.39 168.371 176.894 160.882C167.64 157.135 160.416 148.834 158.272 139.976C157.202 135.554 157.398 131.001 159.227 126.795C161.055 122.59 164.53 118.696 170.08 115.623Z" fill="#FF0000" stroke="#750000"/>
<path d="M272.827 235.899L272.834 235.481L272.408 235.404C265.83 234.213 261.086 231.647 257.898 228.311C254.71 224.974 253.049 220.834 252.689 216.443C251.969 207.645 256.482 197.867 264.356 191.722C280.087 179.446 304.305 183.046 318.438 199.896C332.571 216.747 331.163 240.344 315.432 252.62C307.561 258.763 296.761 260.871 288.017 258.299C283.652 257.016 279.807 254.57 277.078 250.884C274.35 247.199 272.714 242.242 272.827 235.899Z" fill="#FF0000" stroke="#750000"/>
<path d="M465.753 129.092L466.053 129.383L466.4 129.126C471.77 125.142 476.886 123.436 481.5 123.393C486.115 123.351 490.271 124.97 493.72 127.712C500.631 133.205 504.676 143.186 503.772 153.132C501.966 173.005 482.774 188.208 460.815 186.991C438.856 185.773 422.606 168.605 424.412 148.732C425.316 138.789 431.166 129.469 439.023 124.85C442.944 122.544 447.359 121.412 451.914 121.943C456.468 122.474 461.203 124.671 465.753 129.092Z" fill="#FF0000" stroke="#750000"/>
<path d="M533.56 281.215L533.934 281.03L533.807 280.616C531.846 274.225 531.946 268.833 533.447 264.469C534.948 260.105 537.863 256.728 541.599 254.393C549.084 249.713 559.843 249.234 568.917 253.408C587.045 261.747 594.966 284.915 586.485 305.206C578.003 325.498 556.394 335.081 538.265 326.742C529.195 322.569 522.364 313.942 520.634 304.994C519.77 300.527 520.178 295.988 522.199 291.872C524.221 287.756 527.873 284.028 533.56 281.215Z" fill="#FF0000" stroke="#750000"/>
<path d="M140.709 337.524L141.085 337.341L140.961 336.927C139.04 330.523 139.175 325.132 140.703 320.777C142.231 316.423 145.168 313.065 148.918 310.753C156.433 306.121 167.195 305.71 176.242 309.941C194.317 318.395 202.091 341.612 193.481 361.85C184.872 382.087 163.202 391.533 145.127 383.08C136.083 378.85 129.307 370.18 127.633 361.22C126.798 356.749 127.234 352.212 129.282 348.109C131.329 344.006 135.005 340.3 140.709 337.524Z" fill="#FF0000" stroke="#750000"/>
<path d="M377.398 470.486L377.813 470.533L377.93 470.116C379.735 463.679 382.735 459.197 386.357 456.337C389.978 453.477 394.256 452.212 398.661 452.267C407.488 452.377 416.799 457.79 422.176 466.207C432.919 483.022 427.058 506.795 408.953 519.281C390.849 531.767 367.488 528.147 356.745 511.331C351.37 502.917 350.287 491.967 353.669 483.503C355.357 479.279 358.154 475.681 362.08 473.31C366.005 470.941 371.094 469.778 377.398 470.486Z" fill="#FF0000" stroke="#750000"/>
<path d="M109.352 187.168C109.352 187.168 80.7026 117.541 87.8351 110.077C94.9677 102.614 169.709 115.105 169.709 115.105" stroke="#3FC500" stroke-width="5"/>
<path d="M304.438 324.259C304.438 324.259 229.813 314.269 226.914 304.361C224.015 294.453 272.194 235.962 272.194 235.962" stroke="#3FC500" stroke-width="5"/>
<path d="M379.676 91.7086C379.676 91.7086 438.01 44.1073 447.22 48.7704C456.431 53.4334 466.14 128.587 466.14 128.587" stroke="#3FC500" stroke-width="5"/>
<path d="M469.575 349.864C469.575 349.864 444.189 278.983 451.66 271.858C459.132 264.734 533.213 280.682 533.213 280.682" stroke="#3FC500" stroke-width="5"/>
<path d="M76.2914 405.767C76.2914 405.767 51.3543 334.726 58.8705 327.649C66.3868 320.572 140.366 336.988 140.366 336.988" stroke="#3FC500" stroke-width="5"/>
<path d="M286.457 493.649C286.457 493.649 303.419 420.294 313.556 418.339C323.693 416.385 377.395 469.849 377.395 469.849" stroke="#3FC500" stroke-width="5"/>
<ellipse cx="88.2916" cy="109.525" rx="4" ry="5" transform="rotate(-50.0513 88.2916 109.525)" fill="#411C1C"/>
<ellipse cx="226.664" cy="303.689" rx="4" ry="5" transform="rotate(-110.061 226.664 303.689)" fill="#411C1C"/>
<ellipse cx="447.882" cy="49.0473" rx="4" ry="5" transform="rotate(23.0992 447.882 49.0473)" fill="#411C1C"/>
<ellipse cx="452.142" cy="271.328" rx="4" ry="5" transform="rotate(-47.3907 452.142 271.328)" fill="#411C1C"/>
<ellipse cx="59.3559" cy="327.122" rx="4" ry="5" transform="rotate(-47.028 59.3559 327.122)" fill="#411C1C"/>
<ellipse cx="314.248" cy="418.154" rx="4" ry="5" transform="rotate(-14.6665 314.248 418.154)" fill="#411C1C"/>
</svg>
