<svg width="531" height="528" viewBox="0 0 531 528" fill="none" xmlns="http://www.w3.org/2000/svg">
<rect x="110.5" y="86.5002" width="29" height="28" fill="#853000" stroke="black"/>
<rect x="234.69" y="52.1437" width="29" height="28" transform="rotate(-32.2016 234.69 52.1437)" fill="#853000" stroke="black"/>
<rect x="46.6895" y="168.144" width="29" height="28" transform="rotate(-32.2016 46.6895 168.144)" fill="#853000" stroke="black"/>
<rect x="37.5061" y="297.504" width="29" height="28" transform="rotate(-89.2994 37.5061 297.504)" fill="#853000" stroke="black"/>
<rect x="125.506" y="277.504" width="29" height="28" transform="rotate(-89.2994 125.506 277.504)" fill="#853000" stroke="black"/>
<rect x="295.934" y="411.791" width="29" height="28" transform="rotate(-140.045 295.934 411.791)" fill="#853000" stroke="black"/>
<rect x="385.934" y="376.791" width="29" height="28" transform="rotate(-140.045 385.934 376.791)" fill="#853000" stroke="black"/>
<rect x="375.934" y="180.791" width="29" height="28" transform="rotate(-140.045 375.934 180.791)" fill="#853000" stroke="black"/>
<rect x="201.2" y="384.38" width="29" height="28" transform="rotate(-144.134 201.2 384.38)" fill="#853000" stroke="black"/>
<rect x="307.425" y="158.45" width="29" height="28" transform="rotate(163.364 307.425 158.45)" fill="#853000" stroke="black"/>
<rect x="403.425" y="94.4505" width="29" height="28" transform="rotate(163.364 403.425 94.4505)" fill="#853000" stroke="black"/>
<rect x="477.782" y="172.632" width="29" height="28" transform="rotate(113.078 477.782 172.632)" fill="#853000" stroke="black"/>
<rect x="437.782" y="250.632" width="29" height="28" transform="rotate(113.078 437.782 250.632)" fill="#853000" stroke="black"/>
<rect x="485.782" y="305.632" width="29" height="28" transform="rotate(113.078 485.782 305.632)" fill="#853000" stroke="black"/>
<rect x="299.782" y="298.632" width="29" height="28" transform="rotate(113.078 299.782 298.632)" fill="#853000" stroke="black"/>
<rect x="240.783" y="246.632" width="29" height="28" transform="rotate(113.078 240.783 246.632)" fill="#853000" stroke="black"/>
<rect x="352.782" y="226.632" width="29" height="28" transform="rotate(113.078 352.782 226.632)" fill="#853000" stroke="black"/>
<rect x="427.782" y="420.632" width="29" height="28" transform="rotate(113.078 427.782 420.632)" fill="#853000" stroke="black"/>
<rect x="286.782" y="461.632" width="29" height="28" transform="rotate(113.078 286.782 461.632)" fill="#853000" stroke="black"/>
<rect x="176.783" y="453.632" width="29" height="28" transform="rotate(113.078 176.783 453.632)" fill="#853000" stroke="black"/>
<rect x="109.783" y="360.632" width="29" height="28" transform="rotate(113.078 109.783 360.632)" fill="#853000" stroke="black"/>
<rect x="164.704" y="175.9" width="29" height="28" transform="rotate(-49.9376 164.704 175.9)" fill="#853000" stroke="black"/>
</svg>
