<svg width="421" height="368" viewBox="0 0 421 368" fill="none" xmlns="http://www.w3.org/2000/svg">
<mask id="path-2-inside-1" fill="white">
<path fill-rule="evenodd" clip-rule="evenodd" d="M80.1746 48.416C80.1569 48.6127 80.1744 48.9507 80.5907 49.4508L299.02 311.879C307.092 321.576 294.336 334.657 284.439 326.833L63.0904 151.856C62.5827 151.455 62.2448 151.444 62.0477 151.467C61.7735 151.498 61.4095 151.653 61.0845 151.987C60.7596 152.322 60.6151 152.69 60.5918 152.965C60.575 153.162 60.5948 153.5 61.0104 153.996L175.528 290.674C183.435 300.111 171.444 313.105 161.403 305.981L55.5621 230.881C55.1029 230.556 54.7778 230.535 54.5602 230.561C54.2851 230.594 53.9474 230.738 53.648 231.03C53.3486 231.321 53.1947 231.655 53.1547 231.929C53.123 232.146 53.1344 232.471 53.4477 232.939L109.585 316.783C115.381 325.439 106.393 336.342 96.79 332.304L72.122 321.931C69.7793 321.557 68.0001 319.716 68.0001 317.5C68.0001 315.015 70.2387 313 73.0001 313C73.8343 313 74.6208 313.184 75.3123 313.509L100.279 324.007C100.71 324.189 101.017 324.169 101.242 324.106C101.504 324.032 101.787 323.858 102.017 323.579C102.248 323.299 102.365 322.989 102.387 322.717C102.406 322.484 102.367 322.179 102.106 321.79L45.9692 237.947C39.482 228.257 51.2604 216.794 60.7702 223.541L166.612 298.641C167.116 298.998 167.45 299.001 167.654 298.97C167.927 298.929 168.277 298.765 168.582 298.434C168.887 298.104 169.022 297.742 169.041 297.466C169.056 297.261 169.026 296.928 168.629 296.454L54.1118 159.776C45.9957 150.089 58.7581 136.959 68.6717 144.796L290.02 319.773C290.526 320.173 290.864 320.184 291.062 320.161C291.336 320.131 291.699 319.976 292.024 319.643C292.349 319.31 292.494 318.943 292.518 318.668C292.535 318.47 292.516 318.132 292.103 317.636L73.6733 55.2084C65.5641 45.4658 78.4612 32.3623 88.3314 40.315L350.185 251.297C350.699 251.71 351.038 251.719 351.232 251.698C351.506 251.668 351.874 251.512 352.203 251.173C352.532 250.833 352.676 250.461 352.698 250.186C352.714 249.992 352.694 249.653 352.265 249.152L196.595 67.5151C188.677 58.2766 200.184 45.22 210.344 51.9141L365.997 154.461C366.499 154.792 366.83 154.789 367.037 154.752C367.31 154.704 367.651 154.534 367.943 154.206C368.235 153.877 368.364 153.519 368.38 153.242C368.392 153.032 368.357 152.703 367.97 152.243L298.184 69.328C291.461 61.3403 299.25 49.5012 309.246 52.5132L367.313 70.0087C369.929 70.154 372 72.1093 372 74.5C372 76.9853 369.761 79 367 79C366.878 79 366.757 78.9961 366.637 78.9884L366.577 79.1867L306.65 61.1305C306.2 60.9949 305.897 61.0474 305.679 61.1342C305.426 61.2352 305.163 61.439 304.964 61.7423C304.764 62.0456 304.681 62.3677 304.689 62.64C304.695 62.8739 304.767 63.1731 305.069 63.5326L374.855 146.447C382.655 155.715 371.16 168.641 361.045 161.977L205.393 59.4296C204.887 59.0964 204.555 59.1013 204.349 59.1382C204.076 59.187 203.735 59.3586 203.442 59.6905C203.15 60.0224 203.023 60.3825 203.008 60.6592C202.998 60.8683 203.035 61.1985 203.429 61.6584L359.099 243.296C367.407 252.99 354.481 266.315 344.539 258.305L82.6847 47.3232C82.1781 46.915 81.8397 46.9028 81.6434 46.9236C81.3691 46.9528 81.0029 47.1054 80.6745 47.4391C80.3461 47.7728 80.1993 48.1413 80.1746 48.416Z"/>
</mask>
<path fill-rule="evenodd" clip-rule="evenodd" d="M80.1746 48.416C80.1569 48.6127 80.1744 48.9507 80.5907 49.4508L299.02 311.879C307.092 321.576 294.336 334.657 284.439 326.833L63.0904 151.856C62.5827 151.455 62.2448 151.444 62.0477 151.467C61.7735 151.498 61.4095 151.653 61.0845 151.987C60.7596 152.322 60.6151 152.69 60.5918 152.965C60.575 153.162 60.5948 153.5 61.0104 153.996L175.528 290.674C183.435 300.111 171.444 313.105 161.403 305.981L55.5621 230.881C55.1029 230.556 54.7778 230.535 54.5602 230.561C54.2851 230.594 53.9474 230.738 53.648 231.03C53.3486 231.321 53.1947 231.655 53.1547 231.929C53.123 232.146 53.1344 232.471 53.4477 232.939L109.585 316.783C115.381 325.439 106.393 336.342 96.79 332.304L72.122 321.931C69.7793 321.557 68.0001 319.716 68.0001 317.5C68.0001 315.015 70.2387 313 73.0001 313C73.8343 313 74.6208 313.184 75.3123 313.509L100.279 324.007C100.71 324.189 101.017 324.169 101.242 324.106C101.504 324.032 101.787 323.858 102.017 323.579C102.248 323.299 102.365 322.989 102.387 322.717C102.406 322.484 102.367 322.179 102.106 321.79L45.9692 237.947C39.482 228.257 51.2604 216.794 60.7702 223.541L166.612 298.641C167.116 298.998 167.45 299.001 167.654 298.97C167.927 298.929 168.277 298.765 168.582 298.434C168.887 298.104 169.022 297.742 169.041 297.466C169.056 297.261 169.026 296.928 168.629 296.454L54.1118 159.776C45.9957 150.089 58.7581 136.959 68.6717 144.796L290.02 319.773C290.526 320.173 290.864 320.184 291.062 320.161C291.336 320.131 291.699 319.976 292.024 319.643C292.349 319.31 292.494 318.943 292.518 318.668C292.535 318.47 292.516 318.132 292.103 317.636L73.6733 55.2084C65.5641 45.4658 78.4612 32.3623 88.3314 40.315L350.185 251.297C350.699 251.71 351.038 251.719 351.232 251.698C351.506 251.668 351.874 251.512 352.203 251.173C352.532 250.833 352.676 250.461 352.698 250.186C352.714 249.992 352.694 249.653 352.265 249.152L196.595 67.5151C188.677 58.2766 200.184 45.22 210.344 51.9141L365.997 154.461C366.499 154.792 366.83 154.789 367.037 154.752C367.31 154.704 367.651 154.534 367.943 154.206C368.235 153.877 368.364 153.519 368.38 153.242C368.392 153.032 368.357 152.703 367.97 152.243L298.184 69.328C291.461 61.3403 299.25 49.5012 309.246 52.5132L367.313 70.0087C369.929 70.154 372 72.1093 372 74.5C372 76.9853 369.761 79 367 79C366.878 79 366.757 78.9961 366.637 78.9884L366.577 79.1867L306.65 61.1305C306.2 60.9949 305.897 61.0474 305.679 61.1342C305.426 61.2352 305.163 61.439 304.964 61.7423C304.764 62.0456 304.681 62.3677 304.689 62.64C304.695 62.8739 304.767 63.1731 305.069 63.5326L374.855 146.447C382.655 155.715 371.16 168.641 361.045 161.977L205.393 59.4296C204.887 59.0964 204.555 59.1013 204.349 59.1382C204.076 59.187 203.735 59.3586 203.442 59.6905C203.15 60.0224 203.023 60.3825 203.008 60.6592C202.998 60.8683 203.035 61.1985 203.429 61.6584L359.099 243.296C367.407 252.99 354.481 266.315 344.539 258.305L82.6847 47.3232C82.1781 46.915 81.8397 46.9028 81.6434 46.9236C81.3691 46.9528 81.0029 47.1054 80.6745 47.4391C80.3461 47.7728 80.1993 48.1413 80.1746 48.416Z" fill="#EEDA28"/>
<path fill-rule="evenodd" clip-rule="evenodd" d="M80.1746 48.416C80.1569 48.6127 80.1744 48.9507 80.5907 49.4508L299.02 311.879C307.092 321.576 294.336 334.657 284.439 326.833L63.0904 151.856C62.5827 151.455 62.2448 151.444 62.0477 151.467C61.7735 151.498 61.4095 151.653 61.0845 151.987C60.7596 152.322 60.6151 152.69 60.5918 152.965C60.575 153.162 60.5948 153.5 61.0104 153.996L175.528 290.674C183.435 300.111 171.444 313.105 161.403 305.981L55.5621 230.881C55.1029 230.556 54.7778 230.535 54.5602 230.561C54.2851 230.594 53.9474 230.738 53.648 231.03C53.3486 231.321 53.1947 231.655 53.1547 231.929C53.123 232.146 53.1344 232.471 53.4477 232.939L109.585 316.783C115.381 325.439 106.393 336.342 96.79 332.304L72.122 321.931C69.7793 321.557 68.0001 319.716 68.0001 317.5C68.0001 315.015 70.2387 313 73.0001 313C73.8343 313 74.6208 313.184 75.3123 313.509L100.279 324.007C100.71 324.189 101.017 324.169 101.242 324.106C101.504 324.032 101.787 323.858 102.017 323.579C102.248 323.299 102.365 322.989 102.387 322.717C102.406 322.484 102.367 322.179 102.106 321.79L45.9692 237.947C39.482 228.257 51.2604 216.794 60.7702 223.541L166.612 298.641C167.116 298.998 167.45 299.001 167.654 298.97C167.927 298.929 168.277 298.765 168.582 298.434C168.887 298.104 169.022 297.742 169.041 297.466C169.056 297.261 169.026 296.928 168.629 296.454L54.1118 159.776C45.9957 150.089 58.7581 136.959 68.6717 144.796L290.02 319.773C290.526 320.173 290.864 320.184 291.062 320.161C291.336 320.131 291.699 319.976 292.024 319.643C292.349 319.31 292.494 318.943 292.518 318.668C292.535 318.47 292.516 318.132 292.103 317.636L73.6733 55.2084C65.5641 45.4658 78.4612 32.3623 88.3314 40.315L350.185 251.297C350.699 251.71 351.038 251.719 351.232 251.698C351.506 251.668 351.874 251.512 352.203 251.173C352.532 250.833 352.676 250.461 352.698 250.186C352.714 249.992 352.694 249.653 352.265 249.152L196.595 67.5151C188.677 58.2766 200.184 45.22 210.344 51.9141L365.997 154.461C366.499 154.792 366.83 154.789 367.037 154.752C367.31 154.704 367.651 154.534 367.943 154.206C368.235 153.877 368.364 153.519 368.38 153.242C368.392 153.032 368.357 152.703 367.97 152.243L298.184 69.328C291.461 61.3403 299.25 49.5012 309.246 52.5132L367.313 70.0087C369.929 70.154 372 72.1093 372 74.5C372 76.9853 369.761 79 367 79C366.878 79 366.757 78.9961 366.637 78.9884L366.577 79.1867L306.65 61.1305C306.2 60.9949 305.897 61.0474 305.679 61.1342C305.426 61.2352 305.163 61.439 304.964 61.7423C304.764 62.0456 304.681 62.3677 304.689 62.64C304.695 62.8739 304.767 63.1731 305.069 63.5326L374.855 146.447C382.655 155.715 371.16 168.641 361.045 161.977L205.393 59.4296C204.887 59.0964 204.555 59.1013 204.349 59.1382C204.076 59.187 203.735 59.3586 203.442 59.6905C203.15 60.0224 203.023 60.3825 203.008 60.6592C202.998 60.8683 203.035 61.1985 203.429 61.6584L359.099 243.296C367.407 252.99 354.481 266.315 344.539 258.305L82.6847 47.3232C82.1781 46.915 81.8397 46.9028 81.6434 46.9236C81.3691 46.9528 81.0029 47.1054 80.6745 47.4391C80.3461 47.7728 80.1993 48.1413 80.1746 48.416Z" fill="#EEDA28"/>
<path fill-rule="evenodd" clip-rule="evenodd" d="M80.1746 48.416C80.1569 48.6127 80.1744 48.9507 80.5907 49.4508L299.02 311.879C307.092 321.576 294.336 334.657 284.439 326.833L63.0904 151.856C62.5827 151.455 62.2448 151.444 62.0477 151.467C61.7735 151.498 61.4095 151.653 61.0845 151.987C60.7596 152.322 60.6151 152.69 60.5918 152.965C60.575 153.162 60.5948 153.5 61.0104 153.996L175.528 290.674C183.435 300.111 171.444 313.105 161.403 305.981L55.5621 230.881C55.1029 230.556 54.7778 230.535 54.5602 230.561C54.2851 230.594 53.9474 230.738 53.648 231.03C53.3486 231.321 53.1947 231.655 53.1547 231.929C53.123 232.146 53.1344 232.471 53.4477 232.939L109.585 316.783C115.381 325.439 106.393 336.342 96.79 332.304L72.122 321.931C69.7793 321.557 68.0001 319.716 68.0001 317.5C68.0001 315.015 70.2387 313 73.0001 313C73.8343 313 74.6208 313.184 75.3123 313.509L100.279 324.007C100.71 324.189 101.017 324.169 101.242 324.106C101.504 324.032 101.787 323.858 102.017 323.579C102.248 323.299 102.365 322.989 102.387 322.717C102.406 322.484 102.367 322.179 102.106 321.79L45.9692 237.947C39.482 228.257 51.2604 216.794 60.7702 223.541L166.612 298.641C167.116 298.998 167.45 299.001 167.654 298.97C167.927 298.929 168.277 298.765 168.582 298.434C168.887 298.104 169.022 297.742 169.041 297.466C169.056 297.261 169.026 296.928 168.629 296.454L54.1118 159.776C45.9957 150.089 58.7581 136.959 68.6717 144.796L290.02 319.773C290.526 320.173 290.864 320.184 291.062 320.161C291.336 320.131 291.699 319.976 292.024 319.643C292.349 319.31 292.494 318.943 292.518 318.668C292.535 318.47 292.516 318.132 292.103 317.636L73.6733 55.2084C65.5641 45.4658 78.4612 32.3623 88.3314 40.315L350.185 251.297C350.699 251.71 351.038 251.719 351.232 251.698C351.506 251.668 351.874 251.512 352.203 251.173C352.532 250.833 352.676 250.461 352.698 250.186C352.714 249.992 352.694 249.653 352.265 249.152L196.595 67.5151C188.677 58.2766 200.184 45.22 210.344 51.9141L365.997 154.461C366.499 154.792 366.83 154.789 367.037 154.752C367.31 154.704 367.651 154.534 367.943 154.206C368.235 153.877 368.364 153.519 368.38 153.242C368.392 153.032 368.357 152.703 367.97 152.243L298.184 69.328C291.461 61.3403 299.25 49.5012 309.246 52.5132L367.313 70.0087C369.929 70.154 372 72.1093 372 74.5C372 76.9853 369.761 79 367 79C366.878 79 366.757 78.9961 366.637 78.9884L366.577 79.1867L306.65 61.1305C306.2 60.9949 305.897 61.0474 305.679 61.1342C305.426 61.2352 305.163 61.439 304.964 61.7423C304.764 62.0456 304.681 62.3677 304.689 62.64C304.695 62.8739 304.767 63.1731 305.069 63.5326L374.855 146.447C382.655 155.715 371.16 168.641 361.045 161.977L205.393 59.4296C204.887 59.0964 204.555 59.1013 204.349 59.1382C204.076 59.187 203.735 59.3586 203.442 59.6905C203.15 60.0224 203.023 60.3825 203.008 60.6592C202.998 60.8683 203.035 61.1985 203.429 61.6584L359.099 243.296C367.407 252.99 354.481 266.315 344.539 258.305L82.6847 47.3232C82.1781 46.915 81.8397 46.9028 81.6434 46.9236C81.3691 46.9528 81.0029 47.1054 80.6745 47.4391C80.3461 47.7728 80.1993 48.1413 80.1746 48.416Z" fill="#EEDA28"/>
<path fill-rule="evenodd" clip-rule="evenodd" d="M80.1746 48.416C80.1569 48.6127 80.1744 48.9507 80.5907 49.4508L299.02 311.879C307.092 321.576 294.336 334.657 284.439 326.833L63.0904 151.856C62.5827 151.455 62.2448 151.444 62.0477 151.467C61.7735 151.498 61.4095 151.653 61.0845 151.987C60.7596 152.322 60.6151 152.69 60.5918 152.965C60.575 153.162 60.5948 153.5 61.0104 153.996L175.528 290.674C183.435 300.111 171.444 313.105 161.403 305.981L55.5621 230.881C55.1029 230.556 54.7778 230.535 54.5602 230.561C54.2851 230.594 53.9474 230.738 53.648 231.03C53.3486 231.321 53.1947 231.655 53.1547 231.929C53.123 232.146 53.1344 232.471 53.4477 232.939L109.585 316.783C115.381 325.439 106.393 336.342 96.79 332.304L72.122 321.931C69.7793 321.557 68.0001 319.716 68.0001 317.5C68.0001 315.015 70.2387 313 73.0001 313C73.8343 313 74.6208 313.184 75.3123 313.509L100.279 324.007C100.71 324.189 101.017 324.169 101.242 324.106C101.504 324.032 101.787 323.858 102.017 323.579C102.248 323.299 102.365 322.989 102.387 322.717C102.406 322.484 102.367 322.179 102.106 321.79L45.9692 237.947C39.482 228.257 51.2604 216.794 60.7702 223.541L166.612 298.641C167.116 298.998 167.45 299.001 167.654 298.97C167.927 298.929 168.277 298.765 168.582 298.434C168.887 298.104 169.022 297.742 169.041 297.466C169.056 297.261 169.026 296.928 168.629 296.454L54.1118 159.776C45.9957 150.089 58.7581 136.959 68.6717 144.796L290.02 319.773C290.526 320.173 290.864 320.184 291.062 320.161C291.336 320.131 291.699 319.976 292.024 319.643C292.349 319.31 292.494 318.943 292.518 318.668C292.535 318.47 292.516 318.132 292.103 317.636L73.6733 55.2084C65.5641 45.4658 78.4612 32.3623 88.3314 40.315L350.185 251.297C350.699 251.71 351.038 251.719 351.232 251.698C351.506 251.668 351.874 251.512 352.203 251.173C352.532 250.833 352.676 250.461 352.698 250.186C352.714 249.992 352.694 249.653 352.265 249.152L196.595 67.5151C188.677 58.2766 200.184 45.22 210.344 51.9141L365.997 154.461C366.499 154.792 366.83 154.789 367.037 154.752C367.31 154.704 367.651 154.534 367.943 154.206C368.235 153.877 368.364 153.519 368.38 153.242C368.392 153.032 368.357 152.703 367.97 152.243L298.184 69.328C291.461 61.3403 299.25 49.5012 309.246 52.5132L367.313 70.0087C369.929 70.154 372 72.1093 372 74.5C372 76.9853 369.761 79 367 79C366.878 79 366.757 78.9961 366.637 78.9884L366.577 79.1867L306.65 61.1305C306.2 60.9949 305.897 61.0474 305.679 61.1342C305.426 61.2352 305.163 61.439 304.964 61.7423C304.764 62.0456 304.681 62.3677 304.689 62.64C304.695 62.8739 304.767 63.1731 305.069 63.5326L374.855 146.447C382.655 155.715 371.16 168.641 361.045 161.977L205.393 59.4296C204.887 59.0964 204.555 59.1013 204.349 59.1382C204.076 59.187 203.735 59.3586 203.442 59.6905C203.15 60.0224 203.023 60.3825 203.008 60.6592C202.998 60.8683 203.035 61.1985 203.429 61.6584L359.099 243.296C367.407 252.99 354.481 266.315 344.539 258.305L82.6847 47.3232C82.1781 46.915 81.8397 46.9028 81.6434 46.9236C81.3691 46.9528 81.0029 47.1054 80.6745 47.4391C80.3461 47.7728 80.1993 48.1413 80.1746 48.416Z" fill="#EEDA28"/>
<path d="M80.5907 49.4508L79.8221 50.0906V50.0906L80.5907 49.4508ZM80.1746 48.416L79.1786 48.3263L79.1786 48.3263L80.1746 48.416ZM299.02 311.879L298.252 312.519L299.02 311.879ZM284.439 326.833L285.059 326.049L284.439 326.833ZM63.0904 151.856L63.7106 151.071L63.7106 151.071L63.0904 151.856ZM62.0477 151.467L61.9346 150.473H61.9346L62.0477 151.467ZM61.0845 151.987L61.8016 152.684L61.8016 152.684L61.0845 151.987ZM60.5918 152.965L59.5954 152.88L59.5954 152.88L60.5918 152.965ZM61.0104 153.996L60.2439 154.638L60.2439 154.638L61.0104 153.996ZM175.528 290.674L174.761 291.316L175.528 290.674ZM161.403 305.981L161.982 305.165L161.403 305.981ZM55.5621 230.881L56.1408 230.066L56.1408 230.066L55.5621 230.881ZM54.5602 230.561L54.6779 231.554H54.6779L54.5602 230.561ZM53.648 231.03L52.9505 230.313L52.9505 230.313L53.648 231.03ZM53.1547 231.929L52.1652 231.785L52.1652 231.785L53.1547 231.929ZM53.4477 232.939L54.2787 232.383L54.2787 232.383L53.4477 232.939ZM109.585 316.783L108.754 317.339L109.585 316.783ZM96.79 332.304L97.1776 331.382H97.1776L96.79 332.304ZM72.122 321.931L72.5096 321.009L72.3985 320.962L72.2795 320.943L72.122 321.931ZM75.3123 313.509L74.8867 314.414L74.9055 314.423L74.9246 314.431L75.3123 313.509ZM100.279 324.007L100.666 323.086L100.666 323.085L100.279 324.007ZM101.242 324.106L101.512 325.069L101.512 325.069L101.242 324.106ZM102.387 322.717L103.384 322.799V322.799L102.387 322.717ZM102.106 321.79L102.937 321.234L102.106 321.79ZM45.9692 237.947L45.1383 238.503H45.1383L45.9692 237.947ZM60.7702 223.541L60.1915 224.357L60.7702 223.541ZM166.612 298.641L166.033 299.456L166.612 298.641ZM167.654 298.97L167.803 299.959H167.803L167.654 298.97ZM169.041 297.466L170.039 297.536L169.041 297.466ZM168.629 296.454L169.396 295.812L169.396 295.812L168.629 296.454ZM54.1118 159.776L53.3453 160.418L54.1118 159.776ZM68.6717 144.796L69.2919 144.011L68.6717 144.796ZM290.02 319.773L290.64 318.988L290.64 318.988L290.02 319.773ZM291.062 320.161L290.949 319.168H290.949L291.062 320.161ZM292.518 318.668L293.514 318.755L293.514 318.755L292.518 318.668ZM292.103 317.636L292.872 316.997L292.103 317.636ZM73.6733 55.2084L72.9047 55.8482L73.6733 55.2084ZM88.3314 40.315L88.9588 39.5363V39.5363L88.3314 40.315ZM350.185 251.297L349.558 252.075V252.075L350.185 251.297ZM351.232 251.698L351.122 250.704H351.122L351.232 251.698ZM352.203 251.173L352.921 251.869V251.869L352.203 251.173ZM352.698 250.186L353.695 250.266V250.266L352.698 250.186ZM352.265 249.152L351.506 249.803V249.803L352.265 249.152ZM196.595 67.5151L197.354 66.8644L196.595 67.5151ZM210.344 51.9141L209.794 52.7492L210.344 51.9141ZM365.997 154.461L366.547 153.626L365.997 154.461ZM367.037 154.752L367.211 155.737H367.211L367.037 154.752ZM368.38 153.242L367.382 153.185V153.185L368.38 153.242ZM367.97 152.243L368.735 151.599V151.599L367.97 152.243ZM298.184 69.328L297.419 69.972L298.184 69.328ZM309.246 52.5132L309.535 51.5557L309.246 52.5132ZM367.313 70.0087L367.024 70.9662L367.138 71.0005L367.257 71.0071L367.313 70.0087ZM366.637 78.9884L366.702 77.9904L365.909 77.9393L365.68 78.6998L366.637 78.9884ZM366.577 79.1867L366.289 80.1442L367.246 80.4327L367.535 79.4753L366.577 79.1867ZM306.65 61.1305L306.938 60.173L306.938 60.173L306.65 61.1305ZM305.679 61.1342L306.05 62.0629L306.05 62.0628L305.679 61.1342ZM304.964 61.7423L304.129 61.1926L304.128 61.1927L304.964 61.7423ZM304.689 62.64L303.689 62.6669V62.667L304.689 62.64ZM305.069 63.5326L304.304 64.1765V64.1766L305.069 63.5326ZM374.855 146.447L375.62 145.803L374.855 146.447ZM361.045 161.977L361.596 161.142L361.045 161.977ZM205.393 59.4296L204.843 60.2647V60.2647L205.393 59.4296ZM204.349 59.1382L204.525 60.1225L204.525 60.1225L204.349 59.1382ZM203.442 59.6905L202.692 59.0293V59.0293L203.442 59.6905ZM203.008 60.6592L204.007 60.7105V60.7104L203.008 60.6592ZM203.429 61.6584L204.188 61.0077V61.0076L203.429 61.6584ZM359.099 243.296L358.34 243.946L359.099 243.296ZM344.539 258.305L345.166 257.526L344.539 258.305ZM82.6847 47.3232L83.3121 46.5445L82.6847 47.3232ZM81.6434 46.9236L81.5378 45.9292L81.5378 45.9292L81.6434 46.9236ZM80.6745 47.4391L81.3872 48.1405L81.3872 48.1405L80.6745 47.4391ZM81.3593 48.8111C81.2178 48.6411 81.1815 48.544 81.1735 48.5184C81.1693 48.5053 81.1697 48.5019 81.1701 48.5064C81.1704 48.5107 81.1699 48.5127 81.1705 48.5058L79.1786 48.3263C79.161 48.522 79.163 48.7938 79.2663 49.1208C79.3667 49.4385 79.5473 49.7604 79.8221 50.0906L81.3593 48.8111ZM299.789 311.239L81.3593 48.8111L79.8221 50.0906L298.252 312.519L299.789 311.239ZM283.819 327.618C294.659 336.187 308.629 321.859 299.789 311.239L298.252 312.519C305.554 321.292 294.014 333.128 285.059 326.049L283.819 327.618ZM62.4703 152.64L283.819 327.618L285.059 326.049L63.7106 151.071L62.4703 152.64ZM62.1607 152.46C62.1677 152.46 62.166 152.46 62.162 152.46C62.1579 152.46 62.1614 152.459 62.1747 152.463C62.2006 152.471 62.2982 152.504 62.4703 152.64L63.7106 151.071C62.9999 150.51 62.3995 150.42 61.9346 150.473L62.1607 152.46ZM61.8016 152.684C61.9799 152.501 62.1357 152.463 62.1607 152.46L61.9346 150.473C61.4112 150.533 60.8391 150.805 60.3674 151.29L61.8016 152.684ZM61.5882 153.05C61.5903 153.024 61.6234 152.868 61.8016 152.684L60.3675 151.29C59.8958 151.776 59.64 152.355 59.5954 152.88L61.5882 153.05ZM61.7769 153.354C61.636 153.186 61.5995 153.089 61.5913 153.063C61.587 153.05 61.5873 153.047 61.5877 153.051C61.5881 153.055 61.5876 153.056 61.5882 153.049L59.5954 152.88C59.5557 153.346 59.6621 153.944 60.2439 154.638L61.7769 153.354ZM176.294 290.032L61.7769 153.354L60.2439 154.638L174.761 291.316L176.294 290.032ZM160.825 306.796C171.822 314.599 184.955 300.368 176.294 290.032L174.761 291.316C181.915 299.854 171.067 311.611 161.982 305.165L160.825 306.796ZM54.9835 231.697L160.825 306.796L161.982 305.165L56.1408 230.066L54.9835 231.697ZM54.6779 231.554C54.6886 231.553 54.6974 231.552 54.722 231.558C54.7519 231.566 54.8377 231.594 54.9835 231.697L56.1408 230.066C55.4813 229.598 54.9085 229.513 54.4426 229.568L54.6779 231.554ZM54.3454 231.746C54.4989 231.597 54.6368 231.559 54.6779 231.554L54.4426 229.568C53.9334 229.628 53.3959 229.88 52.9505 230.313L54.3454 231.746ZM54.1442 232.074C54.1502 232.033 54.192 231.896 54.3454 231.746L52.9505 230.313C52.5052 230.747 52.2393 231.277 52.1652 231.785L54.1442 232.074ZM54.2787 232.383C54.1792 232.234 54.1537 232.148 54.1468 232.118C54.1412 232.093 54.1426 232.084 54.1442 232.074L52.1652 231.785C52.0974 232.249 52.1669 232.824 52.6168 233.496L54.2787 232.383ZM110.416 316.227L54.2787 232.383L52.6168 233.496L108.754 317.339L110.416 316.227ZM96.4023 333.225C106.92 337.648 116.764 325.707 110.416 316.227L108.754 317.339C113.998 325.171 105.866 335.035 97.1776 331.382L96.4023 333.225ZM71.7344 322.853L96.4023 333.225L97.1776 331.382L72.5096 321.009L71.7344 322.853ZM67.0001 317.5C67.0001 320.29 69.2229 322.481 71.9646 322.918L72.2795 320.943C70.3357 320.633 69.0001 319.142 69.0001 317.5H67.0001ZM73.0001 312C69.7881 312 67.0001 314.366 67.0001 317.5H69.0001C69.0001 315.664 70.6892 314 73.0001 314V312ZM75.7378 312.604C74.9135 312.216 73.9817 312 73.0001 312V314C73.6869 314 74.3281 314.151 74.8867 314.414L75.7378 312.604ZM100.666 323.085L75.6999 312.587L74.9246 314.431L99.8909 324.929L100.666 323.085ZM100.973 323.143C100.952 323.149 100.932 323.152 100.9 323.15C100.865 323.148 100.79 323.138 100.666 323.086L99.8909 324.929C100.532 325.199 101.07 325.193 101.512 325.069L100.973 323.143ZM101.246 322.943C101.138 323.073 101.027 323.128 100.972 323.143L101.512 325.069C101.982 324.937 102.436 324.643 102.789 324.215L101.246 322.943ZM101.39 322.636C101.386 322.692 101.354 322.812 101.246 322.943L102.789 324.215C103.142 323.787 103.344 323.285 103.384 322.799L101.39 322.636ZM101.275 322.346C101.35 322.458 101.375 322.53 101.384 322.563C101.392 322.594 101.392 322.615 101.39 322.636L103.384 322.799C103.421 322.341 103.324 321.811 102.937 321.234L101.275 322.346ZM45.1383 238.503L101.275 322.346L102.937 321.234L46.8002 237.39L45.1383 238.503ZM61.3489 222.726C50.9333 215.336 38.0332 227.891 45.1383 238.503L46.8002 237.39C40.9307 228.624 51.5875 218.252 60.1915 224.357L61.3489 222.726ZM167.19 297.825L61.3489 222.726L60.1915 224.357L166.033 299.456L167.19 297.825ZM167.505 297.981C167.5 297.982 167.499 297.984 167.48 297.979C167.452 297.972 167.358 297.944 167.19 297.825L166.033 299.456C166.745 299.961 167.339 300.029 167.803 299.959L167.505 297.981ZM167.847 297.756C167.683 297.934 167.535 297.977 167.504 297.981L167.803 299.959C168.32 299.881 168.871 299.596 169.317 299.113L167.847 297.756ZM168.044 297.397C168.042 297.428 168.011 297.579 167.847 297.756L169.317 299.113C169.763 298.629 170.003 298.057 170.039 297.536L168.044 297.397ZM167.863 297.096C167.995 297.253 168.031 297.345 168.039 297.372C168.046 297.392 168.044 297.392 168.044 297.397L170.039 297.536C170.071 297.067 169.956 296.481 169.396 295.812L167.863 297.096ZM53.3453 160.418L167.863 297.096L169.396 295.812L54.8784 159.134L53.3453 160.418ZM69.2919 144.011C58.4342 135.428 44.4561 149.809 53.3453 160.418L54.8784 159.134C47.5353 150.37 59.082 138.49 68.0516 145.58L69.2919 144.011ZM290.64 318.988L69.2919 144.011L68.0516 145.58L289.4 320.557L290.64 318.988ZM290.949 319.168C290.942 319.169 290.944 319.168 290.948 319.168C290.952 319.169 290.948 319.169 290.935 319.165C290.909 319.158 290.812 319.124 290.64 318.988L289.4 320.557C290.109 321.118 290.709 321.208 291.174 321.155L290.949 319.168ZM291.308 318.945C291.13 319.128 290.975 319.165 290.949 319.168L291.174 321.155C291.697 321.096 292.268 320.825 292.74 320.341L291.308 318.945ZM291.522 318.581C291.519 318.606 291.486 318.763 291.308 318.945L292.74 320.341C293.212 319.858 293.468 319.279 293.514 318.755L291.522 318.581ZM291.334 318.276C291.474 318.444 291.51 318.54 291.519 318.566C291.523 318.579 291.523 318.583 291.522 318.579C291.522 318.575 291.522 318.574 291.522 318.581L293.514 318.755C293.555 318.289 293.45 317.691 292.872 316.997L291.334 318.276ZM72.9047 55.8482L291.334 318.276L292.872 316.997L74.4419 54.5687L72.9047 55.8482ZM88.9588 39.5363C78.1487 30.8264 64.0231 45.1775 72.9047 55.8482L74.4419 54.5687C67.1051 45.7541 78.7737 33.8983 87.704 41.0937L88.9588 39.5363ZM350.813 250.518L88.9588 39.5363L87.704 41.0937L349.558 252.075L350.813 250.518ZM351.122 250.704C351.115 250.705 351.118 250.704 351.123 250.705C351.128 250.705 351.125 250.705 351.112 250.702C351.087 250.694 350.988 250.659 350.813 250.518L349.558 252.075C349.896 252.347 350.223 252.524 350.544 252.619C350.875 252.717 351.148 252.713 351.342 252.692L351.122 250.704ZM351.485 250.477C351.303 250.665 351.145 250.702 351.122 250.704L351.342 252.692C351.867 252.634 352.444 252.36 352.921 251.869L351.485 250.477ZM351.702 250.107C351.7 250.129 351.668 250.289 351.485 250.477L352.921 251.869C353.397 251.378 353.653 250.793 353.695 250.266L351.702 250.107ZM351.506 249.803C351.653 249.974 351.691 250.072 351.699 250.097C351.703 250.11 351.703 250.113 351.702 250.108C351.702 250.103 351.702 250.1 351.702 250.107L353.695 250.266C353.711 250.071 353.706 249.799 353.598 249.471C353.493 249.153 353.307 248.831 353.025 248.502L351.506 249.803ZM195.836 68.1659L351.506 249.803L353.025 248.502L197.354 66.8644L195.836 68.1659ZM210.895 51.079C199.766 43.7473 187.164 58.0476 195.836 68.1659L197.354 66.8644C190.191 58.5057 200.601 46.6926 209.794 52.7492L210.895 51.079ZM366.547 153.626L210.895 51.079L209.794 52.7492L365.447 155.296L366.547 153.626ZM366.864 153.767C366.857 153.768 366.854 153.77 366.833 153.766C366.804 153.76 366.711 153.735 366.547 153.626L365.447 155.296C366.159 155.766 366.749 155.818 367.211 155.737L366.864 153.767ZM367.196 153.541C367.041 153.715 366.898 153.761 366.864 153.767L367.211 155.737C367.723 155.647 368.26 155.353 368.69 154.87L367.196 153.541ZM367.382 153.185C367.38 153.219 367.35 153.367 367.196 153.541L368.69 154.87C369.12 154.387 369.348 153.819 369.378 153.3L367.382 153.185ZM367.205 152.887C367.331 153.037 367.367 153.127 367.376 153.154C367.383 153.175 367.382 153.178 367.382 153.185L369.378 153.3C369.405 152.831 369.284 152.251 368.735 151.599L367.205 152.887ZM297.419 69.972L367.205 152.887L368.735 151.599L298.949 68.6841L297.419 69.972ZM309.535 51.5557C298.586 48.2569 290.055 61.2235 297.419 69.972L298.949 68.6841C292.866 61.4571 299.913 50.7455 308.958 53.4706L309.535 51.5557ZM367.601 69.0512L309.535 51.5557L308.958 53.4706L367.024 70.9662L367.601 69.0512ZM367.257 71.0071C369.44 71.1284 371 72.7317 371 74.5H373C373 71.4869 370.417 69.1796 367.368 69.0102L367.257 71.0071ZM371 74.5C371 76.3365 369.311 78 367 78V80C370.212 80 373 77.6341 373 74.5H371ZM367 78C366.9 78 366.8 77.9968 366.702 77.9904L366.573 79.9863C366.714 79.9954 366.857 80 367 80V78ZM367.535 79.4753L367.595 79.2769L365.68 78.6998L365.62 78.8982L367.535 79.4753ZM306.361 62.088L366.289 80.1442L366.866 78.2293L306.938 60.173L306.361 62.088ZM306.05 62.0628C306.07 62.0551 306.089 62.0494 306.121 62.048C306.156 62.0465 306.232 62.0489 306.361 62.088L306.938 60.173C306.271 59.972 305.735 60.035 305.308 60.2055L306.05 62.0628ZM305.799 62.2919C305.893 62.1497 305.998 62.0838 306.05 62.0629L305.308 60.2055C304.855 60.3866 304.434 60.7282 304.129 61.1926L305.799 62.2919ZM305.688 62.6131C305.687 62.5566 305.706 62.4341 305.799 62.2919L304.128 61.1927C303.823 61.6572 303.676 62.1789 303.689 62.6669L305.688 62.6131ZM305.835 62.8887C305.747 62.785 305.715 62.7164 305.703 62.6842C305.691 62.6541 305.689 62.6338 305.688 62.613L303.689 62.667C303.701 63.1266 303.856 63.6434 304.304 64.1765L305.835 62.8887ZM375.62 145.803L305.835 62.8887L304.304 64.1766L374.09 147.091L375.62 145.803ZM360.495 162.812C371.573 170.11 384.163 155.953 375.62 145.803L374.09 147.091C381.147 155.476 370.747 167.171 361.596 161.142L360.495 162.812ZM204.843 60.2647L360.495 162.812L361.596 161.142L205.943 58.5946L204.843 60.2647ZM204.525 60.1225C204.531 60.1215 204.534 60.1197 204.555 60.1241C204.583 60.13 204.676 60.1551 204.843 60.2647L205.943 58.5946C205.226 58.1224 204.635 58.0711 204.173 58.1539L204.525 60.1225ZM204.193 60.3516C204.348 60.1754 204.492 60.1284 204.525 60.1225L204.173 58.1539C203.66 58.2457 203.122 58.5418 202.692 59.0293L204.193 60.3516ZM204.007 60.7104C204.009 60.677 204.037 60.5279 204.193 60.3516L202.692 59.0293C202.263 59.5168 202.036 60.088 202.01 60.608L204.007 60.7104ZM204.188 61.0076C204.059 60.8564 204.022 60.7668 204.012 60.7394C204.005 60.7191 204.007 60.7165 204.007 60.7105L202.01 60.608C201.986 61.0768 202.111 61.6575 202.67 62.3092L204.188 61.0076ZM359.858 242.645L204.188 61.0077L202.67 62.3091L358.34 243.946L359.858 242.645ZM343.911 259.083C354.801 267.857 368.958 253.262 359.858 242.645L358.34 243.946C365.857 252.718 354.161 264.774 345.166 257.526L343.911 259.083ZM82.0573 48.1019L343.911 259.083L345.166 257.526L83.3121 46.5445L82.0573 48.1019ZM81.749 47.9181C81.7559 47.9173 81.7539 47.9178 81.7496 47.9176C81.7452 47.9172 81.7485 47.9168 81.7617 47.9208C81.7874 47.9284 81.8851 47.9632 82.0573 48.1019L83.3121 46.5445C82.9777 46.275 82.6529 46.0996 82.3337 46.0043C82.005 45.9062 81.7332 45.9085 81.5378 45.9292L81.749 47.9181ZM81.3872 48.1405C81.5678 47.957 81.7247 47.9206 81.749 47.9181L81.5378 45.9292C81.0135 45.9849 80.438 46.2537 79.9618 46.7376L81.3872 48.1405ZM81.1705 48.5058C81.1727 48.4814 81.2066 48.324 81.3872 48.1405L79.9618 46.7376C79.4855 47.2215 79.2259 47.8012 79.1786 48.3263L81.1705 48.5058Z" fill="#E3B100" mask="url(#path-2-inside-1)"/>
</svg>
