<svg width="558" height="575" viewBox="0 0 558 575" fill="none" xmlns="http://www.w3.org/2000/svg">
<path d="M75.198 100.098L141.885 147.862L127.943 168.023L58.0651 118.351L75.198 100.098Z" fill="#552525"/>
<path d="M58.3552 118.204L127.894 167.825L124.628 190L59.3703 142.576L58.3552 118.204Z" fill="#360E0E"/>
<path d="M124.773 165.334L141.598 147.862L141.885 170.766L124.773 189.266V165.334Z" fill="#F3BE8D"/>
<path d="M138.55 156.231L129.414 165.481" stroke="#74400F" stroke-width="2"/>
<path d="M138.55 156.231L129.414 165.481" stroke="#74400F" stroke-width="2"/>
<path d="M138.55 156.231L129.414 165.481" stroke="#74400F" stroke-width="2"/>
<path d="M138.55 160.782L129.414 170.032" stroke="#74400F" stroke-width="2"/>
<path d="M138.55 160.782L129.414 170.032" stroke="#74400F" stroke-width="2"/>
<path d="M138.55 160.782L129.414 170.032" stroke="#74400F" stroke-width="2"/>
<path d="M138.55 165.334L129.414 174.584" stroke="#74400F" stroke-width="2"/>
<path d="M138.55 165.334L129.414 174.584" stroke="#74400F" stroke-width="2"/>
<path d="M138.55 165.334L129.414 174.584" stroke="#74400F" stroke-width="2"/>
<path d="M141.595 147.862L141.885 170.472L124.338 189.853" stroke="#2E0D0D" stroke-opacity="0.75" stroke-width="2"/>
<path d="M348.198 307.098L414.885 354.862L400.943 375.023L331.065 325.351L348.198 307.098Z" fill="#552525"/>
<path d="M331.355 325.204L400.894 374.825L397.628 397L332.37 349.576L331.355 325.204Z" fill="#360E0E"/>
<path d="M397.773 372.334L414.598 354.862L414.885 377.766L397.773 396.266V372.334Z" fill="#F3BE8D"/>
<path d="M411.55 363.231L402.414 372.481" stroke="#74400F" stroke-width="2"/>
<path d="M411.55 363.231L402.414 372.481" stroke="#74400F" stroke-width="2"/>
<path d="M411.55 363.231L402.414 372.481" stroke="#74400F" stroke-width="2"/>
<path d="M411.55 367.782L402.414 377.032" stroke="#74400F" stroke-width="2"/>
<path d="M411.55 367.782L402.414 377.032" stroke="#74400F" stroke-width="2"/>
<path d="M411.55 367.782L402.414 377.032" stroke="#74400F" stroke-width="2"/>
<path d="M411.55 372.334L402.414 381.584" stroke="#74400F" stroke-width="2"/>
<path d="M411.55 372.334L402.414 381.584" stroke="#74400F" stroke-width="2"/>
<path d="M411.55 372.334L402.414 381.584" stroke="#74400F" stroke-width="2"/>
<path d="M414.595 354.862L414.885 377.472L397.338 396.853" stroke="#2E0D0D" stroke-opacity="0.75" stroke-width="2"/>
<path d="M162.544 58.2294L235.071 83.5893L228.441 105.832L152.551 79.6032L162.544 58.2294Z" fill="#552525"/>
<path d="M152.766 79.3893L228.342 105.664L231.73 126.821L160.564 101.38L152.766 79.3893Z" fill="#360E0E"/>
<path d="M224.876 104.244L234.817 83.6679L241.555 104.516L231.65 126.11L224.876 104.244Z" fill="#F3BE8D"/>
<path d="M234.489 92.1501L229.023 103.106" stroke="#74400F" stroke-width="2"/>
<path d="M234.489 92.1501L229.023 103.106" stroke="#74400F" stroke-width="2"/>
<path d="M234.489 92.1501L229.023 103.106" stroke="#74400F" stroke-width="2"/>
<path d="M235.777 96.3085L230.312 107.264" stroke="#74400F" stroke-width="2"/>
<path d="M235.777 96.3085L230.312 107.264" stroke="#74400F" stroke-width="2"/>
<path d="M235.777 96.3085L230.312 107.264" stroke="#74400F" stroke-width="2"/>
<path d="M237.066 100.467L231.6 111.423" stroke="#74400F" stroke-width="2"/>
<path d="M237.066 100.467L231.6 111.423" stroke="#74400F" stroke-width="2"/>
<path d="M237.066 100.467L231.6 111.423" stroke="#74400F" stroke-width="2"/>
<path d="M234.815 83.6687L241.472 104.248L231.431 126.766" stroke="#2E0D0D" stroke-opacity="0.75" stroke-width="2"/>
<path d="M453.12 247.007L514.894 292.694L501.979 311.979L437.25 264.466L453.12 247.007Z" fill="#552525"/>
<path d="M437.518 264.325L501.933 311.789L498.908 333L438.459 287.638L437.518 264.325Z" fill="#360E0E"/>
<path d="M499.043 309.406L514.627 292.694L514.894 314.602L499.043 332.298V309.406Z" fill="#F3BE8D"/>
<path d="M511.804 300.699L503.341 309.547" stroke="#74400F" stroke-width="2"/>
<path d="M511.804 300.699L503.341 309.547" stroke="#74400F" stroke-width="2"/>
<path d="M511.804 300.699L503.341 309.547" stroke="#74400F" stroke-width="2"/>
<path d="M511.804 305.052L503.341 313.9" stroke="#74400F" stroke-width="2"/>
<path d="M511.804 305.052L503.341 313.9" stroke="#74400F" stroke-width="2"/>
<path d="M511.804 305.052L503.341 313.9" stroke="#74400F" stroke-width="2"/>
<path d="M511.804 309.406L503.341 318.254" stroke="#74400F" stroke-width="2"/>
<path d="M511.804 309.406L503.341 318.254" stroke="#74400F" stroke-width="2"/>
<path d="M511.804 309.406L503.341 318.254" stroke="#74400F" stroke-width="2"/>
<path d="M514.625 292.694L514.894 314.321L498.64 332.859" stroke="#2E0D0D" stroke-opacity="0.75" stroke-width="2"/>
<path d="M314.12 443.007L375.894 488.694L362.979 507.979L298.25 460.466L314.12 443.007Z" fill="#552525"/>
<path d="M298.518 460.325L362.933 507.789L359.908 529L299.459 483.638L298.518 460.325Z" fill="#360E0E"/>
<path d="M360.043 505.406L375.627 488.694L375.894 510.602L360.043 528.298V505.406Z" fill="#F3BE8D"/>
<path d="M372.804 496.699L364.341 505.547" stroke="#74400F" stroke-width="2"/>
<path d="M372.804 496.699L364.341 505.547" stroke="#74400F" stroke-width="2"/>
<path d="M372.804 496.699L364.341 505.547" stroke="#74400F" stroke-width="2"/>
<path d="M372.804 501.052L364.341 509.9" stroke="#74400F" stroke-width="2"/>
<path d="M372.804 501.052L364.341 509.9" stroke="#74400F" stroke-width="2"/>
<path d="M372.804 501.052L364.341 509.9" stroke="#74400F" stroke-width="2"/>
<path d="M372.804 505.406L364.341 514.254" stroke="#74400F" stroke-width="2"/>
<path d="M372.804 505.406L364.341 514.254" stroke="#74400F" stroke-width="2"/>
<path d="M372.804 505.406L364.341 514.254" stroke="#74400F" stroke-width="2"/>
<path d="M375.625 488.694L375.894 510.321L359.64 528.859" stroke="#2E0D0D" stroke-opacity="0.75" stroke-width="2"/>
<path d="M193.601 350.937L270.399 353.239L270.788 376.446L190.521 374.329L193.601 350.937Z" fill="#552525"/>
<path d="M190.661 374.061L270.642 376.316L280.253 395.465L204.728 392.675L190.661 374.061Z" fill="#360E0E"/>
<path d="M266.909 376.007L270.181 353.391L282.893 371.236L279.963 394.811L266.909 376.007Z" fill="#F3BE8D"/>
<path d="M272.426 361.577L270.52 373.671" stroke="#74400F" stroke-width="2"/>
<path d="M272.426 361.577L270.52 373.671" stroke="#74400F" stroke-width="2"/>
<path d="M272.426 361.577L270.52 373.671" stroke="#74400F" stroke-width="2"/>
<path d="M274.909 365.153L273.003 377.247" stroke="#74400F" stroke-width="2"/>
<path d="M274.909 365.153L273.003 377.247" stroke="#74400F" stroke-width="2"/>
<path d="M274.909 365.153L273.003 377.247" stroke="#74400F" stroke-width="2"/>
<path d="M277.392 368.729L275.485 380.824" stroke="#74400F" stroke-width="2"/>
<path d="M277.392 368.729L275.485 380.824" stroke="#74400F" stroke-width="2"/>
<path d="M277.392 368.729L275.485 380.824" stroke="#74400F" stroke-width="2"/>
<path d="M270.179 353.392L282.733 371.005L279.953 395.503" stroke="#2E0D0D" stroke-opacity="0.75" stroke-width="2"/>
<path d="M357.066 45.535L348.604 127.125L324.184 125L332.724 39.6922L357.066 45.535Z" fill="#552525"/>
<path d="M332.995 39.8716L324.332 124.859L303.45 133.006L312.325 52.8255L332.995 39.8716Z" fill="#360E0E"/>
<path d="M324.95 120.914L348.462 126.876L328.707 138.47L304.16 132.768L324.95 120.914Z" fill="#F3BE8D"/>
<path d="M339.682 128.373L327.121 125.018" stroke="#74400F" stroke-width="2"/>
<path d="M339.682 128.373L327.121 125.018" stroke="#74400F" stroke-width="2"/>
<path d="M339.682 128.373L327.121 125.018" stroke="#74400F" stroke-width="2"/>
<path d="M335.728 130.628L323.167 127.272" stroke="#74400F" stroke-width="2"/>
<path d="M335.728 130.628L323.167 127.272" stroke="#74400F" stroke-width="2"/>
<path d="M335.728 130.628L323.167 127.272" stroke="#74400F" stroke-width="2"/>
<path d="M331.774 132.882L319.213 129.527" stroke="#74400F" stroke-width="2"/>
<path d="M331.774 132.882L319.213 129.527" stroke="#74400F" stroke-width="2"/>
<path d="M331.774 132.882L319.213 129.527" stroke="#74400F" stroke-width="2"/>
<path d="M348.46 126.874L328.962 138.325L303.434 132.681" stroke="#2E0D0D" stroke-opacity="0.75" stroke-width="2"/>
<path d="M515.338 405.86L461.991 468.171L443.109 452.539L498.633 387.214L515.338 405.86Z" fill="#552525"/>
<path d="M498.755 387.516L443.311 452.508L421.501 447.338L474.385 386.421L498.755 387.516Z" fill="#360E0E"/>
<path d="M446.062 449.614L462.015 467.885L439.172 466.193L422.22 447.546L446.062 449.614Z" fill="#F3BE8D"/>
<path d="M453.941 464.125L445.515 454.224" stroke="#74400F" stroke-width="2"/>
<path d="M453.941 464.125L445.515 454.224" stroke="#74400F" stroke-width="2"/>
<path d="M453.941 464.125L445.515 454.224" stroke="#74400F" stroke-width="2"/>
<path d="M449.407 463.732L440.981 453.831" stroke="#74400F" stroke-width="2"/>
<path d="M449.407 463.732L440.981 453.831" stroke="#74400F" stroke-width="2"/>
<path d="M449.407 463.732L440.981 453.831" stroke="#74400F" stroke-width="2"/>
<path d="M444.872 463.339L436.446 453.438" stroke="#74400F" stroke-width="2"/>
<path d="M444.872 463.339L436.446 453.438" stroke="#74400F" stroke-width="2"/>
<path d="M444.872 463.339L436.446 453.438" stroke="#74400F" stroke-width="2"/>
<path d="M462.016 467.882L439.464 466.218L421.672 447.062" stroke="#2E0D0D" stroke-opacity="0.75" stroke-width="2"/>
<path d="M80.4752 252.169L99.1234 332.049L75.3477 338.015L55.5591 254.596L80.4752 252.169Z" fill="#552525"/>
<path d="M55.8742 254.677L75.4419 337.834L58.366 352.353L40.5681 273.671L55.8742 254.677Z" fill="#360E0E"/>
<path d="M74.738 333.903L98.9072 331.859L84.0222 349.27L58.9592 351.897L74.738 333.903Z" fill="#F3BE8D"/>
<path d="M91.0979 336.142L78.1302 337.073" stroke="#74400F" stroke-width="2"/>
<path d="M91.0979 336.142L78.1302 337.073" stroke="#74400F" stroke-width="2"/>
<path d="M91.0979 336.142L78.1302 337.073" stroke="#74400F" stroke-width="2"/>
<path d="M88.097 339.564L75.1294 340.495" stroke="#74400F" stroke-width="2"/>
<path d="M88.097 339.564L75.1294 340.495" stroke="#74400F" stroke-width="2"/>
<path d="M88.097 339.564L75.1294 340.495" stroke="#74400F" stroke-width="2"/>
<path d="M85.0962 342.986L72.1285 343.917" stroke="#74400F" stroke-width="2"/>
<path d="M85.0962 342.986L72.1285 343.917" stroke="#74400F" stroke-width="2"/>
<path d="M85.0962 342.986L72.1285 343.917" stroke="#74400F" stroke-width="2"/>
<path d="M98.9054 331.858L84.2159 349.049L58.2449 352.051" stroke="#2E0D0D" stroke-opacity="0.75" stroke-width="2"/>
<path d="M393.134 181.784L364.195 258.538L341.119 250.27L371.078 169.942L393.134 181.784Z" fill="#552525"/>
<path d="M371.295 170.184L341.298 250.172L319.031 252.739L348.01 177.454L371.295 170.184Z" fill="#360E0E"/>
<path d="M342.9 246.514L364.121 258.26L342.067 264.448L319.778 252.689L342.9 246.514Z" fill="#F3BE8D"/>
<path d="M355.249 257.475L343.955 251.036" stroke="#74400F" stroke-width="2"/>
<path d="M355.249 257.475L343.955 251.036" stroke="#74400F" stroke-width="2"/>
<path d="M355.249 257.475L343.955 251.036" stroke="#74400F" stroke-width="2"/>
<path d="M350.852 258.65L339.558 252.21" stroke="#74400F" stroke-width="2"/>
<path d="M350.852 258.65L339.558 252.21" stroke="#74400F" stroke-width="2"/>
<path d="M350.852 258.65L339.558 252.21" stroke="#74400F" stroke-width="2"/>
<path d="M346.455 259.824L335.161 253.384" stroke="#74400F" stroke-width="2"/>
<path d="M346.455 259.824L335.161 253.384" stroke="#74400F" stroke-width="2"/>
<path d="M346.455 259.824L335.161 253.384" stroke="#74400F" stroke-width="2"/>
<path d="M364.121 258.258L342.35 264.373L319.098 252.421" stroke="#2E0D0D" stroke-opacity="0.75" stroke-width="2"/>
<path d="M505.134 110.784L476.195 187.538L453.119 179.27L483.078 98.9416L505.134 110.784Z" fill="#552525"/>
<path d="M483.295 99.1839L453.298 179.172L431.031 181.739L460.01 106.454L483.295 99.1839Z" fill="#360E0E"/>
<path d="M454.9 175.514L476.121 187.26L454.067 193.448L431.778 181.689L454.9 175.514Z" fill="#F3BE8D"/>
<path d="M467.249 186.475L455.955 180.036" stroke="#74400F" stroke-width="2"/>
<path d="M467.249 186.475L455.955 180.036" stroke="#74400F" stroke-width="2"/>
<path d="M467.249 186.475L455.955 180.036" stroke="#74400F" stroke-width="2"/>
<path d="M462.852 187.65L451.558 181.21" stroke="#74400F" stroke-width="2"/>
<path d="M462.852 187.65L451.558 181.21" stroke="#74400F" stroke-width="2"/>
<path d="M462.852 187.65L451.558 181.21" stroke="#74400F" stroke-width="2"/>
<path d="M458.455 188.824L447.161 182.384" stroke="#74400F" stroke-width="2"/>
<path d="M458.455 188.824L447.161 182.384" stroke="#74400F" stroke-width="2"/>
<path d="M458.455 188.824L447.161 182.384" stroke="#74400F" stroke-width="2"/>
<path d="M476.121 187.258L454.35 193.373L431.098 181.421" stroke="#2E0D0D" stroke-opacity="0.75" stroke-width="2"/>
<path d="M192.534 433.715L238.602 501.586L218.55 515.685L170.148 444.921L192.534 433.715Z" fill="#552525"/>
<path d="M170.471 444.883L218.573 515.482L207.843 535.161L163 468.104L170.471 444.883Z" fill="#360E0E"/>
<path d="M216.505 512.066L238.332 501.486L230.685 523.078L208.233 534.523L216.505 512.066Z" fill="#F3BE8D"/>
<path d="M232.579 508.286L220.809 513.807" stroke="#74400F" stroke-width="2"/>
<path d="M232.579 508.286L220.809 513.807" stroke="#74400F" stroke-width="2"/>
<path d="M232.579 508.286L220.809 513.807" stroke="#74400F" stroke-width="2"/>
<path d="M231.006 512.557L219.236 518.078" stroke="#74400F" stroke-width="2"/>
<path d="M231.006 512.557L219.236 518.078" stroke="#74400F" stroke-width="2"/>
<path d="M231.006 512.557L219.236 518.078" stroke="#74400F" stroke-width="2"/>
<path d="M229.433 516.828L217.663 522.349" stroke="#74400F" stroke-width="2"/>
<path d="M229.433 516.828L217.663 522.349" stroke="#74400F" stroke-width="2"/>
<path d="M229.433 516.828L217.663 522.349" stroke="#74400F" stroke-width="2"/>
<path d="M238.33 501.485L230.787 522.802L207.622 534.923" stroke="#2E0D0D" stroke-opacity="0.75" stroke-width="2"/>
<path d="M252.134 185.784L223.195 262.538L200.119 254.27L230.078 173.942L252.134 185.784Z" fill="#552525"/>
<path d="M230.295 174.184L200.298 254.172L178.031 256.739L207.01 181.454L230.295 174.184Z" fill="#360E0E"/>
<path d="M201.9 250.514L223.121 262.26L201.067 268.448L178.778 256.689L201.9 250.514Z" fill="#F3BE8D"/>
<path d="M214.249 261.475L202.955 255.036" stroke="#74400F" stroke-width="2"/>
<path d="M214.249 261.475L202.955 255.036" stroke="#74400F" stroke-width="2"/>
<path d="M214.249 261.475L202.955 255.036" stroke="#74400F" stroke-width="2"/>
<path d="M209.852 262.65L198.558 256.21" stroke="#74400F" stroke-width="2"/>
<path d="M209.852 262.65L198.558 256.21" stroke="#74400F" stroke-width="2"/>
<path d="M209.852 262.65L198.558 256.21" stroke="#74400F" stroke-width="2"/>
<path d="M205.455 263.824L194.161 257.384" stroke="#74400F" stroke-width="2"/>
<path d="M205.455 263.824L194.161 257.384" stroke="#74400F" stroke-width="2"/>
<path d="M205.455 263.824L194.161 257.384" stroke="#74400F" stroke-width="2"/>
<path d="M223.121 262.258L201.35 268.373L178.098 256.421" stroke="#2E0D0D" stroke-opacity="0.75" stroke-width="2"/>
<path d="M153.134 376.784L124.195 453.538L101.119 445.27L131.078 364.942L153.134 376.784Z" fill="#552525"/>
<path d="M131.295 365.184L101.298 445.172L79.0311 447.739L108.01 372.454L131.295 365.184Z" fill="#360E0E"/>
<path d="M102.9 441.514L124.121 453.26L102.067 459.448L79.7779 447.689L102.9 441.514Z" fill="#F3BE8D"/>
<path d="M115.249 452.475L103.955 446.036" stroke="#74400F" stroke-width="2"/>
<path d="M115.249 452.475L103.955 446.036" stroke="#74400F" stroke-width="2"/>
<path d="M115.249 452.475L103.955 446.036" stroke="#74400F" stroke-width="2"/>
<path d="M110.852 453.65L99.5578 447.21" stroke="#74400F" stroke-width="2"/>
<path d="M110.852 453.65L99.5578 447.21" stroke="#74400F" stroke-width="2"/>
<path d="M110.852 453.65L99.5578 447.21" stroke="#74400F" stroke-width="2"/>
<path d="M106.455 454.824L95.1605 448.384" stroke="#74400F" stroke-width="2"/>
<path d="M106.455 454.824L95.1605 448.384" stroke="#74400F" stroke-width="2"/>
<path d="M106.455 454.824L95.1605 448.384" stroke="#74400F" stroke-width="2"/>
<path d="M124.121 453.258L102.35 459.373L79.0984 447.421" stroke="#2E0D0D" stroke-opacity="0.75" stroke-width="2"/>
</svg>
