<svg width="561" height="479" viewBox="0 0 561 479" fill="none" xmlns="http://www.w3.org/2000/svg">
<g filter="url(#filter0_d)">
<mask id="path-2-inside-1" fill="white">
<path fill-rule="evenodd" clip-rule="evenodd" d="M267.925 22.0398C281.722 20.6534 295.623 20.6534 309.42 22.0398L334.623 24.5725C430.319 34.189 503.173 114.731 503.173 210.908C503.173 309.378 426.915 391.029 328.674 397.746L317.889 398.483L317.175 398.532L316.46 398.484L262.702 394.829C186.528 389.65 124.904 330.839 116.173 254.991C114.798 243.044 114.793 230.945 116.149 219.002C124.871 142.137 187.06 82.0312 264.251 76.2939L276.028 75.4187C284.459 74.792 292.926 74.8087 301.355 75.4686L333.515 77.9865C394.519 82.7626 443.52 130.219 450.247 191.04C451.234 199.961 451.275 208.962 450.371 217.892L449.652 224.997C443.3 287.721 393.984 337.5 331.336 344.492C321.96 345.539 312.495 345.588 303.108 344.638L274.095 341.701C222.463 336.475 183.173 293.007 183.173 241.112C183.173 185.273 228.438 140.008 284.276 140.008H312.427C356.193 140.008 391.673 175.487 391.673 219.253V223.635C391.673 260.712 363.919 292.037 327.376 297.176C320.633 298.124 313.71 298.106 306.953 297.092L295.654 295.397C267.5 291.174 246.673 266.99 246.673 238.521V232.811C246.673 204.201 269.866 181.008 298.476 181.008H311.672C327.017 181.008 340.499 191.191 344.695 205.95C351.318 229.246 332.388 251.891 308.287 249.503L292.755 247.964C291.627 248.317 290.423 248.508 289.173 248.508C282.821 248.508 277.673 243.583 277.673 237.508C277.673 231.433 282.821 226.508 289.173 226.508C289.982 226.508 290.772 226.588 291.534 226.74L310.358 228.605C319.716 229.533 327.067 220.739 324.496 211.693C322.866 205.962 317.631 202.008 311.672 202.008H298.476C281.464 202.008 267.673 215.799 267.673 232.811V238.521C267.673 256.595 280.895 271.949 298.769 274.63L310.068 276.325C314.8 277.034 319.689 277.051 324.452 276.381C350.801 272.675 370.673 250.069 370.673 223.635V219.253C370.673 187.085 344.595 161.008 312.427 161.008H284.276C240.036 161.008 204.173 196.871 204.173 241.112C204.173 282.228 235.302 316.668 276.21 320.808L305.223 323.745C313.13 324.545 321.106 324.504 329.006 323.622C381.829 317.726 423.404 275.753 428.758 222.881L429.478 215.776C430.233 208.317 430.199 200.8 429.374 193.348C423.756 142.549 382.829 102.912 331.876 98.9224L299.716 96.4046C292.351 95.8279 284.952 95.8133 277.584 96.3609L265.808 97.2362C198.726 102.222 144.604 154.485 137.015 221.37C135.839 231.734 135.843 242.232 137.036 252.589C144.608 318.376 198.058 369.385 264.126 373.877L317.171 377.483L327.241 376.795C414.466 370.831 482.173 298.336 482.173 210.908C482.173 125.515 417.488 54.0054 332.524 45.4673L307.32 42.9346C294.92 41.6885 282.426 41.6885 270.025 42.9346L239.704 45.9816C154.143 54.5796 85.5518 120.564 73.6472 205.728L72.7958 211.819C70.4562 228.556 70.4024 245.534 72.636 262.286L73.0618 265.479C85.0867 355.666 160.586 423.919 251.524 426.813C265.353 427.254 279.188 426.15 292.772 423.522L372.229 408.15C413.288 400.207 450.486 378.695 477.848 347.069L506.856 313.54C507.826 308.404 512.524 304.508 518.173 304.508C524.524 304.508 529.673 309.433 529.673 315.508C529.673 318.785 528.175 321.727 525.798 323.742L493.729 360.809C463.286 395.996 421.9 419.931 376.218 428.768L296.76 444.139C281.643 447.064 266.246 448.293 250.856 447.803C149.651 444.581 65.6284 368.623 52.246 268.255L51.8202 265.061C49.3351 246.423 49.3949 227.534 51.998 208.911L52.8494 202.821C66.0945 108.067 142.409 34.653 237.604 25.0868L267.925 22.0398Z"/>
</mask>
<path fill-rule="evenodd" clip-rule="evenodd" d="M267.925 22.0398C281.722 20.6534 295.623 20.6534 309.42 22.0398L334.623 24.5725C430.319 34.189 503.173 114.731 503.173 210.908C503.173 309.378 426.915 391.029 328.674 397.746L317.889 398.483L317.175 398.532L316.46 398.484L262.702 394.829C186.528 389.65 124.904 330.839 116.173 254.991C114.798 243.044 114.793 230.945 116.149 219.002C124.871 142.137 187.06 82.0312 264.251 76.2939L276.028 75.4187C284.459 74.792 292.926 74.8087 301.355 75.4686L333.515 77.9865C394.519 82.7626 443.52 130.219 450.247 191.04C451.234 199.961 451.275 208.962 450.371 217.892L449.652 224.997C443.3 287.721 393.984 337.5 331.336 344.492C321.96 345.539 312.495 345.588 303.108 344.638L274.095 341.701C222.463 336.475 183.173 293.007 183.173 241.112C183.173 185.273 228.438 140.008 284.276 140.008H312.427C356.193 140.008 391.673 175.487 391.673 219.253V223.635C391.673 260.712 363.919 292.037 327.376 297.176C320.633 298.124 313.71 298.106 306.953 297.092L295.654 295.397C267.5 291.174 246.673 266.99 246.673 238.521V232.811C246.673 204.201 269.866 181.008 298.476 181.008H311.672C327.017 181.008 340.499 191.191 344.695 205.95C351.318 229.246 332.388 251.891 308.287 249.503L292.755 247.964C291.627 248.317 290.423 248.508 289.173 248.508C282.821 248.508 277.673 243.583 277.673 237.508C277.673 231.433 282.821 226.508 289.173 226.508C289.982 226.508 290.772 226.588 291.534 226.74L310.358 228.605C319.716 229.533 327.067 220.739 324.496 211.693C322.866 205.962 317.631 202.008 311.672 202.008H298.476C281.464 202.008 267.673 215.799 267.673 232.811V238.521C267.673 256.595 280.895 271.949 298.769 274.63L310.068 276.325C314.8 277.034 319.689 277.051 324.452 276.381C350.801 272.675 370.673 250.069 370.673 223.635V219.253C370.673 187.085 344.595 161.008 312.427 161.008H284.276C240.036 161.008 204.173 196.871 204.173 241.112C204.173 282.228 235.302 316.668 276.21 320.808L305.223 323.745C313.13 324.545 321.106 324.504 329.006 323.622C381.829 317.726 423.404 275.753 428.758 222.881L429.478 215.776C430.233 208.317 430.199 200.8 429.374 193.348C423.756 142.549 382.829 102.912 331.876 98.9224L299.716 96.4046C292.351 95.8279 284.952 95.8133 277.584 96.3609L265.808 97.2362C198.726 102.222 144.604 154.485 137.015 221.37C135.839 231.734 135.843 242.232 137.036 252.589C144.608 318.376 198.058 369.385 264.126 373.877L317.171 377.483L327.241 376.795C414.466 370.831 482.173 298.336 482.173 210.908C482.173 125.515 417.488 54.0054 332.524 45.4673L307.32 42.9346C294.92 41.6885 282.426 41.6885 270.025 42.9346L239.704 45.9816C154.143 54.5796 85.5518 120.564 73.6472 205.728L72.7958 211.819C70.4562 228.556 70.4024 245.534 72.636 262.286L73.0618 265.479C85.0867 355.666 160.586 423.919 251.524 426.813C265.353 427.254 279.188 426.15 292.772 423.522L372.229 408.15C413.288 400.207 450.486 378.695 477.848 347.069L506.856 313.54C507.826 308.404 512.524 304.508 518.173 304.508C524.524 304.508 529.673 309.433 529.673 315.508C529.673 318.785 528.175 321.727 525.798 323.742L493.729 360.809C463.286 395.996 421.9 419.931 376.218 428.768L296.76 444.139C281.643 447.064 266.246 448.293 250.856 447.803C149.651 444.581 65.6284 368.623 52.246 268.255L51.8202 265.061C49.3351 246.423 49.3949 227.534 51.998 208.911L52.8494 202.821C66.0945 108.067 142.409 34.653 237.604 25.0868L267.925 22.0398Z" fill="#733101"/>
<path d="M309.42 22.0398L309.72 19.0549V19.0549L309.42 22.0398ZM267.925 22.0398L268.225 25.0248L267.925 22.0398ZM334.623 24.5725L334.323 27.5575L334.623 24.5725ZM328.674 397.746L328.469 394.753L328.674 397.746ZM317.889 398.483L318.094 401.476H318.094L317.889 398.483ZM317.175 398.532L316.971 401.525L317.175 401.539L317.379 401.525L317.175 398.532ZM316.46 398.484L316.257 401.477H316.257L316.46 398.484ZM262.702 394.829L262.498 397.822L262.702 394.829ZM116.173 254.991L113.193 255.334L116.173 254.991ZM116.149 219.002L113.168 218.664L116.149 219.002ZM264.251 76.2939L264.474 79.2857L264.251 76.2939ZM276.028 75.4187L276.25 78.4104L276.028 75.4187ZM301.355 75.4686L301.121 78.4595L301.355 75.4686ZM333.515 77.9865L333.281 80.9773L333.515 77.9865ZM450.247 191.04L447.265 191.37V191.37L450.247 191.04ZM450.371 217.892L447.386 217.589L450.371 217.892ZM449.652 224.997L452.636 225.299L449.652 224.997ZM331.336 344.492L331.669 347.474L331.336 344.492ZM303.108 344.638L302.806 347.623H302.806L303.108 344.638ZM274.095 341.701L274.397 338.717H274.397L274.095 341.701ZM327.376 297.176L326.958 294.206L327.376 297.176ZM306.953 297.092L306.508 300.059L306.953 297.092ZM295.654 295.397L296.099 292.431L295.654 295.397ZM344.695 205.95L347.581 205.13L344.695 205.95ZM308.287 249.503L308.583 246.518L308.287 249.503ZM292.755 247.964L293.05 244.978L292.442 244.918L291.858 245.101L292.755 247.964ZM291.534 226.74L290.947 229.682L291.091 229.711L291.238 229.725L291.534 226.74ZM310.358 228.605L310.062 231.591L310.358 228.605ZM324.496 211.693L327.381 210.873L324.496 211.693ZM298.769 274.63L298.324 277.597L298.769 274.63ZM310.068 276.325L310.513 273.358L310.068 276.325ZM324.452 276.381L324.869 279.352L324.452 276.381ZM276.21 320.808L276.512 317.823L276.21 320.808ZM305.223 323.745L304.921 326.729H304.921L305.223 323.745ZM329.006 323.622L329.339 326.603L329.006 323.622ZM428.758 222.881L431.743 223.183L428.758 222.881ZM429.478 215.776L426.493 215.474L429.478 215.776ZM429.374 193.348L432.356 193.019V193.019L429.374 193.348ZM331.876 98.9224L331.641 101.913L331.876 98.9224ZM299.716 96.4046L299.482 99.3954L299.716 96.4046ZM277.584 96.3609L277.362 93.3692H277.362L277.584 96.3609ZM265.808 97.2362L266.03 100.228L265.808 97.2362ZM137.015 221.37L139.995 221.708L137.015 221.37ZM137.036 252.589L134.055 252.932L137.036 252.589ZM264.126 373.877L263.923 376.87L264.126 373.877ZM317.171 377.483L316.967 380.477L317.171 380.49L317.375 380.476L317.171 377.483ZM327.241 376.795L327.446 379.788H327.446L327.241 376.795ZM332.524 45.4673L332.224 48.4523L332.524 45.4673ZM307.32 42.9346L307.62 39.9496L307.32 42.9346ZM270.025 42.9346L269.725 39.9496L270.025 42.9346ZM239.704 45.9816L239.404 42.9966L239.704 45.9816ZM73.6472 205.728L76.6183 206.143L73.6472 205.728ZM72.7958 211.819L69.8247 211.403L72.7958 211.819ZM72.636 262.286L75.6097 261.889L72.636 262.286ZM73.0618 265.479L70.0881 265.876L73.0618 265.479ZM251.524 426.813L251.62 423.815L251.524 426.813ZM292.772 423.522L293.341 426.467L292.772 423.522ZM372.229 408.15L371.66 405.205L372.229 408.15ZM477.848 347.069L475.579 345.106V345.106L477.848 347.069ZM506.856 313.54L509.125 315.503L509.654 314.891L509.804 314.096L506.856 313.54ZM525.798 323.742L523.858 321.454L523.681 321.604L523.53 321.779L525.798 323.742ZM493.729 360.809L491.46 358.846V358.846L493.729 360.809ZM376.218 428.768L375.648 425.823L376.218 428.768ZM296.76 444.139L297.33 447.085L296.76 444.139ZM250.856 447.803L250.761 450.801L250.856 447.803ZM52.246 268.255L49.2723 268.651H49.2723L52.246 268.255ZM51.8202 265.061L54.7939 264.665L51.8202 265.061ZM51.998 208.911L54.9691 209.327V209.327L51.998 208.911ZM52.8494 202.821L49.8783 202.406H49.8783L52.8494 202.821ZM237.604 25.0868L237.304 22.1018L237.604 25.0868ZM309.72 19.0549C295.724 17.6484 281.622 17.6484 267.625 19.0549L268.225 25.0248C281.823 23.6584 295.523 23.6584 309.12 25.0248L309.72 19.0549ZM334.923 21.5876L309.72 19.0549L309.12 25.0248L334.323 27.5575L334.923 21.5876ZM506.173 210.908C506.173 113.19 432.152 31.3581 334.923 21.5876L334.323 27.5575C428.486 37.0199 500.173 116.271 500.173 210.908H506.173ZM328.878 400.739C428.693 393.914 506.173 310.956 506.173 210.908H500.173C500.173 307.801 425.136 388.143 328.469 394.753L328.878 400.739ZM318.094 401.476L328.878 400.739L328.469 394.753L317.684 395.49L318.094 401.476ZM317.379 401.525L318.094 401.476L317.684 395.49L316.97 395.539L317.379 401.525ZM316.257 401.477L316.971 401.525L317.378 395.539L316.664 395.491L316.257 401.477ZM262.498 397.822L316.257 401.477L316.664 395.491L262.905 391.836L262.498 397.822ZM113.193 255.334C122.089 332.62 184.881 392.545 262.498 397.822L262.905 391.836C188.175 386.755 127.719 329.059 119.154 254.648L113.193 255.334ZM113.168 218.664C111.787 230.833 111.792 243.16 113.193 255.334L119.154 254.648C117.805 242.928 117.8 231.058 119.129 219.34L113.168 218.664ZM264.029 73.3022C185.393 79.1468 122.052 140.373 113.168 218.664L119.129 219.34C127.69 143.901 188.727 84.9156 264.474 79.2857L264.029 73.3022ZM275.805 72.4269L264.029 73.3022L264.474 79.2857L276.25 78.4104L275.805 72.4269ZM301.589 72.4778C293.008 71.806 284.389 71.789 275.805 72.4269L276.25 78.4104C284.53 77.7951 292.844 77.8114 301.121 78.4595L301.589 72.4778ZM333.749 74.9956L301.589 72.4778L301.121 78.4595L333.281 80.9773L333.749 74.9956ZM453.229 190.71C446.344 128.458 396.189 79.8842 333.749 74.9956L333.281 80.9773C392.849 85.641 440.697 131.981 447.265 191.37L453.229 190.71ZM453.356 218.194C454.281 209.054 454.239 199.841 453.229 190.71L447.265 191.37C448.229 200.081 448.269 208.87 447.386 217.589L453.356 218.194ZM452.636 225.299L453.356 218.194L447.386 217.589L446.667 224.695L452.636 225.299ZM331.669 347.474C395.72 340.325 446.142 289.431 452.636 225.299L446.667 224.695C440.457 286.012 392.248 334.676 331.003 341.511L331.669 347.474ZM302.806 347.623C312.404 348.594 322.082 348.544 331.669 347.474L331.003 341.511C321.838 342.534 312.585 342.582 303.41 341.653L302.806 347.623ZM273.793 344.686L302.806 347.623L303.41 341.653L274.397 338.717L273.793 344.686ZM180.173 241.112C180.173 294.547 220.629 339.305 273.793 344.686L274.397 338.717C224.298 333.646 186.173 291.467 186.173 241.112H180.173ZM284.276 137.008C226.781 137.008 180.173 183.617 180.173 241.112H186.173C186.173 186.93 230.095 143.008 284.276 143.008V137.008ZM312.427 137.008H284.276V143.008H312.427V137.008ZM394.673 219.253C394.673 173.83 357.85 137.008 312.427 137.008V143.008C354.536 143.008 388.673 177.144 388.673 219.253H394.673ZM394.673 223.635V219.253H388.673V223.635H394.673ZM327.794 300.147C365.792 294.804 394.673 262.233 394.673 223.635H388.673C388.673 259.19 362.045 289.271 326.958 294.206L327.794 300.147ZM306.508 300.059C313.554 301.116 320.768 301.135 327.794 300.147L326.958 294.206C320.499 295.114 313.866 295.096 307.398 294.126L306.508 300.059ZM295.209 298.364L306.508 300.059L307.398 294.126L296.099 292.431L295.209 298.364ZM243.673 238.521C243.673 268.475 265.587 293.921 295.209 298.364L296.099 292.431C269.414 288.428 249.673 265.505 249.673 238.521H243.673ZM243.673 232.811V238.521H249.673V232.811H243.673ZM298.476 178.008C268.209 178.008 243.673 202.544 243.673 232.811H249.673C249.673 205.858 271.523 184.008 298.476 184.008V178.008ZM311.672 178.008H298.476V184.008H311.672V178.008ZM347.581 205.13C343.018 189.08 328.358 178.008 311.672 178.008V184.008C325.676 184.008 337.98 193.301 341.809 206.771L347.581 205.13ZM307.991 252.488C334.198 255.085 354.783 230.461 347.581 205.13L341.809 206.771C347.854 228.031 330.578 248.697 308.583 246.518L307.991 252.488ZM292.459 250.949L307.991 252.488L308.583 246.518L293.05 244.978L292.459 250.949ZM291.858 245.101C291.018 245.364 290.117 245.508 289.173 245.508V251.508C290.73 251.508 292.236 251.27 293.651 250.827L291.858 245.101ZM289.173 245.508C284.351 245.508 280.673 241.802 280.673 237.508H274.673C274.673 245.364 281.292 251.508 289.173 251.508V245.508ZM280.673 237.508C280.673 233.214 284.351 229.508 289.173 229.508V223.508C281.292 223.508 274.673 229.652 274.673 237.508H280.673ZM289.173 229.508C289.784 229.508 290.377 229.568 290.947 229.682L292.121 223.798C291.167 223.607 290.18 223.508 289.173 223.508V229.508ZM310.654 225.62L291.83 223.755L291.238 229.725L310.062 231.591L310.654 225.62ZM321.61 212.514C323.603 219.524 317.906 226.339 310.654 225.62L310.062 231.591C321.527 232.727 330.532 221.955 327.381 210.873L321.61 212.514ZM311.672 205.008C316.29 205.008 320.347 208.072 321.61 212.514L327.381 210.873C325.385 203.852 318.972 199.008 311.672 199.008V205.008ZM298.476 205.008H311.672V199.008H298.476V205.008ZM270.673 232.811C270.673 217.456 283.121 205.008 298.476 205.008V199.008C279.807 199.008 264.673 214.142 264.673 232.811H270.673ZM270.673 238.521V232.811H264.673V238.521H270.673ZM299.214 271.663C282.809 269.202 270.673 255.11 270.673 238.521H264.673C264.673 258.08 278.982 274.695 298.324 277.597L299.214 271.663ZM310.513 273.358L299.214 271.663L298.324 277.597L309.623 279.291L310.513 273.358ZM324.034 273.41C319.555 274.04 314.956 274.024 310.513 273.358L309.623 279.291C314.645 280.045 319.824 280.061 324.869 279.352L324.034 273.41ZM367.673 223.635C367.673 248.55 348.926 269.91 324.034 273.41L324.869 279.352C352.676 275.441 373.673 251.589 373.673 223.635H367.673ZM367.673 219.253V223.635H373.673V219.253H367.673ZM312.427 164.008C342.938 164.008 367.673 188.742 367.673 219.253H373.673C373.673 185.428 346.252 158.008 312.427 158.008V164.008ZM284.276 164.008H312.427V158.008H284.276V164.008ZM207.173 241.112C207.173 198.528 241.693 164.008 284.276 164.008V158.008C238.379 158.008 201.173 195.215 201.173 241.112H207.173ZM276.512 317.823C237.137 313.838 207.173 280.688 207.173 241.112H201.173C201.173 283.768 233.468 319.497 275.908 323.793L276.512 317.823ZM305.525 320.76L276.512 317.823L275.908 323.793L304.921 326.729L305.525 320.76ZM328.674 320.64C320.984 321.499 313.221 321.539 305.525 320.76L304.921 326.729C313.04 327.551 321.228 327.509 329.339 326.603L328.674 320.64ZM425.774 222.579C420.562 274.043 380.093 314.902 328.674 320.64L329.339 326.603C383.566 320.551 426.246 277.463 431.743 223.183L425.774 222.579ZM426.493 215.474L425.774 222.579L431.743 223.183L432.463 216.078L426.493 215.474ZM426.393 193.678C427.193 200.919 427.227 208.225 426.493 215.474L432.463 216.078C433.239 208.409 433.204 200.68 432.356 193.019L426.393 193.678ZM331.641 101.913C381.159 105.79 420.933 144.31 426.393 193.678L432.356 193.019C426.58 140.788 384.499 100.033 332.11 95.9315L331.641 101.913ZM299.482 99.3954L331.641 101.913L332.11 95.9315L299.95 93.4137L299.482 99.3954ZM277.807 99.3527C285.022 98.8164 292.268 98.8306 299.482 99.3954L299.95 93.4137C292.433 92.8252 284.882 92.8103 277.362 93.3692L277.807 99.3527ZM266.03 100.228L277.807 99.3527L277.362 93.3692L265.586 94.2444L266.03 100.228ZM139.995 221.708C147.423 156.249 200.393 105.106 266.03 100.228L265.586 94.2444C197.06 99.3376 141.785 152.721 134.034 221.031L139.995 221.708ZM140.016 252.246C138.85 242.116 138.845 231.846 139.995 221.708L134.034 221.031C132.832 231.621 132.837 242.348 134.055 252.932L140.016 252.246ZM264.33 370.884C199.705 366.49 147.423 316.596 140.016 252.246L134.055 252.932C141.793 320.157 196.411 372.28 263.923 376.87L264.33 370.884ZM317.374 374.49L264.33 370.884L263.923 376.87L316.967 380.477L317.374 374.49ZM327.037 373.802L316.966 374.49L317.375 380.476L327.446 379.788L327.037 373.802ZM479.173 210.908C479.173 296.759 412.687 367.945 327.037 373.802L327.446 379.788C416.244 373.716 485.173 299.914 485.173 210.908H479.173ZM332.224 48.4523C415.656 56.8363 479.173 127.056 479.173 210.908H485.173C485.173 123.975 419.321 51.1745 332.824 42.4823L332.224 48.4523ZM307.02 45.9196L332.224 48.4523L332.824 42.4823L307.62 39.9496L307.02 45.9196ZM270.325 45.9196C282.526 44.6935 294.819 44.6935 307.02 45.9196L307.62 39.9496C295.02 38.6835 282.325 38.6835 269.725 39.9496L270.325 45.9196ZM240.004 48.9665L270.325 45.9196L269.725 39.9496L239.404 42.9966L240.004 48.9665ZM76.6183 206.143C88.3314 122.349 155.819 57.4263 240.004 48.9665L239.404 42.9966C152.467 51.733 82.7722 118.779 70.6761 205.313L76.6183 206.143ZM75.7669 212.234L76.6183 206.143L70.6761 205.313L69.8247 211.403L75.7669 212.234ZM75.6097 261.889C73.412 245.407 73.4649 228.702 75.7669 212.234L69.8247 211.403C67.4474 228.41 67.3928 245.661 69.6623 262.682L75.6097 261.889ZM76.0355 265.083L75.6097 261.889L69.6623 262.682L70.0881 265.876L76.0355 265.083ZM251.62 423.815C162.148 420.967 87.8664 353.815 76.0355 265.083L70.0881 265.876C82.3069 357.517 159.024 426.871 251.429 429.812L251.62 423.815ZM292.202 420.576C278.837 423.162 265.225 424.248 251.62 423.815L251.429 429.812C265.481 430.259 279.538 429.137 293.341 426.467L292.202 420.576ZM371.66 405.205L292.202 420.576L293.341 426.467L372.799 411.096L371.66 405.205ZM475.579 345.106C448.657 376.224 412.058 397.39 371.66 405.205L372.799 411.096C414.518 403.025 452.314 381.167 480.117 349.032L475.579 345.106ZM504.587 311.577L475.579 345.106L480.117 349.032L509.125 315.503L504.587 311.577ZM518.173 301.508C511.149 301.508 505.158 306.365 503.908 312.983L509.804 314.096C510.494 310.443 513.898 307.508 518.173 307.508V301.508ZM532.673 315.508C532.673 307.652 526.054 301.508 518.173 301.508V307.508C522.994 307.508 526.673 311.214 526.673 315.508H532.673ZM527.739 326.03C530.738 323.486 532.673 319.728 532.673 315.508H526.673C526.673 317.841 525.611 319.967 523.858 321.454L527.739 326.03ZM495.998 362.772L528.067 325.705L523.53 321.779L491.46 358.846L495.998 362.772ZM376.788 431.714C423.13 422.748 465.115 398.468 495.998 362.772L491.46 358.846C461.457 393.525 420.67 417.113 375.648 425.823L376.788 431.714ZM297.33 447.085L376.788 431.714L375.648 425.823L296.19 441.194L297.33 447.085ZM250.761 450.801C266.374 451.298 281.993 450.052 297.33 447.085L296.19 441.194C281.292 444.076 266.119 445.287 250.952 444.804L250.761 450.801ZM49.2723 268.651C62.8487 370.474 148.089 447.533 250.761 450.801L250.952 444.804C151.213 441.63 68.4082 366.772 55.2197 267.858L49.2723 268.651ZM48.8465 265.458L49.2723 268.651L55.2197 267.858L54.7939 264.665L48.8465 265.458ZM49.0269 208.496C46.3862 227.388 46.3255 246.55 48.8465 265.458L54.7939 264.665C52.3447 246.296 52.4037 227.68 54.9691 209.327L49.0269 208.496ZM49.8783 202.406L49.0269 208.496L54.9691 209.327L55.8205 203.236L49.8783 202.406ZM237.304 22.1018C140.733 31.8063 63.3149 106.282 49.8783 202.406L55.8205 203.236C68.8741 109.853 144.085 37.4997 237.904 28.0718L237.304 22.1018ZM267.625 19.0549L237.304 22.1018L237.904 28.0718L268.225 25.0248L267.625 19.0549Z" fill="#452500" mask="url(#path-2-inside-1)"/>
</g>
<defs>
<filter id="filter0_d" x="46" y="21" width="487.673" height="434.908" filterUnits="userSpaceOnUse" color-interpolation-filters="sRGB">
<feFlood flood-opacity="0" result="BackgroundImageFix"/>
<feColorMatrix in="SourceAlpha" type="matrix" values="0 0 0 0 0 0 0 0 0 0 0 0 0 0 0 0 0 0 127 0"/>
<feOffset dy="4"/>
<feGaussianBlur stdDeviation="2"/>
<feColorMatrix type="matrix" values="0 0 0 0 0 0 0 0 0 0 0 0 0 0 0 0 0 0 0.25 0"/>
<feBlend mode="normal" in2="BackgroundImageFix" result="effect1_dropShadow"/>
<feBlend mode="normal" in="SourceGraphic" in2="effect1_dropShadow" result="shape"/>
</filter>
</defs>
</svg>
