<svg width="435" height="420" viewBox="0 0 435 420" fill="none" xmlns="http://www.w3.org/2000/svg">
<mask id="path-2-inside-1" fill="white">
<path fill-rule="evenodd" clip-rule="evenodd" d="M150.247 45.8625C183.708 32.7544 222.144 22.9546 257.449 27.9777C292.216 32.9242 324.748 48.3158 350.227 66.71C375.484 84.9435 394.895 106.927 402.241 125.929C409.328 144.261 412.966 171.833 408.994 200.455C405.007 229.185 393.235 259.761 368.632 283.297C355.776 295.596 337.383 304.146 317.04 309.609C296.584 315.102 273.506 317.649 250.616 317.476C227.723 317.303 204.75 314.407 184.494 308.838C164.366 303.305 146.259 294.952 133.731 283.406C109.024 260.634 104.91 234.965 109.26 212.92C113.492 191.479 125.596 173.774 132.973 164.957C140.595 155.849 154.86 143.504 172.131 132.762C189.419 122.009 210.494 112.374 231.829 109.46C256.684 106.065 282.391 113.056 304.898 122.711C336.125 136.107 344.891 173.557 330.294 202.069L315.888 230.205C306.917 247.727 287.809 257.618 268.324 254.827C227.477 248.976 214.307 196.52 247.545 172.069L256.823 165.243C257.809 164.303 258.947 163.433 260.217 162.678C266.411 158.99 273.398 159.399 275.822 163.593C278.246 167.786 275.189 174.175 268.994 177.863C268.293 178.281 267.581 178.646 266.868 178.959L257.619 185.763C236.639 201.196 244.952 234.306 270.734 237.998C283.033 239.76 295.094 233.517 300.756 222.457L315.162 194.321C326.186 172.789 318.635 147.103 298.195 138.334C276.891 129.195 254.55 123.515 234.129 126.304C216.018 128.777 197.253 137.157 181.11 147.198C164.95 157.249 152.195 168.476 146.011 175.867C139.582 183.551 129.399 198.676 125.939 216.211C122.597 233.142 125.386 252.595 145.253 270.905C155.012 279.9 170.237 287.288 189 292.446C207.635 297.569 229.113 300.313 250.745 300.477C272.379 300.64 293.899 298.221 312.631 293.191C331.475 288.13 346.857 280.602 356.88 271.013C378.035 250.776 388.549 224.107 392.156 198.118C395.777 172.021 392.315 147.4 386.385 132.059C380.713 117.388 364.229 97.7851 340.277 80.4935C316.547 63.3626 286.557 49.2903 255.055 44.8083C224.091 40.4029 188.96 48.9551 156.448 61.6913C124.104 74.3615 95.3982 90.7413 77.4443 101.015C74.6996 102.585 71.6306 105.715 68.5349 110.941C65.4768 116.103 62.69 122.809 60.2737 130.797C55.4414 146.773 52.3713 166.932 51.1881 187.855C50.0067 208.745 50.7268 230.035 53.2938 248.191C55.9128 266.714 60.2872 280.697 65.5397 288.034C67.9034 291.336 72.8645 295.802 80.6428 301.133C88.2432 306.342 97.9088 311.961 109.015 317.712C131.215 329.207 158.664 340.966 185.731 350.779C212.844 360.609 239.227 368.36 259.331 371.982C269.457 373.806 277.485 374.487 283.038 374.071C283.496 374.037 283.923 373.996 284.322 373.95C285.767 371.855 287.844 369.905 290.421 368.386C297.319 364.318 305.185 364.877 307.99 369.635C310.795 374.392 307.478 381.546 300.579 385.614C299.951 385.985 299.314 386.317 298.674 386.611C297.593 387.388 296.45 388.022 295.306 388.536C291.965 390.034 288.136 390.737 284.307 391.023C276.632 391.598 266.955 390.629 256.317 388.713C234.892 384.853 207.506 376.756 179.936 366.761C152.321 356.749 124.176 344.706 101.198 332.808C89.7155 326.863 79.3962 320.888 71.0317 315.155C62.8451 309.544 55.8616 303.719 51.7167 297.93C43.952 287.083 39.1551 269.624 36.4612 250.57C33.7152 231.149 32.9806 208.727 34.2152 186.895C35.448 165.095 38.6645 143.52 44.0018 125.875C46.6703 117.053 49.939 108.977 53.9088 102.276C57.8409 95.6386 62.772 89.8242 69.0012 86.2597C86.9432 75.9931 116.617 59.0365 150.247 45.8625Z"/>
</mask>
<path fill-rule="evenodd" clip-rule="evenodd" d="M150.247 45.8625C183.708 32.7544 222.144 22.9546 257.449 27.9777C292.216 32.9242 324.748 48.3158 350.227 66.71C375.484 84.9435 394.895 106.927 402.241 125.929C409.328 144.261 412.966 171.833 408.994 200.455C405.007 229.185 393.235 259.761 368.632 283.297C355.776 295.596 337.383 304.146 317.04 309.609C296.584 315.102 273.506 317.649 250.616 317.476C227.723 317.303 204.75 314.407 184.494 308.838C164.366 303.305 146.259 294.952 133.731 283.406C109.024 260.634 104.91 234.965 109.26 212.92C113.492 191.479 125.596 173.774 132.973 164.957C140.595 155.849 154.86 143.504 172.131 132.762C189.419 122.009 210.494 112.374 231.829 109.46C256.684 106.065 282.391 113.056 304.898 122.711C336.125 136.107 344.891 173.557 330.294 202.069L315.888 230.205C306.917 247.727 287.809 257.618 268.324 254.827C227.477 248.976 214.307 196.52 247.545 172.069L256.823 165.243C257.809 164.303 258.947 163.433 260.217 162.678C266.411 158.99 273.398 159.399 275.822 163.593C278.246 167.786 275.189 174.175 268.994 177.863C268.293 178.281 267.581 178.646 266.868 178.959L257.619 185.763C236.639 201.196 244.952 234.306 270.734 237.998C283.033 239.76 295.094 233.517 300.756 222.457L315.162 194.321C326.186 172.789 318.635 147.103 298.195 138.334C276.891 129.195 254.55 123.515 234.129 126.304C216.018 128.777 197.253 137.157 181.11 147.198C164.95 157.249 152.195 168.476 146.011 175.867C139.582 183.551 129.399 198.676 125.939 216.211C122.597 233.142 125.386 252.595 145.253 270.905C155.012 279.9 170.237 287.288 189 292.446C207.635 297.569 229.113 300.313 250.745 300.477C272.379 300.64 293.899 298.221 312.631 293.191C331.475 288.13 346.857 280.602 356.88 271.013C378.035 250.776 388.549 224.107 392.156 198.118C395.777 172.021 392.315 147.4 386.385 132.059C380.713 117.388 364.229 97.7851 340.277 80.4935C316.547 63.3626 286.557 49.2903 255.055 44.8083C224.091 40.4029 188.96 48.9551 156.448 61.6913C124.104 74.3615 95.3982 90.7413 77.4443 101.015C74.6996 102.585 71.6306 105.715 68.5349 110.941C65.4768 116.103 62.69 122.809 60.2737 130.797C55.4414 146.773 52.3713 166.932 51.1881 187.855C50.0067 208.745 50.7268 230.035 53.2938 248.191C55.9128 266.714 60.2872 280.697 65.5397 288.034C67.9034 291.336 72.8645 295.802 80.6428 301.133C88.2432 306.342 97.9088 311.961 109.015 317.712C131.215 329.207 158.664 340.966 185.731 350.779C212.844 360.609 239.227 368.36 259.331 371.982C269.457 373.806 277.485 374.487 283.038 374.071C283.496 374.037 283.923 373.996 284.322 373.95C285.767 371.855 287.844 369.905 290.421 368.386C297.319 364.318 305.185 364.877 307.99 369.635C310.795 374.392 307.478 381.546 300.579 385.614C299.951 385.985 299.314 386.317 298.674 386.611C297.593 387.388 296.45 388.022 295.306 388.536C291.965 390.034 288.136 390.737 284.307 391.023C276.632 391.598 266.955 390.629 256.317 388.713C234.892 384.853 207.506 376.756 179.936 366.761C152.321 356.749 124.176 344.706 101.198 332.808C89.7155 326.863 79.3962 320.888 71.0317 315.155C62.8451 309.544 55.8616 303.719 51.7167 297.93C43.952 287.083 39.1551 269.624 36.4612 250.57C33.7152 231.149 32.9806 208.727 34.2152 186.895C35.448 165.095 38.6645 143.52 44.0018 125.875C46.6703 117.053 49.939 108.977 53.9088 102.276C57.8409 95.6386 62.772 89.8242 69.0012 86.2597C86.9432 75.9931 116.617 59.0365 150.247 45.8625Z" fill="#FF7A00"/>
<path d="M257.449 27.9777L257.872 25.0077L257.872 25.0077L257.449 27.9777ZM150.247 45.8625L151.341 48.6558L151.341 48.6558L150.247 45.8625ZM350.227 66.71L348.471 69.1424L348.471 69.1424L350.227 66.71ZM402.241 125.929L405.039 124.847L405.039 124.847L402.241 125.929ZM408.994 200.455L411.966 200.867L411.966 200.867L408.994 200.455ZM368.632 283.297L366.558 281.13L366.558 281.13L368.632 283.297ZM317.04 309.609L317.818 312.506L317.818 312.506L317.04 309.609ZM250.616 317.476L250.639 314.476L250.639 314.476L250.616 317.476ZM184.494 308.838L183.699 311.731L183.699 311.731L184.494 308.838ZM133.731 283.406L131.698 285.612L131.698 285.612L133.731 283.406ZM109.26 212.92L112.204 213.501L112.204 213.501L109.26 212.92ZM132.973 164.957L135.274 166.883L135.274 166.883L132.973 164.957ZM172.131 132.762L170.547 130.215L172.131 132.762ZM231.829 109.46L232.235 112.432L232.235 112.432L231.829 109.46ZM304.898 122.711L306.08 119.954L306.08 119.954L304.898 122.711ZM330.294 202.069L332.964 203.436L332.964 203.436L330.294 202.069ZM315.888 230.205L313.218 228.838L313.218 228.838L315.888 230.205ZM268.324 254.827L267.898 257.796L267.898 257.796L268.324 254.827ZM247.545 172.069L245.767 169.652L245.767 169.652L247.545 172.069ZM256.823 165.243L258.601 167.66L258.756 167.546L258.894 167.414L256.823 165.243ZM260.217 162.678L258.682 160.1L258.682 160.1L260.217 162.678ZM275.822 163.593L273.225 165.094L273.225 165.094L275.822 163.593ZM268.994 177.863L267.46 175.285L267.46 175.285L268.994 177.863ZM266.868 178.959L265.663 176.211L265.358 176.345L265.09 176.542L266.868 178.959ZM257.619 185.763L259.396 188.179L259.396 188.179L257.619 185.763ZM270.734 237.998L270.308 240.968L270.308 240.968L270.734 237.998ZM300.756 222.457L303.426 223.825L303.426 223.825L300.756 222.457ZM315.162 194.321L312.491 192.954L312.491 192.954L315.162 194.321ZM298.195 138.334L299.378 135.577L299.378 135.577L298.195 138.334ZM234.129 126.304L234.535 129.276L234.535 129.276L234.129 126.304ZM181.11 147.198L182.694 149.745L182.694 149.745L181.11 147.198ZM146.011 175.867L148.312 177.792L148.312 177.792L146.011 175.867ZM125.939 216.211L122.995 215.63L122.995 215.63L125.939 216.211ZM145.253 270.905L143.219 273.111L143.219 273.111L145.253 270.905ZM189 292.446L189.795 289.554L189.795 289.554L189 292.446ZM250.745 300.477L250.767 297.477L250.767 297.477L250.745 300.477ZM312.631 293.191L313.409 296.088L313.409 296.088L312.631 293.191ZM356.88 271.013L354.806 268.846L354.806 268.846L356.88 271.013ZM392.156 198.118L389.184 197.706L389.184 197.706L392.156 198.118ZM386.385 132.059L389.183 130.977L389.183 130.977L386.385 132.059ZM340.277 80.4935L338.521 82.9259L338.521 82.9259L340.277 80.4935ZM255.055 44.8083L255.477 41.8382L255.055 44.8083ZM156.448 61.6913L157.542 64.4846L156.448 61.6913ZM77.4443 101.015L75.9544 98.411L75.9544 98.411L77.4443 101.015ZM68.5349 110.941L71.116 112.47L71.116 112.47L68.5349 110.941ZM60.2737 130.797L57.4022 129.929L57.4022 129.929L60.2737 130.797ZM51.1881 187.855L54.1833 188.024L54.1833 188.024L51.1881 187.855ZM53.2938 248.191L56.2642 247.771L56.2642 247.771L53.2938 248.191ZM65.5397 288.034L67.979 286.287L67.979 286.287L65.5397 288.034ZM80.6428 301.133L82.3388 298.658L82.3388 298.658L80.6428 301.133ZM109.015 317.712L110.394 315.048L110.394 315.048L109.015 317.712ZM185.731 350.779L184.708 353.599L184.708 353.599L185.731 350.779ZM259.331 371.982L259.863 369.029L259.863 369.029L259.331 371.982ZM283.038 374.071L282.814 371.079L282.814 371.079L283.038 374.071ZM284.322 373.95L284.667 376.93L286.019 376.774L286.792 375.653L284.322 373.95ZM290.421 368.386L288.897 365.802L288.897 365.802L290.421 368.386ZM307.99 369.635L310.574 368.111L310.574 368.111L307.99 369.635ZM300.579 385.614L299.056 383.03L299.056 383.03L300.579 385.614ZM298.674 386.611L297.421 383.885L297.159 384.006L296.924 384.174L298.674 386.611ZM295.306 388.536L294.078 385.798L294.078 385.798L295.306 388.536ZM284.307 391.023L284.083 388.032L284.083 388.032L284.307 391.023ZM256.317 388.713L255.785 391.665L255.785 391.665L256.317 388.713ZM179.936 366.761L178.914 369.581L178.914 369.581L179.936 366.761ZM101.198 332.808L102.578 330.144L102.578 330.144L101.198 332.808ZM71.0317 315.155L69.3357 317.63L69.3357 317.63L71.0317 315.155ZM51.7167 297.93L54.156 296.183L54.156 296.183L51.7167 297.93ZM36.4612 250.57L33.4907 250.99L33.4907 250.99L36.4612 250.57ZM34.2152 186.895L37.2104 187.064L34.2152 186.895ZM44.0018 125.875L41.1303 125.007L41.1303 125.007L44.0018 125.875ZM53.9088 102.276L51.3277 100.747L51.3277 100.747L53.9088 102.276ZM69.0012 86.2597L67.5113 83.6559L67.5113 83.6559L69.0012 86.2597ZM257.872 25.0077C221.8 19.8755 182.782 29.8954 149.153 43.0692L151.341 48.6558C184.635 35.6135 222.487 26.0337 257.027 30.9478L257.872 25.0077ZM351.983 64.2776C326.195 45.6605 293.215 30.0361 257.872 25.0077L257.027 30.9478C291.217 35.8123 323.301 50.9711 348.471 69.1424L351.983 64.2776ZM405.039 124.847C397.398 105.081 377.47 82.6772 351.983 64.2776L348.471 69.1424C373.498 87.2097 392.393 108.773 399.443 127.011L405.039 124.847ZM411.966 200.867C416 171.8 412.33 143.708 405.039 124.847L399.443 127.011C406.326 144.815 409.933 171.866 406.023 200.043L411.966 200.867ZM370.706 285.465C395.917 261.346 407.912 230.081 411.966 200.867L406.023 200.043C402.103 228.29 390.552 258.175 366.558 281.13L370.706 285.465ZM317.818 312.506C338.425 306.973 357.35 298.242 370.706 285.465L366.558 281.13C354.202 292.95 336.34 301.32 316.262 306.712L317.818 312.506ZM250.593 320.476C273.706 320.651 297.058 318.081 317.818 312.506L316.262 306.712C296.111 312.123 273.307 314.648 250.639 314.476L250.593 320.476ZM183.699 311.731C204.241 317.378 227.477 320.301 250.593 320.476L250.639 314.476C227.968 314.305 205.259 311.435 185.289 305.946L183.699 311.731ZM131.698 285.612C144.715 297.608 163.33 306.132 183.699 311.731L185.289 305.946C165.402 300.479 147.804 292.296 135.765 281.2L131.698 285.612ZM106.317 212.339C101.789 235.286 106.136 262.052 131.698 285.612L135.765 281.2C111.912 259.216 108.031 234.645 112.204 213.501L106.317 212.339ZM130.672 163.032C123.128 172.048 110.684 190.209 106.317 212.339L112.204 213.501C116.299 192.749 128.064 175.499 135.274 166.883L130.672 163.032ZM170.547 130.215C153.08 141.079 138.548 153.62 130.672 163.032L135.274 166.883C142.642 158.077 156.641 145.93 173.716 135.309L170.547 130.215ZM231.423 106.488C209.519 109.479 188.036 119.336 170.547 130.215L173.716 135.309C190.801 124.682 211.469 115.268 232.235 112.432L231.423 106.488ZM306.08 119.954C283.362 110.208 257.061 102.986 231.423 106.488L232.235 112.432C256.308 109.145 281.421 115.904 303.715 125.468L306.08 119.954ZM332.964 203.436C348.184 173.709 339.227 134.173 306.08 119.954L303.715 125.468C333.024 138.041 341.598 173.406 327.623 200.701L332.964 203.436ZM318.558 231.572L332.964 203.436L327.623 200.701L313.218 228.838L318.558 231.572ZM267.898 257.796C288.652 260.769 309.004 250.234 318.558 231.572L313.218 228.838C304.831 245.219 286.966 254.466 268.749 251.857L267.898 257.796ZM245.767 169.652C210.366 195.695 224.393 251.565 267.898 257.796L268.749 251.857C230.561 246.387 218.248 197.345 249.323 174.485L245.767 169.652ZM255.046 162.827L245.767 169.652L249.323 174.485L258.601 167.66L255.046 162.827ZM258.682 160.1C257.222 160.969 255.903 161.974 254.752 163.073L258.894 167.414C259.715 166.631 260.672 165.898 261.751 165.255L258.682 160.1ZM278.419 162.092C276.551 158.859 273.095 157.389 269.609 157.185C266.105 156.979 262.221 157.993 258.682 160.1L261.751 165.255C264.407 163.674 267.113 163.049 269.258 163.175C271.42 163.301 272.669 164.133 273.225 165.094L278.419 162.092ZM270.529 180.441C274.069 178.334 276.824 175.394 278.346 172.212C279.857 169.055 280.28 165.311 278.419 162.092L273.225 165.094C273.788 166.068 273.895 167.615 272.934 169.623C271.985 171.606 270.115 173.705 267.46 175.285L270.529 180.441ZM268.072 181.706C268.9 181.343 269.722 180.922 270.529 180.441L267.46 175.285C266.864 175.64 266.263 175.948 265.663 176.211L268.072 181.706ZM259.396 188.179L268.645 181.375L265.09 176.542L255.841 183.346L259.396 188.179ZM271.159 235.029C248.036 231.717 240.58 202.021 259.396 188.179L255.841 183.346C232.698 200.371 241.868 236.895 270.308 240.968L271.159 235.029ZM298.086 221.09C293.007 231.009 282.19 236.609 271.159 235.029L270.308 240.968C283.876 242.911 297.18 236.024 303.426 223.825L298.086 221.09ZM312.491 192.954L298.086 221.09L303.426 223.825L317.832 195.688L312.491 192.954ZM297.013 141.091C315.57 149.052 322.873 172.676 312.491 192.954L317.832 195.688C329.498 172.902 321.701 145.153 299.378 135.577L297.013 141.091ZM234.535 129.276C254.173 126.594 275.92 132.043 297.013 141.091L299.378 135.577C277.862 126.347 254.927 120.435 233.723 123.331L234.535 129.276ZM182.694 149.745C198.635 139.83 216.993 131.672 234.535 129.276L233.723 123.331C215.043 125.882 195.87 134.484 179.525 144.65L182.694 149.745ZM148.312 177.792C154.243 170.704 166.731 159.674 182.694 149.745L179.525 144.65C163.17 154.823 150.148 166.247 143.71 173.942L148.312 177.792ZM128.882 216.792C132.207 199.946 142.05 185.276 148.312 177.792L143.71 173.942C137.114 181.825 126.592 197.406 122.995 215.63L128.882 216.792ZM147.286 268.699C128.272 251.175 125.719 232.818 128.882 216.792L122.995 215.63C119.476 233.466 122.5 254.015 143.219 273.111L147.286 268.699ZM189.795 289.554C171.273 284.462 156.556 277.243 147.286 268.699L143.219 273.111C153.467 282.556 169.201 290.115 188.205 295.339L189.795 289.554ZM250.767 297.477C229.359 297.315 208.144 294.598 189.795 289.554L188.205 295.339C207.126 300.54 228.868 303.311 250.722 303.476L250.767 297.477ZM311.853 290.293C293.425 295.242 272.18 297.639 250.767 297.477L250.722 303.476C272.578 303.642 294.373 301.2 313.409 296.088L311.853 290.293ZM354.806 268.846C345.283 277.956 330.433 285.304 311.853 290.293L313.409 296.088C332.518 290.957 348.431 283.248 358.954 273.181L354.806 268.846ZM389.184 197.706C385.645 223.21 375.353 249.19 354.806 268.846L358.954 273.181C380.717 252.361 391.454 225.003 395.127 198.531L389.184 197.706ZM383.587 133.14C389.313 147.953 392.744 172.055 389.184 197.706L395.127 198.531C398.81 171.988 395.317 146.846 389.183 130.977L383.587 133.14ZM338.521 82.9259C362.242 100.051 378.21 119.234 383.587 133.14L389.183 130.977C383.216 115.542 366.215 95.519 342.033 78.0611L338.521 82.9259ZM254.632 47.7783C285.559 52.1784 315.1 66.018 338.521 82.9259L342.033 78.0611C317.994 60.7073 287.556 46.4021 255.477 41.8382L254.632 47.7783ZM157.542 64.4846C189.887 51.814 224.435 43.482 254.632 47.7783L255.477 41.8382C223.747 37.3238 188.033 46.0963 155.353 58.898L157.542 64.4846ZM78.9343 103.619C96.8905 93.3439 125.425 77.0659 157.542 64.4846L155.353 58.898C122.783 71.6571 93.906 88.1388 75.9544 98.411L78.9343 103.619ZM71.116 112.47C74.0638 107.494 76.8042 104.838 78.9343 103.619L75.9544 98.411C72.595 100.333 69.1973 103.937 65.9538 109.412L71.116 112.47ZM63.1452 131.666C65.517 123.824 68.2188 117.36 71.116 112.47L65.9538 109.412C62.7348 114.846 59.863 121.793 57.4022 129.929L63.1452 131.666ZM54.1833 188.024C55.3577 167.256 58.4021 147.346 63.1452 131.666L57.4022 129.929C52.4808 146.199 49.3848 166.608 48.1929 187.685L54.1833 188.024ZM56.2642 247.771C53.7289 229.839 53.0113 208.749 54.1833 188.024L48.1929 187.685C47.0021 208.742 47.7248 230.232 50.3233 248.61L56.2642 247.771ZM67.979 286.287C63.1704 279.57 58.8703 266.203 56.2642 247.771L50.3233 248.61C52.9554 267.226 57.404 281.823 63.1003 289.78L67.979 286.287ZM82.3388 298.658C74.6312 293.376 70.0279 289.149 67.979 286.287L63.1003 289.78C65.7789 293.522 71.0979 298.228 78.9467 303.608L82.3388 298.658ZM110.394 315.048C99.3547 309.332 89.8044 303.775 82.3388 298.658L78.9467 303.608C86.6819 308.909 96.4629 314.591 107.636 320.376L110.394 315.048ZM186.753 347.959C159.784 338.181 132.458 326.472 110.394 315.048L107.636 320.376C129.973 331.942 157.545 343.751 184.708 353.599L186.753 347.959ZM259.863 369.029C239.992 365.449 213.786 357.759 186.753 347.959L184.708 353.599C211.902 363.458 238.462 371.27 258.799 374.934L259.863 369.029ZM282.814 371.079C277.636 371.467 269.899 370.838 259.863 369.029L258.799 374.934C269.015 376.775 277.334 377.506 283.262 377.063L282.814 371.079ZM283.978 370.97C283.621 371.011 283.233 371.048 282.814 371.079L283.262 377.063C283.758 377.025 284.226 376.981 284.667 376.93L283.978 370.97ZM286.792 375.653C287.974 373.939 289.72 372.282 291.944 370.97L288.897 365.802C285.969 367.529 283.561 369.771 281.853 372.246L286.792 375.653ZM291.944 370.97C294.936 369.206 298.028 368.516 300.527 368.694C303.042 368.872 304.647 369.872 305.406 371.159L310.574 368.111C308.528 364.64 304.797 362.982 300.953 362.709C297.093 362.434 292.803 363.499 288.897 365.802L291.944 370.97ZM305.406 371.159C306.165 372.445 306.263 374.334 305.202 376.621C304.148 378.894 302.048 381.265 299.056 383.03L302.103 388.198C306.009 385.895 309.017 382.655 310.645 379.145C312.267 375.649 312.621 371.582 310.574 368.111L305.406 371.159ZM299.056 383.03C298.515 383.349 297.968 383.634 297.421 383.885L299.927 389.337C300.66 389 301.387 388.621 302.103 388.198L299.056 383.03ZM296.534 391.273C297.838 390.688 299.159 389.956 300.424 389.048L296.924 384.174C296.026 384.819 295.062 385.357 294.078 385.798L296.534 391.273ZM284.531 394.015C288.545 393.715 292.755 392.968 296.534 391.273L294.078 385.798C291.175 387.101 287.728 387.759 284.083 388.032L284.531 394.015ZM255.785 391.665C266.514 393.598 276.482 394.618 284.531 394.015L284.083 388.032C276.782 388.578 267.396 387.66 256.849 385.76L255.785 391.665ZM178.914 369.581C206.564 379.606 234.127 387.763 255.785 391.665L256.849 385.76C235.657 381.942 208.448 373.907 180.959 363.941L178.914 369.581ZM99.8189 335.472C122.934 347.441 151.202 359.534 178.914 369.581L180.959 363.941C153.44 353.964 125.418 341.971 102.578 330.144L99.8189 335.472ZM69.3357 317.63C77.8349 323.455 88.2696 329.492 99.8189 335.472L102.578 330.144C91.1614 324.233 80.9574 318.321 72.7278 312.681L69.3357 317.63ZM49.2773 299.676C53.7361 305.904 61.0759 311.969 69.3357 317.63L72.7278 312.681C64.6144 307.12 57.987 301.535 54.156 296.183L49.2773 299.676ZM33.4907 250.99C36.198 270.138 41.0697 288.211 49.2773 299.676L54.156 296.183C46.8343 285.956 42.1122 269.109 39.4317 250.15L33.4907 250.99ZM31.22 186.725C29.976 208.723 30.7132 231.345 33.4907 250.99L39.4317 250.15C36.7173 230.952 35.9852 208.73 37.2104 187.064L31.22 186.725ZM41.1303 125.007C35.7039 142.946 32.4616 164.77 31.22 186.725L37.2104 187.064C38.4345 165.419 41.6251 144.094 46.8733 126.744L41.1303 125.007ZM51.3277 100.747C47.1971 107.72 43.8433 116.038 41.1303 125.007L46.8733 126.744C49.4973 118.069 52.681 110.235 56.4898 103.805L51.3277 100.747ZM67.5113 83.6559C60.667 87.5723 55.4073 93.8606 51.3277 100.747L56.4898 103.805C60.2745 97.4166 64.877 92.0761 70.4912 88.8636L67.5113 83.6559ZM149.153 43.0692C115.296 56.3321 85.4513 73.3903 67.5113 83.6559L70.4912 88.8636C88.435 78.5958 117.938 61.741 151.341 48.6558L149.153 43.0692Z" fill="#A95B00" mask="url(#path-2-inside-1)"/>
<ellipse cx="284" cy="306.5" rx="5" ry="4.5" fill="#CD6B10"/>
<ellipse cx="284" cy="306.5" rx="5" ry="4.5" fill="#CD6B10"/>
<ellipse cx="284" cy="306.5" rx="5" ry="4.5" fill="#FFB877"/>
<ellipse cx="194" cy="300.5" rx="5" ry="4.5" fill="#CD6B10"/>
<ellipse cx="194" cy="300.5" rx="5" ry="4.5" fill="#CD6B10"/>
<ellipse cx="194" cy="300.5" rx="5" ry="4.5" fill="#CD6B10"/>
<ellipse cx="122" cy="252" rx="5" ry="4" fill="#CD6B10"/>
<ellipse cx="122" cy="252" rx="5" ry="4" fill="#CD6B10"/>
<ellipse cx="122" cy="252" rx="5" ry="4" fill="#FFB877"/>
<circle cx="41.5" cy="206.5" r="4.5" fill="#CD6B10"/>
<circle cx="41.5" cy="206.5" r="4.5" fill="#CD6B10"/>
<circle cx="41.5" cy="206.5" r="4.5" fill="#CD6B10"/>
<circle cx="65.5" cy="300.5" r="4.5" fill="#CD6B10"/>
<circle cx="65.5" cy="300.5" r="4.5" fill="#CD6B10"/>
<circle cx="65.5" cy="300.5" r="4.5" fill="#CD6B10"/>
<circle cx="136.5" cy="342.5" r="4.5" fill="#CD6B10"/>
<circle cx="136.5" cy="342.5" r="4.5" fill="#CD6B10"/>
<circle cx="136.5" cy="342.5" r="4.5" fill="#FFB877"/>
<ellipse cx="277" cy="380.5" rx="5" ry="4.5" fill="#CD6B10"/>
<ellipse cx="277" cy="380.5" rx="5" ry="4.5" fill="#CD6B10"/>
<ellipse cx="277" cy="380.5" rx="5" ry="4.5" fill="#CD6B10"/>
<circle cx="377.5" cy="254.5" r="4.5" fill="#CD6B10"/>
<circle cx="377.5" cy="254.5" r="4.5" fill="#CD6B10"/>
<circle cx="377.5" cy="254.5" r="4.5" fill="#CD6B10"/>
<ellipse cx="399" cy="155" rx="5" ry="4" fill="#CD6B10"/>
<ellipse cx="399" cy="155" rx="5" ry="4" fill="#CD6B10"/>
<ellipse cx="399" cy="155" rx="5" ry="4" fill="#FFB877"/>
<ellipse cx="324" cy="59.5" rx="5" ry="4.5" fill="#CD6B10"/>
<ellipse cx="324" cy="59.5" rx="5" ry="4.5" fill="#CD6B10"/>
<ellipse cx="324" cy="59.5" rx="5" ry="4.5" fill="#CD6B10"/>
<ellipse cx="225" cy="32.5" rx="5" ry="4.5" fill="#CD6B10"/>
<ellipse cx="225" cy="32.5" rx="5" ry="4.5" fill="#CD6B10"/>
<ellipse cx="225" cy="32.5" rx="5" ry="4.5" fill="#CD6B10"/>
<ellipse cx="146" cy="55" rx="5" ry="4" fill="#CD6B10"/>
<ellipse cx="146" cy="55" rx="5" ry="4" fill="#CD6B10"/>
<ellipse cx="146" cy="55" rx="5" ry="4" fill="#FFB877"/>
<ellipse cx="72" cy="95.5" rx="5" ry="4.5" fill="#CD6B10"/>
<ellipse cx="72" cy="95.5" rx="5" ry="4.5" fill="#CD6B10"/>
<ellipse cx="72" cy="95.5" rx="5" ry="4.5" fill="#FFB877"/>
<ellipse cx="136.5" cy="172" rx="4.5" ry="4" fill="#CD6B10"/>
<ellipse cx="136.5" cy="172" rx="4.5" ry="4" fill="#CD6B10"/>
<ellipse cx="136.5" cy="172" rx="4.5" ry="4" fill="#CD6B10"/>
<ellipse cx="218.5" cy="121" rx="4.5" ry="4" fill="#CD6B10"/>
<ellipse cx="218.5" cy="121" rx="4.5" ry="4" fill="#CD6B10"/>
<ellipse cx="218.5" cy="121" rx="4.5" ry="4" fill="#FFB877"/>
<ellipse cx="324" cy="143.5" rx="5" ry="4.5" fill="#CD6B10"/>
<ellipse cx="324" cy="143.5" rx="5" ry="4.5" fill="#CD6B10"/>
<ellipse cx="324" cy="143.5" rx="5" ry="4.5" fill="#CD6B10"/>
<ellipse cx="317" cy="215" rx="5" ry="4" fill="#CD6B10"/>
<ellipse cx="317" cy="215" rx="5" ry="4" fill="#CD6B10"/>
<ellipse cx="317" cy="215" rx="5" ry="4" fill="#CD6B10"/>
<ellipse cx="262" cy="243.5" rx="5" ry="4.5" fill="#CD6B10"/>
<ellipse cx="262" cy="243.5" rx="5" ry="4.5" fill="#CD6B10"/>
<ellipse cx="262" cy="243.5" rx="5" ry="4.5" fill="#CD6B10"/>
<ellipse cx="254" cy="176.5" rx="5" ry="4.5" fill="#CD6B10"/>
<ellipse cx="254" cy="176.5" rx="5" ry="4.5" fill="#CD6B10"/>
<ellipse cx="254" cy="176.5" rx="5" ry="4.5" fill="#FFB877"/>
</svg>
