<svg width="592" height="571" viewBox="0 0 592 571" fill="none" xmlns="http://www.w3.org/2000/svg">
<path d="M127.717 303.201C77.6642 285.29 46.8331 248.717 49.1683 233.065C69.0287 228.322 92.363 238.622 142.416 256.533C192.469 274.444 234.327 284.896 231.264 294.621C214.099 320.938 177.771 321.113 127.717 303.201Z" fill="#FFC37D"/>
<path fill-rule="evenodd" clip-rule="evenodd" d="M46.843 238.931C37.1773 269.62 70.3025 309.155 120.83 327.236C171.358 345.317 220.154 335.097 229.82 304.408C231.028 300.57 231.568 296.594 231.488 292.539C221.866 313.675 176.658 317.007 128.092 299.628C83.2872 283.595 50.7406 255.344 49.3386 232.971C48.3344 234.862 47.4987 236.85 46.843 238.931ZM164.694 219.567C161.805 218.34 158.85 217.184 155.832 216.104C155.634 216.033 155.435 215.962 155.236 215.892C158.455 217.056 161.61 218.283 164.694 219.567Z" fill="#FF5656"/>
<path d="M143.816 268.088C125.676 261.807 113.326 250.221 113.976 247.725C114.627 245.23 128.007 252.43 146.147 258.712C164.286 264.993 178.495 268.32 177.844 270.815C177.193 273.31 161.956 274.37 143.816 268.088Z" fill="#FF7B51"/>
<path d="M225.132 441.029C180.583 470.038 132.81 472.452 121.762 461.121C130.004 442.439 152.324 430.095 196.873 401.086C241.422 372.076 275.072 345.078 280.961 353.401C291.525 382.991 269.68 412.019 225.132 441.029Z" fill="#FFC37D"/>
<path fill-rule="evenodd" clip-rule="evenodd" d="M125.025 466.522C143.607 492.788 195.128 490.34 240.098 461.056C285.069 431.771 306.461 386.739 287.879 360.473C285.555 357.188 282.715 354.352 279.438 351.962C290.443 372.412 265.739 410.42 222.513 438.568C182.636 464.536 140.45 473.351 121.79 460.928C122.688 462.872 123.764 464.74 125.025 466.522ZM180.924 360.98C178.2 362.537 175.491 364.191 172.805 365.94C172.628 366.055 172.452 366.17 172.276 366.286C175.15 364.428 178.036 362.659 180.924 360.98Z" fill="#FF5656"/>
<path d="M206.92 406.964C190.942 417.604 174.244 420.425 172.651 418.397C171.059 416.369 184.887 410.075 200.865 399.434C216.843 388.794 228.089 379.495 229.682 381.523C231.275 383.551 222.897 396.324 206.92 406.964Z" fill="#FF7B51"/>
<path d="M398.001 442.402C385.45 494.061 352.32 528.565 336.51 527.888C329.705 508.636 337.495 484.348 350.046 432.69C362.597 381.031 368.592 338.307 378.585 340.331C406.56 354.635 410.552 390.744 398.001 442.402Z" fill="#FFC37D"/>
<path fill-rule="evenodd" clip-rule="evenodd" d="M342.587 529.584C374.122 535.97 409.956 498.873 422.626 446.725C435.296 394.577 420.004 347.125 388.469 340.739C384.526 339.94 380.515 339.821 376.49 340.327C398.52 347.674 406.586 392.282 394.408 442.405C383.173 488.647 358.499 523.983 336.398 527.729C338.384 528.528 340.448 529.151 342.587 529.584ZM310.943 414.422C310.027 417.422 309.187 420.483 308.431 423.597C308.381 423.803 308.332 424.008 308.283 424.213C309.102 420.889 309.991 417.623 310.943 414.422Z" fill="#FF5656"/>
<path d="M361.391 430.083C357.051 448.783 346.826 462.283 344.277 461.898C341.727 461.513 347.481 447.45 351.821 428.751C356.161 410.051 357.975 395.572 360.525 395.957C363.075 396.342 365.731 411.384 361.391 430.083Z" fill="#FF7B51"/>
<path d="M177.705 162.634C160.199 112.438 169.287 65.4753 182.932 57.4598C199.099 69.9325 205.743 94.5583 223.25 144.754C240.757 194.95 258.919 234.084 249.428 237.81C218.169 240.986 195.212 212.83 177.705 162.634Z" fill="#FFC37D"/>
<path fill-rule="evenodd" clip-rule="evenodd" d="M176.907 59.3353C146.958 71.0929 137.006 121.702 154.679 172.374C172.352 223.046 210.957 254.592 240.906 242.834C244.652 241.364 248.084 239.286 251.19 236.676C228.7 242.467 197.708 209.386 180.721 160.681C165.05 115.748 166.586 72.678 183.112 57.5328C181.01 57.9394 178.939 58.5377 176.907 59.3353ZM266.007 138.865C265.147 135.848 264.19 132.822 263.134 129.796C263.065 129.596 262.995 129.397 262.925 129.199C264.041 132.435 265.068 135.66 266.007 138.865Z" fill="#FF5656"/>
<path d="M215.138 153.102C208.63 135.042 209.887 118.155 212.237 117.094C214.587 116.032 217.39 130.966 223.898 149.025C230.406 167.085 236.743 180.23 234.393 181.291C232.043 182.352 221.646 171.162 215.138 153.102Z" fill="#FF7B51"/>
<path d="M463.457 260.8C515.708 270.596 551.919 301.851 552.081 317.676C533.217 325.491 508.55 318.998 456.3 309.202C404.049 299.406 361.067 295.683 362.558 285.597C375.36 256.903 411.206 251.004 463.457 260.8Z" fill="#FFC37D"/>
<path fill-rule="evenodd" clip-rule="evenodd" d="M553.453 311.516C558.159 279.688 519.215 245.87 466.469 235.981C413.723 226.091 367.148 243.877 362.441 275.705C361.853 279.685 361.947 283.697 362.665 287.689C368.834 265.3 412.952 254.883 463.651 264.388C510.423 273.157 547.016 295.924 551.928 317.796C552.621 315.77 553.133 313.676 553.453 311.516ZM440.129 349.219C443.174 349.974 446.275 350.65 449.425 351.241C449.632 351.28 449.84 351.318 450.047 351.356C446.685 350.714 443.376 350 440.129 349.219Z" fill="#FF5656"/>
<path d="M453.095 298.012C471.999 301.355 486.021 310.85 485.772 313.416C485.523 315.983 471.175 310.982 452.272 307.639C433.369 304.296 418.813 303.251 419.063 300.684C419.312 298.118 434.192 294.669 453.095 298.012Z" fill="#FF7B51"/>
<path d="M348.24 124.067C373.434 77.2544 414.205 52.2378 429.332 56.8869C431.053 77.2333 417.38 98.7653 392.187 145.578C366.993 192.391 350.401 232.215 341.243 227.733C317.788 206.826 323.047 170.88 348.24 124.067Z" fill="#FFC37D"/>
<path fill-rule="evenodd" clip-rule="evenodd" d="M423.88 53.7106C394.981 39.5655 350.938 66.4075 325.506 113.664C300.074 160.92 302.884 210.696 331.782 224.841C335.396 226.61 339.247 227.738 343.269 228.265C323.809 215.592 327.273 170.394 351.718 124.972C374.269 83.0676 407.069 55.1107 429.4 57.0694C427.68 55.7938 425.84 54.6702 423.88 53.7106ZM425.407 173.132C427.051 170.46 428.637 167.71 430.156 164.888C430.256 164.702 430.355 164.516 430.454 164.33C428.822 167.339 427.137 170.275 425.407 173.132Z" fill="#FF5656"/>
<path d="M380.552 145.234C389.475 128.238 402.777 117.758 405.147 118.775C407.517 119.791 398.398 131.944 389.475 148.941C380.552 165.938 375.138 179.489 372.769 178.473C370.399 177.456 371.629 162.231 380.552 145.234Z" fill="#FF7B51"/>
</svg>
