<svg width="685" height="672" viewBox="0 0 685 672" fill="none" xmlns="http://www.w3.org/2000/svg">
<path d="M177.674 150.25C188.143 147.251 197.878 156.83 195.047 167.347L164.959 279.158C162.173 289.51 149.261 293.018 141.62 285.499L60.396 205.57C52.7547 198.051 56.0546 185.084 66.3607 182.132L177.674 150.25Z" fill="#FFE872"/>
<ellipse rx="6.47668" ry="2.77362" transform="matrix(0.967811 0.251678 -0.250411 0.96814 82.4587 215.661)" fill="#C4C4C4"/>
<ellipse rx="6.47014" ry="2.77642" transform="matrix(0.876127 -0.482081 0.482806 0.875727 103.57 237.136)" fill="#C4C4C4"/>
<ellipse rx="6.47583" ry="2.77398" transform="matrix(-0.175348 -0.984506 0.984756 -0.173943 124.307 257.363)" fill="#C4C4C4"/>
<path d="M625.532 341.599C635.086 346.828 635.272 360.484 625.865 365.972L525.852 424.319C516.592 429.721 504.944 423.137 504.798 412.417L503.244 298.472C503.098 287.753 514.561 280.853 523.965 286.001L625.532 341.599Z" fill="#FFE872"/>
<ellipse rx="6.47668" ry="2.77362" transform="matrix(0.511203 0.85946 -0.85879 0.512328 511.836 321.16)" fill="#C4C4C4"/>
<ellipse rx="6.47014" ry="2.77642" transform="matrix(0.961943 0.27325 -0.272453 0.962169 511.747 351.275)" fill="#C4C4C4"/>
<ellipse rx="6.47583" ry="2.77398" transform="matrix(0.56756 -0.823332 0.822521 0.568734 512.271 380.238)" fill="#C4C4C4"/>
<path d="M206.408 593.396C195.598 594.721 187.481 583.738 191.921 573.793L239.122 468.061C243.492 458.272 256.793 456.826 263.165 465.448L330.893 557.093C337.264 565.715 331.978 578.006 321.337 579.31L206.408 593.396Z" fill="#FFE872"/>
<ellipse rx="6.47668" ry="2.77362" transform="matrix(-0.916556 -0.399907 0.398707 -0.917078 310.679 543.677)" fill="#C4C4C4"/>
<ellipse rx="6.47014" ry="2.77642" transform="matrix(-0.940728 0.339163 -0.339942 -0.940446 293.186 519.165)" fill="#C4C4C4"/>
<ellipse rx="6.47583" ry="2.77398" transform="matrix(0.0192568 0.999815 -0.999841 0.0178299 275.866 495.944)" fill="#C4C4C4"/>
<path d="M298.845 283.773C298.575 272.886 310.293 265.873 319.761 271.256L420.414 328.492C429.733 333.791 429.882 347.17 420.683 352.675L322.9 411.193C313.7 416.698 301.98 410.244 301.715 399.526L298.845 283.773Z" fill="#FFE872"/>
<ellipse rx="6.47668" ry="2.77362" transform="matrix(0.486936 -0.873438 0.874074 0.485793 338.213 392.376)" fill="#C4C4C4"/>
<ellipse rx="6.47014" ry="2.77642" transform="matrix(-0.246303 -0.969193 0.968989 -0.247105 364.307 377.343)" fill="#C4C4C4"/>
<ellipse rx="6.47583" ry="2.77398" transform="matrix(-0.996967 -0.0778265 0.0792492 -0.996855 389.098 362.357)" fill="#C4C4C4"/>
<path d="M510.009 600.887C509.023 611.733 496.574 617.348 487.79 610.909L394.405 542.453C385.759 536.114 387.153 522.808 396.926 518.4L500.803 471.544C510.575 467.136 521.473 474.898 520.502 485.574L510.009 600.887Z" fill="#FFE872"/>
<ellipse rx="6.47668" ry="2.77362" transform="matrix(-0.584374 0.811485 -0.812249 -0.583311 483.422 488.47)" fill="#C4C4C4"/>
<ellipse rx="6.47014" ry="2.77642" transform="matrix(0.132939 0.991124 -0.991014 0.13376 455.769 500.395)" fill="#C4C4C4"/>
<ellipse rx="6.47583" ry="2.77398" transform="matrix(0.98135 0.192231 -0.193631 0.981074 429.416 512.422)" fill="#C4C4C4"/>
<path d="M544.169 188.57C548.668 198.488 540.617 209.519 529.799 208.259L414.789 194.857C404.14 193.616 398.78 181.357 405.101 172.697L472.282 80.6507C478.602 71.9912 491.912 73.358 496.34 83.1212L544.169 188.57Z" fill="#FFE872"/>
<ellipse rx="6.47668" ry="2.77362" transform="matrix(-0.107336 0.994223 -0.994362 -0.106035 465.529 103.952)" fill="#C4C4C4"/>
<ellipse rx="6.47014" ry="2.77642" transform="matrix(0.605106 0.796145 -0.795644 0.605765 447.374 127.979)" fill="#C4C4C4"/>
<ellipse rx="6.47583" ry="2.77398" transform="matrix(0.948246 -0.317536 0.316182 0.948698 430.399 151.453)" fill="#C4C4C4"/>
<path d="M250.044 198.354C239.94 202.419 229.268 193.898 230.995 183.145L249.365 68.8221C251.066 58.2374 263.545 53.4136 271.923 60.1028L360.974 131.207C369.352 137.896 367.41 151.134 357.464 155.136L250.044 198.354Z" fill="#FFE872"/>
<ellipse rx="6.47668" ry="2.77362" transform="matrix(-0.988642 -0.150286 0.148992 -0.988838 337.987 123.451)" fill="#C4C4C4"/>
<ellipse rx="6.47014" ry="2.77642" transform="matrix(-0.8216 0.570064 -0.570744 -0.821128 314.769 104.273)" fill="#C4C4C4"/>
<ellipse rx="6.47583" ry="2.77398" transform="matrix(0.276178 0.961106 -0.9615 0.274806 292.052 86.2978)" fill="#C4C4C4"/>
<path d="M169.508 333.475C178.33 327.089 190.745 332.778 191.667 343.63L201.473 459.003C202.381 469.685 191.437 477.382 181.691 472.916L78.0943 425.442C68.3483 420.976 67.0331 407.661 75.7169 401.375L169.508 333.475Z" fill="#FFE872"/>
<ellipse rx="6.47668" ry="2.77362" transform="matrix(0.995656 -0.0931128 0.0944159 0.995533 102.275 427.412)" fill="#C4C4C4"/>
<ellipse rx="6.47014" ry="2.77642" transform="matrix(0.659465 -0.751736 0.752281 0.658842 129.44 440.41)" fill="#C4C4C4"/>
<ellipse rx="6.47583" ry="2.77398" transform="matrix(-0.500279 -0.865864 0.866577 -0.499043 155.827 452.362)" fill="#C4C4C4"/>
</svg>
