<svg width="474" height="472" viewBox="0 0 474 472" fill="none" xmlns="http://www.w3.org/2000/svg">
<line y1="-2.5" x2="39.7355" y2="-2.5" transform="matrix(-0.743117 0.669161 -0.676192 -0.736726 103.071 145.585)" stroke="white" stroke-width="5"/>
<line y1="-2.5" x2="39.7355" y2="-2.5" transform="matrix(-0.743117 0.669162 -0.676191 -0.736726 152.5 131.597)" stroke="#FAFF00" stroke-width="5"/>
<line y1="-2.5" x2="37.0984" y2="-2.5" transform="matrix(-0.244723 0.969593 -0.970682 -0.240366 194.731 232.819)" stroke="white" stroke-width="5"/>
<line y1="-2.5" x2="39.8593" y2="-2.5" transform="matrix(0.936396 0.350946 -0.356856 0.934159 173.548 247.806)" stroke="#FAFF00" stroke-width="5"/>
<line y1="-2.5" x2="39.5434" y2="-2.5" transform="matrix(0.205934 0.978566 -0.979344 0.202201 213.898 182.86)" stroke="white" stroke-width="5"/>
<path d="M359.627 62.959L348.919 99.5906" stroke="#FAFF00" stroke-width="5"/>
<line y1="-2.5" x2="39.8593" y2="-2.5" transform="matrix(0.936396 0.350946 -0.356856 0.93416 247.187 215.833)" stroke="#FAFF00" stroke-width="5"/>
<line y1="-2.5" x2="39.8593" y2="-2.5" transform="matrix(0.936396 0.350946 -0.356856 0.93416 279.467 177.864)" stroke="#FAFF00" stroke-width="5"/>
<line y1="-2.5" x2="39.5916" y2="-2.5" transform="matrix(0.413594 -0.910461 0.913392 0.407081 319.196 237.853)" stroke="#FAFF00" stroke-width="5"/>
<line y1="-2.5" x2="39.5688" y2="-2.5" transform="matrix(-0.332099 0.943245 -0.945199 -0.326495 262.345 173.867)" stroke="white" stroke-width="5"/>
<line y1="-2.5" x2="39.5296" y2="-2.5" transform="matrix(-0.0752447 -0.997165 0.997271 -0.0738297 363.142 245.259)" stroke="#FAFF00" stroke-width="5"/>
<line y1="-2.5" x2="39.8593" y2="-2.5" transform="matrix(0.936396 0.350946 -0.356855 0.93416 359.159 262.794)" stroke="#FAFF00" stroke-width="5"/>
<line y1="-2.5" x2="39.5296" y2="-2.5" transform="matrix(-0.0752447 -0.997165 0.997271 -0.0738297 396.431 241.262)" stroke="#FAFF00" stroke-width="5"/>
<line y1="-2.5" x2="39.5434" y2="-2.5" transform="matrix(0.205934 0.978566 -0.979344 0.202201 288.546 134.9)" stroke="white" stroke-width="5"/>
<line y1="-2.5" x2="39.8593" y2="-2.5" transform="matrix(0.936395 0.350947 -0.356855 0.93416 403.544 161.877)" stroke="#FAFF00" stroke-width="5"/>
<line y1="-2.5" x2="39.5296" y2="-2.5" transform="matrix(-0.0752448 -0.997165 0.997271 -0.0738297 420.641 225.275)" stroke="#FAFF00" stroke-width="5"/>
<line y1="-2.5" x2="39.8593" y2="-2.5" transform="matrix(0.936396 0.350946 -0.356856 0.93416 363.194 170.87)" stroke="#FAFF00" stroke-width="5"/>
<line y1="-2.5" x2="39.5296" y2="-2.5" transform="matrix(-0.0752447 -0.997165 0.997271 -0.0738297 360.142 191.578)" stroke="#FAFF00" stroke-width="5"/>
<line y1="-2.5" x2="39.5711" y2="-2.5" transform="matrix(0.341186 0.939996 -0.942052 0.335468 197.564 141.281)" stroke="#FAFF00" stroke-width="5"/>
<line y1="-2.5" x2="39.5296" y2="-2.5" transform="matrix(-0.0752446 -0.997165 0.997271 -0.0738299 79.681 130.353)" stroke="#FAFF00" stroke-width="5"/>
<line y1="-2.5" x2="39.8593" y2="-2.5" transform="matrix(0.936396 0.350946 -0.356856 0.934159 310.739 250.804)" stroke="#FAFF00" stroke-width="5"/>
<line y1="-2.5" x2="39.8593" y2="-2.5" transform="matrix(0.936396 0.350946 -0.356855 0.93416 259.292 96.9309)" stroke="white" stroke-width="5"/>
<line y1="-2.5" x2="39.8593" y2="-2.5" transform="matrix(0.936396 0.350946 -0.356856 0.93416 239.117 79.9448)" stroke="#FAFF00" stroke-width="5"/>
<line y1="-2.5" x2="39.8593" y2="-2.5" transform="matrix(0.936396 0.350946 -0.356856 0.93416 363.194 116.914)" stroke="#FAFF00" stroke-width="5"/>
<line y1="-2.5" x2="39.8593" y2="-2.5" transform="matrix(0.936396 0.350946 -0.356855 0.93416 198.766 45.9729)" stroke="#FAFF00" stroke-width="5"/>
<line y1="-2.5" x2="39.6213" y2="-2.5" transform="matrix(0.500163 0.865932 -0.870018 0.49302 286.528 67.9548)" stroke="#FAFF00" stroke-width="5"/>
<line y1="-2.5" x2="39.6213" y2="-2.5" transform="matrix(0.500162 0.865932 -0.870018 0.49302 306.704 65.9563)" stroke="#FAFF00" stroke-width="5"/>
<line y1="-2.5" x2="39.6213" y2="-2.5" transform="matrix(0.500163 0.865931 -0.870018 0.49302 271.397 110.919)" stroke="#FAFF00" stroke-width="5"/>
<line y1="-2.5" x2="39.8593" y2="-2.5" transform="matrix(0.936396 0.350946 -0.356856 0.93416 190.696 85.9399)" stroke="white" stroke-width="5"/>
<line y1="-2.5" x2="39.5994" y2="-2.5" transform="matrix(0.438202 0.898877 -0.902127 0.431471 117.057 86.9392)" stroke="#FAFF00" stroke-width="5"/>
<line y1="-2.5" x2="39.6213" y2="-2.5" transform="matrix(0.500162 0.865932 -0.870018 0.49302 166.486 93.9333)" stroke="#FAFF00" stroke-width="5"/>
<line y1="-2.5" x2="39.8593" y2="-2.5" transform="matrix(0.936396 0.350946 -0.356855 0.93416 127.145 64.9573)" stroke="white" stroke-width="5"/>
<line y1="-2.5" x2="39.8593" y2="-2.5" transform="matrix(0.936396 0.350946 -0.356855 0.93416 160.434 58.9622)" stroke="#FAFF00" stroke-width="5"/>
<line y1="-2.5" x2="39.7355" y2="-2.5" transform="matrix(-0.743117 0.669161 -0.676192 -0.736726 157.544 242.505)" stroke="#FAFF00" stroke-width="5"/>
<line y1="-2.5" x2="39.8593" y2="-2.5" transform="matrix(0.936396 0.350946 -0.356855 0.93416 178.591 145.891)" stroke="#FAFF00" stroke-width="5"/>
<path d="M170.405 157.543L156.903 181.361" stroke="#FAFF00" stroke-width="5"/>
<line y1="-2.5" x2="44.278" y2="-2.5" transform="matrix(0.318953 0.947771 -0.949581 0.313521 160.434 173.867)" stroke="white" stroke-width="5"/>
<path d="M257.274 156.12L293.202 138.473" stroke="#FAFF00" stroke-width="5"/>
<line y1="-2.5" x2="39.8593" y2="-2.5" transform="matrix(0.936396 0.350946 -0.356856 0.93416 370.255 83.9417)" stroke="#FAFF00" stroke-width="5"/>
<line y1="-2.5" x2="38.8077" y2="-2.5" transform="matrix(0.805807 0.592178 -0.599514 0.800365 133.197 215.833)" stroke="#FAFF00" stroke-width="5"/>
<line y1="-2.5" x2="56.9009" y2="-2.5" transform="matrix(0.478666 0.877997 -0.88179 0.471643 389.422 292.77)" stroke="#FAFF00" stroke-width="5"/>
<line y1="-2.5" x2="39.8593" y2="-2.5" transform="matrix(0.936396 0.350946 -0.356856 0.93416 229.029 238.814)" stroke="white" stroke-width="5"/>
<line y1="-2.5" x2="39.8593" y2="-2.5" transform="matrix(0.936396 0.350946 -0.356855 0.93416 105.961 257.798)" stroke="#FAFF00" stroke-width="5"/>
<path d="M127.145 257.299L135.098 283.439" stroke="#FAFF00" stroke-width="5"/>
<line y1="-2.5" x2="39.8593" y2="-2.5" transform="matrix(0.936395 0.350947 -0.356855 0.93416 87.8031 285.775)" stroke="#FAFF00" stroke-width="5"/>
<line y1="-2.5" x2="39.6226" y2="-2.5" transform="matrix(-0.503583 0.863947 -0.868079 -0.496426 296.394 235.816)" stroke="white" stroke-width="5"/>
<line y1="-2.5" x2="39.8593" y2="-2.5" transform="matrix(0.936396 0.350946 -0.356856 0.93416 83.768 327.741)" stroke="#FAFF00" stroke-width="5"/>
<line y1="-2.5" x2="45.4381" y2="-2.5" transform="matrix(0.999032 -0.0439797 0.0448256 0.998995 40.3914 286.774)" stroke="#FAFF00" stroke-width="5"/>
<line y1="-2.5" x2="39.7355" y2="-2.5" transform="matrix(-0.743117 0.669162 -0.676191 -0.736726 123.246 178.558)" stroke="#FAFF00" stroke-width="5"/>
<line y1="-2.5" x2="39.8593" y2="-2.5" transform="matrix(0.936396 0.350946 -0.356855 0.93416 212.889 130.903)" stroke="#FAFF00" stroke-width="5"/>
<line y1="-2.5" x2="39.6213" y2="-2.5" transform="matrix(0.500162 0.865932 -0.870018 0.49302 333.94 308.756)" stroke="#FAFF00" stroke-width="5"/>
<line y1="-2.5" x2="39.6213" y2="-2.5" transform="matrix(0.500161 0.865932 -0.870017 0.493021 308.721 135.899)" stroke="#FAFF00" stroke-width="5"/>
<line y1="-2.5" x2="39.6213" y2="-2.5" transform="matrix(0.500162 0.865932 -0.870018 0.49302 177.257 185.689)" stroke="#FAFF00" stroke-width="5"/>
<line y1="-2.5" x2="39.7355" y2="-2.5" transform="matrix(-0.743117 0.669161 -0.676192 -0.736726 88.0772 305.759)" stroke="#FAFF00" stroke-width="5"/>
<line y1="-2.5" x2="39.7355" y2="-2.5" transform="matrix(-0.743117 0.669161 -0.676192 -0.736726 356.407 320.746)" stroke="white" stroke-width="5"/>
<line y1="-2.5" x2="39.8593" y2="-2.5" transform="matrix(0.936396 0.350946 -0.356855 0.93416 124.118 189.854)" stroke="white" stroke-width="5"/>
<line y1="-2.5" x2="39.8882" y2="-2.5" transform="matrix(-0.975794 0.218693 -0.2227 -0.974887 362.113 122.85)" stroke="white" stroke-width="5"/>
<line y1="-2.5" x2="39.7355" y2="-2.5" transform="matrix(-0.743117 0.669162 -0.676191 -0.736726 341.276 275.783)" stroke="#FAFF00" stroke-width="5"/>
<line y1="-2.5" x2="39.7355" y2="-2.5" transform="matrix(-0.743117 0.669162 -0.676191 -0.736726 233.201 297.46)" stroke="#FAFF00" stroke-width="5"/>
<line y1="-2.5" x2="39.8593" y2="-2.5" transform="matrix(0.936396 0.350946 -0.356856 0.93416 154.381 265.792)" stroke="#FAFF00" stroke-width="5"/>
<line y1="-2.5" x2="39.8593" y2="-2.5" transform="matrix(0.936396 0.350946 -0.356856 0.93416 257.274 241.812)" stroke="#FAFF00" stroke-width="5"/>
<line y1="-2.5" x2="37.9821" y2="-2.5" transform="matrix(-0.0265588 0.999647 -0.99966 -0.026057 168.504 279.78)" stroke="#FAFF00" stroke-width="5"/>
<line y1="-2.5" x2="39.8593" y2="-2.5" transform="matrix(0.936396 0.350946 -0.356855 0.93416 268.371 280.779)" stroke="#FAFF00" stroke-width="5"/>
<line y1="-2.5" x2="39.8593" y2="-2.5" transform="matrix(0.936395 0.350947 -0.356855 0.93416 89.8206 356.717)" stroke="#FAFF00" stroke-width="5"/>
<line y1="-2.5" x2="39.8593" y2="-2.5" transform="matrix(0.936396 0.350946 -0.356856 0.93416 144.294 315.75)" stroke="#FAFF00" stroke-width="5"/>
<line y1="-2.5" x2="39.8593" y2="-2.5" transform="matrix(0.936395 0.350947 -0.356855 0.93416 413.632 273.785)" stroke="#FAFF00" stroke-width="5"/>
<line y1="-2.5" x2="39.7355" y2="-2.5" transform="matrix(-0.743117 0.669161 -0.676192 -0.736726 63.867 134.9)" stroke="#FAFF00" stroke-width="5"/>
<line y1="-2.5" x2="39.7189" y2="-2.5" transform="matrix(-0.713238 0.700922 -0.707698 -0.706515 171.068 338.8)" stroke="#FAFF00" stroke-width="5"/>
<line y1="-2.5" x2="56.8002" y2="-2.5" transform="matrix(-0.745909 0.666048 -0.673098 -0.739553 417.667 291.77)" stroke="#FAFF00" stroke-width="5"/>
<line y1="-2.5" x2="39.719" y2="-2.5" transform="matrix(-0.713237 0.700922 -0.707697 -0.706516 161.526 382.695)" stroke="#FAFF00" stroke-width="5"/>
<line y1="-2.5" x2="39.8593" y2="-2.5" transform="matrix(0.936396 0.350946 -0.356856 0.93416 178.591 28.9868)" stroke="#FAFF00" stroke-width="5"/>
<line y1="-2.5" x2="39.8593" y2="-2.5" transform="matrix(0.936396 0.350946 -0.356855 0.93416 413.632 235.816)" stroke="#FAFF00" stroke-width="5"/>
<line y1="-2.5" x2="39.5296" y2="-2.5" transform="matrix(-0.0752448 -0.997165 0.997271 -0.0738297 459 242.536)" stroke="white" stroke-width="5"/>
<line y1="-2.5" x2="36.4984" y2="-2.5" transform="matrix(0.608046 0.793902 -0.799457 0.600724 209.863 262.794)" stroke="#FAFF00" stroke-width="5"/>
<line y1="-2.5" x2="39.8593" y2="-2.5" transform="matrix(0.936396 0.350946 -0.356856 0.934159 237.099 302.761)" stroke="#FAFF00" stroke-width="5"/>
<line y1="-2.5" x2="39.5291" y2="-2.5" transform="matrix(-0.0655977 0.997846 -0.997927 -0.064363 297.192 302.761)" stroke="#FAFF00" stroke-width="5"/>
<line y1="-2.5" x2="39.8593" y2="-2.5" transform="matrix(0.936396 0.350946 -0.356856 0.93416 345.036 291.77)" stroke="#FAFF00" stroke-width="5"/>
<line y1="-2.5" x2="39.719" y2="-2.5" transform="matrix(-0.713238 0.700922 -0.707698 -0.706516 251.769 337.801)" stroke="white" stroke-width="5"/>
<line y1="-2.5" x2="39.719" y2="-2.5" transform="matrix(-0.713238 0.700922 -0.707698 -0.706516 291.656 387.691)" stroke="#FAFF00" stroke-width="5"/>
<line y1="-2.5" x2="39.8593" y2="-2.5" transform="matrix(0.936396 0.350946 -0.356856 0.93416 294.599 363.711)" stroke="white" stroke-width="5"/>
<line y1="-2.5" x2="39.8593" y2="-2.5" transform="matrix(0.936396 0.350946 -0.356856 0.93416 200.784 386.692)" stroke="#FAFF00" stroke-width="5"/>
<line y1="-2.5" x2="39.8593" y2="-2.5" transform="matrix(0.936396 0.350946 -0.356855 0.93416 206.837 327.741)" stroke="#FAFF00" stroke-width="5"/>
<line y1="-2.5" x2="39.719" y2="-2.5" transform="matrix(-0.713237 0.700922 -0.707697 -0.706516 266.437 363.711)" stroke="#FAFF00" stroke-width="5"/>
<line y1="-2.5" x2="39.7189" y2="-2.5" transform="matrix(-0.713238 0.700922 -0.707698 -0.706515 193.261 352.789)" stroke="#FAFF00" stroke-width="5"/>
<line y1="-2.5" x2="39.8593" y2="-2.5" transform="matrix(0.936396 0.350946 -0.356855 0.93416 122.101 318.748)" stroke="#FAFF00" stroke-width="5"/>
<path d="M83.839 208.839L99.9791 248.306" stroke="#FAFF00" stroke-width="5"/>
<line y1="-2.5" x2="39.7355" y2="-2.5" transform="matrix(-0.743117 0.669161 -0.676192 -0.736726 78.8609 230.515)" stroke="#FAFF00" stroke-width="5"/>
<line y1="-2.5" x2="39.7355" y2="-2.5" transform="matrix(-0.743117 0.669162 -0.676191 -0.736726 40.5281 189.549)" stroke="#FAFF00" stroke-width="5"/>
<line y1="-2.5" x2="39.8593" y2="-2.5" transform="matrix(0.936396 0.350946 -0.356855 0.93416 188.679 414.669)" stroke="white" stroke-width="5"/>
<line y1="-2.5" x2="39.8593" y2="-2.5" transform="matrix(0.936395 0.350947 -0.356855 0.93416 280.476 345.726)" stroke="#FAFF00" stroke-width="5"/>
<line y1="-2.5" x2="39.8593" y2="-2.5" transform="matrix(0.936396 0.350946 -0.356855 0.93416 212.889 174.867)" stroke="#FAFF00" stroke-width="5"/>
<line y1="-2.5" x2="35.7383" y2="-2.5" transform="matrix(0.310489 0.950577 -0.952298 0.30517 229.029 243.81)" stroke="#FAFF00" stroke-width="5"/>
<line y1="-2.5" x2="39.8593" y2="-2.5" transform="matrix(0.936396 0.350946 -0.356856 0.93416 266.353 220.829)" stroke="#FAFF00" stroke-width="5"/>
<line y1="-2.5" x2="39.8593" y2="-2.5" transform="matrix(0.936395 0.350947 -0.356855 0.93416 83.768 150.886)" stroke="#FAFF00" stroke-width="5"/>
<line y1="-2.5" x2="39.8593" y2="-2.5" transform="matrix(0.936396 0.350946 -0.356855 0.93416 217.933 109.92)" stroke="#FAFF00" stroke-width="5"/>
<line y1="-2.5" x2="39.8593" y2="-2.5" transform="matrix(0.936396 0.350946 -0.356856 0.93416 260.301 26.9885)" stroke="#FAFF00" stroke-width="5"/>
<line y1="-2.5" x2="39.7355" y2="-2.5" transform="matrix(-0.743117 0.669161 -0.676192 -0.736726 378.6 362.712)" stroke="#FAFF00" stroke-width="5"/>
<line y1="-2.5" x2="39.6995" y2="-2.5" transform="matrix(-0.684079 -0.729546 0.735875 -0.676968 321.962 105.455)" stroke="#05FF00" stroke-width="5"/>
<line y1="-2.5" x2="39.6995" y2="-2.5" transform="matrix(-0.684079 -0.729546 0.735875 -0.676968 336.611 154.263)" stroke="#05FF00" stroke-width="5"/>
<line y1="-2.5" x2="37.4121" y2="-2.5" transform="matrix(-0.973214 -0.230105 0.234277 -0.97212 234.874 197.169)" stroke="#FAFF00" stroke-width="5"/>
<line y1="-2.5" x2="39.5752" y2="-2.5" transform="matrix(-0.346784 0.937873 -0.940119 -0.341043 219.517 176.348)" stroke="#FF00F5" stroke-width="5"/>
<line y1="-2.5" x2="39.8908" y2="-2.5" transform="matrix(-0.977114 0.212528 -0.21645 -0.976336 285.513 215.62)" stroke="#FF0000" stroke-width="5"/>
<path d="M408.11 358.679L371.015 348.464" stroke="#05FF00" stroke-width="5"/>
<line y1="-2.5" x2="39.5752" y2="-2.5" transform="matrix(-0.346784 0.937873 -0.940119 -0.341042 252.581 248.943)" stroke="#0066FF" stroke-width="5"/>
<line y1="-2.5" x2="39.5752" y2="-2.5" transform="matrix(-0.346784 0.937873 -0.940119 -0.341043 291.255 280.51)" stroke="#FF0000" stroke-width="5"/>
<line y1="-2.5" x2="39.843" y2="-2.5" transform="matrix(0.917721 0.397416 -0.403775 0.914775 231.118 320.498)" stroke="#05FF00" stroke-width="5"/>
<line y1="-2.5" x2="39.8656" y2="-2.5" transform="matrix(-0.948659 -0.316499 0.321931 -0.946696 295.108 263.509)" stroke="#05FF00" stroke-width="5"/>
<line y1="-2.5" x2="39.9044" y2="-2.5" transform="matrix(0.996421 -0.0843534 0.0859684 0.996313 224.11 364.104)" stroke="#FF00F5" stroke-width="5"/>
<line y1="-2.5" x2="39.5752" y2="-2.5" transform="matrix(-0.346784 0.937873 -0.940119 -0.341042 206.365 360.345)" stroke="#FF0000" stroke-width="5"/>
<line y1="-2.5" x2="39.9044" y2="-2.5" transform="matrix(0.996421 -0.0843534 0.0859684 0.996313 228.5 397.032)" stroke="#0066FF" stroke-width="5"/>
<line y1="-2.5" x2="39.8908" y2="-2.5" transform="matrix(-0.977114 0.212528 -0.21645 -0.976336 334.726 289.044)" stroke="#05FF00" stroke-width="5"/>
<line y1="-2.5" x2="39.5752" y2="-2.5" transform="matrix(-0.346784 0.937873 -0.940119 -0.341042 308.717 403.231)" stroke="#FF00F5" stroke-width="5"/>
<line y1="-2.5" x2="39.9044" y2="-2.5" transform="matrix(0.996421 -0.0843534 0.0859684 0.996313 244.897 420.841)" stroke="#05FF00" stroke-width="5"/>
<line y1="-2.5" x2="39.5752" y2="-2.5" transform="matrix(-0.346784 0.937873 -0.940119 -0.341042 299.208 363.362)" stroke="#FF0000" stroke-width="5"/>
<line y1="-2.5" x2="39.9044" y2="-2.5" transform="matrix(0.996421 -0.0843526 0.0859692 0.996313 278.271 360.56)" stroke="#05FF00" stroke-width="5"/>
<line y1="-2.5" x2="39.8633" y2="-2.5" transform="matrix(-0.93839 0.345393 -0.351281 -0.93634 327.315 199)" stroke="#0066FF" stroke-width="5"/>
<line y1="-2.5" x2="39.9044" y2="-2.5" transform="matrix(0.996421 -0.0843528 0.085969 0.996313 337.09 82.1265)" stroke="#FF00F5" stroke-width="5"/>
<line y1="-2.5" x2="39.5752" y2="-2.5" transform="matrix(-0.346784 0.937873 -0.940119 -0.341043 217.953 312.26)" stroke="#05FF00" stroke-width="5"/>
<line y1="-2.5" x2="39.5752" y2="-2.5" transform="matrix(-0.346784 0.937873 -0.940119 -0.341042 372.745 259.665)" stroke="#05FF00" stroke-width="5"/>
<line y1="-2.5" x2="39.5752" y2="-2.5" transform="matrix(-0.346784 0.937873 -0.940119 -0.341042 389.678 239.501)" stroke="#05FF00" stroke-width="5"/>
<line y1="-2.5" x2="39.5752" y2="-2.5" transform="matrix(-0.346784 0.937873 -0.940119 -0.341042 353.678 362.787)" stroke="#05FF00" stroke-width="5"/>
<line y1="-2.5" x2="39.5752" y2="-2.5" transform="matrix(-0.346784 0.937873 -0.940119 -0.341042 423.544 199.175)" stroke="#FF0000" stroke-width="5"/>
<line y1="-2.5" x2="39.8134" y2="-2.5" transform="matrix(-0.864664 0.502177 -0.50945 -0.860603 402.288 286.332)" stroke="#FF0000" stroke-width="5"/>
<line y1="-2.5" x2="39.8134" y2="-2.5" transform="matrix(-0.864664 0.502177 -0.50945 -0.860603 404.52 306.293)" stroke="#05FF00" stroke-width="5"/>
<line y1="-2.5" x2="39.8134" y2="-2.5" transform="matrix(-0.864664 0.502177 -0.50945 -0.860603 358.752 271.803)" stroke="#FF00F5" stroke-width="5"/>
<line y1="-2.5" x2="39.5752" y2="-2.5" transform="matrix(-0.346784 0.937873 -0.940119 -0.341042 383.11 191.608)" stroke="#0066FF" stroke-width="5"/>
<line y1="-2.5" x2="39.8351" y2="-2.5" transform="matrix(-0.897434 0.440969 -0.447848 -0.894199 381.316 118.683)" stroke="#FF0000" stroke-width="5"/>
<line y1="-2.5" x2="39.8134" y2="-2.5" transform="matrix(-0.864664 0.502177 -0.50945 -0.860603 374.782 167.714)" stroke="#FF00F5" stroke-width="5"/>
<line y1="-2.5" x2="39.5752" y2="-2.5" transform="matrix(-0.346784 0.937873 -0.940119 -0.341042 403.615 128.439)" stroke="#FF00F5" stroke-width="5"/>
<line y1="-2.5" x2="39.5752" y2="-2.5" transform="matrix(-0.346784 0.937873 -0.940119 -0.341042 410.022 161.347)" stroke="#05FF00" stroke-width="5"/>
<line y1="-2.5" x2="39.6995" y2="-2.5" transform="matrix(-0.684079 -0.729546 0.735875 -0.676968 224.699 160.441)" stroke="#0066FF" stroke-width="5"/>
<line y1="-2.5" x2="39.5752" y2="-2.5" transform="matrix(-0.346784 0.937873 -0.940119 -0.341042 322.459 180.257)" stroke="#FF00F5" stroke-width="5"/>
<path d="M310.608 172.273L286.419 159.154" stroke="#FAFF00" stroke-width="5"/>
<line y1="-2.5" x2="44.6173" y2="-2.5" transform="matrix(-0.946155 0.323527 -0.329132 -0.944349 294.021 162.571)" stroke="#FF0000" stroke-width="5"/>
<path d="M312.97 258.297L331.168 293.693" stroke="#FF00F5" stroke-width="5"/>
<line y1="-2.5" x2="39.5752" y2="-2.5" transform="matrix(-0.346784 0.937873 -0.940119 -0.341042 387.041 369.43)" stroke="#FF00F5" stroke-width="5"/>
<line y1="-2.5" x2="38.7005" y2="-2.5" transform="matrix(-0.590868 0.806647 -0.812133 -0.583639 251.366 136.042)" stroke="#05FF00" stroke-width="5"/>
<line y1="-2.5" x2="57.1995" y2="-2.5" transform="matrix(-0.876665 0.480925 -0.488085 -0.872894 176.426 390.638)" stroke="#05FF00" stroke-width="5"/>
<line y1="-2.5" x2="39.5752" y2="-2.5" transform="matrix(-0.346784 0.937873 -0.940119 -0.341042 229.187 231.203)" stroke="#05FF00" stroke-width="5"/>
<line y1="-2.5" x2="39.5752" y2="-2.5" transform="matrix(-0.346784 0.937873 -0.940119 -0.341042 208.71 109.513)" stroke="#FF0000" stroke-width="5"/>
<path d="M209.44 130.489L183.136 138.646" stroke="#0066FF" stroke-width="5"/>
<line y1="-2.5" x2="39.5752" y2="-2.5" transform="matrix(-0.346784 0.937873 -0.940119 -0.341042 180.273 91.8271)" stroke="#05FF00" stroke-width="5"/>
<line y1="-2.5" x2="39.8121" y2="-2.5" transform="matrix(-0.873372 -0.487234 0.494259 -0.869213 232.931 297.893)" stroke="#05FF00" stroke-width="5"/>
<line y1="-2.5" x2="39.5752" y2="-2.5" transform="matrix(-0.346784 0.937873 -0.940119 -0.341042 137.865 88.2778)" stroke="#FF00F5" stroke-width="5"/>
<line y1="-2.5" x2="45.0082" y2="-2.5" transform="matrix(0.0555715 0.998464 -0.998504 0.0545228 178.759 44.8792)" stroke="#FF00F5" stroke-width="5"/>
<line y1="-2.5" x2="39.6995" y2="-2.5" transform="matrix(-0.684079 -0.729546 0.735875 -0.676968 288.89 125.789)" stroke="#05FF00" stroke-width="5"/>
<line y1="-2.5" x2="39.5752" y2="-2.5" transform="matrix(-0.346784 0.937873 -0.940119 -0.341042 337.955 214.067)" stroke="#05FF00" stroke-width="5"/>
<line y1="-2.5" x2="39.8134" y2="-2.5" transform="matrix(-0.864664 0.502177 -0.50945 -0.860603 159.696 335.857)" stroke="#05FF00" stroke-width="5"/>
<line y1="-2.5" x2="39.8134" y2="-2.5" transform="matrix(-0.864664 0.502176 -0.50945 -0.860602 333.932 309.037)" stroke="#05FF00" stroke-width="5"/>
<line y1="-2.5" x2="39.8134" y2="-2.5" transform="matrix(-0.864664 0.502177 -0.50945 -0.860603 282.267 179.36)" stroke="#05FF00" stroke-width="5"/>
<line y1="-2.5" x2="39.6995" y2="-2.5" transform="matrix(-0.68408 -0.729546 0.735875 -0.676968 160.102 92.3115)" stroke="#FF0000" stroke-width="5"/>
<line y1="-2.5" x2="39.6995" y2="-2.5" transform="matrix(-0.68408 -0.729546 0.735875 -0.676968 147.831 358.237)" stroke="#0066FF" stroke-width="5"/>
<line y1="-2.5" x2="39.5752" y2="-2.5" transform="matrix(-0.346784 0.937873 -0.940119 -0.341043 277.495 126.773)" stroke="#FF00F5" stroke-width="5"/>
<line y1="-2.5" x2="39.5461" y2="-2.5" transform="matrix(-0.233176 -0.97248 0.973386 -0.228981 347.675 361.78)" stroke="#FF0000" stroke-width="5"/>
<line y1="-2.5" x2="39.6995" y2="-2.5" transform="matrix(-0.68408 -0.729546 0.735875 -0.676968 193.061 342.771)" stroke="#FF00F5" stroke-width="5"/>
<line y1="-2.5" x2="39.6995" y2="-2.5" transform="matrix(-0.68408 -0.729546 0.735875 -0.676968 170.026 235.96)" stroke="#FF0000" stroke-width="5"/>
<line y1="-2.5" x2="39.5752" y2="-2.5" transform="matrix(-0.346784 0.937873 -0.940119 -0.341042 201.157 157.556)" stroke="#05FF00" stroke-width="5"/>
<line y1="-2.5" x2="39.5752" y2="-2.5" transform="matrix(-0.346784 0.937873 -0.940119 -0.341042 226.462 259.211)" stroke="#FF0000" stroke-width="5"/>
<line y1="-2.5" x2="38.3458" y2="-2.5" transform="matrix(-0.999885 -0.0155036 0.0158014 -0.99987 187.185 171.693)" stroke="#FF0000" stroke-width="5"/>
<line y1="-2.5" x2="39.5752" y2="-2.5" transform="matrix(-0.346784 0.937873 -0.940119 -0.341042 187.241 270.616)" stroke="#05FF00" stroke-width="5"/>
<line y1="-2.5" x2="39.5752" y2="-2.5" transform="matrix(-0.346784 0.937873 -0.940119 -0.341042 108.677 94.5813)" stroke="#05FF00" stroke-width="5"/>
<line y1="-2.5" x2="39.5752" y2="-2.5" transform="matrix(-0.346784 0.937873 -0.940119 -0.341042 150.614 148.097)" stroke="#0066FF" stroke-width="5"/>
<line y1="-2.5" x2="39.5752" y2="-2.5" transform="matrix(-0.346784 0.937873 -0.940119 -0.341042 195.85 414.415)" stroke="#05FF00" stroke-width="5"/>
<line y1="-2.5" x2="39.6995" y2="-2.5" transform="matrix(-0.68408 -0.729546 0.735875 -0.676968 332.332 66.512)" stroke="#05FF00" stroke-width="5"/>
<line y1="-2.5" x2="39.716" y2="-2.5" transform="matrix(-0.715258 -0.699006 0.705655 -0.708412 127.63 174.862)" stroke="#05FF00" stroke-width="5"/>
<line y1="-2.5" x2="56.7442" y2="-2.5" transform="matrix(-0.681017 -0.732406 0.738701 -0.673884 177.736 418.603)" stroke="#FF00F5" stroke-width="5"/>
<line y1="-2.5" x2="39.716" y2="-2.5" transform="matrix(-0.715259 -0.699005 0.705656 -0.708411 83.2147 165.879)" stroke="#FF0000" stroke-width="5"/>
<line y1="-2.5" x2="39.5752" y2="-2.5" transform="matrix(-0.346784 0.937873 -0.940119 -0.341042 440.477 179.011)" stroke="#FF00F5" stroke-width="5"/>
<line y1="-2.5" x2="39.5752" y2="-2.5" transform="matrix(-0.346784 0.937873 -0.940119 -0.341042 234.18 414.01)" stroke="#FF0000" stroke-width="5"/>
<line y1="-2.5" x2="39.9044" y2="-2.5" transform="matrix(0.996421 -0.0843534 0.0859684 0.996313 227.88 459.017)" stroke="#0066FF" stroke-width="5"/>
<line y1="-2.5" x2="36.5923" y2="-2.5" transform="matrix(-0.792948 0.609129 -0.616553 -0.787438 204.774 212.476)" stroke="#0066FF" stroke-width="5"/>
<line y1="-2.5" x2="39.5752" y2="-2.5" transform="matrix(-0.346783 0.937873 -0.940119 -0.341043 164.716 239.878)" stroke="#0066FF" stroke-width="5"/>
<line y1="-2.5" x2="39.9049" y2="-2.5" transform="matrix(-0.998563 -0.0538259 0.0548574 -0.998481 165.357 299.396)" stroke="white" stroke-width="5"/>
<line y1="-2.5" x2="39.5752" y2="-2.5" transform="matrix(-0.346784 0.937873 -0.940119 -0.341043 176.962 346.667)" stroke="#0066FF" stroke-width="5"/>
<line y1="-2.5" x2="39.716" y2="-2.5" transform="matrix(-0.715259 -0.699005 0.705656 -0.708411 129.499 254.781)" stroke="#05FF00" stroke-width="5"/>
<line y1="-2.5" x2="39.716" y2="-2.5" transform="matrix(-0.715259 -0.699005 0.705656 -0.708411 79.558 294.819)" stroke="#FF00F5" stroke-width="5"/>
<line y1="-2.5" x2="39.5752" y2="-2.5" transform="matrix(-0.346784 0.937873 -0.940119 -0.341043 103.798 297.477)" stroke="#05FF00" stroke-width="5"/>
<line y1="-2.5" x2="39.5752" y2="-2.5" transform="matrix(-0.346784 0.937873 -0.940119 -0.341042 79.5982 204.804)" stroke="#FF0000" stroke-width="5"/>
<line y1="-2.5" x2="39.5752" y2="-2.5" transform="matrix(-0.346784 0.937873 -0.940119 -0.341042 139.176 210.17)" stroke="#05FF00" stroke-width="5"/>
<line y1="-2.5" x2="39.716" y2="-2.5" transform="matrix(-0.715259 -0.699005 0.705656 -0.708411 103.498 269.585)" stroke="#FF00F5" stroke-width="5"/>
<line y1="-2.5" x2="39.716" y2="-2.5" transform="matrix(-0.715258 -0.699006 0.705655 -0.708412 113.745 196.991)" stroke="#FF00F5" stroke-width="5"/>
<line y1="-2.5" x2="39.5752" y2="-2.5" transform="matrix(-0.346784 0.937873 -0.940119 -0.341042 147.351 126.149)" stroke="#05FF00" stroke-width="5"/>
<path d="M257.901 87.0811L218.229 103.488" stroke="#FF00F5" stroke-width="5"/>
<line y1="-2.5" x2="39.6995" y2="-2.5" transform="matrix(-0.68408 -0.729546 0.735875 -0.676968 235.964 82.3816)" stroke="#FF0000" stroke-width="5"/>
<line y1="-2.5" x2="39.6995" y2="-2.5" transform="matrix(-0.68408 -0.729546 0.735875 -0.676968 276.913 43.9785)" stroke="#FF00F5" stroke-width="5"/>
<line y1="-2.5" x2="39.5752" y2="-2.5" transform="matrix(-0.346784 0.937873 -0.940119 -0.341043 51.2256 193.113)" stroke="#05FF00" stroke-width="5"/>
<line y1="-2.5" x2="39.5752" y2="-2.5" transform="matrix(-0.346784 0.937873 -0.940119 -0.341042 121.804 283.298)" stroke="#FF0000" stroke-width="5"/>
<line y1="-2.5" x2="39.5752" y2="-2.5" transform="matrix(-0.346784 0.937873 -0.940119 -0.341043 293.572 214.536)" stroke="#05FF00" stroke-width="5"/>
<line y1="-2.5" x2="36.0158" y2="-2.5" transform="matrix(-0.948961 0.315205 -0.320699 -0.947245 224.143 231.257)" stroke="#FF00F5" stroke-width="5"/>
<line y1="-2.5" x2="39.5752" y2="-2.5" transform="matrix(-0.346784 0.937873 -0.940119 -0.341043 247.741 267.979)" stroke="#FF00F5" stroke-width="5"/>
<line y1="-2.5" x2="39.5752" y2="-2.5" transform="matrix(-0.346784 0.937873 -0.940119 -0.341042 316.405 86.3931)" stroke="#FF0000" stroke-width="5"/>
<line y1="-2.5" x2="39.5752" y2="-2.5" transform="matrix(-0.346784 0.937873 -0.940119 -0.341042 359.191 218.839)" stroke="#FF0000" stroke-width="5"/>
<line y1="-2.5" x2="39.5752" y2="-2.5" transform="matrix(-0.346784 0.937873 -0.940119 -0.341042 443.365 259.919)" stroke="#FF00F5" stroke-width="5"/>
<line y1="-2.5" x2="39.6995" y2="-2.5" transform="matrix(-0.68408 -0.729546 0.735875 -0.676968 105.702 380.665)" stroke="#FF0000" stroke-width="5"/>
</svg>
