<svg width="428" height="407" viewBox="0 0 428 407" fill="none" xmlns="http://www.w3.org/2000/svg">
<path d="M60.3825 256.698C78.9377 277.548 74.021 272.733 95.9175 290.813C117.814 308.892 87.3458 329.711 70.5197 331.536C53.6935 333.361 37.7839 318.087 34.9846 297.422C32.1853 276.756 41.8272 235.849 60.3825 256.698Z" fill="#F20000"/>
<path d="M154.496 200.32C180.006 188.995 173.923 192.212 197.811 176.86C221.699 161.508 232.252 196.869 228.867 213.452C225.482 230.035 206.089 240.538 185.552 236.912C165.015 233.286 128.987 211.646 154.496 200.32Z" fill="#F20000"/>
<path d="M264.678 83.0489C236.921 85.9824 243.699 84.7914 216.248 92.0547C188.797 99.3181 189.627 62.4256 197.947 47.6869C206.267 32.9481 227.95 28.9161 246.377 38.681C264.804 48.4459 292.434 80.1153 264.678 83.0489Z" fill="#F20000"/>
<path d="M328.562 182.947C330.218 155.086 330.282 161.967 327.617 133.697C324.951 105.426 361.209 112.293 374.384 122.916C387.56 133.539 387.983 155.59 375.33 172.167C362.676 188.744 326.906 210.809 328.562 182.947Z" fill="#F20000"/>
<path d="M359.956 329.81C347.724 304.722 351.157 310.686 334.961 287.363C318.764 264.04 353.724 252.228 370.418 255.017C387.111 257.807 398.302 276.811 395.413 297.465C392.524 318.118 372.187 354.898 359.956 329.81Z" fill="#F20000"/>
<path d="M211.382 301.698C229.938 322.548 225.021 317.733 246.918 335.813C268.814 353.892 238.346 374.711 221.52 376.536C204.694 378.361 188.784 363.087 185.985 342.422C183.185 321.756 192.827 280.849 211.382 301.698Z" fill="#F20000"/>
<path d="M38.0428 137.718C55.1111 115.635 51.2862 121.355 65.0149 96.499C78.7437 71.6427 104.827 97.7465 109.725 113.947C114.623 130.148 102.547 148.602 82.7529 155.166C62.9584 161.731 20.9745 159.802 38.0428 137.718Z" fill="#F20000"/>
<ellipse rx="2.15774" ry="2.40354" transform="matrix(-0.13423 -0.99095 0.994169 -0.10783 67.8042 320.44)" fill="#9E0000"/>
<ellipse rx="2.15774" ry="2.40354" transform="matrix(-0.984767 -0.173879 0.200006 -0.979795 217.471 212.66)" fill="#9E0000"/>
<ellipse rx="2.15774" ry="2.40354" transform="matrix(0.883601 0.468241 -0.491574 0.870836 208.547 51.9445)" fill="#9E0000"/>
<ellipse rx="2.15774" ry="2.40354" transform="matrix(-0.60675 0.794893 -0.778476 -0.627674 368.447 132.675)" fill="#9E0000"/>
<ellipse rx="2.15774" ry="2.40354" transform="matrix(-0.138531 0.990358 -0.986324 -0.16482 370.034 266.434)" fill="#9E0000"/>
<ellipse rx="2.15774" ry="2.40354" transform="matrix(-0.13423 -0.99095 0.994169 -0.10783 218.804 365.44)" fill="#9E0000"/>
<ellipse rx="2.15774" ry="2.40354" transform="matrix(-0.94917 0.314763 -0.289409 -0.957205 99.3208 118.663)" fill="#9E0000"/>
<path d="M65.8493 302.914C67.169 302.77 68.3685 303.612 68.5285 304.793C68.6884 305.974 67.7483 307.047 66.4286 307.19C65.1089 307.333 63.9094 306.492 63.7494 305.311C63.5895 304.13 64.5296 303.057 65.8493 302.914Z" fill="white"/>
<path d="M200.181 209.185C200.447 207.885 201.613 206.998 202.787 207.205C203.961 207.413 204.697 208.635 204.431 209.936C204.166 211.236 202.999 212.123 201.826 211.915C200.652 211.708 199.916 210.486 200.181 209.185Z" fill="white"/>
<path d="M223.931 60.5667C223.278 61.7226 221.896 62.2074 220.843 61.6494C219.79 61.0914 219.465 59.7019 220.118 58.546C220.77 57.39 222.153 56.9052 223.206 57.4632C224.259 58.0212 224.583 59.4107 223.931 60.5667Z" fill="white"/>
<path d="M357.419 146.437C356.386 145.604 356.134 144.161 356.858 143.214C357.581 142.266 359.004 142.174 360.038 143.007C361.071 143.84 361.323 145.284 360.6 146.231C359.877 147.178 358.453 147.271 357.419 146.437Z" fill="white"/>
<path d="M367.18 283.837C365.871 283.618 364.943 282.484 365.108 281.304C365.273 280.124 366.468 279.344 367.778 279.563C369.087 279.782 370.015 280.916 369.85 282.096C369.684 283.276 368.489 284.056 367.18 283.837Z" fill="white"/>
<path d="M216.849 347.914C218.169 347.77 219.369 348.612 219.528 349.793C219.688 350.974 218.748 352.047 217.429 352.19C216.109 352.333 214.909 351.492 214.749 350.311C214.589 349.13 215.53 348.057 216.849 347.914Z" fill="white"/>
<path d="M82.4558 123.818C82.0717 122.548 82.6772 121.213 83.8083 120.838C84.9394 120.463 86.1678 121.189 86.552 122.46C86.9361 123.73 86.3306 125.065 85.1995 125.44C84.0684 125.815 82.84 125.089 82.4558 123.818Z" fill="white"/>
<ellipse rx="2.15774" ry="2.40354" transform="matrix(-0.13423 -0.99095 0.994169 -0.10783 49.7017 312.098)" fill="#9E0000"/>
<ellipse rx="2.15774" ry="2.40354" transform="matrix(-0.984767 -0.173879 0.200006 -0.979795 204.013 227.363)" fill="#9E0000"/>
<ellipse rx="2.15774" ry="2.40354" transform="matrix(0.883601 0.468241 -0.491574 0.870836 225.874 42.0917)" fill="#9E0000"/>
<ellipse rx="2.15774" ry="2.40354" transform="matrix(-0.60675 0.794893 -0.778476 -0.627674 375.326 151.383)" fill="#9E0000"/>
<ellipse rx="2.15774" ry="2.40354" transform="matrix(-0.138531 0.990358 -0.986324 -0.16482 385.209 279.358)" fill="#9E0000"/>
<ellipse rx="2.15774" ry="2.40354" transform="matrix(-0.13423 -0.99095 0.994169 -0.10783 200.702 357.098)" fill="#9E0000"/>
<ellipse rx="2.15774" ry="2.40354" transform="matrix(-0.94917 0.314763 -0.289409 -0.957205 94.4617 137.994)" fill="#9E0000"/>
<ellipse rx="2.15774" ry="2.40354" transform="matrix(-0.13423 -0.99095 0.994169 -0.10783 45.4295 298.459)" fill="white"/>
<ellipse rx="2.15774" ry="2.40354" transform="matrix(-0.984767 -0.173879 0.200006 -0.979795 189.72 227.279)" fill="white"/>
<ellipse rx="2.15774" ry="2.40354" transform="matrix(0.883601 0.468241 -0.491574 0.870836 239.448 46.5658)" fill="white"/>
<ellipse rx="2.15774" ry="2.40354" transform="matrix(-0.60675 0.794893 -0.778476 -0.627674 368.687 164.04)" fill="white"/>
<ellipse rx="2.15774" ry="2.40354" transform="matrix(-0.138531 0.990358 -0.986324 -0.16482 385.636 293.644)" fill="white"/>
<ellipse rx="2.15774" ry="2.40354" transform="matrix(-0.13423 -0.99095 0.994169 -0.10783 196.429 343.459)" fill="white"/>
<ellipse rx="2.15774" ry="2.40354" transform="matrix(-0.94917 0.314763 -0.289409 -0.957205 81.845 144.71)" fill="white"/>
<ellipse rx="2.15774" ry="2.40354" transform="matrix(-0.13423 -0.99095 0.994169 -0.10783 62.8597 293.17)" fill="white"/>
<ellipse rx="2.15774" ry="2.40354" transform="matrix(-0.984767 -0.173879 0.200006 -0.979795 189.99 209.066)" fill="white"/>
<ellipse rx="2.15774" ry="2.40354" transform="matrix(0.883601 0.468241 -0.491574 0.870836 233.592 63.8136)" fill="white"/>
<ellipse rx="2.15774" ry="2.40354" transform="matrix(-0.60675 0.794893 -0.778476 -0.627674 352.632 155.436)" fill="white"/>
<ellipse rx="2.15774" ry="2.40354" transform="matrix(-0.138531 0.990358 -0.986324 -0.16482 367.425 294.026)" fill="white"/>
<ellipse rx="2.15774" ry="2.40354" transform="matrix(-0.13423 -0.99095 0.994169 -0.10783 213.86 338.17)" fill="white"/>
<ellipse rx="2.15774" ry="2.40354" transform="matrix(-0.94917 0.314763 -0.289409 -0.957205 73.4306 128.555)" fill="white"/>
<path d="M61.0832 268.964C62.4029 268.821 63.6024 269.663 63.7624 270.843C63.9223 272.024 62.9822 273.098 61.6625 273.241C60.3428 273.384 59.1433 272.543 58.9833 271.362C58.8234 270.181 59.7635 269.108 61.0832 268.964Z" fill="#9E0000"/>
<path d="M166.393 203.388C166.659 202.087 167.825 201.201 168.999 201.408C170.172 201.615 170.908 202.838 170.643 204.138C170.377 205.439 169.211 206.325 168.037 206.118C166.864 205.911 166.128 204.688 166.393 203.388Z" fill="#9E0000"/>
<path d="M254.3 76.4722C253.648 77.6282 252.265 78.1129 251.212 77.5549C250.159 76.9969 249.834 75.6075 250.487 74.4515C251.139 73.2955 252.522 72.8107 253.575 73.3687C254.628 73.9267 254.953 75.3162 254.3 76.4722Z" fill="#9E0000"/>
<path d="M336.751 173.788C335.718 172.955 335.466 171.512 336.189 170.565C336.912 169.617 338.336 169.525 339.369 170.358C340.403 171.191 340.654 172.635 339.931 173.582C339.208 174.529 337.784 174.622 336.751 173.788Z" fill="#9E0000"/>
<path d="M362.595 317.811C361.286 317.592 360.358 316.458 360.523 315.278C360.689 314.098 361.884 313.318 363.193 313.537C364.502 313.756 365.43 314.89 365.265 316.07C365.1 317.25 363.905 318.03 362.595 317.811Z" fill="#9E0000"/>
<path d="M212.083 313.964C213.403 313.821 214.602 314.663 214.762 315.843C214.922 317.024 213.982 318.098 212.662 318.241C211.343 318.384 210.143 317.543 209.983 316.362C209.823 315.181 210.764 314.108 212.083 313.964Z" fill="#9E0000"/>
<path d="M49.9688 134.766C49.5846 133.496 50.1901 132.162 51.3212 131.787C52.4523 131.411 53.6807 132.137 54.0649 133.408C54.4491 134.679 53.8435 136.013 52.7124 136.388C51.5813 136.763 50.3529 136.037 49.9688 134.766Z" fill="#9E0000"/>
<ellipse rx="2.15774" ry="2.40354" transform="matrix(-0.13423 -0.99095 0.994169 -0.10783 49.0193 270.016)" fill="white"/>
<ellipse rx="2.15774" ry="2.40354" transform="matrix(-0.984767 -0.173879 0.200006 -0.979795 163.721 215.199)" fill="white"/>
<ellipse rx="2.15774" ry="2.40354" transform="matrix(0.883601 0.468241 -0.491574 0.870836 260.474 66.0546)" fill="white"/>
<ellipse rx="2.15774" ry="2.40354" transform="matrix(-0.60675 0.794893 -0.778476 -0.627674 346.015 181.586)" fill="white"/>
<ellipse rx="2.15774" ry="2.40354" transform="matrix(-0.138531 0.990358 -0.986324 -0.16482 374.494 320.059)" fill="white"/>
<ellipse rx="2.15774" ry="2.40354" transform="matrix(-0.13423 -0.99095 0.994169 -0.10783 200.019 315.016)" fill="white"/>
<ellipse rx="2.15774" ry="2.40354" transform="matrix(-0.94917 0.314763 -0.289409 -0.957205 53.228 146.429)" fill="white"/>
<path d="M46.9357 282.422C48.2554 282.279 49.4549 283.12 49.6149 284.301C49.7749 285.482 48.8347 286.555 47.515 286.698C46.1953 286.841 44.9958 286 44.8359 284.819C44.6759 283.638 45.616 282.565 46.9357 282.422Z" fill="#9E0000"/>
<path d="M174.904 220.961C175.169 219.66 176.336 218.774 177.509 218.981C178.683 219.188 179.419 220.411 179.154 221.711C178.888 223.012 177.722 223.898 176.548 223.691C175.374 223.484 174.638 222.262 174.904 220.961Z" fill="#9E0000"/>
<path d="M251.605 57.1333C250.952 58.2893 249.57 58.774 248.517 58.2161C247.464 57.6581 247.139 56.2686 247.792 55.1126C248.444 53.9566 249.827 53.4719 250.88 54.0299C251.933 54.5879 252.257 55.9773 251.605 57.1333Z" fill="#9E0000"/>
<path d="M356.27 174.3C355.237 173.466 354.985 172.023 355.708 171.076C356.431 170.129 357.855 170.036 358.888 170.869C359.922 171.702 360.173 173.146 359.45 174.093C358.727 175.04 357.303 175.133 356.27 174.3Z" fill="#9E0000"/>
<path d="M379.853 308.677C378.544 308.458 377.616 307.324 377.781 306.144C377.946 304.964 379.141 304.184 380.451 304.403C381.76 304.622 382.687 305.756 382.522 306.936C382.357 308.116 381.162 308.896 379.853 308.677Z" fill="#9E0000"/>
<path d="M197.936 327.422C199.255 327.279 200.455 328.12 200.615 329.301C200.775 330.482 199.835 331.555 198.515 331.698C197.195 331.841 195.996 331 195.836 329.819C195.676 328.638 196.616 327.565 197.936 327.422Z" fill="#9E0000"/>
<path d="M65.8057 146.188C65.4215 144.917 66.027 143.583 67.1581 143.208C68.2893 142.833 69.5176 143.559 69.9018 144.83C70.286 146.1 69.6805 147.434 68.5493 147.81C67.4182 148.185 66.1899 147.459 65.8057 146.188Z" fill="#9E0000"/>
<ellipse rx="2.15774" ry="2.40354" transform="matrix(-0.13423 -0.99095 0.994169 -0.10783 72.4878 287.247)" fill="#9E0000"/>
<ellipse rx="2.15774" ry="2.40354" transform="matrix(-0.984767 -0.173879 0.200006 -0.979795 187.28 198.092)" fill="#9E0000"/>
<ellipse rx="2.15774" ry="2.40354" transform="matrix(0.883601 0.468241 -0.491574 0.870836 232.797 75.0898)" fill="#9E0000"/>
<ellipse rx="2.15774" ry="2.40354" transform="matrix(-0.60675 0.794893 -0.778476 -0.627674 341.639 152.802)" fill="#9E0000"/>
<ellipse rx="2.15774" ry="2.40354" transform="matrix(-0.138531 0.990358 -0.986324 -0.16482 356.555 297.127)" fill="#9E0000"/>
<ellipse rx="2.15774" ry="2.40354" transform="matrix(-0.13423 -0.99095 0.994169 -0.10783 223.488 332.247)" fill="#9E0000"/>
<ellipse rx="2.15774" ry="2.40354" transform="matrix(-0.94917 0.314763 -0.289409 -0.957205 65.8332 120.184)" fill="#9E0000"/>
<ellipse rx="2.15774" ry="2.40354" transform="matrix(-0.13423 -0.99095 0.994169 -0.10783 81.9605 308.599)" fill="white"/>
<ellipse rx="2.15774" ry="2.40354" transform="matrix(-0.984767 -0.173879 0.200006 -0.979795 210.502 195.57)" fill="white"/>
<ellipse rx="2.15774" ry="2.40354" transform="matrix(0.883601 0.468241 -0.491574 0.870836 209.924 70.3488)" fill="white"/>
<ellipse rx="2.15774" ry="2.40354" transform="matrix(-0.60675 0.794893 -0.778476 -0.627674 350.066 131.016)" fill="white"/>
<ellipse rx="2.15774" ry="2.40354" transform="matrix(-0.138531 0.990358 -0.986324 -0.16482 353.204 274.01)" fill="white"/>
<ellipse rx="2.15774" ry="2.40354" transform="matrix(-0.13423 -0.99095 0.994169 -0.10783 232.96 353.599)" fill="white"/>
<ellipse rx="2.15774" ry="2.40354" transform="matrix(-0.94917 0.314763 -0.289409 -0.957205 85.0708 106.935)" fill="white"/>
<ellipse rx="2.15774" ry="2.40354" transform="matrix(-0.13423 -0.99095 0.994169 -0.10783 94.7591 300.16)" fill="#9E0000"/>
<ellipse rx="2.15774" ry="2.40354" transform="matrix(-0.984767 -0.173879 0.200006 -0.979795 206.361 180.81)" fill="#9E0000"/>
<ellipse rx="2.15774" ry="2.40354" transform="matrix(0.883601 0.468241 -0.491574 0.870836 209.326 85.6674)" fill="#9E0000"/>
<ellipse rx="2.15774" ry="2.40354" transform="matrix(-0.60675 0.794893 -0.778476 -0.627674 335.052 127.915)" fill="#9E0000"/>
<ellipse rx="2.15774" ry="2.40354" transform="matrix(-0.138531 0.990358 -0.986324 -0.16482 338.602 278.677)" fill="#9E0000"/>
<ellipse rx="2.15774" ry="2.40354" transform="matrix(-0.13423 -0.99095 0.994169 -0.10783 245.759 345.16)" fill="#9E0000"/>
<ellipse rx="2.15774" ry="2.40354" transform="matrix(-0.94917 0.314763 -0.289409 -0.957205 74.4153 95.9129)" fill="#9E0000"/>
<path d="M89.3162 316L91.2245 320.837H97.4001L92.404 323.826L94.3123 328.663L89.3162 325.674L84.32 328.663L86.2284 323.826L81.2322 320.837H87.4078L89.3162 316Z" fill="#32C000"/>
<path d="M219.792 190.817L224.98 190.472L226.861 184.59L228.187 190.259L233.375 189.914L229.006 193.763L230.333 199.432L226.306 196.142L221.938 199.99L223.818 194.108L219.792 190.817Z" fill="#32C000"/>
<path d="M199.623 72.0151L194.58 70.7481L190.982 75.7673L191.463 69.9651L186.42 68.6981L191.761 66.3791L192.242 60.5768L195.061 64.9458L200.402 62.6268L196.804 67.646L199.623 72.0151Z" fill="#32C000"/>
<path d="M350.11 120.581L352.187 115.814L347.825 111.442L353.47 112.868L355.547 108.101L356.959 113.749L362.604 115.175L357.832 117.24L359.244 122.889L354.882 118.516L350.11 120.581Z" fill="#32C000"/>
<path d="M348.122 264.896L347.592 259.724L341.646 258.055L347.264 256.527L346.734 251.354L350.736 255.582L356.354 254.054L353.21 258.196L357.213 262.424L351.267 260.755L348.122 264.896Z" fill="#32C000"/>
<path d="M240.316 361L242.225 365.837H248.4L243.404 368.826L245.312 373.663L240.316 370.674L235.32 373.663L237.228 368.826L232.232 365.837H238.408L240.316 361Z" fill="#32C000"/>
<path d="M90.9876 98.34L95.3893 95.572L94.2499 89.5024L98.1098 93.8612L102.511 91.0932L100.495 96.5552L104.355 100.914L99.2492 99.9308L97.233 105.393L96.0935 99.3232L90.9876 98.34Z" fill="#32C000"/>
</svg>
