<svg width="563" height="431" viewBox="0 0 563 431" fill="none" xmlns="http://www.w3.org/2000/svg">
<path fill-rule="evenodd" clip-rule="evenodd" d="M238.381 35.9391C243.153 32.8319 245.505 27.7563 243.714 23.7331C241.649 19.0959 234.863 17.6129 228.556 20.4206C225.97 21.5718 223.867 23.2655 222.427 25.1829L48.3016 148.56C31.9128 160.172 45.6725 185.609 64.3605 178.248L375.632 55.6319C280.056 133.518 178.379 181.86 103.109 217.646C87.7717 224.938 73.5305 231.709 60.6608 238.102C54.1353 241.344 48.4752 248.889 52.2331 257.289C55.8358 265.343 64.889 266.654 71.7666 264.412L429.431 147.798C266.593 236.896 189.306 294.533 136.804 368.093C131.815 375.083 133.089 383.384 137.831 388.629C142.517 393.812 150.516 395.961 157.973 392.09L497.545 215.79L293.158 381.274C277.15 394.235 293.669 419.175 311.849 409.49L523.74 296.607C525.06 296.233 526.393 295.703 527.702 295.014C534.652 291.351 538.275 284.567 535.794 279.86C533.314 275.153 525.669 274.305 518.72 277.968C516.889 278.932 515.289 280.114 513.971 281.417L312.594 388.698L516.551 223.562C532.474 210.67 516.204 185.822 498.02 195.262L155.37 373.16C205.909 304.811 281.524 248.9 443.786 160.468C453.085 155.401 454.14 145.317 451.236 138.461C448.325 131.589 440.299 125.322 430.166 128.626L118.705 230.175C195.265 193.753 298.763 143.347 394.966 63.0164C402.002 57.1416 402.601 48.206 398.699 41.8249C394.831 35.4979 386.701 31.9253 378.282 35.2416L65.4412 158.476L238.381 35.9391ZM65.611 247.432C65.611 247.432 65.6152 247.431 65.6236 247.431C65.6151 247.432 65.6109 247.432 65.611 247.432ZM68.2385 254.477L68.2302 254.484C68.2269 254.487 68.2252 254.488 68.2251 254.488C68.2249 254.488 68.2291 254.484 68.2385 254.477Z" fill="#FF0000"/>
<path d="M144.637 136.337C144.637 138.546 142.846 140.337 140.637 140.337C138.427 140.337 136.637 138.546 136.637 136.337C136.637 134.128 138.427 132.337 140.637 132.337C142.846 132.337 144.637 134.128 144.637 136.337Z" fill="#9E0000"/>
<circle cx="454.137" cy="227.337" r="4" fill="#9E0000"/>
<circle cx="392.137" cy="262.337" r="4" fill="#9E0000"/>
<path d="M367.637 76.8367C367.637 79.0458 365.846 80.8367 363.637 80.8367C361.427 80.8367 359.637 79.0458 359.637 76.8367C359.637 74.6275 361.427 72.8367 363.637 72.8367C365.846 72.8367 367.637 74.6275 367.637 76.8367Z" fill="#9E0000"/>
<path d="M221.637 37.8367C221.637 40.0458 219.846 41.8367 217.637 41.8367C215.427 41.8367 213.637 40.0458 213.637 37.8367C213.637 35.6275 215.427 33.8367 217.637 33.8367C219.846 33.8367 221.637 35.6275 221.637 37.8367Z" fill="#9E0000"/>
<circle cx="150.086" cy="86.3367" r="4" fill="#9E0000"/>
<path d="M98.1366 123.337C98.1366 125.546 96.3457 127.337 94.1366 127.337C91.9275 127.337 90.1366 125.546 90.1366 123.337C90.1366 121.128 91.9275 119.337 94.1366 119.337C96.3457 119.337 98.1366 121.128 98.1366 123.337Z" fill="#9E0000"/>
<circle cx="59.1366" cy="164.337" r="4" fill="#9E0000"/>
<circle cx="263.137" cy="146.337" r="4" fill="#9E0000"/>
<circle cx="506.137" cy="219.337" r="4" fill="#9E0000"/>
<circle cx="307.137" cy="70.3367" r="4" fill="#9E0000"/>
<path d="M229.137 101.837C229.137 104.046 227.346 105.837 225.137 105.837C222.927 105.837 221.137 104.046 221.137 101.837C221.137 99.6275 222.927 97.8367 225.137 97.8367C227.346 97.8367 229.137 99.6275 229.137 101.837Z" fill="#9E0000"/>
<path d="M175.637 191.337C175.637 193.546 173.846 195.337 171.637 195.337C169.427 195.337 167.637 193.546 167.637 191.337C167.637 189.128 169.427 187.337 171.637 187.337C173.846 187.337 175.637 189.128 175.637 191.337Z" fill="#9E0000"/>
<circle cx="133.137" cy="234.337" r="4" fill="#9E0000"/>
<path d="M83.1366 246.337C83.1366 248.546 81.3457 250.337 79.1366 250.337C76.9275 250.337 75.1366 248.546 75.1366 246.337C75.1366 244.128 76.9275 242.337 79.1366 242.337C81.3457 242.337 83.1366 244.128 83.1366 246.337Z" fill="#9E0000"/>
<path d="M361.637 199.337C361.637 201.546 359.846 203.337 357.637 203.337C355.427 203.337 353.637 201.546 353.637 199.337C353.637 197.128 355.427 195.337 357.637 195.337C359.846 195.337 361.637 197.128 361.637 199.337Z" fill="#9E0000"/>
<circle cx="229.137" cy="342.337" r="4" fill="#9E0000"/>
<circle cx="413.137" cy="295.337" r="4" fill="#9E0000"/>
<circle cx="439.137" cy="140.337" r="4" fill="#9E0000"/>
<path d="M502.137 299.337C502.137 301.546 500.346 303.337 498.137 303.337C495.927 303.337 494.137 301.546 494.137 299.337C494.137 297.128 495.927 295.337 498.137 295.337C500.346 295.337 502.137 297.128 502.137 299.337Z" fill="#9E0000"/>
<path d="M229.137 204.837C229.137 207.046 227.346 208.837 225.137 208.837C222.927 208.837 221.137 207.046 221.137 204.837C221.137 202.628 222.927 200.837 225.137 200.837C227.346 200.837 229.137 202.628 229.137 204.837Z" fill="#9E0000"/>
<circle cx="307.137" cy="396.337" r="4" fill="#9E0000"/>
<circle cx="303.137" cy="307.337" r="4" fill="#9E0000"/>
<path d="M195.637 312.837C195.637 315.046 193.846 316.837 191.637 316.837C189.427 316.837 187.637 315.046 187.637 312.837C187.637 310.628 189.427 308.837 191.637 308.837C193.846 308.837 195.637 310.628 195.637 312.837Z" fill="#9E0000"/>
<path d="M270.637 254.337C270.637 256.546 268.846 258.337 266.637 258.337C264.427 258.337 262.637 256.546 262.637 254.337C262.637 252.128 264.427 250.337 266.637 250.337C268.846 250.337 270.637 252.128 270.637 254.337Z" fill="#9E0000"/>
<circle cx="354.137" cy="160.337" r="4" fill="#9E0000"/>
<circle cx="162.086" cy="377.337" r="4" fill="#9E0000"/>
<path d="M408.637 349.837C408.637 352.046 406.846 353.837 404.637 353.837C402.427 353.837 400.637 352.046 400.637 349.837C400.637 347.628 402.427 345.837 404.637 345.837C406.846 345.837 408.637 347.628 408.637 349.837Z" fill="#9E0000"/>
</svg>
