<svg width="593" height="580" viewBox="0 0 593 580" fill="none" xmlns="http://www.w3.org/2000/svg">
<mask id="path-2-inside-1" fill="white">
<path fill-rule="evenodd" clip-rule="evenodd" d="M67.5716 229.221L63.3776 228.055L63.8959 227.655C57.1248 224.467 51.2084 219.923 46.5378 214.013C25.608 187.531 37.6235 143.667 73.3751 116.041C95.0138 99.3199 120.388 92.3796 141.69 95.3775C143.906 74.2237 156.848 51.5697 178.475 34.8576C214.227 7.23125 260.176 6.30381 281.106 32.7861C285.771 38.6884 288.799 45.4541 290.292 52.7111L290.311 52.6967L290.315 52.8205C291.541 58.8441 291.712 65.2045 290.885 71.6892L297.577 293.138L78.2152 232.179C74.5159 231.503 70.9537 230.518 67.5716 229.221Z"/>
</mask>
<path fill-rule="evenodd" clip-rule="evenodd" d="M67.5716 229.221L63.3776 228.055L63.8959 227.655C57.1248 224.467 51.2084 219.923 46.5378 214.013C25.608 187.531 37.6235 143.667 73.3751 116.041C95.0138 99.3199 120.388 92.3796 141.69 95.3775C143.906 74.2237 156.848 51.5697 178.475 34.8576C214.227 7.23125 260.176 6.30381 281.106 32.7861C285.771 38.6884 288.799 45.4541 290.292 52.7111L290.311 52.6967L290.315 52.8205C291.541 58.8441 291.712 65.2045 290.885 71.6892L297.577 293.138L78.2152 232.179C74.5159 231.503 70.9537 230.518 67.5716 229.221Z" fill="url(#paint0_radial)"/>
<path d="M63.3776 228.055L58.4148 221.781L45.8949 231.455L61.2215 235.714L63.3776 228.055ZM67.5716 229.221L70.4609 221.804L70.1001 221.665L69.7277 221.562L67.5716 229.221ZM63.8959 227.655L68.8587 233.93L79.104 226.013L67.3366 220.473L63.8959 227.655ZM46.5378 214.013L40.2057 218.902L40.2057 218.902L46.5378 214.013ZM73.3751 116.041L68.4122 109.766L68.4122 109.766L73.3751 116.041ZM141.69 95.3775L140.578 103.254L148.832 104.416L149.691 96.219L141.69 95.3775ZM178.475 34.8576L173.512 28.583L173.512 28.583L178.475 34.8576ZM281.106 32.7861L287.438 27.8969L287.438 27.8969L281.106 32.7861ZM290.292 52.7111L282.411 54.2778L285.009 66.9005L295.254 58.9866L290.292 52.7111ZM290.311 52.6967L298.351 52.4807L297.876 36.7454L285.349 46.4212L290.311 52.6967ZM290.315 52.8205L282.275 53.0364L282.295 53.7097L282.429 54.3703L290.315 52.8205ZM290.885 71.6892L282.904 70.6726L282.826 71.2865L282.845 71.9052L290.885 71.6892ZM297.577 293.138L295.421 300.797L305.943 303.721L305.617 292.922L297.577 293.138ZM78.2152 232.179L80.3714 224.52L80.0168 224.421L79.6547 224.355L78.2152 232.179ZM61.2215 235.714L65.4155 236.88L69.7277 221.562L65.5337 220.396L61.2215 235.714ZM58.933 221.38L58.4148 221.781L68.3404 234.33L68.8587 233.93L58.933 221.38ZM67.3366 220.473C61.623 217.783 56.7212 213.997 52.8699 209.124L40.2057 218.902C45.6956 225.849 52.6266 231.152 60.4551 234.837L67.3366 220.473ZM52.8699 209.124C44.3245 198.311 42.1048 183.474 46.4652 167.556C50.8258 151.637 61.6936 135.177 78.3379 122.315L68.4122 109.766C49.3049 124.531 36.2892 143.816 30.9367 163.356C25.5839 182.897 27.8213 203.232 40.2057 218.902L52.8699 209.124ZM78.3379 122.315C98.5318 106.711 121.762 100.606 140.578 103.254L142.802 87.5009C119.015 84.1532 91.4958 91.9288 68.4122 109.766L78.3379 122.315ZM173.512 28.583C150.441 46.4111 136.164 70.9184 133.689 94.536L149.691 96.219C151.649 77.5291 163.255 56.7282 183.438 41.1322L173.512 28.583ZM287.438 27.8969C275.053 12.2263 255.636 5.16352 235.162 5.57675C214.691 5.98994 192.619 13.8182 173.512 28.583L183.438 41.1322C200.082 28.2706 218.861 21.822 235.535 21.4855C252.207 21.149 266.229 26.8635 274.774 37.6753L287.438 27.8969ZM298.174 51.1444C296.448 42.7549 292.921 34.8345 287.438 27.8969L274.774 37.6753C278.62 42.5423 281.15 48.1534 282.411 54.2778L298.174 51.1444ZM285.349 46.4212L285.331 46.4356L295.254 58.9866L295.273 58.9722L285.349 46.4212ZM298.355 52.6045L298.351 52.4807L282.271 52.9127L282.275 53.0364L298.355 52.6045ZM298.866 72.7057C299.791 65.4501 299.614 58.2183 298.2 51.2706L282.429 54.3703C283.468 59.47 283.633 64.9589 282.904 70.6726L298.866 72.7057ZM305.617 292.922L298.925 71.4732L282.845 71.9052L289.537 293.354L305.617 292.922ZM76.0591 239.838L295.421 300.797L299.733 285.479L80.3714 224.52L76.0591 239.838ZM79.6547 224.355C76.4226 223.765 73.3478 222.911 70.4609 221.804L64.6823 236.638C68.5595 238.125 72.6092 239.242 76.7758 240.002L79.6547 224.355Z" fill="#D57300" mask="url(#path-2-inside-1)"/>
<mask id="path-4-inside-2" fill="white">
<path fill-rule="evenodd" clip-rule="evenodd" d="M287.251 57.6842L287.062 52.2953L287.694 52.7227C288.706 45.3669 291.288 38.4067 295.569 32.2101C314.726 4.48009 360.637 2.54205 398.114 27.8814C420.758 43.1915 435.143 64.9565 438.757 85.9036C459.811 81.5972 485.568 86.9438 508.239 102.272C545.717 127.612 560.569 170.633 541.413 198.363C537.12 204.577 531.484 209.496 524.9 213.103L524.956 213.14L524.611 213.26C519.357 216.096 513.508 218.103 507.264 219.273L295.503 292.681L287.56 66.4583C287.234 63.5012 287.129 60.5695 287.251 57.6842Z"/>
</mask>
<path fill-rule="evenodd" clip-rule="evenodd" d="M287.251 57.6842L287.062 52.2953L287.694 52.7227C288.706 45.3669 291.288 38.4067 295.569 32.2101C314.726 4.48009 360.637 2.54205 398.114 27.8814C420.758 43.1915 435.143 64.9565 438.757 85.9036C459.811 81.5972 485.568 86.9438 508.239 102.272C545.717 127.612 560.569 170.633 541.413 198.363C537.12 204.577 531.484 209.496 524.9 213.103L524.956 213.14L524.611 213.26C519.357 216.096 513.508 218.103 507.264 219.273L295.503 292.681L287.56 66.4583C287.234 63.5012 287.129 60.5695 287.251 57.6842Z" fill="url(#paint1_radial)"/>
<path d="M287.062 52.2953L291.615 45.717L278.473 36.8313L279.027 52.6031L287.062 52.2953ZM287.251 57.6842L295.285 57.987L295.298 57.6817L295.287 57.3764L287.251 57.6842ZM287.694 52.7227L283.142 59.3011L293.9 66.5751L295.661 53.7656L287.694 52.7227ZM295.569 32.2101L288.938 27.7347L288.938 27.7347L295.569 32.2101ZM398.114 27.8814L393.562 34.4597L393.562 34.4598L398.114 27.8814ZM438.757 85.9036L430.831 87.2736L432.226 95.3606L440.354 93.6982L438.757 85.9036ZM508.239 102.272L512.792 95.694L512.792 95.694L508.239 102.272ZM541.413 198.363L534.782 193.887L541.413 198.363ZM524.9 213.103L521.028 206.142L509.591 212.408L520.347 219.681L524.9 213.103ZM524.956 213.14L527.586 220.651L542.632 215.436L529.508 206.562L524.956 213.14ZM524.611 213.26L521.98 205.749L521.36 205.964L520.783 206.275L524.611 213.26ZM507.264 219.273L505.799 211.453L505.204 211.564L504.633 211.762L507.264 219.273ZM295.503 292.681L287.468 292.988L287.846 303.758L298.134 300.192L295.503 292.681ZM287.56 66.4583L295.595 66.1504L295.585 65.8571L295.553 65.5653L287.56 66.4583ZM279.027 52.6031L279.216 57.992L295.287 57.3764L295.098 51.9875L279.027 52.6031ZM292.247 46.1444L291.615 45.717L282.51 58.8736L283.142 59.3011L292.247 46.1444ZM295.661 53.7656C296.514 47.5595 298.674 41.7903 302.2 36.6855L288.938 27.7347C283.903 35.0232 280.897 43.1743 279.728 51.6799L295.661 53.7656ZM302.2 36.6855C310.013 25.3766 323.622 18.8002 340.282 18.097C356.944 17.3936 376.108 22.6588 393.562 34.4597L402.667 21.303C382.643 7.76459 360.113 1.32915 339.66 2.19251C319.206 3.05592 300.282 11.3136 288.938 27.7347L302.2 36.6855ZM393.562 34.4598C414.701 48.7523 427.637 68.7612 430.831 87.2736L446.682 84.5336C442.648 61.1518 426.816 37.6307 402.667 21.303L393.562 34.4598ZM512.792 95.694C488.615 79.3471 460.67 73.3003 437.16 78.1091L440.354 93.6982C458.952 89.8941 482.522 94.5406 503.687 108.851L512.792 95.694ZM548.044 202.838C559.387 186.419 560.288 165.981 553.673 146.821C547.058 127.66 532.816 109.232 512.792 95.694L503.687 108.851C521.141 120.652 533.063 136.404 538.455 152.022C543.846 167.639 542.595 182.577 534.782 193.887L548.044 202.838ZM528.772 220.063C536.386 215.892 542.995 210.147 548.044 202.838L534.782 193.887C531.245 199.006 526.581 203.1 521.028 206.142L528.772 220.063ZM529.508 206.562L529.453 206.524L520.347 219.681L520.403 219.718L529.508 206.562ZM527.241 220.771L527.586 220.651L522.325 205.629L521.98 205.749L527.241 220.771ZM508.73 227.094C515.722 225.783 522.379 223.515 528.438 220.245L520.783 206.275C516.335 208.676 511.295 210.423 505.799 211.453L508.73 227.094ZM298.134 300.192L509.895 226.784L504.633 211.762L292.873 285.169L298.134 300.192ZM279.524 66.7661L287.468 292.988L303.539 292.373L295.595 66.1504L279.524 66.7661ZM295.553 65.5653C295.269 62.9872 295.18 60.4555 295.285 57.987L279.218 57.3814C279.078 60.6836 279.199 64.0152 279.566 67.3512L295.553 65.5653Z" fill="#D57300" mask="url(#path-4-inside-2)"/>
<mask id="path-6-inside-3" fill="white">
<path fill-rule="evenodd" clip-rule="evenodd" d="M523.114 208.379L523.488 208.249L523.466 208.321C530.749 207.166 538.125 207.55 545.296 209.688C578.021 219.45 594.077 262.074 581.157 304.892C573.276 331.011 556.435 351.168 537.069 360.703C547.836 379.246 550.674 405.174 542.829 431.174C529.909 473.992 492.906 500.79 460.181 491.029C446.01 486.802 434.965 476.414 428.045 462.516L293.741 287.826L504.817 214.716C510.719 211.568 516.88 209.411 523.114 208.379Z"/>
</mask>
<path fill-rule="evenodd" clip-rule="evenodd" d="M523.114 208.379L523.488 208.249L523.466 208.321C530.749 207.166 538.125 207.55 545.296 209.688C578.021 219.45 594.077 262.074 581.157 304.892C573.276 331.011 556.435 351.168 537.069 360.703C547.836 379.246 550.674 405.174 542.829 431.174C529.909 473.992 492.906 500.79 460.181 491.029C446.01 486.802 434.965 476.414 428.045 462.516L293.741 287.826L504.817 214.716C510.719 211.568 516.88 209.411 523.114 208.379Z" fill="url(#paint2_radial)"/>
<path d="M523.488 208.249L531.162 210.511L535.664 195.591L520.893 200.707L523.488 208.249ZM523.114 208.379L524.386 216.256L525.061 216.145L525.708 215.92L523.114 208.379ZM523.466 208.321L515.793 206.059L512.129 218.2L524.685 216.208L523.466 208.321ZM545.296 209.688L547.632 202.037L547.632 202.037L545.296 209.688ZM581.157 304.892L573.484 302.63L573.484 302.63L581.157 304.892ZM537.069 360.703L533.55 353.547L525.838 357.344L530.127 364.73L537.069 360.703ZM542.829 431.174L550.503 433.436L550.503 433.436L542.829 431.174ZM460.181 491.029L457.845 498.68L460.181 491.029ZM428.045 462.516L435.228 458.936L434.885 458.248L434.417 457.638L428.045 462.516ZM293.741 287.826L291.146 280.284L280.623 283.929L287.369 292.704L293.741 287.826ZM504.817 214.716L507.412 222.258L508.01 222.051L508.569 221.753L504.817 214.716ZM520.893 200.707L520.519 200.837L525.708 215.92L526.083 215.791L520.893 200.707ZM531.14 210.583L531.162 210.511L515.815 205.987L515.793 206.059L531.14 210.583ZM524.685 216.208C530.846 215.23 537.004 215.563 542.96 217.34L547.632 202.037C539.247 199.536 530.652 199.102 522.247 200.435L524.685 216.208ZM542.96 217.34C556.431 221.358 567.019 232.284 572.839 247.735C578.661 263.192 579.482 282.751 573.484 302.63L588.831 307.154C595.752 284.215 595.005 261.053 587.848 242.053C580.689 223.046 566.886 207.78 547.632 202.037L542.96 217.34ZM573.484 302.63C566.149 326.938 550.626 345.139 533.55 353.547L540.588 367.859C562.243 357.197 580.404 335.083 588.831 307.154L573.484 302.63ZM550.503 433.436C558.893 405.631 556.032 377.38 544.011 356.676L530.127 364.73C539.639 381.112 542.456 404.718 535.155 428.912L550.503 433.436ZM457.845 498.68C477.106 504.425 497.102 499.233 513.621 487.27C530.131 475.314 543.581 456.374 550.503 433.436L535.155 428.912C529.157 448.792 517.646 464.661 504.243 474.367C490.849 484.067 475.981 487.393 462.517 483.377L457.845 498.68ZM420.862 466.096C428.577 481.59 441.192 493.713 457.845 498.68L462.517 483.377C450.828 479.891 441.353 471.238 435.228 458.936L420.862 466.096ZM287.369 292.704L421.674 467.394L434.417 457.638L300.112 282.948L287.369 292.704ZM502.222 207.174L291.146 280.284L296.336 295.368L507.412 222.258L502.222 207.174ZM508.569 221.753C513.767 218.98 519.095 217.132 524.386 216.256L521.841 200.501C514.666 201.689 507.671 204.156 501.064 207.68L508.569 221.753Z" fill="#D57300" mask="url(#path-6-inside-3)"/>
<mask id="path-8-inside-4" fill="white">
<path fill-rule="evenodd" clip-rule="evenodd" d="M444.959 479.17L446.798 481.593L446.292 481.598C449.671 488.165 451.559 495.29 451.645 502.749C452.036 536.405 415.612 564.116 370.29 564.643C342.81 564.963 318.368 555.216 303.296 539.99C288.579 555.552 264.38 565.856 236.912 566.176C191.59 566.703 154.532 539.847 154.142 506.192C153.979 492.139 160.234 479.122 170.876 468.688L300.708 289.131L436.644 468.216C439.901 471.62 442.695 475.288 444.959 479.17Z"/>
</mask>
<path fill-rule="evenodd" clip-rule="evenodd" d="M444.959 479.17L446.798 481.593L446.292 481.598C449.671 488.165 451.559 495.29 451.645 502.749C452.036 536.405 415.612 564.116 370.29 564.643C342.81 564.963 318.368 555.216 303.296 539.99C288.579 555.552 264.38 565.856 236.912 566.176C191.59 566.703 154.532 539.847 154.142 506.192C153.979 492.139 160.234 479.122 170.876 468.688L300.708 289.131L436.644 468.216C439.901 471.62 442.695 475.288 444.959 479.17Z" fill="url(#paint3_radial)"/>
<path d="M446.798 481.593L446.893 489.592L462.772 489.407L453.17 476.757L446.798 481.593ZM444.959 479.17L438.049 483.198L438.293 483.618L438.587 484.005L444.959 479.17ZM446.292 481.598L446.196 473.599L433.256 473.75L439.178 485.258L446.292 481.598ZM451.645 502.749L459.645 502.659L459.645 502.659L451.645 502.749ZM370.29 564.643L370.194 556.644L370.194 556.644L370.29 564.643ZM303.296 539.99L308.981 534.363L303.163 528.486L297.483 534.493L303.296 539.99ZM236.912 566.176L236.816 558.176L236.816 558.176L236.912 566.176ZM154.142 506.192L146.142 506.282L146.142 506.282L154.142 506.192ZM170.876 468.688L176.478 474.401L176.962 473.927L177.359 473.377L170.876 468.688ZM300.708 289.131L307.08 284.295L300.551 275.693L294.225 284.442L300.708 289.131ZM436.644 468.216L430.273 473.051L430.548 473.415L430.864 473.745L436.644 468.216ZM453.17 476.757L451.331 474.334L438.587 484.005L440.427 486.428L453.17 476.757ZM446.387 489.598L446.893 489.592L446.703 473.593L446.196 473.599L446.387 489.598ZM439.178 485.258C442.026 490.792 443.574 496.701 443.646 502.84L459.645 502.659C459.543 493.879 457.316 485.539 453.405 477.939L439.178 485.258ZM443.646 502.84C443.805 516.551 436.49 529.691 423.265 539.752C410.04 549.813 391.31 556.398 370.194 556.644L370.385 572.643C394.591 572.361 416.734 564.827 432.955 552.487C449.174 540.147 459.876 522.603 459.645 502.659L443.646 502.84ZM370.194 556.644C344.528 556.942 322.295 547.812 308.981 534.363L297.611 545.618C314.442 562.62 341.092 572.984 370.385 572.643L370.194 556.644ZM237.007 574.175C266.288 573.834 292.678 562.863 309.109 545.488L297.483 534.493C284.481 548.241 262.472 557.878 236.816 558.176L237.007 574.175ZM146.142 506.282C146.374 526.227 157.48 543.519 173.984 555.48C190.488 567.44 212.801 574.457 237.007 574.175L236.816 558.176C215.7 558.422 196.824 552.274 183.371 542.525C169.917 532.775 162.3 519.812 162.141 506.101L146.142 506.282ZM165.274 462.975C153.379 474.638 145.949 489.657 146.142 506.282L162.141 506.101C162.008 494.621 167.089 483.607 176.478 474.401L165.274 462.975ZM294.225 284.442L164.393 464L177.359 473.377L307.192 293.819L294.225 284.442ZM443.016 463.38L307.08 284.295L294.337 293.966L430.273 473.051L443.016 463.38ZM430.864 473.745C433.718 476.728 436.123 479.897 438.049 483.198L451.87 475.141C449.267 470.679 446.084 466.512 442.424 462.686L430.864 473.745Z" fill="#D57300" mask="url(#path-8-inside-4)"/>
<mask id="path-10-inside-5" fill="white">
<path fill-rule="evenodd" clip-rule="evenodd" d="M162.106 487.86L161.397 488.858L161.321 488.638C156.11 493.702 149.946 497.591 142.941 499.968C110.604 510.94 72.6009 485.545 58.0578 443.245C49.2242 417.553 51.0779 391.533 61.1413 372.604C41.4194 363.8 23.8154 344.286 14.943 318.48C0.399894 276.181 14.8242 232.996 47.1606 222.023C61.3374 217.212 76.6034 219.392 90.5042 226.922L301.751 291.339L172.691 472.963C169.848 478.584 166.299 483.611 162.106 487.86Z"/>
</mask>
<path fill-rule="evenodd" clip-rule="evenodd" d="M162.106 487.86L161.397 488.858L161.321 488.638C156.11 493.702 149.946 497.591 142.941 499.968C110.604 510.94 72.6009 485.545 58.0578 443.245C49.2242 417.553 51.0779 391.533 61.1413 372.604C41.4194 363.8 23.8154 344.286 14.943 318.48C0.399894 276.181 14.8242 232.996 47.1606 222.023C61.3374 217.212 76.6034 219.392 90.5042 226.922L301.751 291.339L172.691 472.963C169.848 478.584 166.299 483.611 162.106 487.86Z" fill="url(#paint4_radial)"/>
<path d="M161.397 488.858L153.813 491.405L158.906 506.22L167.95 493.493L161.397 488.858ZM162.106 487.86L156.372 482.249L155.922 482.704L155.552 483.225L162.106 487.86ZM161.321 488.638L168.905 486.091L164.78 474.092L155.705 482.91L161.321 488.638ZM142.941 499.968L145.565 507.525L145.565 507.525L142.941 499.968ZM58.0578 443.245L65.6416 440.698L65.6416 440.698L58.0578 443.245ZM61.1413 372.604L68.2319 376.369L72.2408 368.828L64.3868 365.323L61.1413 372.604ZM14.943 318.48L22.5268 315.933L22.5268 315.933L14.943 318.48ZM47.1606 222.023L49.7852 229.58L47.1606 222.023ZM90.5042 226.922L86.7034 233.929L87.4184 234.316L88.196 234.553L90.5042 226.922ZM301.751 291.339L308.305 295.974L314.713 286.956L304.06 283.707L301.751 291.339ZM172.691 472.963L166.137 468.329L165.794 468.812L165.526 469.341L172.691 472.963ZM167.95 493.493L168.66 492.495L155.552 483.225L154.843 484.223L167.95 493.493ZM153.737 491.185L153.813 491.405L168.981 486.311L168.905 486.091L153.737 491.185ZM155.705 482.91C151.292 487.198 146.135 490.436 140.316 492.41L145.565 507.525C153.756 504.746 160.928 500.206 166.937 494.367L155.705 482.91ZM140.316 492.41C127.012 496.925 112.025 494.156 98.2688 484.963C84.5028 475.764 72.3939 460.338 65.6416 440.698L50.474 445.793C58.2648 468.452 72.4292 486.873 89.3847 498.204C106.35 509.541 126.533 513.983 145.565 507.525L140.316 492.41ZM65.6416 440.698C57.4211 416.789 59.3418 393.091 68.2319 376.369L54.0507 368.838C42.814 389.974 41.0274 418.317 50.474 445.793L65.6416 440.698ZM7.35926 321.028C16.8466 348.622 35.8431 370.041 57.8959 379.885L64.3868 365.323C46.9957 357.56 30.7842 339.95 22.5268 315.933L7.35926 321.028ZM44.536 214.466C25.5092 220.922 12.2947 236.69 5.8628 255.947C-0.567014 275.197 -0.431616 298.367 7.35926 321.028L22.5268 315.933C15.7745 296.294 15.8505 276.722 21.0812 261.062C26.3098 245.407 36.4756 234.097 49.7852 229.58L44.536 214.466ZM94.3051 219.915C78.8026 211.517 61.2028 208.81 44.536 214.466L49.7852 229.58C61.4721 225.615 74.4043 227.267 86.7034 233.929L94.3051 219.915ZM304.06 283.707L92.8125 219.29L88.196 234.553L299.443 298.97L304.06 283.707ZM179.245 477.598L308.305 295.974L295.198 286.704L166.137 468.329L179.245 477.598ZM165.526 469.341C163.022 474.293 159.939 478.634 156.372 482.249L167.84 493.471C172.659 488.588 176.675 482.875 179.856 476.586L165.526 469.341Z" fill="#D57300" mask="url(#path-10-inside-5)"/>
<path d="M212.339 203.755L135.318 166.058L144.038 98.4326L227.744 133.54L212.339 203.755Z" fill="url(#paint5_radial)"/>
<path d="M120.495 235.121L135.318 166.058M135.318 166.058L58.8785 133.54M135.318 166.058L212.339 203.755M135.318 166.058L144.038 98.4326L227.744 133.54M212.339 203.755L205.655 259.006M212.339 203.755L290.814 238.862M212.339 203.755L227.744 133.54M227.744 133.54L287.907 154.835M227.744 133.54L240.823 75.9869M240.823 75.9869L177.753 42.6061M240.823 75.9869L286.454 95.2672M240.823 75.9869L261.459 23.0381" stroke="#FFC27B" stroke-width="7"/>
<path d="M355.469 185.379L368.422 101.34L436.223 89.0785L427.793 178.637L355.469 185.379Z" fill="url(#paint6_radial)"/>
<path d="M294.635 114.858L368.422 101.34M368.422 101.34L376.561 19.4168M368.422 101.34L355.469 185.379M368.422 101.34L436.223 89.0785L427.793 178.637M355.469 185.379L297.253 195.953M355.469 185.379L347.004 269.571M355.469 185.379L427.793 178.637M427.793 178.637L424.976 241.389M427.793 178.637L487.212 173.537M487.212 173.537L500.239 103.959M487.212 173.537L482.291 221.834M487.212 173.537L544.488 176.957" stroke="#FFC27B" stroke-width="7"/>
<path d="M416.054 312.252L501.003 298.97L533.382 359.113L444.484 378.329L416.054 312.252Z" fill="url(#paint7_radial)"/>
<path d="M472.771 234.165L501.003 298.97M501.003 298.97L582.451 281.796M501.003 298.97L416.054 312.252M501.003 298.97L533.382 359.113L444.484 378.329M416.054 312.252L389.241 263.365M416.054 312.252L332.166 329.098M416.054 312.252L444.484 378.329M444.484 378.329L382.208 394.09M444.484 378.329L467.417 432.749M467.417 432.749L538.446 423.921M467.417 432.749L417.121 441.539M467.417 432.749L481.486 487.733" stroke="#FFC27B" stroke-width="7"/>
<path d="M313.817 411.322L351.996 487.496L303.586 535.991L258.499 457.863L313.817 411.322Z" fill="url(#paint8_radial)"/>
<path d="M408.393 438.663L351.996 487.496M351.996 487.496L392.889 559.206M351.996 487.496L313.817 411.322M351.996 487.496L303.586 535.991L258.499 457.863M313.817 411.322L355.732 369.071M313.817 411.322L272.513 337.213M313.817 411.322L258.499 457.863M258.499 457.863L224.693 403.818M258.499 457.863L212.795 495.739M212.795 495.739L242.518 560.112M212.795 495.739L189.296 450.915M212.795 495.739L163.901 525.423" stroke="#FFC27B" stroke-width="7"/>
<path d="M187.822 342.271L126.598 401.896L64.884 371.522L125.825 304.797L187.822 342.271Z" fill="url(#paint9_radial)"/>
<path d="M190.664 440.543L126.598 401.896M126.598 401.896L70.5101 462.679M126.598 401.896L187.822 342.271M126.598 401.896L64.884 371.522L125.825 304.797M187.822 342.271L241.214 368.069M187.822 342.271L246.085 280.354M187.822 342.271L125.825 304.797M125.825 304.797L167.162 256.18M125.825 304.797L75.1558 273.657M75.1558 273.657L22.6233 321.656M75.1558 273.657L110.86 237.6M75.1558 273.657L31.3585 236.964" stroke="#FFC27B" stroke-width="7"/>
<ellipse cx="161.501" cy="205.377" rx="4.1417" ry="3.26437" fill="#A25B07"/>
<ellipse cx="161.501" cy="205.377" rx="4.1417" ry="3.26437" fill="#A25B07"/>
<ellipse cx="161.501" cy="205.377" rx="4.1417" ry="3.26437" fill="#A25B07"/>
<ellipse rx="4.03035" ry="3.48759" transform="matrix(0.306307 0.951933 -0.953972 0.299894 339.017 138.044)" fill="#A25B07"/>
<ellipse rx="4.03035" ry="3.48759" transform="matrix(0.306307 0.951933 -0.953972 0.299894 339.017 138.044)" fill="#A25B07"/>
<ellipse rx="4.03035" ry="3.48759" transform="matrix(0.306307 0.951933 -0.953972 0.299894 339.017 138.044)" fill="#A25B07"/>
<ellipse rx="4.05747" ry="3.46439" transform="matrix(-0.819357 0.573284 -0.58225 -0.81301 456.701 282.404)" fill="#A25B07"/>
<ellipse rx="4.05747" ry="3.46439" transform="matrix(-0.819357 0.573284 -0.58225 -0.81301 456.701 282.404)" fill="#A25B07"/>
<ellipse rx="4.05747" ry="3.46439" transform="matrix(-0.819357 0.573284 -0.58225 -0.81301 456.701 282.404)" fill="#A25B07"/>
<ellipse rx="4.05587" ry="3.46578" transform="matrix(-0.798427 -0.602091 0.611023 -0.791613 354.771 440.758)" fill="#A25B07"/>
<ellipse rx="4.05587" ry="3.46578" transform="matrix(-0.798427 -0.602091 0.611023 -0.791613 354.771 440.758)" fill="#A25B07"/>
<ellipse rx="4.05587" ry="3.46578" transform="matrix(-0.798427 -0.602091 0.611023 -0.791613 354.771 440.758)" fill="#A25B07"/>
<ellipse rx="4.03109" ry="3.48695" transform="matrix(0.331445 -0.943475 0.945843 0.324625 172.484 389.817)" fill="#A25B07"/>
<ellipse rx="4.03109" ry="3.48695" transform="matrix(0.331445 -0.943475 0.945843 0.324625 172.484 389.817)" fill="#A25B07"/>
<ellipse rx="4.03109" ry="3.48695" transform="matrix(0.331445 -0.943475 0.945843 0.324625 172.484 389.817)" fill="#A25B07"/>
<path d="M172.085 138.69C172.085 140.751 170.437 142.421 168.404 142.421C166.37 142.421 164.722 140.751 164.722 138.69C164.722 136.63 166.37 134.959 168.404 134.959C170.437 134.959 172.085 136.63 172.085 138.69Z" fill="#A25B07"/>
<path d="M172.085 138.69C172.085 140.751 170.437 142.421 168.404 142.421C166.37 142.421 164.722 140.751 164.722 138.69C164.722 136.63 166.37 134.959 168.404 134.959C170.437 134.959 172.085 136.63 172.085 138.69Z" fill="#A25B07"/>
<path d="M172.085 138.69C172.085 140.751 170.437 142.421 168.404 142.421C166.37 142.421 164.722 140.751 164.722 138.69C164.722 136.63 166.37 134.959 168.404 134.959C170.437 134.959 172.085 136.63 172.085 138.69Z" fill="#A25B07"/>
<path d="M406.326 128.05C404.488 128.628 402.446 127.378 401.764 125.259C401.082 123.14 402.019 120.954 403.857 120.377C405.694 119.799 407.737 121.049 408.418 123.167C409.1 125.286 408.163 127.472 406.326 128.05Z" fill="#A25B07"/>
<path d="M406.326 128.05C404.488 128.628 402.446 127.378 401.764 125.259C401.082 123.14 402.019 120.954 403.857 120.377C405.694 119.799 407.737 121.049 408.418 123.167C409.1 125.286 408.163 127.472 406.326 128.05Z" fill="#A25B07"/>
<path d="M406.326 128.05C404.488 128.628 402.446 127.378 401.764 125.259C401.082 123.14 402.019 120.954 403.857 120.377C405.694 119.799 407.737 121.049 408.418 123.167C409.1 125.286 408.163 127.472 406.326 128.05Z" fill="#A25B07"/>
<path d="M486.745 342.77C485.631 341.215 486.216 338.912 488.052 337.628C489.888 336.343 492.28 336.563 493.394 338.118C494.508 339.674 493.922 341.976 492.086 343.261C490.25 344.546 487.859 344.326 486.745 342.77Z" fill="#A25B07"/>
<path d="M486.745 342.77C485.631 341.215 486.216 338.912 488.052 337.628C489.888 336.343 492.28 336.563 493.394 338.118C494.508 339.674 493.922 341.976 492.086 343.261C490.25 344.546 487.859 344.326 486.745 342.77Z" fill="#A25B07"/>
<path d="M486.745 342.77C485.631 341.215 486.216 338.912 488.052 337.628C489.888 336.343 492.28 336.563 493.394 338.118C494.508 339.674 493.922 341.976 492.086 343.261C490.25 344.546 487.859 344.326 486.745 342.77Z" fill="#A25B07"/>
<path d="M305.447 487.118C306.617 485.603 309.015 485.468 310.803 486.816C312.591 488.165 313.093 490.487 311.924 492.002C310.754 493.517 308.356 493.652 306.568 492.303C304.779 490.955 304.277 488.633 305.447 487.118Z" fill="#A25B07"/>
<path d="M305.447 487.118C306.617 485.603 309.015 485.468 310.803 486.816C312.591 488.165 313.093 490.487 311.924 492.002C310.754 493.517 308.356 493.652 306.568 492.303C304.779 490.955 304.277 488.633 305.447 487.118Z" fill="#A25B07"/>
<path d="M305.447 487.118C306.617 485.603 309.015 485.468 310.803 486.816C312.591 488.165 313.093 490.487 311.924 492.002C310.754 493.517 308.356 493.652 306.568 492.303C304.779 490.955 304.277 488.633 305.447 487.118Z" fill="#A25B07"/>
<path d="M112.526 357.976C114.348 358.601 115.226 360.81 114.488 362.911C113.751 365.011 111.676 366.207 109.854 365.582C108.033 364.957 107.154 362.747 107.892 360.647C108.63 358.546 110.705 357.35 112.526 357.976Z" fill="#A25B07"/>
<path d="M112.526 357.976C114.348 358.601 115.226 360.81 114.488 362.911C113.751 365.011 111.676 366.207 109.854 365.582C108.033 364.957 107.154 362.747 107.892 360.647C108.63 358.546 110.705 357.35 112.526 357.976Z" fill="#A25B07"/>
<path d="M112.526 357.976C114.348 358.601 115.226 360.81 114.488 362.911C113.751 365.011 111.676 366.207 109.854 365.582C108.033 364.957 107.154 362.747 107.892 360.647C108.63 358.546 110.705 357.35 112.526 357.976Z" fill="#A25B07"/>
<ellipse cx="186.351" cy="88.792" rx="4.1417" ry="3.26437" fill="#A25B07"/>
<ellipse cx="186.351" cy="88.792" rx="4.1417" ry="3.26437" fill="#A25B07"/>
<ellipse cx="186.351" cy="88.792" rx="4.1417" ry="3.26437" fill="#A25B07"/>
<ellipse rx="4.03035" ry="3.48759" transform="matrix(0.306307 0.951933 -0.953972 0.299894 458.435 125.852)" fill="#A25B07"/>
<ellipse rx="4.03035" ry="3.48759" transform="matrix(0.306307 0.951933 -0.953972 0.299894 458.435 125.852)" fill="#A25B07"/>
<ellipse rx="4.03035" ry="3.48759" transform="matrix(0.306307 0.951933 -0.953972 0.299894 458.435 125.852)" fill="#A25B07"/>
<ellipse rx="4.05747" ry="3.4644" transform="matrix(-0.819355 0.573286 -0.582248 -0.813011 504.664 391.185)" fill="#A25B07"/>
<ellipse rx="4.05747" ry="3.4644" transform="matrix(-0.819355 0.573286 -0.582248 -0.813011 504.664 391.185)" fill="#A25B07"/>
<ellipse rx="4.05747" ry="3.4644" transform="matrix(-0.819355 0.573286 -0.582248 -0.813011 504.664 391.185)" fill="#A25B07"/>
<ellipse rx="4.05587" ry="3.46579" transform="matrix(-0.798426 -0.602093 0.611021 -0.791614 264.046 518.473)" fill="#A25B07"/>
<ellipse rx="4.05587" ry="3.46579" transform="matrix(-0.798426 -0.602093 0.611021 -0.791614 264.046 518.473)" fill="#A25B07"/>
<ellipse rx="4.05587" ry="3.46579" transform="matrix(-0.798426 -0.602093 0.611021 -0.791614 264.046 518.473)" fill="#A25B07"/>
<ellipse rx="4.03109" ry="3.48695" transform="matrix(0.331445 -0.943475 0.945843 0.324625 69.4643 328.889)" fill="#A25B07"/>
<ellipse rx="4.03109" ry="3.48695" transform="matrix(0.331445 -0.943475 0.945843 0.324625 69.4643 328.889)" fill="#A25B07"/>
<ellipse rx="4.03109" ry="3.48695" transform="matrix(0.331445 -0.943475 0.945843 0.324625 69.4643 328.889)" fill="#A25B07"/>
<ellipse cx="235.591" cy="50.5521" rx="3.68152" ry="3.26438" fill="#A25B07"/>
<ellipse cx="235.591" cy="50.5521" rx="3.68152" ry="3.26438" fill="#A25B07"/>
<ellipse cx="235.591" cy="50.5521" rx="3.68152" ry="3.26438" fill="#A25B07"/>
<ellipse rx="4.03035" ry="3.48759" transform="matrix(0.306307 0.951933 -0.953972 0.299894 510.578 160.76)" fill="#A25B07"/>
<ellipse rx="4.03035" ry="3.48759" transform="matrix(0.306307 0.951933 -0.953972 0.299894 510.578 160.76)" fill="#A25B07"/>
<ellipse rx="4.03035" ry="3.48759" transform="matrix(0.306307 0.951933 -0.953972 0.299894 510.578 160.76)" fill="#A25B07"/>
<ellipse rx="4.05748" ry="3.4644" transform="matrix(-0.819357 0.573284 -0.58225 -0.81301 486.82 450.882)" fill="#A25B07"/>
<ellipse rx="4.05748" ry="3.4644" transform="matrix(-0.819357 0.573284 -0.58225 -0.81301 486.82 450.882)" fill="#A25B07"/>
<ellipse rx="4.05748" ry="3.4644" transform="matrix(-0.819357 0.573284 -0.58225 -0.81301 486.82 450.882)" fill="#A25B07"/>
<ellipse rx="4.05587" ry="3.46577" transform="matrix(-0.798428 -0.60209 0.611024 -0.791612 201.076 519.456)" fill="#A25B07"/>
<ellipse rx="4.05587" ry="3.46577" transform="matrix(-0.798428 -0.60209 0.611024 -0.791612 201.076 519.456)" fill="#A25B07"/>
<ellipse rx="4.05587" ry="3.46577" transform="matrix(-0.798428 -0.60209 0.611024 -0.791612 201.076 519.456)" fill="#A25B07"/>
<ellipse rx="4.0311" ry="3.48695" transform="matrix(0.331444 -0.943475 0.945843 0.324626 48.8593 270.066)" fill="#A25B07"/>
<ellipse rx="4.0311" ry="3.48695" transform="matrix(0.331444 -0.943475 0.945843 0.324626 48.8593 270.066)" fill="#A25B07"/>
<ellipse rx="4.0311" ry="3.48695" transform="matrix(0.331444 -0.943475 0.945843 0.324626 48.8593 270.066)" fill="#A25B07"/>
<ellipse cx="276.548" cy="114.441" rx="4.14169" ry="3.73071" fill="#A25B07"/>
<ellipse cx="276.548" cy="114.441" rx="4.14169" ry="3.73071" fill="#A25B07"/>
<ellipse cx="276.548" cy="114.441" rx="4.14169" ry="3.73071" fill="#A25B07"/>
<ellipse rx="4.03035" ry="3.48758" transform="matrix(0.306306 0.951933 -0.953972 0.299895 461.549 219.024)" fill="#A25B07"/>
<ellipse rx="4.03035" ry="3.48758" transform="matrix(0.306306 0.951933 -0.953972 0.299895 461.549 219.024)" fill="#A25B07"/>
<ellipse rx="4.03035" ry="3.48758" transform="matrix(0.306306 0.951933 -0.953972 0.299895 461.549 219.024)" fill="#A25B07"/>
<ellipse rx="4.05747" ry="3.4644" transform="matrix(-0.819356 0.573285 -0.582249 -0.813011 415.782 422.369)" fill="#A25B07"/>
<ellipse rx="4.05747" ry="3.4644" transform="matrix(-0.819356 0.573285 -0.582249 -0.813011 415.782 422.369)" fill="#A25B07"/>
<ellipse rx="4.05747" ry="3.4644" transform="matrix(-0.819356 0.573285 -0.582249 -0.813011 415.782 422.369)" fill="#A25B07"/>
<ellipse rx="4.05587" ry="3.46578" transform="matrix(-0.798427 -0.602091 0.611023 -0.791613 207.407 443.931)" fill="#A25B07"/>
<ellipse rx="4.05587" ry="3.46578" transform="matrix(-0.798427 -0.602091 0.611023 -0.791613 207.407 443.931)" fill="#A25B07"/>
<ellipse rx="4.05587" ry="3.46578" transform="matrix(-0.798427 -0.602091 0.611023 -0.791613 207.407 443.931)" fill="#A25B07"/>
<ellipse rx="4.03109" ry="3.48695" transform="matrix(0.331445 -0.943475 0.945843 0.324625 123.426 252.432)" fill="#A25B07"/>
<ellipse rx="4.03109" ry="3.48695" transform="matrix(0.331445 -0.943475 0.945843 0.324625 123.426 252.432)" fill="#A25B07"/>
<ellipse rx="4.03109" ry="3.48695" transform="matrix(0.331445 -0.943475 0.945843 0.324625 123.426 252.432)" fill="#A25B07"/>
<ellipse cx="251.698" cy="169.935" rx="4.14169" ry="3.26437" fill="#A25B07"/>
<ellipse cx="251.698" cy="169.935" rx="4.14169" ry="3.26437" fill="#A25B07"/>
<ellipse cx="251.698" cy="169.935" rx="4.14169" ry="3.26437" fill="#A25B07"/>
<ellipse rx="4.03035" ry="3.48759" transform="matrix(0.306307 0.951933 -0.953972 0.299894 400.178 212.365)" fill="#A25B07"/>
<ellipse rx="4.03035" ry="3.48759" transform="matrix(0.306307 0.951933 -0.953972 0.299894 400.178 212.365)" fill="#A25B07"/>
<ellipse rx="4.03035" ry="3.48759" transform="matrix(0.306307 0.951933 -0.953972 0.299894 400.178 212.365)" fill="#A25B07"/>
<ellipse rx="4.05748" ry="3.4644" transform="matrix(-0.819358 0.573283 -0.582251 -0.813009 403.594 362.545)" fill="#A25B07"/>
<ellipse rx="4.05748" ry="3.4644" transform="matrix(-0.819358 0.573283 -0.582251 -0.813009 403.594 362.545)" fill="#A25B07"/>
<ellipse rx="4.05748" ry="3.4644" transform="matrix(-0.819358 0.573283 -0.582251 -0.813009 403.594 362.545)" fill="#A25B07"/>
<ellipse rx="4.05586" ry="3.46577" transform="matrix(-0.798427 -0.602091 0.611023 -0.791613 261.535 414.578)" fill="#A25B07"/>
<ellipse rx="4.05586" ry="3.46577" transform="matrix(-0.798427 -0.602091 0.611023 -0.791613 261.535 414.578)" fill="#A25B07"/>
<ellipse rx="4.05586" ry="3.46577" transform="matrix(-0.798427 -0.602091 0.611023 -0.791613 261.535 414.578)" fill="#A25B07"/>
<ellipse rx="4.0311" ry="3.48695" transform="matrix(0.331444 -0.943475 0.945843 0.324626 168.538 294.094)" fill="#A25B07"/>
<ellipse rx="4.0311" ry="3.48695" transform="matrix(0.331444 -0.943475 0.945843 0.324626 168.538 294.094)" fill="#A25B07"/>
<ellipse rx="4.0311" ry="3.48695" transform="matrix(0.331444 -0.943475 0.945843 0.324626 168.538 294.094)" fill="#A25B07"/>
<ellipse cx="268.725" cy="262.736" rx="3.68152" ry="3.73071" fill="#A25B07"/>
<ellipse cx="268.725" cy="262.736" rx="3.68152" ry="3.73071" fill="#A25B07"/>
<ellipse cx="268.725" cy="262.736" rx="3.68152" ry="3.73071" fill="#A25B07"/>
<ellipse rx="4.03035" ry="3.48759" transform="matrix(0.306306 0.951933 -0.953972 0.299895 316.016 256.325)" fill="#A25B07"/>
<ellipse rx="4.03035" ry="3.48759" transform="matrix(0.306306 0.951933 -0.953972 0.299895 316.016 256.325)" fill="#A25B07"/>
<ellipse rx="4.03035" ry="3.48759" transform="matrix(0.306306 0.951933 -0.953972 0.299895 316.016 256.325)" fill="#A25B07"/>
<ellipse rx="4.05747" ry="3.46439" transform="matrix(-0.819357 0.573284 -0.58225 -0.81301 335.694 296.603)" fill="#A25B07"/>
<ellipse rx="4.05747" ry="3.46439" transform="matrix(-0.819357 0.573284 -0.58225 -0.81301 335.694 296.603)" fill="#A25B07"/>
<ellipse rx="4.05747" ry="3.46439" transform="matrix(-0.819357 0.573284 -0.58225 -0.81301 335.694 296.603)" fill="#A25B07"/>
<ellipse rx="4.05588" ry="3.46578" transform="matrix(-0.798428 -0.60209 0.611024 -0.791612 304.944 330.842)" fill="#A25B07"/>
<ellipse rx="4.05588" ry="3.46578" transform="matrix(-0.798428 -0.60209 0.611024 -0.791612 304.944 330.842)" fill="#A25B07"/>
<ellipse rx="4.05588" ry="3.46578" transform="matrix(-0.798428 -0.60209 0.611024 -0.791612 304.944 330.842)" fill="#A25B07"/>
<ellipse rx="4.03109" ry="3.48696" transform="matrix(0.331445 -0.943474 0.945843 0.324624 262.572 308.712)" fill="#A25B07"/>
<ellipse rx="4.03109" ry="3.48696" transform="matrix(0.331445 -0.943474 0.945843 0.324624 262.572 308.712)" fill="#A25B07"/>
<ellipse rx="4.03109" ry="3.48696" transform="matrix(0.331445 -0.943474 0.945843 0.324624 262.572 308.712)" fill="#A25B07"/>
<ellipse cx="86.0297" cy="205.377" rx="4.1417" ry="3.26437" fill="#A25B07"/>
<ellipse cx="86.0297" cy="205.377" rx="4.1417" ry="3.26437" fill="#A25B07"/>
<ellipse cx="86.0297" cy="205.377" rx="4.1417" ry="3.26437" fill="#A25B07"/>
<ellipse rx="4.03035" ry="3.48759" transform="matrix(0.306306 0.951933 -0.953972 0.299895 316.09 66.7928)" fill="#A25B07"/>
<ellipse rx="4.03035" ry="3.48759" transform="matrix(0.306306 0.951933 -0.953972 0.299895 316.09 66.7928)" fill="#A25B07"/>
<ellipse rx="4.03035" ry="3.48759" transform="matrix(0.306306 0.951933 -0.953972 0.299895 316.09 66.7928)" fill="#A25B07"/>
<ellipse rx="4.05747" ry="3.46439" transform="matrix(-0.819356 0.573286 -0.582248 -0.813011 518.442 239.205)" fill="#A25B07"/>
<ellipse rx="4.05747" ry="3.46439" transform="matrix(-0.819356 0.573286 -0.582248 -0.813011 518.442 239.205)" fill="#A25B07"/>
<ellipse rx="4.05747" ry="3.46439" transform="matrix(-0.819356 0.573286 -0.582248 -0.813011 518.442 239.205)" fill="#A25B07"/>
<ellipse rx="4.05587" ry="3.46578" transform="matrix(-0.798429 -0.602089 0.611025 -0.791611 414.911 486.109)" fill="#A25B07"/>
<ellipse rx="4.05587" ry="3.46578" transform="matrix(-0.798429 -0.602089 0.611025 -0.791611 414.911 486.109)" fill="#A25B07"/>
<ellipse rx="4.05587" ry="3.46578" transform="matrix(-0.798429 -0.602089 0.611025 -0.791611 414.911 486.109)" fill="#A25B07"/>
<ellipse rx="4.0311" ry="3.48695" transform="matrix(0.331444 -0.943475 0.945842 0.324626 147.671 460.448)" fill="#A25B07"/>
<ellipse rx="4.0311" ry="3.48695" transform="matrix(0.331444 -0.943475 0.945842 0.324626 147.671 460.448)" fill="#A25B07"/>
<ellipse rx="4.0311" ry="3.48695" transform="matrix(0.331444 -0.943475 0.945842 0.324626 147.671 460.448)" fill="#A25B07"/>
<ellipse cx="110.42" cy="133.561" rx="3.68152" ry="3.26437" fill="#A25B07"/>
<ellipse cx="110.42" cy="133.561" rx="3.68152" ry="3.26437" fill="#A25B07"/>
<ellipse cx="110.42" cy="133.561" rx="3.68152" ry="3.26437" fill="#A25B07"/>
<ellipse rx="4.03035" ry="3.48759" transform="matrix(0.306306 0.951933 -0.953972 0.299895 392.257 68.1967)" fill="#A25B07"/>
<ellipse rx="4.03035" ry="3.48759" transform="matrix(0.306306 0.951933 -0.953972 0.299895 392.257 68.1967)" fill="#A25B07"/>
<ellipse rx="4.03035" ry="3.48759" transform="matrix(0.306306 0.951933 -0.953972 0.299895 392.257 68.1967)" fill="#A25B07"/>
<ellipse rx="4.05749" ry="3.4644" transform="matrix(-0.819359 0.573281 -0.582253 -0.813008 540.182 311.371)" fill="#A25B07"/>
<ellipse rx="4.05749" ry="3.4644" transform="matrix(-0.819359 0.573281 -0.582253 -0.813008 540.182 311.371)" fill="#A25B07"/>
<ellipse rx="4.05749" ry="3.4644" transform="matrix(-0.819359 0.573281 -0.582253 -0.813008 540.182 311.371)" fill="#A25B07"/>
<ellipse rx="4.05587" ry="3.46578" transform="matrix(-0.798426 -0.602094 0.61102 -0.791615 351.716 528.158)" fill="#A25B07"/>
<ellipse rx="4.05587" ry="3.46578" transform="matrix(-0.798426 -0.602094 0.61102 -0.791615 351.716 528.158)" fill="#A25B07"/>
<ellipse rx="4.05587" ry="3.46578" transform="matrix(-0.798426 -0.602094 0.61102 -0.791615 351.716 528.158)" fill="#A25B07"/>
<ellipse rx="4.0311" ry="3.48696" transform="matrix(0.331444 -0.943475 0.945843 0.324625 87.5263 414.235)" fill="#A25B07"/>
<ellipse rx="4.0311" ry="3.48696" transform="matrix(0.331444 -0.943475 0.945843 0.324625 87.5263 414.235)" fill="#A25B07"/>
<ellipse rx="4.0311" ry="3.48696" transform="matrix(0.331444 -0.943475 0.945843 0.324625 87.5263 414.235)" fill="#A25B07"/>
<defs>
<radialGradient id="paint0_radial" cx="0" cy="0" r="1" gradientUnits="userSpaceOnUse" gradientTransform="translate(211.885 184.19) rotate(-128.331) scale(138.614 148.201)">
<stop offset="0.6875" stop-color="#D6973A"/>
<stop offset="1" stop-color="#C67700"/>
</radialGradient>
<radialGradient id="paint1_radial" cx="0" cy="0" r="1" gradientUnits="userSpaceOnUse" gradientTransform="translate(374.463 178.962) rotate(-55.3386) scale(138.44 148.354)">
<stop offset="0.6875" stop-color="#D6973A"/>
<stop offset="1" stop-color="#C67700"/>
</radialGradient>
<radialGradient id="paint2_radial" cx="0" cy="0" r="1" gradientUnits="userSpaceOnUse" gradientTransform="translate(427.804 328.138) rotate(16.5166) scale(139.995 146.965)">
<stop offset="0.6875" stop-color="#D6973A"/>
<stop offset="1" stop-color="#C67700"/>
</radialGradient>
<radialGradient id="paint3_radial" cx="0" cy="0" r="1" gradientUnits="userSpaceOnUse" gradientTransform="translate(301.986 427.272) rotate(89.3264) scale(138.147 148.762)">
<stop offset="0.6875" stop-color="#D6973A"/>
<stop offset="1" stop-color="#C67700"/>
</radialGradient>
<radialGradient id="paint4_radial" cx="0" cy="0" r="1" gradientUnits="userSpaceOnUse" gradientTransform="translate(169.09 335.999) rotate(161.345) scale(139.976 146.99)">
<stop offset="0.6875" stop-color="#D6973A"/>
<stop offset="1" stop-color="#C67700"/>
</radialGradient>
<radialGradient id="paint5_radial" cx="0" cy="0" r="1" gradientUnits="userSpaceOnUse" gradientTransform="translate(171.649 135.267) rotate(88.1838) scale(123.801 122.446)">
<stop offset="0.213542" stop-color="#CF7C00"/>
<stop offset="1" stop-color="#FFC671" stop-opacity="0.82"/>
</radialGradient>
<radialGradient id="paint6_radial" cx="0" cy="0" r="1" gradientUnits="userSpaceOnUse" gradientTransform="translate(409.111 126.269) rotate(160.767) scale(125.006 121.306)">
<stop offset="0.213542" stop-color="#CF7C00"/>
<stop offset="1" stop-color="#FFC671" stop-opacity="0.82"/>
</radialGradient>
<radialGradient id="paint7_radial" cx="0" cy="0" r="1" gradientUnits="userSpaceOnUse" gradientTransform="translate(489.306 344.854) rotate(-127.413) scale(124.246 122.049)">
<stop offset="0.213542" stop-color="#CF7C00"/>
<stop offset="1" stop-color="#FFC671" stop-opacity="0.82"/>
</radialGradient>
<radialGradient id="paint8_radial" cx="0" cy="0" r="1" gradientUnits="userSpaceOnUse" gradientTransform="translate(304.2 490.156) rotate(-54.1408) scale(124.208 122.086)">
<stop offset="0.213542" stop-color="#CF7C00"/>
<stop offset="1" stop-color="#FFC671" stop-opacity="0.82"/>
</radialGradient>
<radialGradient id="paint9_radial" cx="0" cy="0" r="1" gradientUnits="userSpaceOnUse" gradientTransform="translate(109.099 357.81) rotate(17.2089) scale(125.032 121.284)">
<stop offset="0.213542" stop-color="#CF7C00"/>
<stop offset="1" stop-color="#FFC671" stop-opacity="0.82"/>
</radialGradient>
</defs>
</svg>
