<svg width="473" height="425" viewBox="0 0 473 425" fill="none" xmlns="http://www.w3.org/2000/svg">
<path d="M97.6416 85.026C102.566 76.3218 153.785 103.577 148.122 113.587C142.459 123.596 151.135 150.908 143.01 165.269C134.885 179.63 111.683 177.993 102.819 193.659C93.9556 209.326 101.44 233.667 97.7066 245.342C93.9734 257.018 60.717 268.075 54.5617 278.954C48.4064 289.834 -0.596976 258.662 4.08105 250.394C8.75907 242.125 55.6205 236.467 57.235 222.444C58.8496 208.422 44.9523 178.154 53.3235 163.358C61.6947 148.562 95.8903 154.121 102.538 142.372C109.186 130.622 92.717 93.7302 97.6416 85.026Z" fill="#FE1616" fill-opacity="0.9"/>
<path d="M90.0924 294.059C82.5448 287.498 119.465 242.741 128.144 250.285C136.823 257.83 165.317 254.774 177.77 265.599C190.223 276.424 183.992 298.834 197.577 310.643C211.162 322.452 236.507 319.971 247.203 325.957C257.9 331.943 262.105 366.736 271.539 374.937C280.973 383.138 240.657 424.943 233.487 418.71C226.318 412.477 230.116 365.429 216.696 361.051C203.277 356.673 170.846 364.257 158.016 353.104C145.186 341.951 157.452 309.55 147.263 300.693C137.074 291.837 97.6401 300.62 90.0924 294.059Z" fill="#FE1616" fill-opacity="0.9"/>
<path d="M213 108.073C213 98.0718 271 96.5726 271 108.073C271 119.573 292 139.073 292 155.573C292 172.073 271 182.073 271 200.073C271 218.073 289.5 235.573 292 247.573C294.5 259.573 271 285.573 271 298.073C271 310.573 213 307.573 213 298.073C213 288.573 251 260.573 245.5 247.573C240 234.573 213 215.073 213 198.073C213 181.073 245.5 169.073 245.5 155.573C245.5 142.073 213 118.073 213 108.073Z" fill="#FE1616" fill-opacity="0.9"/>
<path d="M347.619 384.932C341.326 392.704 295.308 357.369 302.545 348.432C309.782 339.495 305.734 311.124 316.117 298.302C326.501 285.479 349.115 290.923 360.442 276.934C371.77 262.946 368.406 237.703 374.015 226.804C379.624 215.905 414.249 210.488 422.116 200.774C429.982 191.06 473.169 229.892 467.19 237.274C461.212 244.657 414.059 242.503 410.152 256.067C406.245 269.632 414.957 301.778 404.258 314.989C393.56 328.201 360.751 317.073 352.255 327.565C343.759 338.056 353.913 377.16 347.619 384.932Z" fill="#FE1616" fill-opacity="0.9"/>
<path d="M220.128 73.7071C211.298 69.012 237.203 17.0972 247.357 22.4961C257.511 27.8951 284.587 18.5079 299.156 26.2541C313.725 34.0004 312.695 57.237 328.588 65.6875C344.481 74.138 368.618 66.0193 380.387 69.4455C392.156 72.8718 404.08 105.827 415.117 111.696C426.154 117.564 396.276 167.367 387.888 162.907C379.5 158.447 372.617 111.75 358.557 110.503C344.496 109.256 314.603 123.941 299.593 115.96C284.583 107.978 289.245 73.649 277.325 67.3112C265.406 60.9733 228.958 78.4022 220.128 73.7071Z" fill="#FE1616" fill-opacity="0.9"/>
<path d="M109.585 95.5838C114.413 87.0499 122.888 90.1564 117.336 99.9696C111.784 109.783 123.159 138.184 115.193 152.264C107.227 166.344 81.3422 159.56 72.6521 174.919C63.962 190.279 76.1033 220.266 70.7771 230.77C65.4509 241.274 28.9692 256.077 23.261 258.026C17.5528 259.975 23.0848 262.529 17.6232 254.836C12.1617 247.143 56.8384 237.528 62.0867 225.853C67.335 214.178 55.6357 184.442 63.8431 169.935C72.0504 155.429 99.9854 158.867 106.503 147.347C113.021 135.828 104.756 104.118 109.585 95.5838Z" fill="white" fill-opacity="0.9"/>
<path d="M105.072 284.948C97.6718 278.515 102.406 270.829 110.915 278.226C119.424 285.623 149.524 280.139 161.733 290.752C173.942 301.365 162.133 325.378 175.452 336.956C188.77 348.534 220.575 342.614 229.807 349.928C239.038 357.241 246.271 395.942 247.043 401.924C247.814 407.906 251.421 402.995 242.793 406.813C234.166 410.631 233.65 364.934 223.256 357.464C212.862 349.993 181.39 355.529 168.811 344.594C156.233 333.66 165.171 306.971 155.182 298.287C145.193 289.604 112.472 291.38 105.072 284.948Z" fill="white" fill-opacity="0.9"/>
<path d="M228.199 112.986C228.199 103.181 237.105 101.712 237.105 112.986C237.105 124.261 260.991 143.38 260.991 159.557C260.991 175.734 235.121 182.575 235.121 200.223C235.121 217.871 260.454 237.991 260.991 249.756C261.528 261.521 237.065 292.369 233.057 296.877C229.048 301.384 235.121 300.883 226.579 296.877C218.038 292.87 252.187 262.502 251.006 249.756C249.825 237.01 225 216.89 225 200.223C225 183.556 251.006 172.792 251.006 159.557C251.006 146.321 228.199 122.791 228.199 112.986Z" fill="white" fill-opacity="0.9"/>
<path d="M320.435 352.775C314.265 360.395 306.418 355.932 313.514 347.17C320.609 338.408 314.078 308.518 324.258 295.946C334.439 283.374 358.849 294.338 369.955 280.623C381.061 266.908 374.036 235.329 381.023 225.848C388.009 216.367 426.434 207.788 432.386 206.808C438.337 205.828 433.303 202.396 437.42 210.885C441.536 219.374 395.885 221.484 388.782 232.132C381.679 242.78 388.31 274.04 377.821 286.993C367.332 299.946 340.348 291.944 332.018 302.23C323.688 312.516 326.606 345.155 320.435 352.775Z" fill="white" fill-opacity="0.9"/>
<path d="M242.49 39.6774C233.833 35.0743 236.716 26.5201 246.671 31.8134C256.626 37.1066 284.721 24.9921 299.004 32.5868C313.288 40.1814 307.183 66.2354 322.765 74.5204C338.347 82.8055 368.005 69.8834 378.645 74.9328C389.285 79.9822 405.038 116.064 407.136 121.719C409.234 127.374 411.642 121.777 404.095 127.438C396.547 133.099 385.766 88.6898 373.958 83.7489C362.15 78.808 332.73 91.2817 318.013 83.4569C303.297 75.6321 306.003 47.6167 294.316 41.4029C282.63 35.1891 251.147 44.2806 242.49 39.6774Z" fill="white" fill-opacity="0.9"/>
<path d="M129.585 106.584C134.413 98.0499 142.888 101.156 137.336 110.97C131.784 120.783 143.159 149.184 135.193 163.264C127.227 177.344 101.342 170.56 92.6521 185.919C83.962 201.279 96.1033 231.266 90.7771 241.77C85.4509 252.274 48.9692 267.077 43.261 269.026C37.5528 270.975 43.0848 273.529 37.6232 265.836C32.1617 258.143 76.8384 248.528 82.0867 236.853C87.335 225.178 75.6357 195.442 83.8431 180.935C92.0504 166.429 119.985 169.867 126.503 158.347C133.021 146.828 124.756 115.118 129.585 106.584Z" fill="white" fill-opacity="0.9"/>
<path d="M118.072 265.948C110.672 259.515 115.406 251.829 123.915 259.226C132.424 266.623 162.524 261.139 174.733 271.752C186.942 282.365 175.133 306.378 188.452 317.956C201.77 329.534 233.575 323.614 242.807 330.928C252.038 338.241 259.271 376.942 260.043 382.924C260.814 388.906 264.421 383.995 255.793 387.813C247.166 391.631 246.65 345.934 236.256 338.464C225.862 330.993 194.39 336.529 181.811 325.594C169.233 314.66 178.171 287.971 168.182 279.287C158.193 270.604 125.472 272.38 118.072 265.948Z" fill="white" fill-opacity="0.9"/>
<path d="M252.199 112.986C252.199 103.181 261.105 101.712 261.105 112.986C261.105 124.261 284.991 143.38 284.991 159.557C284.991 175.734 259.121 182.575 259.121 200.223C259.121 217.871 284.454 237.991 284.991 249.756C285.528 261.521 261.065 292.369 257.057 296.877C253.048 301.384 259.121 300.883 250.579 296.877C242.038 292.87 276.187 262.502 275.006 249.756C273.825 237.01 249 216.89 249 200.223C249 183.556 275.006 172.792 275.006 159.557C275.006 146.321 252.199 122.791 252.199 112.986Z" fill="white" fill-opacity="0.9"/>
<path d="M333.435 371.775C327.265 379.395 319.418 374.932 326.514 366.17C333.609 357.408 327.078 327.518 337.258 314.946C347.439 302.374 371.849 313.338 382.955 299.623C394.061 285.908 387.036 254.329 394.023 244.848C401.009 235.367 439.434 226.788 445.386 225.808C451.337 224.828 446.303 221.396 450.42 229.885C454.536 238.374 408.885 240.484 401.782 251.132C394.679 261.78 401.31 293.04 390.821 305.993C380.332 318.946 353.348 310.944 345.018 321.23C336.688 331.516 339.606 364.155 333.435 371.775Z" fill="white" fill-opacity="0.9"/>
<path d="M230.49 61.6774C221.833 57.0743 224.716 48.5201 234.671 53.8134C244.626 59.1066 272.721 46.9921 287.004 54.5868C301.288 62.1814 295.183 88.2354 310.765 96.5204C326.347 104.806 356.005 91.8834 366.645 96.9328C377.285 101.982 393.038 138.064 395.136 143.719C397.234 149.374 399.642 143.777 392.095 149.438C384.547 155.099 373.766 110.69 361.958 105.749C350.15 100.808 320.73 113.282 306.013 105.457C291.297 97.6321 294.003 69.6167 282.316 63.4029C270.63 57.1891 239.147 66.2806 230.49 61.6774Z" fill="white" fill-opacity="0.9"/>
</svg>
