<svg width="601" height="545" viewBox="0 0 601 545" fill="none" xmlns="http://www.w3.org/2000/svg">
<path d="M551 274.5C551 401.249 437.952 504 298.5 504C159.048 504 46 401.249 46 274.5C46 147.751 159.048 45 298.5 45C437.952 45 551 147.751 551 274.5ZM178.795 274.5C178.795 334.589 232.389 383.301 298.5 383.301C364.611 383.301 418.205 334.589 418.205 274.5C418.205 214.411 364.611 165.699 298.5 165.699C232.389 165.699 178.795 214.411 178.795 274.5Z" fill="url(#paint0_radial)"/>
<path d="M418.5 274.5C418.5 334.657 365.042 383.5 299 383.5C232.958 383.5 179.5 334.657 179.5 274.5C179.5 214.343 232.958 165.5 299 165.5C365.042 165.5 418.5 214.343 418.5 274.5Z" fill="url(#paint1_radial)" stroke="#B6B6B6"/>
<path d="M574.568 250.755C575.623 256.608 579.144 261.371 583.273 265.754C584.932 267.515 586.701 269.226 588.456 270.924C588.885 271.339 589.313 271.753 589.738 272.167C591.91 274.28 594.018 276.39 595.858 278.595C599.688 283.186 600.512 290.083 598.612 298.81C596.715 307.526 592.12 317.967 585.266 329.521C571.563 352.624 548.891 380.079 520.977 406.933C465.133 460.656 388.438 511.853 320.816 521.041C314.916 521.843 309.992 525.357 305.348 529.345C304.094 530.423 302.862 531.532 301.636 532.637C298.285 535.655 294.977 538.635 291.377 540.807C286.07 544.008 278.297 544.522 268.615 542.625C258.949 540.731 247.466 536.45 234.816 530.177C209.52 517.631 179.635 497.156 150.42 472.037C121.206 446.92 92.6791 417.174 70.0927 386.098C47.5021 355.016 30.8772 322.634 25.4254 292.244C24.3749 286.388 20.7996 281.624 16.6753 277.204C15.2663 275.694 13.7805 274.211 12.3034 272.737C11.6202 272.056 10.9389 271.376 10.2679 270.696C8.13812 268.538 6.09948 266.368 4.36941 264.083C0.822665 259.4 0.220106 252.43 2.28962 243.653C4.35592 234.89 9.06423 224.426 15.9843 212.868C29.8216 189.756 52.4452 162.363 80.2191 135.596C135.783 82.048 211.834 31.1263 279.183 21.9607C285.082 21.1579 290.099 17.5587 294.898 13.6328C295.762 12.9256 296.62 12.2082 297.474 11.4931C301.401 8.20597 305.27 4.96787 309.529 2.99159C315.078 0.416819 323.031 0.395092 332.826 2.65947C342.605 4.92007 354.141 9.44071 366.795 15.8494C392.103 28.6657 421.822 49.0003 450.807 73.7746C479.791 98.5479 508.025 127.747 530.368 158.285C552.715 188.827 569.147 220.678 574.568 250.755ZM25.3982 264.971C27.2294 267.259 29.3448 269.425 31.5096 271.557C32.096 272.134 32.6853 272.708 33.2739 273.282C34.8651 274.832 36.4506 276.377 37.9553 277.963C42.0769 282.308 45.502 286.875 46.5793 292.423C51.9143 319.897 67.0043 348.831 87.3008 376.523C107.601 404.219 133.131 430.7 159.385 453.27C185.638 475.839 212.629 494.508 235.859 506.572C247.473 512.604 258.16 516.992 267.353 519.387C276.533 521.779 284.289 522.202 290 520.223C294.995 518.493 299.503 514.927 303.925 511.429C304.441 511.02 304.957 510.612 305.471 510.209C310.437 506.314 315.36 502.78 320.949 501.961C382.473 492.944 451.547 446.836 502.311 398.274C527.701 373.985 548.539 349.055 561.582 327.795C568.102 317.168 572.688 307.437 574.911 299.148C577.131 290.875 577.022 283.945 574.014 279.007C571.654 275.133 568.323 271.644 565.04 268.205C564.079 267.197 563.121 266.194 562.193 265.186C558.065 260.705 554.497 256.121 553.42 250.577C548.089 223.136 533.019 194.255 512.748 166.618C492.473 138.976 466.973 112.549 440.744 90.0146C414.515 67.4811 387.542 48.8277 364.314 36.7396C352.701 30.696 342.01 26.2865 332.808 23.8571C323.619 21.4313 315.849 20.9619 310.117 22.877C305.065 24.5645 300.505 28.1431 296.032 31.653C295.545 32.0356 295.058 32.4175 294.572 32.7959C289.583 36.6801 284.644 40.2188 279.054 41.0342C216.826 50.1115 146.143 96.9132 94.6728 145.925C68.9303 170.438 47.962 195.533 35.2409 216.787C28.8817 227.411 24.5682 237.101 22.761 245.295C20.9559 253.479 21.6331 260.267 25.3982 264.971Z" fill="url(#paint2_radial)" stroke="#AFAFAF"/>
<defs>
<radialGradient id="paint0_radial" cx="0" cy="0" r="1" gradientUnits="userSpaceOnUse" gradientTransform="translate(298.5 274.5) rotate(90) scale(229.5 252.5)">
<stop stop-color="#313131"/>
<stop offset="1" stop-color="white" stop-opacity="0"/>
</radialGradient>
<radialGradient id="paint1_radial" cx="0" cy="0" r="1" gradientUnits="userSpaceOnUse" gradientTransform="translate(299 274.5) rotate(90) scale(109.5 120)">
<stop offset="0.838542" stop-color="white"/>
<stop offset="1" stop-color="#E4E4E4"/>
</radialGradient>
<radialGradient id="paint2_radial" cx="0" cy="0" r="1" gradientUnits="userSpaceOnUse" gradientTransform="translate(300.505 271.5) rotate(90.1149) scale(251.5 277.001)">
<stop offset="0.916667" stop-color="white"/>
<stop offset="1" stop-color="#83BFB4"/>
</radialGradient>
</defs>
</svg>
