<svg width="515" height="454" viewBox="0 0 515 454" fill="none" xmlns="http://www.w3.org/2000/svg">
<path d="M66.7175 102.571C88.6399 81.4607 143.587 76.1073 159.393 89.8772C175.199 103.647 199.478 157.181 167.281 147.466C135.084 137.751 121.172 140.02 74.6052 160.159C28.0383 180.299 44.7951 123.68 66.7175 102.571Z" fill="url(#paint0_radial)"/>
<path d="M196.264 26.3439C226.68 25.3014 271.121 58.0553 273.67 78.8627C276.218 99.6701 258.483 155.713 241.034 126.963C223.586 98.2133 211.723 90.5994 163.628 74.4441C115.534 58.2888 165.848 27.3864 196.264 26.3439Z" fill="url(#paint1_radial)"/>
<path d="M331.261 56.6606C355.845 38.7208 411.011 40.8731 424.802 56.6606C438.593 72.448 455.383 128.781 424.802 114.787C394.221 100.793 380.13 101.153 331.261 114.787C282.392 128.421 306.677 74.6004 331.261 56.6606Z" fill="url(#paint2_radial)"/>
<path d="M340.947 142.835C371.132 146.712 409.709 186.205 408.868 207.151C408.027 228.097 381.486 280.545 368.902 249.358C356.319 218.17 345.84 208.743 300.981 185.042C256.121 161.341 310.761 138.958 340.947 142.835Z" fill="url(#paint3_radial)"/>
<path d="M281.261 343.661C305.845 325.721 361.011 327.873 374.802 343.661C388.593 359.448 405.383 415.781 374.802 401.787C344.221 387.793 330.13 388.153 281.261 401.787C232.392 415.421 256.677 361.6 281.261 343.661Z" fill="url(#paint4_radial)"/>
<path d="M489.058 253.031C496.981 282.415 475.177 333.134 455.492 340.342C435.807 347.55 377.201 343.006 401.237 319.484C425.272 295.961 429.993 282.68 434.803 232.173C439.613 181.666 481.135 223.646 489.058 253.031Z" fill="url(#paint5_radial)"/>
<path d="M177.631 318.589C201.377 337.624 213.73 391.432 202.1 408.873C190.469 426.313 140.49 457.254 145.997 424.078C151.504 390.901 147.471 377.395 121.528 333.794C95.5855 290.193 153.885 299.553 177.631 318.589Z" fill="url(#paint6_radial)"/>
<path d="M190.65 202.862C220.817 198.839 268.259 227.073 272.837 247.529C277.416 267.986 265.267 325.499 245.081 298.6C224.894 271.702 212.342 265.29 162.894 253.933C113.446 242.576 160.483 206.885 190.65 202.862Z" fill="url(#paint7_radial)"/>
<path d="M24.8791 258.75C21.2782 228.53 50.1722 181.487 70.6909 177.195C91.2097 172.903 148.547 185.854 121.369 205.662C94.1916 225.471 87.604 237.933 75.5574 287.217C63.5108 336.502 28.48 288.97 24.8791 258.75Z" fill="url(#paint8_radial)"/>
<path d="M65.0665 107.177C65.7848 112.421 66.5347 117.84 65.3941 123.024C64.601 126.629 64.0996 129.474 64.6052 133.166C64.896 135.289 65.151 137.421 65.478 139.538C65.7062 141.016 66.6065 142.067 66.9972 143.427C67.49 145.141 67.8681 147.203 68.1107 148.974C68.3307 150.58 67.9619 152.15 68.0994 153.785C68.1576 154.476 67.5765 154.859 67.6811 155.623C67.7689 156.264 67.8567 156.905 67.9445 157.546C68.1121 158.77 68.2797 159.994 68.4474 161.218" stroke="#9D5500" stroke-width="3" stroke-linecap="round" stroke-linejoin="round"/>
<path d="M191.957 28.6654C188.985 33.0455 185.92 37.5766 181.605 40.6694C178.605 42.8203 176.33 44.6009 174.238 47.6843C173.035 49.4574 171.8 51.2131 170.627 53.0063C169.809 54.2579 169.776 55.6417 169.157 56.9139C168.377 58.5186 167.28 60.3047 166.277 61.7836C165.367 63.1254 164.043 64.0462 163.052 65.3537C162.633 65.9068 161.945 65.8034 161.512 66.4412C161.149 66.9766 160.785 67.5121 160.422 68.0475C159.729 69.0697 159.035 70.092 158.342 71.1142" stroke="#9D5500" stroke-width="3" stroke-linecap="round" stroke-linejoin="round"/>
<path d="M329 61C329 66.2932 329.008 71.7635 327.174 76.7451C325.899 80.2094 325.016 82.9601 325.016 86.6863C325.016 88.8289 324.98 90.9754 325.016 93.1176C325.042 94.6128 325.791 95.7765 325.994 97.1765C326.249 98.9423 326.344 101.036 326.344 102.824C326.344 104.445 325.766 105.95 325.68 107.588C325.644 108.281 325.016 108.582 325.016 109.353C325.016 110 325.016 110.647 325.016 111.294C325.016 112.529 325.016 113.765 325.016 115" stroke="#9D5500" stroke-width="3" stroke-linecap="round" stroke-linejoin="round"/>
<path d="M336.321 144.431C332.682 148.275 328.926 152.252 324.17 154.609C320.862 156.248 318.33 157.638 315.768 160.344C314.294 161.899 312.792 163.433 311.346 165.014C310.336 166.117 310.08 167.477 309.265 168.633C308.236 170.091 306.865 171.676 305.636 172.974C304.522 174.152 303.067 174.847 301.878 175.977C301.375 176.456 300.713 176.243 300.183 176.802C299.738 177.272 299.293 177.742 298.848 178.212C297.999 179.109 297.149 180.006 296.3 180.903" stroke="#9D5500" stroke-width="3" stroke-linecap="round" stroke-linejoin="round"/>
<path d="M279 348C279 353.293 279.008 358.763 277.174 363.745C275.899 367.209 275.016 369.96 275.016 373.686C275.016 375.829 274.98 377.975 275.016 380.118C275.042 381.613 275.791 382.777 275.994 384.176C276.249 385.942 276.344 388.036 276.344 389.824C276.344 391.445 275.766 392.95 275.68 394.588C275.644 395.281 275.016 395.582 275.016 396.353C275.016 397 275.016 397.647 275.016 398.294C275.016 399.529 275.016 400.765 275.016 402" stroke="#9D5500" stroke-width="3" stroke-linecap="round" stroke-linejoin="round"/>
<path d="M485.819 249.364C480.878 247.464 475.77 245.508 471.778 242.009C469.002 239.576 466.751 237.765 463.273 236.428C461.273 235.659 459.283 234.855 457.27 234.12C455.865 233.607 454.51 233.889 453.131 233.576C451.391 233.181 449.402 232.518 447.734 231.877C446.221 231.295 445.023 230.215 443.525 229.547C442.891 229.265 442.835 228.571 442.116 228.294C441.512 228.062 440.908 227.83 440.304 227.598C439.151 227.154 437.998 226.711 436.845 226.268" stroke="#9D5500" stroke-width="3" stroke-linecap="round" stroke-linejoin="round"/>
<path d="M172.852 317.542C167.743 318.926 162.465 320.364 157.177 319.898C153.5 319.573 150.614 319.441 147.018 320.416C144.949 320.976 142.868 321.502 140.81 322.098C139.374 322.514 138.446 323.541 137.148 324.103C135.511 324.812 133.514 325.451 131.79 325.918C130.225 326.343 128.62 326.178 127.017 326.524C126.339 326.67 125.884 326.143 125.14 326.345C124.516 326.514 123.891 326.683 123.267 326.853C122.074 327.176 120.882 327.499 119.69 327.822" stroke="#9D5500" stroke-width="3" stroke-linecap="round" stroke-linejoin="round"/>
<path d="M186.592 205.595C184.064 210.245 181.459 215.055 177.469 218.557C174.694 220.992 172.605 222.987 170.826 226.261C169.803 228.144 168.745 230.012 167.755 231.912C167.063 233.238 167.166 234.618 166.675 235.945C166.057 237.618 165.14 239.503 164.287 241.074C163.512 242.498 162.285 243.545 161.428 244.943C161.065 245.535 160.37 245.499 160.002 246.176C159.693 246.745 159.384 247.313 159.075 247.882C158.485 248.967 157.895 250.053 157.305 251.138" stroke="#9D5500" stroke-width="3" stroke-linecap="round" stroke-linejoin="round"/>
<path d="M27.5552 262.846C32.1701 265.439 36.9432 268.111 40.3885 272.149C42.7844 274.958 44.7504 277.074 47.9991 278.899C49.8671 279.949 51.7207 281.032 53.6063 282.049C54.9224 282.759 56.304 282.676 57.6238 283.185C59.2885 283.827 61.1607 284.77 62.7189 285.645C64.1325 286.439 65.1616 287.68 66.5479 288.557C67.1343 288.928 67.0893 289.623 67.7613 290C68.3254 290.317 68.8896 290.634 69.4537 290.951C70.5307 291.556 71.6077 292.161 72.6847 292.766" stroke="#9D5500" stroke-width="3" stroke-linecap="round" stroke-linejoin="round"/>
<path d="M90.575 90.5615C91.2302 95.3455 93.0202 99.647 93.9098 104.409C94.6695 108.475 94.7875 112.364 93.7998 116.23C93.0269 119.254 91.7248 122.754 91.9641 126.071C92.1688 128.907 92.7321 131.796 93.1184 134.616C93.8368 139.861 94.8854 145.393 95.5762 150.437" stroke="#9D5500" stroke-width="3" stroke-linecap="round" stroke-linejoin="round"/>
<path d="M222.035 33.3631C219.324 37.3589 217.779 41.7545 215.257 45.8903C213.104 49.4223 210.592 52.393 207.273 54.6075C204.676 56.3402 201.367 58.0727 199.328 60.6988C197.584 62.9447 196.072 65.4698 194.474 67.8253C191.501 72.2064 188.582 77.0213 185.724 81.2338" stroke="#9D5500" stroke-width="3" stroke-linecap="round" stroke-linejoin="round"/>
<path d="M356.528 48C356.528 52.8287 357.717 57.3333 357.952 62.1717C358.153 66.3036 357.743 70.1722 356.239 73.8683C355.063 76.76 353.298 80.0512 353.085 83.3693C352.903 86.2068 353.069 89.1456 353.069 91.992C353.069 97.2864 353.357 102.909 353.357 108" stroke="#9D5500" stroke-width="3" stroke-linecap="round" stroke-linejoin="round"/>
<path d="M365.248 153.919C361.928 157.425 359.695 161.514 356.539 165.189C353.843 168.327 350.885 170.854 347.252 172.504C344.41 173.795 340.866 174.972 338.43 177.234C336.346 179.17 334.446 181.418 332.489 183.485C328.849 187.329 325.192 191.61 321.692 195.306" stroke="#9D5500" stroke-width="3" stroke-linecap="round" stroke-linejoin="round"/>
<path d="M306.528 335C306.528 339.829 307.717 344.333 307.952 349.172C308.153 353.304 307.743 357.172 306.239 360.868C305.063 363.76 303.298 367.051 303.085 370.369C302.903 373.207 303.069 376.146 303.069 378.992C303.069 384.286 303.357 389.909 303.357 395" stroke="#9D5500" stroke-width="3" stroke-linecap="round" stroke-linejoin="round"/>
<path d="M488.075 279.723C483.568 277.99 478.936 277.484 474.336 275.967C470.407 274.672 466.943 272.9 464.033 270.171C461.756 268.036 459.317 265.207 456.297 263.818C453.713 262.63 450.911 261.73 448.254 260.709C443.312 258.809 437.96 257.06 433.209 255.233" stroke="#9D5500" stroke-width="3" stroke-linecap="round" stroke-linejoin="round"/>
<path d="M192.6 340.71C187.939 341.973 183.902 344.3 179.294 345.792C175.358 347.067 171.517 347.683 167.557 347.199C164.458 346.82 160.82 345.977 157.561 346.64C154.775 347.206 151.982 348.135 149.235 348.88C144.125 350.265 138.773 352.014 133.859 353.345" stroke="#9D5500" stroke-width="3" stroke-linecap="round" stroke-linejoin="round"/>
<path d="M216.986 207.318C214.68 211.56 213.574 216.086 211.47 220.45C209.674 224.176 207.466 227.379 204.38 229.908C201.966 231.888 198.843 233.936 197.072 236.75C195.557 239.156 194.299 241.818 192.94 244.319C190.412 248.97 187.98 254.048 185.549 258.521" stroke="#9D5500" stroke-width="3" stroke-linecap="round" stroke-linejoin="round"/>
<path d="M29.7027 232.479C33.9127 234.844 38.4227 236.013 42.7563 238.177C46.4572 240.026 49.6289 242.279 52.1151 245.399C54.0604 247.841 56.0654 250.992 58.854 252.802C61.2388 254.351 63.8823 255.645 66.364 257.039C70.98 259.632 76.0236 262.135 80.4619 264.628" stroke="#9D5500" stroke-width="3" stroke-linecap="round" stroke-linejoin="round"/>
<path d="M120.17 84.4893C121.378 92.0247 123.056 99.4807 122.858 107.126C122.777 110.25 122.396 113.066 122.823 116.184C123.2 118.939 123.577 121.695 123.955 124.45C124.098 125.496 124.241 126.542 124.385 127.588C124.544 128.755 125.236 129.046 125.666 130.092C126.135 131.234 126.456 132.849 126.624 134.075C126.798 135.343 127.021 136.616 127.146 137.889C127.262 139.059 126.096 140.082 126.248 141.189" stroke="#9D5500" stroke-width="3" stroke-linecap="round" stroke-linejoin="round"/>
<path d="M248.103 48.6334C243.964 55.0446 240.226 61.711 234.968 67.2647C232.82 69.5335 230.653 71.3724 228.886 73.977C227.325 76.2784 225.763 78.5798 224.202 80.8812C223.609 81.7546 223.017 82.6281 222.424 83.5016C221.763 84.4764 222.082 85.1556 221.703 86.2202C221.288 87.3842 220.447 88.7995 219.752 89.8235C219.033 90.8827 218.349 91.9778 217.591 93.0088C216.895 93.956 215.343 93.9373 214.716 94.8621" stroke="#9D5500" stroke-width="3" stroke-linecap="round" stroke-linejoin="round"/>
<path d="M386.673 46C386.847 53.6295 387.497 61.2443 386.264 68.7924C385.76 71.876 385 74.614 385 77.7615C385 80.5426 385 83.3237 385 86.1048C385 87.1603 385 88.2159 385 89.2715C385 90.4494 385.646 90.8322 385.929 91.9261C386.24 93.1222 386.338 94.7656 386.338 96.003C386.338 97.283 386.387 98.5737 386.338 99.8523C386.294 101.027 385 101.882 385 103" stroke="#9D5500" stroke-width="3" stroke-linecap="round" stroke-linejoin="round"/>
<path d="M388.513 173.194C383.393 178.853 378.63 184.83 372.544 189.463C370.058 191.355 367.624 192.821 365.46 195.106C363.547 197.126 361.635 199.145 359.723 201.164C358.997 201.931 358.271 202.697 357.546 203.464C356.736 204.319 356.941 205.041 356.395 206.03C355.798 207.112 354.74 208.373 353.889 209.272C353.009 210.201 352.157 211.172 351.242 212.067C350.403 212.889 348.875 212.621 348.106 213.432" stroke="#9D5500" stroke-width="3" stroke-linecap="round" stroke-linejoin="round"/>
<path d="M336.673 333C336.847 340.63 337.497 348.244 336.264 355.792C335.76 358.876 335 361.614 335 364.761C335 367.543 335 370.324 335 373.105C335 374.16 335 375.216 335 376.271C335 377.449 335.646 377.832 335.929 378.926C336.24 380.122 336.338 381.766 336.338 383.003C336.338 384.283 336.387 385.574 336.338 386.852C336.294 388.027 335 388.882 335 390" stroke="#9D5500" stroke-width="3" stroke-linecap="round" stroke-linejoin="round"/>
<path d="M479.125 308.578C471.941 306.003 464.6 303.877 457.997 300.018C455.3 298.441 453.017 296.749 450.079 295.619C447.483 294.621 444.887 293.623 442.291 292.625C441.306 292.247 440.321 291.868 439.336 291.489C438.236 291.066 437.647 291.532 436.524 291.404C435.296 291.265 433.727 290.767 432.572 290.323C431.377 289.863 430.155 289.445 428.979 288.942C427.899 288.479 427.564 286.964 426.521 286.563" stroke="#9D5500" stroke-width="3" stroke-linecap="round" stroke-linejoin="round"/>
<path d="M202.415 369.283C195.097 371.446 187.917 374.066 180.309 374.85C177.201 375.17 174.36 375.153 171.322 375.976C168.638 376.704 165.953 377.431 163.269 378.159C162.25 378.435 161.232 378.711 160.213 378.987C159.076 379.295 158.875 380.018 157.894 380.579C156.82 381.191 155.26 381.716 154.066 382.04C152.83 382.375 151.597 382.759 150.35 383.047C149.205 383.311 148.041 382.286 146.962 382.578" stroke="#9D5500" stroke-width="3" stroke-linecap="round" stroke-linejoin="round"/>
<path d="M244.427 219.956C240.937 226.742 237.872 233.743 233.184 239.786C231.269 242.255 229.293 244.297 227.79 247.063C226.462 249.506 225.134 251.95 223.806 254.394C223.302 255.321 222.798 256.248 222.294 257.176C221.732 258.211 222.116 258.855 221.843 259.952C221.545 261.151 220.846 262.642 220.256 263.729C219.644 264.854 219.07 266.011 218.417 267.112C217.818 268.122 216.272 268.256 215.738 269.238" stroke="#9D5500" stroke-width="3" stroke-linecap="round" stroke-linejoin="round"/>
<path d="M42.7227 205.217C49.4598 208.802 56.4173 211.964 62.3942 216.736C64.8359 218.686 66.8508 220.689 69.5949 222.231C72.0197 223.593 74.4444 224.955 76.8692 226.317C77.7895 226.834 78.7098 227.351 79.6301 227.868C80.6571 228.445 81.307 228.069 82.3998 228.358C83.5946 228.673 85.0757 229.392 86.1545 229.998C87.2706 230.625 88.4194 231.215 89.5106 231.883C90.513 232.497 90.6251 234.044 91.5995 234.591" stroke="#9D5500" stroke-width="3" stroke-linecap="round" stroke-linejoin="round"/>
<path d="M147.266 85.8249C149.125 88.9583 150.01 93.2246 150.483 97.1037C150.762 99.3966 150.506 101.635 150.58 103.917C150.722 108.335 151.049 112.956 150.63 117.267C150.441 119.203 150.937 121.352 151.207 123.324C151.416 124.85 151.424 127.683 152.044 129.049C153.87 133.066 153.705 138.07 154.297 142.394" stroke="#9D5500" stroke-width="3" stroke-linecap="round" stroke-linejoin="round"/>
<path d="M267.36 67.7412C266.648 71.3145 264.454 75.0787 262.212 78.2798C260.887 80.1718 259.2 81.6656 257.729 83.4114C254.881 86.792 252.036 90.4473 248.841 93.373C247.407 94.687 246.339 96.6159 245.221 98.2633C244.357 99.5375 242.468 101.65 242.016 103.081C240.689 107.288 237.22 110.899 234.77 114.511" stroke="#9D5500" stroke-width="3" stroke-linecap="round" stroke-linejoin="round"/>
<path d="M413.337 51C414.753 54.3568 415.051 58.7036 414.993 62.6111C414.959 64.9207 414.402 67.1039 414.165 69.3745C413.706 73.7711 413.404 78.3936 412.403 82.608C411.954 84.5008 412.153 86.6964 412.153 88.6872C412.153 90.227 411.776 93.0356 412.206 94.4732C413.469 98.7001 412.626 103.635 412.626 108" stroke="#9D5500" stroke-width="3" stroke-linecap="round" stroke-linejoin="round"/>
<path d="M404.435 195.157C403.156 198.569 400.384 201.93 397.655 204.728C396.042 206.381 394.136 207.583 392.403 209.069C389.047 211.946 385.649 215.095 382.025 217.467C380.397 218.532 379.032 220.264 377.663 221.709C376.605 222.827 374.4 224.607 373.723 225.947C371.735 229.885 367.729 232.889 364.728 236.058" stroke="#9D5500" stroke-width="3" stroke-linecap="round" stroke-linejoin="round"/>
<path d="M363.337 338C364.753 341.357 365.051 345.704 364.993 349.611C364.959 351.921 364.402 354.104 364.165 356.374C363.706 360.771 363.404 365.394 362.403 369.608C361.954 371.501 362.153 373.696 362.153 375.687C362.153 377.227 361.776 380.036 362.206 381.473C363.469 385.7 362.626 390.635 362.626 395" stroke="#9D5500" stroke-width="3" stroke-linecap="round" stroke-linejoin="round"/>
<path d="M464.89 331.671C461.248 331.789 457.084 330.507 453.457 329.051C451.314 328.191 449.476 326.887 447.442 325.851C443.502 323.845 439.296 321.904 435.722 319.458C434.116 318.359 431.995 317.758 430.137 317.043C428.7 316.491 426.214 315.131 424.717 315.016C420.319 314.679 416.014 312.121 411.941 310.555" stroke="#9D5500" stroke-width="3" stroke-linecap="round" stroke-linejoin="round"/>
<path d="M204.564 396.326C201.695 398.571 197.577 399.996 193.791 400.962C191.552 401.533 189.299 401.567 187.046 401.932C182.682 402.639 178.142 403.556 173.812 403.693C171.868 403.754 169.801 404.521 167.879 405.042C166.393 405.445 163.584 405.815 162.309 406.606C158.559 408.932 153.575 409.409 149.363 410.551" stroke="#9D5500" stroke-width="3" stroke-linecap="round" stroke-linejoin="round"/>
<path d="M265.467 237.081C265.109 240.707 263.295 244.668 261.378 248.074C260.245 250.087 258.713 251.739 257.42 253.621C254.918 257.265 252.445 261.182 249.553 264.407C248.254 265.855 247.381 267.879 246.431 269.629C245.695 270.982 244.023 273.269 243.714 274.737C242.806 279.055 239.708 282.989 237.624 286.823" stroke="#9D5500" stroke-width="3" stroke-linecap="round" stroke-linejoin="round"/>
<path d="M60.1404 184.419C63.7609 184.828 67.6966 186.697 71.0751 188.661C73.0721 189.822 74.7026 191.377 76.5661 192.696C80.1746 195.249 84.0567 197.777 87.241 200.713C88.6712 202.032 90.6832 202.933 92.4189 203.908C93.7613 204.662 96.0254 206.367 97.4892 206.696C101.793 207.664 105.684 210.816 109.489 212.954" stroke="#9D5500" stroke-width="3" stroke-linecap="round" stroke-linejoin="round"/>
<defs>
<radialGradient id="paint0_radial" cx="0" cy="0" r="1" gradientUnits="userSpaceOnUse" gradientTransform="translate(110.81 120.593) rotate(82.201) scale(36.5 69.5)">
<stop offset="0.427083" stop-color="#FFFEFD"/>
<stop offset="1" stop-color="#FFAE4F"/>
</radialGradient>
<radialGradient id="paint1_radial" cx="0" cy="0" r="1" gradientUnits="userSpaceOnUse" gradientTransform="translate(217.005 69.225) rotate(124.156) scale(36.5 69.5)">
<stop offset="0.427083" stop-color="#FFFEFD"/>
<stop offset="1" stop-color="#FFAE4F"/>
</radialGradient>
<radialGradient id="paint2_radial" cx="0" cy="0" r="1" gradientUnits="userSpaceOnUse" gradientTransform="translate(372.5 80.5) rotate(90) scale(36.5 69.5)">
<stop offset="0.427083" stop-color="#FFFEFD"/>
<stop offset="1" stop-color="#FFAE4F"/>
</radialGradient>
<radialGradient id="paint3_radial" cx="0" cy="0" r="1" gradientUnits="userSpaceOnUse" gradientTransform="translate(354.5 188.5) rotate(133.438) scale(36.5 69.5)">
<stop offset="0.427083" stop-color="#FFFEFD"/>
<stop offset="1" stop-color="#FFAE4F"/>
</radialGradient>
<radialGradient id="paint4_radial" cx="0" cy="0" r="1" gradientUnits="userSpaceOnUse" gradientTransform="translate(322.5 367.5) rotate(90) scale(36.5 69.5)">
<stop offset="0.427083" stop-color="#FFFEFD"/>
<stop offset="1" stop-color="#FFAE4F"/>
</radialGradient>
<radialGradient id="paint5_radial" cx="0" cy="0" r="1" gradientUnits="userSpaceOnUse" gradientTransform="translate(452.008 282.969) rotate(-158.971) scale(36.5 69.5)">
<stop offset="0.427083" stop-color="#FFFEFD"/>
<stop offset="1" stop-color="#FFAE4F"/>
</radialGradient>
<radialGradient id="paint6_radial" cx="0" cy="0" r="1" gradientUnits="userSpaceOnUse" gradientTransform="translate(165.409 364.628) rotate(164.836) scale(36.5 69.5)">
<stop offset="0.427083" stop-color="#FFFEFD"/>
<stop offset="1" stop-color="#FFAE4F"/>
</radialGradient>
<radialGradient id="paint7_radial" cx="0" cy="0" r="1" gradientUnits="userSpaceOnUse" gradientTransform="translate(215.5 243.5) rotate(118.524) scale(36.5 69.5)">
<stop offset="0.427083" stop-color="#FFFEFD"/>
<stop offset="1" stop-color="#FFAE4F"/>
</radialGradient>
<radialGradient id="paint8_radial" cx="0" cy="0" r="1" gradientUnits="userSpaceOnUse" gradientTransform="translate(65.8607 234.47) rotate(29.3243) scale(36.5 69.5)">
<stop offset="0.427083" stop-color="#FFFEFD"/>
<stop offset="1" stop-color="#FFAE4F"/>
</radialGradient>
</defs>
</svg>
