<svg width="422" height="395" viewBox="0 0 422 395" fill="none" xmlns="http://www.w3.org/2000/svg">
<path d="M61.9162 142.606C59.4732 146.218 54.6111 146.407 51.7625 143.001L42.6454 132.101C40.9876 130.119 40.5948 127.236 41.662 124.884V124.884C42.9486 122.048 45.9736 120.788 48.7057 121.948L62.6167 127.857C66.2072 129.382 67.5543 134.27 65.3019 137.6L61.9162 142.606Z" fill="url(#paint0_linear)"/>
<path d="M200.59 166.338C196.635 164.504 195.671 159.735 198.578 156.378L207.882 145.637C209.574 143.684 212.357 142.835 214.849 143.513V143.513C217.854 144.33 219.582 147.115 218.872 149.997L215.262 164.674C214.33 168.462 209.72 170.573 206.072 168.881L200.59 166.338Z" fill="url(#paint1_linear)"/>
<path d="M70.0798 60.806C71.6495 56.7378 76.345 55.4618 79.8856 58.1411L91.2171 66.7162C93.2776 68.2754 94.3078 70.9968 93.7959 73.5283V73.5283C93.1787 76.5802 90.514 78.4879 87.5911 77.9705L72.7085 75.3356C68.8674 74.6555 66.4571 70.1946 67.9044 66.4439L70.0798 60.806Z" fill="url(#paint2_linear)"/>
<path d="M215.08 13.806C216.65 9.73784 221.345 8.4618 224.886 11.1411L236.217 19.7162C238.278 21.2754 239.308 23.9968 238.796 26.5283V26.5283C238.179 29.5802 235.514 31.4879 232.591 30.9705L217.709 28.3356C213.867 27.6555 211.457 23.1946 212.904 19.4439L215.08 13.806Z" fill="url(#paint3_linear)"/>
<path d="M207.095 75.1178C211.141 73.493 215.276 76.0583 215.729 80.4752L217.18 94.6113C217.444 97.1818 216.155 99.7907 213.954 101.142V101.142C211.301 102.771 208.089 102.122 206.475 99.6307L198.257 86.9462C196.135 83.6723 197.756 78.8678 201.487 77.3697L207.095 75.1178Z" fill="url(#paint4_linear)"/>
<path d="M163.626 179.941C166.514 183.208 165.485 187.963 161.476 189.872L148.645 195.981C146.312 197.092 143.422 196.753 141.411 195.133V195.133C138.986 193.18 138.52 189.936 140.326 187.58L149.519 175.583C151.891 172.486 156.961 172.401 159.624 175.413L163.626 179.941Z" fill="url(#paint5_linear)"/>
<path d="M151.08 19.806C152.65 15.7378 157.345 14.4618 160.886 17.1411L172.217 25.7162C174.278 27.2754 175.308 29.9968 174.796 32.5283V32.5283C174.179 35.5802 171.514 37.4879 168.591 36.9705L153.709 34.3356C149.867 33.6555 147.457 29.1946 148.904 25.4439L151.08 19.806Z" fill="url(#paint6_linear)"/>
<path d="M323.08 68.806C324.65 64.7378 329.345 63.4618 332.886 66.1411L344.217 74.7162C346.278 76.2754 347.308 78.9968 346.796 81.5283V81.5283C346.179 84.5802 343.514 86.4879 340.591 85.9705L325.709 83.3356C321.867 82.6555 319.457 78.1946 320.904 74.4439L323.08 68.806Z" fill="url(#paint7_linear)"/>
<path d="M274.492 44.403C272.151 40.7244 273.912 36.1886 278.171 34.9307L291.799 30.9046C294.277 30.1725 297.078 30.9595 298.811 32.8745V32.8745C300.9 35.1833 300.853 38.4601 298.701 40.5047L287.744 50.9152C284.916 53.6021 279.896 52.8927 277.737 49.5011L274.492 44.403Z" fill="url(#paint8_linear)"/>
<path d="M187.83 233.766C192.181 233.48 195.313 237.203 194.371 241.542L191.355 255.429C190.807 257.954 188.771 260.033 186.258 260.633V260.633C183.23 261.356 180.379 259.74 179.619 256.871L175.753 242.26C174.755 238.489 177.789 234.426 181.8 234.162L187.83 233.766Z" fill="url(#paint9_linear)"/>
<path d="M253.08 65.806C254.65 61.7378 259.345 60.4618 262.886 63.1411L274.217 71.7162C276.278 73.2754 277.308 75.9968 276.796 78.5283V78.5283C276.179 81.5802 273.514 83.4879 270.591 82.9705L255.709 80.3356C251.867 79.6555 249.457 75.1946 250.904 71.4439L253.08 65.806Z" fill="url(#paint10_linear)"/>
<path d="M125.08 69.806C126.65 65.7378 131.345 64.4618 134.886 67.1411L146.217 75.7162C148.278 77.2754 149.308 79.9968 148.796 82.5283V82.5283C148.179 85.5802 145.514 87.4879 142.591 86.9705L127.709 84.3356C123.867 83.6555 121.457 79.1946 122.904 75.4439L125.08 69.806Z" fill="url(#paint11_linear)"/>
<path d="M368.029 106.571C372.362 107.057 374.788 111.275 373.096 115.379L367.678 128.517C366.693 130.905 364.322 132.593 361.744 132.74V132.74C358.635 132.918 356.113 130.825 355.872 127.866L354.643 112.802C354.325 108.914 358.028 105.451 362.023 105.898L368.029 106.571Z" fill="url(#paint12_linear)"/>
<path d="M93.6462 197.421C98.0011 197.202 101.076 200.973 100.067 205.297L96.839 219.136C96.2521 221.652 94.1845 223.7 91.6634 224.261V224.261C88.6242 224.938 85.798 223.279 85.0826 220.398L81.4399 205.73C80.4997 201.944 83.5956 197.928 87.6108 197.726L93.6462 197.421Z" fill="url(#paint13_linear)"/>
<path d="M122.248 288.14C117.95 287.409 115.767 283.06 117.691 279.058L123.848 266.25C124.967 263.921 127.43 262.372 130.013 262.371V262.371C133.127 262.371 135.525 264.604 135.598 267.572L135.968 282.681C136.063 286.581 132.169 289.828 128.206 289.154L122.248 288.14Z" fill="url(#paint14_linear)"/>
<path d="M288.08 343.806C289.65 339.738 294.345 338.462 297.886 341.141L309.217 349.716C311.278 351.275 312.308 353.997 311.796 356.528V356.528C311.179 359.58 308.514 361.488 305.591 360.97L290.709 358.336C286.867 357.656 284.457 353.195 285.904 349.444L288.08 343.806Z" fill="url(#paint15_linear)"/>
<path d="M256.822 232.369C261.179 232.177 264.23 235.967 263.194 240.285L259.88 254.103C259.278 256.616 257.197 258.651 254.673 259.196V259.196C251.63 259.854 248.814 258.178 248.116 255.292L244.565 240.602C243.648 236.81 246.769 232.814 250.785 232.636L256.822 232.369Z" fill="url(#paint16_linear)"/>
<path d="M342.08 248.806C343.65 244.738 348.345 243.462 351.886 246.141L363.217 254.716C365.278 256.275 366.308 258.997 365.796 261.528V261.528C365.179 264.58 362.514 266.488 359.591 265.97L344.709 263.336C340.867 262.656 338.457 258.195 339.904 254.444L342.08 248.806Z" fill="url(#paint17_linear)"/>
<path d="M110.089 141.09C105.874 139.976 104.09 135.449 106.365 131.636L113.645 119.432C114.969 117.213 117.561 115.89 120.133 116.122V116.122C123.234 116.4 125.423 118.84 125.229 121.802L124.243 136.883C123.988 140.776 119.819 143.661 115.932 142.634L110.089 141.09Z" fill="url(#paint18_linear)"/>
<path d="M58.9134 264.116C62.9771 265.697 64.2401 270.396 61.551 273.929L52.9444 285.237C51.3795 287.293 48.6553 288.316 46.1251 287.797V287.797C43.075 287.171 41.1747 284.501 41.7003 281.58L44.3765 266.705C45.0672 262.865 49.5348 260.468 53.2815 261.925L58.9134 264.116Z" fill="url(#paint19_linear)"/>
<path d="M22.0798 199.806C23.6495 195.738 28.345 194.462 31.8856 197.141L43.2171 205.716C45.2776 207.275 46.3078 209.997 45.7959 212.528V212.528C45.1787 215.58 42.514 217.488 39.5911 216.97L24.7085 214.336C20.8674 213.656 18.4571 209.195 19.9044 205.444L22.0798 199.806Z" fill="url(#paint20_linear)"/>
<path d="M78.0798 316.806C79.6495 312.738 84.345 311.462 87.8856 314.141L99.2171 322.716C101.278 324.275 102.308 326.997 101.796 329.528V329.528C101.179 332.58 98.514 334.488 95.5911 333.97L80.7085 331.336C76.8674 330.656 74.4571 326.195 75.9044 322.444L78.0798 316.806Z" fill="url(#paint21_linear)"/>
<path d="M207.642 368.628C204.702 365.408 205.655 360.636 209.632 358.663L222.363 352.348C224.677 351.2 227.572 351.492 229.61 353.08V353.08C232.065 354.994 232.584 358.23 230.816 360.615L221.818 372.758C219.495 375.892 214.428 376.059 211.717 373.09L207.642 368.628Z" fill="url(#paint22_linear)"/>
<path d="M155.232 366.969C151.18 368.578 147.055 365.997 146.618 361.578L145.22 347.437C144.966 344.865 146.265 342.262 148.471 340.919V340.919C151.131 339.3 154.341 339.961 155.945 342.458L164.115 355.174C166.224 358.456 164.585 363.254 160.848 364.738L155.232 366.969Z" fill="url(#paint23_linear)"/>
<path d="M270.08 113.806C271.65 109.738 276.345 108.462 279.886 111.141L291.217 119.716C293.278 121.275 294.308 123.997 293.796 126.528V126.528C293.179 129.58 290.514 131.488 287.591 130.97L272.709 128.336C268.867 127.656 266.457 123.195 267.904 119.444L270.08 113.806Z" fill="url(#paint24_linear)"/>
<path d="M197.08 289.806C198.65 285.738 203.345 284.462 206.886 287.141L218.217 295.716C220.278 297.275 221.308 299.997 220.796 302.528V302.528C220.179 305.58 217.514 307.488 214.591 306.97L199.709 304.336C195.867 303.656 193.457 299.195 194.904 295.444L197.08 289.806Z" fill="url(#paint25_linear)"/>
<path d="M271.562 308.026C268.142 305.321 268.316 300.458 271.924 297.871L283.473 289.591C285.573 288.085 288.478 287.908 290.743 289.148V289.148C293.475 290.642 294.507 293.752 293.146 296.39L286.218 309.823C284.43 313.29 279.455 314.269 276.302 311.775L271.562 308.026Z" fill="url(#paint26_linear)"/>
<path d="M273.645 196.221C269.442 195.059 267.71 190.512 270.028 186.725L277.447 174.605C278.796 172.401 281.403 171.108 283.972 171.369V171.369C287.07 171.683 289.231 174.147 289.003 177.106L287.846 192.176C287.547 196.065 283.344 198.903 279.47 197.832L273.645 196.221Z" fill="url(#paint27_linear)"/>
<path d="M333.846 230.7C332.333 234.79 327.656 236.131 324.078 233.502L312.628 225.085C310.546 223.555 309.478 220.848 309.955 218.31V218.31C310.53 215.249 313.167 213.305 316.097 213.781L331.015 216.209C334.865 216.835 337.337 221.262 335.943 225.033L333.846 230.7Z" fill="url(#paint28_linear)"/>
<path d="M327.08 157.806C328.65 153.738 333.345 152.462 336.886 155.141L348.217 163.716C350.278 165.275 351.308 167.997 350.796 170.528V170.528C350.179 173.58 347.514 175.488 344.591 174.97L329.709 172.336C325.867 171.656 323.457 167.195 324.904 163.444L327.08 157.806Z" fill="url(#paint29_linear)"/>
<path d="M387.266 189.128C382.958 188.453 380.719 184.133 382.591 180.106L388.58 167.22C389.669 164.876 392.112 163.295 394.694 163.261V163.261C397.807 163.22 400.235 165.421 400.346 168.388L400.913 183.491C401.059 187.389 397.208 190.687 393.236 190.064L387.266 189.128Z" fill="url(#paint30_linear)"/>
<path d="M377.08 225.806C378.65 221.738 383.345 220.462 386.886 223.141L398.217 231.716C400.278 233.275 401.308 235.997 400.796 238.528V238.528C400.179 241.58 397.514 243.488 394.591 242.97L379.709 240.336C375.867 239.656 373.457 235.195 374.904 231.444L377.08 225.806Z" fill="url(#paint31_linear)"/>
<path d="M368.05 300.64C371.897 302.692 372.594 307.507 369.505 310.697L359.618 320.904C357.82 322.76 354.994 323.452 352.543 322.637V322.637C349.589 321.654 348.019 318.777 348.887 315.939L353.309 301.486C354.45 297.756 359.17 295.905 362.718 297.796L368.05 300.64Z" fill="url(#paint32_linear)"/>
<path d="M47.962 129.107C47.2168 130.317 45.5931 130.478 44.5668 129.443L42.9197 127.782C42.379 127.236 42.2031 126.405 42.4789 125.699V125.699C42.8233 124.817 43.7624 124.392 44.6334 124.724L46.7573 125.534C48.1518 126.066 48.7472 127.832 47.962 129.107V129.107Z" fill="white" fill-opacity="0.49"/>
<path d="M211.686 150.407C210.373 149.865 209.955 148.288 210.813 147.109L212.189 145.218C212.641 144.597 213.434 144.29 214.175 144.45V144.45C215.101 144.649 215.67 145.508 215.481 146.421L215.021 148.647C214.719 150.109 213.071 150.978 211.686 150.407V150.407Z" fill="white" fill-opacity="0.49"/>
<path d="M86.7083 70.8274C87.1627 69.4806 88.7089 68.9596 89.9415 69.7379L91.9194 70.9868C92.5688 71.3968 92.9268 72.1673 92.8167 72.9175V72.9175C92.6791 73.8545 91.8593 74.4794 90.936 74.3512L88.6844 74.0385C87.2061 73.8332 86.2295 72.2463 86.7083 70.8274V70.8274Z" fill="white" fill-opacity="0.49"/>
<path d="M231.708 23.8274C232.163 22.4806 233.709 21.9596 234.941 22.7379L236.919 23.9868C237.569 24.3968 237.927 25.1673 237.817 25.9175V25.9175C237.679 26.8545 236.859 27.4794 235.936 27.3512L233.684 27.0385C232.206 26.8332 231.23 25.2463 231.708 23.8274V23.8274Z" fill="white" fill-opacity="0.49"/>
<path d="M211.099 94.1155C212.394 93.5299 213.829 94.3059 214.1 95.7382L214.535 98.0368C214.677 98.7914 214.358 99.5786 213.734 100.009V100.009C212.955 100.548 211.939 100.374 211.403 99.6109L210.097 97.7504C209.239 96.5289 209.734 94.7326 211.099 94.1155V94.1155Z" fill="white" fill-opacity="0.49"/>
<path d="M147.073 190.086C148.059 191.109 147.809 192.722 146.551 193.457L144.531 194.638C143.868 195.026 143.02 194.989 142.404 194.545V194.545C141.636 193.992 141.459 192.976 141.998 192.216L143.312 190.361C144.175 189.143 146.034 189.007 147.073 190.086V190.086Z" fill="white" fill-opacity="0.49"/>
<path d="M167.708 29.8274C168.163 28.4806 169.709 27.9596 170.941 28.7379L172.919 29.9868C173.569 30.3968 173.927 31.1673 173.817 31.9175V31.9175C173.679 32.8545 172.859 33.4794 171.936 33.3512L169.684 33.0385C168.206 32.8332 167.23 31.2463 167.708 29.8274V29.8274Z" fill="white" fill-opacity="0.49"/>
<path d="M339.708 78.8274C340.163 77.4806 341.709 76.9596 342.941 77.7379L344.919 78.9868C345.569 79.3968 345.927 80.1673 345.817 80.9175V80.9175C345.679 81.8545 344.859 82.4794 343.936 82.3512L341.684 82.0385C340.206 81.8332 339.23 80.2463 339.708 78.8274V78.8274Z" fill="white" fill-opacity="0.49"/>
<path d="M292.43 36.9734C291.616 35.8081 292.115 34.2546 293.473 33.725L295.652 32.875C296.368 32.596 297.2 32.7654 297.738 33.2995V33.2995C298.411 33.9666 298.427 34.9972 297.775 35.664L296.187 37.2901C295.144 38.3577 293.287 38.2012 292.43 36.9734V36.9734Z" fill="white" fill-opacity="0.49"/>
<path d="M185.73 253.067C187.143 252.913 188.265 254.097 188.078 255.542L187.776 257.862C187.677 258.624 187.129 259.272 186.402 259.488V259.488C185.493 259.757 184.582 259.276 184.31 258.384L183.647 256.21C183.212 254.782 184.241 253.229 185.73 253.067V253.067Z" fill="white" fill-opacity="0.49"/>
<path d="M269.708 75.8274C270.163 74.4806 271.709 73.9596 272.941 74.7379L274.919 75.9868C275.569 76.3968 275.927 77.1673 275.817 77.9175V77.9175C275.679 78.8545 274.859 79.4794 273.936 79.3512L271.684 79.0385C270.206 78.8332 269.23 77.2463 269.708 75.8274V75.8274Z" fill="white" fill-opacity="0.49"/>
<path d="M141.708 79.8274C142.163 78.4806 143.709 77.9596 144.941 78.7379L146.919 79.9868C147.569 80.3968 147.927 81.1673 147.817 81.9175V81.9175C147.679 82.8545 146.859 83.4794 145.936 83.3512L143.684 83.0385C142.206 82.8332 141.23 81.2463 141.708 79.8274V79.8274Z" fill="white" fill-opacity="0.49"/>
<path d="M362.557 125.199C363.975 125.297 364.872 126.66 364.432 128.05L363.726 130.28C363.494 131.013 362.84 131.554 362.086 131.638V131.638C361.145 131.743 360.332 131.109 360.222 130.183L359.953 127.926C359.776 126.444 361.063 125.097 362.557 125.199V125.199Z" fill="white" fill-opacity="0.49"/>
<path d="M91.2497 216.688C92.6649 216.556 93.7695 217.757 93.5595 219.199L93.2225 221.514C93.1118 222.274 92.5535 222.914 91.8233 223.119V223.119C90.9112 223.374 90.007 222.879 89.7488 221.983L89.1192 219.799C88.7058 218.365 89.7587 216.827 91.2497 216.688V216.688Z" fill="white" fill-opacity="0.49"/>
<path d="M128.772 269.854C127.362 269.675 126.544 268.263 127.063 266.901L127.894 264.715C128.167 263.997 128.851 263.493 129.609 263.452V263.452C130.554 263.401 131.329 264.081 131.387 265.011L131.527 267.28C131.619 268.769 130.258 270.041 128.772 269.854V269.854Z" fill="white" fill-opacity="0.49"/>
<path d="M304.708 353.827C305.163 352.481 306.709 351.96 307.941 352.738L309.919 353.987C310.569 354.397 310.927 355.167 310.817 355.917V355.917C310.679 356.855 309.859 357.479 308.936 357.351L306.684 357.039C305.206 356.833 304.23 355.246 304.708 353.827V353.827Z" fill="white" fill-opacity="0.49"/>
<path d="M254.307 251.621C255.723 251.497 256.82 252.705 256.601 254.146L256.249 256.459C256.134 257.218 255.572 257.855 254.84 258.055V258.055C253.926 258.304 253.025 257.804 252.773 256.906L252.157 254.718C251.752 253.282 252.815 251.751 254.307 251.621V251.621Z" fill="white" fill-opacity="0.49"/>
<path d="M358.708 258.827C359.163 257.481 360.709 256.96 361.941 257.738L363.919 258.987C364.569 259.397 364.927 260.167 364.817 260.917V260.917C364.679 261.855 363.859 262.479 362.936 262.351L360.684 262.039C359.206 261.833 358.23 260.246 358.708 258.827V258.827Z" fill="white" fill-opacity="0.49"/>
<path d="M118.226 123.462C116.838 123.159 116.15 121.679 116.789 120.368L117.813 118.265C118.149 117.575 118.876 117.134 119.633 117.162V117.162C120.58 117.196 121.291 117.942 121.265 118.874L121.201 121.146C121.159 122.638 119.689 123.783 118.226 123.462V123.462Z" fill="white" fill-opacity="0.49"/>
<path d="M48.8458 280.717C50.1913 281.175 50.7081 282.723 49.9264 283.953L48.672 285.928C48.2601 286.576 47.4887 286.932 46.7388 286.82V286.82C45.8021 286.679 45.1795 285.858 45.3103 284.935L45.6292 282.684C45.8386 281.207 47.4282 280.234 48.8458 280.717V280.717Z" fill="white" fill-opacity="0.49"/>
<path d="M38.7083 209.827C39.1627 208.481 40.7089 207.96 41.9415 208.738L43.9194 209.987C44.5688 210.397 44.9268 211.167 44.8167 211.917V211.917C44.6791 212.855 43.8593 213.479 42.936 213.351L40.6844 213.039C39.2061 212.833 38.2295 211.246 38.7083 209.827V209.827Z" fill="white" fill-opacity="0.49"/>
<path d="M94.7083 326.827C95.1627 325.481 96.7089 324.96 97.9415 325.738L99.9194 326.987C100.569 327.397 100.927 328.167 100.817 328.917V328.917C100.679 329.855 99.8593 330.479 98.936 330.351L96.6844 330.039C95.2061 329.833 94.2295 328.246 94.7083 326.827V326.827Z" fill="white" fill-opacity="0.49"/>
<path d="M223.033 361.61C221.78 360.94 221.521 359.329 222.492 358.241L224.05 356.497C224.562 355.924 225.381 355.698 226.103 355.931V355.931C227.004 356.221 227.485 357.133 227.206 358.022L226.526 360.191C226.08 361.615 224.354 362.317 223.033 361.61V361.61Z" fill="white" fill-opacity="0.49"/>
<path d="M154.12 350.09C153.049 351.024 151.451 350.696 150.778 349.403L149.698 347.328C149.343 346.646 149.422 345.8 149.895 345.208V345.208C150.486 344.467 151.509 344.34 152.242 344.916L154.03 346.32C155.203 347.242 155.248 349.105 154.12 350.09V350.09Z" fill="white" fill-opacity="0.49"/>
<path d="M286.708 123.827C287.163 122.481 288.709 121.96 289.941 122.738L291.919 123.987C292.569 124.397 292.927 125.167 292.817 125.917V125.917C292.679 126.855 291.859 127.479 290.936 127.351L288.684 127.039C287.206 126.833 286.23 125.246 286.708 123.827V123.827Z" fill="white" fill-opacity="0.49"/>
<path d="M213.708 299.827C214.163 298.481 215.709 297.96 216.941 298.738L218.919 299.987C219.569 300.397 219.927 301.167 219.817 301.917V301.917C219.679 302.855 218.859 303.479 217.936 303.351L215.684 303.039C214.206 302.833 213.23 301.246 213.708 299.827V299.827Z" fill="white" fill-opacity="0.49"/>
<path d="M286.063 295.116C284.911 294.282 284.872 292.651 285.981 291.705L287.76 290.186C288.344 289.688 289.186 289.574 289.87 289.902V289.902C290.724 290.311 291.078 291.279 290.682 292.123L289.715 294.18C289.081 295.531 287.276 295.994 286.063 295.116V295.116Z" fill="white" fill-opacity="0.49"/>
<path d="M281.982 178.688C280.597 178.368 279.926 176.88 280.58 175.577L281.628 173.486C281.972 172.799 282.703 172.367 283.461 172.403V172.403C284.407 172.448 285.109 173.202 285.073 174.134L284.983 176.405C284.924 177.896 283.441 179.024 281.982 178.688V178.688Z" fill="white" fill-opacity="0.49"/>
<path d="M317.079 220.912C316.643 222.264 315.105 222.807 313.861 222.046L311.866 220.825C311.211 220.424 310.842 219.658 310.942 218.907V218.907C311.067 217.968 311.878 217.332 312.803 217.447L315.058 217.728C316.539 217.913 317.538 219.486 317.079 220.912V220.912Z" fill="white" fill-opacity="0.49"/>
<path d="M343.708 167.827C344.163 166.481 345.709 165.96 346.941 166.738L348.919 167.987C349.569 168.397 349.927 169.167 349.817 169.917V169.917C349.679 170.855 348.859 171.479 347.936 171.351L345.684 171.039C344.206 170.833 343.23 169.246 343.708 167.827V167.827Z" fill="white" fill-opacity="0.49"/>
<path d="M393.55 170.759C392.138 170.599 391.302 169.197 391.803 167.828L392.606 165.631C392.869 164.91 393.547 164.397 394.303 164.347V164.347C395.248 164.283 396.032 164.953 396.102 165.882L396.272 168.149C396.383 169.637 395.038 170.927 393.55 170.759V170.759Z" fill="white" fill-opacity="0.49"/>
<path d="M393.708 235.827C394.163 234.481 395.709 233.96 396.941 234.738L398.919 235.987C399.569 236.397 399.927 237.167 399.817 237.917V237.917C399.679 238.855 398.859 239.479 397.936 239.351L395.684 239.039C394.206 238.833 393.23 237.246 393.708 235.827V235.827Z" fill="white" fill-opacity="0.49"/>
<path d="M356.085 315.93C357.366 316.544 357.696 318.142 356.774 319.271L355.294 321.083C354.808 321.678 354 321.94 353.269 321.739V321.739C352.355 321.489 351.834 320.599 352.074 319.698L352.657 317.501C353.041 316.059 354.734 315.282 356.085 315.93V315.93Z" fill="white" fill-opacity="0.49"/>
<defs>
<linearGradient id="paint0_linear" x1="63.1258" y1="140.535" x2="40.5371" y2="126.562" gradientUnits="userSpaceOnUse">
<stop stop-color="#FFE600" stop-opacity="0.9"/>
<stop offset="1" stop-color="#F8EDB9" stop-opacity="0.9"/>
</linearGradient>
<linearGradient id="paint1_linear" x1="202.828" y1="167.202" x2="213.013" y2="142.671" gradientUnits="userSpaceOnUse">
<stop stop-color="#FFE600" stop-opacity="0.9"/>
<stop offset="1" stop-color="#F8EDB9" stop-opacity="0.9"/>
</linearGradient>
<linearGradient id="paint2_linear" x1="69.366" y1="63.0956" x2="94.5153" y2="71.6404" gradientUnits="userSpaceOnUse">
<stop stop-color="#FFE600" stop-opacity="0.9"/>
<stop offset="1" stop-color="#F8EDB9" stop-opacity="0.9"/>
</linearGradient>
<linearGradient id="paint3_linear" x1="214.366" y1="16.0956" x2="239.515" y2="24.6404" gradientUnits="userSpaceOnUse">
<stop stop-color="#FFE600" stop-opacity="0.9"/>
<stop offset="1" stop-color="#F8EDB9" stop-opacity="0.9"/>
</linearGradient>
<linearGradient id="paint4_linear" x1="204.933" y1="76.1565" x2="215.826" y2="100.381" gradientUnits="userSpaceOnUse">
<stop stop-color="#FFE600" stop-opacity="0.9"/>
<stop offset="1" stop-color="#F8EDB9" stop-opacity="0.9"/>
</linearGradient>
<linearGradient id="paint5_linear" x1="161.923" y1="178.253" x2="142.756" y2="196.641" gradientUnits="userSpaceOnUse">
<stop stop-color="#FFE600" stop-opacity="0.9"/>
<stop offset="1" stop-color="#F8EDB9" stop-opacity="0.9"/>
</linearGradient>
<linearGradient id="paint6_linear" x1="150.366" y1="22.0956" x2="175.515" y2="30.6404" gradientUnits="userSpaceOnUse">
<stop stop-color="#FFE600" stop-opacity="0.9"/>
<stop offset="1" stop-color="#F8EDB9" stop-opacity="0.9"/>
</linearGradient>
<linearGradient id="paint7_linear" x1="322.366" y1="71.0956" x2="347.515" y2="79.6404" gradientUnits="userSpaceOnUse">
<stop stop-color="#FFE600" stop-opacity="0.9"/>
<stop offset="1" stop-color="#F8EDB9" stop-opacity="0.9"/>
</linearGradient>
<linearGradient id="paint8_linear" x1="275.911" y1="46.3369" x2="297.719" y2="31.1747" gradientUnits="userSpaceOnUse">
<stop stop-color="#FFE600" stop-opacity="0.9"/>
<stop offset="1" stop-color="#F8EDB9" stop-opacity="0.9"/>
</linearGradient>
<linearGradient id="paint9_linear" x1="185.453" y1="234.081" x2="188.274" y2="260.492" gradientUnits="userSpaceOnUse">
<stop stop-color="#FFE600" stop-opacity="0.9"/>
<stop offset="1" stop-color="#F8EDB9" stop-opacity="0.9"/>
</linearGradient>
<linearGradient id="paint10_linear" x1="252.366" y1="68.0956" x2="277.515" y2="76.6404" gradientUnits="userSpaceOnUse">
<stop stop-color="#FFE600" stop-opacity="0.9"/>
<stop offset="1" stop-color="#F8EDB9" stop-opacity="0.9"/>
</linearGradient>
<linearGradient id="paint11_linear" x1="124.366" y1="72.0956" x2="149.515" y2="80.6404" gradientUnits="userSpaceOnUse">
<stop stop-color="#FFE600" stop-opacity="0.9"/>
<stop offset="1" stop-color="#F8EDB9" stop-opacity="0.9"/>
</linearGradient>
<linearGradient id="paint12_linear" x1="365.633" y1="106.462" x2="363.752" y2="132.957" gradientUnits="userSpaceOnUse">
<stop stop-color="#FFE600" stop-opacity="0.9"/>
<stop offset="1" stop-color="#F8EDB9" stop-opacity="0.9"/>
</linearGradient>
<linearGradient id="paint13_linear" x1="91.2641" y1="197.7" x2="93.6807" y2="224.151" gradientUnits="userSpaceOnUse">
<stop stop-color="#FFE600" stop-opacity="0.9"/>
<stop offset="1" stop-color="#F8EDB9" stop-opacity="0.9"/>
</linearGradient>
<linearGradient id="paint14_linear" x1="124.634" y1="288.385" x2="128.02" y2="262.041" gradientUnits="userSpaceOnUse">
<stop stop-color="#FFE600" stop-opacity="0.9"/>
<stop offset="1" stop-color="#F8EDB9" stop-opacity="0.9"/>
</linearGradient>
<linearGradient id="paint15_linear" x1="287.366" y1="346.096" x2="312.515" y2="354.64" gradientUnits="userSpaceOnUse">
<stop stop-color="#FFE600" stop-opacity="0.9"/>
<stop offset="1" stop-color="#F8EDB9" stop-opacity="0.9"/>
</linearGradient>
<linearGradient id="paint16_linear" x1="254.439" y1="232.633" x2="256.691" y2="259.099" gradientUnits="userSpaceOnUse">
<stop stop-color="#FFE600" stop-opacity="0.9"/>
<stop offset="1" stop-color="#F8EDB9" stop-opacity="0.9"/>
</linearGradient>
<linearGradient id="paint17_linear" x1="341.366" y1="251.096" x2="366.515" y2="259.64" gradientUnits="userSpaceOnUse">
<stop stop-color="#FFE600" stop-opacity="0.9"/>
<stop offset="1" stop-color="#F8EDB9" stop-opacity="0.9"/>
</linearGradient>
<linearGradient id="paint18_linear" x1="112.443" y1="141.549" x2="118.178" y2="115.614" gradientUnits="userSpaceOnUse">
<stop stop-color="#FFE600" stop-opacity="0.9"/>
<stop offset="1" stop-color="#F8EDB9" stop-opacity="0.9"/>
</linearGradient>
<linearGradient id="paint19_linear" x1="56.6257" y1="263.396" x2="48.011" y2="288.522" gradientUnits="userSpaceOnUse">
<stop stop-color="#FFE600" stop-opacity="0.9"/>
<stop offset="1" stop-color="#F8EDB9" stop-opacity="0.9"/>
</linearGradient>
<linearGradient id="paint20_linear" x1="21.366" y1="202.096" x2="46.5153" y2="210.64" gradientUnits="userSpaceOnUse">
<stop stop-color="#FFE600" stop-opacity="0.9"/>
<stop offset="1" stop-color="#F8EDB9" stop-opacity="0.9"/>
</linearGradient>
<linearGradient id="paint21_linear" x1="77.366" y1="319.096" x2="102.515" y2="327.64" gradientUnits="userSpaceOnUse">
<stop stop-color="#FFE600" stop-opacity="0.9"/>
<stop offset="1" stop-color="#F8EDB9" stop-opacity="0.9"/>
</linearGradient>
<linearGradient id="paint22_linear" x1="209.372" y1="370.288" x2="228.241" y2="351.594" gradientUnits="userSpaceOnUse">
<stop stop-color="#FFE600" stop-opacity="0.9"/>
<stop offset="1" stop-color="#F8EDB9" stop-opacity="0.9"/>
</linearGradient>
<linearGradient id="paint23_linear" x1="157.398" y1="365.938" x2="146.597" y2="341.672" gradientUnits="userSpaceOnUse">
<stop stop-color="#FFE600" stop-opacity="0.9"/>
<stop offset="1" stop-color="#F8EDB9" stop-opacity="0.9"/>
</linearGradient>
<linearGradient id="paint24_linear" x1="269.366" y1="116.096" x2="294.515" y2="124.64" gradientUnits="userSpaceOnUse">
<stop stop-color="#FFE600" stop-opacity="0.9"/>
<stop offset="1" stop-color="#F8EDB9" stop-opacity="0.9"/>
</linearGradient>
<linearGradient id="paint25_linear" x1="196.366" y1="292.096" x2="221.515" y2="300.64" gradientUnits="userSpaceOnUse">
<stop stop-color="#FFE600" stop-opacity="0.9"/>
<stop offset="1" stop-color="#F8EDB9" stop-opacity="0.9"/>
</linearGradient>
<linearGradient id="paint26_linear" x1="273.537" y1="309.386" x2="289.154" y2="287.901" gradientUnits="userSpaceOnUse">
<stop stop-color="#FFE600" stop-opacity="0.9"/>
<stop offset="1" stop-color="#F8EDB9" stop-opacity="0.9"/>
</linearGradient>
<linearGradient id="paint27_linear" x1="275.994" y1="196.706" x2="282.023" y2="170.839" gradientUnits="userSpaceOnUse">
<stop stop-color="#FFE600" stop-opacity="0.9"/>
<stop offset="1" stop-color="#F8EDB9" stop-opacity="0.9"/>
</linearGradient>
<linearGradient id="paint28_linear" x1="334.528" y1="228.401" x2="309.262" y2="220.207" gradientUnits="userSpaceOnUse">
<stop stop-color="#FFE600" stop-opacity="0.9"/>
<stop offset="1" stop-color="#F8EDB9" stop-opacity="0.9"/>
</linearGradient>
<linearGradient id="paint29_linear" x1="326.366" y1="160.096" x2="351.515" y2="168.64" gradientUnits="userSpaceOnUse">
<stop stop-color="#FFE600" stop-opacity="0.9"/>
<stop offset="1" stop-color="#F8EDB9" stop-opacity="0.9"/>
</linearGradient>
<linearGradient id="paint30_linear" x1="389.655" y1="189.343" x2="392.697" y2="162.956" gradientUnits="userSpaceOnUse">
<stop stop-color="#FFE600" stop-opacity="0.9"/>
<stop offset="1" stop-color="#F8EDB9" stop-opacity="0.9"/>
</linearGradient>
<linearGradient id="paint31_linear" x1="376.366" y1="228.096" x2="401.515" y2="236.64" gradientUnits="userSpaceOnUse">
<stop stop-color="#FFE600" stop-opacity="0.9"/>
<stop offset="1" stop-color="#F8EDB9" stop-opacity="0.9"/>
</linearGradient>
<linearGradient id="paint32_linear" x1="365.864" y1="299.654" x2="354.33" y2="323.58" gradientUnits="userSpaceOnUse">
<stop stop-color="#FFE600" stop-opacity="0.9"/>
<stop offset="1" stop-color="#F8EDB9" stop-opacity="0.9"/>
</linearGradient>
</defs>
</svg>
