<svg width="447" height="397" viewBox="0 0 447 397" fill="none" xmlns="http://www.w3.org/2000/svg">
<path d="M198.308 139.991C175.852 152.53 147.192 144.297 134.305 121.558C121.418 98.82 129.21 70.2311 151.666 57.6912C174.122 45.1514 202.782 53.3849 215.669 76.1233C228.556 98.8618 220.764 127.451 198.308 139.991Z" fill="url(#paint0_radial)" fill-opacity="0.9" stroke="#37AA0F" stroke-width="2"/>
<path d="M332.376 106.591C309.698 119.255 280.868 111.107 267.985 88.3761C255.103 65.6454 263.056 36.9559 285.734 24.292C308.412 11.6281 337.243 19.7765 350.125 42.5072C363.008 65.238 355.054 93.9275 332.376 106.591Z" fill="url(#paint1_radial)" fill-opacity="0.9" stroke="#37AA0F" stroke-width="2"/>
<path d="M404.563 217.171C381.885 229.834 353.055 221.686 340.172 198.955C327.29 176.225 335.243 147.535 357.921 134.871C380.599 122.207 409.43 130.356 422.312 153.086C435.195 175.817 427.241 204.507 404.563 217.171Z" fill="url(#paint2_radial)" fill-opacity="0.9" stroke="#37AA0F" stroke-width="2"/>
<path d="M145.225 280.864C122.547 293.528 93.7157 285.38 80.8332 262.649C67.9507 239.918 75.9041 211.229 98.5821 198.565C121.26 185.901 150.091 194.049 162.973 216.78C175.856 239.511 167.903 268.2 145.225 280.864Z" fill="url(#paint3_radial)" fill-opacity="0.9" stroke="#37AA0F" stroke-width="2"/>
<path d="M222.496 372.708C199.818 385.372 170.987 377.224 158.104 354.493C145.222 331.762 153.175 303.073 175.853 290.409C198.531 277.745 227.362 285.893 240.244 308.624C253.127 331.355 245.174 360.044 222.496 372.708Z" fill="url(#paint4_radial)" fill-opacity="0.9" stroke="#37AA0F" stroke-width="2"/>
<path d="M324.246 307.768C301.79 320.308 273.13 312.074 260.243 289.336C247.356 266.598 255.147 238.009 277.603 225.469C300.059 212.929 328.719 221.162 341.606 243.901C354.493 266.639 346.702 295.228 324.246 307.768Z" fill="url(#paint5_radial)" fill-opacity="0.9" stroke="#37AA0F" stroke-width="2"/>
<path d="M274.448 214.517C251.77 227.181 222.939 219.032 210.057 196.301C197.174 173.571 205.128 144.881 227.806 132.217C250.484 119.553 279.315 127.702 292.197 150.433C305.08 173.163 297.126 201.853 274.448 214.517Z" fill="url(#paint6_radial)" fill-opacity="0.9" stroke="#37AA0F" stroke-width="2"/>
<path d="M89.0786 175.188C66.4006 187.852 37.5697 179.703 24.6872 156.972C11.8047 134.242 19.7581 105.552 42.4361 92.8883C65.1141 80.2244 93.945 88.3728 106.827 111.104C119.71 133.834 111.757 162.524 89.0786 175.188Z" fill="url(#paint7_radial)" fill-opacity="0.9" stroke="#37AA0F" stroke-width="2"/>
<path d="M172.546 100.452C171.672 98.2855 173.988 96.2129 176.048 97.3173L203.326 111.937C204.291 112.454 204.805 113.537 204.57 114.587C203.287 120.32 201.544 124.053 198.794 126.498C196.045 128.942 192.211 130.167 186.583 130.702C185.526 130.802 184.527 130.175 184.124 129.174L172.546 100.452Z" fill="url(#paint8_linear)" stroke="#62C500"/>
<path d="M306.796 67.0178C305.923 64.8508 308.238 62.7783 310.299 63.8826L337.577 78.5019C338.542 79.0193 339.056 80.1024 338.82 81.1527C337.537 86.8854 335.795 90.6187 333.044 93.0637C330.295 95.5075 326.462 96.7327 320.834 97.2671C319.777 97.3675 318.778 96.7407 318.374 95.7394L306.796 67.0178Z" fill="url(#paint9_linear)" stroke="#62C500"/>
<path d="M378.984 177.597C378.11 175.43 380.426 173.358 382.486 174.462L409.764 189.081C410.729 189.599 411.243 190.682 411.008 191.732C409.725 197.465 407.982 201.198 405.232 203.643C402.483 206.087 398.649 207.312 393.021 207.846C391.964 207.947 390.965 207.32 390.562 206.319L378.984 177.597Z" fill="url(#paint10_linear)" stroke="#62C500"/>
<path d="M119.22 241.171C118.346 239.004 120.661 236.931 122.722 238.036L150 252.655C150.965 253.172 151.479 254.255 151.244 255.306C149.96 261.038 148.218 264.772 145.468 267.217C142.718 269.661 138.885 270.886 133.257 271.42C132.2 271.52 131.201 270.894 130.797 269.892L119.22 241.171Z" fill="url(#paint11_linear)" stroke="#62C500"/>
<path d="M196.68 333.181C195.806 331.014 198.121 328.941 200.182 330.046L227.46 344.665C228.425 345.182 228.939 346.265 228.704 347.316C227.42 353.048 225.678 356.782 222.928 359.227C220.178 361.671 216.345 362.896 210.717 363.43C209.66 363.53 208.661 362.904 208.257 361.902L196.68 333.181Z" fill="url(#paint12_linear)" stroke="#62C500"/>
<path d="M298.311 267.883C297.437 265.716 299.752 263.644 301.813 264.748L329.091 279.367C330.056 279.885 330.57 280.968 330.335 282.018C329.051 287.751 327.309 291.484 324.558 293.929C321.809 296.373 317.976 297.598 312.348 298.132C311.291 298.233 310.292 297.606 309.888 296.605L298.311 267.883Z" fill="url(#paint13_linear)" stroke="#62C500"/>
<path d="M248.904 174.923C248.031 172.756 250.346 170.683 252.407 171.788L279.684 186.407C280.65 186.924 281.163 188.007 280.928 189.058C279.645 194.79 277.903 198.524 275.152 200.969C272.403 203.413 268.57 204.638 262.942 205.172C261.885 205.272 260.886 204.646 260.482 203.644L248.904 174.923Z" fill="url(#paint14_linear)" stroke="#62C500"/>
<path d="M63.2129 135.488C62.3394 133.321 64.6546 131.248 66.7152 132.353L93.993 146.972C94.9583 147.489 95.4721 148.573 95.2369 149.623C93.9536 155.356 92.2112 159.089 89.4608 161.534C86.7116 163.978 82.8784 165.203 77.2502 165.737C76.1934 165.838 75.1942 165.211 74.7906 164.21L63.2129 135.488Z" fill="url(#paint15_linear)" stroke="#62C500"/>
<path d="M174.405 98.2602C172.109 98.013 171.312 95.0761 173.181 93.7483L197.614 76.3861C198.505 75.7533 199.706 75.7755 200.55 76.4533C204.843 79.9008 207.395 82.9705 208.41 86.5344C209.425 90.1001 208.93 94.2565 206.9 99.9365C206.531 100.971 205.477 101.607 204.358 101.486L174.405 98.2602Z" fill="url(#paint16_linear)" stroke="#62C500"/>
<path d="M308.655 64.8256C306.359 64.5783 305.563 61.6415 307.431 60.3137L331.865 42.9514C332.755 42.3187 333.957 42.3409 334.801 43.0186C339.094 46.4661 341.646 49.5359 342.66 53.0997C343.676 56.6655 343.18 60.8219 341.151 66.5018C340.781 67.536 339.728 68.1724 338.608 68.0517L308.655 64.8256Z" fill="url(#paint17_linear)" stroke="#62C500"/>
<path d="M380.843 175.405C378.547 175.158 377.75 172.221 379.619 170.893L404.052 153.531C404.943 152.898 406.144 152.92 406.988 153.598C411.281 157.045 413.833 160.115 414.848 163.679C415.863 167.245 415.368 171.401 413.338 177.081C412.969 178.115 411.915 178.752 410.796 178.631L380.843 175.405Z" fill="url(#paint18_linear)" stroke="#62C500"/>
<path d="M121.079 238.979C118.783 238.731 117.986 235.795 119.855 234.467L144.288 217.105C145.178 216.472 146.38 216.494 147.224 217.172C151.517 220.619 154.069 223.689 155.084 227.253C156.099 230.819 155.604 234.975 153.574 240.655C153.205 241.689 152.151 242.325 151.031 242.205L121.079 238.979Z" fill="url(#paint19_linear)" stroke="#62C500"/>
<path d="M198.539 330.989C196.243 330.741 195.446 327.805 197.315 326.477L221.748 309.115C222.638 308.482 223.84 308.504 224.684 309.182C228.977 312.629 231.529 315.699 232.544 319.263C233.559 322.829 233.064 326.985 231.034 332.665C230.665 333.699 229.611 334.336 228.491 334.215L198.539 330.989Z" fill="url(#paint20_linear)" stroke="#62C500"/>
<path d="M300.17 265.691C297.874 265.443 297.077 262.507 298.946 261.179L323.379 243.817C324.27 243.184 325.471 243.206 326.315 243.884C330.609 247.331 333.16 250.401 334.175 253.965C335.191 257.531 334.695 261.687 332.666 267.367C332.296 268.401 331.243 269.037 330.123 268.917L300.17 265.691Z" fill="url(#paint21_linear)" stroke="#62C500"/>
<path d="M250.763 172.731C248.467 172.484 247.67 169.547 249.539 168.219L273.972 150.857C274.862 150.224 276.064 150.246 276.908 150.924C281.201 154.372 283.753 157.441 284.768 161.005C285.783 164.571 285.288 168.727 283.258 174.407C282.889 175.441 281.835 176.078 280.715 175.957L250.763 172.731Z" fill="url(#paint22_linear)" stroke="#62C500"/>
<path d="M65.0717 133.295C62.7759 133.048 61.9793 130.111 63.8479 128.784L88.2812 111.421C89.1716 110.789 90.3733 110.811 91.2173 111.488C95.5104 114.936 98.062 118.006 99.077 121.57C100.092 125.135 99.5968 129.292 97.5675 134.972C97.198 136.006 96.1445 136.642 95.0245 136.522L65.0717 133.295Z" fill="url(#paint23_linear)" stroke="#62C500"/>
<path d="M176.693 94.5647C175.59 96.4298 172.787 96.0607 172.154 93.9672L164.661 69.1692C164.281 67.9102 164.93 66.5905 166.14 66.1857C171.032 64.5497 174.848 64.0323 178.378 64.5428C181.908 65.0532 185.206 66.599 189.054 69.1847C190.118 69.8996 190.428 71.3372 189.769 72.4512L176.693 94.5647Z" fill="url(#paint24_linear)" stroke="#62C500"/>
<path d="M310.943 61.13C309.841 62.9951 307.037 62.626 306.405 60.5325L298.912 35.7345C298.532 34.4755 299.18 33.1558 300.391 32.751C305.283 31.115 309.098 30.5976 312.628 31.1081C316.159 31.6185 319.457 33.1643 323.305 35.75C324.369 36.4649 324.678 37.9025 324.02 39.0165L310.943 61.13Z" fill="url(#paint25_linear)" stroke="#62C500"/>
<path d="M383.131 171.709C382.028 173.574 379.224 173.205 378.592 171.112L371.099 146.314C370.719 145.055 371.367 143.735 372.578 143.33C377.47 141.694 381.285 141.177 384.815 141.687C388.346 142.198 391.644 143.744 395.492 146.329C396.556 147.044 396.865 148.482 396.207 149.596L383.131 171.709Z" fill="url(#paint26_linear)" stroke="#62C500"/>
<path d="M123.367 235.283C122.264 237.148 119.46 236.779 118.828 234.686L111.335 209.888C110.955 208.629 111.604 207.309 112.814 206.904C117.706 205.268 121.522 204.751 125.052 205.261C128.582 205.772 131.88 207.317 135.728 209.903C136.792 210.618 137.102 212.056 136.443 213.17L123.367 235.283Z" fill="url(#paint27_linear)" stroke="#62C500"/>
<path d="M200.827 327.294C199.724 329.159 196.92 328.79 196.288 326.696L188.795 301.898C188.415 300.639 189.064 299.319 190.274 298.915C195.166 297.278 198.982 296.761 202.512 297.272C206.042 297.782 209.34 299.328 213.188 301.914C214.252 302.628 214.562 304.066 213.903 305.18L200.827 327.294Z" fill="url(#paint28_linear)" stroke="#62C500"/>
<path d="M302.457 261.995C301.354 263.86 298.551 263.491 297.918 261.398L290.426 236.6C290.045 235.341 290.694 234.021 291.904 233.616C296.796 231.98 300.612 231.463 304.142 231.973C307.672 232.484 310.971 234.03 314.818 236.615C315.882 237.33 316.192 238.768 315.533 239.882L302.457 261.995Z" fill="url(#paint29_linear)" stroke="#62C500"/>
<path d="M253.051 169.035C251.948 170.9 249.145 170.531 248.512 168.438L241.019 143.64C240.639 142.381 241.288 141.061 242.498 140.656C247.39 139.02 251.206 138.503 254.736 139.013C258.266 139.524 261.564 141.07 265.412 143.655C266.476 144.37 266.786 145.808 266.127 146.922L253.051 169.035Z" fill="url(#paint30_linear)" stroke="#62C500"/>
<path d="M67.36 129.6C66.2572 131.465 63.4536 131.096 62.821 129.003L55.3285 104.205C54.9481 102.946 55.5967 101.626 56.8072 101.221C61.6992 99.5851 65.5147 99.0677 69.045 99.5782C72.5752 100.089 75.8734 101.634 79.7213 104.22C80.7851 104.935 81.0948 106.373 80.4361 107.487L67.36 129.6Z" fill="url(#paint31_linear)" stroke="#62C500"/>
<path d="M177.122 95.6529C178.876 97.1561 177.868 100.03 175.574 100.065L146.036 100.518C144.866 100.535 143.838 99.7318 143.593 98.5953C142.279 92.5205 142.142 88.1783 143.36 84.6991C144.571 81.2373 147.157 78.5441 151.496 75.8405C152.365 75.299 153.499 75.4097 154.301 76.0976L177.122 95.6529Z" fill="url(#paint32_linear)" stroke="#62C500"/>
<path d="M311.373 62.2183C313.127 63.7214 312.118 66.5953 309.824 66.6305L280.286 67.0829C279.117 67.1008 278.089 66.2972 277.843 65.1606C276.53 59.0858 276.392 54.7436 277.61 51.2645C278.822 47.8027 281.407 45.1094 285.746 42.4059C286.615 41.8644 287.749 41.9751 288.552 42.6629L311.373 62.2183Z" fill="url(#paint33_linear)" stroke="#62C500"/>
<path d="M383.56 172.798C385.314 174.301 384.306 177.175 382.012 177.21L352.474 177.662C351.304 177.68 350.276 176.876 350.031 175.74C348.717 169.665 348.58 165.323 349.798 161.844C351.009 158.382 353.595 155.689 357.934 152.985C358.803 152.444 359.937 152.554 360.739 153.242L383.56 172.798Z" fill="url(#paint34_linear)" stroke="#62C500"/>
<path d="M123.796 236.371C125.55 237.875 124.541 240.748 122.247 240.784L92.7095 241.236C91.5401 241.254 90.5121 240.45 90.2664 239.314C88.9532 233.239 88.8155 228.897 90.0334 225.418C91.2453 221.956 93.8307 219.263 98.1695 216.559C99.0385 216.017 100.173 216.128 100.975 216.816L123.796 236.371Z" fill="url(#paint35_linear)" stroke="#62C500"/>
<path d="M201.256 328.381C203.01 329.885 202.001 332.758 199.707 332.794L170.169 333.246C169 333.264 167.972 332.46 167.726 331.324C166.413 325.249 166.276 320.907 167.493 317.428C168.705 313.966 171.291 311.273 175.629 308.569C176.498 308.028 177.632 308.138 178.435 308.826L201.256 328.381Z" fill="url(#paint36_linear)" stroke="#62C500"/>
<path d="M302.888 263.084C304.642 264.587 303.633 267.461 301.339 267.496L271.801 267.948C270.632 267.966 269.604 267.163 269.358 266.026C268.045 259.951 267.907 255.609 269.125 252.13C270.337 248.668 272.922 245.975 277.261 243.271C278.13 242.73 279.264 242.841 280.067 243.528L302.888 263.084Z" fill="url(#paint37_linear)" stroke="#62C500"/>
<path d="M253.481 170.124C255.235 171.627 254.226 174.501 251.932 174.536L222.394 174.988C221.225 175.006 220.197 174.203 219.951 173.066C218.638 166.991 218.5 162.649 219.718 159.17C220.93 155.708 223.515 153.015 227.854 150.311C228.723 149.77 229.857 149.88 230.66 150.568L253.481 170.124Z" fill="url(#paint38_linear)" stroke="#62C500"/>
<path d="M67.7893 130.688C69.5434 132.192 68.5347 135.065 66.2405 135.101L36.7026 135.553C35.5332 135.571 34.5053 134.767 34.2596 133.631C32.9464 127.556 32.8087 123.214 34.0266 119.735C35.2384 116.273 37.8238 113.58 42.1626 110.876C43.0317 110.335 44.1657 110.445 44.9684 111.133L67.7893 130.688Z" fill="url(#paint39_linear)" stroke="#62C500"/>
<path d="M171.971 98.4892C173.658 97.0562 176.236 98.39 176.069 100.61L173.986 128.305C173.905 129.385 173.142 130.285 172.107 130.503C166.05 131.777 161.87 131.571 158.596 129.798C155.314 128.021 152.837 124.614 150.322 119.217C149.86 118.226 150.131 117.042 150.97 116.328L171.971 98.4892Z" fill="url(#paint40_linear)" stroke="#62C500"/>
<path d="M306.222 65.0545C307.909 63.6215 310.486 64.9553 310.319 67.1751L308.236 94.8704C308.155 95.9505 307.392 96.8507 306.357 97.0684C300.3 98.3424 296.121 98.1365 292.846 96.3634C289.565 94.5864 287.087 91.1792 284.572 85.7822C284.11 84.7915 284.381 83.6071 285.221 82.8936L306.222 65.0545Z" fill="url(#paint41_linear)" stroke="#62C500"/>
<path d="M378.409 175.634C380.096 174.201 382.674 175.534 382.507 177.754L380.424 205.45C380.343 206.53 379.58 207.43 378.545 207.648C372.488 208.922 368.308 208.716 365.034 206.943C361.752 205.166 359.275 201.758 356.76 196.361C356.298 195.371 356.569 194.186 357.408 193.473L378.409 175.634Z" fill="url(#paint42_linear)" stroke="#62C500"/>
<path d="M118.645 239.208C120.332 237.774 122.909 239.108 122.742 241.328L120.66 269.023C120.579 270.104 119.816 271.004 118.781 271.221C112.724 272.495 108.544 272.29 105.27 270.516C101.988 268.739 99.5104 265.332 96.9955 259.935C96.5338 258.945 96.8044 257.76 97.6442 257.047L118.645 239.208Z" fill="url(#paint43_linear)" stroke="#62C500"/>
<path d="M196.105 331.218C197.792 329.785 200.369 331.118 200.202 333.338L198.12 361.034C198.038 362.114 197.276 363.014 196.241 363.232C190.184 364.506 186.004 364.3 182.73 362.527C179.448 360.75 176.97 357.342 174.455 351.945C173.994 350.955 174.264 349.77 175.104 349.057L196.105 331.218Z" fill="url(#paint44_linear)" stroke="#62C500"/>
<path d="M297.737 265.92C299.424 264.487 302.001 265.821 301.834 268.04L299.752 295.736C299.67 296.816 298.907 297.716 297.873 297.934C291.816 299.208 287.636 299.002 284.361 297.229C281.08 295.452 278.602 292.044 276.087 286.648C275.626 285.657 275.896 284.472 276.736 283.759L297.737 265.92Z" fill="url(#paint45_linear)" stroke="#62C500"/>
<path d="M248.33 172.96C250.017 171.527 252.594 172.86 252.427 175.08L250.344 202.775C250.263 203.856 249.5 204.756 248.465 204.973C242.408 206.247 238.228 206.042 234.954 204.269C231.673 202.491 229.195 199.084 226.68 193.687C226.218 192.697 226.489 191.512 227.329 190.799L248.33 172.96Z" fill="url(#paint46_linear)" stroke="#62C500"/>
<path d="M62.6384 133.524C64.3254 132.091 66.9025 133.425 66.7356 135.645L64.6529 163.34C64.5717 164.42 63.8089 165.321 62.7739 165.538C56.717 166.812 52.5371 166.606 49.2628 164.833C45.9813 163.056 43.5036 159.649 40.9887 154.252C40.527 153.261 40.7975 152.077 41.6374 151.363L62.6384 133.524Z" fill="url(#paint47_linear)" stroke="#62C500"/>
<ellipse rx="2.21554" ry="1.33444" transform="matrix(0.493062 0.869994 -0.873093 0.487554 183.141 69.9271)" fill="#BFD924" fill-opacity="0.7"/>
<ellipse rx="2.21554" ry="1.33444" transform="matrix(0.493062 0.869994 -0.873093 0.487554 317.598 36.311)" fill="#BFD924" fill-opacity="0.7"/>
<ellipse rx="2.21554" ry="1.33444" transform="matrix(0.493062 0.869994 -0.873093 0.487554 389.785 146.89)" fill="#BFD924" fill-opacity="0.7"/>
<ellipse rx="1.77243" ry="0.889626" transform="matrix(0.493062 0.869994 -0.873093 0.487554 129.839 210.415)" fill="#BFD924" fill-opacity="0.7"/>
<ellipse rx="2.21554" ry="0.889626" transform="matrix(0.493062 0.869994 -0.873093 0.487554 207.328 302.645)" fill="#BFD924" fill-opacity="0.7"/>
<ellipse rx="2.21554" ry="1.33444" transform="matrix(0.493062 0.869994 -0.873093 0.487554 308.642 236.934)" fill="#BFD924" fill-opacity="0.7"/>
<ellipse rx="2.21554" ry="1.33444" transform="matrix(0.493062 0.869994 -0.873093 0.487554 259.67 144.236)" fill="#BFD924" fill-opacity="0.7"/>
<ellipse rx="1.77243" ry="0.889626" transform="matrix(0.493062 0.869994 -0.873093 0.487554 73.6934 104.739)" fill="#BFD924" fill-opacity="0.7"/>
<ellipse rx="1.77243" ry="0.889626" transform="matrix(0.493062 0.869994 -0.873093 0.487554 198.361 83.2507)" fill="#BFD924" fill-opacity="0.7"/>
<ellipse rx="1.77243" ry="0.889626" transform="matrix(0.493062 0.869994 -0.873093 0.487554 332.818 49.6346)" fill="#BFD924" fill-opacity="0.7"/>
<ellipse rx="1.77243" ry="0.889626" transform="matrix(0.493062 0.869994 -0.873093 0.487554 405.005 160.214)" fill="#BFD924" fill-opacity="0.7"/>
<ellipse rx="2.21554" ry="1.33444" transform="matrix(0.493062 0.869994 -0.873093 0.487554 145.059 223.739)" fill="#BFD924" fill-opacity="0.7"/>
<ellipse rx="1.77243" ry="1.33444" transform="matrix(0.493062 0.869994 -0.873093 0.487554 222.549 315.968)" fill="#BFD924" fill-opacity="0.7"/>
<ellipse rx="2.21554" ry="0.889626" transform="matrix(0.493062 0.869994 -0.873093 0.487554 324.081 250.643)" fill="#BFD924" fill-opacity="0.7"/>
<ellipse rx="1.77243" ry="0.889626" transform="matrix(0.493062 0.869994 -0.873093 0.487554 274.89 157.56)" fill="#BFD924" fill-opacity="0.7"/>
<ellipse rx="2.21554" ry="1.33444" transform="matrix(0.493062 0.869994 -0.873093 0.487554 88.9132 118.062)" fill="#BFD924" fill-opacity="0.7"/>
<ellipse rx="1.32933" ry="0.889626" transform="matrix(0.493062 0.869994 -0.873093 0.487554 153.82 82.2409)" fill="#BFD924" fill-opacity="0.7"/>
<ellipse rx="0.886217" ry="1.33444" transform="matrix(0.493062 0.869994 -0.873093 0.487554 288.106 49.2271)" fill="#BFD924" fill-opacity="0.7"/>
<ellipse rx="0.886217" ry="1.33444" transform="matrix(0.493062 0.869994 -0.873093 0.487554 360.294 159.806)" fill="#BFD924" fill-opacity="0.7"/>
<ellipse rx="1.32933" ry="1.33444" transform="matrix(0.493062 0.869994 -0.873093 0.487554 100.736 223.114)" fill="#BFD924" fill-opacity="0.7"/>
<ellipse rx="1.32933" ry="1.33444" transform="matrix(0.493062 0.869994 -0.873093 0.487554 178.007 314.958)" fill="#BFD924" fill-opacity="0.7"/>
<ellipse rx="0.886217" ry="0.889626" transform="matrix(0.493062 0.869994 -0.873093 0.487554 279.539 249.633)" fill="#BFD924" fill-opacity="0.7"/>
<ellipse rx="0.886217" ry="1.33444" transform="matrix(0.493062 0.869994 -0.873093 0.487554 230.179 157.152)" fill="#BFD924" fill-opacity="0.7"/>
<ellipse rx="1.32933" ry="1.33444" transform="matrix(0.493062 0.869994 -0.873093 0.487554 44.5904 117.438)" fill="#BFD924" fill-opacity="0.7"/>
<ellipse rx="1.32933" ry="1.33444" transform="matrix(0.493062 0.869994 -0.873093 0.487554 149.161 92.9634)" fill="#BFD924" fill-opacity="0.7"/>
<ellipse rx="1.32933" ry="1.77925" transform="matrix(0.493062 0.869994 -0.873093 0.487554 283.228 59.5639)" fill="#BFD924" fill-opacity="0.7"/>
<ellipse rx="1.32933" ry="1.77925" transform="matrix(0.493062 0.869994 -0.873093 0.487554 355.415 170.143)" fill="#BFD924" fill-opacity="0.7"/>
<ellipse rx="1.77243" ry="1.77925" transform="matrix(0.493062 0.869994 -0.873093 0.487554 95.8576 233.451)" fill="#BFD924" fill-opacity="0.7"/>
<ellipse rx="1.32933" ry="1.77925" transform="matrix(0.493062 0.869994 -0.873093 0.487554 173.347 325.68)" fill="#BFD924" fill-opacity="0.7"/>
<ellipse rx="1.77243" ry="1.33444" transform="matrix(0.493062 0.869994 -0.873093 0.487554 274.879 260.355)" fill="#BFD924" fill-opacity="0.7"/>
<ellipse rx="1.32933" ry="1.77925" transform="matrix(0.493062 0.869994 -0.873093 0.487554 225.3 167.49)" fill="#BFD924" fill-opacity="0.7"/>
<ellipse rx="1.77243" ry="1.77925" transform="matrix(0.493062 0.869994 -0.873093 0.487554 39.7116 127.775)" fill="#BFD924" fill-opacity="0.7"/>
<path d="M159.378 89.4238C160.703 89.6151 164.093 91.2161 163.987 92.5722C163.88 93.9282 160.319 94.5258 158.993 94.3344C157.668 94.1431 156.679 92.8886 156.785 91.5326C156.891 90.1765 158.052 89.2324 159.378 89.4238Z" fill="#BFD924" fill-opacity="0.7"/>
<path d="M293.627 55.9891C294.953 56.1805 298.342 57.7815 298.236 59.1375C298.13 60.4936 294.569 61.0912 293.243 60.8998C291.917 60.7084 290.928 59.454 291.034 58.0979C291.141 56.7419 292.301 55.7977 293.627 55.9891Z" fill="#BFD924" fill-opacity="0.7"/>
<path d="M365.815 166.568C367.14 166.76 370.53 168.361 370.424 169.717C370.318 171.073 366.756 171.67 365.43 171.479C364.105 171.288 363.116 170.033 363.222 168.677C363.328 167.321 364.489 166.377 365.815 166.568Z" fill="#BFD924" fill-opacity="0.7"/>
<path d="M106.05 230.142C107.376 230.334 110.766 231.935 110.659 233.291C110.553 234.647 106.992 235.244 105.666 235.053C104.34 234.862 103.352 233.607 103.458 232.251C103.564 230.895 104.725 229.951 106.05 230.142Z" fill="#BFD924" fill-opacity="0.7"/>
<path d="M183.511 322.153C184.837 322.344 188.227 323.945 188.12 325.301C188.014 326.657 184.453 327.255 183.127 327.063C181.801 326.872 180.813 325.618 180.919 324.261C181.025 322.905 182.186 321.961 183.511 322.153Z" fill="#BFD924" fill-opacity="0.7"/>
<path d="M285.142 256.855C286.468 257.046 289.857 258.647 289.751 260.003C289.645 261.359 286.084 261.957 284.758 261.765C283.432 261.574 282.443 260.32 282.55 258.963C282.656 257.607 283.816 256.663 285.142 256.855Z" fill="#BFD924" fill-opacity="0.7"/>
<path d="M235.735 163.895C237.061 164.086 240.45 165.687 240.344 167.043C240.238 168.399 236.677 168.997 235.351 168.805C234.025 168.614 233.036 167.359 233.142 166.003C233.248 164.647 234.409 163.703 235.735 163.895Z" fill="#BFD924" fill-opacity="0.7"/>
<path d="M50.0446 124.46C51.3704 124.651 54.7597 126.252 54.6536 127.608C54.5475 128.964 50.9861 129.562 49.6603 129.37C48.3345 129.179 47.3458 127.925 47.4519 126.568C47.558 125.212 48.7188 124.268 50.0446 124.46Z" fill="#BFD924" fill-opacity="0.7"/>
<path d="M154.49 80.6485C155.816 80.8399 159.205 82.4408 159.099 83.7969C158.993 85.1529 155.431 85.7506 154.106 85.5592C152.78 85.3678 151.791 84.1134 151.897 82.7573C152.003 81.4013 153.164 80.4571 154.49 80.6485Z" fill="#BFD924" fill-opacity="0.7"/>
<path d="M288.74 47.2138C290.066 47.4052 293.456 49.0062 293.349 50.3622C293.243 51.7182 289.682 52.3159 288.356 52.1245C287.03 51.9331 286.042 50.6787 286.148 49.3226C286.254 47.9666 287.415 47.0224 288.74 47.2138Z" fill="#BFD924" fill-opacity="0.7"/>
<path d="M360.927 157.793C362.253 157.984 365.643 159.585 365.536 160.941C365.43 162.297 361.869 162.895 360.543 162.704C359.217 162.512 358.229 161.258 358.335 159.902C358.441 158.546 359.602 157.602 360.927 157.793Z" fill="#BFD924" fill-opacity="0.7"/>
<path d="M101.164 221.367C102.49 221.558 105.879 223.159 105.773 224.515C105.667 225.871 102.105 226.469 100.779 226.278C99.4537 226.086 98.4649 224.832 98.571 223.476C98.6772 222.12 99.838 221.176 101.164 221.367Z" fill="#BFD924" fill-opacity="0.7"/>
<path d="M178.624 313.377C179.95 313.569 183.339 315.17 183.233 316.526C183.127 317.882 179.565 318.479 178.239 318.288C176.914 318.096 175.925 316.842 176.031 315.486C176.137 314.13 177.298 313.186 178.624 313.377Z" fill="#BFD924" fill-opacity="0.7"/>
<path d="M280.256 248.079C281.581 248.271 284.971 249.872 284.865 251.228C284.758 252.584 281.197 253.181 279.871 252.99C278.545 252.799 277.557 251.544 277.663 250.188C277.769 248.832 278.93 247.888 280.256 248.079Z" fill="#BFD924" fill-opacity="0.7"/>
<path d="M230.848 155.119C232.174 155.311 235.563 156.911 235.457 158.268C235.351 159.624 231.79 160.221 230.464 160.03C229.138 159.838 228.149 158.584 228.256 157.228C228.362 155.872 229.523 154.928 230.848 155.119Z" fill="#BFD924" fill-opacity="0.7"/>
<path d="M45.1569 115.684C46.4827 115.875 49.872 117.476 49.7659 118.832C49.6598 120.188 46.0984 120.786 44.7726 120.595C43.4468 120.403 42.4581 119.149 42.5642 117.793C42.6703 116.437 43.8311 115.493 45.1569 115.684Z" fill="#BFD924" fill-opacity="0.7"/>
<path d="M149.562 91.1096C150.888 91.3009 154.277 92.9019 154.171 94.258C154.065 95.614 150.504 96.2116 149.178 96.0202C147.852 95.8289 146.863 94.5744 146.969 93.2184C147.076 91.8623 148.236 90.9182 149.562 91.1096Z" fill="#BFD924" fill-opacity="0.7"/>
<path d="M283.813 57.6753C285.138 57.8667 288.528 59.4676 288.422 60.8237C288.316 62.1797 284.754 62.7774 283.428 62.586C282.103 62.3946 281.114 61.1401 281.22 59.7841C281.326 58.4281 282.487 57.4839 283.813 57.6753Z" fill="#BFD924" fill-opacity="0.7"/>
<path d="M356 168.255C357.325 168.446 360.715 170.047 360.609 171.403C360.503 172.759 356.941 173.357 355.615 173.165C354.29 172.974 353.301 171.719 353.407 170.363C353.513 169.007 354.674 168.063 356 168.255Z" fill="#BFD924" fill-opacity="0.7"/>
<path d="M96.236 231.828C97.5618 232.019 100.951 233.62 100.845 234.976C100.739 236.332 97.1775 236.93 95.8517 236.739C94.5259 236.547 93.5372 235.293 93.6433 233.937C93.7494 232.581 94.9102 231.637 96.236 231.828Z" fill="#BFD924" fill-opacity="0.7"/>
<path d="M173.696 323.839C175.022 324.03 178.411 325.631 178.305 326.987C178.199 328.343 174.637 328.941 173.312 328.749C171.986 328.558 170.997 327.303 171.103 325.947C171.209 324.591 172.37 323.647 173.696 323.839Z" fill="#BFD924" fill-opacity="0.7"/>
<path d="M275.327 258.54C276.653 258.732 280.042 260.333 279.936 261.689C279.83 263.045 276.268 263.642 274.943 263.451C273.617 263.259 272.628 262.005 272.734 260.649C272.84 259.293 274.001 258.349 275.327 258.54Z" fill="#BFD924" fill-opacity="0.7"/>
<path d="M225.921 165.58C227.246 165.772 230.636 167.373 230.53 168.729C230.423 170.085 226.862 170.682 225.536 170.491C224.211 170.3 223.222 169.045 223.328 167.689C223.434 166.333 224.595 165.389 225.921 165.58Z" fill="#BFD924" fill-opacity="0.7"/>
<path d="M40.2292 126.145C41.555 126.336 44.9443 127.937 44.8382 129.293C44.7321 130.65 41.1707 131.247 39.8449 131.056C38.5191 130.864 37.5304 129.61 37.6365 128.254C37.7426 126.898 38.9034 125.954 40.2292 126.145Z" fill="#BFD924" fill-opacity="0.7"/>
<path d="M163.98 114.815C164.839 113.825 167.913 111.994 168.928 112.94C169.944 113.885 168.517 117.249 167.658 118.24C166.8 119.23 165.28 119.267 164.264 118.321C163.249 117.376 163.121 115.806 163.98 114.815Z" fill="#BFD924" fill-opacity="0.7"/>
<path d="M298.23 81.3808C299.089 80.3901 302.163 78.5598 303.179 79.5054C304.195 80.4509 302.767 83.8143 301.909 84.8049C301.05 85.7956 299.531 85.8322 298.515 84.8866C297.499 83.941 297.372 82.3714 298.23 81.3808Z" fill="#BFD924" fill-opacity="0.7"/>
<path d="M370.417 191.96C371.276 190.969 374.35 189.139 375.366 190.085C376.382 191.03 374.954 194.394 374.096 195.384C373.237 196.375 371.718 196.411 370.702 195.466C369.686 194.52 369.559 192.951 370.417 191.96Z" fill="#BFD924" fill-opacity="0.7"/>
<path d="M110.654 255.534C111.512 254.543 114.587 252.713 115.602 253.658C116.618 254.604 115.191 257.967 114.332 258.958C113.473 259.949 111.954 259.985 110.938 259.04C109.922 258.094 109.795 256.524 110.654 255.534Z" fill="#BFD924" fill-opacity="0.7"/>
<path d="M188.114 347.544C188.972 346.554 192.046 344.723 193.062 345.669C194.078 346.615 192.651 349.978 191.792 350.969C190.933 351.959 189.414 351.996 188.398 351.05C187.382 350.105 187.255 348.535 188.114 347.544Z" fill="#BFD924" fill-opacity="0.7"/>
<path d="M289.745 282.246C290.603 281.255 293.677 279.425 294.693 280.371C295.709 281.316 294.281 284.68 293.423 285.67C292.564 286.661 291.045 286.697 290.029 285.752C289.013 284.806 288.886 283.237 289.745 282.246Z" fill="#BFD924" fill-opacity="0.7"/>
<path d="M240.338 189.286C241.197 188.295 244.271 186.465 245.287 187.41C246.303 188.356 244.875 191.719 244.017 192.71C243.158 193.701 241.638 193.737 240.623 192.792C239.607 191.846 239.48 190.276 240.338 189.286Z" fill="#BFD924" fill-opacity="0.7"/>
<path d="M54.6469 149.851C55.5055 148.86 58.5797 147.03 59.5954 147.975C60.6112 148.921 59.1838 152.284 58.3252 153.275C57.4666 154.266 55.9471 154.302 54.9313 153.357C53.9156 152.411 53.7882 150.842 54.6469 149.851Z" fill="#BFD924" fill-opacity="0.7"/>
<path d="M165.181 123.03C166.04 122.04 169.114 120.209 170.13 121.155C171.145 122.1 169.718 125.464 168.859 126.454C168.001 127.445 166.481 127.482 165.466 126.536C164.45 125.59 164.322 124.021 165.181 123.03Z" fill="#BFD924" fill-opacity="0.7"/>
<path d="M299.432 89.5955C300.29 88.6048 303.364 86.7745 304.38 87.7201C305.396 88.6656 303.969 92.029 303.11 93.0197C302.251 94.0103 300.732 94.0469 299.716 93.1013C298.7 92.1558 298.573 90.5861 299.432 89.5955Z" fill="#BFD924" fill-opacity="0.7"/>
<path d="M371.619 200.175C372.477 199.184 375.551 197.354 376.567 198.299C377.583 199.245 376.156 202.608 375.297 203.599C374.438 204.59 372.919 204.626 371.903 203.681C370.887 202.735 370.76 201.165 371.619 200.175Z" fill="#BFD924" fill-opacity="0.7"/>
<path d="M111.855 263.749C112.714 262.758 115.788 260.928 116.803 261.873C117.819 262.819 116.392 266.182 115.533 267.173C114.675 268.163 113.155 268.2 112.139 267.254C111.124 266.309 110.996 264.739 111.855 263.749Z" fill="#BFD924" fill-opacity="0.7"/>
<path d="M189.315 355.759C190.173 354.768 193.248 352.938 194.263 353.884C195.279 354.829 193.852 358.193 192.993 359.183C192.135 360.174 190.615 360.21 189.599 359.265C188.584 358.319 188.456 356.75 189.315 355.759Z" fill="#BFD924" fill-opacity="0.7"/>
<path d="M290.946 290.461C291.804 289.47 294.879 287.64 295.894 288.585C296.91 289.531 295.483 292.894 294.624 293.885C293.765 294.876 292.246 294.912 291.23 293.967C290.214 293.021 290.087 291.451 290.946 290.461Z" fill="#BFD924" fill-opacity="0.7"/>
<path d="M241.539 197.501C242.398 196.51 245.472 194.68 246.488 195.625C247.503 196.571 246.076 199.934 245.217 200.925C244.359 201.916 242.839 201.952 241.823 201.007C240.808 200.061 240.68 198.492 241.539 197.501Z" fill="#BFD924" fill-opacity="0.7"/>
<path d="M55.848 158.066C56.7067 157.075 59.7809 155.245 60.7966 156.19C61.8124 157.136 60.385 160.499 59.5264 161.49C58.6677 162.48 57.1483 162.517 56.1325 161.571C55.1168 160.626 54.9894 159.056 55.848 158.066Z" fill="#BFD924" fill-opacity="0.7"/>
<path d="M154.705 117.316C155.564 116.325 158.638 114.495 159.654 115.44C160.669 116.386 159.242 119.749 158.383 120.74C157.525 121.73 156.005 121.767 154.989 120.821C153.974 119.876 153.846 118.306 154.705 117.316Z" fill="#BFD924" fill-opacity="0.7"/>
<path d="M288.954 83.8809C289.813 82.8902 292.887 81.0599 293.903 82.0055C294.919 82.951 293.491 86.3144 292.633 87.3051C291.774 88.2957 290.255 88.3323 289.239 87.3867C288.223 86.4412 288.096 84.8715 288.954 83.8809Z" fill="#BFD924" fill-opacity="0.7"/>
<path d="M361.142 194.46C362.001 193.469 365.075 191.639 366.091 192.585C367.106 193.53 365.679 196.894 364.82 197.884C363.962 198.875 362.442 198.912 361.426 197.966C360.411 197.02 360.283 195.451 361.142 194.46Z" fill="#BFD924" fill-opacity="0.7"/>
<path d="M101.378 258.034C102.236 257.043 105.311 255.213 106.326 256.159C107.342 257.104 105.915 260.468 105.056 261.458C104.198 262.449 102.678 262.485 101.662 261.54C100.647 260.594 100.519 259.025 101.378 258.034Z" fill="#BFD924" fill-opacity="0.7"/>
<path d="M178.839 350.045C179.697 349.054 182.772 347.224 183.787 348.169C184.803 349.115 183.376 352.478 182.517 353.469C181.658 354.459 180.139 354.496 179.123 353.55C178.107 352.605 177.98 351.035 178.839 350.045Z" fill="#BFD924" fill-opacity="0.7"/>
<path d="M280.47 284.746C281.328 283.756 284.402 281.925 285.418 282.871C286.434 283.816 285.007 287.18 284.148 288.17C283.289 289.161 281.77 289.198 280.754 288.252C279.738 287.307 279.611 285.737 280.47 284.746Z" fill="#BFD924" fill-opacity="0.7"/>
<path d="M231.062 191.786C231.921 190.795 234.995 188.965 236.011 189.911C237.027 190.856 235.599 194.22 234.741 195.21C233.882 196.201 232.363 196.237 231.347 195.292C230.331 194.346 230.204 192.777 231.062 191.786Z" fill="#BFD924" fill-opacity="0.7"/>
<path d="M45.3715 152.351C46.2301 151.36 49.3043 149.53 50.32 150.476C51.3358 151.421 49.9085 154.785 49.0498 155.775C48.1912 156.766 46.6717 156.803 45.6559 155.857C44.6402 154.911 44.5128 153.342 45.3715 152.351Z" fill="#BFD924" fill-opacity="0.7"/>
<path d="M183.431 111.738C182.591 110.626 181.227 107.062 182.258 106.263C183.29 105.465 186.327 107.733 187.166 108.845C188.006 109.958 187.85 111.507 186.819 112.306C185.787 113.105 184.27 112.851 183.431 111.738Z" fill="#BFD924" fill-opacity="0.7"/>
<path d="M317.68 78.3035C316.841 77.1911 315.476 73.6276 316.508 72.8288C317.539 72.03 320.576 74.2983 321.416 75.4107C322.255 76.5231 322.1 78.0724 321.068 78.8712C320.037 79.6701 318.52 79.4159 317.68 78.3035Z" fill="#BFD924" fill-opacity="0.7"/>
<path d="M389.867 188.883C389.028 187.77 387.663 184.207 388.695 183.408C389.726 182.609 392.763 184.878 393.603 185.99C394.442 187.102 394.287 188.652 393.255 189.45C392.224 190.249 390.707 189.995 389.867 188.883Z" fill="#BFD924" fill-opacity="0.7"/>
<path d="M130.104 252.457C129.264 251.344 127.9 247.781 128.931 246.982C129.963 246.183 133 248.451 133.839 249.564C134.679 250.676 134.523 252.226 133.492 253.024C132.46 253.823 130.943 253.569 130.104 252.457Z" fill="#BFD924" fill-opacity="0.7"/>
<path d="M207.564 344.467C206.725 343.355 205.361 339.791 206.392 338.992C207.424 338.194 210.461 340.462 211.3 341.574C212.14 342.687 211.984 344.236 210.952 345.035C209.921 345.834 208.404 345.579 207.564 344.467Z" fill="#BFD924" fill-opacity="0.7"/>
<path d="M309.195 279.169C308.356 278.056 306.991 274.493 308.023 273.694C309.055 272.895 312.092 275.164 312.931 276.276C313.771 277.388 313.615 278.938 312.583 279.736C311.552 280.535 310.035 280.281 309.195 279.169Z" fill="#BFD924" fill-opacity="0.7"/>
<path d="M259.789 186.209C258.95 185.096 257.585 181.533 258.617 180.734C259.648 179.935 262.685 182.204 263.525 183.316C264.364 184.428 264.209 185.978 263.177 186.777C262.145 187.575 260.629 187.321 259.789 186.209Z" fill="#BFD924" fill-opacity="0.7"/>
<path d="M74.0972 146.774C73.2577 145.661 71.8932 142.098 72.9248 141.299C73.9564 140.5 76.9934 142.768 77.8329 143.881C78.6724 144.993 78.5168 146.543 77.4852 147.341C76.4536 148.14 74.9367 147.886 74.0972 146.774Z" fill="#BFD924" fill-opacity="0.7"/>
<path d="M196.111 118.15C195.271 117.037 193.907 113.474 194.939 112.675C195.97 111.876 199.007 114.144 199.847 115.257C200.686 116.369 200.53 117.919 199.499 118.717C198.467 119.516 196.95 119.262 196.111 118.15Z" fill="#BFD924" fill-opacity="0.7"/>
<path d="M330.361 84.7149C329.522 83.6025 328.157 80.0391 329.189 79.2402C330.221 78.4414 333.258 80.7098 334.097 81.8222C334.937 82.9345 334.781 84.4839 333.749 85.2827C332.718 86.0815 331.201 85.8273 330.361 84.7149Z" fill="#BFD924" fill-opacity="0.7"/>
<path d="M402.549 195.294C401.709 194.182 400.345 190.618 401.376 189.819C402.408 189.021 405.445 191.289 406.285 192.401C407.124 193.514 406.968 195.063 405.937 195.862C404.905 196.661 403.388 196.407 402.549 195.294Z" fill="#BFD924" fill-opacity="0.7"/>
<path d="M142.785 258.868C141.945 257.756 140.581 254.192 141.612 253.393C142.644 252.594 145.681 254.863 146.52 255.975C147.36 257.088 147.204 258.637 146.173 259.436C145.141 260.235 143.624 259.98 142.785 258.868Z" fill="#BFD924" fill-opacity="0.7"/>
<path d="M220.245 350.878C219.405 349.766 218.041 346.203 219.072 345.404C220.104 344.605 223.141 346.873 223.98 347.986C224.82 349.098 224.664 350.647 223.633 351.446C222.601 352.245 221.084 351.991 220.245 350.878Z" fill="#BFD924" fill-opacity="0.7"/>
<path d="M321.876 285.58C321.036 284.468 319.672 280.904 320.703 280.105C321.735 279.307 324.772 281.575 325.611 282.687C326.451 283.8 326.295 285.349 325.263 286.148C324.232 286.947 322.715 286.692 321.876 285.58Z" fill="#BFD924" fill-opacity="0.7"/>
<path d="M272.469 192.62C271.63 191.508 270.265 187.944 271.297 187.146C272.328 186.347 275.365 188.615 276.205 189.727C277.045 190.84 276.889 192.389 275.857 193.188C274.826 193.987 273.309 193.733 272.469 192.62Z" fill="#BFD924" fill-opacity="0.7"/>
<path d="M86.7779 153.185C85.9383 152.073 84.5739 148.509 85.6055 147.71C86.6371 146.912 89.674 149.18 90.5136 150.292C91.3531 151.405 91.1974 152.954 90.1658 153.753C89.1342 154.552 87.6174 154.297 86.7779 153.185Z" fill="#BFD924" fill-opacity="0.7"/>
<path d="M187.864 122.755C187.024 121.642 185.66 118.079 186.691 117.28C187.723 116.481 190.76 118.75 191.6 119.862C192.439 120.974 192.283 122.524 191.252 123.322C190.22 124.121 188.703 123.867 187.864 122.755Z" fill="#BFD924" fill-opacity="0.7"/>
<path d="M322.114 89.32C321.275 88.2076 319.91 84.6442 320.942 83.8453C321.974 83.0465 325.01 85.3149 325.85 86.4273C326.69 87.5396 326.534 89.089 325.502 89.8878C324.471 90.6866 322.954 90.4324 322.114 89.32Z" fill="#BFD924" fill-opacity="0.7"/>
<path d="M394.302 199.899C393.462 198.787 392.098 195.223 393.129 194.425C394.161 193.626 397.198 195.894 398.038 197.007C398.877 198.119 398.721 199.668 397.69 200.467C396.658 201.266 395.141 201.012 394.302 199.899Z" fill="#BFD924" fill-opacity="0.7"/>
<path d="M134.538 263.473C133.698 262.361 132.334 258.797 133.365 257.998C134.397 257.2 137.434 259.468 138.273 260.58C139.113 261.693 138.957 263.242 137.926 264.041C136.894 264.84 135.377 264.585 134.538 263.473Z" fill="#BFD924" fill-opacity="0.7"/>
<path d="M211.999 355.483C211.159 354.371 209.795 350.807 210.826 350.009C211.858 349.21 214.895 351.478 215.734 352.591C216.574 353.703 216.418 355.252 215.387 356.051C214.355 356.85 212.838 356.596 211.999 355.483Z" fill="#BFD924" fill-opacity="0.7"/>
<path d="M313.629 290.185C312.79 289.073 311.425 285.509 312.457 284.711C313.489 283.912 316.526 286.18 317.365 287.292C318.205 288.405 318.049 289.954 317.017 290.753C315.986 291.552 314.469 291.298 313.629 290.185Z" fill="#BFD924" fill-opacity="0.7"/>
<path d="M264.222 197.225C263.383 196.113 262.018 192.55 263.05 191.751C264.081 190.952 267.118 193.22 267.958 194.333C268.797 195.445 268.642 196.994 267.61 197.793C266.579 198.592 265.062 198.338 264.222 197.225Z" fill="#BFD924" fill-opacity="0.7"/>
<path d="M78.5313 157.79C77.6917 156.678 76.3273 153.114 77.3589 152.315C78.3905 151.517 81.4275 153.785 82.267 154.897C83.1065 156.01 82.9508 157.559 81.9193 158.358C80.8877 159.157 79.3708 158.902 78.5313 157.79Z" fill="#BFD924" fill-opacity="0.7"/>
<path d="M190.216 94.882C188.949 95.2216 185.3 95.0363 184.893 93.7096C184.486 92.3829 187.476 90.4171 188.742 90.0775C190.008 89.7379 191.365 90.5381 191.771 91.8648C192.178 93.1915 191.482 94.5423 190.216 94.882Z" fill="#BFD924" fill-opacity="0.7"/>
<path d="M324.466 61.4473C323.2 61.7869 319.551 61.6017 319.144 60.275C318.737 58.9483 321.726 56.9825 322.992 56.6429C324.259 56.3033 325.615 57.1035 326.022 58.4302C326.429 59.7569 325.732 61.1077 324.466 61.4473Z" fill="#BFD924" fill-opacity="0.7"/>
<path d="M396.653 172.027C395.387 172.366 391.738 172.181 391.331 170.854C390.924 169.527 393.913 167.562 395.179 167.222C396.446 166.882 397.802 167.683 398.209 169.009C398.616 170.336 397.919 171.687 396.653 172.027Z" fill="#BFD924" fill-opacity="0.7"/>
<path d="M136.889 235.601C135.623 235.94 131.973 235.755 131.567 234.428C131.16 233.101 134.149 231.136 135.415 230.796C136.682 230.456 138.038 231.257 138.445 232.583C138.852 233.91 138.155 235.261 136.889 235.601Z" fill="#BFD924" fill-opacity="0.7"/>
<path d="M214.349 327.611C213.083 327.951 209.434 327.765 209.027 326.439C208.62 325.112 211.609 323.146 212.876 322.806C214.142 322.467 215.498 323.267 215.905 324.594C216.312 325.92 215.616 327.271 214.349 327.611Z" fill="#BFD924" fill-opacity="0.7"/>
<path d="M315.981 262.313C314.714 262.652 311.065 262.467 310.658 261.14C310.251 259.814 313.241 257.848 314.507 257.508C315.773 257.169 317.13 257.969 317.537 259.295C317.944 260.622 317.247 261.973 315.981 262.313Z" fill="#BFD924" fill-opacity="0.7"/>
<path d="M266.573 169.352C265.307 169.692 261.658 169.507 261.251 168.18C260.844 166.853 263.834 164.888 265.1 164.548C266.366 164.208 267.722 165.009 268.129 166.335C268.536 167.662 267.84 169.013 266.573 169.352Z" fill="#BFD924" fill-opacity="0.7"/>
<path d="M80.8825 129.918C79.6163 130.257 75.9671 130.072 75.5602 128.745C75.1533 127.418 78.1426 125.453 79.4089 125.113C80.6752 124.773 82.0315 125.574 82.4385 126.9C82.8454 128.227 82.1488 129.578 80.8825 129.918Z" fill="#BFD924" fill-opacity="0.7"/>
<path d="M198.177 86.5807C196.911 86.9204 193.262 86.7351 192.855 85.4084C192.448 84.0817 195.437 82.1159 196.703 81.7763C197.97 81.4367 199.326 82.2369 199.733 83.5636C200.14 84.8903 199.443 86.2411 198.177 86.5807Z" fill="#BFD924" fill-opacity="0.7"/>
<path d="M332.427 53.1465C331.161 53.4861 327.512 53.3008 327.105 51.9741C326.698 50.6474 329.688 48.6817 330.954 48.342C332.22 48.0024 333.576 48.8026 333.983 50.1293C334.39 51.456 333.694 52.8069 332.427 53.1465Z" fill="#BFD924" fill-opacity="0.7"/>
<path d="M404.615 163.726C403.349 164.065 399.7 163.88 399.293 162.553C398.886 161.227 401.875 159.261 403.141 158.921C404.408 158.582 405.764 159.382 406.171 160.709C406.578 162.035 405.881 163.386 404.615 163.726Z" fill="#BFD924" fill-opacity="0.7"/>
<path d="M144.851 227.299C143.585 227.639 139.935 227.453 139.528 226.127C139.122 224.8 142.111 222.834 143.377 222.495C144.643 222.155 146 222.955 146.407 224.282C146.814 225.609 146.117 226.96 144.851 227.299Z" fill="#BFD924" fill-opacity="0.7"/>
<path d="M222.311 319.31C221.045 319.649 217.395 319.464 216.988 318.137C216.581 316.81 219.571 314.845 220.837 314.505C222.103 314.165 223.46 314.966 223.867 316.292C224.274 317.619 223.577 318.97 222.311 319.31Z" fill="#BFD924" fill-opacity="0.7"/>
<path d="M323.942 254.012C322.675 254.351 319.026 254.166 318.619 252.839C318.212 251.513 321.202 249.547 322.468 249.207C323.734 248.868 325.091 249.668 325.498 250.995C325.904 252.321 325.208 253.672 323.942 254.012Z" fill="#BFD924" fill-opacity="0.7"/>
<path d="M274.535 161.052C273.269 161.391 269.62 161.206 269.213 159.879C268.806 158.553 271.795 156.587 273.062 156.247C274.328 155.908 275.684 156.708 276.091 158.035C276.498 159.361 275.802 160.712 274.535 161.052Z" fill="#BFD924" fill-opacity="0.7"/>
<path d="M88.844 121.616C87.5777 121.956 83.9286 121.771 83.5216 120.444C83.1147 119.117 86.1041 117.151 87.3703 116.812C88.6366 116.472 89.993 117.272 90.3999 118.599C90.8068 119.926 90.1102 121.277 88.844 121.616Z" fill="#BFD924" fill-opacity="0.7"/>
<path d="M200.406 96.9005C199.14 97.2401 195.491 97.0549 195.084 95.7282C194.677 94.4015 197.667 92.4357 198.933 92.0961C200.199 91.7565 201.555 92.5566 201.962 93.8834C202.369 95.2101 201.673 96.5609 200.406 96.9005Z" fill="#BFD924" fill-opacity="0.7"/>
<path d="M334.657 63.4659C333.391 63.8055 329.742 63.6202 329.335 62.2935C328.928 60.9668 331.918 59.0011 333.184 58.6614C334.45 58.3218 335.806 59.122 336.213 60.4487C336.62 61.7754 335.924 63.1263 334.657 63.4659Z" fill="#BFD924" fill-opacity="0.7"/>
<path d="M406.844 174.045C405.578 174.385 401.929 174.199 401.522 172.873C401.115 171.546 404.105 169.58 405.371 169.241C406.637 168.901 407.993 169.701 408.4 171.028C408.807 172.355 408.111 173.705 406.844 174.045Z" fill="#BFD924" fill-opacity="0.7"/>
<path d="M147.08 237.619C145.814 237.959 142.165 237.773 141.758 236.447C141.351 235.12 144.34 233.154 145.607 232.815C146.873 232.475 148.229 233.275 148.636 234.602C149.043 235.929 148.347 237.279 147.08 237.619Z" fill="#BFD924" fill-opacity="0.7"/>
<path d="M224.54 329.629C223.274 329.969 219.625 329.784 219.218 328.457C218.811 327.13 221.8 325.165 223.067 324.825C224.333 324.485 225.689 325.285 226.096 326.612C226.503 327.939 225.807 329.29 224.54 329.629Z" fill="#BFD924" fill-opacity="0.7"/>
<path d="M326.171 264.331C324.905 264.671 321.256 264.485 320.849 263.159C320.442 261.832 323.431 259.866 324.697 259.527C325.964 259.187 327.32 259.987 327.727 261.314C328.134 262.641 327.437 263.991 326.171 264.331Z" fill="#BFD924" fill-opacity="0.7"/>
<path d="M276.765 171.371C275.499 171.711 271.849 171.526 271.443 170.199C271.036 168.872 274.025 166.906 275.291 166.567C276.557 166.227 277.914 167.027 278.321 168.354C278.728 169.681 278.031 171.032 276.765 171.371Z" fill="#BFD924" fill-opacity="0.7"/>
<path d="M91.0735 131.936C89.8072 132.276 86.1581 132.09 85.7511 130.764C85.3442 129.437 88.3336 127.471 89.5998 127.131C90.8661 126.792 92.2225 127.592 92.6294 128.919C93.0363 130.245 92.3397 131.596 91.0735 131.936Z" fill="#BFD924" fill-opacity="0.7"/>
<path d="M175.979 78.4862C175.864 79.8409 174.488 83.2297 173.163 83.0293C171.838 82.8289 171.065 79.1152 171.18 77.7605C171.295 76.4057 172.462 75.4699 173.787 75.6703C175.112 75.8707 176.093 77.1314 175.979 78.4862Z" fill="#BFD924" fill-opacity="0.7"/>
<path d="M310.228 45.0515C310.113 46.4063 308.738 49.795 307.413 49.5947C306.088 49.3943 305.315 45.6806 305.43 44.3258C305.545 42.9711 306.712 42.0353 308.037 42.2357C309.362 42.4361 310.343 43.6968 310.228 45.0515Z" fill="#BFD924" fill-opacity="0.7"/>
<path d="M382.416 155.631C382.301 156.986 380.925 160.374 379.6 160.174C378.275 159.974 377.502 156.26 377.617 154.905C377.732 153.55 378.899 152.615 380.224 152.815C381.549 153.015 382.531 154.276 382.416 155.631Z" fill="#BFD924" fill-opacity="0.7"/>
<path d="M122.652 219.205C122.537 220.559 121.162 223.948 119.836 223.748C118.511 223.547 117.739 219.834 117.853 218.479C117.968 217.124 119.136 216.188 120.461 216.389C121.786 216.589 122.767 217.85 122.652 219.205Z" fill="#BFD924" fill-opacity="0.7"/>
<path d="M200.112 311.215C199.997 312.57 198.622 315.959 197.297 315.758C195.972 315.558 195.199 311.844 195.314 310.489C195.429 309.135 196.596 308.199 197.921 308.399C199.246 308.6 200.227 309.86 200.112 311.215Z" fill="#BFD924" fill-opacity="0.7"/>
<path d="M301.743 245.917C301.628 247.272 300.252 250.66 298.927 250.46C297.602 250.26 296.829 246.546 296.944 245.191C297.059 243.836 298.227 242.901 299.552 243.101C300.877 243.301 301.858 244.562 301.743 245.917Z" fill="#BFD924" fill-opacity="0.7"/>
<path d="M252.336 152.957C252.221 154.311 250.845 157.7 249.52 157.5C248.195 157.299 247.422 153.586 247.537 152.231C247.652 150.876 248.819 149.94 250.144 150.141C251.469 150.341 252.45 151.602 252.336 152.957Z" fill="#BFD924" fill-opacity="0.7"/>
<path d="M66.6451 113.522C66.5301 114.877 65.1547 118.265 63.8297 118.065C62.5046 117.865 61.7317 114.151 61.8466 112.796C61.9615 111.441 63.1289 110.506 64.4539 110.706C65.779 110.906 66.76 112.167 66.6451 113.522Z" fill="#BFD924" fill-opacity="0.7"/>
<path d="M181.761 79.1121C181.646 80.4668 180.27 83.8556 178.945 83.6552C177.62 83.4548 176.847 79.7411 176.962 78.3864C177.077 77.0316 178.245 76.0959 179.57 76.2963C180.895 76.4966 181.876 77.7573 181.761 79.1121Z" fill="#BFD924" fill-opacity="0.7"/>
<path d="M316.011 45.6778C315.896 47.0326 314.521 50.4213 313.196 50.2209C311.871 50.0206 311.098 46.3069 311.213 44.9521C311.328 43.5974 312.495 42.6616 313.82 42.862C315.145 43.0624 316.126 44.3231 316.011 45.6778Z" fill="#BFD924" fill-opacity="0.7"/>
<path d="M388.199 156.257C388.084 157.612 386.708 161.001 385.383 160.8C384.058 160.6 383.285 156.886 383.4 155.531C383.515 154.177 384.683 153.241 386.008 153.441C387.333 153.642 388.314 154.902 388.199 156.257Z" fill="#BFD924" fill-opacity="0.7"/>
<path d="M128.435 219.83C128.32 221.185 126.944 224.574 125.619 224.374C124.294 224.173 123.521 220.46 123.636 219.105C123.751 217.75 124.918 216.814 126.243 217.015C127.569 217.215 128.55 218.476 128.435 219.83Z" fill="#BFD924" fill-opacity="0.7"/>
<path d="M205.895 311.841C205.78 313.195 204.404 316.584 203.079 316.384C201.754 316.183 200.981 312.47 201.096 311.115C201.211 309.76 202.378 308.824 203.703 309.025C205.028 309.225 206.01 310.486 205.895 311.841Z" fill="#BFD924" fill-opacity="0.7"/>
<path d="M307.525 246.543C307.411 247.897 306.035 251.286 304.71 251.086C303.385 250.885 302.612 247.172 302.727 245.817C302.842 244.462 304.009 243.526 305.334 243.727C306.659 243.927 307.64 245.188 307.525 246.543Z" fill="#BFD924" fill-opacity="0.7"/>
<path d="M258.119 153.583C258.004 154.938 256.629 158.326 255.304 158.126C253.979 157.926 253.206 154.212 253.321 152.857C253.436 151.502 254.603 150.567 255.928 150.767C257.253 150.967 258.234 152.228 258.119 153.583Z" fill="#BFD924" fill-opacity="0.7"/>
<path d="M72.4278 114.148C72.3129 115.502 70.9374 118.891 69.6124 118.691C68.2873 118.49 67.5144 114.777 67.6293 113.422C67.7442 112.067 68.9116 111.131 70.2366 111.332C71.5617 111.532 72.5427 112.793 72.4278 114.148Z" fill="#BFD924" fill-opacity="0.7"/>
<path d="M180.36 70.256C180.245 71.6107 178.87 74.9995 177.545 74.7991C176.22 74.5987 175.447 70.8851 175.562 69.5303C175.677 68.1756 176.844 67.2398 178.169 67.4402C179.494 67.6406 180.475 68.9012 180.36 70.256Z" fill="#BFD924" fill-opacity="0.7"/>
<path d="M314.611 36.8212C314.496 38.176 313.121 41.5648 311.795 41.3644C310.47 41.164 309.697 37.4503 309.812 36.0956C309.927 34.7408 311.095 33.805 312.42 34.0054C313.745 34.2058 314.726 35.4665 314.611 36.8212Z" fill="#BFD924" fill-opacity="0.7"/>
<path d="M386.798 147.401C386.683 148.755 385.308 152.144 383.983 151.944C382.658 151.743 381.885 148.03 382 146.675C382.115 145.32 383.282 144.384 384.607 144.585C385.932 144.785 386.913 146.046 386.798 147.401Z" fill="#BFD924" fill-opacity="0.7"/>
<path d="M127.034 210.974C126.919 212.329 125.544 215.718 124.219 215.517C122.894 215.317 122.121 211.603 122.236 210.249C122.351 208.894 123.518 207.958 124.843 208.158C126.168 208.359 127.149 209.62 127.034 210.974Z" fill="#BFD924" fill-opacity="0.7"/>
<path d="M204.494 302.985C204.379 304.339 203.004 307.728 201.679 307.528C200.354 307.327 199.581 303.614 199.696 302.259C199.811 300.904 200.978 299.968 202.303 300.169C203.628 300.369 204.609 301.63 204.494 302.985Z" fill="#BFD924" fill-opacity="0.7"/>
<path d="M306.125 237.687C306.01 239.041 304.635 242.43 303.31 242.23C301.985 242.029 301.212 238.316 301.327 236.961C301.442 235.606 302.609 234.67 303.934 234.871C305.259 235.071 306.24 236.332 306.125 237.687Z" fill="#BFD924" fill-opacity="0.7"/>
<path d="M256.719 144.726C256.604 146.081 255.228 149.47 253.903 149.27C252.578 149.069 251.805 145.355 251.92 144.001C252.035 142.646 253.203 141.71 254.528 141.911C255.853 142.111 256.834 143.372 256.719 144.726Z" fill="#BFD924" fill-opacity="0.7"/>
<path d="M71.0274 105.291C70.9125 106.646 69.537 110.035 68.212 109.834C66.8869 109.634 66.114 105.92 66.2289 104.565C66.3438 103.211 67.5112 102.275 68.8362 102.475C70.1613 102.676 71.1423 103.936 71.0274 105.291Z" fill="#BFD924" fill-opacity="0.7"/>
<ellipse rx="1.77243" ry="1.33444" transform="matrix(0.493062 0.869994 -0.873093 0.487554 155.837 119.178)" fill="#BFD924" fill-opacity="0.7"/>
<ellipse rx="1.77243" ry="0.889626" transform="matrix(0.493062 0.869994 -0.873093 0.487554 289.905 85.7784)" fill="#BFD924" fill-opacity="0.7"/>
<ellipse rx="1.77243" ry="0.889626" transform="matrix(0.493062 0.869994 -0.873093 0.487554 362.092 196.358)" fill="#BFD924" fill-opacity="0.7"/>
<ellipse rx="2.21554" ry="0.889626" transform="matrix(0.493062 0.869994 -0.873093 0.487554 102.534 259.666)" fill="#BFD924" fill-opacity="0.7"/>
<ellipse rx="1.77243" ry="0.889626" transform="matrix(0.493062 0.869994 -0.873093 0.487554 180.023 351.895)" fill="#BFD924" fill-opacity="0.7"/>
<ellipse rx="2.21554" ry="1.33444" transform="matrix(0.493062 0.869994 -0.873093 0.487554 281.556 286.57)" fill="#BFD924" fill-opacity="0.7"/>
<ellipse rx="1.77243" ry="0.889626" transform="matrix(0.493062 0.869994 -0.873093 0.487554 231.977 193.704)" fill="#BFD924" fill-opacity="0.7"/>
<ellipse rx="2.21554" ry="0.889626" transform="matrix(0.493062 0.869994 -0.873093 0.487554 46.3884 153.989)" fill="#BFD924" fill-opacity="0.7"/>
<ellipse rx="2.65865" ry="0.444813" transform="matrix(0.493062 0.869994 -0.873093 0.487554 167.245 115.852)" fill="#BFD924" fill-opacity="0.7"/>
<ellipse rx="2.65865" ry="0.889626" transform="matrix(0.493062 0.869994 -0.873093 0.487554 301.313 82.4529)" fill="#BFD924" fill-opacity="0.7"/>
<ellipse rx="2.65865" ry="0.889626" transform="matrix(0.493062 0.869994 -0.873093 0.487554 373.5 193.032)" fill="#BFD924" fill-opacity="0.7"/>
<ellipse rx="2.65865" ry="0.444813" transform="matrix(0.493062 0.869994 -0.873093 0.487554 113.773 256.942)" fill="#BFD924" fill-opacity="0.7"/>
<ellipse rx="2.65865" ry="0.444813" transform="matrix(0.493062 0.869994 -0.873093 0.487554 191.043 348.786)" fill="#BFD924" fill-opacity="0.7"/>
<ellipse rx="2.65865" ry="0.444813" transform="matrix(0.493062 0.869994 -0.873093 0.487554 293.182 283.63)" fill="#BFD924" fill-opacity="0.7"/>
<ellipse rx="2.65865" ry="0.444813" transform="matrix(0.493062 0.869994 -0.873093 0.487554 243.773 190.161)" fill="#BFD924" fill-opacity="0.7"/>
<ellipse rx="2.65865" ry="0.444813" transform="matrix(0.493062 0.869994 -0.873093 0.487554 57.6266 151.266)" fill="#BFD924" fill-opacity="0.7"/>
<ellipse rx="0.886217" ry="1.77925" transform="matrix(0.493062 0.869994 -0.873093 0.487554 198.8 116.501)" fill="#BFD924" fill-opacity="0.7"/>
<ellipse rx="0.886217" ry="1.77925" transform="matrix(0.493062 0.869994 -0.873093 0.487554 333.258 82.8848)" fill="#BFD924" fill-opacity="0.7"/>
<ellipse rx="0.886217" ry="1.77925" transform="matrix(0.493062 0.869994 -0.873093 0.487554 405.445 193.464)" fill="#BFD924" fill-opacity="0.7"/>
<ellipse rx="0.443108" ry="1.33444" transform="matrix(0.493062 0.869994 -0.873093 0.487554 145.498 256.989)" fill="#BFD924" fill-opacity="0.7"/>
<ellipse rx="0.886217" ry="1.33444" transform="matrix(0.493062 0.869994 -0.873093 0.487554 222.988 349.218)" fill="#BFD924" fill-opacity="0.7"/>
<ellipse rx="0.443108" ry="1.77925" transform="matrix(0.493062 0.869994 -0.873093 0.487554 324.52 283.893)" fill="#BFD924" fill-opacity="0.7"/>
<ellipse rx="0.886217" ry="1.77925" transform="matrix(0.493062 0.869994 -0.873093 0.487554 275.328 190.81)" fill="#BFD924" fill-opacity="0.7"/>
<ellipse rx="0.443108" ry="1.77925" transform="matrix(0.493062 0.869994 -0.873093 0.487554 89.7407 151.096)" fill="#BFD924" fill-opacity="0.7"/>
<ellipse rx="2.21554" ry="1.33444" transform="matrix(0.493062 0.869994 -0.873093 0.487554 177.705 72.9633)" fill="#BFD924" fill-opacity="0.7"/>
<ellipse rx="2.21554" ry="0.889626" transform="matrix(0.493062 0.869994 -0.873093 0.487554 311.773 39.5641)" fill="#BFD924" fill-opacity="0.7"/>
<ellipse rx="2.21554" ry="0.889626" transform="matrix(0.493062 0.869994 -0.873093 0.487554 383.96 150.143)" fill="#BFD924" fill-opacity="0.7"/>
<ellipse rx="1.77243" ry="1.33444" transform="matrix(0.493062 0.869994 -0.873093 0.487554 124.014 213.668)" fill="#BFD924" fill-opacity="0.7"/>
<ellipse rx="2.21554" ry="1.33444" transform="matrix(0.493062 0.869994 -0.873093 0.487554 201.503 305.898)" fill="#BFD924" fill-opacity="0.7"/>
<ellipse rx="2.21554" ry="1.33444" transform="matrix(0.493062 0.869994 -0.873093 0.487554 303.205 239.97)" fill="#BFD924" fill-opacity="0.7"/>
<ellipse rx="2.21554" ry="0.889626" transform="matrix(0.493062 0.869994 -0.873093 0.487554 253.844 147.489)" fill="#BFD924" fill-opacity="0.7"/>
<ellipse rx="1.77243" ry="0.889626" transform="matrix(0.493062 0.869994 -0.873093 0.487554 68.2564 107.775)" fill="#BFD924" fill-opacity="0.7"/>
<path d="M167.391 126.936C166.318 127.534 164.862 126.984 164.138 125.707C163.414 124.429 163.697 122.908 164.769 122.31C165.842 121.711 167.298 122.261 168.022 123.538C168.746 124.816 168.463 126.337 167.391 126.936Z" fill="#BFD924" fill-opacity="0.7"/>
<path d="M301.848 93.3194C300.775 93.9183 299.319 93.3682 298.595 92.0908C297.871 90.8133 298.154 89.2923 299.226 88.6934C300.299 88.0946 301.755 88.6446 302.479 89.9221C303.203 91.1995 302.92 92.7206 301.848 93.3194Z" fill="#BFD924" fill-opacity="0.7"/>
<path d="M374.035 203.899C372.962 204.498 371.506 203.947 370.782 202.67C370.058 201.393 370.341 199.872 371.413 199.273C372.486 198.674 373.942 199.224 374.666 200.501C375.39 201.779 375.107 203.3 374.035 203.899Z" fill="#BFD924" fill-opacity="0.7"/>
<path d="M114.696 267.592C113.623 268.191 112.167 267.641 111.443 266.363C110.719 265.086 111.001 263.565 112.074 262.966C113.146 262.367 114.603 262.917 115.327 264.195C116.05 265.472 115.768 266.993 114.696 267.592Z" fill="#BFD924" fill-opacity="0.7"/>
<path d="M191.966 359.436C190.894 360.035 189.437 359.485 188.713 358.207C187.989 356.93 188.272 355.409 189.344 354.81C190.417 354.211 191.873 354.761 192.597 356.039C193.321 357.316 193.039 358.837 191.966 359.436Z" fill="#BFD924" fill-opacity="0.7"/>
<path d="M293.329 294.713C292.256 295.312 290.8 294.762 290.076 293.484C289.352 292.207 289.635 290.686 290.707 290.087C291.78 289.488 293.236 290.038 293.96 291.316C294.684 292.593 294.401 294.114 293.329 294.713Z" fill="#BFD924" fill-opacity="0.7"/>
<path d="M243.919 201.245C242.846 201.844 241.39 201.294 240.666 200.016C239.942 198.739 240.225 197.218 241.297 196.619C242.369 196.02 243.826 196.57 244.55 197.847C245.274 199.125 244.991 200.646 243.919 201.245Z" fill="#BFD924" fill-opacity="0.7"/>
<path d="M58.5496 161.916C57.4771 162.515 56.0209 161.965 55.2969 160.687C54.5729 159.41 54.8554 157.889 55.9278 157.29C57.0002 156.691 58.4565 157.241 59.1805 158.518C59.9045 159.796 59.622 161.317 58.5496 161.916Z" fill="#BFD924" fill-opacity="0.7"/>
<defs>
<radialGradient id="paint0_radial" cx="0" cy="0" r="1" gradientUnits="userSpaceOnUse" gradientTransform="translate(174.987 98.8409) rotate(150.82) scale(47.595 48.2979)">
<stop offset="0.208333" stop-color="white"/>
<stop offset="0.723958" stop-color="#5DE248"/>
</radialGradient>
<radialGradient id="paint1_radial" cx="0" cy="0" r="1" gradientUnits="userSpaceOnUse" gradientTransform="translate(309.055 65.4417) rotate(150.82) scale(48.0398 48.2979)">
<stop offset="0.208333" stop-color="white"/>
<stop offset="0.723958" stop-color="#5DE248"/>
</radialGradient>
<radialGradient id="paint2_radial" cx="0" cy="0" r="1" gradientUnits="userSpaceOnUse" gradientTransform="translate(381.242 176.021) rotate(150.82) scale(48.0398 48.2979)">
<stop offset="0.208333" stop-color="white"/>
<stop offset="0.723958" stop-color="#5DE248"/>
</radialGradient>
<radialGradient id="paint3_radial" cx="0" cy="0" r="1" gradientUnits="userSpaceOnUse" gradientTransform="translate(121.903 239.715) rotate(150.82) scale(48.0398 48.2979)">
<stop offset="0.208333" stop-color="white"/>
<stop offset="0.723958" stop-color="#5DE248"/>
</radialGradient>
<radialGradient id="paint4_radial" cx="0" cy="0" r="1" gradientUnits="userSpaceOnUse" gradientTransform="translate(199.174 331.558) rotate(150.82) scale(48.0398 48.2979)">
<stop offset="0.208333" stop-color="white"/>
<stop offset="0.723958" stop-color="#5DE248"/>
</radialGradient>
<radialGradient id="paint5_radial" cx="0" cy="0" r="1" gradientUnits="userSpaceOnUse" gradientTransform="translate(300.925 266.618) rotate(150.82) scale(47.595 48.2979)">
<stop offset="0.208333" stop-color="white"/>
<stop offset="0.723958" stop-color="#5DE248"/>
</radialGradient>
<radialGradient id="paint6_radial" cx="0" cy="0" r="1" gradientUnits="userSpaceOnUse" gradientTransform="translate(251.127 173.367) rotate(150.82) scale(48.0398 48.2979)">
<stop offset="0.208333" stop-color="white"/>
<stop offset="0.723958" stop-color="#5DE248"/>
</radialGradient>
<radialGradient id="paint7_radial" cx="0" cy="0" r="1" gradientUnits="userSpaceOnUse" gradientTransform="translate(65.7573 134.038) rotate(150.82) scale(48.0398 48.2979)">
<stop offset="0.208333" stop-color="white"/>
<stop offset="0.723958" stop-color="#5DE248"/>
</radialGradient>
<linearGradient id="paint8_linear" x1="168.989" y1="92.9669" x2="203.614" y2="131.646" gradientUnits="userSpaceOnUse">
<stop stop-color="#FFE600"/>
<stop offset="0.541667" stop-color="white" stop-opacity="0.61"/>
</linearGradient>
<linearGradient id="paint9_linear" x1="303.24" y1="59.5322" x2="337.865" y2="98.2113" gradientUnits="userSpaceOnUse">
<stop stop-color="#FFE600"/>
<stop offset="0.541667" stop-color="white" stop-opacity="0.61"/>
</linearGradient>
<linearGradient id="paint10_linear" x1="375.427" y1="170.111" x2="410.052" y2="208.791" gradientUnits="userSpaceOnUse">
<stop stop-color="#FFE600"/>
<stop offset="0.541667" stop-color="white" stop-opacity="0.61"/>
</linearGradient>
<linearGradient id="paint11_linear" x1="115.663" y1="233.685" x2="150.288" y2="272.364" gradientUnits="userSpaceOnUse">
<stop stop-color="#FFE600"/>
<stop offset="0.541667" stop-color="white" stop-opacity="0.61"/>
</linearGradient>
<linearGradient id="paint12_linear" x1="193.123" y1="325.695" x2="227.748" y2="364.374" gradientUnits="userSpaceOnUse">
<stop stop-color="#FFE600"/>
<stop offset="0.541667" stop-color="white" stop-opacity="0.61"/>
</linearGradient>
<linearGradient id="paint13_linear" x1="294.754" y1="260.398" x2="329.379" y2="299.077" gradientUnits="userSpaceOnUse">
<stop stop-color="#FFE600"/>
<stop offset="0.541667" stop-color="white" stop-opacity="0.61"/>
</linearGradient>
<linearGradient id="paint14_linear" x1="245.348" y1="167.437" x2="279.973" y2="206.116" gradientUnits="userSpaceOnUse">
<stop stop-color="#FFE600"/>
<stop offset="0.541667" stop-color="white" stop-opacity="0.61"/>
</linearGradient>
<linearGradient id="paint15_linear" x1="59.6561" y1="128.002" x2="94.2812" y2="166.681" gradientUnits="userSpaceOnUse">
<stop stop-color="#FFE600"/>
<stop offset="0.541667" stop-color="white" stop-opacity="0.61"/>
</linearGradient>
<linearGradient id="paint16_linear" x1="166.464" y1="97.9059" x2="214.824" y2="84.7884" gradientUnits="userSpaceOnUse">
<stop stop-color="#FFE600"/>
<stop offset="0.541667" stop-color="#B9FFA8" stop-opacity="0.61"/>
</linearGradient>
<linearGradient id="paint17_linear" x1="300.714" y1="64.4713" x2="349.074" y2="51.3538" gradientUnits="userSpaceOnUse">
<stop stop-color="#FFE600"/>
<stop offset="0.541667" stop-color="#B9FFA8" stop-opacity="0.61"/>
</linearGradient>
<linearGradient id="paint18_linear" x1="372.902" y1="175.051" x2="421.262" y2="161.933" gradientUnits="userSpaceOnUse">
<stop stop-color="#FFE600"/>
<stop offset="0.541667" stop-color="#B9FFA8" stop-opacity="0.61"/>
</linearGradient>
<linearGradient id="paint19_linear" x1="113.138" y1="238.624" x2="161.497" y2="225.507" gradientUnits="userSpaceOnUse">
<stop stop-color="#FFE600"/>
<stop offset="0.541667" stop-color="#B9FFA8" stop-opacity="0.61"/>
</linearGradient>
<linearGradient id="paint20_linear" x1="190.598" y1="330.634" x2="238.957" y2="317.517" gradientUnits="userSpaceOnUse">
<stop stop-color="#FFE600"/>
<stop offset="0.541667" stop-color="#B9FFA8" stop-opacity="0.61"/>
</linearGradient>
<linearGradient id="paint21_linear" x1="292.229" y1="265.336" x2="340.589" y2="252.219" gradientUnits="userSpaceOnUse">
<stop stop-color="#FFE600"/>
<stop offset="0.541667" stop-color="#B9FFA8" stop-opacity="0.61"/>
</linearGradient>
<linearGradient id="paint22_linear" x1="242.822" y1="172.377" x2="291.182" y2="159.259" gradientUnits="userSpaceOnUse">
<stop stop-color="#FFE600"/>
<stop offset="0.541667" stop-color="#B9FFA8" stop-opacity="0.61"/>
</linearGradient>
<linearGradient id="paint23_linear" x1="57.1307" y1="132.941" x2="105.491" y2="119.824" gradientUnits="userSpaceOnUse">
<stop stop-color="#FFE600"/>
<stop offset="0.541667" stop-color="#B9FFA8" stop-opacity="0.61"/>
</linearGradient>
<linearGradient id="paint24_linear" x1="173.662" y1="100.678" x2="179.3" y2="57.847" gradientUnits="userSpaceOnUse">
<stop stop-color="#DED370"/>
<stop offset="0.541667" stop-color="#FFE1DD" stop-opacity="0.61"/>
</linearGradient>
<linearGradient id="paint25_linear" x1="307.912" y1="67.2432" x2="313.551" y2="24.4123" gradientUnits="userSpaceOnUse">
<stop stop-color="#DED370"/>
<stop offset="0.541667" stop-color="#FFE1DD" stop-opacity="0.61"/>
</linearGradient>
<linearGradient id="paint26_linear" x1="380.099" y1="177.822" x2="385.738" y2="134.992" gradientUnits="userSpaceOnUse">
<stop stop-color="#DED370"/>
<stop offset="0.541667" stop-color="#FFE1DD" stop-opacity="0.61"/>
</linearGradient>
<linearGradient id="paint27_linear" x1="120.336" y1="241.396" x2="125.974" y2="198.565" gradientUnits="userSpaceOnUse">
<stop stop-color="#DED370"/>
<stop offset="0.541667" stop-color="#FFE1DD" stop-opacity="0.61"/>
</linearGradient>
<linearGradient id="paint28_linear" x1="197.796" y1="333.407" x2="203.434" y2="290.576" gradientUnits="userSpaceOnUse">
<stop stop-color="#DED370"/>
<stop offset="0.541667" stop-color="#FFE1DD" stop-opacity="0.61"/>
</linearGradient>
<linearGradient id="paint29_linear" x1="299.426" y1="268.108" x2="305.065" y2="225.278" gradientUnits="userSpaceOnUse">
<stop stop-color="#DED370"/>
<stop offset="0.541667" stop-color="#FFE1DD" stop-opacity="0.61"/>
</linearGradient>
<linearGradient id="paint30_linear" x1="250.02" y1="175.149" x2="255.658" y2="132.318" gradientUnits="userSpaceOnUse">
<stop stop-color="#DED370"/>
<stop offset="0.541667" stop-color="#FFE1DD" stop-opacity="0.61"/>
</linearGradient>
<linearGradient id="paint31_linear" x1="64.3288" y1="135.713" x2="69.9674" y2="92.8824" gradientUnits="userSpaceOnUse">
<stop stop-color="#DED370"/>
<stop offset="0.541667" stop-color="#FFE1DD" stop-opacity="0.61"/>
</linearGradient>
<linearGradient id="paint32_linear" x1="183.481" y1="100.446" x2="136.455" y2="83.9389" gradientUnits="userSpaceOnUse">
<stop stop-color="#DED370"/>
<stop offset="0.541667" stop-color="#BCFFAB" stop-opacity="0.61"/>
</linearGradient>
<linearGradient id="paint33_linear" x1="317.732" y1="67.0111" x2="270.705" y2="50.5043" gradientUnits="userSpaceOnUse">
<stop stop-color="#DED370"/>
<stop offset="0.541667" stop-color="#BCFFAB" stop-opacity="0.61"/>
</linearGradient>
<linearGradient id="paint34_linear" x1="389.919" y1="177.59" x2="342.893" y2="161.084" gradientUnits="userSpaceOnUse">
<stop stop-color="#DED370"/>
<stop offset="0.541667" stop-color="#BCFFAB" stop-opacity="0.61"/>
</linearGradient>
<linearGradient id="paint35_linear" x1="130.155" y1="241.164" x2="83.1287" y2="224.657" gradientUnits="userSpaceOnUse">
<stop stop-color="#DED370"/>
<stop offset="0.541667" stop-color="#BCFFAB" stop-opacity="0.61"/>
</linearGradient>
<linearGradient id="paint36_linear" x1="207.615" y1="333.174" x2="160.589" y2="316.667" gradientUnits="userSpaceOnUse">
<stop stop-color="#DED370"/>
<stop offset="0.541667" stop-color="#BCFFAB" stop-opacity="0.61"/>
</linearGradient>
<linearGradient id="paint37_linear" x1="309.247" y1="267.877" x2="262.22" y2="251.37" gradientUnits="userSpaceOnUse">
<stop stop-color="#DED370"/>
<stop offset="0.541667" stop-color="#BCFFAB" stop-opacity="0.61"/>
</linearGradient>
<linearGradient id="paint38_linear" x1="259.84" y1="174.916" x2="212.813" y2="158.41" gradientUnits="userSpaceOnUse">
<stop stop-color="#DED370"/>
<stop offset="0.541667" stop-color="#BCFFAB" stop-opacity="0.61"/>
</linearGradient>
<linearGradient id="paint39_linear" x1="74.1482" y1="135.481" x2="27.1218" y2="118.974" gradientUnits="userSpaceOnUse">
<stop stop-color="#DED370"/>
<stop offset="0.541667" stop-color="#BCFFAB" stop-opacity="0.61"/>
</linearGradient>
<linearGradient id="paint40_linear" x1="177.105" y1="93.4702" x2="156.161" y2="133.939" gradientUnits="userSpaceOnUse">
<stop stop-color="#DED370"/>
<stop offset="0.541667" stop-color="#FFDAD5" stop-opacity="0.61"/>
</linearGradient>
<linearGradient id="paint41_linear" x1="311.356" y1="60.0355" x2="290.411" y2="100.505" gradientUnits="userSpaceOnUse">
<stop stop-color="#DED370"/>
<stop offset="0.541667" stop-color="#FFDAD5" stop-opacity="0.61"/>
</linearGradient>
<linearGradient id="paint42_linear" x1="383.543" y1="170.615" x2="362.599" y2="211.084" gradientUnits="userSpaceOnUse">
<stop stop-color="#DED370"/>
<stop offset="0.541667" stop-color="#FFDAD5" stop-opacity="0.61"/>
</linearGradient>
<linearGradient id="paint43_linear" x1="123.779" y1="234.189" x2="102.835" y2="274.658" gradientUnits="userSpaceOnUse">
<stop stop-color="#DED370"/>
<stop offset="0.541667" stop-color="#FFDAD5" stop-opacity="0.61"/>
</linearGradient>
<linearGradient id="paint44_linear" x1="201.239" y1="326.199" x2="180.294" y2="366.668" gradientUnits="userSpaceOnUse">
<stop stop-color="#DED370"/>
<stop offset="0.541667" stop-color="#FFDAD5" stop-opacity="0.61"/>
</linearGradient>
<linearGradient id="paint45_linear" x1="302.871" y1="260.901" x2="281.926" y2="301.37" gradientUnits="userSpaceOnUse">
<stop stop-color="#DED370"/>
<stop offset="0.541667" stop-color="#FFDAD5" stop-opacity="0.61"/>
</linearGradient>
<linearGradient id="paint46_linear" x1="253.464" y1="167.941" x2="232.519" y2="208.41" gradientUnits="userSpaceOnUse">
<stop stop-color="#DED370"/>
<stop offset="0.541667" stop-color="#FFDAD5" stop-opacity="0.61"/>
</linearGradient>
<linearGradient id="paint47_linear" x1="67.7724" y1="128.505" x2="46.8277" y2="168.974" gradientUnits="userSpaceOnUse">
<stop stop-color="#DED370"/>
<stop offset="0.541667" stop-color="#FFDAD5" stop-opacity="0.61"/>
</linearGradient>
</defs>
</svg>
