<svg width="455" height="437" viewBox="0 0 455 437" fill="none" xmlns="http://www.w3.org/2000/svg">
<path d="M95.2474 85.8922C98.6634 95.2042 118.202 92.6488 121.676 77.2691C124.221 66.0044 129.317 52.5359 140.844 53.253C146.061 53.5776 150.658 56.9112 154.219 60.7372C157.298 64.0448 161.184 66.3778 163.861 61.4666C168.944 52.1439 177.294 38.7191 172.937 73.9591C171.799 83.1637 172.42 90.7401 173.958 96.9108C176.647 107.699 172.738 126.447 162.713 131.255C156.694 134.141 152.346 136.876 149.652 139.566C142.585 146.624 140.333 167 130.345 167C129.819 167 129.297 166.957 128.782 166.847C125.471 166.138 112.873 162.87 117.937 155.067C121.982 148.834 108.563 142.163 110.36 134.953C112.278 127.256 111.982 122.373 109.286 119.66C102.649 112.98 91.9785 109.393 92.0009 99.9765C92.0264 89.2185 92.6384 78.7799 95.2474 85.8922Z" fill="url(#paint0_radial)" stroke="#1ABC00" stroke-width="4"/>
<path d="M222.614 133.146C214.678 139.096 222.745 157.074 238.475 155.978C249.995 155.175 264.36 156.182 266.989 167.428C268.178 172.518 266.308 177.879 263.668 182.39C261.385 186.29 260.269 190.683 265.743 191.835C276.133 194.022 291.392 198.157 256.389 204.121C247.246 205.678 240.168 208.452 234.7 211.7C225.141 217.378 206.061 219.026 198.573 210.808C194.078 205.874 190.208 202.495 186.857 200.689C178.064 195.951 157.902 199.655 155.029 190.089C154.877 189.585 154.768 189.072 154.726 188.548C154.453 185.173 153.959 172.167 162.889 174.773C170.022 176.855 172.552 162.083 179.974 161.73C187.896 161.354 192.488 159.666 194.311 156.303C198.8 148.026 199.167 136.774 208.191 134.088C218.502 131.018 228.676 128.601 222.614 133.146Z" fill="url(#paint1_radial)" stroke="#1ABC00" stroke-width="4"/>
<path d="M291.247 209.892C294.663 219.204 314.202 216.649 317.676 201.269C320.221 190.004 325.317 176.536 336.844 177.253C342.061 177.578 346.658 180.911 350.219 184.737C353.298 188.045 357.184 190.378 359.861 185.467C364.944 176.144 373.294 162.719 368.937 197.959C367.799 207.164 368.42 214.74 369.958 220.911C372.647 231.699 368.738 250.447 358.713 255.255C352.694 258.141 348.346 260.876 345.652 263.566C338.585 270.624 336.333 291 326.345 291C325.819 291 325.297 290.957 324.782 290.847C321.471 290.138 308.873 286.87 313.937 279.067C317.982 272.834 304.563 266.163 306.36 258.953C308.278 251.256 307.982 246.373 305.286 243.66C298.649 236.98 287.978 233.393 288.001 223.976C288.026 213.218 288.638 202.78 291.247 209.892Z" fill="url(#paint2_radial)" stroke="#1ABC00" stroke-width="4"/>
<path d="M79.4215 267.626C88.3185 272.01 100.7 256.682 92.6059 243.151C86.6771 233.24 81.0754 219.974 89.9145 212.542C93.9152 209.178 99.543 208.42 104.761 208.733C109.271 209.004 113.694 208.012 112.244 202.609C109.492 192.354 106.276 176.875 127.433 205.392C132.959 212.841 138.635 217.897 144.005 221.304C153.394 227.258 163.497 243.528 159.557 253.924C157.191 260.166 155.929 265.146 155.835 268.951C155.587 278.937 168.014 295.241 160.783 302.131C160.402 302.494 159.994 302.823 159.546 303.099C156.66 304.869 145.285 311.195 143.568 302.052C142.197 294.749 127.879 299.177 124.207 292.718C120.286 285.823 116.703 282.492 112.879 282.387C103.466 282.13 93.267 286.894 86.7873 280.062C79.3843 272.256 72.6262 264.277 79.4215 267.626Z" fill="url(#paint3_radial)" stroke="#1ABC00" stroke-width="4"/>
<path d="M187.983 76.8861C187.853 86.8041 207.018 91.385 215.749 78.2558C222.144 68.6394 231.709 57.8743 242.221 62.6551C246.979 64.8188 250.085 69.5728 252.048 74.4173C253.744 78.6054 256.543 82.171 260.796 78.5377C268.869 71.6407 281.458 62.0767 264.82 93.4456C260.474 101.639 258.351 108.939 257.588 115.252C256.252 126.29 245.914 142.411 234.833 143.327C228.181 143.877 223.143 144.881 219.667 146.433C210.547 150.507 201.177 168.74 191.845 165.178C191.354 164.99 190.881 164.764 190.44 164.477C187.6 162.634 176.995 155.088 184.51 149.604C190.512 145.224 180.354 134.205 184.604 128.11C189.141 121.604 190.606 116.936 189.055 113.44C185.237 104.832 176.547 97.6755 179.927 88.8863C183.787 78.8449 188.082 69.311 187.983 76.8861Z" fill="url(#paint4_radial)" stroke="#1ABC00" stroke-width="4"/>
<path d="M270.961 130.756C270.831 140.674 289.996 145.255 298.727 132.126C305.122 122.509 314.687 111.744 325.199 116.525C329.957 118.689 333.063 123.443 335.026 128.287C336.722 132.475 339.521 136.041 343.774 132.407C351.847 125.51 364.436 115.946 347.798 147.315C343.452 155.509 341.329 162.808 340.566 169.122C339.23 180.16 328.892 196.28 317.811 197.197C311.159 197.747 306.121 198.751 302.645 200.303C293.525 204.377 284.155 222.61 274.824 219.047C274.332 218.86 273.859 218.633 273.418 218.347C270.578 216.504 259.973 208.958 267.488 203.474C273.49 199.094 263.332 188.075 267.582 181.98C272.119 175.474 273.584 170.806 272.033 167.31C268.215 158.702 259.525 151.545 262.905 142.756C266.765 132.715 271.06 123.181 270.961 130.756Z" fill="url(#paint5_radial)" stroke="#1ABC00" stroke-width="4"/>
<path d="M353.939 184.626C353.809 194.544 372.974 199.125 381.705 185.995C388.1 176.379 397.665 165.614 408.177 170.395C412.935 172.558 416.041 177.312 418.004 182.157C419.7 186.345 422.499 189.91 426.752 186.277C434.825 179.38 447.414 169.816 430.776 201.185C426.43 209.379 424.307 216.678 423.544 222.992C422.208 234.029 411.87 250.15 400.789 251.066C394.137 251.617 389.099 252.62 385.623 254.173C376.503 258.246 367.133 276.479 357.802 272.917C357.31 272.729 356.837 272.503 356.396 272.217C353.556 270.373 342.951 262.828 350.466 257.344C356.468 252.963 346.31 241.944 350.56 235.85C355.097 229.343 356.562 224.676 355.011 221.179C351.193 212.572 342.503 205.415 345.883 196.626C349.743 186.584 354.038 177.05 353.939 184.626Z" fill="url(#paint6_radial)" stroke="#1ABC00" stroke-width="4"/>
<path d="M332.638 138.043C341.576 142.343 353.813 126.898 345.59 113.445C339.568 103.591 333.841 90.3779 342.609 82.8622C346.578 79.4606 352.198 78.6493 357.419 78.9131C361.932 79.1412 366.345 78.1072 364.844 72.7187C361.995 62.4899 358.633 47.0421 380.058 75.3577C385.655 82.7537 391.378 87.7565 396.781 91.1117C406.226 96.9775 416.482 113.151 412.64 123.584C410.333 129.848 409.119 134.839 409.061 138.645C408.908 148.633 421.488 164.818 414.323 171.777C413.945 172.144 413.54 172.477 413.095 172.756C410.225 174.554 398.911 180.987 397.108 171.861C395.668 164.571 381.393 169.134 377.659 162.71C373.673 155.853 370.058 152.555 366.234 152.487C356.819 152.319 346.665 157.179 340.121 150.409C332.645 142.673 325.812 134.758 332.638 138.043Z" fill="url(#paint7_radial)" stroke="#1ABC00" stroke-width="4"/>
<path d="M301.296 333.407C310.861 336.032 320.123 318.639 309.617 306.882C301.922 298.271 293.914 286.302 301.189 277.333C304.482 273.274 309.865 271.466 315.048 270.787C319.528 270.201 323.684 268.39 321.239 263.359C316.599 253.809 310.515 239.217 336.68 263.221C343.514 269.491 350.044 273.384 355.961 275.714C366.306 279.787 379.302 293.854 377.397 304.808C376.254 311.384 375.956 316.513 376.583 320.268C378.227 330.12 393.511 343.781 387.713 351.914C387.407 352.343 387.069 352.743 386.68 353.098C384.181 355.382 374.207 363.744 370.793 355.09C368.066 348.178 354.844 355.232 350.016 349.583C344.863 343.553 340.715 340.96 336.941 341.58C327.649 343.106 318.534 349.712 310.879 344.227C302.135 337.961 293.99 331.403 301.296 333.407Z" fill="url(#paint8_radial)" stroke="#1ABC00" stroke-width="4"/>
<path d="M167.296 275.407C176.861 278.032 186.123 260.639 175.617 248.882C167.922 240.271 159.914 228.302 167.189 219.333C170.482 215.274 175.865 213.466 181.048 212.787C185.528 212.201 189.684 210.39 187.239 205.359C182.599 195.809 176.515 181.217 202.68 205.221C209.514 211.491 216.044 215.384 221.961 217.714C232.306 221.787 245.302 235.854 243.397 246.808C242.254 253.384 241.956 258.513 242.583 262.268C244.227 272.12 259.511 285.781 253.713 293.914C253.407 294.343 253.069 294.743 252.68 295.098C250.181 297.382 240.207 305.744 236.793 297.09C234.066 290.178 220.844 297.232 216.016 291.583C210.863 285.553 206.715 282.96 202.941 283.58C193.649 285.106 184.534 291.712 176.879 286.227C168.135 279.961 159.99 273.403 167.296 275.407Z" fill="url(#paint9_radial)" stroke="#1ABC00" stroke-width="4"/>
<path d="M33.296 217.407C42.8613 220.032 52.1231 202.639 41.6172 190.882C33.9222 182.271 25.9142 170.302 33.1894 161.333C36.4821 157.274 41.8653 155.466 47.048 154.787C51.5284 154.201 55.6841 152.39 53.2395 147.359C48.599 137.809 42.5152 123.217 68.6802 147.221C75.5145 153.491 82.0438 157.384 87.9612 159.714C98.3065 163.787 111.302 177.854 109.397 188.808C108.254 195.384 107.956 200.513 108.583 204.268C110.227 214.12 125.511 227.781 119.713 235.914C119.407 236.343 119.069 236.743 118.68 237.098C116.181 239.382 106.207 247.744 102.793 239.09C100.066 232.178 86.8436 239.232 82.0161 233.583C76.8629 227.553 72.7149 224.96 68.9407 225.58C59.6488 227.106 50.5335 233.712 42.8793 228.227C34.1345 221.961 25.9902 215.403 33.296 217.407Z" fill="url(#paint10_radial)" stroke="#1ABC00" stroke-width="4"/>
<path d="M131.296 365.407C140.861 368.032 150.123 350.639 139.617 338.882C131.922 330.271 123.914 318.302 131.189 309.333C134.482 305.274 139.865 303.466 145.048 302.787C149.528 302.201 153.684 300.39 151.239 295.359C146.599 285.809 140.515 271.217 166.68 295.221C173.514 301.491 180.044 305.384 185.961 307.714C196.306 311.787 209.302 325.854 207.397 336.808C206.254 343.384 205.956 348.513 206.583 352.268C208.227 362.12 223.511 375.781 217.713 383.914C217.407 384.343 217.069 384.743 216.68 385.098C214.181 387.382 204.207 395.744 200.793 387.09C198.066 380.178 184.844 387.232 180.016 381.583C174.863 375.553 170.715 372.96 166.941 373.58C157.649 375.106 148.534 381.712 140.879 376.227C132.135 369.961 123.99 363.403 131.296 365.407Z" fill="url(#paint11_radial)" stroke="#1ABC00" stroke-width="4"/>
<path d="M41.296 327.407C50.8613 330.032 60.1231 312.639 49.6172 300.882C41.9222 292.271 33.9142 280.302 41.1894 271.333C44.4821 267.274 49.8653 265.466 55.048 264.787C59.5284 264.201 63.6841 262.39 61.2395 257.359C56.599 247.809 50.5152 233.217 76.6802 257.221C83.5145 263.492 90.0438 267.384 95.9612 269.714C106.306 273.787 119.302 287.854 117.397 298.808C116.254 305.384 115.956 310.513 116.583 314.268C118.227 324.12 133.511 337.781 127.713 345.914C127.407 346.343 127.069 346.743 126.68 347.098C124.181 349.382 114.207 357.744 110.793 349.09C108.066 342.178 94.8436 349.232 90.0161 343.583C84.8629 337.553 80.7149 334.96 76.9407 335.58C67.6488 337.106 58.5335 343.712 50.8793 338.227C42.1345 331.961 33.9902 325.403 41.296 327.407Z" fill="url(#paint12_radial)" stroke="#1ABC00" stroke-width="4"/>
<path d="M213.634 107.124C221.008 100.489 211.368 83.3032 195.799 85.7992C184.396 87.6273 169.998 87.9066 166.376 76.9407C164.737 71.9775 166.121 66.4701 168.348 61.7413C170.273 57.6532 170.993 53.1779 165.438 52.5195C154.894 51.2696 139.327 48.5128 173.658 39.4479C182.626 37.0801 189.428 33.6858 194.583 29.9626C203.597 23.4534 222.454 20.1084 230.646 27.6255C235.564 32.1386 239.72 35.1579 243.219 36.6575C252.4 40.5922 272.151 35.1025 275.866 44.3741C276.062 44.8625 276.216 45.3634 276.306 45.882C276.879 49.219 278.532 62.1288 269.405 60.3304C262.115 58.894 260.914 73.8324 253.553 74.8465C245.695 75.9289 241.273 78.0201 239.757 81.5318C236.025 90.1773 236.665 101.416 227.916 104.898C217.92 108.876 208.003 112.191 213.634 107.124Z" fill="url(#paint13_radial)" stroke="#1ABC00" stroke-width="4"/>
<path d="M117.236 172.226C119.08 162.48 100.997 154.652 90.1256 166.073C82.1632 174.438 70.8801 183.385 61.3532 176.858C57.0413 173.903 54.8047 168.684 53.7102 163.573C52.7639 159.154 50.6243 155.158 45.8068 158.001C36.662 163.397 22.6085 170.639 44.4233 142.622C50.1213 135.304 53.4745 128.481 55.3192 122.395C58.5441 111.755 71.5162 97.6664 82.588 98.681C89.2353 99.2902 94.3709 99.1732 98.0629 98.2455C107.75 95.8114 120.134 79.4747 128.708 84.5979C129.16 84.8678 129.586 85.1726 129.971 85.5311C132.45 87.838 141.589 97.1048 133.239 101.206C126.569 104.482 134.668 117.092 129.427 122.359C123.833 127.982 121.582 132.326 122.505 136.038C124.776 145.177 132.096 153.729 127.247 161.801C121.707 171.023 115.828 179.67 117.236 172.226Z" fill="url(#paint14_radial)" stroke="#1ABC00" stroke-width="4"/>
<path d="M114.961 159.756C114.831 169.674 133.996 174.255 142.727 161.126C149.122 151.509 158.687 140.744 169.199 145.525C173.957 147.689 177.063 152.443 179.026 157.287C180.722 161.475 183.521 165.041 187.774 161.407C195.847 154.51 208.436 144.946 191.798 176.315C187.452 184.509 185.329 191.808 184.566 198.122C183.23 209.16 172.892 225.28 161.811 226.197C155.159 226.747 150.121 227.751 146.645 229.303C137.525 233.377 128.155 251.61 118.824 248.047C118.332 247.86 117.859 247.633 117.418 247.347C114.578 245.504 103.973 237.958 111.488 232.474C117.49 228.094 107.332 217.075 111.582 210.98C116.119 204.474 117.584 199.806 116.033 196.31C112.215 187.702 103.525 180.545 106.905 171.756C110.765 161.715 115.06 152.181 114.961 159.756Z" fill="url(#paint15_radial)" stroke="#1ABC00" stroke-width="4"/>
<path d="M212.421 272.626C221.318 277.01 233.7 261.682 225.606 248.151C219.677 238.24 214.075 224.974 222.915 217.542C226.915 214.178 232.543 213.42 237.761 213.733C242.271 214.004 246.694 213.012 245.244 207.609C242.492 197.354 239.276 181.875 260.433 210.392C265.959 217.841 271.635 222.897 277.005 226.304C286.394 232.258 296.497 248.528 292.557 258.924C290.191 265.166 288.929 270.146 288.835 273.951C288.587 283.937 301.014 300.241 293.783 307.131C293.402 307.494 292.994 307.823 292.546 308.099C289.66 309.869 278.285 316.195 276.568 307.052C275.197 299.749 260.879 304.177 257.207 297.718C253.286 290.823 249.703 287.492 245.879 287.387C236.466 287.13 226.267 291.894 219.787 285.062C212.384 277.256 205.626 269.277 212.421 272.626Z" fill="url(#paint16_radial)" stroke="#1ABC00" stroke-width="4"/>
<path d="M9.24743 177.892C12.6634 187.204 32.2018 184.649 35.6762 169.269C38.2209 158.004 43.3174 144.536 54.8437 145.253C60.0605 145.578 64.6578 148.911 68.2189 152.737C71.2975 156.045 75.1839 158.378 77.8613 153.467C82.9439 144.144 91.2936 130.719 86.9373 165.959C85.7994 175.164 86.42 182.74 87.9582 188.911C90.6473 199.699 86.7379 218.447 76.713 223.255C70.6942 226.141 66.3456 228.876 63.6521 231.566C56.5847 238.624 54.3334 259 44.3451 259C43.8189 259 43.2965 258.957 42.782 258.847C39.4711 258.138 26.8728 254.87 31.9373 247.067C35.9824 240.834 22.5627 234.163 24.3595 226.953C26.2777 219.256 25.9817 214.373 23.2858 211.66C16.6488 204.98 5.97846 201.393 6.00085 191.976C6.02643 181.218 6.63838 170.78 9.24743 177.892Z" fill="url(#paint17_radial)" stroke="#1ABC00" stroke-width="4"/>
<path d="M232.481 375.644C242.369 374.856 245.158 355.349 231.278 347.87C221.111 342.392 209.508 333.863 213.296 322.954C215.01 318.016 219.457 314.484 224.099 312.082C228.112 310.005 231.404 306.889 227.393 302.99C219.779 295.589 209.092 283.939 241.865 297.605C250.425 301.174 257.89 302.613 264.247 302.789C275.361 303.098 292.368 311.902 294.305 322.85C295.468 329.423 296.934 334.347 298.801 337.664C303.7 346.368 322.722 354.012 320.037 363.633C319.896 364.14 319.714 364.632 319.47 365.098C317.897 368.096 311.364 379.353 305.209 372.378C300.293 366.807 290.26 377.94 283.798 374.272C276.901 370.356 272.117 369.328 268.779 371.196C260.562 375.794 254.239 385.108 245.175 382.556C234.82 379.64 224.93 376.246 232.481 375.644Z" fill="url(#paint18_radial)" stroke="#1ABC00" stroke-width="4"/>
<path d="M268.481 127.644C278.369 126.856 281.158 107.349 267.278 99.8699C257.111 94.3915 245.508 85.8632 249.296 74.9536C251.01 70.0159 255.457 66.4836 260.099 64.0816C264.112 62.0051 267.404 58.8886 263.393 54.9899C255.779 47.589 245.092 35.9387 277.865 49.6049C286.425 53.1745 293.89 54.6127 300.247 54.7893C311.361 55.0982 328.368 63.9019 330.305 74.8501C331.468 81.4232 332.934 86.3467 334.801 89.664C339.7 98.3682 358.722 106.012 356.037 115.633C355.896 116.14 355.714 116.632 355.47 117.098C353.897 120.096 347.364 131.353 341.209 124.378C336.293 118.807 326.26 129.94 319.798 126.272C312.901 122.356 308.117 121.328 304.779 123.196C296.562 127.794 290.239 137.108 281.175 134.556C270.82 131.64 260.93 128.246 268.481 127.644Z" fill="url(#paint19_radial)" stroke="#1ABC00" stroke-width="4"/>
<path d="M112.247 265.892C115.663 275.204 135.202 272.649 138.676 257.269C141.221 246.004 146.317 232.536 157.844 233.253C163.061 233.578 167.658 236.911 171.219 240.737C174.298 244.045 178.184 246.378 180.861 241.467C185.944 232.144 194.294 218.719 189.937 253.959C188.799 263.164 189.42 270.74 190.958 276.911C193.647 287.699 189.738 306.447 179.713 311.255C173.694 314.141 169.346 316.876 166.652 319.566C159.585 326.624 157.333 347 147.345 347C146.819 347 146.297 346.957 145.782 346.847C142.471 346.138 129.873 342.87 134.937 335.067C138.982 328.834 125.563 322.163 127.36 314.953C129.278 307.256 128.982 302.373 126.286 299.66C119.649 292.98 108.978 289.393 109.001 279.976C109.026 269.218 109.638 258.78 112.247 265.892Z" fill="url(#paint20_radial)" stroke="#1ABC00" stroke-width="4"/>
<path d="M128 149C148.012 121.96 152.516 105.519 148.827 74" stroke="#1ABC00" stroke-width="6"/>
<path d="M171.594 182.666C203.248 194.055 220.289 193.639 249.415 181.041" stroke="#1ABC00" stroke-width="6"/>
<path d="M324 273C344.012 245.96 348.516 229.519 344.827 198" stroke="#1ABC00" stroke-width="6"/>
<path d="M146.668 290.718C142.502 257.337 134.42 242.327 110.007 222.054" stroke="#1ABC00" stroke-width="6"/>
<path d="M196.074 147.525C224.414 129.4 234.485 115.646 242.281 84.885" stroke="#1ABC00" stroke-width="6"/>
<path d="M279.052 201.395C307.392 183.27 317.463 169.516 325.259 138.755" stroke="#1ABC00" stroke-width="6"/>
<path d="M362.03 255.264C390.37 237.14 400.442 223.386 408.237 192.625" stroke="#1ABC00" stroke-width="6"/>
<path d="M400.1 160.498C395.618 127.158 387.395 112.225 362.79 92.1838" stroke="#1ABC00" stroke-width="6"/>
<path d="M371.695 343.374C361.295 311.382 350.522 298.171 322.717 282.877" stroke="#1ABC00" stroke-width="6"/>
<path d="M237.695 285.374C227.295 253.382 216.522 240.171 188.717 224.877" stroke="#1ABC00" stroke-width="6"/>
<path d="M103.695 227.374C93.2948 195.382 82.5223 182.171 54.7172 166.877" stroke="#1ABC00" stroke-width="6"/>
<path d="M201.695 375.374C191.295 343.382 180.522 330.171 152.717 314.877" stroke="#1ABC00" stroke-width="6"/>
<path d="M111.695 337.374C101.295 305.382 90.5223 292.171 62.7172 276.877" stroke="#1ABC00" stroke-width="6"/>
<path d="M260.03 53.2465C227.486 44.7291 210.549 46.6642 182.665 61.8124" stroke="#1ABC00" stroke-width="6"/>
<path d="M121.489 101.253C90.4402 114.201 78.1409 126.004 65.1409 154.953" stroke="#1ABC00" stroke-width="6"/>
<path d="M123.052 230.395C151.392 212.27 161.463 198.516 169.259 167.755" stroke="#1ABC00" stroke-width="6"/>
<path d="M279.668 295.718C275.502 262.337 267.42 247.327 243.007 227.054" stroke="#1ABC00" stroke-width="6"/>
<path d="M42 241C62.012 213.96 66.5159 197.519 62.8274 166" stroke="#1ABC00" stroke-width="6"/>
<path d="M302.069 361.055C281.402 334.512 266.775 325.756 235.425 320.839" stroke="#1ABC00" stroke-width="6"/>
<path d="M338.069 113.055C317.402 86.5125 302.775 77.756 271.425 72.8389" stroke="#1ABC00" stroke-width="6"/>
<path d="M145 329C165.012 301.96 169.516 285.519 165.827 254" stroke="#1ABC00" stroke-width="6"/>
<path d="M130.495 85.845C125.5 76.5 143.5 111.5 136.904 98.5478" stroke="#1ABC00" stroke-width="5"/>
<path d="M232.797 166.891C238.417 161.604 217.292 181.411 222.475 176.683" stroke="#1ABC00" stroke-width="5"/>
<path d="M326.495 209.845C323.048 202.942 335.942 228.871 332.904 222.548" stroke="#1ABC00" stroke-width="5"/>
<path d="M104.906 243.276C97.649 240.656 124.871 250.533 118.309 248.051" stroke="#1ABC00" stroke-width="5"/>
<path d="M220.929 89.4129C220.171 81.7347 222.969 110.557 222.386 103.566" stroke="#1ABC00" stroke-width="5"/>
<path d="M303.907 143.283C303.149 135.604 305.947 164.427 305.364 157.436" stroke="#1ABC00" stroke-width="5"/>
<path d="M386.885 197.152C386.127 189.474 388.925 218.297 388.342 211.306" stroke="#1ABC00" stroke-width="5"/>
<path d="M357.891 113.453C350.61 110.902 377.923 120.521 371.339 118.101" stroke="#1ABC00" stroke-width="5"/>
<path d="M321.719 304.68C314.098 303.479 342.695 308.033 335.783 306.836" stroke="#1ABC00" stroke-width="5"/>
<path d="M187.719 246.68C180.098 245.479 208.695 250.033 201.783 248.836" stroke="#1ABC00" stroke-width="5"/>
<path d="M53.7193 188.68C46.0977 187.479 74.6953 192.033 67.7831 190.836" stroke="#1ABC00" stroke-width="5"/>
<path d="M151.719 336.68C144.098 335.479 172.695 340.033 165.783 338.836" stroke="#1ABC00" stroke-width="5"/>
<path d="M61.7193 298.68C54.0977 297.479 82.6953 302.033 75.7831 300.836" stroke="#1ABC00" stroke-width="5"/>
<path d="M200.479 74.4235C195.354 80.1907 214.626 58.5772 209.886 63.749" stroke="#1ABC00" stroke-width="5"/>
<path d="M86.9539 154.188C86.3722 161.882 88.6032 133.01 87.9675 139.996" stroke="#1ABC00" stroke-width="5"/>
<path d="M147.907 172.283C147.149 164.604 149.947 193.427 149.364 186.436" stroke="#1ABC00" stroke-width="5"/>
<path d="M237.906 248.276C230.649 245.656 257.871 255.533 251.309 253.051" stroke="#1ABC00" stroke-width="5"/>
<path d="M44.495 177.845C41.0482 170.942 53.9418 196.871 50.9042 190.548" stroke="#1ABC00" stroke-width="5"/>
<path d="M241.908 341.68C234.333 343.145 262.773 337.694 255.866 338.92" stroke="#1ABC00" stroke-width="5"/>
<path d="M277.908 93.68C270.333 95.145 298.773 89.6936 291.866 90.9202" stroke="#1ABC00" stroke-width="5"/>
<path d="M147.495 265.845C144.048 258.942 156.942 284.871 153.904 278.548" stroke="#1ABC00" stroke-width="5"/>
<path d="M165.515 90.0243C169.572 85.9191 153.288 102.937 157.349 98.7392" stroke="#1ABC00" stroke-width="5"/>
<path d="M238.867 201.633C243.966 204.338 222.984 193.636 228.172 196.319" stroke="#1ABC00" stroke-width="5"/>
<path d="M361.515 214.024C365.572 209.919 349.288 226.937 353.349 222.739" stroke="#1ABC00" stroke-width="5"/>
<path d="M133.142 222.142C133.247 216.372 133.198 239.926 133.242 234.085" stroke="#1ABC00" stroke-width="5"/>
<path d="M252.156 105.807C257.41 103.419 236.127 113.509 241.418 111.037" stroke="#1ABC00" stroke-width="5"/>
<path d="M335.134 159.677C340.388 157.289 319.105 167.379 324.396 164.906" stroke="#1ABC00" stroke-width="5"/>
<path d="M418.112 213.547C423.366 211.158 402.083 221.249 407.374 218.776" stroke="#1ABC00" stroke-width="5"/>
<path d="M345.452 278.591C344.465 272.905 348.868 296.044 347.808 290.3" stroke="#1ABC00" stroke-width="5"/>
<path d="M211.452 220.591C210.465 214.905 214.868 238.044 213.808 232.3" stroke="#1ABC00" stroke-width="5"/>
<path d="M77.4521 162.591C76.4647 156.905 80.8676 180.044 79.8076 174.3" stroke="#1ABC00" stroke-width="5"/>
<path d="M175.452 310.591C174.465 304.905 178.868 328.044 177.808 322.3" stroke="#1ABC00" stroke-width="5"/>
<path d="M85.4521 272.591C84.4647 266.905 88.8676 290.044 87.8076 284.3" stroke="#1ABC00" stroke-width="5"/>
<path d="M191.332 40.3619C186.012 38.123 207.866 46.9089 202.459 44.7002" stroke="#1ABC00" stroke-width="5"/>
<path d="M59.0352 132.638C53.4468 134.081 76.1549 127.825 70.5154 129.345" stroke="#1ABC00" stroke-width="5"/>
<path d="M179.134 188.677C184.388 186.289 163.105 196.379 168.396 193.906" stroke="#1ABC00" stroke-width="5"/>
<path d="M266.142 227.142C266.247 221.372 266.198 244.926 266.242 239.085" stroke="#1ABC00" stroke-width="5"/>
<path d="M79.5153 182.024C83.5723 177.919 67.2876 194.937 71.3492 190.739" stroke="#1ABC00" stroke-width="5"/>
<path d="M255.344 309.071C252.48 304.06 264.496 324.319 261.544 319.279" stroke="#1ABC00" stroke-width="5"/>
<path d="M291.344 61.0711C288.48 56.0601 300.496 76.319 297.544 71.2788" stroke="#1ABC00" stroke-width="5"/>
<path d="M182.515 270.024C186.572 265.919 170.288 282.937 174.349 278.739" stroke="#1ABC00" stroke-width="5"/>
<path d="M120.853 107.971C114 94.5 135 136 129.29 124.953" stroke="#1ABC00" stroke-width="5"/>
<path d="M208.833 164.02C214.712 158.807 188.161 183.26 194.996 176.984" stroke="#1ABC00" stroke-width="5"/>
<path d="M316.853 231.971C313.551 224.842 329.334 257.304 325.289 248.953" stroke="#1ABC00" stroke-width="5"/>
<path d="M113.19 265.946C105.881 263.062 139.701 275.675 131.012 272.42" stroke="#1ABC00" stroke-width="5"/>
<path d="M204.03 106.645C203.487 98.8071 206.655 134.763 205.855 125.519" stroke="#1ABC00" stroke-width="5"/>
<path d="M287.008 160.515C286.465 152.677 289.633 188.633 288.833 179.389" stroke="#1ABC00" stroke-width="5"/>
<path d="M369.986 214.385C369.444 206.547 372.611 242.503 371.811 233.259" stroke="#1ABC00" stroke-width="5"/>
<path d="M366.389 136.044C359.053 133.23 392.991 145.522 384.272 142.349" stroke="#1ABC00" stroke-width="5"/>
<path d="M334.138 325.376C326.416 323.926 362.011 329.919 352.863 328.365" stroke="#1ABC00" stroke-width="5"/>
<path d="M200.138 267.376C192.416 265.926 228.011 271.919 218.863 270.365" stroke="#1ABC00" stroke-width="5"/>
<path d="M66.1379 209.376C58.4162 207.926 94.0108 213.919 84.8628 212.365" stroke="#1ABC00" stroke-width="5"/>
<path d="M164.138 357.376C156.416 355.926 192.011 361.919 182.863 360.365" stroke="#1ABC00" stroke-width="5"/>
<path d="M74.1379 319.376C66.4162 317.926 102.011 323.919 92.8628 322.365" stroke="#1ABC00" stroke-width="5"/>
<path d="M224.604 75.1432C219.215 80.86 243.476 54.1341 237.229 60.9952" stroke="#1ABC00" stroke-width="5"/>
<path d="M106.58 140.139C105.758 147.953 108.859 111.991 108.048 121.234" stroke="#1ABC00" stroke-width="5"/>
<path d="M131.008 189.515C130.465 181.677 133.633 217.633 132.833 208.389" stroke="#1ABC00" stroke-width="5"/>
<path d="M246.19 270.946C238.881 268.062 272.701 280.675 264.012 277.42" stroke="#1ABC00" stroke-width="5"/>
<path d="M34.8529 199.971C31.551 192.842 47.3342 225.304 43.2893 216.953" stroke="#1ABC00" stroke-width="5"/>
<path d="M260.629 356.913C252.875 358.178 288.384 351.699 279.253 353.351" stroke="#1ABC00" stroke-width="5"/>
<path d="M296.629 108.913C288.875 110.178 324.384 103.699 315.253 105.351" stroke="#1ABC00" stroke-width="5"/>
<path d="M137.853 287.971C134.551 280.842 150.334 313.304 146.289 304.953" stroke="#1ABC00" stroke-width="5"/>
<path d="M161.649 119.351C166.743 116.267 143.687 131.034 149.621 127.25" stroke="#1ABC00" stroke-width="5"/>
<path d="M209.668 206.366C214.087 210.357 193.312 192.523 198.643 197.118" stroke="#1ABC00" stroke-width="5"/>
<path d="M357.649 243.351C362.743 240.267 339.687 255.034 345.621 251.25" stroke="#1ABC00" stroke-width="5"/>
<path d="M150.575 246.041C152.135 240.294 145.631 266.89 147.316 260.057" stroke="#1ABC00" stroke-width="5"/>
<path d="M238.085 131.827C243.943 130.762 217.137 136.335 224.03 134.916" stroke="#1ABC00" stroke-width="5"/>
<path d="M321.063 185.697C326.921 184.632 300.115 190.205 307.008 188.786" stroke="#1ABC00" stroke-width="5"/>
<path d="M404.041 239.566C409.899 238.501 383.093 244.075 389.986 242.656" stroke="#1ABC00" stroke-width="5"/>
<path d="M403.584 113C405.089 107.239 398.837 133.895 400.458 127.046" stroke="#1ABC00" stroke-width="5"/>
<path d="M384.472 90.2317C384.156 86.7206 387.422 102.437 386.619 98.3881" stroke="#1ABC00" stroke-width="5"/>
<path d="M367.087 298.764C367.533 292.826 366.173 320.172 366.536 313.144" stroke="#1ABC00" stroke-width="5"/>
<path d="M233.087 240.764C233.533 234.826 232.173 262.172 232.536 255.144" stroke="#1ABC00" stroke-width="5"/>
<path d="M99.0872 182.764C99.5327 176.826 98.1725 204.172 98.5362 197.144" stroke="#1ABC00" stroke-width="5"/>
<path d="M197.087 330.764C197.533 324.826 196.173 352.172 196.536 345.144" stroke="#1ABC00" stroke-width="5"/>
<path d="M107.087 292.764C107.533 286.826 106.173 314.172 106.536 307.144" stroke="#1ABC00" stroke-width="5"/>
<path d="M219.992 33.0412C215.234 29.4603 237.519 45.3687 231.799 41.268" stroke="#1ABC00" stroke-width="5"/>
<path d="M77.396 109.445C71.4413 109.48 98.8082 108.629 91.7731 108.834" stroke="#1ABC00" stroke-width="5"/>
<path d="M165.063 214.697C170.921 213.632 144.115 219.205 151.008 217.786" stroke="#1ABC00" stroke-width="5"/>
<path d="M283.575 251.041C285.135 245.294 278.631 271.89 280.316 265.057" stroke="#1ABC00" stroke-width="5"/>
<path d="M75.6494 211.351C80.7432 208.267 57.687 223.034 63.6211 219.25" stroke="#1ABC00" stroke-width="5"/>
<path d="M282.554 320.676C280.951 314.94 288.98 341.117 286.93 334.384" stroke="#1ABC00" stroke-width="5"/>
<path d="M318.554 72.6758C316.951 66.9404 324.98 93.1171 322.93 86.3842" stroke="#1ABC00" stroke-width="5"/>
<path d="M178.649 299.351C183.743 296.267 160.687 311.035 166.621 307.25" stroke="#1ABC00" stroke-width="5"/>
<path d="M224.507 337.547C216.29 343.104 223.472 361.453 239.235 361.125C250.781 360.885 265.08 362.591 267.158 373.951C268.098 379.093 265.969 384.357 263.112 388.734C260.642 392.518 259.313 396.851 264.724 398.269C274.996 400.959 290.035 405.833 254.782 410.084C245.574 411.194 238.37 413.619 232.75 416.597C222.926 421.803 203.788 422.519 196.71 413.946C192.46 408.798 188.759 405.236 185.5 403.268C176.949 398.107 156.63 400.824 154.226 391.13C154.1 390.619 154.016 390.101 153.999 389.575C153.891 386.191 154.031 373.177 162.824 376.215C169.847 378.642 173.093 364.011 180.524 364.02C188.455 364.03 193.124 362.568 195.109 359.298C199.995 351.249 200.91 340.029 210.055 337.785C220.503 335.221 230.782 333.304 224.507 337.547Z" fill="url(#paint21_radial)" stroke="#1ABC00" stroke-width="4"/>
<path d="M171.134 384.522C202.195 397.44 219.236 397.855 248.941 386.692" stroke="#1ABC00" stroke-width="6"/>
<path d="M233.034 371.748C238.904 366.741 216.839 385.495 222.246 381.025" stroke="#1ABC00" stroke-width="5"/>
<path d="M209.238 367.712C215.363 362.792 187.652 385.923 194.784 379.987" stroke="#1ABC00" stroke-width="5"/>
<path d="M210.414 411.452C214.634 415.654 194.752 396.828 199.853 401.677" stroke="#1ABC00" stroke-width="5"/>
<path d="M239.709 406.407C242.902 407.901 227.679 402.808 231.581 404.154" stroke="#1ABC00" stroke-width="5"/>
<defs>
<radialGradient id="paint0_radial" cx="0" cy="0" r="1" gradientUnits="userSpaceOnUse" gradientTransform="translate(141 109) rotate(90) scale(58 49)">
<stop stop-color="#00FF38" stop-opacity="0.9"/>
<stop offset="0.864583" stop-color="#17DC42"/>
</radialGradient>
<radialGradient id="paint1_radial" cx="0" cy="0" r="1" gradientUnits="userSpaceOnUse" gradientTransform="translate(213.642 183.612) rotate(163.284) scale(58 49)">
<stop stop-color="#00FF38" stop-opacity="0.9"/>
<stop offset="0.864583" stop-color="#17DC42"/>
</radialGradient>
<radialGradient id="paint2_radial" cx="0" cy="0" r="1" gradientUnits="userSpaceOnUse" gradientTransform="translate(337 233) rotate(90) scale(58 49)">
<stop stop-color="#00FF38" stop-opacity="0.9"/>
<stop offset="0.864583" stop-color="#17DC42"/>
</radialGradient>
<radialGradient id="paint3_radial" cx="0" cy="0" r="1" gradientUnits="userSpaceOnUse" gradientTransform="translate(128.485 252.792) rotate(46.3814) scale(58 49)">
<stop stop-color="#00FF38" stop-opacity="0.9"/>
<stop offset="0.864583" stop-color="#17DC42"/>
</radialGradient>
<radialGradient id="paint4_radial" cx="0" cy="0" r="1" gradientUnits="userSpaceOnUse" gradientTransform="translate(222.485 114.792) rotate(110.894) scale(58 49)">
<stop stop-color="#00FF38" stop-opacity="0.9"/>
<stop offset="0.864583" stop-color="#17DC42"/>
</radialGradient>
<radialGradient id="paint5_radial" cx="0" cy="0" r="1" gradientUnits="userSpaceOnUse" gradientTransform="translate(305.463 168.662) rotate(110.894) scale(58 49)">
<stop stop-color="#00FF38" stop-opacity="0.9"/>
<stop offset="0.864583" stop-color="#17DC42"/>
</radialGradient>
<radialGradient id="paint6_radial" cx="0" cy="0" r="1" gradientUnits="userSpaceOnUse" gradientTransform="translate(388.441 222.531) rotate(110.894) scale(58 49)">
<stop stop-color="#03FE3A" stop-opacity="0.9"/>
<stop offset="0.864583" stop-color="#17DC42"/>
</radialGradient>
<radialGradient id="paint7_radial" cx="0" cy="0" r="1" gradientUnits="userSpaceOnUse" gradientTransform="translate(381.559 122.745) rotate(45.8391) scale(58 49)">
<stop stop-color="#03FE3A" stop-opacity="0.9"/>
<stop offset="0.864583" stop-color="#17DC42"/>
</radialGradient>
<radialGradient id="paint8_radial" cx="0" cy="0" r="1" gradientUnits="userSpaceOnUse" gradientTransform="translate(346.672 309.568) rotate(35.4873) scale(58 49)">
<stop stop-color="#00FF38" stop-opacity="0.9"/>
<stop offset="0.864583" stop-color="#17DC42"/>
</radialGradient>
<radialGradient id="paint9_radial" cx="0" cy="0" r="1" gradientUnits="userSpaceOnUse" gradientTransform="translate(212.672 251.568) rotate(35.4873) scale(58 49)">
<stop stop-color="#00FF38" stop-opacity="0.9"/>
<stop offset="0.864583" stop-color="#17DC42"/>
</radialGradient>
<radialGradient id="paint10_radial" cx="0" cy="0" r="1" gradientUnits="userSpaceOnUse" gradientTransform="translate(78.6718 193.568) rotate(35.4873) scale(58 49)">
<stop stop-color="#00FF38" stop-opacity="0.9"/>
<stop offset="0.864583" stop-color="#17DC42"/>
</radialGradient>
<radialGradient id="paint11_radial" cx="0" cy="0" r="1" gradientUnits="userSpaceOnUse" gradientTransform="translate(176.672 341.568) rotate(35.4873) scale(58 49)">
<stop stop-color="#00FF38" stop-opacity="0.9"/>
<stop offset="0.864583" stop-color="#17DC42"/>
</radialGradient>
<radialGradient id="paint12_radial" cx="0" cy="0" r="1" gradientUnits="userSpaceOnUse" gradientTransform="translate(86.6718 303.568) rotate(35.4873) scale(58 49)">
<stop stop-color="#00FF38" stop-opacity="0.9"/>
<stop offset="0.864583" stop-color="#17DC42"/>
</radialGradient>
<radialGradient id="paint13_radial" cx="0" cy="0" r="1" gradientUnits="userSpaceOnUse" gradientTransform="translate(218.065 56.0587) rotate(-21.8379) scale(58 49)">
<stop stop-color="#00FF38" stop-opacity="0.9"/>
<stop offset="0.864583" stop-color="#17DC42"/>
</radialGradient>
<radialGradient id="paint14_radial" cx="0" cy="0" r="1" gradientUnits="userSpaceOnUse" gradientTransform="translate(89.8125 128.922) rotate(-59.1418) scale(58 49)">
<stop stop-color="#00FF38" stop-opacity="0.9"/>
<stop offset="0.864583" stop-color="#17DC42"/>
</radialGradient>
<radialGradient id="paint15_radial" cx="0" cy="0" r="1" gradientUnits="userSpaceOnUse" gradientTransform="translate(149.463 197.662) rotate(110.894) scale(58 49)">
<stop stop-color="#00FF38" stop-opacity="0.9"/>
<stop offset="0.864583" stop-color="#17DC42"/>
</radialGradient>
<radialGradient id="paint16_radial" cx="0" cy="0" r="1" gradientUnits="userSpaceOnUse" gradientTransform="translate(261.485 257.792) rotate(46.3814) scale(58 49)">
<stop stop-color="#00FF38" stop-opacity="0.9"/>
<stop offset="0.864583" stop-color="#17DC42"/>
</radialGradient>
<radialGradient id="paint17_radial" cx="0" cy="0" r="1" gradientUnits="userSpaceOnUse" gradientTransform="translate(55 201) rotate(90) scale(58 49)">
<stop stop-color="#00FF38" stop-opacity="0.9"/>
<stop offset="0.864583" stop-color="#17DC42"/>
</radialGradient>
<radialGradient id="paint18_radial" cx="0" cy="0" r="1" gradientUnits="userSpaceOnUse" gradientTransform="translate(267.034 337.784) rotate(15.5887) scale(58 49)">
<stop stop-color="#00FF38" stop-opacity="0.9"/>
<stop offset="0.864583" stop-color="#17DC42"/>
</radialGradient>
<radialGradient id="paint19_radial" cx="0" cy="0" r="1" gradientUnits="userSpaceOnUse" gradientTransform="translate(303.034 89.7839) rotate(15.5887) scale(58 49)">
<stop stop-color="#00FF38" stop-opacity="0.9"/>
<stop offset="0.864583" stop-color="#17DC42"/>
</radialGradient>
<radialGradient id="paint20_radial" cx="0" cy="0" r="1" gradientUnits="userSpaceOnUse" gradientTransform="translate(158 289) rotate(90) scale(58 49)">
<stop stop-color="#00FF38" stop-opacity="0.9"/>
<stop offset="0.864583" stop-color="#17DC42"/>
</radialGradient>
<radialGradient id="paint21_radial" cx="0" cy="0" r="1" gradientUnits="userSpaceOnUse" gradientTransform="translate(213.086 387.516) rotate(166.077) scale(58 49)">
<stop stop-color="#03FE3A" stop-opacity="0.9"/>
<stop offset="0.864583" stop-color="#17DC42"/>
</radialGradient>
</defs>
</svg>
