<svg width="363" height="321" viewBox="0 0 363 321" fill="none" xmlns="http://www.w3.org/2000/svg">
<path d="M128.957 47.1421C131.022 45.7 132.528 45.5287 133.529 45.9585C134.536 46.3911 135.248 47.5248 135.509 49.1952C136.028 52.5271 134.647 57.5173 131.048 61.0359C127.553 64.4539 123.598 67.3901 118.54 70.8652C116.823 72.045 114.978 73.288 112.981 74.6326C109.107 77.2416 104.665 80.2335 99.4896 83.8903C91.6702 89.4155 82.0755 91.8852 72.5073 93.2431C68.0786 93.8715 63.8311 94.7912 59.8866 95.6498L59.7183 95.6864C55.83 96.5328 52.2501 97.312 49.0528 97.7012C45.8058 98.0965 43.0103 98.081 40.7293 97.3569C38.4746 96.6412 36.6967 95.2253 35.4753 92.7431C34.6791 91.1249 34.5539 90.0175 34.8221 89.2482C35.0838 88.4974 35.7762 87.9165 37.0094 87.4851C38.2412 87.0542 39.9177 86.8076 41.9783 86.6643C44.0326 86.5215 46.4293 86.4834 49.0878 86.4534C49.3864 86.4501 49.6883 86.4468 49.9932 86.4435C60.5144 86.3298 74.7172 86.1763 86.9284 80.1677C94.8363 76.2766 102.711 69.8462 109.914 63.4912C111.839 61.7921 113.715 60.1003 115.53 58.4626C120.532 53.951 125.078 49.8505 128.957 47.1421Z" fill="#F8F5F5" fill-opacity="0.9" stroke="#D4E4CF"/>
<path d="M214.789 143.768C215.95 146.872 214.323 150.163 210.45 153.615C206.602 157.043 200.702 160.472 193.786 163.791C182.081 169.41 167.587 174.661 155.504 179.038C153.317 179.83 151.209 180.594 149.211 181.326C136.428 186.009 129.055 193.514 124.297 198.358C124.166 198.492 124.037 198.623 123.91 198.752C122.721 199.961 121.717 200.965 120.835 201.697C119.941 202.438 119.239 202.839 118.659 202.931C118.141 203.013 117.65 202.857 117.106 202.251C116.538 201.617 115.952 200.529 115.318 198.836C114.718 197.23 114.705 195.739 115.177 194.326C115.652 192.903 116.63 191.527 118.06 190.187C120.929 187.499 125.526 185.038 131.156 182.683C136.775 180.332 143.372 178.107 150.204 175.87C151.357 175.493 152.516 175.115 153.678 174.736C159.399 172.872 165.192 170.984 170.612 168.998C182.979 164.468 192.568 155.579 199.734 148.936C200.178 148.524 200.613 148.121 201.039 147.728C202.867 146.041 204.519 144.546 206.011 143.356C207.509 142.161 208.815 141.298 209.948 140.85C211.073 140.405 211.96 140.394 212.695 140.792C213.452 141.201 214.167 142.106 214.789 143.768Z" fill="#F8F5F5" fill-opacity="0.9" stroke="#D4E4CF"/>
<path d="M190.12 187.617C186.84 188.09 183.972 185.798 181.426 181.277C178.898 176.787 176.807 170.29 175.04 162.826C172.048 150.192 170.011 134.911 168.312 122.172C168.005 119.866 167.709 117.644 167.42 115.536C165.572 102.048 159.813 93.2438 156.095 87.5612C155.993 87.4048 155.892 87.2507 155.793 87.099C154.866 85.6799 154.099 84.485 153.572 83.4665C153.039 82.4351 152.797 81.6639 152.831 81.0774C152.862 80.5536 153.118 80.1071 153.827 79.7052C154.567 79.2855 155.755 78.9455 157.545 78.6878C159.242 78.4434 160.701 78.7497 161.981 79.5119C163.27 80.2798 164.405 81.5282 165.409 83.2115C167.424 86.5878 168.847 91.6037 169.946 97.6069C171.044 103.599 171.81 110.518 172.538 117.67C172.661 118.877 172.783 120.09 172.905 121.306C173.505 127.293 174.114 133.355 174.897 139.075C176.685 152.123 183.323 163.388 188.284 171.806C188.591 172.328 188.892 172.839 189.185 173.339C190.444 175.485 191.551 177.418 192.396 179.13C193.244 180.848 193.808 182.307 194.004 183.51C194.198 184.705 194.02 185.574 193.475 186.207C192.914 186.859 191.877 187.364 190.12 187.617Z" fill="#F8F5F5" fill-opacity="0.9" stroke="#D4E4CF"/>
<path d="M245.12 228.617C241.84 229.09 238.972 226.798 236.426 222.277C233.898 217.787 231.807 211.29 230.04 203.826C227.048 191.192 225.011 175.911 223.312 163.172C223.005 160.866 222.709 158.644 222.42 156.536C220.572 143.048 214.813 134.244 211.095 128.561C210.993 128.405 210.892 128.251 210.793 128.099C209.866 126.68 209.099 125.485 208.572 124.467C208.039 123.435 207.797 122.664 207.831 122.077C207.862 121.554 208.118 121.107 208.827 120.705C209.567 120.285 210.755 119.946 212.545 119.688C214.242 119.443 215.701 119.75 216.981 120.512C218.27 121.28 219.405 122.528 220.409 124.211C222.424 127.588 223.847 132.604 224.946 138.607C226.044 144.599 226.81 151.518 227.538 158.67C227.661 159.877 227.783 161.09 227.905 162.306C228.505 168.293 229.114 174.355 229.897 180.075C231.685 193.123 238.323 204.388 243.284 212.806C243.591 213.328 243.892 213.839 244.185 214.339C245.444 216.485 246.551 218.418 247.396 220.13C248.244 221.848 248.808 223.307 249.004 224.51C249.198 225.705 249.02 226.574 248.475 227.207C247.914 227.859 246.877 228.364 245.12 228.617Z" fill="#F8F5F5" fill-opacity="0.9" stroke="#D4E4CF"/>
<path d="M172.926 80.0763C174.612 77.2235 178.196 76.4234 183.314 77.2709C188.398 78.1127 194.772 80.5519 201.697 83.8496C213.42 89.4316 226.608 97.4152 237.602 104.071C239.591 105.275 241.509 106.436 243.333 107.532C255.005 114.54 265.476 115.565 272.234 116.227C272.42 116.245 272.603 116.263 272.783 116.281C274.47 116.447 275.882 116.598 277.006 116.825C278.144 117.056 278.897 117.35 279.333 117.744C279.722 118.096 279.909 118.575 279.778 119.38C279.642 120.219 279.163 121.359 278.243 122.915C277.37 124.391 276.217 125.337 274.822 125.857C273.416 126.38 271.732 126.483 269.79 126.212C265.897 125.667 261.095 123.635 255.727 120.731C250.369 117.834 244.495 114.097 238.464 110.184C237.446 109.525 236.425 108.86 235.4 108.193C230.357 104.911 225.25 101.588 220.301 98.616C209.01 91.8363 196.071 89.9546 186.401 88.5485C185.802 88.4614 185.215 88.376 184.642 88.2915C182.181 87.9283 179.98 87.5809 178.116 87.1669C176.246 86.7515 174.755 86.2771 173.695 85.6765C172.642 85.0799 172.076 84.3964 171.924 83.5749C171.768 82.7291 172.023 81.6043 172.926 80.0763Z" fill="#F8F5F5" fill-opacity="0.9" stroke="#D4E4CF"/>
<path d="M330.907 128.328C329.577 135.291 327.317 144.451 323.948 156.27C317.301 148.877 311.767 146.047 306.8 146.201C301.625 146.362 297.154 149.75 292.901 154.266C290.783 156.515 288.699 159.063 286.598 161.65C286.492 161.78 286.386 161.91 286.281 162.04C284.274 164.51 282.245 167.007 280.117 169.357C275.642 174.295 270.791 178.505 264.962 180.279C258.815 182.149 253.128 186.347 248.162 191.118C243.202 195.884 238.927 201.254 235.596 205.506C235.373 205.791 235.155 206.071 234.941 206.344C233.548 208.125 232.346 209.662 231.335 210.844C230.753 211.525 230.254 212.066 229.834 212.457C229.403 212.858 229.117 213.043 228.939 213.105C228.808 213.151 228.682 213.15 228.565 212.977C228.434 212.785 228.338 212.406 228.317 211.751C228.278 210.449 228.542 208.247 229.159 204.899C234.043 178.407 257.155 155.849 280.967 148.605C284.083 147.657 287.541 145.502 291.119 142.71C294.701 139.914 298.444 136.447 302.144 132.829C304.499 130.525 306.853 128.144 309.14 125.831C310.44 124.515 311.718 123.222 312.964 121.977C316.416 118.525 319.621 115.434 322.406 113.176C325.211 110.901 327.473 109.57 329.106 109.455C330.69 109.344 331.85 110.375 332.253 113.347C332.655 116.32 332.281 121.133 330.907 128.328Z" fill="#F8F5F5" fill-opacity="0.9" stroke="#D4E4CF"/>
<path d="M36.6159 94.5541L44.3929 92.8847L52.4142 90.0725L57.6548 89.4797" stroke="#E5E5E5" stroke-opacity="0.9"/>
<path d="M57.6548 89.4799L64.2399 90.495L71.4869 89.4823L78.3926 86.6517L83.6619 85.7745" stroke="#E5E5E5" stroke-opacity="0.9"/>
<line y1="-0.5" x2="21.8474" y2="-0.5" transform="matrix(0.88673 -0.462288 0.519011 0.854768 83.6328 86.0587)" stroke="#E5E5E5" stroke-opacity="0.9"/>
<path d="M102.448 75.9497L112.801 70.0047L120.476 64.2419" stroke="#E2E2E2"/>
<path d="M120.335 64.3272L123.214 58.3512L134.191 47.341" stroke="#E5E5E5" stroke-opacity="0.9"/>
<path d="M232.067 198.065L258.697 172.711" stroke="#E5E5E5" stroke-opacity="0.9"/>
<path d="M258.697 172.711L271.151 167.597L282.66 156.151" stroke="#E5E5E5" stroke-opacity="0.9"/>
<path d="M282.708 156.129L293.21 146.308L304.204 141.642" stroke="#E5E5E5" stroke-opacity="0.9"/>
<path d="M304.239 141.628L311.998 131.315L320.217 126.179" stroke="#E5E5E5" stroke-opacity="0.9"/>
<path d="M319.809 126.289L325.698 125.822L326.116 144.249" stroke="#E5E5E5" stroke-opacity="0.9"/>
<path d="M189.5 26C189.5 40.0333 176.793 51.5 161 51.5C145.207 51.5 132.5 40.0333 132.5 26C132.5 11.9667 145.207 0.5 161 0.5C176.793 0.5 189.5 11.9667 189.5 26Z" fill="#F8F5F5" fill-opacity="0.9" stroke="#ACD39E"/>
<path d="M307.543 64.2023C310.379 70.6152 310.474 75.7005 308.978 79.6405C307.479 83.5869 304.352 86.4677 300.584 88.4035C296.815 90.34 292.435 91.3128 288.505 91.4546C284.553 91.5971 281.154 90.8964 279.287 89.5903C277.296 88.1981 274.527 86.7857 271.523 85.2541L271.321 85.1509C268.224 83.5715 264.871 81.8532 261.77 79.8656C255.543 75.8749 250.5 70.9039 250.5 64C250.5 49.9667 263.207 38.5 279 38.5C287.065 38.5 291.226 38.5235 294.869 41.6304C296.706 43.1968 298.435 45.5717 300.431 49.2093C302.426 52.8445 304.667 57.7012 307.543 64.2023Z" fill="#F8F5F5" fill-opacity="0.9" stroke="#ACD39E"/>
<path d="M346.5 231C346.5 245.033 333.793 256.5 318 256.5C302.207 256.5 289.5 245.033 289.5 231C289.5 223.883 291.109 215.722 294.68 209.36C298.244 203.01 303.726 198.5 311.5 198.5C319.333 198.5 328.092 203.072 334.914 209.48C341.742 215.893 346.5 224.02 346.5 231Z" fill="#F8F5F5" fill-opacity="0.9" stroke="#ACD39E"/>
<path d="M258.5 295C258.5 309.033 245.793 320.5 230 320.5C214.207 320.5 201.5 309.033 201.5 295C201.5 280.967 214.207 269.5 230 269.5C245.793 269.5 258.5 280.967 258.5 295Z" fill="#F8F5F5" fill-opacity="0.9" stroke="#ACD39E"/>
<path d="M57.5 146C57.5 160.033 44.7929 171.5 29 171.5C13.2071 171.5 0.5 160.033 0.5 146C0.5 131.967 13.2071 120.5 29 120.5C44.7929 120.5 57.5 131.967 57.5 146Z" fill="#F8F5F5" fill-opacity="0.9" stroke="#ACD39E"/>
<path d="M131.5 228.249C131.5 238.323 125.557 253.502 116.956 266.188C112.662 272.522 107.726 278.203 102.574 282.296C97.4158 286.393 92.088 288.863 87 288.863C66.2767 288.863 49.5 272.509 49.5 252.363C49.5 232.217 66.2767 215.863 87 215.863C91.6089 215.863 96.3625 215.5 100.956 215.15C101.615 215.1 102.271 215.05 102.922 215.001C108.129 214.612 113.062 214.311 117.331 214.641C121.608 214.972 125.139 215.932 127.598 217.998C130.035 220.043 131.5 223.244 131.5 228.249Z" fill="#F8F5F5" fill-opacity="0.9" stroke="#ACD39E"/>
<path d="M180.5 25.5C180.5 34.2843 172.496 41.5 162.5 41.5C152.504 41.5 144.5 34.2843 144.5 25.5C144.5 16.7157 152.504 9.5 162.5 9.5C172.496 9.5 180.5 16.7157 180.5 25.5Z" fill="#F8F5F5" fill-opacity="0.9" stroke="#ACD39E"/>
<path d="M296 63.4048C296 64.4123 296.037 65.4351 296.072 66.4435C296.077 66.5862 296.083 66.7286 296.087 66.8706C296.127 68.0209 296.16 69.1491 296.133 70.2368C296.079 72.4205 295.785 74.3771 294.88 75.9473C293.114 79.0108 288.806 80.9077 278.069 79.4096C272.706 78.6613 268.902 77.8302 266.207 76.8714C263.512 75.9125 261.975 74.8428 261.089 73.6491C260.208 72.4617 259.92 71.0846 259.867 69.3897C259.84 68.5404 259.873 67.627 259.913 66.6271C259.916 66.5508 259.919 66.4739 259.922 66.3966C259.96 65.4665 260 64.4676 260 63.4048C260 54.6205 268.004 47.4048 278 47.4048C287.997 47.4048 296 54.6205 296 63.4048Z" fill="#F8F5F5" fill-opacity="0.9" stroke="#ACD39E"/>
<path d="M337.5 230.5C337.5 239.284 329.496 246.5 319.5 246.5C314.497 246.5 308.716 244.687 304.191 241.748C299.65 238.799 296.5 234.806 296.5 230.5C296.5 226.194 299.65 222.201 304.191 219.252C308.716 216.313 314.497 214.5 319.5 214.5C329.496 214.5 337.5 221.716 337.5 230.5Z" fill="#F8F5F5" fill-opacity="0.9" stroke="#ACD39E"/>
<path d="M249.5 294.5C249.5 303.284 241.496 310.5 231.5 310.5C221.504 310.5 213.5 303.284 213.5 294.5C213.5 285.716 221.504 278.5 231.5 278.5C241.496 278.5 249.5 285.716 249.5 294.5Z" fill="#F8F5F5" fill-opacity="0.9" stroke="#ACD39E"/>
<path d="M48.5 145.5C48.5 154.284 40.4964 161.5 30.5 161.5C20.5036 161.5 12.5 154.284 12.5 145.5C12.5 136.716 20.5036 129.5 30.5 129.5C40.4964 129.5 48.5 136.716 48.5 145.5Z" fill="#F8F5F5" fill-opacity="0.9" stroke="#ACD39E"/>
<path d="M109.595 251.456C106.333 255.973 104.028 259.705 102.201 262.758C101.875 263.301 101.566 263.822 101.27 264.32C99.8934 266.635 98.7969 268.48 97.6955 269.949C96.3696 271.717 95.0666 272.897 93.3164 273.649C91.552 274.407 89.2868 274.749 85.9999 274.749C79.5557 274.749 73.3034 271.095 68.8309 266.344C66.5994 263.974 64.8292 261.348 63.7108 258.806C62.5894 256.256 62.1406 253.829 62.4923 251.836C62.7439 250.411 62.8183 249.021 62.8884 247.715C62.9238 247.054 62.958 246.415 63.0135 245.802C63.1818 243.943 63.5442 242.206 64.6703 240.457C66.9409 236.932 72.4049 233.224 86.1554 228.724C92.9892 226.488 98.6701 225.723 103.139 226.091C107.607 226.459 110.828 227.954 112.812 230.205C116.754 234.676 116.059 242.505 109.595 251.456Z" fill="#F8F5F5" fill-opacity="0.9" stroke="#ACD39E"/>
<path d="M169.5 26C169.5 30.6693 165.496 34.5 160.5 34.5C155.504 34.5 151.5 30.6693 151.5 26C151.5 21.3307 155.504 17.5 160.5 17.5C165.496 17.5 169.5 21.3307 169.5 26Z" fill="#F8F5F5" fill-opacity="0.9" stroke="#ACD39E"/>
<path d="M290 63.9048C290 66.1974 288.762 68.3111 286.685 69.8687C284.608 71.4265 281.716 72.4048 278.5 72.4048C275.284 72.4048 272.392 71.4265 270.315 69.8687C268.238 68.3111 267 66.1974 267 63.9048C267 61.6122 268.238 59.4985 270.315 57.9408C272.392 56.3831 275.284 55.4048 278.5 55.4048C281.716 55.4048 284.608 56.3831 286.685 57.9408C288.762 59.4985 290 61.6122 290 63.9048Z" fill="#F8F5F5" fill-opacity="0.9" stroke="#ACD39E"/>
<path d="M326.5 231C326.5 235.669 322.496 239.5 317.5 239.5C312.504 239.5 308.5 235.669 308.5 231C308.5 226.331 312.504 222.5 317.5 222.5C322.496 222.5 326.5 226.331 326.5 231Z" fill="#F8F5F5" fill-opacity="0.9" stroke="#ACD39E"/>
<path d="M241 295C241 297.251 239.463 299.369 237.182 300.953C234.912 302.531 232.01 303.5 229.5 303.5C224.504 303.5 220.5 299.669 220.5 295C220.5 290.331 224.504 286.5 229.5 286.5C232.01 286.5 234.912 287.469 237.182 289.047C239.463 290.631 241 292.749 241 295Z" fill="#F8F5F5" fill-opacity="0.9" stroke="#ACD39E"/>
<path d="M40 146C40 148.251 38.4627 150.369 36.1822 151.953C33.9117 153.531 31.0097 154.5 28.5 154.5C23.5036 154.5 19.5 150.669 19.5 146C19.5 141.331 23.5036 137.5 28.5 137.5C31.0097 137.5 33.9117 138.469 36.1822 140.047C38.4627 141.631 40 143.749 40 146Z" fill="#F8F5F5" fill-opacity="0.9" stroke="#ACD39E"/>
<path d="M86.7111 265.172L86.7109 265.172L86.7096 265.172L86.7037 265.169L86.6786 265.157C86.6562 265.146 86.6223 265.13 86.5777 265.109C86.4886 265.066 86.357 265.001 86.1889 264.916C85.8525 264.745 85.3706 264.493 84.7916 264.168C83.6326 263.517 82.0902 262.578 80.5507 261.419C79.0087 260.258 77.4859 258.889 76.3525 257.385C75.2178 255.879 74.5 254.273 74.5 252.626C74.5 245.704 79.8909 240.126 86.5 240.126C87.8905 240.126 89.6238 239.855 91.3855 239.58C91.8718 239.504 92.3604 239.428 92.8444 239.357C95.131 239.021 97.328 238.8 98.9824 239.16C99.7984 239.338 100.442 239.65 100.9 240.124C101.351 240.593 101.663 241.265 101.738 242.247C101.891 244.251 101.048 247.442 98.5533 252.401C96.0606 257.356 94.0452 260.623 92.4306 262.739C90.8076 264.867 89.6241 265.785 88.811 266.117C88.4139 266.279 88.1172 266.296 87.9003 266.26C87.6829 266.224 87.5106 266.128 87.3719 266.01C87.2303 265.889 87.1267 265.746 87.0578 265.629C87.0239 265.571 87.0001 265.523 86.9855 265.491C86.9782 265.475 86.9733 265.463 86.9708 265.457L86.9689 265.452L86.9686 265.451L86.8991 265.26L86.7111 265.172L86.7111 265.172Z" fill="#F8F5F5" fill-opacity="0.9" stroke="#ACD39E"/>
</svg>
