<svg width="751" height="749" viewBox="0 0 751 749" fill="none" xmlns="http://www.w3.org/2000/svg">
<g filter="url(#filter0_d)">
<path d="M296.65 613.448C296.65 613.448 116.149 367.115 136.573 341.73C156.997 316.346 372.543 645.229 406.694 622.944C440.845 600.659 151.623 247.28 176.179 221.302C200.736 195.325 510.007 613.496 545.901 589.632C581.795 565.768 238.442 160.849 270.993 138.196C303.544 115.544 598.555 543.693 632.382 524.958C666.209 506.222 351.438 116.267 378.337 100.857C405.235 85.448 647.322 431.114 674.087 414.925C700.852 398.737 515.835 136.14 542.692 123.339C569.549 110.538 684.969 288.827 684.969 288.827" stroke="url(#paint0_linear)" stroke-width="9"/>
</g>
<path d="M684.8 279.988C680.461 283.873 689.417 283.943 689.972 288.38C690.999 292.984 687.704 293.77 685.295 293.828C681.857 293.911 679.668 289.525 680.614 282.427C682.752 277.127 682.444 279.736 684.8 279.988Z" fill="#9FF178"/>
<path d="M292.455 604.053C294.916 603.704 300.925 610.362 301.352 613.379C301.78 616.396 299.637 619.195 297.176 619.543C293.711 620.035 290.432 612.141 288.619 609.054C288.853 604.563 289.995 604.401 292.455 604.053Z" fill="#50C13D"/>
<circle cx="681.552" cy="283.551" r="2" transform="rotate(109.432 681.552 283.551)" fill="#9A5C00"/>
<path d="M666.5 263.216C665.458 262.849 664.912 261.707 665.279 260.665C665.647 259.623 666.789 259.077 667.831 259.444C668.872 259.812 669.419 260.954 669.051 261.996C668.684 263.037 667.542 263.584 666.5 263.216Z" fill="#9A5C00"/>
<path d="M644.5 232.5C643.458 232.133 642.912 230.99 643.279 229.949C643.647 228.907 644.789 228.36 645.831 228.728C646.872 229.095 647.419 230.238 647.051 231.279C646.684 232.321 645.542 232.867 644.5 232.5Z" fill="#9A5C00"/>
<path d="M620.669 197.772C619.628 197.405 619.081 196.262 619.449 195.221C619.816 194.179 620.959 193.633 622 194C623.042 194.368 623.588 195.51 623.221 196.551C622.853 197.593 621.711 198.14 620.669 197.772Z" fill="#9A5C00"/>
<path d="M601.669 177.772C600.627 177.405 600.081 176.262 600.448 175.221C600.816 174.179 601.958 173.633 603 174C604.041 174.368 604.588 175.51 604.22 176.551C603.853 177.593 602.711 178.14 601.669 177.772Z" fill="#9A5C00"/>
<path d="M585 155.5C583.958 155.133 583.412 153.99 583.779 152.949C584.147 151.907 585.289 151.36 586.331 151.728C587.372 152.095 587.919 153.238 587.551 154.279C587.184 155.321 586.042 155.867 585 155.5Z" fill="#9A5C00"/>
<path d="M560.735 134.64C559.557 134.224 558.923 132.974 559.321 131.848C559.718 130.723 560.995 130.147 562.173 130.563C563.352 130.979 563.985 132.228 563.588 133.354C563.191 134.48 561.913 135.055 560.735 134.64Z" fill="#9A5C00"/>
<path d="M547.563 155.844C546.384 155.428 545.751 154.178 546.148 153.053C546.545 151.927 547.823 151.351 549.001 151.767C550.179 152.183 550.813 153.432 550.415 154.558C550.018 155.684 548.741 156.259 547.563 155.844Z" fill="#9A5C00"/>
<path d="M576.483 214.114C575.304 213.698 574.671 212.449 575.068 211.323C575.465 210.197 576.742 209.621 577.921 210.037C579.099 210.453 579.733 211.702 579.335 212.828C578.938 213.954 577.661 214.53 576.483 214.114Z" fill="#9A5C00"/>
<path d="M597.904 248.603C596.726 248.187 596.092 246.937 596.489 245.812C596.887 244.686 598.164 244.11 599.342 244.526C600.521 244.942 601.154 246.191 600.757 247.317C600.36 248.443 599.082 249.018 597.904 248.603Z" fill="#9A5C00"/>
<path d="M622.838 296.937C621.66 296.521 621.026 295.272 621.423 294.146C621.821 293.02 623.098 292.444 624.276 292.86C625.454 293.276 626.088 294.525 625.691 295.651C625.293 296.777 624.016 297.353 622.838 296.937Z" fill="#9A5C00"/>
<path d="M654.167 349.246C652.988 348.83 652.355 347.581 652.752 346.455C653.149 345.329 654.427 344.754 655.605 345.169C656.783 345.585 657.417 346.835 657.02 347.96C656.622 349.086 655.345 349.662 654.167 349.246Z" fill="#9A5C00"/>
<path d="M670.416 386.494C669.238 386.079 668.604 384.829 669.002 383.703C669.399 382.578 670.676 382.002 671.854 382.418C673.033 382.833 673.666 384.083 673.269 385.209C672.872 386.334 671.594 386.91 670.416 386.494Z" fill="#9A5C00"/>
<path d="M674.683 405.791C673.505 405.375 672.872 404.126 673.269 403C673.666 401.874 674.943 401.299 676.122 401.714C677.3 402.13 677.933 403.38 677.536 404.505C677.139 405.631 675.862 406.207 674.683 405.791Z" fill="#9A5C00"/>
<path d="M660.888 413.503C659.71 413.087 659.076 411.837 659.473 410.712C659.871 409.586 661.148 409.01 662.326 409.426C663.505 409.842 664.138 411.091 663.741 412.217C663.344 413.343 662.066 413.918 660.888 413.503Z" fill="#9A5C00"/>
<path d="M636.393 392.828C635.214 392.412 634.581 391.163 634.978 390.037C635.375 388.911 636.653 388.336 637.831 388.751C639.009 389.167 639.643 390.417 639.245 391.542C638.848 392.668 637.571 393.244 636.393 392.828Z" fill="#9A5C00"/>
<path d="M600.749 352.749C599.571 352.333 598.938 351.084 599.335 349.958C599.732 348.832 601.009 348.256 602.187 348.672C603.366 349.088 603.999 350.337 603.602 351.463C603.205 352.589 601.928 353.165 600.749 352.749Z" fill="#9A5C00"/>
<path d="M510.696 242.477C509.518 242.061 508.884 240.811 509.282 239.686C509.679 238.56 510.956 237.984 512.134 238.4C513.313 238.816 513.946 240.065 513.549 241.191C513.152 242.317 511.874 242.892 510.696 242.477Z" fill="#9A5C00"/>
<path d="M573.994 316.378C572.815 315.963 572.182 314.713 572.579 313.587C572.976 312.462 574.254 311.886 575.432 312.302C576.61 312.717 577.244 313.967 576.847 315.093C576.449 316.218 575.172 316.794 573.994 316.378Z" fill="#9A5C00"/>
<path d="M542.426 281.748C541.248 281.332 540.614 280.083 541.011 278.957C541.409 277.831 542.686 277.256 543.864 277.671C545.043 278.087 545.676 279.337 545.279 280.463C544.882 281.588 543.604 282.164 542.426 281.748Z" fill="#9A5C00"/>
<path d="M465.661 189.916C464.482 189.5 463.849 188.251 464.246 187.125C464.643 185.999 465.92 185.424 467.099 185.839C468.277 186.255 468.911 187.505 468.513 188.63C468.116 189.756 466.839 190.332 465.661 189.916Z" fill="#9A5C00"/>
<path d="M422.747 141.542C421.569 141.126 420.935 139.877 421.332 138.751C421.73 137.625 423.007 137.05 424.185 137.465C425.364 137.881 425.997 139.131 425.6 140.256C425.203 141.382 423.925 141.958 422.747 141.542Z" fill="#9A5C00"/>
<path d="M598.616 506.71C597.438 506.294 596.805 505.045 597.202 503.919C597.599 502.793 598.876 502.218 600.054 502.633C601.233 503.049 601.866 504.299 601.469 505.425C601.072 506.55 599.795 507.126 598.616 506.71Z" fill="#9A5C00"/>
<path d="M556.955 460.603C555.777 460.187 555.143 458.937 555.541 457.812C555.938 456.686 557.215 456.11 558.393 456.526C559.572 456.942 560.205 458.191 559.808 459.317C559.411 460.443 558.133 461.018 556.955 460.603Z" fill="#9A5C00"/>
<path d="M500.742 393.106C499.563 392.69 498.93 391.441 499.327 390.315C499.724 389.189 501.002 388.613 502.18 389.029C503.358 389.445 503.992 390.694 503.594 391.82C503.197 392.946 501.92 393.522 500.742 393.106Z" fill="#9A5C00"/>
<path d="M469.551 352.306C468.373 351.89 467.74 350.64 468.137 349.515C468.534 348.389 469.811 347.813 470.989 348.229C472.168 348.645 472.801 349.894 472.404 351.02C472.007 352.146 470.73 352.721 469.551 352.306Z" fill="#9A5C00"/>
<path d="M427.704 304.308C426.526 303.892 425.893 302.643 426.29 301.517C426.687 300.391 427.964 299.815 429.143 300.231C430.321 300.647 430.954 301.897 430.557 303.022C430.16 304.148 428.883 304.724 427.704 304.308Z" fill="#9A5C00"/>
<path d="M403.79 270.086C402.612 269.67 401.978 268.42 402.375 267.295C402.772 266.169 404.05 265.593 405.228 266.009C406.406 266.425 407.04 267.674 406.643 268.8C406.245 269.926 404.968 270.501 403.79 270.086Z" fill="#9A5C00"/>
<path d="M380.685 104.356C379.506 103.94 378.873 102.69 379.27 101.565C379.667 100.439 380.945 99.8633 382.123 100.279C383.301 100.695 383.935 101.944 383.538 103.07C383.14 104.196 381.863 104.771 380.685 104.356Z" fill="#9A5C00"/>
<path d="M393.71 147.343C392.532 146.927 391.898 145.677 392.295 144.552C392.693 143.426 393.97 142.85 395.148 143.266C396.327 143.682 396.96 144.931 396.563 146.057C396.166 147.183 394.888 147.758 393.71 147.343Z" fill="#9A5C00"/>
<path d="M433.747 203.87C432.569 203.455 431.936 202.205 432.333 201.079C432.73 199.953 434.007 199.378 435.185 199.794C436.364 200.209 436.997 201.459 436.6 202.585C436.203 203.71 434.926 204.286 433.747 203.87Z" fill="#9A5C00"/>
<path d="M498.94 296.204C497.761 295.788 497.128 294.538 497.525 293.413C497.922 292.287 499.199 291.711 500.378 292.127C501.556 292.543 502.19 293.792 501.792 294.918C501.395 296.044 500.118 296.619 498.94 296.204Z" fill="#9A5C00"/>
<path d="M459.418 245.015C458.24 244.6 457.606 243.35 458.004 242.224C458.401 241.098 459.678 240.523 460.856 240.939C462.035 241.354 462.668 242.604 462.271 243.73C461.874 244.855 460.596 245.431 459.418 245.015Z" fill="#9A5C00"/>
<path d="M540.2 359.466C539.021 359.05 538.388 357.8 538.785 356.675C539.182 355.549 540.46 354.973 541.638 355.389C542.816 355.805 543.45 357.054 543.053 358.18C542.655 359.306 541.378 359.881 540.2 359.466Z" fill="#9A5C00"/>
<path d="M580.591 416.691C579.412 416.275 578.779 415.026 579.176 413.9C579.573 412.774 580.851 412.199 582.029 412.614C583.207 413.03 583.841 414.28 583.443 415.405C583.046 416.531 581.769 417.107 580.591 416.691Z" fill="#9A5C00"/>
<path d="M612.639 466.962C611.46 466.546 610.827 465.297 611.224 464.171C611.621 463.045 612.899 462.47 614.077 462.885C615.255 463.301 615.889 464.551 615.491 465.676C615.094 466.802 613.817 467.378 612.639 466.962Z" fill="#9A5C00"/>
<path d="M631.994 508.86C630.815 508.444 630.182 507.194 630.579 506.069C630.976 504.943 632.254 504.367 633.432 504.783C634.61 505.199 635.244 506.448 634.846 507.574C634.449 508.7 633.172 509.275 631.994 508.86Z" fill="#9A5C00"/>
<path d="M629.141 527.577C627.962 527.161 627.329 525.911 627.726 524.786C628.123 523.66 629.401 523.084 630.579 523.5C631.757 523.916 632.391 525.165 631.994 526.291C631.596 527.417 630.319 527.992 629.141 527.577Z" fill="#9A5C00"/>
<path d="M357.322 219.885C356.144 219.469 355.51 218.22 355.908 217.094C356.305 215.968 357.582 215.392 358.76 215.808C359.939 216.224 360.572 217.473 360.175 218.599C359.778 219.725 358.501 220.301 357.322 219.885Z" fill="#9A5C00"/>
<path d="M272.449 156.135C271.271 155.72 270.637 154.47 271.035 153.344C271.432 152.218 272.709 151.643 273.887 152.059C275.066 152.474 275.699 153.724 275.302 154.85C274.905 155.975 273.628 156.551 272.449 156.135Z" fill="#9A5C00"/>
<path d="M318.856 172.507C317.677 172.091 317.044 170.841 317.441 169.716C317.838 168.59 319.115 168.014 320.294 168.43C321.472 168.846 322.105 170.095 321.708 171.221C321.311 172.347 320.034 172.922 318.856 172.507Z" fill="#9A5C00"/>
<path d="M303.419 209.464C302.24 209.048 301.607 207.798 302.004 206.673C302.401 205.547 303.678 204.971 304.857 205.387C306.035 205.803 306.668 207.052 306.271 208.178C305.874 209.304 304.597 209.879 303.419 209.464Z" fill="#9A5C00"/>
<path d="M340.243 268.296C339.065 267.88 338.432 266.631 338.829 265.505C339.226 264.379 340.503 263.804 341.682 264.219C342.86 264.635 343.493 265.885 343.096 267.01C342.699 268.136 341.422 268.712 340.243 268.296Z" fill="#9A5C00"/>
<path d="M425.46 387.176C424.282 386.761 423.649 385.511 424.046 384.385C424.443 383.26 425.72 382.684 426.899 383.1C428.077 383.515 428.71 384.765 428.313 385.891C427.916 387.016 426.639 387.592 425.46 387.176Z" fill="#9A5C00"/>
<path d="M456.071 428.941C454.892 428.525 454.259 427.276 454.656 426.15C455.053 425.024 456.331 424.448 457.509 424.864C458.687 425.28 459.321 426.529 458.924 427.655C458.526 428.781 457.249 429.357 456.071 428.941Z" fill="#9A5C00"/>
<path d="M385.615 326.705C384.436 326.29 383.803 325.04 384.2 323.914C384.597 322.789 385.875 322.213 387.053 322.629C388.231 323.044 388.865 324.294 388.468 325.42C388.07 326.545 386.793 327.121 385.615 326.705Z" fill="#9A5C00"/>
<path d="M505.007 498.326C503.829 497.911 503.196 496.661 503.593 495.535C503.99 494.409 505.267 493.834 506.446 494.249C507.624 494.665 508.257 495.915 507.86 497.041C507.463 498.166 506.186 498.742 505.007 498.326Z" fill="#9A5C00"/>
<path d="M539.015 548.143C537.837 547.727 537.204 546.477 537.601 545.351C537.998 544.226 539.275 543.65 540.453 544.066C541.632 544.481 542.265 545.731 541.868 546.857C541.471 547.983 540.194 548.558 539.015 548.143Z" fill="#9A5C00"/>
<path d="M553.658 586.543C552.48 586.127 551.847 584.878 552.244 583.752C552.641 582.626 553.918 582.051 555.097 582.466C556.275 582.882 556.908 584.132 556.511 585.258C556.114 586.383 554.837 586.959 553.658 586.543Z" fill="#9A5C00"/>
<path d="M514.348 577.259C513.17 576.844 512.537 575.594 512.934 574.468C513.331 573.343 514.608 572.767 515.786 573.183C516.965 573.598 517.598 574.848 517.201 575.974C516.804 577.099 515.527 577.675 514.348 577.259Z" fill="#9A5C00"/>
<path d="M486.67 550.305C485.492 549.889 484.859 548.639 485.256 547.514C485.653 546.388 486.93 545.812 488.109 546.228C489.287 546.644 489.92 547.893 489.523 549.019C489.126 550.145 487.849 550.72 486.67 550.305Z" fill="#9A5C00"/>
<path d="M458.291 521.625C457.113 521.21 456.479 519.96 456.877 518.834C457.274 517.708 458.551 517.133 459.729 517.548C460.908 517.964 461.541 519.214 461.144 520.34C460.747 521.465 459.469 522.041 458.291 521.625Z" fill="#9A5C00"/>
<path d="M374.669 424.906C373.491 424.49 372.857 423.241 373.254 422.115C373.652 420.989 374.929 420.414 376.107 420.829C377.286 421.245 377.919 422.495 377.522 423.62C377.125 424.746 375.847 425.322 374.669 424.906Z" fill="#9A5C00"/>
<path d="M317.497 359.976C316.319 359.56 315.685 358.311 316.083 357.185C316.48 356.059 317.757 355.484 318.935 355.899C320.114 356.315 320.747 357.565 320.35 358.69C319.953 359.816 318.675 360.392 317.497 359.976Z" fill="#9A5C00"/>
<path d="M277.598 314.958C276.42 314.542 275.786 313.292 276.184 312.167C276.581 311.041 277.858 310.465 279.036 310.881C280.215 311.297 280.848 312.546 280.451 313.672C280.054 314.798 278.777 315.373 277.598 314.958Z" fill="#9A5C00"/>
<path d="M344.63 390.176C343.451 389.761 342.818 388.511 343.215 387.385C343.612 386.26 344.89 385.684 346.068 386.1C347.246 386.515 347.88 387.765 347.482 388.891C347.085 390.017 345.808 390.592 344.63 390.176Z" fill="#9A5C00"/>
<path d="M412.89 470.413C411.712 469.997 411.078 468.748 411.476 467.622C411.873 466.496 413.15 465.921 414.328 466.336C415.507 466.752 416.14 468.002 415.743 469.127C415.346 470.253 414.069 470.829 412.89 470.413Z" fill="#9A5C00"/>
<path d="M248.338 282.287C247.159 281.872 246.526 280.622 246.923 279.496C247.32 278.371 248.598 277.795 249.776 278.211C250.954 278.626 251.588 279.876 251.19 281.002C250.793 282.128 249.516 282.703 248.338 282.287Z" fill="#9A5C00"/>
<path d="M214.888 247.059C213.709 246.643 213.076 245.394 213.473 244.268C213.87 243.142 215.148 242.566 216.326 242.982C217.504 243.398 218.138 244.648 217.741 245.773C217.343 246.899 216.066 247.475 214.888 247.059Z" fill="#9A5C00"/>
<path d="M175.727 223.297C174.549 222.882 173.915 221.632 174.313 220.506C174.71 219.38 175.987 218.805 177.165 219.221C178.344 219.636 178.977 220.886 178.58 222.012C178.183 223.137 176.905 223.713 175.727 223.297Z" fill="#9A5C00"/>
<path d="M205.403 291.78C204.224 291.365 203.591 290.115 203.988 288.989C204.385 287.863 205.662 287.288 206.841 287.704C208.019 288.119 208.652 289.369 208.255 290.495C207.858 291.62 206.581 292.196 205.403 291.78Z" fill="#9A5C00"/>
<path d="M234.981 335.45C233.803 335.034 233.169 333.785 233.567 332.659C233.964 331.533 235.241 330.957 236.419 331.373C237.598 331.789 238.231 333.038 237.834 334.164C237.437 335.29 236.159 335.866 234.981 335.45Z" fill="#9A5C00"/>
<path d="M333.915 480.579C332.736 480.163 332.103 478.914 332.5 477.788C332.897 476.662 334.174 476.086 335.353 476.502C336.531 476.918 337.164 478.167 336.767 479.293C336.37 480.419 335.093 480.995 333.915 480.579Z" fill="#9A5C00"/>
<path d="M364.281 524.891C363.103 524.476 362.47 523.226 362.867 522.1C363.264 520.975 364.541 520.399 365.72 520.815C366.898 521.23 367.531 522.48 367.134 523.606C366.737 524.731 365.46 525.307 364.281 524.891Z" fill="#9A5C00"/>
<path d="M307.959 441.417C306.781 441.002 306.148 439.752 306.545 438.626C306.942 437.501 308.219 436.925 309.398 437.341C310.576 437.756 311.209 439.006 310.812 440.132C310.415 441.257 309.138 441.833 307.959 441.417Z" fill="#9A5C00"/>
<path d="M269.858 387.186C268.68 386.771 268.046 385.521 268.444 384.395C268.841 383.27 270.118 382.694 271.296 383.11C272.475 383.525 273.108 384.775 272.711 385.901C272.314 387.026 271.036 387.602 269.858 387.186Z" fill="#9A5C00"/>
<path d="M394.255 577.222C393.077 576.806 392.444 575.557 392.841 574.431C393.238 573.305 394.515 572.729 395.694 573.145C396.872 573.561 397.505 574.81 397.108 575.936C396.711 577.062 395.434 577.638 394.255 577.222Z" fill="#9A5C00"/>
<path d="M409.147 616.785C407.969 616.37 407.336 615.12 407.733 613.994C408.13 612.868 409.407 612.293 410.585 612.709C411.764 613.124 412.397 614.374 412 615.5C411.603 616.625 410.326 617.201 409.147 616.785Z" fill="#9A5C00"/>
<path d="M382.555 619.096C381.377 618.681 380.743 617.431 381.141 616.305C381.538 615.18 382.815 614.604 383.993 615.02C385.172 615.435 385.805 616.685 385.408 617.811C385.011 618.937 383.733 619.512 382.555 619.096Z" fill="#9A5C00"/>
<path d="M351.081 584.412C349.902 583.996 349.269 582.747 349.666 581.621C350.063 580.495 351.341 579.92 352.519 580.335C353.697 580.751 354.331 582.001 353.933 583.126C353.536 584.252 352.259 584.828 351.081 584.412Z" fill="#9A5C00"/>
<path d="M284.554 505.383C283.375 504.967 282.742 503.718 283.139 502.592C283.536 501.466 284.813 500.89 285.992 501.306C287.17 501.722 287.803 502.971 287.406 504.097C287.009 505.223 285.732 505.799 284.554 505.383Z" fill="#9A5C00"/>
<path d="M324.134 551.985C322.955 551.569 322.322 550.32 322.719 549.194C323.116 548.068 324.394 547.493 325.572 547.908C326.75 548.324 327.384 549.574 326.987 550.699C326.589 551.825 325.312 552.401 324.134 551.985Z" fill="#9A5C00"/>
<path d="M252.163 463.563C250.985 463.148 250.352 461.898 250.749 460.772C251.146 459.647 252.423 459.071 253.601 459.487C254.78 459.902 255.413 461.152 255.016 462.278C254.619 463.404 253.342 463.979 252.163 463.563Z" fill="#9A5C00"/>
<path d="M220.033 424.747C218.855 424.331 218.221 423.081 218.618 421.956C219.016 420.83 220.293 420.254 221.471 420.67C222.649 421.086 223.283 422.335 222.886 423.461C222.488 424.587 221.211 425.162 220.033 424.747Z" fill="#9A5C00"/>
<path d="M185.868 381.155C184.69 380.74 184.057 379.49 184.454 378.364C184.851 377.239 186.128 376.663 187.307 377.079C188.485 377.494 189.118 378.744 188.721 379.87C188.324 380.995 187.047 381.571 185.868 381.155Z" fill="#9A5C00"/>
<path d="M142.374 343.538C141.196 343.122 140.562 341.872 140.959 340.747C141.357 339.621 142.634 339.045 143.812 339.461C144.991 339.877 145.624 341.126 145.227 342.252C144.83 343.378 143.552 343.953 142.374 343.538Z" fill="#9A5C00"/>
<path d="M155.37 400.692C154.191 400.276 153.558 399.026 153.955 397.901C154.352 396.775 155.629 396.199 156.808 396.615C157.986 397.031 158.619 398.28 158.222 399.406C157.825 400.532 156.548 401.107 155.37 400.692Z" fill="#9A5C00"/>
<path d="M203.915 482.582C202.736 482.166 202.103 480.917 202.5 479.791C202.897 478.665 204.174 478.089 205.353 478.505C206.531 478.921 207.164 480.171 206.767 481.296C206.37 482.422 205.093 482.998 203.915 482.582Z" fill="#9A5C00"/>
<path d="M236.031 527.205C234.852 526.789 234.219 525.54 234.616 524.414C235.013 523.288 236.291 522.713 237.469 523.128C238.647 523.544 239.281 524.794 238.884 525.919C238.486 527.045 237.209 527.621 236.031 527.205Z" fill="#9A5C00"/>
<path d="M289.311 603.574C288.133 603.159 287.5 601.909 287.897 600.783C288.294 599.657 289.571 599.082 290.749 599.497C291.928 599.913 292.561 601.163 292.164 602.289C291.767 603.414 290.49 603.99 289.311 603.574Z" fill="#9A5C00"/>
<path d="M258.952 559.933C257.773 559.517 257.14 558.267 257.537 557.142C257.934 556.016 259.211 555.44 260.39 555.856C261.568 556.272 262.202 557.521 261.804 558.647C261.407 559.773 260.13 560.348 258.952 559.933Z" fill="#9A5C00"/>
<defs>
<filter id="filter0_d" x="104.331" y="76.2644" width="605.539" height="582.549" filterUnits="userSpaceOnUse" color-interpolation-filters="sRGB">
<feFlood flood-opacity="0" result="BackgroundImageFix"/>
<feColorMatrix in="SourceAlpha" type="matrix" values="0 0 0 0 0 0 0 0 0 0 0 0 0 0 0 0 0 0 127 0"/>
<feOffset dy="4"/>
<feGaussianBlur stdDeviation="2"/>
<feColorMatrix type="matrix" values="0 0 0 0 0 0 0 0 0 0 0 0 0 0 0 0 0 0 0.25 0"/>
<feBlend mode="normal" in2="BackgroundImageFix" result="effect1_dropShadow"/>
<feBlend mode="normal" in="SourceGraphic" in2="effect1_dropShadow" result="shape"/>
</filter>
<linearGradient id="paint0_linear" x1="135.808" y1="350.601" x2="735.6" y2="386.54" gradientUnits="userSpaceOnUse">
<stop stop-color="#41A802"/>
<stop offset="1" stop-color="#A5FC7C"/>
</linearGradient>
</defs>
</svg>
