<svg width="449" height="379" viewBox="0 0 449 379" fill="none" xmlns="http://www.w3.org/2000/svg">
<path d="M191.732 46.5689C234.22 61.0656 265.737 89.3217 288.436 113.955C294.035 120.03 296.37 125.268 296.626 129.567C296.879 133.828 295.1 137.326 292.108 139.997C289.096 142.686 284.859 144.522 280.311 145.347C275.766 146.172 270.992 145.971 266.944 144.671C265.008 144.049 262.716 142.617 260.06 140.484C257.419 138.364 254.492 135.61 251.286 132.421C248.867 130.015 246.284 127.354 243.556 124.544C239.095 119.949 234.247 114.955 229.095 110.021C212.479 94.1115 192.193 78.3067 169.581 76.9701C158.602 76.3212 152.135 73.1095 149.083 69.1465C146.08 65.248 146.204 60.3815 148.961 55.8659C154.503 46.7853 170.696 39.3915 191.732 46.5689Z" fill="url(#paint0_radial)" stroke="#BF1251" stroke-width="2"/>
<path d="M144.732 96.5689C187.22 111.066 218.737 139.322 241.436 163.955C247.035 170.03 249.37 175.268 249.626 179.567C249.879 183.828 248.1 187.326 245.108 189.997C242.096 192.686 237.859 194.522 233.311 195.347C228.766 196.172 223.992 195.971 219.944 194.671C218.008 194.049 215.716 192.617 213.06 190.484C210.419 188.364 207.492 185.61 204.286 182.421C201.867 180.015 199.284 177.354 196.556 174.544C192.095 169.949 187.247 164.955 182.095 160.021C165.479 144.112 145.193 128.307 122.581 126.97C111.602 126.321 105.135 123.11 102.083 119.147C99.0797 115.248 99.2042 110.382 101.961 105.866C107.503 96.7853 123.696 89.3915 144.732 96.5689Z" fill="url(#paint1_radial)" stroke="#BF1251" stroke-width="2"/>
<path d="M97.7323 146.569C140.22 161.066 171.737 189.322 194.436 213.955C200.035 220.03 202.37 225.268 202.626 229.567C202.879 233.828 201.1 237.326 198.108 239.997C195.096 242.686 190.859 244.522 186.311 245.347C181.766 246.172 176.992 245.971 172.944 244.671C171.008 244.049 168.716 242.617 166.06 240.484C163.419 238.364 160.492 235.61 157.286 232.421C154.867 230.015 152.284 227.354 149.556 224.544C145.095 219.949 140.247 214.955 135.095 210.021C118.479 194.112 98.1931 178.307 75.5811 176.97C64.6024 176.321 58.1351 173.11 55.0826 169.147C52.0797 165.248 52.2042 160.382 54.9605 155.866C60.5034 146.785 76.6961 139.391 97.7323 146.569Z" fill="url(#paint2_radial)" stroke="#BF1251" stroke-width="2"/>
<path d="M50.7323 196.569C93.2202 211.066 124.737 239.322 147.436 263.955C153.035 270.03 155.37 275.268 155.626 279.567C155.879 283.828 154.1 287.326 151.108 289.997C148.096 292.686 143.859 294.522 139.311 295.347C134.766 296.172 129.992 295.971 125.944 294.671C124.008 294.049 121.716 292.617 119.06 290.484C116.419 288.364 113.492 285.61 110.286 282.421C107.867 280.015 105.284 277.354 102.556 274.544C98.0955 269.949 93.2467 264.955 88.0949 260.021C71.4795 244.112 51.1931 228.307 28.5811 226.97C17.6024 226.321 11.1351 223.11 8.08257 219.147C5.0797 215.248 5.20416 210.382 7.96052 205.866C13.5034 196.785 29.6961 189.391 50.7323 196.569Z" fill="url(#paint3_radial)" stroke="#BF1251" stroke-width="2"/>
<path d="M167.732 240.569C210.22 255.066 241.737 283.322 264.436 307.955C270.035 314.03 272.37 319.268 272.626 323.567C272.879 327.828 271.1 331.326 268.108 333.997C265.096 336.686 260.859 338.522 256.311 339.347C251.766 340.172 246.992 339.971 242.944 338.671C241.008 338.049 238.716 336.617 236.06 334.484C233.419 332.364 230.492 329.61 227.286 326.421C224.867 324.015 222.284 321.354 219.556 318.544C215.095 313.949 210.247 308.955 205.095 304.021C188.479 288.112 168.193 272.307 145.581 270.97C134.602 270.321 128.135 267.11 125.083 263.147C122.08 259.248 122.204 254.382 124.961 249.866C130.503 240.785 146.696 233.391 167.732 240.569Z" fill="url(#paint4_radial)" stroke="#BF1251" stroke-width="2"/>
<path d="M233.732 196.569C276.22 211.066 307.737 239.322 330.436 263.955C336.035 270.03 338.37 275.268 338.626 279.567C338.879 283.828 337.1 287.326 334.108 289.997C331.096 292.686 326.859 294.522 322.311 295.347C317.766 296.172 312.992 295.971 308.944 294.671C307.008 294.049 304.716 292.617 302.06 290.484C299.419 288.364 296.492 285.61 293.286 282.421C290.867 280.015 288.284 277.354 285.556 274.544C281.095 269.949 276.247 264.955 271.095 260.021C254.479 244.112 234.193 228.307 211.581 226.97C200.602 226.321 194.135 223.11 191.083 219.147C188.08 215.248 188.204 210.382 190.961 205.866C196.503 196.785 212.696 189.391 233.732 196.569Z" fill="url(#paint5_radial)" stroke="#BF1251" stroke-width="2"/>
<path d="M286.732 146.569C329.22 161.066 360.737 189.322 383.436 213.955C389.035 220.03 391.37 225.268 391.626 229.567C391.879 233.828 390.1 237.326 387.108 239.997C384.096 242.686 379.859 244.522 375.311 245.347C370.766 246.172 365.992 245.971 361.944 244.671C360.008 244.049 357.716 242.617 355.06 240.484C352.419 238.364 349.492 235.61 346.286 232.421C343.867 230.015 341.284 227.354 338.556 224.544C334.095 219.949 329.247 214.955 324.095 210.021C307.479 194.112 287.193 178.307 264.581 176.97C253.602 176.321 247.135 173.11 244.083 169.147C241.08 165.248 241.204 160.382 243.961 155.866C249.503 146.785 265.696 139.391 286.732 146.569Z" fill="url(#paint6_radial)" stroke="#BF1251" stroke-width="2"/>
<path d="M330.732 100.569C373.22 115.066 404.737 143.322 427.436 167.955C433.035 174.03 435.37 179.268 435.626 183.567C435.879 187.828 434.1 191.326 431.108 193.997C428.096 196.686 423.859 198.522 419.311 199.347C414.766 200.172 409.992 199.971 405.944 198.671C404.008 198.049 401.716 196.617 399.06 194.484C396.419 192.364 393.492 189.61 390.286 186.421C387.867 184.015 385.284 181.354 382.556 178.544C378.095 173.949 373.247 168.955 368.095 164.021C351.479 148.112 331.193 132.307 308.581 130.97C297.602 130.321 291.135 127.11 288.083 123.147C285.08 119.248 285.204 114.382 287.961 109.866C293.503 100.785 309.696 93.3915 330.732 100.569Z" fill="url(#paint7_radial)" stroke="#BF1251" stroke-width="2"/>
<path d="M212.248 54.1852C212.405 58.4731 212.467 62.6871 213.523 67.0901C214.52 71.244 215.665 75.9725 218.369 79.8981C220.019 82.2928 222.536 84.7464 224.809 86.7192C225.815 87.592 226.802 88.6991 227.893 89.4588" stroke="#FFF5E9" stroke-width="3" stroke-linecap="round" stroke-linejoin="round"/>
<path d="M165.248 104.185C165.405 108.473 165.467 112.687 166.523 117.09C167.52 121.244 168.665 125.972 171.369 129.898C173.019 132.293 175.536 134.746 177.809 136.719C178.815 137.592 179.802 138.699 180.893 139.459" stroke="#FFF5E9" stroke-width="3" stroke-linecap="round" stroke-linejoin="round"/>
<path d="M118.248 154.185C118.405 158.473 118.467 162.687 119.523 167.09C120.52 171.244 121.665 175.972 124.369 179.898C126.019 182.293 128.536 184.746 130.809 186.719C131.815 187.592 132.802 188.699 133.893 189.459" stroke="#FFF5E9" stroke-width="3" stroke-linecap="round" stroke-linejoin="round"/>
<path d="M71.2476 204.185C71.4045 208.473 71.4667 212.687 72.5234 217.09C73.5205 221.244 74.6648 225.972 77.3693 229.898C79.019 232.293 81.5359 234.746 83.8093 236.719C84.8151 237.592 85.8024 238.699 86.8928 239.459" stroke="#FFF5E9" stroke-width="3" stroke-linecap="round" stroke-linejoin="round"/>
<path d="M188.248 248.185C188.405 252.473 188.467 256.687 189.523 261.09C190.52 265.244 191.665 269.972 194.369 273.898C196.019 276.293 198.536 278.746 200.809 280.719C201.815 281.592 202.802 282.699 203.893 283.459" stroke="#FFF5E9" stroke-width="3" stroke-linecap="round" stroke-linejoin="round"/>
<path d="M254.248 204.185C254.405 208.473 254.467 212.687 255.523 217.09C256.52 221.244 257.665 225.972 260.369 229.898C262.019 232.293 264.536 234.746 266.809 236.719C267.815 237.592 268.802 238.699 269.893 239.459" stroke="#FFF5E9" stroke-width="3" stroke-linecap="round" stroke-linejoin="round"/>
<path d="M307.248 154.185C307.405 158.473 307.467 162.687 308.523 167.09C309.52 171.244 310.665 175.972 313.369 179.898C315.019 182.293 317.536 184.746 319.809 186.719C320.815 187.592 321.802 188.699 322.893 189.459" stroke="#FFF5E9" stroke-width="3" stroke-linecap="round" stroke-linejoin="round"/>
<path d="M351.248 108.185C351.405 112.473 351.467 116.687 352.523 121.09C353.52 125.244 354.665 129.972 357.369 133.898C359.019 136.293 361.536 138.746 363.809 140.719C364.815 141.592 365.802 142.699 366.893 143.459" stroke="#FFF5E9" stroke-width="3" stroke-linecap="round" stroke-linejoin="round"/>
<path d="M194.371 46.6067C192.115 50.1408 191.908 55.8226 193.895 60.364C196.417 66.1252 200.87 70.4164 205.318 75.1414C209.477 79.5584 213.793 83.2926 218.793 86.7758" stroke="#FFF5E9" stroke-width="3" stroke-linecap="round" stroke-linejoin="round"/>
<path d="M147.371 96.6067C145.115 100.141 144.908 105.823 146.895 110.364C149.417 116.125 153.87 120.416 158.318 125.141C162.477 129.558 166.793 133.293 171.793 136.776" stroke="#FFF5E9" stroke-width="3" stroke-linecap="round" stroke-linejoin="round"/>
<path d="M100.371 146.607C98.1148 150.141 97.9076 155.823 99.8953 160.364C102.417 166.125 106.87 170.416 111.318 175.141C115.477 179.558 119.793 183.293 124.793 186.776" stroke="#FFF5E9" stroke-width="3" stroke-linecap="round" stroke-linejoin="round"/>
<path d="M53.3711 196.607C51.1148 200.141 50.9076 205.823 52.8953 210.364C55.4167 216.125 59.8701 220.416 64.3184 225.141C68.4767 229.558 72.7932 233.293 77.7933 236.776" stroke="#FFF5E9" stroke-width="3" stroke-linecap="round" stroke-linejoin="round"/>
<path d="M170.371 240.607C168.115 244.141 167.908 249.823 169.895 254.364C172.417 260.125 176.87 264.416 181.318 269.141C185.477 273.558 189.793 277.293 194.793 280.776" stroke="#FFF5E9" stroke-width="3" stroke-linecap="round" stroke-linejoin="round"/>
<path d="M236.371 196.607C234.115 200.141 233.908 205.823 235.895 210.364C238.417 216.125 242.87 220.416 247.318 225.141C251.477 229.558 255.793 233.293 260.793 236.776" stroke="#FFF5E9" stroke-width="3" stroke-linecap="round" stroke-linejoin="round"/>
<path d="M289.371 146.607C287.115 150.141 286.908 155.823 288.895 160.364C291.417 166.125 295.87 170.416 300.318 175.141C304.477 179.558 308.793 183.293 313.793 186.776" stroke="#FFF5E9" stroke-width="3" stroke-linecap="round" stroke-linejoin="round"/>
<path d="M333.371 100.607C331.115 104.141 330.908 109.823 332.895 114.364C335.417 120.125 339.87 124.416 344.318 129.141C348.477 133.558 352.793 137.293 357.793 140.776" stroke="#FFF5E9" stroke-width="3" stroke-linecap="round" stroke-linejoin="round"/>
<path d="M170.853 43.6288C169.838 47.3155 174.477 52.3826 177.419 55.4049C182.039 60.1508 186.976 64.6133 191.826 69.1647C194.823 71.9774 197.788 74.5802 201.178 76.9418C203.113 78.2899 205.048 79.6379 206.983 80.986" stroke="#FFF5E9" stroke-width="3" stroke-linecap="round" stroke-linejoin="round"/>
<path d="M123.853 93.6288C122.838 97.3155 127.477 102.383 130.419 105.405C135.039 110.151 139.976 114.613 144.826 119.165C147.823 121.977 150.788 124.58 154.178 126.942C156.113 128.29 158.048 129.638 159.983 130.986" stroke="#FFF5E9" stroke-width="3" stroke-linecap="round" stroke-linejoin="round"/>
<path d="M76.8525 143.629C75.8384 147.316 80.4772 152.383 83.4192 155.405C88.039 160.151 92.9755 164.613 97.8255 169.165C100.823 171.977 103.788 174.58 107.178 176.942C109.113 178.29 111.048 179.638 112.983 180.986" stroke="#FFF5E9" stroke-width="3" stroke-linecap="round" stroke-linejoin="round"/>
<path d="M29.8525 193.629C28.8384 197.316 33.4772 202.383 36.4192 205.405C41.039 210.151 45.9755 214.613 50.8255 219.165C53.8227 221.977 56.7881 224.58 60.178 226.942C62.1132 228.29 64.0483 229.638 65.9834 230.986" stroke="#FFF5E9" stroke-width="3" stroke-linecap="round" stroke-linejoin="round"/>
<path d="M146.853 237.629C145.838 241.316 150.477 246.383 153.419 249.405C158.039 254.151 162.976 258.613 167.826 263.165C170.823 265.977 173.788 268.58 177.178 270.942C179.113 272.29 181.048 273.638 182.983 274.986" stroke="#FFF5E9" stroke-width="3" stroke-linecap="round" stroke-linejoin="round"/>
<path d="M212.853 193.629C211.838 197.316 216.477 202.383 219.419 205.405C224.039 210.151 228.976 214.613 233.826 219.165C236.823 221.977 239.788 224.58 243.178 226.942C245.113 228.29 247.048 229.638 248.983 230.986" stroke="#FFF5E9" stroke-width="3" stroke-linecap="round" stroke-linejoin="round"/>
<path d="M265.853 143.629C264.838 147.316 269.477 152.383 272.419 155.405C277.039 160.151 281.976 164.613 286.826 169.165C289.823 171.977 292.788 174.58 296.178 176.942C298.113 178.29 300.048 179.638 301.983 180.986" stroke="#FFF5E9" stroke-width="3" stroke-linecap="round" stroke-linejoin="round"/>
<path d="M309.853 97.6288C308.838 101.316 313.477 106.383 316.419 109.405C321.039 114.151 325.976 118.613 330.826 123.165C333.823 125.977 336.788 128.58 340.178 130.942C342.113 132.29 344.048 133.638 345.983 134.986" stroke="#FFF5E9" stroke-width="3" stroke-linecap="round" stroke-linejoin="round"/>
<path d="M151.036 54.5808C152.695 57.8905 155.268 59.4989 158.401 61.6816C161.34 63.7294 164.28 65.7772 167.22 67.8251C172.606 71.5773 177.979 75.966 184.19 78.0208C189.362 79.7322 194.883 81.7692 200.096 82.6285C202.335 82.9975 203.722 82.7612 205.84 82.627" stroke="#FFF5E9" stroke-width="3" stroke-linecap="round" stroke-linejoin="round"/>
<path d="M104.036 104.581C105.695 107.891 108.268 109.499 111.401 111.682C114.34 113.729 117.28 115.777 120.22 117.825C125.606 121.577 130.979 125.966 137.19 128.021C142.362 129.732 147.883 131.769 153.096 132.629C155.335 132.998 156.722 132.761 158.84 132.627" stroke="#FFF5E9" stroke-width="3" stroke-linecap="round" stroke-linejoin="round"/>
<path d="M57.0358 154.581C58.695 157.891 61.2676 159.499 64.4009 161.682C67.3404 163.729 70.28 165.777 73.2196 167.825C78.6059 171.577 83.9788 175.966 90.1897 178.021C95.3624 179.732 100.883 181.769 106.096 182.629C108.335 182.998 109.722 182.761 111.84 182.627" stroke="#FFF5E9" stroke-width="3" stroke-linecap="round" stroke-linejoin="round"/>
<path d="M10.0358 204.581C11.695 207.891 14.2676 209.499 17.4009 211.682C20.3404 213.729 23.28 215.777 26.2196 217.825C31.6059 221.577 36.9788 225.966 43.1897 228.021C48.3624 229.732 53.883 231.769 59.0964 232.629C61.3349 232.998 62.7223 232.761 64.8403 232.627" stroke="#FFF5E9" stroke-width="3" stroke-linecap="round" stroke-linejoin="round"/>
<path d="M127.036 248.581C128.695 251.891 131.268 253.499 134.401 255.682C137.34 257.729 140.28 259.777 143.22 261.825C148.606 265.577 153.979 269.966 160.19 272.021C165.362 273.732 170.883 275.769 176.096 276.629C178.335 276.998 179.722 276.761 181.84 276.627" stroke="#FFF5E9" stroke-width="3" stroke-linecap="round" stroke-linejoin="round"/>
<path d="M193.036 204.581C194.695 207.891 197.268 209.499 200.401 211.682C203.34 213.729 206.28 215.777 209.22 217.825C214.606 221.577 219.979 225.966 226.19 228.021C231.362 229.732 236.883 231.769 242.096 232.629C244.335 232.998 245.722 232.761 247.84 232.627" stroke="#FFF5E9" stroke-width="3" stroke-linecap="round" stroke-linejoin="round"/>
<path d="M246.036 154.581C247.695 157.891 250.268 159.499 253.401 161.682C256.34 163.729 259.28 165.777 262.22 167.825C267.606 171.577 272.979 175.966 279.19 178.021C284.362 179.732 289.883 181.769 295.096 182.629C297.335 182.998 298.722 182.761 300.84 182.627" stroke="#FFF5E9" stroke-width="3" stroke-linecap="round" stroke-linejoin="round"/>
<path d="M290.036 108.581C291.695 111.891 294.268 113.499 297.401 115.682C300.34 117.729 303.28 119.777 306.22 121.825C311.606 125.577 316.979 129.966 323.19 132.021C328.362 133.732 333.883 135.769 339.096 136.629C341.335 136.998 342.722 136.761 344.84 136.627" stroke="#FFF5E9" stroke-width="3" stroke-linecap="round" stroke-linejoin="round"/>
<path d="M232.045 92.2464C236.513 95.359 241.106 99.252 246.269 100.664C248.243 101.204 249.818 101.092 251.72 101.237C253.335 101.36 254.933 101.559 256.466 101.393C258.042 101.222 259.431 100.94 260.848 100.468C261.865 100.129 262.916 99.8453 263.904 99.4627C264.741 99.1389 265.852 98.2324 266.854 98.2025C267.831 98.1734 268.263 97.9883 268.79 97.2308" stroke="#FFF5E9" stroke-width="3" stroke-linecap="round" stroke-linejoin="round"/>
<path d="M185.045 142.246C189.513 145.359 194.106 149.252 199.269 150.664C201.243 151.204 202.818 151.092 204.72 151.237C206.335 151.36 207.933 151.559 209.466 151.393C211.042 151.222 212.431 150.94 213.848 150.468C214.865 150.129 215.916 149.845 216.904 149.463C217.741 149.139 218.852 148.232 219.854 148.203C220.831 148.173 221.263 147.988 221.79 147.231" stroke="#FFF5E9" stroke-width="3" stroke-linecap="round" stroke-linejoin="round"/>
<path d="M138.045 192.246C142.513 195.359 147.106 199.252 152.269 200.664C154.243 201.204 155.818 201.092 157.72 201.237C159.335 201.36 160.933 201.559 162.466 201.393C164.042 201.222 165.431 200.94 166.848 200.468C167.865 200.129 168.916 199.845 169.904 199.463C170.741 199.139 171.852 198.232 172.854 198.203C173.831 198.173 174.263 197.988 174.79 197.231" stroke="#FFF5E9" stroke-width="3" stroke-linecap="round" stroke-linejoin="round"/>
<path d="M91.0446 242.246C95.5127 245.359 100.106 249.252 105.269 250.664C107.243 251.204 108.818 251.092 110.72 251.237C112.335 251.36 113.933 251.559 115.466 251.393C117.042 251.222 118.431 250.94 119.848 250.468C120.865 250.129 121.916 249.845 122.904 249.463C123.741 249.139 124.852 248.232 125.854 248.203C126.831 248.173 127.263 247.988 127.79 247.231" stroke="#FFF5E9" stroke-width="3" stroke-linecap="round" stroke-linejoin="round"/>
<path d="M208.045 286.246C212.513 289.359 217.106 293.252 222.269 294.664C224.243 295.204 225.818 295.092 227.72 295.237C229.335 295.36 230.933 295.559 232.466 295.393C234.042 295.222 235.431 294.94 236.848 294.468C237.865 294.129 238.916 293.845 239.904 293.463C240.741 293.139 241.852 292.232 242.854 292.203C243.831 292.173 244.263 291.988 244.79 291.231" stroke="#FFF5E9" stroke-width="3" stroke-linecap="round" stroke-linejoin="round"/>
<path d="M274.045 242.246C278.513 245.359 283.106 249.252 288.269 250.664C290.243 251.204 291.818 251.092 293.72 251.237C295.335 251.36 296.933 251.559 298.466 251.393C300.042 251.222 301.431 250.94 302.848 250.468C303.865 250.129 304.916 249.845 305.904 249.463C306.741 249.139 307.852 248.232 308.854 248.203C309.831 248.173 310.263 247.988 310.79 247.231" stroke="#FFF5E9" stroke-width="3" stroke-linecap="round" stroke-linejoin="round"/>
<path d="M327.045 192.246C331.513 195.359 336.106 199.252 341.269 200.664C343.243 201.204 344.818 201.092 346.72 201.237C348.335 201.36 349.933 201.559 351.466 201.393C353.042 201.222 354.431 200.94 355.848 200.468C356.865 200.129 357.916 199.845 358.904 199.463C359.741 199.139 360.852 198.232 361.854 198.203C362.831 198.173 363.263 197.988 363.79 197.231" stroke="#FFF5E9" stroke-width="3" stroke-linecap="round" stroke-linejoin="round"/>
<path d="M371.045 146.246C375.513 149.359 380.106 153.252 385.269 154.664C387.243 155.204 388.818 155.092 390.72 155.237C392.335 155.36 393.933 155.559 395.466 155.393C397.042 155.222 398.431 154.94 399.848 154.468C400.865 154.129 401.916 153.845 402.904 153.463C403.741 153.139 404.852 152.232 405.854 152.203C406.831 152.173 407.263 151.988 407.79 151.231" stroke="#FFF5E9" stroke-width="3" stroke-linecap="round" stroke-linejoin="round"/>
<path d="M232.934 96.2171C236.139 100.06 239.672 103.733 243.878 106.663C247.341 109.076 250.781 111.529 254.27 113.903C257.238 115.922 260.056 116.8 263.349 117.546C265.588 118.053 267.289 117.808 269.393 117.664C274.305 117.329 279.192 116.499 283.412 114.729" stroke="#FFF5E9" stroke-width="3" stroke-linecap="round" stroke-linejoin="round"/>
<path d="M185.934 146.217C189.139 150.06 192.672 153.733 196.878 156.663C200.341 159.076 203.781 161.529 207.27 163.903C210.238 165.922 213.056 166.8 216.349 167.546C218.588 168.053 220.289 167.808 222.393 167.664C227.305 167.329 232.192 166.499 236.412 164.729" stroke="#FFF5E9" stroke-width="3" stroke-linecap="round" stroke-linejoin="round"/>
<path d="M138.934 196.217C142.139 200.06 145.672 203.733 149.878 206.663C153.341 209.076 156.781 211.529 160.27 213.903C163.238 215.922 166.056 216.8 169.349 217.546C171.588 218.053 173.289 217.808 175.393 217.664C180.305 217.329 185.192 216.499 189.412 214.729" stroke="#FFF5E9" stroke-width="3" stroke-linecap="round" stroke-linejoin="round"/>
<path d="M91.9345 246.217C95.1391 250.06 98.6717 253.733 102.878 256.663C106.341 259.076 109.781 261.529 113.27 263.903C116.238 265.922 119.056 266.8 122.349 267.546C124.588 268.053 126.289 267.808 128.393 267.664C133.305 267.329 138.192 266.499 142.412 264.729" stroke="#FFF5E9" stroke-width="3" stroke-linecap="round" stroke-linejoin="round"/>
<path d="M208.934 290.217C212.139 294.06 215.672 297.733 219.878 300.663C223.341 303.076 226.781 305.529 230.27 307.903C233.238 309.922 236.056 310.8 239.349 311.546C241.588 312.053 243.289 311.808 245.393 311.664C250.305 311.329 255.192 310.499 259.412 308.729" stroke="#FFF5E9" stroke-width="3" stroke-linecap="round" stroke-linejoin="round"/>
<path d="M274.934 246.217C278.139 250.06 281.672 253.733 285.878 256.663C289.341 259.076 292.781 261.529 296.27 263.903C299.238 265.922 302.056 266.8 305.349 267.546C307.588 268.053 309.289 267.808 311.393 267.664C316.305 267.329 321.192 266.499 325.412 264.729" stroke="#FFF5E9" stroke-width="3" stroke-linecap="round" stroke-linejoin="round"/>
<path d="M327.934 196.217C331.139 200.06 334.672 203.733 338.878 206.663C342.341 209.076 345.781 211.529 349.27 213.903C352.238 215.922 355.056 216.8 358.349 217.546C360.588 218.053 362.289 217.808 364.393 217.664C369.305 217.329 374.192 216.499 378.412 214.729" stroke="#FFF5E9" stroke-width="3" stroke-linecap="round" stroke-linejoin="round"/>
<path d="M371.934 150.217C375.139 154.06 378.672 157.733 382.878 160.663C386.341 163.076 389.781 165.529 393.27 167.903C396.238 169.922 399.056 170.8 402.349 171.546C404.588 172.053 406.289 171.808 408.393 171.664C413.305 171.329 418.192 170.499 422.412 168.729" stroke="#FFF5E9" stroke-width="3" stroke-linecap="round" stroke-linejoin="round"/>
<path d="M235.336 103.268C240.145 110.167 247.597 115.306 254.647 120.218C260.042 123.976 265.235 128.136 271.359 130.38C275.301 131.825 279.122 131.988 283.065 133.08C284.577 133.499 286.092 133.747 287.469 133.399" stroke="#FFF5E9" stroke-width="3" stroke-linecap="round" stroke-linejoin="round"/>
<path d="M188.336 153.268C193.145 160.167 200.597 165.306 207.647 170.218C213.042 173.976 218.235 178.136 224.359 180.38C228.301 181.825 232.122 181.988 236.065 183.08C237.577 183.499 239.092 183.747 240.469 183.399" stroke="#FFF5E9" stroke-width="3" stroke-linecap="round" stroke-linejoin="round"/>
<path d="M141.336 203.268C146.145 210.167 153.597 215.306 160.647 220.218C166.042 223.976 171.235 228.136 177.359 230.38C181.301 231.825 185.122 231.988 189.065 233.08C190.577 233.499 192.092 233.747 193.469 233.399" stroke="#FFF5E9" stroke-width="3" stroke-linecap="round" stroke-linejoin="round"/>
<path d="M94.3356 253.268C99.1452 260.167 106.597 265.306 113.647 270.218C119.042 273.976 124.235 278.136 130.359 280.38C134.301 281.825 138.122 281.988 142.065 283.08C143.577 283.499 145.092 283.747 146.469 283.399" stroke="#FFF5E9" stroke-width="3" stroke-linecap="round" stroke-linejoin="round"/>
<path d="M211.336 297.268C216.145 304.167 223.597 309.306 230.647 314.218C236.042 317.976 241.235 322.136 247.359 324.38C251.301 325.825 255.122 325.988 259.065 327.08C260.577 327.499 262.092 327.747 263.469 327.399" stroke="#FFF5E9" stroke-width="3" stroke-linecap="round" stroke-linejoin="round"/>
<path d="M277.336 253.268C282.145 260.167 289.597 265.306 296.647 270.218C302.042 273.976 307.235 278.136 313.359 280.38C317.301 281.825 321.122 281.988 325.065 283.08C326.577 283.499 328.092 283.747 329.469 283.399" stroke="#FFF5E9" stroke-width="3" stroke-linecap="round" stroke-linejoin="round"/>
<path d="M330.336 203.268C335.145 210.167 342.597 215.306 349.647 220.218C355.042 223.976 360.235 228.136 366.359 230.38C370.301 231.825 374.122 231.988 378.065 233.08C379.577 233.499 381.092 233.747 382.469 233.399" stroke="#FFF5E9" stroke-width="3" stroke-linecap="round" stroke-linejoin="round"/>
<path d="M374.336 157.268C379.145 164.167 386.597 169.306 393.647 174.218C399.042 177.976 404.235 182.136 410.359 184.38C414.301 185.825 418.122 185.988 422.065 187.08C423.577 187.499 425.092 187.747 426.469 187.399" stroke="#FFF5E9" stroke-width="3" stroke-linecap="round" stroke-linejoin="round"/>
<path d="M205.892 82.5524C207.315 83.3263 208.801 84.0275 210.312 84.4658C211.24 84.7349 212.24 85.2196 213.068 85.7753C213.753 86.2347 214.75 86.3897 215.494 86.6878C216.304 87.0124 217.132 87.2774 217.949 87.5102C218.318 87.6153 218.774 87.7621 219.138 87.9005C219.563 88.0619 219.995 88.0361 220.402 88.2193C220.678 88.3436 221.321 88.3664 221.604 88.3662C222.135 88.3658 222.673 88.4725 223.221 88.5427C224.034 88.6468 224.887 89.0129 225.719 89.0923C226.186 89.1369 227.249 89.4368 227.687 89.742C228.023 89.9755 228.738 90.443 229.129 90.4997C229.778 90.5937 230.797 91.5723 231.275 92.0133C231.551 92.2666 231.724 92.4716 231.938 92.7708C232.843 94.0382 232.419 95.1963 232.869 96.4172C233.108 97.065 232.957 97.765 233.283 98.4143C233.556 98.956 233.459 99.655 233.807 100.161C234.057 100.525 234.217 101.352 234.555 101.632C235.019 102.016 235.024 102.798 235.379 103.205" stroke="white" stroke-width="3" stroke-linecap="round" stroke-linejoin="round"/>
<path d="M158.892 132.552C160.315 133.326 161.801 134.027 163.312 134.466C164.24 134.735 165.24 135.22 166.068 135.775C166.753 136.235 167.75 136.39 168.494 136.688C169.304 137.012 170.132 137.277 170.949 137.51C171.318 137.615 171.774 137.762 172.138 137.9C172.563 138.062 172.995 138.036 173.402 138.219C173.678 138.344 174.321 138.366 174.604 138.366C175.135 138.366 175.673 138.473 176.221 138.543C177.034 138.647 177.887 139.013 178.719 139.092C179.186 139.137 180.249 139.437 180.687 139.742C181.023 139.975 181.738 140.443 182.129 140.5C182.778 140.594 183.797 141.572 184.275 142.013C184.551 142.267 184.724 142.472 184.938 142.771C185.843 144.038 185.419 145.196 185.869 146.417C186.108 147.065 185.957 147.765 186.283 148.414C186.556 148.956 186.459 149.655 186.807 150.161C187.057 150.525 187.217 151.352 187.555 151.632C188.019 152.016 188.024 152.798 188.379 153.205" stroke="white" stroke-width="3" stroke-linecap="round" stroke-linejoin="round"/>
<path d="M111.892 182.552C113.315 183.326 114.801 184.027 116.312 184.466C117.24 184.735 118.24 185.22 119.068 185.775C119.753 186.235 120.75 186.39 121.494 186.688C122.304 187.012 123.132 187.277 123.949 187.51C124.318 187.615 124.774 187.762 125.138 187.9C125.563 188.062 125.995 188.036 126.402 188.219C126.678 188.344 127.321 188.366 127.604 188.366C128.135 188.366 128.673 188.473 129.221 188.543C130.034 188.647 130.887 189.013 131.719 189.092C132.186 189.137 133.249 189.437 133.687 189.742C134.023 189.975 134.738 190.443 135.129 190.5C135.778 190.594 136.797 191.572 137.275 192.013C137.551 192.267 137.724 192.472 137.938 192.771C138.843 194.038 138.419 195.196 138.869 196.417C139.108 197.065 138.957 197.765 139.283 198.414C139.556 198.956 139.459 199.655 139.807 200.161C140.057 200.525 140.217 201.352 140.555 201.632C141.019 202.016 141.024 202.798 141.379 203.205" stroke="white" stroke-width="3" stroke-linecap="round" stroke-linejoin="round"/>
<path d="M64.8921 232.552C66.3155 233.326 67.8012 234.027 69.3122 234.466C70.2399 234.735 71.2403 235.22 72.0685 235.775C72.7532 236.235 73.7502 236.39 74.494 236.688C75.3039 237.012 76.1323 237.277 76.9495 237.51C77.3184 237.615 77.7741 237.762 78.1384 237.9C78.5633 238.062 78.9945 238.036 79.4017 238.219C79.6781 238.344 80.3215 238.366 80.6043 238.366C81.1352 238.366 81.6734 238.473 82.2212 238.543C83.0338 238.647 83.8872 239.013 84.719 239.092C85.1859 239.137 86.2493 239.437 86.6874 239.742C87.0226 239.975 87.7383 240.443 88.1293 240.5C88.7775 240.594 89.7966 241.572 90.2755 242.013C90.5505 242.267 90.7241 242.472 90.9378 242.771C91.8433 244.038 91.4193 245.196 91.8691 246.417C92.1078 247.065 91.9565 247.765 92.2834 248.414C92.556 248.956 92.4588 249.655 92.8068 250.161C93.0573 250.525 93.217 251.352 93.5548 251.632C94.0188 252.016 94.0242 252.798 94.3791 253.205" stroke="white" stroke-width="3" stroke-linecap="round" stroke-linejoin="round"/>
<path d="M181.892 276.552C183.315 277.326 184.801 278.027 186.312 278.466C187.24 278.735 188.24 279.22 189.068 279.775C189.753 280.235 190.75 280.39 191.494 280.688C192.304 281.012 193.132 281.277 193.949 281.51C194.318 281.615 194.774 281.762 195.138 281.9C195.563 282.062 195.995 282.036 196.402 282.219C196.678 282.344 197.321 282.366 197.604 282.366C198.135 282.366 198.673 282.473 199.221 282.543C200.034 282.647 200.887 283.013 201.719 283.092C202.186 283.137 203.249 283.437 203.687 283.742C204.023 283.975 204.738 284.443 205.129 284.5C205.778 284.594 206.797 285.572 207.275 286.013C207.551 286.267 207.724 286.472 207.938 286.771C208.843 288.038 208.419 289.196 208.869 290.417C209.108 291.065 208.957 291.765 209.283 292.414C209.556 292.956 209.459 293.655 209.807 294.161C210.057 294.525 210.217 295.352 210.555 295.632C211.019 296.016 211.024 296.798 211.379 297.205" stroke="white" stroke-width="3" stroke-linecap="round" stroke-linejoin="round"/>
<path d="M247.892 232.552C249.315 233.326 250.801 234.027 252.312 234.466C253.24 234.735 254.24 235.22 255.068 235.775C255.753 236.235 256.75 236.39 257.494 236.688C258.304 237.012 259.132 237.277 259.949 237.51C260.318 237.615 260.774 237.762 261.138 237.9C261.563 238.062 261.995 238.036 262.402 238.219C262.678 238.344 263.321 238.366 263.604 238.366C264.135 238.366 264.673 238.473 265.221 238.543C266.034 238.647 266.887 239.013 267.719 239.092C268.186 239.137 269.249 239.437 269.687 239.742C270.023 239.975 270.738 240.443 271.129 240.5C271.778 240.594 272.797 241.572 273.275 242.013C273.551 242.267 273.724 242.472 273.938 242.771C274.843 244.038 274.419 245.196 274.869 246.417C275.108 247.065 274.957 247.765 275.283 248.414C275.556 248.956 275.459 249.655 275.807 250.161C276.057 250.525 276.217 251.352 276.555 251.632C277.019 252.016 277.024 252.798 277.379 253.205" stroke="white" stroke-width="3" stroke-linecap="round" stroke-linejoin="round"/>
<path d="M300.892 182.552C302.315 183.326 303.801 184.027 305.312 184.466C306.24 184.735 307.24 185.22 308.068 185.775C308.753 186.235 309.75 186.39 310.494 186.688C311.304 187.012 312.132 187.277 312.949 187.51C313.318 187.615 313.774 187.762 314.138 187.9C314.563 188.062 314.995 188.036 315.402 188.219C315.678 188.344 316.321 188.366 316.604 188.366C317.135 188.366 317.673 188.473 318.221 188.543C319.034 188.647 319.887 189.013 320.719 189.092C321.186 189.137 322.249 189.437 322.687 189.742C323.023 189.975 323.738 190.443 324.129 190.5C324.778 190.594 325.797 191.572 326.275 192.013C326.551 192.267 326.724 192.472 326.938 192.771C327.843 194.038 327.419 195.196 327.869 196.417C328.108 197.065 327.957 197.765 328.283 198.414C328.556 198.956 328.459 199.655 328.807 200.161C329.057 200.525 329.217 201.352 329.555 201.632C330.019 202.016 330.024 202.798 330.379 203.205" stroke="white" stroke-width="3" stroke-linecap="round" stroke-linejoin="round"/>
<path d="M344.892 136.552C346.315 137.326 347.801 138.027 349.312 138.466C350.24 138.735 351.24 139.22 352.068 139.775C352.753 140.235 353.75 140.39 354.494 140.688C355.304 141.012 356.132 141.277 356.949 141.51C357.318 141.615 357.774 141.762 358.138 141.9C358.563 142.062 358.995 142.036 359.402 142.219C359.678 142.344 360.321 142.366 360.604 142.366C361.135 142.366 361.673 142.473 362.221 142.543C363.034 142.647 363.887 143.013 364.719 143.092C365.186 143.137 366.249 143.437 366.687 143.742C367.023 143.975 367.738 144.443 368.129 144.5C368.778 144.594 369.797 145.572 370.275 146.013C370.551 146.267 370.724 146.472 370.938 146.771C371.843 148.038 371.419 149.196 371.869 150.417C372.108 151.065 371.957 151.765 372.283 152.414C372.556 152.956 372.459 153.655 372.807 154.161C373.057 154.525 373.217 155.352 373.555 155.632C374.019 156.016 374.024 156.798 374.379 157.205" stroke="white" stroke-width="3" stroke-linecap="round" stroke-linejoin="round"/>
<defs>
<radialGradient id="paint0_radial" cx="0" cy="0" r="1" gradientUnits="userSpaceOnUse" gradientTransform="translate(225.072 91.7589) rotate(124.862) scale(26.5 103.184)">
<stop offset="0.260417" stop-color="#F8D0BA"/>
<stop offset="1" stop-color="#F89863"/>
</radialGradient>
<radialGradient id="paint1_radial" cx="0" cy="0" r="1" gradientUnits="userSpaceOnUse" gradientTransform="translate(178.072 141.759) rotate(124.862) scale(26.5 103.184)">
<stop offset="0.260417" stop-color="#F8D0BA"/>
<stop offset="1" stop-color="#F89863"/>
</radialGradient>
<radialGradient id="paint2_radial" cx="0" cy="0" r="1" gradientUnits="userSpaceOnUse" gradientTransform="translate(131.072 191.759) rotate(124.862) scale(26.5 103.184)">
<stop offset="0.260417" stop-color="#F8D0BA"/>
<stop offset="1" stop-color="#F89863"/>
</radialGradient>
<radialGradient id="paint3_radial" cx="0" cy="0" r="1" gradientUnits="userSpaceOnUse" gradientTransform="translate(84.0717 241.759) rotate(124.862) scale(26.5 103.184)">
<stop offset="0.260417" stop-color="#F8D0BA"/>
<stop offset="1" stop-color="#F89863"/>
</radialGradient>
<radialGradient id="paint4_radial" cx="0" cy="0" r="1" gradientUnits="userSpaceOnUse" gradientTransform="translate(201.072 285.759) rotate(124.862) scale(26.5 103.184)">
<stop offset="0.260417" stop-color="#F8D0BA"/>
<stop offset="1" stop-color="#F89863"/>
</radialGradient>
<radialGradient id="paint5_radial" cx="0" cy="0" r="1" gradientUnits="userSpaceOnUse" gradientTransform="translate(267.072 241.759) rotate(124.862) scale(26.5 103.184)">
<stop offset="0.260417" stop-color="#F8D0BA"/>
<stop offset="1" stop-color="#F89863"/>
</radialGradient>
<radialGradient id="paint6_radial" cx="0" cy="0" r="1" gradientUnits="userSpaceOnUse" gradientTransform="translate(320.072 191.759) rotate(124.862) scale(26.5 103.184)">
<stop offset="0.260417" stop-color="#F8D0BA"/>
<stop offset="1" stop-color="#F89863"/>
</radialGradient>
<radialGradient id="paint7_radial" cx="0" cy="0" r="1" gradientUnits="userSpaceOnUse" gradientTransform="translate(364.072 145.759) rotate(124.862) scale(26.5 103.184)">
<stop offset="0.260417" stop-color="#F8D0BA"/>
<stop offset="1" stop-color="#F89863"/>
</radialGradient>
</defs>
</svg>
