<svg width="450" height="400" viewBox="0 0 450 400" fill="none" xmlns="http://www.w3.org/2000/svg">
<path d="M215.015 122.658C241.815 173.228 245.782 190.521 297.013 186.71C310.5 185.707 323.633 176.911 323.889 163.357C324.033 155.763 321.413 148.581 311.799 146.712C289.382 142.355 287.35 147.501 281.774 143.564C276.199 139.627 278.231 134.481 260.936 128.56C243.641 122.64 215.015 122.658 215.015 122.658Z" fill="url(#paint0_linear)" stroke="#078004" stroke-width="3"/>
<path d="M133.361 60.6147C187.144 80.1847 201.678 90.3593 237.145 53.1953C246.483 43.4112 250.335 28.0815 241.44 17.8501C236.457 12.1181 229.699 8.54374 221.312 13.6005C201.754 25.391 203.695 30.5719 196.918 31.3868C190.141 32.2017 188.201 27.021 171.397 34.2183C154.594 41.4157 133.361 60.6147 133.361 60.6147Z" fill="url(#paint1_linear)" stroke="#078004" stroke-width="3"/>
<path d="M274.361 97.6147C328.144 117.185 342.678 127.359 378.145 90.1953C387.483 80.4112 391.335 65.0815 382.44 54.8501C377.457 49.1181 370.699 45.5437 362.312 50.6005C342.754 62.391 344.695 67.5719 337.918 68.3868C331.141 69.2017 329.201 64.021 312.397 71.2183C295.594 78.4157 274.361 97.6147 274.361 97.6147Z" fill="url(#paint2_linear)" stroke="#078004" stroke-width="3"/>
<path d="M385.506 288.016C421.151 243.134 435.407 232.536 411.835 186.98C405.573 174.877 392.238 166.224 379.72 171.475C372.769 174.39 367.298 179.673 369.367 189.231C374.215 211.626 379.721 211.438 378.318 218.15C376.915 224.862 371.409 225.05 372.81 243.351C374.211 261.653 385.506 288.016 385.506 288.016Z" fill="url(#paint3_linear)" stroke="#078004" stroke-width="3"/>
<path d="M106.678 61.0364C55.1899 86.1647 37.7712 89.5735 39.436 140.895C39.8773 154.502 48.1662 168.04 61.7083 168.715C69.2437 169.09 76.4664 166.688 78.7163 157.158C83.982 134.854 78.9344 132.647 83.0894 127.195C87.2443 121.743 92.2918 123.95 98.906 106.827C105.52 89.705 106.678 61.0364 106.678 61.0364Z" fill="url(#paint4_linear)" stroke="#078004" stroke-width="3"/>
<path d="M93.061 310.209C104.518 254.074 112.431 238.186 70.7278 208.228C59.6711 200.285 43.8858 198.606 35.0981 208.931C30.2081 214.677 27.7102 221.867 33.8945 229.459C48.3686 247.227 53.1947 244.57 54.9851 251.187C56.7755 257.804 51.9495 260.461 61.4935 276.14C71.0374 291.819 93.061 310.209 93.061 310.209Z" fill="url(#paint5_linear)" stroke="#078004" stroke-width="3"/>
<path d="M217.451 391.392C197.118 335.622 195.538 317.446 142.264 313.621C128.639 312.642 114.38 319.483 112.068 332.882C110.708 340.764 112.24 348.742 121.999 352.179C144.277 360.024 147.073 355.087 152.215 359.947C157.356 364.806 154.56 369.743 171.39 378.404C188.219 387.064 217.451 391.392 217.451 391.392Z" fill="url(#paint6_linear)" stroke="#078004" stroke-width="3"/>
<path d="M253.451 334.392C233.118 278.622 231.538 260.446 178.264 256.621C164.639 255.642 150.38 262.483 148.068 275.882C146.708 283.764 148.24 291.742 157.999 295.179C180.277 303.024 183.073 298.087 188.215 302.947C193.356 307.806 190.56 312.743 207.39 321.404C224.219 330.064 253.451 334.392 253.451 334.392Z" fill="url(#paint7_linear)" stroke="#078004" stroke-width="3"/>
<path d="M199.12 110.173C141.927 108.783 124.933 103.773 103.045 150.36C97.2912 162.605 98.4822 178.346 110.139 185.211C116.68 189.064 124.225 190.304 130.585 182.826C145.403 165.403 141.925 161.11 148.093 158.174C154.261 155.238 157.739 159.531 171.397 147.343C185.056 135.155 199.12 110.173 199.12 110.173Z" fill="url(#paint8_linear)" stroke="#078004" stroke-width="3"/>
<path d="M115.109 244.827C171.952 252.325 188.421 259.106 214.947 215.431C221.996 203.825 222.414 187.921 211.408 179.88C205.298 175.415 197.943 173.439 190.878 180.133C174.321 195.821 177.353 200.45 170.901 202.7C164.449 204.95 161.417 200.321 146.551 210.942C131.684 221.564 115.109 244.827 115.109 244.827Z" fill="url(#paint9_linear)" stroke="#078004" stroke-width="3"/>
<path d="M363.644 207.881C306.692 202.433 290.093 196.229 264.983 241.143C258.382 252.949 258.463 268.736 269.609 276.413C275.862 280.72 283.301 282.493 290.171 275.485C306.177 259.158 303.01 254.629 309.369 252.138C315.728 249.648 318.895 254.177 333.377 242.989C347.858 231.802 363.644 207.881 363.644 207.881Z" fill="url(#paint10_linear)" stroke="#078004" stroke-width="3"/>
<path d="M377.954 354.379C346.085 306.717 340.316 289.867 289.994 298.748C276.622 301.108 264.394 311.287 265.613 324.864C266.289 332.402 269.657 339.232 279.349 340.124C302.06 342.216 303.539 336.883 309.487 340.247C315.435 343.612 313.956 348.944 331.746 353.108C349.536 357.272 377.954 354.379 377.954 354.379Z" fill="url(#paint11_linear)" stroke="#078004" stroke-width="3"/>
<path d="M307.353 172.35C304.716 171.345 301.458 171.845 298.667 171.996C295.886 172.146 293.238 172.636 290.443 172.623C285.993 172.603 281.939 172.203 278.498 169.285C275.002 166.319 272.193 162.726 268.812 159.655C267.087 158.087 265.212 156.644 263.239 155.385C261.254 154.119 259.137 152.737 256.782 152.25C255.037 151.889 253.469 150.761 251.784 150.171C250.02 149.554 248.49 148.805 246.806 148.052C245.019 147.253 242.663 145.96 241.539 144.341C240.944 143.485 239.915 142.731 239.176 141.935C238.418 141.119 238.292 140.476 237.208 139.965" stroke="#078004" stroke-width="3" stroke-linecap="round" stroke-linejoin="round"/>
<path d="M235.195 35.6077C232.564 36.6291 230.481 39.1837 228.512 41.1662C226.549 43.1417 224.911 45.2801 222.828 47.1441C219.512 50.1115 216.236 52.5312 211.726 52.6717C207.144 52.8144 202.651 52.0301 198.083 52.0166C195.752 52.0096 193.394 52.1949 191.086 52.5829C188.764 52.9733 186.266 53.367 184.191 54.5839C182.655 55.4853 180.735 55.6987 179.089 56.3909C177.367 57.1149 175.729 57.5849 173.975 58.1546C172.113 58.7596 169.498 59.3781 167.579 58.9307C166.563 58.694 165.294 58.8233 164.212 58.7284C163.103 58.6312 162.578 58.2386 161.432 58.5858" stroke="#078004" stroke-width="3" stroke-linecap="round" stroke-linejoin="round"/>
<path d="M376.194 72.6078C373.564 73.6292 371.481 76.1839 369.511 78.1663C367.548 80.1418 365.911 82.2802 363.828 84.1443C360.512 87.1117 357.235 89.5313 352.725 89.6718C348.143 89.8145 343.65 89.0303 339.082 89.0167C336.752 89.0098 334.393 89.195 332.085 89.5831C329.763 89.9734 327.265 90.3672 325.191 91.584C323.654 92.4854 321.735 92.6989 320.088 93.391C318.366 94.1151 316.728 94.585 314.975 95.1547C313.112 95.7598 310.497 96.3782 308.578 95.9308C307.563 95.6941 306.294 95.8234 305.211 95.7286C304.102 95.6313 303.578 95.2387 302.431 95.5859" stroke="#078004" stroke-width="3" stroke-linecap="round" stroke-linejoin="round"/>
<path d="M394.561 183.067C394.681 185.898 396.422 188.7 397.66 191.21C398.893 193.711 400.384 195.955 401.474 198.535C403.209 202.643 404.44 206.537 403.127 210.875C401.794 215.282 399.615 219.308 398.138 223.652C397.385 225.868 396.804 228.173 396.43 230.494C396.054 232.829 395.625 235.333 396.107 237.698C396.465 239.449 396.051 241.345 396.176 243.134C396.307 245.005 396.225 246.715 396.2 248.567C396.174 250.533 395.919 253.221 394.882 254.904C394.334 255.795 394.049 257.044 393.613 258.044C393.166 259.069 392.628 259.443 392.587 260.645" stroke="#078004" stroke-width="3" stroke-linecap="round" stroke-linejoin="round"/>
<path d="M53.3345 151.848C54.4449 149.241 54.0803 145.961 54.0442 143.162C54.0082 140.372 53.629 137.703 53.7564 134.904C53.9591 130.448 54.5249 126.402 57.5762 123.054C60.6765 119.651 64.375 116.958 67.5767 113.675C69.2104 112 70.7266 110.171 72.0629 108.237C73.4072 106.292 74.8723 104.217 75.4548 101.875C75.8864 100.14 77.0755 98.6074 77.7329 96.9388C78.4206 95.1933 79.2303 93.6857 80.0497 92.025C80.92 90.2615 82.3067 87.946 83.9667 86.874C84.8448 86.3069 85.6394 85.3021 86.4634 84.5879C87.308 83.8558 87.954 83.7512 88.508 82.683" stroke="#078004" stroke-width="3" stroke-linecap="round" stroke-linejoin="round"/>
<path d="M53.5737 212.572C54.964 215.041 57.7864 216.751 60.028 218.428C62.2619 220.1 64.6089 221.426 66.7503 223.233C70.1592 226.109 73.0224 229.023 73.8176 233.483C74.6255 238.015 74.5064 242.588 75.1582 247.128C75.4908 249.444 76.0169 251.761 76.7356 253.999C77.4586 256.25 78.2106 258.676 79.7125 260.565C80.8252 261.965 81.3152 263.842 82.2374 265.38C83.2022 266.989 83.904 268.55 84.7212 270.211C85.589 271.976 86.5796 274.487 86.4179 276.456C86.3324 277.498 86.6447 278.74 86.7087 279.829C86.7744 280.945 86.4636 281.521 86.9729 282.611" stroke="#078004" stroke-width="3" stroke-linecap="round" stroke-linejoin="round"/>
<path d="M130.132 326.721C132.683 328.145 136.08 328.131 138.951 328.4C141.811 328.669 144.584 328.572 147.437 329.009C151.977 329.705 156.06 330.729 159.165 334.226C162.319 337.779 164.684 341.868 167.705 345.512C169.247 347.372 170.959 349.128 172.797 350.71C174.646 352.303 176.615 354.033 178.952 354.887C180.682 355.52 182.125 356.908 183.764 357.765C185.478 358.661 186.935 359.657 188.549 360.68C190.262 361.766 192.486 363.442 193.407 365.262C193.895 366.225 194.839 367.151 195.483 368.074C196.143 369.021 196.181 369.695 197.216 370.38" stroke="#078004" stroke-width="3" stroke-linecap="round" stroke-linejoin="round"/>
<path d="M166.132 269.721C168.683 271.145 172.08 271.131 174.951 271.4C177.811 271.669 180.584 271.572 183.437 272.009C187.977 272.705 192.06 273.729 195.165 277.226C198.319 280.779 200.684 284.868 203.705 288.512C205.247 290.372 206.959 292.128 208.797 293.71C210.646 295.303 212.615 297.033 214.952 297.887C216.682 298.52 218.125 299.908 219.764 300.765C221.478 301.661 222.935 302.657 224.549 303.68C226.262 304.766 228.486 306.442 229.407 308.262C229.895 309.225 230.839 310.151 231.483 311.074C232.143 312.021 232.181 312.695 233.216 313.38" stroke="#078004" stroke-width="3" stroke-linecap="round" stroke-linejoin="round"/>
<path d="M110.465 166.39C112.636 164.581 113.804 161.494 115.045 158.986C116.282 156.486 117.158 153.936 118.544 151.503C120.75 147.631 123.093 144.291 127.324 142.718C131.624 141.12 136.132 140.43 140.468 138.984C142.68 138.247 144.858 137.318 146.924 136.214C149.002 135.103 151.246 133.932 152.828 132.116C154 130.771 155.753 129.956 157.095 128.774C158.5 127.537 159.904 126.569 161.387 125.469C162.961 124.301 165.245 122.88 167.207 122.691C168.244 122.592 169.407 122.064 170.463 121.809C171.546 121.547 172.167 121.752 173.144 121.056" stroke="#078004" stroke-width="3" stroke-linecap="round" stroke-linejoin="round"/>
<path d="M209.273 198.586C206.923 200.147 205.443 203.083 203.95 205.437C202.461 207.783 201.327 210.218 199.696 212.481C197.101 216.084 194.424 219.145 190.043 220.251C185.591 221.375 181.024 221.576 176.552 222.545C174.27 223.039 172.003 223.726 169.829 224.6C167.643 225.479 165.285 226.399 163.522 228.03C162.215 229.239 160.384 229.859 158.925 230.887C157.398 231.962 155.898 232.772 154.307 233.704C152.618 234.693 150.194 235.858 148.219 235.834C147.174 235.822 145.96 236.221 144.88 236.361C143.774 236.504 143.175 236.235 142.129 236.819" stroke="#078004" stroke-width="3" stroke-linecap="round" stroke-linejoin="round"/>
<path d="M271.256 257.661C273.549 256.011 274.931 253.015 276.346 250.601C277.755 248.195 278.809 245.713 280.363 243.385C282.836 239.68 285.407 236.514 289.739 235.246C294.14 233.957 298.685 233.589 303.112 232.455C305.37 231.877 307.608 231.105 309.746 230.15C311.898 229.189 314.218 228.181 315.924 226.482C317.188 225.223 318.994 224.534 320.416 223.451C321.904 222.317 323.373 221.451 324.929 220.459C326.582 219.406 328.96 218.151 330.93 218.102C331.972 218.076 333.168 217.632 334.24 217.453C335.338 217.268 335.944 217.517 336.968 216.893" stroke="#078004" stroke-width="3" stroke-linecap="round" stroke-linejoin="round"/>
<path d="M281.079 314.126C283.802 314.863 286.985 314.038 289.739 313.607C292.484 313.177 295.062 312.424 297.839 312.155C302.258 311.729 306.325 311.721 310.047 314.283C313.828 316.888 316.993 320.187 320.671 322.909C322.548 324.297 324.56 325.548 326.651 326.604C328.754 327.667 331.001 328.832 333.39 329.081C335.16 329.265 336.835 330.232 338.57 330.651C340.386 331.088 341.983 331.681 343.733 332.262C345.592 332.879 348.065 333.932 349.351 335.432C350.032 336.225 351.132 336.874 351.949 337.593C352.788 338.33 352.98 338.958 354.109 339.358" stroke="#078004" stroke-width="3" stroke-linecap="round" stroke-linejoin="round"/>
<path d="M289.582 165.118C294.535 164.412 300.352 159.674 305.261 161.902" stroke="#31BD00" stroke-width="3" stroke-linecap="round" stroke-linejoin="round"/>
<path d="M217.158 42.1508C220.362 38.3069 221.504 30.8923 226.64 29.2557" stroke="#31BD00" stroke-width="3" stroke-linecap="round" stroke-linejoin="round"/>
<path d="M358.158 79.1508C361.361 75.3069 362.503 67.8923 367.639 66.2557" stroke="#31BD00" stroke-width="3" stroke-linecap="round" stroke-linejoin="round"/>
<path d="M394.95 202.332C392.353 198.051 385.729 194.588 385.832 189.175" stroke="#31BD00" stroke-width="3" stroke-linecap="round" stroke-linejoin="round"/>
<path d="M61.276 134.293C61.7763 139.277 66.2612 145.261 63.8384 150.103" stroke="#31BD00" stroke-width="3" stroke-linecap="round" stroke-linejoin="round"/>
<path d="M62.6523 229.567C58.3954 226.926 50.9178 226.834 48.5562 221.963" stroke="#31BD00" stroke-width="3" stroke-linecap="round" stroke-linejoin="round"/>
<path d="M147.264 336.791C142.106 336.758 135.503 340.704 130.803 337.688" stroke="#31BD00" stroke-width="3" stroke-linecap="round" stroke-linejoin="round"/>
<path d="M183.264 279.791C178.106 279.758 171.503 283.704 166.803 280.688" stroke="#31BD00" stroke-width="3" stroke-linecap="round" stroke-linejoin="round"/>
<path d="M125.499 154.428C123.676 159.096 124.937 166.491 120.584 169.682" stroke="#31BD00" stroke-width="3" stroke-linecap="round" stroke-linejoin="round"/>
<path d="M193.058 208.835C195.351 204.403 194.847 196.935 199.514 194.237" stroke="#31BD00" stroke-width="3" stroke-linecap="round" stroke-linejoin="round"/>
<path d="M287.094 246.797C284.948 251.323 285.686 258.79 281.12 261.664" stroke="#31BD00" stroke-width="3" stroke-linecap="round" stroke-linejoin="round"/>
<path d="M299.479 319.549C294.635 320.75 289.356 326.056 284.25 324.329" stroke="#31BD00" stroke-width="3" stroke-linecap="round" stroke-linejoin="round"/>
<path d="M254.099 143.963C255.198 143.329 256.581 142.065 257.924 142.046C259.362 142.026 260.773 142.018 262.242 142.16C264.159 142.347 266.053 142.387 267.94 142.636" stroke="#31BD00" stroke-width="3" stroke-linecap="round" stroke-linejoin="round"/>
<path d="M176.647 50.2313C177.037 49.0249 177.216 47.1596 178.201 46.2453C179.255 45.2667 180.296 44.3153 181.482 43.4367C183.03 42.2896 184.463 41.0502 186.03 39.97" stroke="#31BD00" stroke-width="3" stroke-linecap="round" stroke-linejoin="round"/>
<path d="M317.646 87.2314C318.036 86.025 318.215 84.1597 319.2 83.2454C320.254 82.2668 321.295 81.3154 322.481 80.4368C324.029 79.2897 325.462 78.0503 327.029 76.9701" stroke="#31BD00" stroke-width="3" stroke-linecap="round" stroke-linejoin="round"/>
<path d="M389.587 243.485C388.574 242.727 386.873 241.959 386.327 240.729C385.742 239.412 385.179 238.116 384.731 236.706C384.145 234.864 383.436 233.103 382.92 231.266" stroke="#31BD00" stroke-width="3" stroke-linecap="round" stroke-linejoin="round"/>
<path d="M83.8286 99.4654C84.4152 100.587 85.6191 102.014 85.5826 103.36C85.5435 104.801 85.4936 106.214 85.2911 107.68C85.0267 109.594 84.9085 111.49 84.583 113.371" stroke="#31BD00" stroke-width="3" stroke-linecap="round" stroke-linejoin="round"/>
<path d="M76.5194 268.672C75.2729 268.454 73.4075 268.539 72.3626 267.689C71.2442 266.78 70.1544 265.88 69.1154 264.825C67.7588 263.449 66.328 262.2 65.0347 260.796" stroke="#31BD00" stroke-width="3" stroke-linecap="round" stroke-linejoin="round"/>
<path d="M180.529 363.742C179.318 364.221 177.729 365.299 176.355 365.115C174.884 364.917 173.442 364.711 171.962 364.342C170.03 363.861 168.102 363.533 166.21 362.993" stroke="#31BD00" stroke-width="3" stroke-linecap="round" stroke-linejoin="round"/>
<path d="M216.529 306.742C215.318 307.221 213.729 308.299 212.355 308.115C210.884 307.917 209.442 307.711 207.962 307.342C206.03 306.861 204.102 306.533 202.21 305.993" stroke="#31BD00" stroke-width="3" stroke-linecap="round" stroke-linejoin="round"/>
<path d="M161.358 133.835C161.369 135.103 161.789 136.929 161.144 138.111C160.455 139.375 159.768 140.609 158.921 141.821C157.816 143.403 156.849 145.035 155.705 146.56" stroke="#31BD00" stroke-width="3" stroke-linecap="round" stroke-linejoin="round"/>
<path d="M155.189 225.412C155.307 224.153 155.074 222.297 155.838 221.195C156.655 220.015 157.466 218.865 158.433 217.754C159.697 216.304 160.828 214.789 162.125 213.4" stroke="#31BD00" stroke-width="3" stroke-linecap="round" stroke-linejoin="round"/>
<path d="M324.312 228.802C324.234 230.068 324.524 231.92 323.798 233.052C323.021 234.264 322.249 235.447 321.32 236.595C320.106 238.095 319.027 239.654 317.778 241.094" stroke="#31BD00" stroke-width="3" stroke-linecap="round" stroke-linejoin="round"/>
<path d="M336.92 337.071C335.896 337.812 334.655 339.211 333.324 339.365C331.898 339.529 330.499 339.679 329.025 339.684C327.102 339.691 325.217 339.841 323.318 339.783" stroke="#31BD00" stroke-width="3" stroke-linecap="round" stroke-linejoin="round"/>
<path d="M279.339 177.823C280.705 180.073 283.435 182.387 286.39 181.634C286.945 181.493 287.407 181.095 287.967 180.994C288.44 180.909 288.986 181.043 289.471 181.017C290.147 180.981 290.761 181.264 291.256 181.633" stroke="#31BD00" stroke-width="3" stroke-linecap="round" stroke-linejoin="round"/>
<path d="M218.072 58.445C220.594 59.1995 224.171 59.0874 225.859 56.548C226.176 56.0713 226.253 55.4669 226.601 55.016C226.895 54.6356 227.39 54.3694 227.732 54.025C228.21 53.5448 228.855 53.3437 229.47 53.2856" stroke="#31BD00" stroke-width="3" stroke-linecap="round" stroke-linejoin="round"/>
<path d="M359.072 95.4451C361.594 96.1997 365.171 96.0875 366.859 93.5482C367.176 93.0714 367.253 92.467 367.601 92.0161C367.895 91.6357 368.39 91.3695 368.732 91.0251C369.21 90.5449 369.855 90.3438 370.47 90.2858" stroke="#31BD00" stroke-width="3" stroke-linecap="round" stroke-linejoin="round"/>
<path d="M410.603 206.683C412.122 204.525 413.163 201.084 411.31 198.663C410.962 198.208 410.417 197.942 410.103 197.466C409.839 197.064 409.747 196.508 409.532 196.071C409.232 195.463 409.249 194.784 409.392 194.18" stroke="#31BD00" stroke-width="3" stroke-linecap="round" stroke-linejoin="round"/>
<path d="M49.028 123.61C46.7285 124.903 44.3086 127.559 44.9382 130.544C45.0563 131.104 45.4335 131.58 45.5114 132.145C45.5772 132.621 45.4209 133.164 45.4268 133.65C45.4352 134.329 45.1279 134.934 44.7393 135.417" stroke="#31BD00" stroke-width="3" stroke-linecap="round" stroke-linejoin="round"/>
<path d="M78.5861 226.367C78.963 223.756 78.3315 220.218 75.5817 218.898C75.0654 218.651 74.4583 218.66 73.9629 218.377C73.5451 218.139 73.2105 217.685 72.821 217.393C72.2779 216.986 71.9857 216.374 71.8389 215.771" stroke="#31BD00" stroke-width="3" stroke-linecap="round" stroke-linejoin="round"/>
<path d="M159.503 325.395C158.424 322.894 155.961 320.12 152.838 320.439C152.252 320.499 151.724 320.834 151.138 320.852C150.643 320.867 150.104 320.648 149.605 320.6C148.91 320.535 148.323 320.153 147.869 319.702" stroke="#31BD00" stroke-width="3" stroke-linecap="round" stroke-linejoin="round"/>
<path d="M195.503 268.395C194.424 265.894 191.961 263.12 188.838 263.439C188.252 263.499 187.724 263.834 187.138 263.852C186.643 263.867 186.104 263.648 185.605 263.6C184.91 263.535 184.323 263.153 183.869 262.702" stroke="#31BD00" stroke-width="3" stroke-linecap="round" stroke-linejoin="round"/>
<path d="M119.481 139.27C116.852 139.359 113.496 140.607 112.697 143.554C112.548 144.107 112.666 144.705 112.478 145.243C112.32 145.698 111.935 146.108 111.719 146.544C111.418 147.152 110.87 147.549 110.305 147.8" stroke="#31BD00" stroke-width="3" stroke-linecap="round" stroke-linejoin="round"/>
<path d="M197.516 224.51C200.148 224.704 203.623 223.826 204.72 220.989C204.925 220.457 204.868 219.852 205.11 219.338C205.314 218.904 205.741 218.538 206 218.129C206.363 217.559 206.95 217.224 207.539 217.036" stroke="#31BD00" stroke-width="3" stroke-linecap="round" stroke-linejoin="round"/>
<path d="M282.158 231.249C279.529 231.151 276.093 232.158 275.09 235.041C274.901 235.582 274.977 236.186 274.752 236.71C274.563 237.153 274.149 237.535 273.903 237.954C273.56 238.539 272.986 238.896 272.404 239.106" stroke="#31BD00" stroke-width="3" stroke-linecap="round" stroke-linejoin="round"/>
<path d="M308.318 305.858C306.726 303.753 303.774 301.72 300.919 302.768C300.383 302.964 299.966 303.407 299.42 303.564C298.959 303.696 298.403 303.617 297.924 303.692C297.257 303.796 296.618 303.576 296.087 303.257" stroke="#31BD00" stroke-width="3" stroke-linecap="round" stroke-linejoin="round"/>
<path d="M262.717 164.101C260.254 167.74 262.73 170.854 264.382 173.738C264.974 174.771 266.055 174.986 266.82 175.874C267.443 176.599 267.841 177.532 268.313 178.355" stroke="#31BD00" stroke-width="3" stroke-linecap="round" stroke-linejoin="round"/>
<path d="M196.539 59.4018C197.15 63.7532 201.075 64.4049 204.234 65.4379C205.366 65.808 206.312 65.2426 207.475 65.3894C208.423 65.5092 209.343 65.9352 210.245 66.2302" stroke="#31BD00" stroke-width="3" stroke-linecap="round" stroke-linejoin="round"/>
<path d="M337.539 96.4018C338.15 100.753 342.074 101.405 345.233 102.438C346.365 102.808 347.311 102.243 348.474 102.389C349.422 102.509 350.343 102.935 351.245 103.23" stroke="#31BD00" stroke-width="3" stroke-linecap="round" stroke-linejoin="round"/>
<path d="M404.605 227.487C408.903 228.3 410.775 224.773 412.761 222.097C413.472 221.138 413.243 220.056 413.754 218.996C414.17 218.132 414.867 217.392 415.434 216.628" stroke="#31BD00" stroke-width="3" stroke-linecap="round" stroke-linejoin="round"/>
<path d="M63.3935 107.422C59.866 104.834 56.6593 107.209 53.7155 108.768C52.6611 109.326 52.4026 110.402 51.4854 111.138C50.7375 111.738 49.7908 112.105 48.9501 112.55" stroke="#31BD00" stroke-width="3" stroke-linecap="round" stroke-linejoin="round"/>
<path d="M82.6655 247.622C86.8674 246.403 86.9386 242.413 87.4972 239.129C87.6972 237.953 87.0019 237.092 86.9774 235.917C86.9574 234.958 87.2435 233.984 87.403 233.046" stroke="#31BD00" stroke-width="3" stroke-linecap="round" stroke-linejoin="round"/>
<path d="M174.553 341.905C177.578 338.57 175.486 335.02 174.203 331.829C173.743 330.686 172.669 330.303 172.013 329.282C171.478 328.449 171.203 327.437 170.837 326.526" stroke="#31BD00" stroke-width="3" stroke-linecap="round" stroke-linejoin="round"/>
<path d="M210.553 284.905C213.578 281.57 211.486 278.02 210.203 274.829C209.743 273.686 208.669 273.303 208.013 272.282C207.478 271.449 207.203 270.437 206.837 269.526" stroke="#31BD00" stroke-width="3" stroke-linecap="round" stroke-linejoin="round"/>
<path d="M139.597 131.489C137.642 127.558 133.715 128.193 130.392 128.222C129.202 128.232 128.484 129.07 127.335 129.302C126.398 129.491 125.39 129.381 124.442 129.389" stroke="#31BD00" stroke-width="3" stroke-linecap="round" stroke-linejoin="round"/>
<path d="M176.657 230.069C178.206 234.177 182.189 233.968 185.505 234.296C186.694 234.413 187.496 233.659 188.666 233.552C189.619 233.465 190.613 233.682 191.56 233.775" stroke="#31BD00" stroke-width="3" stroke-linecap="round" stroke-linejoin="round"/>
<path d="M302.77 224.917C301.097 220.857 297.135 221.211 293.819 221.004C292.631 220.93 291.855 221.715 290.693 221.864C289.745 221.986 288.748 221.805 287.801 221.746" stroke="#31BD00" stroke-width="3" stroke-linecap="round" stroke-linejoin="round"/>
<path d="M326.257 317.865C328.321 313.991 325.537 311.136 323.595 308.427C322.899 307.457 321.803 307.352 320.951 306.543C320.256 305.884 319.764 304.994 319.209 304.22" stroke="#31BD00" stroke-width="3" stroke-linecap="round" stroke-linejoin="round"/>
<path d="M242.751 151.337C242.339 154.31 244.415 157.634 245.928 160.276C247.044 162.223 248.28 164.005 249.398 165.956" stroke="#31BD00" stroke-width="3" stroke-linecap="round" stroke-linejoin="round"/>
<path d="M173.166 63.3111C174.853 65.7927 178.621 66.8691 181.515 67.8153C183.648 68.5128 185.76 69.0062 187.898 69.705" stroke="#31BD00" stroke-width="3" stroke-linecap="round" stroke-linejoin="round"/>
<path d="M314.166 100.311C315.853 102.793 319.621 103.869 322.515 104.815C324.648 105.513 326.76 106.006 328.897 106.705" stroke="#31BD00" stroke-width="3" stroke-linecap="round" stroke-linejoin="round"/>
<path d="M400.802 250.989C403.682 250.178 405.904 246.936 407.723 244.485C409.064 242.678 410.206 240.825 411.549 239.015" stroke="#31BD00" stroke-width="3" stroke-linecap="round" stroke-linejoin="round"/>
<path d="M76.9413 87.8528C73.9943 87.3416 70.594 89.3087 67.8976 90.7361C65.91 91.7883 64.0827 92.9672 62.0912 94.0214" stroke="#31BD00" stroke-width="3" stroke-linecap="round" stroke-linejoin="round"/>
<path d="M89.9236 270.289C92.1249 268.265 92.6376 264.37 93.1493 261.362C93.5265 259.145 93.7055 256.978 94.0834 254.756" stroke="#31BD00" stroke-width="3" stroke-linecap="round" stroke-linejoin="round"/>
<path d="M193.151 357.947C193.987 354.98 192.334 351.276 191.159 348.353C190.293 346.199 189.28 344.195 188.412 342.037" stroke="#31BD00" stroke-width="3" stroke-linecap="round" stroke-linejoin="round"/>
<path d="M229.151 300.947C229.987 297.98 228.334 294.276 227.159 291.353C226.293 289.199 225.28 287.195 224.412 285.037" stroke="#31BD00" stroke-width="3" stroke-linecap="round" stroke-linejoin="round"/>
<path d="M156.991 121.69C154.607 119.875 150.694 120.057 147.651 120.084C145.408 120.103 143.249 120.31 141.002 120.329" stroke="#31BD00" stroke-width="3" stroke-linecap="round" stroke-linejoin="round"/>
<path d="M154.644 238.9C156.837 240.955 160.759 241.194 163.798 241.493C166.037 241.714 168.211 241.741 170.455 241.963" stroke="#31BD00" stroke-width="3" stroke-linecap="round" stroke-linejoin="round"/>
<path d="M324.431 215.263C322.18 213.284 318.264 213.188 315.227 212.998C312.988 212.858 310.82 212.91 308.577 212.77" stroke="#31BD00" stroke-width="3" stroke-linecap="round" stroke-linejoin="round"/>
<path d="M347.417 328.581C347.514 325.577 345.105 322.472 343.326 319.991C342.015 318.162 340.6 316.511 339.286 314.679" stroke="#31BD00" stroke-width="3" stroke-linecap="round" stroke-linejoin="round"/>
<path d="M286.34 154.362C282.892 154.447 278.604 153.968 275.469 155.776" stroke="#00B812" stroke-width="3" stroke-linecap="round" stroke-linejoin="round"/>
<path d="M207.544 36.3409C205.041 38.7154 201.538 41.2338 200.423 44.6762" stroke="#00B812" stroke-width="3" stroke-linecap="round" stroke-linejoin="round"/>
<path d="M348.543 73.3411C346.041 75.7155 342.538 78.2339 341.423 81.6763" stroke="#00B812" stroke-width="3" stroke-linecap="round" stroke-linejoin="round"/>
<path d="M386.393 209.623C387.83 212.766 389.081 216.908 391.969 219.072" stroke="#00B812" stroke-width="3" stroke-linecap="round" stroke-linejoin="round"/>
<path d="M72.1343 131.406C72.1912 127.949 72.8449 123.671 71.1711 120.472" stroke="#00B812" stroke-width="3" stroke-linecap="round" stroke-linejoin="round"/>
<path d="M58.3232 239.935C61.0291 242.087 64.0225 245.212 67.5793 245.835" stroke="#00B812" stroke-width="3" stroke-linecap="round" stroke-linejoin="round"/>
<path d="M149.066 348.246C152.6 348.683 156.911 349.822 160.365 348.456" stroke="#00B812" stroke-width="3" stroke-linecap="round" stroke-linejoin="round"/>
<path d="M185.066 291.246C188.6 291.683 192.911 292.822 196.365 291.456" stroke="#00B812" stroke-width="3" stroke-linecap="round" stroke-linejoin="round"/>
<path d="M136.452 156.868C138.074 153.818 140.6 150.312 140.569 146.692" stroke="#00B812" stroke-width="3" stroke-linecap="round" stroke-linejoin="round"/>
<path d="M182.381 205.242C180.452 208.093 177.575 211.299 177.237 214.891" stroke="#00B812" stroke-width="3" stroke-linecap="round" stroke-linejoin="round"/>
<path d="M297.848 250.009C299.681 247.081 302.447 243.763 302.671 240.15" stroke="#00B812" stroke-width="3" stroke-linecap="round" stroke-linejoin="round"/>
<path d="M303.824 329.944C307.239 329.513 311.546 329.559 314.468 327.443" stroke="#00B812" stroke-width="3" stroke-linecap="round" stroke-linejoin="round"/>
<defs>
<linearGradient id="paint0_linear" x1="300.3" y1="194.87" x2="247.761" y2="103.773" gradientUnits="userSpaceOnUse">
<stop offset="0.239583" stop-color="#38EB28"/>
<stop offset="0.916667" stop-color="#008545" stop-opacity="0.72"/>
</linearGradient>
<linearGradient id="paint1_linear" x1="245.054" y1="57.048" x2="145.006" y2="24.6519" gradientUnits="userSpaceOnUse">
<stop offset="0.239583" stop-color="#38EB28"/>
<stop offset="0.916667" stop-color="#008545" stop-opacity="0.72"/>
</linearGradient>
<linearGradient id="paint2_linear" x1="386.054" y1="94.048" x2="286.006" y2="61.6519" gradientUnits="userSpaceOnUse">
<stop offset="0.239583" stop-color="#38EB28"/>
<stop offset="0.916667" stop-color="#008545" stop-opacity="0.72"/>
</linearGradient>
<linearGradient id="paint3_linear" x1="417.931" y1="180.552" x2="354.701" y2="264.932" gradientUnits="userSpaceOnUse">
<stop offset="0.239583" stop-color="#38EB28"/>
<stop offset="0.916667" stop-color="#008545" stop-opacity="0.72"/>
</linearGradient>
<linearGradient id="paint4_linear" x1="31.1681" y1="144.032" x2="124.542" y2="95.1836" gradientUnits="userSpaceOnUse">
<stop offset="0.239583" stop-color="#38EB28"/>
<stop offset="0.916667" stop-color="#008545" stop-opacity="0.72"/>
</linearGradient>
<linearGradient id="paint5_linear" x1="73.2798" y1="199.761" x2="55.1011" y2="303.561" gradientUnits="userSpaceOnUse">
<stop offset="0.239583" stop-color="#38EB28"/>
<stop offset="0.916667" stop-color="#008545" stop-opacity="0.72"/>
</linearGradient>
<linearGradient id="paint6_linear" x1="140.489" y1="304.836" x2="180.525" y2="406.004" gradientUnits="userSpaceOnUse">
<stop offset="0.239583" stop-color="#38EB28"/>
<stop offset="0.916667" stop-color="#008545" stop-opacity="0.72"/>
</linearGradient>
<linearGradient id="paint7_linear" x1="176.489" y1="247.836" x2="216.525" y2="349.004" gradientUnits="userSpaceOnUse">
<stop offset="0.239583" stop-color="#38EB28"/>
<stop offset="0.916667" stop-color="#008545" stop-opacity="0.72"/>
</linearGradient>
<linearGradient id="paint8_linear" x1="94.339" y1="149.207" x2="199.448" y2="148.301" gradientUnits="userSpaceOnUse">
<stop offset="0.239583" stop-color="#38EB28"/>
<stop offset="0.916667" stop-color="#008545" stop-opacity="0.72"/>
</linearGradient>
<linearGradient id="paint9_linear" x1="223.608" y1="217.352" x2="118.621" y2="207.481" gradientUnits="userSpaceOnUse">
<stop offset="0.239583" stop-color="#38EB28"/>
<stop offset="0.916667" stop-color="#008545" stop-opacity="0.72"/>
</linearGradient>
<linearGradient id="paint10_linear" x1="256.38" y1="239.376" x2="361.295" y2="245.865" gradientUnits="userSpaceOnUse">
<stop offset="0.239583" stop-color="#38EB28"/>
<stop offset="0.916667" stop-color="#008545" stop-opacity="0.72"/>
</linearGradient>
<linearGradient id="paint11_linear" x1="285.723" y1="290.973" x2="347.573" y2="376.38" gradientUnits="userSpaceOnUse">
<stop offset="0.239583" stop-color="#38EB28"/>
<stop offset="0.916667" stop-color="#008545" stop-opacity="0.72"/>
</linearGradient>
</defs>
</svg>
