<svg width="450" height="402" viewBox="0 0 450 402" fill="none" xmlns="http://www.w3.org/2000/svg">
<path d="M123.889 108.994C141.351 97.1821 174.581 79.0826 207.925 63.2347C224.584 55.3171 241.236 47.9784 255.923 42.2804C270.646 36.5685 283.274 32.5535 291.933 31.2125C309.144 28.5472 320.364 35.9719 323.16 44.1738C324.533 48.2025 323.958 52.5272 321.032 56.3812C318.049 60.3108 312.448 63.9652 303.439 66.0353C284.638 70.3556 252.007 84.8037 219.075 99.7467C215.503 101.367 211.926 102.995 208.361 104.616C178.905 118.017 150.259 131.049 131.668 137.109C121.29 140.492 113.551 141.62 108.326 141.17C103.026 140.713 100.944 138.742 100.487 136.631C99.9796 134.288 101.107 130.501 105.075 125.463C108.953 120.537 115.206 114.867 123.889 108.994Z" fill="url(#paint0_radial)" stroke="#7B2C00" stroke-width="4"/>
<path d="M47.0562 179.994C64.5185 168.182 97.7484 150.083 131.093 134.235C147.752 126.317 164.404 118.978 179.091 113.28C193.814 107.569 206.442 103.553 215.101 102.212C232.311 99.5472 243.531 106.972 246.327 115.174C247.7 119.202 247.125 123.527 244.2 127.381C241.216 131.311 235.615 134.965 226.606 137.035C207.806 141.356 175.174 155.804 142.242 170.747C138.67 172.367 135.094 173.995 131.529 175.616C102.072 189.017 73.4266 202.049 54.8351 208.109C44.458 211.492 36.7181 212.62 31.4932 212.17C26.1935 211.713 24.1117 209.742 23.6545 207.631C23.1471 205.288 24.2748 201.501 28.2424 196.463C32.1206 191.537 38.3737 185.867 47.0562 179.994Z" fill="url(#paint1_radial)" stroke="#7B2C00" stroke-width="4"/>
<path d="M159.375 163.36C176.837 151.548 210.067 133.448 243.412 117.6C260.071 109.683 276.723 102.344 291.41 96.6462C306.133 90.9343 318.76 86.9193 327.42 85.5783C344.63 82.913 355.85 90.3377 358.646 98.5396C360.019 102.568 359.444 106.893 356.518 110.747C353.535 114.677 347.934 118.331 338.925 120.401C320.125 124.721 287.493 139.169 254.561 154.112C250.989 155.733 247.412 157.36 243.848 158.982C214.391 172.383 185.745 185.415 167.154 191.475C156.777 194.857 149.037 195.986 143.812 195.535C138.512 195.079 136.431 193.107 135.973 190.997C135.466 188.654 136.594 184.867 140.561 179.828C144.439 174.903 150.693 169.233 159.375 163.36Z" fill="url(#paint2_radial)" stroke="#7B2C00" stroke-width="4"/>
<path d="M82.543 234.36C100.005 222.548 133.235 204.448 166.58 188.6C183.239 180.683 199.891 173.344 214.578 167.646C229.301 161.934 241.928 157.919 250.588 156.578C267.798 153.913 279.018 161.338 281.814 169.54C283.187 173.568 282.612 177.893 279.686 181.747C276.703 185.677 271.102 189.331 262.093 191.401C243.292 195.721 210.661 210.169 177.729 225.112C174.157 226.733 170.58 228.36 167.016 229.982C137.559 243.383 108.913 256.415 90.3219 262.475C79.9448 265.857 72.2049 266.986 66.98 266.535C61.6803 266.079 59.5985 264.107 59.1413 261.997C58.6339 259.654 59.7617 255.867 63.7292 250.828C67.6075 245.903 73.8605 240.233 82.543 234.36Z" fill="url(#paint3_radial)" stroke="#7B2C00" stroke-width="4"/>
<path d="M194.862 217.725C212.324 205.914 245.554 187.814 278.898 171.966C295.557 164.049 312.209 156.71 326.897 151.012C341.619 145.3 354.247 141.285 362.906 139.944C380.117 137.279 391.337 144.703 394.133 152.905C395.506 156.934 394.931 161.259 392.005 165.113C389.022 169.042 383.421 172.697 374.412 174.767C355.611 179.087 322.98 193.535 290.048 208.478C286.476 210.099 282.899 211.726 279.335 213.348C249.878 226.749 221.232 239.781 202.641 245.841C192.264 249.223 184.524 250.351 179.299 249.901C173.999 249.445 171.917 247.473 171.46 245.362C170.953 243.02 172.081 239.233 176.048 234.194C179.926 229.269 186.179 223.598 194.862 217.725Z" fill="url(#paint4_radial)" stroke="#7B2C00" stroke-width="4"/>
<path d="M118.029 288.725C135.492 276.914 168.722 258.814 202.066 242.966C218.725 235.049 235.377 227.71 250.064 222.012C264.787 216.3 277.415 212.285 286.074 210.944C303.284 208.279 314.505 215.703 317.3 223.905C318.673 227.934 318.098 232.259 315.173 236.113C312.19 240.042 306.588 243.697 297.579 245.767C278.779 250.087 246.147 264.535 213.215 279.478C209.643 281.099 206.067 282.726 202.502 284.348C173.045 297.749 144.4 310.781 125.808 316.841C115.431 320.223 107.691 321.351 102.466 320.901C97.1667 320.445 95.0848 318.473 94.6277 316.362C94.1203 314.02 95.248 310.233 99.2155 305.194C103.094 300.269 109.347 294.598 118.029 288.725Z" fill="url(#paint5_radial)" stroke="#7B2C00" stroke-width="4"/>
<path d="M230.349 272.091C247.811 260.279 281.041 242.18 314.385 226.332C331.044 218.414 347.696 211.076 362.383 205.378C377.106 199.666 389.734 195.651 398.393 194.31C415.604 191.644 426.824 199.069 429.619 207.271C430.993 211.3 430.418 215.624 427.492 219.478C424.509 223.408 418.908 227.062 409.899 229.133C391.098 233.453 358.467 247.901 325.534 262.844C321.962 264.465 318.386 266.092 314.821 267.713C285.365 281.115 256.719 294.147 238.128 300.206C227.75 303.589 220.011 304.717 214.786 304.267C209.486 303.81 207.404 301.839 206.947 299.728C206.44 297.385 207.567 293.598 211.535 288.56C215.413 283.634 221.666 277.964 230.349 272.091Z" fill="url(#paint6_radial)" stroke="#7B2C00" stroke-width="4"/>
<path d="M153.516 343.091C170.978 331.279 204.208 313.18 237.553 297.332C254.212 289.414 270.864 282.076 285.551 276.378C300.274 270.666 312.901 266.651 321.561 265.31C338.771 262.644 349.991 270.069 352.787 278.271C354.16 282.3 353.585 286.624 350.659 290.478C347.676 294.408 342.075 298.062 333.066 300.133C314.266 304.453 281.634 318.901 248.702 333.844C245.13 335.465 241.553 337.092 237.989 338.713C208.532 352.115 179.887 365.147 161.295 371.206C150.918 374.589 143.178 375.717 137.953 375.267C132.653 374.81 130.572 372.839 130.114 370.728C129.607 368.385 130.735 364.598 134.702 359.56C138.581 354.634 144.834 348.964 153.516 343.091Z" fill="url(#paint7_radial)" stroke="#7B2C00" stroke-width="4"/>
<path d="M120.683 116.304C120.36 116.939 119.022 118.768 119.208 119.585C119.612 121.361 121.058 121.136 122.191 122.054C123.392 123.026 120.221 124.692 120.538 126.064C120.755 127.004 120.559 128.005 120.818 128.902C121.107 129.906 121.262 131.707 122.124 132.292C123.266 133.066 125.401 132.757 126.738 132.227C127.21 132.04 127.519 132.378 127.986 132.256C128.821 132.037 129.645 131.882 130.46 131.558C132.018 130.94 133.3 130.378 134.558 129.183C135.091 128.676 135.625 127.741 136.252 127.388C137.771 126.532 139.586 126.05 141.183 125.416C143.126 124.645 144.226 125.839 146.239 125.745C149.417 125.597 154.061 125.258 157.087 123.356C159.544 121.812 161.496 120.347 164.312 120.428C165.402 120.46 166.357 120.814 167.452 120.38C168.228 120.072 169.247 121.208 169.82 121.596" stroke="#D96565" stroke-linecap="round" stroke-linejoin="round"/>
<path d="M43.8503 187.304C43.5274 187.939 42.1891 189.768 42.3751 190.585C42.7798 192.361 44.225 192.136 45.3584 193.054C46.5591 194.026 43.3883 195.692 43.7051 197.064C43.9223 198.004 43.7267 199.005 43.9854 199.902C44.2748 200.906 44.4295 202.707 45.2913 203.292C46.4333 204.066 48.569 203.757 49.9053 203.227C50.378 203.04 50.6867 203.378 51.1538 203.256C51.9888 203.037 52.8126 202.882 53.6277 202.558C55.1859 201.94 56.4674 201.378 57.7251 200.183C58.2588 199.676 58.792 198.741 59.4192 198.388C60.9381 197.532 62.753 197.05 64.35 196.416C66.2937 195.645 67.3935 196.839 69.4062 196.745C72.5846 196.597 77.228 196.258 80.2541 194.356C82.7115 192.812 84.6632 191.347 87.4798 191.428C88.5693 191.46 89.5248 191.814 90.619 191.38C91.396 191.072 92.4143 192.208 92.9871 192.596" stroke="#D96565" stroke-linecap="round" stroke-linejoin="round"/>
<path d="M156.169 170.67C155.846 171.305 154.508 173.134 154.694 173.95C155.099 175.727 156.544 175.501 157.677 176.419C158.878 177.392 155.707 179.058 156.024 180.43C156.241 181.37 156.046 182.371 156.304 183.268C156.594 184.272 156.748 186.073 157.61 186.657C158.752 187.432 160.888 187.123 162.224 186.593C162.697 186.405 163.006 186.744 163.473 186.621C164.308 186.402 165.131 186.247 165.947 185.924C167.505 185.306 168.786 184.744 170.044 183.549C170.578 183.042 171.111 182.107 171.738 181.754C173.257 180.898 175.072 180.416 176.669 179.782C178.613 179.01 179.712 180.204 181.725 180.111C184.903 179.963 189.547 179.623 192.573 177.722C195.03 176.177 196.982 174.713 199.799 174.794C200.888 174.826 201.844 175.18 202.938 174.746C203.715 174.437 204.733 175.574 205.306 175.962" stroke="#D96565" stroke-linecap="round" stroke-linejoin="round"/>
<path d="M79.3371 241.67C79.0142 242.305 77.6759 244.134 77.8619 244.95C78.2666 246.727 79.7118 246.501 80.8453 247.419C82.0459 248.392 78.8751 250.058 79.1919 251.43C79.4091 252.37 79.2136 253.371 79.4722 254.268C79.7616 255.272 79.9163 257.073 80.7781 257.657C81.9202 258.432 84.0558 258.123 85.3921 257.593C85.8648 257.405 86.1735 257.744 86.6407 257.621C87.4756 257.402 88.2994 257.247 89.1146 256.924C90.6727 256.306 91.9542 255.744 93.2119 254.549C93.7456 254.042 94.2789 253.107 94.906 252.754C96.4249 251.898 98.2398 251.416 99.8369 250.782C101.78 250.01 102.88 251.204 104.893 251.111C108.071 250.963 112.715 250.623 115.741 248.722C118.198 247.177 120.15 245.713 122.967 245.794C124.056 245.826 125.012 246.18 126.106 245.746C126.883 245.437 127.901 246.574 128.474 246.962" stroke="#D96565" stroke-linecap="round" stroke-linejoin="round"/>
<path d="M191.656 225.036C191.334 225.671 189.995 227.5 190.181 228.316C190.586 230.092 192.031 229.867 193.165 230.785C194.365 231.758 191.194 233.424 191.511 234.795C191.728 235.736 191.533 236.737 191.792 237.634C192.081 238.638 192.236 240.439 193.097 241.023C194.239 241.797 196.375 241.489 197.711 240.959C198.184 240.771 198.493 241.11 198.96 240.987C199.795 240.768 200.619 240.613 201.434 240.29C202.992 239.671 204.274 239.11 205.531 237.915C206.065 237.408 206.598 236.473 207.225 236.12C208.744 235.264 210.559 234.781 212.156 234.148C214.1 233.376 215.2 234.57 217.212 234.476C220.391 234.328 225.034 233.989 228.06 232.087C230.518 230.543 232.469 229.078 235.286 229.16C236.375 229.191 237.331 229.546 238.425 229.112C239.202 228.803 240.22 229.939 240.793 230.328" stroke="#D96565" stroke-linecap="round" stroke-linejoin="round"/>
<path d="M114.824 296.036C114.501 296.671 113.163 298.5 113.349 299.316C113.753 301.092 115.199 300.867 116.332 301.785C117.533 302.758 114.362 304.424 114.679 305.795C114.896 306.736 114.7 307.737 114.959 308.634C115.248 309.638 115.403 311.439 116.265 312.023C117.407 312.797 119.543 312.489 120.879 311.959C121.352 311.771 121.66 312.11 122.127 311.987C122.962 311.768 123.786 311.613 124.601 311.29C126.16 310.671 127.441 310.11 128.699 308.915C129.232 308.408 129.766 307.473 130.393 307.12C131.912 306.264 133.727 305.781 135.324 305.148C137.267 304.376 138.367 305.57 140.38 305.476C143.558 305.328 148.202 304.989 151.228 303.087C153.685 301.543 155.637 300.078 158.453 300.16C159.543 300.191 160.498 300.546 161.593 300.112C162.37 299.803 163.388 300.939 163.961 301.328" stroke="#D96565" stroke-linecap="round" stroke-linejoin="round"/>
<path d="M227.143 279.401C226.82 280.036 225.482 281.865 225.668 282.682C226.072 284.458 227.517 284.233 228.651 285.151C229.852 286.123 226.681 287.789 226.998 289.161C227.215 290.102 227.019 291.102 227.278 291.999C227.567 293.003 227.722 294.805 228.584 295.389C229.726 296.163 231.861 295.855 233.198 295.324C233.67 295.137 233.979 295.475 234.446 295.353C235.281 295.134 236.105 294.979 236.92 294.655C238.478 294.037 239.76 293.475 241.018 292.281C241.551 291.774 242.085 290.839 242.712 290.485C244.231 289.63 246.046 289.147 247.643 288.513C249.586 287.742 250.686 288.936 252.699 288.842C255.877 288.694 260.52 288.355 263.547 286.453C266.004 284.909 267.956 283.444 270.772 283.526C271.862 283.557 272.817 283.912 273.912 283.477C274.688 283.169 275.707 284.305 276.28 284.694" stroke="#D96565" stroke-linecap="round" stroke-linejoin="round"/>
<path d="M150.311 350.401C149.988 351.036 148.65 352.865 148.836 353.682C149.24 355.458 150.685 355.233 151.819 356.151C153.02 357.123 149.849 358.789 150.166 360.161C150.383 361.102 150.187 362.102 150.446 362.999C150.735 364.003 150.89 365.805 151.752 366.389C152.894 367.163 155.029 366.855 156.366 366.324C156.838 366.137 157.147 366.475 157.614 366.353C158.449 366.134 159.273 365.979 160.088 365.655C161.646 365.037 162.928 364.475 164.186 363.281C164.719 362.774 165.252 361.839 165.88 361.485C167.399 360.63 169.213 360.147 170.81 359.513C172.754 358.742 173.854 359.936 175.867 359.842C179.045 359.694 183.688 359.355 186.715 357.453C189.172 355.909 191.124 354.444 193.94 354.526C195.03 354.557 195.985 354.912 197.079 354.477C197.856 354.169 198.875 355.305 199.448 355.694" stroke="#D96565" stroke-linecap="round" stroke-linejoin="round"/>
<path d="M122.807 122.037C124.634 121.312 126.462 120.586 128.29 119.861C130.256 119.08 131.748 119.142 132.579 116.765C133.11 115.247 131.922 113.101 131.527 111.733C131.105 110.269 131.96 109.647 132.763 108.648" stroke="#D96565" stroke-linecap="round" stroke-linejoin="round"/>
<path d="M45.974 193.037C47.802 192.312 49.6299 191.586 51.4579 190.861C53.4237 190.08 54.9156 190.142 55.7467 187.765C56.2776 186.247 55.0891 184.101 54.6945 182.733C54.2726 181.269 55.1278 180.647 55.931 179.648" stroke="#D96565" stroke-linecap="round" stroke-linejoin="round"/>
<path d="M158.294 176.403C160.122 175.677 161.95 174.952 163.778 174.226C165.744 173.446 167.235 173.508 168.067 171.131C168.597 169.612 167.409 167.467 167.014 166.099C166.592 164.635 167.448 164.013 168.251 163.014" stroke="#D96565" stroke-linecap="round" stroke-linejoin="round"/>
<path d="M81.4613 247.403C83.2893 246.677 85.1172 245.952 86.9452 245.226C88.911 244.446 90.4029 244.508 91.234 242.131C91.7649 240.612 90.5764 238.467 90.1818 237.099C89.7599 235.635 90.6151 235.013 91.4183 234.014" stroke="#D96565" stroke-linecap="round" stroke-linejoin="round"/>
<path d="M193.78 230.769C195.608 230.043 197.436 229.318 199.264 228.592C201.229 227.812 202.721 227.873 203.552 225.496C204.083 223.978 202.895 221.833 202.5 220.464C202.078 219.001 202.933 218.378 203.737 217.38" stroke="#D96565" stroke-linecap="round" stroke-linejoin="round"/>
<path d="M116.948 301.769C118.776 301.043 120.604 300.318 122.431 299.592C124.397 298.812 125.889 298.873 126.72 296.496C127.251 294.978 126.063 292.833 125.668 291.464C125.246 290.001 126.101 289.378 126.905 288.38" stroke="#D96565" stroke-linecap="round" stroke-linejoin="round"/>
<path d="M229.266 285.134C231.094 284.409 232.922 283.683 234.75 282.958C236.716 282.178 238.208 282.239 239.039 279.862C239.57 278.344 238.382 276.199 237.987 274.83C237.565 273.366 238.42 272.744 239.223 271.746" stroke="#D96565" stroke-linecap="round" stroke-linejoin="round"/>
<path d="M152.434 356.134C154.262 355.409 156.09 354.683 157.918 353.958C159.884 353.178 161.376 353.239 162.207 350.862C162.738 349.344 161.549 347.199 161.155 345.83C160.733 344.366 161.588 343.744 162.391 342.746" stroke="#D96565" stroke-linecap="round" stroke-linejoin="round"/>
<path d="M150.03 93.2127C152.25 95.1934 150.848 97.9259 151.589 100.496C151.736 101.006 151.877 102.357 152.569 102.384C153.562 102.422 154.695 101.838 155.641 101.432C158.229 100.323 157.511 97.2077 159.71 96.335C160.722 95.9333 161.724 95.3202 162.744 95.6666C163.688 95.9874 164.765 95.6952 165.302 94.651" stroke="#D96565" stroke-linecap="round" stroke-linejoin="round"/>
<path d="M73.1977 164.213C75.4181 166.193 74.0162 168.926 74.757 171.496C74.9041 172.006 75.0448 173.357 75.7366 173.384C76.7304 173.422 77.8629 172.838 78.809 172.432C81.3966 171.323 80.679 168.208 82.8776 167.335C83.8899 166.933 84.8921 166.32 85.9116 166.667C86.8563 166.987 87.9333 166.695 88.4704 165.651" stroke="#D96565" stroke-linecap="round" stroke-linejoin="round"/>
<path d="M185.517 147.578C187.737 149.559 186.335 152.292 187.076 154.861C187.223 155.372 187.364 156.722 188.055 156.749C189.049 156.788 190.182 156.203 191.128 155.798C193.715 154.688 192.998 151.573 195.196 150.701C196.209 150.299 197.211 149.686 198.23 150.032C199.175 150.353 200.252 150.061 200.789 149.017" stroke="#D96565" stroke-linecap="round" stroke-linejoin="round"/>
<path d="M108.684 218.578C110.904 220.559 109.503 223.292 110.243 225.861C110.39 226.372 110.531 227.722 111.223 227.749C112.217 227.788 113.349 227.203 114.295 226.798C116.883 225.688 116.165 222.573 118.364 221.701C119.376 221.299 120.378 220.686 121.398 221.032C122.343 221.353 123.42 221.061 123.957 220.017" stroke="#D96565" stroke-linecap="round" stroke-linejoin="round"/>
<path d="M221.003 201.944C223.224 203.925 221.822 206.657 222.563 209.227C222.71 209.737 222.85 211.088 223.542 211.115C224.536 211.154 225.669 210.569 226.615 210.164C229.202 209.054 228.485 205.939 230.683 205.067C231.696 204.665 232.698 204.052 233.717 204.398C234.662 204.719 235.739 204.427 236.276 203.383" stroke="#D96565" stroke-linecap="round" stroke-linejoin="round"/>
<path d="M144.171 272.944C146.391 274.925 144.989 277.657 145.73 280.227C145.877 280.737 146.018 282.088 146.71 282.115C147.704 282.154 148.836 281.569 149.782 281.164C152.37 280.054 151.652 276.939 153.851 276.067C154.863 275.665 155.865 275.052 156.885 275.398C157.829 275.719 158.906 275.427 159.444 274.383" stroke="#D96565" stroke-linecap="round" stroke-linejoin="round"/>
<path d="M256.49 256.31C258.71 258.291 257.308 261.023 258.049 263.593C258.196 264.103 258.337 265.454 259.029 265.481C260.022 265.519 261.155 264.935 262.101 264.529C264.689 263.42 263.971 260.305 266.17 259.432C267.182 259.031 268.184 258.418 269.204 258.764C270.148 259.085 271.225 258.793 271.762 257.748" stroke="#D96565" stroke-linecap="round" stroke-linejoin="round"/>
<path d="M179.658 327.31C181.878 329.291 180.476 332.023 181.217 334.593C181.364 335.103 181.505 336.454 182.197 336.481C183.19 336.519 184.323 335.935 185.269 335.529C187.857 334.42 187.139 331.305 189.338 330.432C190.35 330.031 191.352 329.418 192.372 329.764C193.316 330.085 194.393 329.793 194.93 328.748" stroke="#D96565" stroke-linecap="round" stroke-linejoin="round"/>
<path d="M157.078 99.9518C158.848 102.007 158.394 104.517 159.107 106.99C159.678 108.972 161.432 110.621 163.931 109.629" stroke="#D96565" stroke-linecap="round" stroke-linejoin="round"/>
<path d="M80.2451 170.952C82.015 173.007 81.5612 175.517 82.2741 177.99C82.8456 179.972 84.5999 181.621 87.0987 180.629" stroke="#D96565" stroke-linecap="round" stroke-linejoin="round"/>
<path d="M192.564 154.318C194.334 156.373 193.88 158.883 194.593 161.355C195.164 163.338 196.919 164.986 199.418 163.995" stroke="#D96565" stroke-linecap="round" stroke-linejoin="round"/>
<path d="M115.732 225.318C117.502 227.373 117.048 229.883 117.761 232.355C118.332 234.338 120.087 235.986 122.586 234.995" stroke="#D96565" stroke-linecap="round" stroke-linejoin="round"/>
<path d="M228.051 208.683C229.821 210.739 229.367 213.248 230.08 215.721C230.651 217.704 232.406 219.352 234.904 218.36" stroke="#D96565" stroke-linecap="round" stroke-linejoin="round"/>
<path d="M151.218 279.683C152.988 281.739 152.534 284.248 153.247 286.721C153.819 288.704 155.573 290.352 158.072 289.36" stroke="#D96565" stroke-linecap="round" stroke-linejoin="round"/>
<path d="M263.537 263.049C265.307 265.105 264.853 267.614 265.566 270.087C266.138 272.069 267.892 273.718 270.391 272.726" stroke="#D96565" stroke-linecap="round" stroke-linejoin="round"/>
<path d="M186.705 334.049C188.475 336.105 188.021 338.614 188.734 341.087C189.305 343.069 191.059 344.718 193.558 343.726" stroke="#D96565" stroke-linecap="round" stroke-linejoin="round"/>
<path d="M158.558 105.089C160.497 104.319 162.002 103.622 163.97 103.861C164.671 103.946 165.392 104.307 165.869 104.773C166.731 105.613 168.811 105.078 169.937 104.984C170.901 104.904 172.933 104.052 173.641 104.888C174.011 105.324 175.311 105.933 175.847 105.853" stroke="#D96565" stroke-linecap="round" stroke-linejoin="round"/>
<path d="M81.7258 176.089C83.6649 175.319 85.17 174.622 87.1377 174.861C87.8382 174.946 88.56 175.307 89.037 175.773C89.898 176.613 91.9785 176.078 93.105 175.984C94.068 175.904 96.1 175.052 96.8088 175.888C97.1787 176.324 98.4781 176.933 99.0142 176.853" stroke="#D96565" stroke-linecap="round" stroke-linejoin="round"/>
<path d="M194.045 159.454C195.984 158.685 197.489 157.987 199.457 158.227C200.158 158.312 200.879 158.673 201.356 159.138C202.217 159.979 204.298 159.444 205.424 159.35C206.387 159.27 208.419 158.418 209.128 159.253C209.498 159.69 210.797 160.298 211.334 160.219" stroke="#D96565" stroke-linecap="round" stroke-linejoin="round"/>
<path d="M117.213 230.454C119.152 229.685 120.657 228.987 122.624 229.227C123.325 229.312 124.047 229.673 124.524 230.138C125.385 230.979 127.465 230.444 128.592 230.35C129.555 230.27 131.587 229.418 132.296 230.253C132.666 230.69 133.965 231.298 134.501 231.219" stroke="#D96565" stroke-linecap="round" stroke-linejoin="round"/>
<path d="M229.531 213.82C231.471 213.05 232.976 212.353 234.943 212.592C235.644 212.678 236.366 213.039 236.843 213.504C237.704 214.345 239.784 213.81 240.911 213.716C241.874 213.636 243.906 212.783 244.614 213.619C244.984 214.055 246.284 214.664 246.82 214.585" stroke="#D96565" stroke-linecap="round" stroke-linejoin="round"/>
<path d="M152.699 284.82C154.639 284.05 156.144 283.353 158.111 283.592C158.812 283.678 159.534 284.039 160.011 284.504C160.872 285.345 162.952 284.81 164.079 284.716C165.042 284.636 167.074 283.783 167.782 284.619C168.152 285.055 169.452 285.664 169.988 285.585" stroke="#D96565" stroke-linecap="round" stroke-linejoin="round"/>
<path d="M265.018 268.186C266.957 267.416 268.462 266.719 270.43 266.958C271.131 267.043 271.852 267.404 272.329 267.87C273.191 268.71 275.271 268.176 276.397 268.082C277.36 268.001 279.392 267.149 280.101 267.985C280.471 268.421 281.771 269.03 282.307 268.951" stroke="#D96565" stroke-linecap="round" stroke-linejoin="round"/>
<path d="M188.186 339.186C190.125 338.416 191.63 337.719 193.598 337.958C194.298 338.043 195.02 338.404 195.497 338.87C196.358 339.71 198.438 339.176 199.565 339.082C200.528 339.001 202.56 338.149 203.269 338.985C203.639 339.421 204.938 340.03 205.474 339.951" stroke="#D96565" stroke-linecap="round" stroke-linejoin="round"/>
<path d="M203.552 98.6714C201.476 98.0603 201.718 96.9818 200.763 95.3312C200.494 94.867 200.25 94.0897 200.246 93.5367C200.236 92.4194 201.671 91.7745 201.518 90.7334C201.151 88.2317 198.824 87.0783 196.845 86.1559C195.703 85.6232 194.872 84.4531 194.508 83.1885" stroke="#D96565" stroke-linecap="round" stroke-linejoin="round"/>
<path d="M126.72 169.671C124.643 169.06 124.886 167.982 123.931 166.331C123.662 165.867 123.418 165.09 123.414 164.537C123.404 163.419 124.839 162.775 124.686 161.733C124.319 159.232 121.992 158.078 120.013 157.156C118.871 156.623 118.04 155.453 117.676 154.188" stroke="#D96565" stroke-linecap="round" stroke-linejoin="round"/>
<path d="M239.039 153.037C236.962 152.426 237.205 151.348 236.25 149.697C235.981 149.233 235.737 148.455 235.732 147.902C235.723 146.785 237.158 146.14 237.005 145.099C236.638 142.597 234.311 141.444 232.332 140.522C231.189 139.989 230.359 138.819 229.995 137.554" stroke="#D96565" stroke-linecap="round" stroke-linejoin="round"/>
<path d="M162.207 224.037C160.13 223.426 160.372 222.348 159.417 220.697C159.149 220.233 158.905 219.455 158.9 218.902C158.89 217.785 160.325 217.14 160.173 216.099C159.805 213.597 157.479 212.444 155.5 211.522C154.357 210.989 153.527 209.819 153.162 208.554" stroke="#D96565" stroke-linecap="round" stroke-linejoin="round"/>
<path d="M274.526 207.403C272.449 206.792 272.691 205.713 271.737 204.063C271.468 203.598 271.224 202.821 271.219 202.268C271.21 201.151 272.645 200.506 272.492 199.465C272.125 196.963 269.798 195.81 267.819 194.887C266.676 194.355 265.846 193.185 265.481 191.92" stroke="#D96565" stroke-linecap="round" stroke-linejoin="round"/>
<path d="M197.693 278.403C195.617 277.792 195.859 276.713 194.904 275.063C194.636 274.598 194.392 273.821 194.387 273.268C194.377 272.151 195.812 271.506 195.659 270.465C195.292 267.963 192.966 266.81 190.986 265.887C189.844 265.355 189.014 264.185 188.649 262.92" stroke="#D96565" stroke-linecap="round" stroke-linejoin="round"/>
<path d="M310.012 261.769C307.935 261.158 308.178 260.079 307.223 258.428C306.954 257.964 306.71 257.187 306.706 256.634C306.696 255.517 308.131 254.872 307.978 253.831C307.611 251.329 305.284 250.176 303.305 249.253C302.163 248.721 301.332 247.55 300.968 246.286" stroke="#D96565" stroke-linecap="round" stroke-linejoin="round"/>
<path d="M233.18 332.769C231.103 332.158 231.346 331.079 230.391 329.428C230.122 328.964 229.878 328.187 229.874 327.634C229.864 326.517 231.299 325.872 231.146 324.831C230.779 322.329 228.452 321.176 226.473 320.253C225.33 319.721 224.5 318.55 224.136 317.286" stroke="#D96565" stroke-linecap="round" stroke-linejoin="round"/>
<path d="M200.611 87.4418C200.678 85.8478 200.452 84.5765 201.869 83.6194C203.017 82.8431 203.777 82.7055 204.292 81.2128C204.651 80.1711 205.976 77.8588 205.684 76.8458" stroke="#D96565" stroke-linecap="round" stroke-linejoin="round"/>
<path d="M123.778 158.442C123.846 156.848 123.62 155.576 125.036 154.619C126.185 153.843 126.945 153.706 127.459 152.213C127.818 151.171 129.143 148.859 128.851 147.846" stroke="#D96565" stroke-linecap="round" stroke-linejoin="round"/>
<path d="M236.098 141.808C236.165 140.214 235.939 138.942 237.355 137.985C238.504 137.209 239.264 137.071 239.779 135.579C240.138 134.537 241.463 132.225 241.171 131.212" stroke="#D96565" stroke-linecap="round" stroke-linejoin="round"/>
<path d="M159.265 212.808C159.332 211.214 159.107 209.942 160.523 208.985C161.672 208.209 162.432 208.071 162.946 206.579C163.305 205.537 164.63 203.225 164.338 202.212" stroke="#D96565" stroke-linecap="round" stroke-linejoin="round"/>
<path d="M271.584 196.173C271.651 194.579 271.426 193.308 272.842 192.351C273.99 191.575 274.751 191.437 275.265 189.944C275.624 188.903 276.949 186.59 276.657 185.577" stroke="#D96565" stroke-linecap="round" stroke-linejoin="round"/>
<path d="M194.752 267.173C194.819 265.579 194.593 264.308 196.009 263.351C197.158 262.575 197.918 262.437 198.432 260.944C198.791 259.903 200.116 257.59 199.824 256.577" stroke="#D96565" stroke-linecap="round" stroke-linejoin="round"/>
<path d="M307.071 250.539C307.138 248.945 306.912 247.674 308.329 246.717C309.477 245.94 310.237 245.803 310.752 244.31C311.111 243.268 312.436 240.956 312.144 239.943" stroke="#D96565" stroke-linecap="round" stroke-linejoin="round"/>
<path d="M230.238 321.539C230.305 319.945 230.08 318.674 231.496 317.717C232.645 316.94 233.405 316.803 233.919 315.31C234.278 314.268 235.603 311.956 235.311 310.943" stroke="#D96565" stroke-linecap="round" stroke-linejoin="round"/>
<path d="M203.828 79.4898C203.008 78.2557 202.424 77.8534 201.867 76.4818C201.52 75.6273 201.103 75.0494 200.821 74.0715C200.255 72.1074 200.125 70.6413 201.029 69.1569" stroke="#D96565" stroke-linecap="round" stroke-linejoin="round"/>
<path d="M126.995 150.49C126.176 149.256 125.591 148.853 125.034 147.482C124.687 146.627 124.27 146.049 123.988 145.071C123.422 143.107 123.293 141.641 124.197 140.157" stroke="#D96565" stroke-linecap="round" stroke-linejoin="round"/>
<path d="M239.314 133.856C238.494 132.621 237.91 132.219 237.353 130.848C237.006 129.993 236.589 129.415 236.307 128.437C235.74 126.473 235.611 125.007 236.515 123.523" stroke="#D96565" stroke-linecap="round" stroke-linejoin="round"/>
<path d="M162.482 204.856C161.662 203.621 161.078 203.219 160.521 201.848C160.174 200.993 159.756 200.415 159.475 199.437C158.908 197.473 158.779 196.007 159.683 194.523" stroke="#D96565" stroke-linecap="round" stroke-linejoin="round"/>
<path d="M274.8 188.221C273.981 186.987 273.396 186.585 272.839 185.213C272.492 184.359 272.075 183.781 271.793 182.803C271.227 180.839 271.098 179.373 272.002 177.888" stroke="#D96565" stroke-linecap="round" stroke-linejoin="round"/>
<path d="M197.968 259.221C197.148 257.987 196.564 257.585 196.007 256.213C195.66 255.359 195.243 254.781 194.961 253.803C194.395 251.839 194.265 250.373 195.17 248.888" stroke="#D96565" stroke-linecap="round" stroke-linejoin="round"/>
<path d="M310.287 242.587C309.468 241.353 308.883 240.951 308.326 239.579C307.979 238.725 307.562 238.147 307.28 237.169C306.714 235.205 306.585 233.739 307.489 232.254" stroke="#D96565" stroke-linecap="round" stroke-linejoin="round"/>
<path d="M233.455 313.587C232.635 312.353 232.051 311.951 231.494 310.579C231.147 309.725 230.73 309.147 230.448 308.169C229.881 306.205 229.752 304.739 230.656 303.254" stroke="#D96565" stroke-linecap="round" stroke-linejoin="round"/>
<path d="M231.423 59.0005C233.621 58.7323 235.196 57.706 237.221 56.9644C239.046 56.2956 241.646 57.2956 243.057 58.342C244.97 59.7613 242.106 63.1841 244.228 64.2495C245.149 64.7119 246.14 64.5342 247.143 64.6228C248.192 64.7154 249.359 65.8394 249.976 66.6039C250.536 67.298 251.184 67.7348 251.244 68.7493C251.277 69.2918 250.027 70.8362 249.418 70.8723C247.194 71.0042 245.058 72.1319 242.904 72.9867C242.001 73.3453 242.2 74.5549 241.661 75.187C241.188 75.7427 240.552 76.2856 240.024 76.8376C239.337 77.5557 239.533 77.902 239.772 78.7329C239.897 79.166 240.082 80.6703 240.525 80.8328C241.865 81.3237 242.838 83.0789 244.315 82.493" stroke="#D96565" stroke-linecap="round" stroke-linejoin="round"/>
<path d="M154.591 130C156.789 129.732 158.364 128.706 160.389 127.964C162.214 127.296 164.814 128.296 166.225 129.342C168.138 130.761 165.274 134.184 167.396 135.25C168.317 135.712 169.308 135.534 170.311 135.623C171.36 135.715 172.527 136.839 173.144 137.604C173.704 138.298 174.352 138.735 174.412 139.749C174.445 140.292 173.195 141.836 172.586 141.872C170.362 142.004 168.226 143.132 166.072 143.987C165.168 144.345 165.368 145.555 164.829 146.187C164.356 146.743 163.72 147.286 163.192 147.838C162.505 148.556 162.701 148.902 162.94 149.733C163.065 150.166 163.25 151.67 163.693 151.833C165.033 152.324 166.006 154.079 167.483 153.493" stroke="#D96565" stroke-linecap="round" stroke-linejoin="round"/>
<path d="M266.91 113.366C269.108 113.098 270.683 112.072 272.708 111.33C274.533 110.661 277.133 111.661 278.543 112.708C280.457 114.127 277.593 117.55 279.715 118.615C280.635 119.078 281.627 118.9 282.63 118.989C283.679 119.081 284.845 120.205 285.462 120.97C286.023 121.664 286.671 122.101 286.731 123.115C286.764 123.658 285.514 125.202 284.905 125.238C282.681 125.37 280.545 126.498 278.391 127.352C277.487 127.711 277.687 128.921 277.148 129.553C276.675 130.108 276.039 130.651 275.511 131.203C274.823 131.921 275.02 132.268 275.259 133.099C275.384 133.532 275.569 135.036 276.012 135.199C277.352 135.689 278.325 137.445 279.801 136.859" stroke="#D96565" stroke-linecap="round" stroke-linejoin="round"/>
<path d="M190.078 184.366C192.275 184.098 193.851 183.072 195.875 182.33C197.701 181.661 200.3 182.661 201.711 183.708C203.624 185.127 200.76 188.55 202.882 189.615C203.803 190.078 204.794 189.9 205.798 189.989C206.846 190.081 208.013 191.205 208.63 191.97C209.19 192.664 209.838 193.101 209.899 194.115C209.931 194.658 208.681 196.202 208.072 196.238C205.848 196.37 203.712 197.498 201.558 198.352C200.655 198.711 200.854 199.921 200.316 200.553C199.843 201.108 199.207 201.651 198.678 202.203C197.991 202.921 198.187 203.268 198.427 204.099C198.551 204.532 198.736 206.036 199.18 206.199C200.519 206.689 201.493 208.445 202.969 207.859" stroke="#D96565" stroke-linecap="round" stroke-linejoin="round"/>
<path d="M302.397 167.732C304.595 167.464 306.17 166.438 308.194 165.696C310.02 165.027 312.62 166.027 314.03 167.074C315.944 168.493 313.079 171.916 315.201 172.981C316.122 173.443 317.114 173.266 318.117 173.354C319.166 173.447 320.332 174.571 320.949 175.335C321.51 176.03 322.157 176.466 322.218 177.481C322.251 178.023 321.001 179.568 320.392 179.604C318.167 179.736 316.031 180.863 313.878 181.718C312.974 182.077 313.173 183.286 312.635 183.919C312.162 184.474 311.526 185.017 310.998 185.569C310.31 186.287 310.506 186.634 310.746 187.464C310.871 187.898 311.056 189.402 311.499 189.564C312.839 190.055 313.812 191.81 315.288 191.225" stroke="#D96565" stroke-linecap="round" stroke-linejoin="round"/>
<path d="M225.564 238.732C227.762 238.464 229.337 237.438 231.362 236.696C233.188 236.027 235.787 237.027 237.198 238.074C239.111 239.493 236.247 242.916 238.369 243.981C239.29 244.443 240.281 244.266 241.284 244.354C242.333 244.447 243.5 245.571 244.117 246.335C244.677 247.03 245.325 247.466 245.386 248.481C245.418 249.023 244.168 250.568 243.559 250.604C241.335 250.736 239.199 251.863 237.045 252.718C236.142 253.077 236.341 254.286 235.803 254.919C235.329 255.474 234.693 256.017 234.165 256.569C233.478 257.287 233.674 257.634 233.913 258.464C234.038 258.898 234.223 260.402 234.667 260.564C236.006 261.055 236.979 262.81 238.456 262.225" stroke="#D96565" stroke-linecap="round" stroke-linejoin="round"/>
<path d="M337.883 222.098C340.081 221.83 341.656 220.803 343.68 220.062C345.506 219.393 348.105 220.393 349.516 221.439C351.43 222.859 348.565 226.281 350.687 227.347C351.608 227.809 352.599 227.632 353.603 227.72C354.652 227.813 355.818 228.937 356.435 229.701C356.995 230.395 357.643 230.832 357.704 231.847C357.736 232.389 356.487 233.933 355.877 233.97C353.653 234.101 351.517 235.229 349.364 236.084C348.46 236.443 348.659 237.652 348.121 238.284C347.648 238.84 347.012 239.383 346.483 239.935C345.796 240.653 345.992 240.999 346.232 241.83C346.357 242.263 346.542 243.768 346.985 243.93C348.324 244.421 349.298 246.176 350.774 245.59" stroke="#D96565" stroke-linecap="round" stroke-linejoin="round"/>
<path d="M261.051 293.098C263.249 292.83 264.824 291.803 266.848 291.062C268.674 290.393 271.273 291.393 272.684 292.439C274.598 293.859 271.733 297.281 273.855 298.347C274.776 298.809 275.767 298.632 276.771 298.72C277.82 298.813 278.986 299.937 279.603 300.701C280.163 301.395 280.811 301.832 280.872 302.847C280.904 303.389 279.655 304.933 279.045 304.97C276.821 305.101 274.685 306.229 272.532 307.084C271.628 307.443 271.827 308.652 271.289 309.284C270.816 309.84 270.18 310.383 269.651 310.935C268.964 311.653 269.16 311.999 269.4 312.83C269.525 313.263 269.709 314.768 270.153 314.93C271.492 315.421 272.466 317.176 273.942 316.59" stroke="#D96565" stroke-linecap="round" stroke-linejoin="round"/>
<path d="M242.192 73.7992C243.442 73.8408 244.751 73.6513 245.161 75.0734C245.337 75.6846 245.513 76.2958 245.689 76.9071C246.069 78.2233 248.517 76.6608 249.507 76.6179" stroke="#D96565" stroke-linecap="round" stroke-linejoin="round"/>
<path d="M165.36 144.799C166.609 144.841 167.918 144.651 168.328 146.073C168.504 146.685 168.68 147.296 168.857 147.907C169.236 149.223 171.684 147.661 172.675 147.618" stroke="#D96565" stroke-linecap="round" stroke-linejoin="round"/>
<path d="M277.679 128.165C278.928 128.207 280.237 128.017 280.647 129.439C280.824 130.05 281 130.662 281.176 131.273C281.555 132.589 284.004 131.027 284.994 130.984" stroke="#D96565" stroke-linecap="round" stroke-linejoin="round"/>
<path d="M200.847 199.165C202.096 199.207 203.405 199.017 203.815 200.439C203.991 201.05 204.167 201.662 204.343 202.273C204.723 203.589 207.171 202.027 208.161 201.984" stroke="#D96565" stroke-linecap="round" stroke-linejoin="round"/>
<path d="M313.166 182.531C314.415 182.572 315.724 182.383 316.134 183.805C316.31 184.416 316.487 185.027 316.663 185.639C317.042 186.955 319.491 185.392 320.481 185.349" stroke="#D96565" stroke-linecap="round" stroke-linejoin="round"/>
<path d="M236.333 253.531C237.583 253.572 238.892 253.383 239.302 254.805C239.478 255.416 239.654 256.027 239.83 256.639C240.21 257.955 242.658 256.392 243.648 256.349" stroke="#D96565" stroke-linecap="round" stroke-linejoin="round"/>
<path d="M348.652 236.897C349.902 236.938 351.211 236.749 351.62 238.171C351.797 238.782 351.973 239.393 352.149 240.004C352.529 241.321 354.977 239.758 355.967 239.715" stroke="#D96565" stroke-linecap="round" stroke-linejoin="round"/>
<path d="M271.82 307.897C273.069 307.938 274.378 307.749 274.788 309.171C274.964 309.782 275.14 310.393 275.317 311.004C275.696 312.321 278.144 310.758 279.134 310.715" stroke="#D96565" stroke-linecap="round" stroke-linejoin="round"/>
<path d="M248.048 77.1969C246.977 78.9969 247.588 81.2395 248.07 82.9101" stroke="#D96565" stroke-linecap="round" stroke-linejoin="round"/>
<path d="M171.216 148.197C170.144 149.997 170.756 152.239 171.238 153.91" stroke="#D96565" stroke-linecap="round" stroke-linejoin="round"/>
<path d="M283.535 131.563C282.464 133.363 283.075 135.605 283.557 137.276" stroke="#D96565" stroke-linecap="round" stroke-linejoin="round"/>
<path d="M206.703 202.563C205.631 204.363 206.243 206.605 206.724 208.276" stroke="#D96565" stroke-linecap="round" stroke-linejoin="round"/>
<path d="M319.021 185.928C317.949 187.728 318.561 189.971 319.043 191.642" stroke="#D96565" stroke-linecap="round" stroke-linejoin="round"/>
<path d="M242.189 256.928C241.117 258.728 241.729 260.971 242.211 262.642" stroke="#D96565" stroke-linecap="round" stroke-linejoin="round"/>
<path d="M354.508 240.294C353.436 242.094 354.048 244.337 354.53 246.007" stroke="#D96565" stroke-linecap="round" stroke-linejoin="round"/>
<path d="M277.675 311.294C276.604 313.094 277.215 315.337 277.697 317.007" stroke="#D96565" stroke-linecap="round" stroke-linejoin="round"/>
<path d="M243.843 59.7929C244.231 58.6429 244.293 57.6843 245.149 56.8357C245.713 56.2761 246.766 56.0653 247.479 55.7823C248.803 55.2569 249.01 52.343 248.68 51.1978" stroke="#D96565" stroke-linecap="round" stroke-linejoin="round"/>
<path d="M167.011 130.793C167.399 129.643 167.461 128.684 168.317 127.836C168.881 127.276 169.934 127.065 170.647 126.782C171.971 126.257 172.178 123.343 171.848 122.198" stroke="#D96565" stroke-linecap="round" stroke-linejoin="round"/>
<path d="M279.33 114.159C279.718 113.009 279.78 112.05 280.635 111.201C281.2 110.642 282.253 110.431 282.966 110.148C284.29 109.623 284.497 106.709 284.167 105.564" stroke="#D96565" stroke-linecap="round" stroke-linejoin="round"/>
<path d="M202.497 185.159C202.885 184.009 202.947 183.05 203.803 182.201C204.367 181.642 205.421 181.431 206.134 181.148C207.457 180.623 207.664 177.709 207.334 176.564" stroke="#D96565" stroke-linecap="round" stroke-linejoin="round"/>
<path d="M314.817 168.524C315.205 167.374 315.267 166.416 316.122 165.567C316.686 165.008 317.74 164.797 318.453 164.514C319.777 163.988 319.984 161.074 319.654 159.929" stroke="#D96565" stroke-linecap="round" stroke-linejoin="round"/>
<path d="M237.984 239.524C238.372 238.374 238.434 237.416 239.29 236.567C239.854 236.008 240.907 235.797 241.62 235.514C242.944 234.988 243.151 232.074 242.821 230.929" stroke="#D96565" stroke-linecap="round" stroke-linejoin="round"/>
<path d="M350.303 222.89C350.691 221.74 350.753 220.782 351.609 219.933C352.173 219.373 353.226 219.163 353.939 218.88C355.263 218.354 355.47 215.44 355.14 214.295" stroke="#D96565" stroke-linecap="round" stroke-linejoin="round"/>
<path d="M273.471 293.89C273.859 292.74 273.921 291.782 274.777 290.933C275.341 290.373 276.394 290.163 277.107 289.88C278.431 289.354 278.638 286.44 278.308 285.295" stroke="#D96565" stroke-linecap="round" stroke-linejoin="round"/>
<path d="M246.75 55.7785C246.196 54.0124 245.319 53.8222 243.818 54.4179C243.4 54.5835 242.012 53.4416 241.87 52.9472" stroke="#D96565" stroke-linecap="round" stroke-linejoin="round"/>
<path d="M169.918 126.779C169.364 125.012 168.487 124.822 166.986 125.418C166.568 125.583 165.18 124.442 165.038 123.947" stroke="#D96565" stroke-linecap="round" stroke-linejoin="round"/>
<path d="M282.236 110.144C281.682 108.378 280.805 108.188 279.304 108.784C278.887 108.949 277.499 107.807 277.356 107.313" stroke="#D96565" stroke-linecap="round" stroke-linejoin="round"/>
<path d="M205.404 181.144C204.85 179.378 203.973 179.188 202.472 179.784C202.055 179.949 200.666 178.807 200.524 178.313" stroke="#D96565" stroke-linecap="round" stroke-linejoin="round"/>
<path d="M317.723 164.51C317.169 162.744 316.292 162.554 314.791 163.149C314.374 163.315 312.986 162.173 312.843 161.679" stroke="#D96565" stroke-linecap="round" stroke-linejoin="round"/>
<path d="M240.891 235.51C240.337 233.744 239.46 233.554 237.959 234.149C237.542 234.315 236.153 233.173 236.011 232.679" stroke="#D96565" stroke-linecap="round" stroke-linejoin="round"/>
<path d="M353.21 218.876C352.656 217.11 351.779 216.919 350.278 217.515C349.86 217.681 348.472 216.539 348.33 216.044" stroke="#D96565" stroke-linecap="round" stroke-linejoin="round"/>
<path d="M276.378 289.876C275.823 288.11 274.946 287.919 273.445 288.515C273.028 288.681 271.64 287.539 271.498 287.044" stroke="#D96565" stroke-linecap="round" stroke-linejoin="round"/>
<path d="M214.81 82.7599C214.674 82.2874 213.863 80.5765 214.155 79.9883C214.478 79.3377 215.759 78.2817 216.356 77.8493C217.129 77.2886 217.726 76.6054 218.437 75.9931C219.575 75.012 219.168 72.6388 219.541 71.3461" stroke="#D96565" stroke-linecap="round" stroke-linejoin="round"/>
<path d="M137.978 153.76C137.841 153.287 137.031 151.576 137.322 150.988C137.645 150.338 138.926 149.282 139.523 148.849C140.297 148.289 140.894 147.605 141.604 146.993C142.743 146.012 142.335 143.639 142.708 142.346" stroke="#D96565" stroke-linecap="round" stroke-linejoin="round"/>
<path d="M250.297 137.126C250.16 136.653 249.349 134.942 249.641 134.354C249.964 133.703 251.245 132.647 251.842 132.215C252.616 131.654 253.212 130.971 253.923 130.359C255.062 129.378 254.654 127.005 255.027 125.712" stroke="#D96565" stroke-linecap="round" stroke-linejoin="round"/>
<path d="M173.464 208.126C173.328 207.653 172.517 205.942 172.809 205.354C173.132 204.703 174.413 203.647 175.009 203.215C175.783 202.654 176.38 201.971 177.091 201.359C178.229 200.378 177.822 198.005 178.194 196.712" stroke="#D96565" stroke-linecap="round" stroke-linejoin="round"/>
<path d="M285.783 191.491C285.647 191.019 284.836 189.308 285.128 188.72C285.451 188.069 286.732 187.013 287.329 186.581C288.103 186.02 288.699 185.337 289.41 184.725C290.548 183.744 290.141 181.37 290.514 180.078" stroke="#D96565" stroke-linecap="round" stroke-linejoin="round"/>
<path d="M208.951 262.491C208.815 262.019 208.004 260.308 208.296 259.72C208.618 259.069 209.899 258.013 210.496 257.581C211.27 257.02 211.867 256.337 212.577 255.725C213.716 254.744 213.309 252.37 213.681 251.078" stroke="#D96565" stroke-linecap="round" stroke-linejoin="round"/>
<path d="M321.27 245.857C321.133 245.385 320.323 243.674 320.614 243.086C320.937 242.435 322.218 241.379 322.815 240.947C323.589 240.386 324.186 239.703 324.896 239.09C326.035 238.109 325.627 235.736 326 234.443" stroke="#D96565" stroke-linecap="round" stroke-linejoin="round"/>
<path d="M244.438 316.857C244.301 316.385 243.491 314.674 243.782 314.086C244.105 313.435 245.386 312.379 245.983 311.947C246.757 311.386 247.354 310.703 248.064 310.09C249.203 309.109 248.795 306.736 249.168 305.443" stroke="#D96565" stroke-linecap="round" stroke-linejoin="round"/>
<path d="M219.069 75.3478C219.352 75.4894 221.63 75.8869 221.711 76.0561C221.963 76.5773 222.316 76.7286 222.777 76.9346C223.826 77.4024 224.86 76.8562 225.888 76.4483" stroke="#D96565" stroke-linecap="round" stroke-linejoin="round"/>
<path d="M142.236 146.348C142.52 146.489 144.797 146.887 144.879 147.056C145.13 147.577 145.483 147.729 145.945 147.935C146.994 148.402 148.028 147.856 149.056 147.448" stroke="#D96565" stroke-linecap="round" stroke-linejoin="round"/>
<path d="M254.556 129.714C254.839 129.855 257.116 130.253 257.198 130.422C257.45 130.943 257.802 131.094 258.264 131.3C259.313 131.768 260.347 131.222 261.375 130.814" stroke="#D96565" stroke-linecap="round" stroke-linejoin="round"/>
<path d="M177.723 200.714C178.006 200.855 180.284 201.253 180.366 201.422C180.617 201.943 180.97 202.094 181.432 202.3C182.481 202.768 183.515 202.222 184.542 201.814" stroke="#D96565" stroke-linecap="round" stroke-linejoin="round"/>
<path d="M290.042 184.079C290.325 184.221 292.603 184.618 292.684 184.788C292.936 185.309 293.289 185.46 293.75 185.666C294.8 186.134 295.834 185.588 296.861 185.18" stroke="#D96565" stroke-linecap="round" stroke-linejoin="round"/>
<path d="M213.209 255.079C213.493 255.221 215.77 255.618 215.852 255.788C216.104 256.309 216.456 256.46 216.918 256.666C217.967 257.134 219.001 256.588 220.029 256.18" stroke="#D96565" stroke-linecap="round" stroke-linejoin="round"/>
<path d="M325.528 238.445C325.812 238.587 328.089 238.984 328.171 239.153C328.422 239.675 328.775 239.826 329.237 240.032C330.286 240.5 331.32 239.953 332.348 239.546" stroke="#D96565" stroke-linecap="round" stroke-linejoin="round"/>
<path d="M248.696 309.445C248.979 309.587 251.257 309.984 251.339 310.153C251.59 310.675 251.943 310.826 252.405 311.032C253.454 311.5 254.488 310.953 255.516 310.546" stroke="#D96565" stroke-linecap="round" stroke-linejoin="round"/>
<path d="M286.491 56.2175C285.949 55.4496 284.643 53.7768 285.396 52.6253C286.087 51.569 286.874 50.5777 287.763 49.6586C288.52 48.8748 289.391 48.2086 290.153 47.3868C290.838 46.648 291.327 45.815 291.899 45.0114C293.134 43.2765 292.339 41.0548 291.065 40.0361C289.879 39.0878 289.341 38.6781 288.899 37.1428" stroke="#D96565" stroke-linecap="round" stroke-linejoin="round"/>
<path d="M209.658 127.218C209.116 126.45 207.811 124.777 208.564 123.625C209.255 122.569 210.042 121.578 210.93 120.659C211.688 119.875 212.559 119.209 213.321 118.387C214.006 117.648 214.495 116.815 215.067 116.011C216.301 114.277 215.507 112.055 214.233 111.036C213.047 110.088 212.509 109.678 212.066 108.143" stroke="#D96565" stroke-linecap="round" stroke-linejoin="round"/>
<path d="M321.977 110.583C321.435 109.815 320.13 108.143 320.883 106.991C321.574 105.935 322.36 104.943 323.249 104.024C324.007 103.241 324.878 102.574 325.64 101.753C326.325 101.014 326.814 100.181 327.385 99.3771C328.62 97.6423 327.826 95.4206 326.551 94.4018C325.366 93.4535 324.827 93.0439 324.385 91.5085" stroke="#D96565" stroke-linecap="round" stroke-linejoin="round"/>
<path d="M245.145 181.583C244.603 180.815 243.298 179.143 244.051 177.991C244.742 176.935 245.528 175.943 246.417 175.024C247.175 174.241 248.046 173.574 248.808 172.753C249.493 172.014 249.982 171.181 250.553 170.377C251.788 168.642 250.993 166.421 249.719 165.402C248.533 164.454 247.995 164.044 247.553 162.509" stroke="#D96565" stroke-linecap="round" stroke-linejoin="round"/>
<path d="M357.464 164.949C356.922 164.181 355.616 162.508 356.37 161.357C357.061 160.301 357.847 159.309 358.736 158.39C359.493 157.606 360.364 156.94 361.126 156.118C361.811 155.38 362.3 154.547 362.872 153.743C364.107 152.008 363.312 149.786 362.038 148.768C360.852 147.819 360.314 147.41 359.872 145.874" stroke="#D96565" stroke-linecap="round" stroke-linejoin="round"/>
<path d="M280.631 235.949C280.09 235.181 278.784 233.508 279.537 232.357C280.228 231.3 281.015 230.309 281.903 229.39C282.661 228.606 283.532 227.94 284.294 227.118C284.979 226.38 285.468 225.547 286.04 224.743C287.274 223.008 286.48 220.786 285.206 219.768C284.02 218.819 283.482 218.41 283.039 216.874" stroke="#D96565" stroke-linecap="round" stroke-linejoin="round"/>
<path d="M392.951 219.315C392.409 218.547 391.103 216.874 391.856 215.723C392.547 214.666 393.334 213.675 394.222 212.756C394.98 211.972 395.851 211.306 396.613 210.484C397.298 209.745 397.787 208.912 398.359 208.109C399.594 206.374 398.799 204.152 397.525 203.133C396.339 202.185 395.801 201.775 395.359 200.24" stroke="#D96565" stroke-linecap="round" stroke-linejoin="round"/>
<path d="M316.118 290.315C315.576 289.547 314.271 287.874 315.024 286.723C315.715 285.666 316.501 284.675 317.39 283.756C318.148 282.972 319.019 282.306 319.781 281.484C320.466 280.745 320.955 279.912 321.527 279.109C322.761 277.374 321.967 275.152 320.693 274.133C319.507 273.185 318.969 272.775 318.526 271.24" stroke="#D96565" stroke-linecap="round" stroke-linejoin="round"/>
<path d="M311.838 50.0095C313.334 49.2845 316.397 49.2047 317.441 47.2943C317.896 46.4628 318.325 44.6982 318.087 43.6871C317.923 42.9932 317.455 41.8751 317.82 41.3453" stroke="#D96565" stroke-linecap="round" stroke-linejoin="round"/>
<path d="M327.591 95.4922C328.954 94.9513 331.744 94.8917 332.696 93.466C333.11 92.8455 333.501 91.5286 333.284 90.7741C333.135 90.2562 332.708 89.4218 333.041 89.0265" stroke="#D96565" stroke-linecap="round" stroke-linejoin="round"/>
<path d="M250.758 166.492C252.121 165.951 254.912 165.892 255.863 164.466C256.277 163.846 256.669 162.529 256.451 161.774C256.302 161.256 255.875 160.422 256.209 160.026" stroke="#D96565" stroke-linecap="round" stroke-linejoin="round"/>
<path d="M363.077 149.858C364.44 149.317 367.231 149.257 368.183 147.832C368.597 147.211 368.988 145.894 368.771 145.14C368.621 144.622 368.195 143.788 368.528 143.392" stroke="#D96565" stroke-linecap="round" stroke-linejoin="round"/>
<path d="M286.245 220.858C287.608 220.317 290.399 220.257 291.35 218.832C291.765 218.211 292.156 216.894 291.939 216.14C291.789 215.622 291.363 214.788 291.696 214.392" stroke="#D96565" stroke-linecap="round" stroke-linejoin="round"/>
<path d="M355.504 145.224C356.867 144.683 359.658 144.623 360.609 143.198C361.023 142.577 361.415 141.26 361.197 140.506C361.048 139.988 360.622 139.153 360.955 138.758" stroke="#D96565" stroke-linecap="round" stroke-linejoin="round"/>
<path d="M321.732 275.224C323.095 274.683 325.885 274.623 326.837 273.198C327.251 272.577 327.643 271.26 327.425 270.506C327.276 269.988 326.849 269.153 327.182 268.758" stroke="#D96565" stroke-linecap="round" stroke-linejoin="round"/>
<path d="M311.982 54.3973C314.462 53.1954 316.154 53.0233 318.232 54.59C318.846 55.053 319.97 54.413 320.672 53.8973C321.535 53.2635 321.197 51.9664 322.018 51.5683" stroke="#D96565" stroke-linecap="round" stroke-linejoin="round"/>
<path d="M327.722 98.7667C329.982 97.8698 331.523 97.7414 333.416 98.9105C333.976 99.256 335 98.7784 335.64 98.3936C336.426 97.9206 336.118 96.9526 336.867 96.6555" stroke="#D96565" stroke-linecap="round" stroke-linejoin="round"/>
<path d="M250.89 169.767C253.15 168.87 254.691 168.741 256.584 169.911C257.143 170.256 258.168 169.778 258.807 169.394C259.593 168.921 259.286 167.953 260.034 167.656" stroke="#D96565" stroke-linecap="round" stroke-linejoin="round"/>
<path d="M363.208 153.132C365.468 152.236 367.009 152.107 368.903 153.276C369.462 153.622 370.486 153.144 371.126 152.759C371.912 152.286 371.604 151.318 372.353 151.021" stroke="#D96565" stroke-linecap="round" stroke-linejoin="round"/>
<path d="M286.376 224.133C288.636 223.236 290.177 223.107 292.071 224.276C292.63 224.622 293.654 224.144 294.294 223.759C295.08 223.286 294.772 222.318 295.521 222.021" stroke="#D96565" stroke-linecap="round" stroke-linejoin="round"/>
<path d="M355.635 148.498C357.895 147.601 359.436 147.473 361.329 148.642C361.888 148.988 362.913 148.51 363.552 148.125C364.338 147.652 364.031 146.684 364.779 146.387" stroke="#D96565" stroke-linecap="round" stroke-linejoin="round"/>
<path d="M321.862 278.498C324.122 277.601 325.663 277.473 327.556 278.642C328.116 278.988 329.14 278.51 329.78 278.125C330.566 277.652 330.258 276.684 331.007 276.387" stroke="#D96565" stroke-linecap="round" stroke-linejoin="round"/>
<path d="M320.799 53.9585C320.131 54.4541 317.76 55.8021 317.968 56.9787C318.138 57.9335 318.412 58.8578 318.632 59.7898C318.854 60.7307 319.904 60.6036 320.262 61.3088C320.694 62.1636 321.07 63.1226 321.809 63.692" stroke="#D96565" stroke-linecap="round" stroke-linejoin="round"/>
<path d="M335.755 98.4393C335.147 98.8092 332.987 99.8151 333.177 100.693C333.331 101.406 333.581 102.095 333.781 102.791C333.984 103.493 334.94 103.398 335.266 103.925C335.66 104.562 336.003 105.278 336.675 105.703" stroke="#D96565" stroke-linecap="round" stroke-linejoin="round"/>
<path d="M258.923 169.439C258.314 169.809 256.154 170.815 256.344 171.693C256.498 172.406 256.748 173.095 256.949 173.791C257.151 174.493 258.108 174.398 258.433 174.925C258.828 175.562 259.17 176.278 259.843 176.703" stroke="#D96565" stroke-linecap="round" stroke-linejoin="round"/>
<path d="M371.242 152.805C370.634 153.175 368.474 154.181 368.663 155.059C368.818 155.771 369.068 156.461 369.268 157.157C369.471 157.859 370.427 157.764 370.753 158.29C371.147 158.928 371.49 159.644 372.162 160.069" stroke="#D96565" stroke-linecap="round" stroke-linejoin="round"/>
<path d="M294.41 223.805C293.802 224.175 291.641 225.181 291.831 226.059C291.986 226.772 292.236 227.461 292.436 228.157C292.639 228.859 293.595 228.764 293.921 229.29C294.315 229.928 294.658 230.644 295.33 231.069" stroke="#D96565" stroke-linecap="round" stroke-linejoin="round"/>
<path d="M363.669 148.171C363.06 148.541 360.9 149.547 361.09 150.425C361.244 151.137 361.495 151.827 361.695 152.523C361.897 153.225 362.854 153.13 363.179 153.656C363.574 154.294 363.916 155.01 364.589 155.435" stroke="#D96565" stroke-linecap="round" stroke-linejoin="round"/>
<path d="M329.896 278.171C329.288 278.541 327.128 279.547 327.318 280.425C327.472 281.137 327.722 281.827 327.923 282.523C328.125 283.225 329.082 283.13 329.407 283.656C329.801 284.294 330.144 285.01 330.816 285.435" stroke="#D96565" stroke-linecap="round" stroke-linejoin="round"/>
<path d="M294.23 56.9599C292.482 57.6537 291.839 57.9007 290.645 59.2866C289.783 60.2869 290.793 61.3979 291.522 61.8368C293.144 62.8129 294.857 64.056 295.424 66.0224" stroke="#D96565" stroke-linecap="round" stroke-linejoin="round"/>
<path d="M217.398 127.96C215.65 128.654 215.007 128.901 213.813 130.287C212.951 131.287 213.961 132.398 214.69 132.837C216.312 133.813 218.025 135.056 218.592 137.022" stroke="#D96565" stroke-linecap="round" stroke-linejoin="round"/>
<path d="M329.717 111.326C327.969 112.019 327.326 112.266 326.132 113.652C325.27 114.653 326.28 115.764 327.009 116.203C328.631 117.179 330.344 118.422 330.911 120.388" stroke="#D96565" stroke-linecap="round" stroke-linejoin="round"/>
<path d="M252.885 182.326C251.137 183.019 250.494 183.266 249.3 184.652C248.438 185.653 249.447 186.764 250.177 187.203C251.799 188.179 253.512 189.422 254.079 191.388" stroke="#D96565" stroke-linecap="round" stroke-linejoin="round"/>
<path d="M365.203 165.691C363.455 166.385 362.812 166.632 361.618 168.018C360.757 169.018 361.766 170.129 362.495 170.568C364.118 171.544 365.831 172.788 366.398 174.754" stroke="#D96565" stroke-linecap="round" stroke-linejoin="round"/>
<path d="M288.371 236.691C286.623 237.385 285.98 237.632 284.786 239.018C283.925 240.018 284.934 241.129 285.663 241.568C287.285 242.544 288.999 243.788 289.565 245.754" stroke="#D96565" stroke-linecap="round" stroke-linejoin="round"/>
<path d="M357.63 161.057C355.882 161.751 355.239 161.998 354.045 163.384C353.183 164.384 354.193 165.495 354.922 165.934C356.544 166.91 358.257 168.153 358.824 170.12" stroke="#D96565" stroke-linecap="round" stroke-linejoin="round"/>
<path d="M323.858 291.057C322.11 291.751 321.467 291.998 320.273 293.384C319.411 294.384 320.421 295.495 321.15 295.934C322.772 296.91 324.485 298.153 325.052 300.12" stroke="#D96565" stroke-linecap="round" stroke-linejoin="round"/>
<path d="M294.402 63.192C295.571 62.1193 297.038 61.344 298.555 61.2814C298.712 61.275 300.097 62.7451 300.242 62.9688C301.204 64.4491 302.325 63.1712 303.508 63.7677" stroke="#D96565" stroke-linecap="round" stroke-linejoin="round"/>
<path d="M217.569 134.192C218.739 133.119 220.206 132.344 221.723 132.281C221.88 132.275 223.265 133.745 223.41 133.969C224.372 135.449 225.493 134.171 226.676 134.768" stroke="#D96565" stroke-linecap="round" stroke-linejoin="round"/>
<path d="M329.888 117.558C331.058 116.485 332.525 115.71 334.042 115.647C334.199 115.641 335.584 117.111 335.729 117.335C336.691 118.815 337.812 117.537 338.995 118.134" stroke="#D96565" stroke-linecap="round" stroke-linejoin="round"/>
<path d="M253.056 188.558C254.225 187.485 255.692 186.71 257.21 186.647C257.366 186.641 258.751 188.111 258.897 188.335C259.858 189.815 260.979 188.537 262.162 189.134" stroke="#D96565" stroke-linecap="round" stroke-linejoin="round"/>
<path d="M365.375 171.924C366.545 170.851 368.011 170.076 369.529 170.013C369.686 170.007 371.071 171.477 371.216 171.7C372.178 173.181 373.299 171.903 374.481 172.499" stroke="#D96565" stroke-linecap="round" stroke-linejoin="round"/>
<path d="M288.543 242.924C289.712 241.851 291.179 241.076 292.697 241.013C292.853 241.007 294.238 242.477 294.383 242.7C295.345 244.181 296.466 242.903 297.649 243.499" stroke="#D96565" stroke-linecap="round" stroke-linejoin="round"/>
<path d="M357.802 167.289C358.971 166.217 360.438 165.441 361.956 165.379C362.113 165.372 363.497 166.842 363.643 167.066C364.604 168.546 365.725 167.269 366.908 167.865" stroke="#D96565" stroke-linecap="round" stroke-linejoin="round"/>
<path d="M324.029 297.289C325.199 296.217 326.666 295.441 328.183 295.379C328.34 295.372 329.725 296.842 329.87 297.066C330.832 298.546 331.953 297.269 333.136 297.865" stroke="#D96565" stroke-linecap="round" stroke-linejoin="round"/>
<defs>
<radialGradient id="paint0_radial" cx="0" cy="0" r="1" gradientUnits="userSpaceOnUse" gradientTransform="translate(209.686 83.4514) rotate(72.9496) scale(22.5755 129.376)">
<stop offset="0.520833" stop-color="#FF99AB"/>
<stop offset="0.703125" stop-color="#C26C5F"/>
</radialGradient>
<radialGradient id="paint1_radial" cx="0" cy="0" r="1" gradientUnits="userSpaceOnUse" gradientTransform="translate(132.854 154.451) rotate(72.9496) scale(22.5755 129.376)">
<stop offset="0.520833" stop-color="#FF99AB"/>
<stop offset="0.703125" stop-color="#C26C5F"/>
</radialGradient>
<radialGradient id="paint2_radial" cx="0" cy="0" r="1" gradientUnits="userSpaceOnUse" gradientTransform="translate(245.173 137.817) rotate(72.9496) scale(22.5755 129.376)">
<stop offset="0.520833" stop-color="#FF99AB"/>
<stop offset="0.703125" stop-color="#C26C5F"/>
</radialGradient>
<radialGradient id="paint3_radial" cx="0" cy="0" r="1" gradientUnits="userSpaceOnUse" gradientTransform="translate(168.341 208.817) rotate(72.9496) scale(22.5755 129.376)">
<stop offset="0.520833" stop-color="#FF99AB"/>
<stop offset="0.703125" stop-color="#C26C5F"/>
</radialGradient>
<radialGradient id="paint4_radial" cx="0" cy="0" r="1" gradientUnits="userSpaceOnUse" gradientTransform="translate(280.66 192.183) rotate(72.9496) scale(22.5755 129.376)">
<stop offset="0.520833" stop-color="#FF99AB"/>
<stop offset="0.703125" stop-color="#C26C5F"/>
</radialGradient>
<radialGradient id="paint5_radial" cx="0" cy="0" r="1" gradientUnits="userSpaceOnUse" gradientTransform="translate(203.827 263.183) rotate(72.9496) scale(22.5755 129.376)">
<stop offset="0.520833" stop-color="#FF99AB"/>
<stop offset="0.703125" stop-color="#C26C5F"/>
</radialGradient>
<radialGradient id="paint6_radial" cx="0" cy="0" r="1" gradientUnits="userSpaceOnUse" gradientTransform="translate(316.146 246.549) rotate(72.9496) scale(22.5755 129.376)">
<stop offset="0.520833" stop-color="#FF99AB"/>
<stop offset="0.703125" stop-color="#C26C5F"/>
</radialGradient>
<radialGradient id="paint7_radial" cx="0" cy="0" r="1" gradientUnits="userSpaceOnUse" gradientTransform="translate(239.314 317.549) rotate(72.9496) scale(22.5755 129.376)">
<stop offset="0.520833" stop-color="#FF99AB"/>
<stop offset="0.703125" stop-color="#C26C5F"/>
</radialGradient>
</defs>
</svg>
