<svg width="448" height="386" viewBox="0 0 448 386" fill="none" xmlns="http://www.w3.org/2000/svg">
<path d="M42.3539 217.407C46.8539 214.408 55.3539 206.907 50.3539 217.407C45.3539 227.907 49.3539 267.907 50.3539 272.407C51.3539 276.908 38.3539 277.908 42.3539 272.407C46.3539 266.907 37.854 220.407 42.3539 217.407Z" fill="#E9C3AD"/>
<path d="M255.572 139.969C260.936 140.658 272.271 140.573 261.609 145.218C250.947 149.862 227.724 182.674 225.526 186.727C223.328 190.779 212.861 183.005 219.488 181.478C226.116 179.951 250.208 139.281 255.572 139.969Z" fill="#E9C3AD"/>
<path d="M180.572 166.969C185.936 167.658 197.271 167.573 186.609 172.218C175.947 176.862 152.724 209.674 150.526 213.727C148.328 217.779 137.861 210.005 144.488 208.478C151.116 206.951 175.208 166.281 180.572 166.969Z" fill="#E9C3AD"/>
<path d="M401.237 118.153C406.488 119.444 417.761 120.643 406.641 124.051C395.522 127.458 368.734 157.43 366.091 161.208C363.449 164.986 353.929 156.077 360.686 155.31C367.444 154.543 395.985 116.861 401.237 118.153Z" fill="#E9C3AD"/>
<path d="M423.829 195.426C428.978 197.08 440.139 199.063 428.809 201.687C417.479 204.31 388.665 232.341 385.766 235.925C382.866 239.509 373.991 229.958 380.785 229.664C387.58 229.37 418.68 193.771 423.829 195.426Z" fill="#E9C3AD"/>
<path d="M101.881 350.281C97.1828 352.959 88.1803 359.849 93.9005 349.723C99.6208 339.597 98.4208 299.416 97.7371 294.857C97.0535 290.298 110.092 290.207 105.718 295.415C101.344 300.623 106.579 347.603 101.881 350.281Z" fill="#E9C3AD"/>
<path d="M153.376 244.093C156.973 248.132 165.583 255.505 154.49 252.015C143.396 248.525 104.342 258.053 100.025 259.67C95.7074 261.287 92.9079 248.552 98.9115 251.748C104.915 254.943 149.78 240.055 153.376 244.093Z" fill="#E9C3AD"/>
<path d="M158.49 383.183C155.451 378.71 147.877 370.275 158.42 375.184C168.963 380.092 208.926 375.743 213.418 374.704C217.91 373.664 219.023 386.655 213.488 382.703C207.953 378.751 161.529 387.657 158.49 383.183Z" fill="#E9C3AD"/>
<path d="M204.354 275.407C208.854 272.408 217.354 264.907 212.354 275.407C207.354 285.907 211.354 325.907 212.354 330.407C213.354 334.908 200.354 335.908 204.354 330.407C208.354 324.907 199.854 278.407 204.354 275.407Z" fill="#E9C3AD"/>
<path d="M268.62 366.917C264.068 369.837 255.438 377.189 260.621 366.777C265.803 356.366 262.502 316.303 261.581 311.786C260.659 307.268 273.675 306.496 269.579 311.925C265.484 317.355 273.171 363.997 268.62 366.917Z" fill="#E9C3AD"/>
<path d="M294.217 317.97C297.266 313.504 302.337 303.365 301.635 314.974C300.932 326.582 319.625 362.17 322.238 365.969C324.851 369.767 313.173 375.564 314.821 368.966C316.469 362.367 291.169 322.437 294.217 317.97Z" fill="#E9C3AD"/>
<path d="M401.854 269.637C407.728 272.461 420.284 276.693 408.049 277.858C395.813 279.022 367.049 307.142 364.238 310.871C361.428 314.6 350.565 301.842 358.043 302.651C365.522 303.459 395.98 266.813 401.854 269.637Z" fill="#E9C3AD"/>
<path d="M303.951 71.7207C309.896 74.3897 322.559 78.2918 310.358 79.7764C298.158 81.261 270.139 110.124 267.427 113.926C264.715 117.727 253.522 105.257 261.019 105.87C268.517 106.483 298.005 69.0517 303.951 71.7207Z" fill="#E9C3AD"/>
<path d="M105.043 138.417C111.501 139.287 124.751 139.432 113.474 144.321C102.198 149.21 83.5305 184.842 82.0099 189.257C80.4892 193.672 66.2153 184.895 73.578 183.353C80.9407 181.811 98.5837 137.547 105.043 138.417Z" fill="#E9C3AD"/>
<path d="M288.711 12.9761C294.867 15.1167 307.821 17.9004 295.796 20.4427C283.771 22.985 258.375 54.1804 256.005 58.2037C253.634 62.2269 241.397 50.7802 248.919 50.7371C256.441 50.6939 282.555 10.8355 288.711 12.9761Z" fill="#E9C3AD"/>
<path d="M14.7421 111.393C20.5321 108.402 31.4689 100.921 25.0355 111.393C18.6021 121.866 23.7488 161.761 25.0355 166.25C26.3222 170.739 9.59538 171.736 14.7421 166.25C19.8888 160.764 8.95205 114.385 14.7421 111.393Z" fill="#E9C3AD"/>
<path d="M125.012 92.7243C122.036 98.5222 117.476 110.964 116.632 98.7018C115.788 86.4399 88.431 56.9491 84.7768 54.0419C81.1227 51.1347 94.161 40.6094 93.1568 48.0645C92.1527 55.5196 127.989 86.9265 125.012 92.7243Z" fill="#E9C3AD"/>
<path d="M206.012 123.724C203.036 129.522 198.476 141.964 197.632 129.702C196.788 117.44 169.431 87.9491 165.777 85.0419C162.123 82.1347 175.161 71.6094 174.157 79.0645C173.153 86.5196 208.989 117.926 206.012 123.724Z" fill="#E9C3AD"/>
<path d="M282.835 212.361C280.128 205.73 276.285 191.887 274.328 204.403C272.371 216.919 240.409 241.672 236.228 243.91C232.047 246.148 245.178 259.799 244.735 251.869C244.292 243.938 285.542 218.993 282.835 212.361Z" fill="#E9C3AD"/>
<path d="M374.386 71.928C380.504 74.1757 393.408 77.185 381.34 79.5171C369.273 81.8491 343.336 112.597 340.896 116.578C338.455 120.559 326.42 108.901 333.941 108.989C341.463 109.077 368.269 69.6803 374.386 71.928Z" fill="#E9C3AD"/>
<path d="M325.552 244.095C319.158 242.832 305.942 241.879 317.496 237.688C329.05 233.496 349.858 199.07 351.645 194.756C353.432 190.442 367.144 200.074 359.701 201.164C352.258 202.254 331.945 245.358 325.552 244.095Z" fill="#E9C3AD"/>
<path d="M175.93 10.2209C179.823 4.99382 186.373 -6.52443 185.182 5.70856C183.99 17.9415 206.105 51.5431 209.229 55.0136C212.354 58.4841 197.757 66.7131 199.978 59.5259C202.198 52.3388 172.037 15.448 175.93 10.2209Z" fill="#E9C3AD"/>
<path d="M51.354 212.407L47.854 219.157L44.354 225.907C44.5207 231.073 44.954 241.507 45.354 241.907C45.854 242.407 45.854 259.407 45.854 260.407C45.854 261.207 46.5207 269.74 46.854 273.907V275.407" stroke="#913F3F"/>
<path d="M265.875 141.129L258.805 143.927L251.735 146.725C248.472 150.734 241.954 158.892 241.993 159.457C242.043 160.162 230.89 172.992 230.234 173.747C229.709 174.351 224.613 181.228 222.131 184.591L221.147 185.723" stroke="#913F3F"/>
<path d="M190.875 168.129L183.805 170.927L176.735 173.725C173.472 177.734 166.954 185.892 166.993 186.457C167.043 187.162 155.89 199.992 155.234 200.747C154.709 201.351 149.613 208.228 147.131 211.591L146.147 212.723" stroke="#913F3F"/>
<path d="M411.332 120.31L403.991 122.29L396.65 124.27C392.953 127.883 385.554 135.251 385.529 135.816C385.498 136.523 372.964 148.008 372.227 148.683C371.637 149.224 365.796 155.48 362.949 158.541L361.844 159.554" stroke="#913F3F"/>
<path d="M433.739 198.183L426.278 199.646L418.817 201.109C414.877 204.456 406.981 211.29 406.917 211.852C406.837 212.554 393.533 223.137 392.75 223.76C392.124 224.258 385.861 230.091 382.808 232.946L381.634 233.88" stroke="#913F3F"/>
<path d="M95.3891 354.387L99.3515 347.898L103.314 341.408C103.508 336.243 103.803 325.805 103.432 325.378C102.968 324.844 104.154 307.885 104.224 306.888C104.28 306.09 104.21 297.531 104.168 293.351L104.273 291.855" stroke="#913F3F"/>
<path d="M160.622 250.758L153.451 248.232L146.279 245.705C141.186 246.589 130.915 248.47 130.574 248.922C130.149 249.487 113.314 251.853 112.324 251.992C111.532 252.103 103.174 253.951 99.0944 254.861L97.609 255.07" stroke="#913F3F"/>
<path d="M155.014 375.463L161.794 378.904L168.575 382.345C173.74 382.133 184.169 381.609 184.565 381.205C185.061 380.701 202.06 380.553 203.06 380.544C203.86 380.537 212.387 379.796 216.551 379.426L218.051 379.413" stroke="#913F3F"/>
<path d="M213.354 270.407L209.854 277.157L206.354 283.907C206.521 289.073 206.954 299.507 207.354 299.907C207.854 300.407 207.854 317.407 207.854 318.407C207.854 319.207 208.521 327.74 208.854 331.907V333.407" stroke="#913F3F"/>
<path d="M262.364 371.431L265.981 364.743L269.598 358.055C269.522 352.886 269.271 342.447 268.878 342.04C268.387 341.532 268.683 324.534 268.701 323.534C268.715 322.734 268.197 314.191 267.936 310.019L267.963 308.519" stroke="#913F3F"/>
<path d="M300.858 310.479L300.141 318.049L299.425 325.619C301.515 330.347 305.825 339.858 306.346 340.079C306.997 340.355 313.365 356.117 313.74 357.044C314.039 357.786 317.854 365.448 319.724 369.187L320.286 370.578" stroke="#913F3F"/>
<path d="M410.491 276.383L402.392 276.852L394.293 277.32C390.295 280.601 382.298 287.324 382.288 287.976C382.276 288.79 368.699 299.021 367.9 299.623C367.261 300.104 360.962 305.924 357.893 308.774L356.695 309.677" stroke="#913F3F"/>
<path d="M315.355 75.8111L307.271 76.4913L299.187 77.1715C295.277 80.5556 287.458 87.4865 287.465 88.138C287.474 88.9523 274.17 99.5351 273.387 100.158C272.761 100.656 266.617 106.639 263.622 109.568L262.449 110.502" stroke="#913F3F"/>
<path d="M117.343 139.505L109.785 142.454L102.227 145.402C99.439 149.757 93.9111 158.623 94.1029 159.246C94.3427 160.024 84.5919 173.95 84.0183 174.769C83.5595 175.424 79.3671 182.906 77.3283 186.565L76.4679 187.793" stroke="#913F3F"/>
<path d="M300.477 16.1855L292.484 17.5677L284.49 18.9499C280.889 22.6618 273.705 30.2478 273.769 30.8962C273.849 31.7067 261.517 43.4087 260.792 44.0971C260.211 44.6477 254.612 51.1435 251.884 54.3225L250.796 55.355" stroke="#913F3F"/>
<path d="M26 106L21.5 112.75L17 119.5C17.2143 124.667 17.7714 135.1 18.2857 135.5C18.9286 136 18.9286 153 18.9286 154C18.9286 154.8 19.7857 163.333 20.2143 167.5V169" stroke="#913F3F"/>
<path d="M121.41 101.875L121.154 93.7664L120.898 85.658C117.723 81.5762 111.211 73.4058 110.56 73.3788C109.746 73.345 99.8742 59.5051 99.2935 58.6909C98.8289 58.0396 93.1758 51.5903 90.4073 48.447L89.5362 47.2258" stroke="#913F3F"/>
<path d="M202.41 132.875L202.154 124.766L201.898 116.658C198.723 112.576 192.211 104.406 191.56 104.379C190.746 104.345 180.874 90.5051 180.293 89.6909C179.829 89.0396 174.176 82.5903 171.407 79.447L170.536 78.2258" stroke="#913F3F"/>
<path d="M279.669 201.859L278.7 210.2L277.731 218.54C273.966 222.095 266.259 229.179 265.556 229.069C264.677 228.932 252.87 241.175 252.176 241.895C251.62 242.472 244.985 247.954 241.737 250.624L240.695 251.704" stroke="#913F3F"/>
<path d="M386.086 75.3166L378.069 76.5591L370.053 77.8016C366.388 81.4502 359.072 88.9096 359.125 89.559C359.19 90.3707 346.657 101.856 345.919 102.531C345.33 103.072 339.617 109.469 336.835 112.6L335.729 113.613" stroke="#913F3F"/>
<path d="M316.369 241.351L324.092 238.87L331.816 236.388C334.865 232.211 340.924 223.699 340.77 223.066C340.578 222.275 351.161 208.97 351.783 208.188C352.282 207.562 356.923 200.35 359.181 196.822L360.115 195.648" stroke="#913F3F"/>
<path d="M184.055 1.04563L182.969 9.08516L181.884 17.1247C184.341 21.6745 189.416 30.8077 190.053 30.9418C190.85 31.1094 198.303 46.3888 198.741 47.2876C199.092 48.0067 203.603 55.3006 205.815 58.8577L206.472 60.2059" stroke="#913F3F"/>
<path d="M50 220.556C50 220.556 64.5 208.056 58 220.556C51.5 233.056 64.5 278.555 58 275.556C51.5 272.557 50 275.556 50 275.556V220.556Z" fill="#E9C3AD"/>
<path d="M262.191 142.097C262.191 142.097 281.335 142.176 268.229 147.345C255.122 152.515 235.084 195.382 232.146 188.854C229.208 182.327 226.108 183.606 226.108 183.606L262.191 142.097Z" fill="#E9C3AD"/>
<path d="M187.191 169.097C187.191 169.097 206.335 169.176 193.229 174.345C180.122 179.515 160.084 222.382 157.146 215.854C154.208 209.327 151.108 210.606 151.108 210.606L187.191 169.097Z" fill="#E9C3AD"/>
<path d="M407.771 120.062C407.771 120.062 426.783 122.307 413.175 125.96C399.568 129.612 374.805 169.936 372.625 163.117C370.445 156.299 367.22 157.219 367.22 157.219L407.771 120.062Z" fill="#E9C3AD"/>
<path d="M430.322 197.196C430.322 197.196 449.131 200.762 435.302 203.457C421.473 206.151 393.958 244.649 392.259 237.695C390.56 230.741 387.279 231.434 387.279 231.434L430.322 197.196Z" fill="#E9C3AD"/>
<path d="M111.359 349.727C111.359 349.727 96.0226 361.185 103.379 349.169C110.735 337.153 100.94 290.858 107.215 294.303C113.49 297.748 115.196 294.861 115.196 294.861L111.359 349.727Z" fill="#E9C3AD"/>
<path d="M159.89 244.777C159.89 244.777 174.286 257.396 161.003 252.699C147.721 248.002 104.474 267.208 106.539 260.354C108.604 253.5 105.425 252.432 105.425 252.432L159.89 244.777Z" fill="#E9C3AD"/>
<path d="M168.88 385.283C168.88 385.283 156.254 370.893 168.81 377.283C181.366 383.674 226.75 370.277 223.808 376.803C220.865 383.329 223.877 384.803 223.877 384.803L168.88 385.283Z" fill="#E9C3AD"/>
<path d="M212 278.556C212 278.556 226.5 266.056 220 278.556C213.5 291.056 226.5 336.555 220 333.556C213.5 330.557 212 333.556 212 333.556V278.556Z" fill="#E9C3AD"/>
<path d="M278.002 366.314C278.002 366.314 263.286 378.559 270.003 366.174C276.72 353.79 264.516 308.071 270.963 311.183C277.41 314.295 278.962 311.322 278.962 311.322L278.002 366.314Z" fill="#E9C3AD"/>
<path d="M298.081 271.059C298.081 271.059 306.843 254.038 305.499 268.062C304.155 282.087 333.252 319.403 326.102 319.058C318.952 318.712 318.685 322.054 318.685 322.054L298.081 271.059Z" fill="#E9C3AD"/>
<path d="M407.414 273.959C407.414 273.959 428.049 280.469 413.263 281.722C398.478 282.975 371.465 323.108 369.119 314.987C366.773 306.866 363.269 307.224 363.269 307.224L407.414 273.959Z" fill="#E9C3AD"/>
<path d="M312.166 73.6922C312.166 73.6922 332.964 79.6598 318.217 81.2993C303.469 82.9388 277.516 123.765 274.958 115.708C272.401 107.651 268.907 108.101 268.907 108.101L312.166 73.6922Z" fill="#E9C3AD"/>
<path d="M113.466 140.876C113.466 140.876 135.103 140.69 121.428 146.451C107.753 152.212 94.4643 198.728 89.7237 191.729C84.9831 184.73 81.7614 186.154 81.7614 186.154L113.466 140.876Z" fill="#E9C3AD"/>
<path d="M296.974 15.1011C296.974 15.1011 318.214 19.2332 303.665 22.1518C289.117 25.0705 266.821 68.0037 263.571 60.2002C260.321 52.3968 256.88 53.1495 256.88 53.1495L296.974 15.1011Z" fill="#E9C3AD"/>
<path d="M24 114.583C24 114.583 41.6178 102.021 33.7202 114.583C25.8225 127.146 41.6178 172.872 33.7202 169.858C25.8225 166.844 24 169.858 24 169.858V114.583Z" fill="#E9C3AD"/>
<path d="M134.635 92.4171C134.635 92.4171 127.587 112.875 126.722 98.0616C125.856 83.2482 86.4441 55.1943 94.6239 53.0618C102.804 50.9294 102.537 47.4173 102.537 47.4173L134.635 92.4171Z" fill="#E9C3AD"/>
<path d="M215.635 123.417C215.635 123.417 208.587 143.875 207.722 129.062C206.856 114.248 167.444 86.1943 175.624 84.0618C183.804 81.9294 183.537 78.4173 183.537 78.4173L215.635 123.417Z" fill="#E9C3AD"/>
<path d="M292.275 212.454C292.275 212.454 286.44 189.786 284.241 204.939C282.043 220.093 237.231 240.812 245.851 244.747C254.472 248.683 253.884 252.262 253.884 252.262L292.275 212.454Z" fill="#E9C3AD"/>
<path d="M382.639 74.0226C382.639 74.0226 403.803 78.5248 389.206 81.1891C374.608 83.8533 351.567 126.391 348.453 118.532C345.34 110.673 341.886 111.365 341.886 111.365L382.639 74.0226Z" fill="#E9C3AD"/>
<path d="M337.185 244.735C337.185 244.735 315.577 243.599 329.578 238.684C343.579 233.769 359.682 188.151 363.987 195.426C368.291 202.701 371.594 201.477 371.594 201.477L337.185 244.735Z" fill="#E9C3AD"/>
<path d="M186.004 13.5659C186.004 13.5659 196.331 -5.44816 194.74 9.30491C193.149 24.058 227.39 58.2321 218.971 58.9852C210.551 59.7384 210.234 63.2463 210.234 63.2463L186.004 13.5659Z" fill="#E9C3AD"/>
<path d="M56.5681 214.333C51.0681 211.333 64.5681 214.333 64.5681 214.333C64.5681 214.333 67.5681 265.832 64.5681 269.333C61.5681 272.834 51.0681 279.834 56.5681 269.333C62.0681 258.832 62.0681 217.333 56.5681 214.333Z" fill="#E9C3AD"/>
<path d="M271.658 137.748C269.476 131.875 277.696 142.996 277.696 142.996C277.696 142.996 246.174 183.831 241.613 184.505C237.052 185.179 224.535 183.574 235.575 179.257C246.615 174.94 273.841 143.62 271.658 137.748Z" fill="#E9C3AD"/>
<path d="M196.658 164.748C194.476 158.875 202.696 169.996 202.696 169.996C202.696 169.996 171.174 210.831 166.613 211.505C162.052 212.179 149.535 210.574 160.575 206.257C171.615 201.94 198.841 170.62 196.658 164.748Z" fill="#E9C3AD"/>
<path d="M417.545 116.179C416.041 110.098 422.95 122.078 422.95 122.078C422.95 122.078 387.008 159.082 382.4 159.235C377.792 159.388 365.537 156.376 376.995 153.337C388.453 150.297 419.049 122.261 417.545 116.179Z" fill="#E9C3AD"/>
<path d="M440.259 193.617C439.183 187.445 445.239 199.878 445.239 199.878C445.239 199.878 406.803 234.285 402.196 234.116C397.588 233.948 385.573 230.088 397.215 227.856C408.857 225.623 441.335 199.789 440.259 193.617Z" fill="#E9C3AD"/>
<path d="M115.483 353.047C120.76 356.423 107.502 352.489 107.502 352.489C107.502 352.489 108.102 300.906 111.339 297.623C114.576 294.339 125.539 288.089 119.319 298.181C113.1 308.273 110.205 349.67 115.483 353.047Z" fill="#E9C3AD"/>
<path d="M170.316 243.744C172.521 237.88 171.429 251.666 171.429 251.666C171.429 251.666 120.849 261.804 116.964 259.32C113.08 256.837 104.687 247.413 115.851 251.398C127.015 255.383 168.11 249.608 170.316 243.744Z" fill="#E9C3AD"/>
<path d="M169.569 382.861C166.617 388.387 169.499 374.862 169.499 374.862C169.499 374.862 220.97 371.412 224.497 374.382C228.024 377.351 235.115 387.79 224.567 382.381C214.018 376.973 172.521 377.335 169.569 382.861Z" fill="#E9C3AD"/>
<path d="M218.568 272.333C213.068 269.333 226.568 272.333 226.568 272.333C226.568 272.333 229.568 323.832 226.568 327.333C223.568 330.834 213.068 337.834 218.568 327.333C224.068 316.832 224.068 275.333 218.568 272.333Z" fill="#E9C3AD"/>
<path d="M282.375 369.7C287.822 372.795 274.377 369.56 274.377 369.56C274.377 369.56 272.276 318.017 275.336 314.568C278.397 311.12 289.018 304.305 283.335 314.708C277.653 325.112 276.929 366.604 282.375 369.7Z" fill="#E9C3AD"/>
<path d="M302.769 264.792C296.546 264.071 310.187 261.795 310.187 261.795C310.187 261.795 332.26 308.421 330.79 312.791C329.32 317.16 322.207 327.584 323.373 315.787C324.538 303.991 308.993 265.513 302.769 264.792Z" fill="#E9C3AD"/>
<path d="M418.815 270.412C416.965 262.962 424.998 278.617 424.998 278.617C424.998 278.617 386.108 312.747 380.988 311.782C375.868 310.816 362.151 304.267 374.805 303.576C387.459 302.885 420.666 277.862 418.815 270.412Z" fill="#E9C3AD"/>
<path d="M323.512 70.0302C321.468 62.6312 329.908 78.0706 329.908 78.0706C329.908 78.0706 291.924 113.207 286.781 112.376C281.637 111.544 267.754 105.357 280.385 104.335C293.016 103.313 325.557 77.4292 323.512 70.0302Z" fill="#E9C3AD"/>
<path d="M124.019 136.069C119.957 129.555 132.434 141.962 132.434 141.962C132.434 141.962 105.994 186.439 100.826 187.103C95.6585 187.766 80.5898 185.777 92.4106 181.21C104.231 176.642 128.08 142.582 124.019 136.069Z" fill="#E9C3AD"/>
<path d="M308.116 11.0685C305.434 3.87585 315.188 18.5209 315.188 18.5209C315.188 18.5209 280.411 56.834 275.215 56.454C270.018 56.074 255.649 51.1206 268.143 49.0016C280.637 46.8826 310.798 18.2611 308.116 11.0685Z" fill="#E9C3AD"/>
<path d="M32.0138 108.336C24.9505 105.33 42.2877 108.336 42.2877 108.336C42.2877 108.336 46.1404 159.935 42.2877 163.443C38.435 166.951 24.9505 173.964 32.0138 163.443C39.0771 152.921 39.0771 111.342 32.0138 108.336Z" fill="#E9C3AD"/>
<path d="M143.567 95.3711C151.063 93.7166 135.203 101.337 135.203 101.337C135.203 101.337 102.102 61.5669 103.202 56.4738C104.301 51.3807 111.206 37.8404 111.566 50.5077C111.925 63.1751 136.071 97.0257 143.567 95.3711Z" fill="#E9C3AD"/>
<path d="M224.567 126.371C232.063 124.717 216.203 132.337 216.203 132.337C216.203 132.337 183.102 92.5669 184.202 87.4738C185.301 82.3807 192.206 68.8404 192.566 81.5077C192.925 94.1751 217.071 128.026 224.567 126.371Z" fill="#E9C3AD"/>
<path d="M301.734 209.95C309.659 213.246 293.243 202.006 293.243 202.006C293.243 202.006 254.222 236.189 254.97 241.694C255.717 247.199 261.99 262.675 263.46 249.637C264.93 236.598 293.809 206.653 301.734 209.95Z" fill="#E9C3AD"/>
<path d="M416.392 103.387C413.836 96.149 423.333 110.962 423.333 110.962C423.333 110.962 387.893 148.662 382.704 148.192C377.514 147.721 363.233 142.518 375.763 140.617C388.292 138.716 418.947 110.626 416.392 103.387Z" fill="#E9C3AD"/>
<path d="M340.436 246.319C344.093 253.069 332.396 239.924 332.396 239.924C332.396 239.924 361.502 197.143 366.701 196.796C371.9 196.449 386.819 199.355 374.741 203.192C362.664 207.029 336.78 239.57 340.436 246.319Z" fill="#E9C3AD"/>
<path d="M191.834 7.35418C184.168 7.7489 201.068 2.85041 201.068 2.85041C201.068 2.85041 227.15 47.5384 225.225 52.3802C223.3 57.2219 214.255 69.4369 215.991 56.884C217.727 44.331 199.5 6.95946 191.834 7.35418Z" fill="#E9C3AD"/>
<path d="M59 215.555L52.5385 223.254L52 238.139L53.6154 254.05L56.8462 267.909L52 273.555" stroke="#9C0000"/>
<path d="M271.882 143.664L261.954 145.235L251.782 156.116L242.562 169.184L235.909 181.763L228.547 182.845" stroke="#9C0000"/>
<path d="M196.882 170.664L186.954 172.235L176.782 183.116L167.562 196.184L160.909 208.763L153.547 209.845" stroke="#9C0000"/>
<path d="M417.135 122.647L407.094 123.084L395.756 132.743L385.116 144.684L377.081 156.429L369.644 156.67" stroke="#9C0000"/>
<path d="M439.429 200.387L429.382 200.123L417.397 208.968L405.95 220.137L397.116 231.293L389.681 231.015" stroke="#9C0000"/>
<path d="M103.21 352.541L110.193 345.312L111.769 330.501L111.267 314.515L109.011 300.465L114.239 295.171" stroke="#9C0000"/>
<path d="M165.793 251.754L157.269 246.427L142.454 247.965L126.922 251.779L113.648 256.907L107.383 252.894" stroke="#9C0000"/>
<path d="M165.161 376.089L172.916 382.483L187.805 382.892L203.702 381.137L217.531 377.786L223.219 382.582" stroke="#9C0000"/>
<path d="M221 273.555L214.538 281.254L214 296.139L215.615 312.05L218.846 325.909L214 331.555" stroke="#9C0000"/>
<path d="M270.053 369.579L276.648 361.994L277.446 347.121L276.109 331.183L273.121 317.271L278.064 311.71" stroke="#9C0000"/>
<path d="M304.891 263.204L301.784 272.763L306.861 286.766L314.319 300.913L322.506 312.552L320.128 319.603" stroke="#9C0000"/>
<path d="M417.693 278.988L407.1 277.724L394.842 286.191L383.246 297.241L374.4 308.53L366.558 307.505" stroke="#9C0000"/>
<path d="M322.587 78.4763L311.964 77.4899L299.932 86.2744L288.629 97.6243L280.082 109.141L272.215 108.321" stroke="#9C0000"/>
<path d="M124.999 142.767L114.533 144.838L105.492 156.678L97.8774 170.771L92.9531 184.241L85.1779 185.689" stroke="#9C0000"/>
<path d="M307.819 19.0441L297.151 18.9872L285.931 28.7869L275.66 41.0788L268.149 53.2967L260.241 53.1657" stroke="#9C0000"/>
<path d="M35 110L27.6154 117.699L27 132.584L28.8462 148.496L32.5385 162.354L27 168" stroke="#9C0000"/>
<path d="M129.865 101.048L131.406 90.4921L123.263 78.0167L112.52 66.1349L101.467 56.9967L102.697 49.184" stroke="#9C0000"/>
<path d="M210.865 132.048L212.406 121.492L204.263 109.017L193.52 97.1349L182.467 87.9967L183.697 80.184" stroke="#9C0000"/>
<path d="M287.847 202.347L288.602 213.602L278.773 224.797L266.196 234.829L253.519 241.955L254.175 250.304" stroke="#9C0000"/>
<path d="M393.405 78.1366L382.74 77.8936L371.35 87.496L360.866 99.6068L353.143 111.692L345.238 111.423" stroke="#9C0000"/>
<path d="M327.817 241.205L338.389 239.777L348.137 228.511L356.597 214.909L362.334 201.765L370.183 200.794" stroke="#9C0000"/>
<path d="M194.202 5.0122L190.94 15.1693L196.912 28.8176L205.546 42.3095L214.94 53.1467L212.437 60.6492" stroke="#9C0000"/>
<path d="M57.414 214.332C58.3986 214.332 61.5166 220.486 62.9525 223.563C62.9525 226.469 62.9525 232.486 62.9525 233.307C62.9525 234.127 63.3627 243.563 63.5679 248.178V258.435L61.1063 268.178L55.5679 274.332" stroke="#8D6969"/>
<path d="M272.338 138.978C273.081 139.624 271.397 146.313 270.462 149.578C268.556 151.771 264.608 156.312 264.07 156.931C263.531 157.55 257.651 164.941 254.777 168.559L248.049 176.299L239.798 182.038L231.581 183.049" stroke="#8D6969"/>
<path d="M197.338 165.978C198.081 166.624 196.397 173.313 195.462 176.578C193.556 178.771 189.608 183.312 189.07 183.931C188.531 184.55 182.651 191.941 179.777 195.559L173.049 203.299L164.798 209.038L156.581 210.049" stroke="#8D6969"/>
<path d="M418.121 117.58C418.786 118.306 416.355 124.763 415.057 127.9C412.914 129.863 408.478 133.928 407.873 134.483C407.268 135.037 400.588 141.714 397.324 144.984L389.762 151.913L380.916 156.681L372.637 156.755" stroke="#8D6969"/>
<path d="M440.761 195.118C441.374 195.888 438.498 202.159 436.984 205.199C434.71 207.008 430.001 210.753 429.359 211.264C428.717 211.775 421.588 217.97 418.103 221.004L410.076 227.388L400.919 231.527L392.655 231.024" stroke="#8D6969"/>
<path d="M112.848 353.711C111.866 353.642 109.185 347.286 107.967 344.116C108.17 341.218 108.59 335.215 108.647 334.397C108.704 333.578 108.953 324.137 109.07 319.518L109.786 309.287L112.921 299.739L118.875 293.986" stroke="#8D6969"/>
<path d="M170.354 247.341C170.44 248.322 164.581 251.964 161.641 253.663C158.746 253.916 152.752 254.441 151.935 254.512C151.117 254.584 141.753 255.815 137.173 256.421L126.956 257.315L117.035 255.712L110.422 250.731" stroke="#8D6969"/>
<path d="M168.277 381.529C168.269 380.544 174.395 377.373 177.459 375.91C180.365 375.885 186.382 375.832 187.203 375.825C188.023 375.818 197.455 375.325 202.069 375.08L212.325 374.99L222.089 377.367L228.291 382.851" stroke="#8D6969"/>
<path d="M219.414 272.332C220.399 272.332 223.517 278.486 224.952 281.563C224.952 284.469 224.952 290.486 224.952 291.307C224.952 292.127 225.363 301.563 225.568 306.178V316.435L223.106 326.178L217.568 332.332" stroke="#8D6969"/>
<path d="M279.757 370.455C278.773 370.438 275.763 364.231 274.381 361.129C274.431 358.224 274.536 352.207 274.551 351.387C274.565 350.567 274.319 341.125 274.195 336.507L274.374 326.252L277.005 316.553L282.65 310.497" stroke="#8D6969"/>
<path d="M303.342 264.172C304.255 263.803 309.451 268.341 311.935 270.656C313.024 273.35 315.278 278.929 315.585 279.69C315.893 280.451 319.808 289.046 321.727 293.249L325.569 302.758L326.937 312.714L324.107 320.495" stroke="#8D6969"/>
<path d="M419.464 272.042C420.205 273.025 417.636 279.841 416.258 283.126C413.938 284.875 409.132 288.496 408.477 288.99C407.822 289.484 400.594 295.572 397.063 298.554L388.871 304.727L379.238 308.133L370.157 306.308" stroke="#8D6969"/>
<path d="M324.203 71.6164C324.969 72.5797 322.58 79.4607 321.289 82.7808C319.015 84.5898 314.306 88.3355 313.663 88.8463C313.021 89.3571 305.956 95.6324 302.503 98.7062L294.477 105.091L284.936 108.749L275.81 107.161" stroke="#8D6969"/>
<path d="M125.09 137.109C126.098 137.815 125.761 145.091 125.467 148.641C123.8 151.022 120.348 155.951 119.878 156.623C119.407 157.295 114.415 165.319 111.978 169.246L106.095 177.648L97.9859 183.865L88.7851 184.935" stroke="#8D6969"/>
<path d="M308.938 12.5011C309.785 13.3939 308.004 20.457 307.008 23.877C304.9 25.8773 300.535 30.0192 299.94 30.584C299.345 31.1488 292.853 38.016 289.682 41.379L282.242 48.4391L273.057 52.9142L263.827 52.1284" stroke="#8D6969"/>
<path d="M33.3077 108C34.5385 108 38.4359 114.154 40.2308 117.231C40.2308 120.137 40.2308 126.154 40.2308 126.974C40.2308 127.795 40.7436 137.231 41 141.846V152.103L37.9231 161.846L31 168" stroke="#8D6969"/>
<path d="M140.894 96.977C139.892 97.6918 133.146 94.9451 129.898 93.4824C128.21 91.1166 124.716 86.218 124.24 85.55C123.763 84.882 117.866 77.4979 114.977 73.8893L109.021 65.5394L105.868 55.8202L107.931 46.79" stroke="#8D6969"/>
<path d="M221.894 127.977C220.892 128.692 214.146 125.945 210.898 124.482C209.21 122.117 205.716 117.218 205.24 116.55C204.763 115.882 198.866 108.498 195.977 104.889L190.021 96.5394L186.868 86.8202L188.931 77.79" stroke="#8D6969"/>
<path d="M299.071 207.934C298.054 206.982 290.559 208.401 286.939 209.229C284.92 211.322 280.741 215.656 280.171 216.247C279.602 216.837 272.624 223.237 269.207 226.362L262.083 233.749L257.859 243.145L259.306 252.93" stroke="#8D6969"/>
<path d="M417.189 104.851C418.02 105.759 416.116 112.79 415.06 116.192C412.918 118.155 408.482 122.22 407.877 122.774C407.272 123.329 400.661 130.082 397.432 133.389L389.87 140.318L380.607 144.632L371.393 143.685" stroke="#8D6969"/>
<path d="M337.431 245.154C336.468 244.388 337.249 237.145 337.76 233.62C339.569 231.346 343.314 226.637 343.825 225.995C344.336 225.352 349.808 217.649 352.481 213.877L358.866 205.85L367.339 200.14L376.588 199.634" stroke="#8D6969"/>
<path d="M192.749 6.04672C193.855 5.50719 200.056 9.32971 203.018 11.3084C204.292 13.9203 206.929 19.3284 207.289 20.0659C207.649 20.8034 212.246 29.0595 214.5 33.0954L218.996 42.3138L220.502 52.4201L216.977 60.986" stroke="#8D6969"/>
</svg>
