<svg width="445" height="449" viewBox="0 0 445 449" fill="none" xmlns="http://www.w3.org/2000/svg">
<line x1="92.9534" y1="138.887" x2="63.6817" y2="165.499" stroke="white" stroke-width="5"/>
<line x1="141.954" y1="124.887" x2="112.682" y2="151.499" stroke="white" stroke-width="5"/>
<line x1="184.562" y1="224.949" x2="175.562" y2="260.949" stroke="white" stroke-width="5"/>
<line x1="162.021" y1="237.005" x2="199.021" y2="251.005" stroke="white" stroke-width="5"/>
<line x1="203.584" y1="173.833" x2="211.656" y2="212.561" stroke="white" stroke-width="5"/>
<path d="M345.601 54.3431L334.985 91.0049" stroke="white" stroke-width="5"/>
<line x1="235.021" y1="205.005" x2="272.021" y2="219.005" stroke="white" stroke-width="5"/>
<line x1="267.021" y1="167.005" x2="304.021" y2="181.005" stroke="white" stroke-width="5"/>
<line x1="303.24" y1="228.355" x2="319.473" y2="192.279" stroke="white" stroke-width="5"/>
<line x1="251.524" y1="166.166" x2="238.497" y2="203.52" stroke="white" stroke-width="5"/>
<line x1="346.592" y1="236.979" x2="343.643" y2="197.529" stroke="white" stroke-width="5"/>
<line x1="346.021" y1="252.005" x2="383.021" y2="266.005" stroke="white" stroke-width="5"/>
<line x1="379.592" y1="232.979" x2="376.643" y2="193.529" stroke="white" stroke-width="5"/>
<line x1="277.584" y1="125.833" x2="285.656" y2="164.561" stroke="white" stroke-width="5"/>
<line x1="390.021" y1="151.005" x2="427.021" y2="165.005" stroke="white" stroke-width="5"/>
<line x1="403.592" y1="216.979" x2="400.643" y2="177.529" stroke="white" stroke-width="5"/>
<line x1="350.021" y1="160.005" x2="387.021" y2="174.005" stroke="white" stroke-width="5"/>
<line x1="343.617" y1="183.254" x2="340.669" y2="143.804" stroke="white" stroke-width="5"/>
<line x1="187.297" y1="131.884" x2="200.681" y2="169.111" stroke="white" stroke-width="5"/>
<line x1="65.5917" y1="121.979" x2="62.6431" y2="82.5294" stroke="white" stroke-width="5"/>
<line x1="298.021" y1="240.005" x2="335.021" y2="254.005" stroke="white" stroke-width="5"/>
<line x1="247.021" y1="86.0049" x2="284.021" y2="100.005" stroke="white" stroke-width="5"/>
<line x1="227.021" y1="69.0049" x2="264.021" y2="83.0049" stroke="white" stroke-width="5"/>
<line x1="350.021" y1="106.005" x2="387.021" y2="120.005" stroke="white" stroke-width="5"/>
<line x1="187.021" y1="35.0049" x2="224.021" y2="49.0049" stroke="white" stroke-width="5"/>
<line x1="275.306" y1="58.1017" x2="294.951" y2="92.4393" stroke="white" stroke-width="5"/>
<line x1="295.306" y1="56.1017" x2="314.951" y2="90.4393" stroke="white" stroke-width="5"/>
<line x1="260.306" y1="101.102" x2="279.951" y2="135.439" stroke="white" stroke-width="5"/>
<line x1="179.021" y1="75.0049" x2="216.021" y2="89.0049" stroke="white" stroke-width="5"/>
<line x1="107.388" y1="77.2561" x2="124.589" y2="112.88" stroke="white" stroke-width="5"/>
<line x1="156.306" y1="84.1017" x2="175.951" y2="118.439" stroke="white" stroke-width="5"/>
<line x1="116.021" y1="54.0049" x2="153.021" y2="68.0049" stroke="white" stroke-width="5"/>
<line x1="149.021" y1="48.0049" x2="186.021" y2="62.0049" stroke="white" stroke-width="5"/>
<line x1="146.954" y1="235.887" x2="117.682" y2="262.499" stroke="white" stroke-width="5"/>
<line x1="167.021" y1="135.005" x2="204.021" y2="149.005" stroke="white" stroke-width="5"/>
<path d="M158.021 149.005L144.636 172.843" stroke="white" stroke-width="5"/>
<line x1="150.508" y1="164.553" x2="164.508" y2="206.553" stroke="white" stroke-width="5"/>
<path d="M244.136 147.581L279.751 129.92" stroke="white" stroke-width="5"/>
<line x1="357.021" y1="73.0049" x2="394.021" y2="87.0049" stroke="white" stroke-width="5"/>
<line x1="122.626" y1="205.335" x2="153.626" y2="228.335" stroke="white" stroke-width="5"/>
<line x1="377.336" y1="283.155" x2="404.336" y2="333.155" stroke="white" stroke-width="5"/>
<line x1="217.021" y1="228.005" x2="254.021" y2="242.005" stroke="white" stroke-width="5"/>
<line x1="95.021" y1="247.005" x2="132.021" y2="261.005" stroke="white" stroke-width="5"/>
<path d="M115.136 248.843L123.021 275.005" stroke="white" stroke-width="5"/>
<line x1="77.021" y1="275.005" x2="114.021" y2="289.005" stroke="white" stroke-width="5"/>
<line x1="285.082" y1="228.593" x2="265.302" y2="262.853" stroke="white" stroke-width="5"/>
<line x1="73.021" y1="317.005" x2="110.021" y2="331.005" stroke="white" stroke-width="5"/>
<line x1="29.0252" y1="275.846" x2="74.0252" y2="273.846" stroke="white" stroke-width="5"/>
<line x1="112.953" y1="171.887" x2="83.6817" y2="198.499" stroke="white" stroke-width="5"/>
<line x1="201.021" y1="120.005" x2="238.021" y2="134.005" stroke="white" stroke-width="5"/>
<line x1="322.306" y1="299.102" x2="341.951" y2="333.439" stroke="white" stroke-width="5"/>
<line x1="297.306" y1="126.102" x2="316.951" y2="160.439" stroke="white" stroke-width="5"/>
<line x1="166.984" y1="175.933" x2="186.629" y2="210.27" stroke="white" stroke-width="5"/>
<line x1="78.0897" y1="299.193" x2="48.8179" y2="325.804" stroke="white" stroke-width="5"/>
<line x1="344.09" y1="314.193" x2="314.818" y2="340.804" stroke="white" stroke-width="5"/>
<line x1="113.021" y1="179.005" x2="150.021" y2="193.005" stroke="white" stroke-width="5"/>
<line x1="348.616" y1="116.722" x2="310.031" y2="125.452" stroke="white" stroke-width="5"/>
<line x1="329.09" y1="269.193" x2="299.818" y2="295.804" stroke="white" stroke-width="5"/>
<line x1="221.953" y1="290.887" x2="192.681" y2="317.499" stroke="white" stroke-width="5"/>
<line x1="143.021" y1="255.005" x2="180.021" y2="269.005" stroke="white" stroke-width="5"/>
<line x1="245.021" y1="231.005" x2="282.021" y2="245.005" stroke="white" stroke-width="5"/>
<line x1="158.635" y1="271.409" x2="157.635" y2="309.409" stroke="white" stroke-width="5"/>
<line x1="256.021" y1="270.005" x2="293.021" y2="284.005" stroke="white" stroke-width="5"/>
<line x1="79.021" y1="346.005" x2="116.021" y2="360.005" stroke="white" stroke-width="5"/>
<line x1="133.021" y1="305.005" x2="170.021" y2="319.005" stroke="white" stroke-width="5"/>
<line x1="400.021" y1="263.005" x2="437.021" y2="277.005" stroke="white" stroke-width="5"/>
<line x1="54.0897" y1="128.193" x2="24.8179" y2="154.804" stroke="white" stroke-width="5"/>
<line x1="160.439" y1="332.187" x2="132.356" y2="360.049" stroke="white" stroke-width="5"/>
<line x1="404.81" y1="285.2" x2="362.81" y2="323.063" stroke="white" stroke-width="5"/>
<line x1="150.98" y1="376.118" x2="122.897" y2="403.981" stroke="white" stroke-width="5"/>
<line x1="167.021" y1="18.0049" x2="204.021" y2="32.0049" stroke="white" stroke-width="5"/>
<line x1="400.021" y1="225.005" x2="437.021" y2="239.005" stroke="white" stroke-width="5"/>
<line x1="441.617" y1="234.254" x2="438.669" y2="194.804" stroke="white" stroke-width="5"/>
<line x1="199.128" y1="252.832" x2="221.128" y2="281.832" stroke="white" stroke-width="5"/>
<line x1="225.021" y1="292.005" x2="262.021" y2="306.005" stroke="white" stroke-width="5"/>
<line x1="286.202" y1="294.506" x2="283.631" y2="333.982" stroke="white" stroke-width="5"/>
<line x1="332.021" y1="281.005" x2="369.021" y2="295.005" stroke="white" stroke-width="5"/>
<line x1="240.439" y1="331.187" x2="212.356" y2="359.049" stroke="white" stroke-width="5"/>
<line x1="279.98" y1="381.118" x2="251.897" y2="408.981" stroke="white" stroke-width="5"/>
<line x1="282.021" y1="353.005" x2="319.021" y2="367.005" stroke="white" stroke-width="5"/>
<line x1="189.021" y1="376.005" x2="226.021" y2="390.005" stroke="white" stroke-width="5"/>
<line x1="195.021" y1="317.005" x2="232.021" y2="331.005" stroke="white" stroke-width="5"/>
<line x1="254.98" y1="357.118" x2="226.897" y2="384.981" stroke="white" stroke-width="5"/>
<line x1="182.439" y1="346.187" x2="154.356" y2="374.049" stroke="white" stroke-width="5"/>
<line x1="111.021" y1="308.005" x2="148.021" y2="322.005" stroke="white" stroke-width="5"/>
<path d="M72.2065 200.343L88.2065 239.843" stroke="white" stroke-width="5"/>
<line x1="68.9534" y1="223.887" x2="39.6817" y2="250.499" stroke="white" stroke-width="5"/>
<line x1="30.9534" y1="182.887" x2="1.68169" y2="209.499" stroke="white" stroke-width="5"/>
<line x1="177.021" y1="404.005" x2="214.021" y2="418.005" stroke="white" stroke-width="5"/>
<line x1="268.021" y1="335.005" x2="305.021" y2="349.005" stroke="white" stroke-width="5"/>
<line x1="201.021" y1="164.005" x2="238.021" y2="178.005" stroke="white" stroke-width="5"/>
<line x1="218.515" y1="234.574" x2="229.515" y2="268.574" stroke="white" stroke-width="5"/>
<line x1="254.021" y1="210.005" x2="291.021" y2="224.005" stroke="white" stroke-width="5"/>
<line x1="73.021" y1="140.005" x2="110.021" y2="154.005" stroke="white" stroke-width="5"/>
<line x1="206.021" y1="99.0049" x2="243.021" y2="113.005" stroke="white" stroke-width="5"/>
<line x1="248.021" y1="16.0049" x2="285.021" y2="30.0049" stroke="white" stroke-width="5"/>
<line x1="366.09" y1="356.193" x2="336.818" y2="382.804" stroke="white" stroke-width="5"/>
<line x1="302.364" y1="94.1449" x2="275.464" y2="65.1387" stroke="white" stroke-width="5"/>
<line x1="316.85" y1="143.004" x2="289.949" y2="113.997" stroke="white" stroke-width="5"/>
<line x1="217.215" y1="186.602" x2="181.128" y2="177.96" stroke="white" stroke-width="5"/>
<line x1="204.937" y1="164.183" x2="191.305" y2="201.32" stroke="white" stroke-width="5"/>
<line x1="268.518" y1="205.116" x2="229.872" y2="213.573" stroke="white" stroke-width="5"/>
<path d="M389.411 345.941L352.645 335.69" stroke="white" stroke-width="5"/>
<line x1="237.659" y1="236.861" x2="224.027" y2="273.999" stroke="white" stroke-width="5"/>
<line x1="275.975" y1="268.483" x2="262.343" y2="305.62" stroke="white" stroke-width="5"/>
<line x1="214.987" y1="305.309" x2="251.222" y2="321.183" stroke="white" stroke-width="5"/>
<line x1="276.66" y1="252.978" x2="239.178" y2="240.322" stroke="white" stroke-width="5"/>
<line x1="206.793" y1="348.744" x2="246.212" y2="345.404" stroke="white" stroke-width="5"/>
<line x1="191.763" y1="348.322" x2="178.131" y2="385.459" stroke="white" stroke-width="5"/>
<line x1="211.12" y1="381.703" x2="250.539" y2="378.363" stroke="white" stroke-width="5"/>
<line x1="317.25" y1="278.637" x2="278.604" y2="287.093" stroke="white" stroke-width="5"/>
<line x1="293.195" y1="391.318" x2="279.562" y2="428.455" stroke="white" stroke-width="5"/>
<line x1="227.358" y1="405.543" x2="266.777" y2="402.203" stroke="white" stroke-width="5"/>
<line x1="283.798" y1="351.409" x2="270.166" y2="388.546" stroke="white" stroke-width="5"/>
<line x1="260.486" y1="345.237" x2="299.905" y2="341.897" stroke="white" stroke-width="5"/>
<line x1="310.303" y1="188.414" x2="273.211" y2="202.167" stroke="white" stroke-width="5"/>
<line x1="318.999" y1="66.6167" x2="358.418" y2="63.2769" stroke="white" stroke-width="5"/>
<line x1="203.286" y1="300.206" x2="189.654" y2="337.343" stroke="white" stroke-width="5"/>
<line x1="356.773" y1="247.68" x2="343.14" y2="284.817" stroke="white" stroke-width="5"/>
<line x1="373.573" y1="227.512" x2="359.941" y2="264.65" stroke="white" stroke-width="5"/>
<line x1="337.796" y1="350.874" x2="324.163" y2="388.011" stroke="white" stroke-width="5"/>
<line x1="407.175" y1="187.177" x2="393.542" y2="224.314" stroke="white" stroke-width="5"/>
<line x1="384.955" y1="275.687" x2="350.814" y2="295.672" stroke="white" stroke-width="5"/>
<line x1="387.154" y1="295.666" x2="353.013" y2="315.651" stroke="white" stroke-width="5"/>
<line x1="341.808" y1="261.115" x2="307.667" y2="281.099" stroke="white" stroke-width="5"/>
<line x1="367.097" y1="179.574" x2="353.465" y2="216.711" stroke="white" stroke-width="5"/>
<line x1="364.135" y1="107.967" x2="328.683" y2="125.521" stroke="white" stroke-width="5"/>
<line x1="357.776" y1="156.951" x2="323.635" y2="176.936" stroke="white" stroke-width="5"/>
<line x1="387.471" y1="116.369" x2="373.839" y2="153.506" stroke="white" stroke-width="5"/>
<line x1="393.798" y1="149.308" x2="380.166" y2="186.445" stroke="white" stroke-width="5"/>
<line x1="205.905" y1="149.105" x2="179.004" y2="120.098" stroke="white" stroke-width="5"/>
<line x1="306.981" y1="168.17" x2="293.349" y2="205.307" stroke="white" stroke-width="5"/>
<path d="M292.893 159.31L268.923 146.162" stroke="white" stroke-width="5"/>
<line x1="277.271" y1="151.951" x2="235.412" y2="166.367" stroke="white" stroke-width="5"/>
<path d="M295.171 245.406L313.185 280.845" stroke="white" stroke-width="5"/>
<line x1="370.863" y1="357.546" x2="357.231" y2="394.683" stroke="white" stroke-width="5"/>
<line x1="236.214" y1="124.475" x2="213.523" y2="155.702" stroke="white" stroke-width="5"/>
<line x1="160.925" y1="379.945" x2="111.195" y2="407.44" stroke="white" stroke-width="5"/>
<line x1="214.482" y1="219.091" x2="200.849" y2="256.228" stroke="white" stroke-width="5"/>
<line x1="194.272" y1="97.2851" x2="180.64" y2="134.422" stroke="white" stroke-width="5"/>
<path d="M192.634 117.418L166.552 125.562" stroke="white" stroke-width="5"/>
<line x1="166.095" y1="79.5638" x2="152.463" y2="116.701" stroke="white" stroke-width="5"/>
<line x1="214.569" y1="287.153" x2="180.114" y2="267.714" stroke="white" stroke-width="5"/>
<line x1="124.057" y1="75.9807" x2="110.425" y2="113.118" stroke="white" stroke-width="5"/>
<line x1="164.778" y1="31.5788" x2="167.224" y2="76.5567" stroke="white" stroke-width="5"/>
<line x1="269.564" y1="114.471" x2="242.663" y2="85.4651" stroke="white" stroke-width="5"/>
<line x1="322.318" y1="202.02" x2="308.685" y2="239.157" stroke="white" stroke-width="5"/>
<line x1="144.433" y1="325.076" x2="110.292" y2="345.061" stroke="white" stroke-width="5"/>
<line x1="317.177" y1="298.361" x2="283.035" y2="318.346" stroke="white" stroke-width="5"/>
<line x1="266.055" y1="168.539" x2="231.914" y2="188.524" stroke="white" stroke-width="5"/>
<line x1="141.919" y1="80.8724" x2="115.018" y2="51.8662" stroke="white" stroke-width="5"/>
<line x1="129.559" y1="347.008" x2="102.658" y2="318.002" stroke="white" stroke-width="5"/>
<line x1="262.447" y1="114.61" x2="248.815" y2="151.747" stroke="white" stroke-width="5"/>
<line x1="327.065" y1="349.575" x2="317.952" y2="311.079" stroke="white" stroke-width="5"/>
<line x1="174.408" y1="331.562" x2="147.507" y2="302.556" stroke="white" stroke-width="5"/>
<line x1="151.651" y1="224.647" x2="124.751" y2="195.64" stroke="white" stroke-width="5"/>
<line x1="186.749" y1="145.362" x2="173.117" y2="182.499" stroke="white" stroke-width="5"/>
<line x1="211.76" y1="247.119" x2="198.128" y2="284.256" stroke="white" stroke-width="5"/>
<line x1="170.501" y1="161.139" x2="132.492" y2="160.516" stroke="white" stroke-width="5"/>
<line x1="172.871" y1="258.505" x2="159.239" y2="295.642" stroke="white" stroke-width="5"/>
<line x1="95.1184" y1="82.2682" x2="81.4862" y2="119.405" stroke="white" stroke-width="5"/>
<line x1="136.652" y1="135.859" x2="123.02" y2="172.996" stroke="white" stroke-width="5"/>
<line x1="181.299" y1="402.429" x2="167.667" y2="439.566" stroke="white" stroke-width="5"/>
<line x1="312.672" y1="55.177" x2="285.772" y2="26.1707" stroke="white" stroke-width="5"/>
<line x1="109.744" y1="163.545" x2="81.6037" y2="135.74" stroke="white" stroke-width="5"/>
<line x1="159.153" y1="407.438" x2="120.875" y2="365.816" stroke="white" stroke-width="5"/>
<line x1="65.7209" y1="154.523" x2="37.5807" y2="126.717" stroke="white" stroke-width="5"/>
<line x1="423.975" y1="167.009" x2="410.343" y2="204.146" stroke="white" stroke-width="5"/>
<line x1="219.298" y1="402.052" x2="205.665" y2="439.189" stroke="white" stroke-width="5"/>
<line x1="210.461" y1="443.738" x2="249.88" y2="440.398" stroke="white" stroke-width="5"/>
<line x1="189.478" y1="201.445" x2="160.698" y2="223.731" stroke="white" stroke-width="5"/>
<line x1="150.564" y1="227.725" x2="136.932" y2="264.862" stroke="white" stroke-width="5"/>
<line x1="148.671" y1="288.928" x2="109.171" y2="286.749" stroke="white" stroke-width="5"/>
<line x1="162.626" y1="334.611" x2="148.993" y2="371.748" stroke="white" stroke-width="5"/>
<line x1="111.538" y1="243.531" x2="83.3976" y2="215.726" stroke="white" stroke-width="5"/>
<line x1="62.0011" y1="283.566" x2="33.861" y2="255.761" stroke="white" stroke-width="5"/>
<line x1="90.133" y1="285.328" x2="76.5008" y2="322.465" stroke="white" stroke-width="5"/>
<line x1="66.2114" y1="192.56" x2="52.5792" y2="229.697" stroke="white" stroke-width="5"/>
<line x1="125.268" y1="197.975" x2="111.636" y2="235.112" stroke="white" stroke-width="5"/>
<line x1="85.7519" y1="258.329" x2="57.6117" y2="230.524" stroke="white" stroke-width="5"/>
<line x1="95.9628" y1="185.683" x2="67.8227" y2="157.878" stroke="white" stroke-width="5"/>
<line x1="133.434" y1="113.89" x2="119.802" y2="151.027" stroke="white" stroke-width="5"/>
<path d="M240.706 74.0088L201.366 90.3999" stroke="white" stroke-width="5"/>
<line x1="217.13" y1="70.9895" x2="190.229" y2="41.9832" stroke="white" stroke-width="5"/>
<line x1="257.751" y1="32.5845" x2="230.85" y2="3.57828" stroke="white" stroke-width="5"/>
<line x1="38.0937" y1="180.839" x2="24.4615" y2="217.976" stroke="white" stroke-width="5"/>
<line x1="107.993" y1="271.15" x2="94.3609" y2="308.287" stroke="white" stroke-width="5"/>
<line x1="278.32" y1="202.456" x2="264.688" y2="239.593" stroke="white" stroke-width="5"/>
<line x1="207.928" y1="220.65" x2="174.039" y2="231.986" stroke="white" stroke-width="5"/>
<line x1="232.848" y1="255.91" x2="219.216" y2="293.047" stroke="white" stroke-width="5"/>
<line x1="301.049" y1="74.2245" x2="287.416" y2="111.362" stroke="white" stroke-width="5"/>
<line x1="343.366" y1="206.811" x2="329.734" y2="243.948" stroke="white" stroke-width="5"/>
<line x1="426.779" y1="247.986" x2="413.147" y2="285.123" stroke="white" stroke-width="5"/>
<line x1="87.7793" y1="369.424" x2="60.8787" y2="340.418" stroke="white" stroke-width="5"/>
</svg>
